<?xml version="1.0" encoding="UTF-8" standalone="no"?>
<!DOCTYPE svg PUBLIC "-//W3C//DTD SVG 1.1//EN"
 "http://www.w3.org/Graphics/SVG/1.1/DTD/svg11.dtd">
<!-- Generated by graphviz version 2.40.1 (20161225.0304)
 -->
<!-- Title: G Pages: 1 -->
<svg width="805pt" height="510pt"
 viewBox="0.00 0.00 805.39 510.00" xmlns="http://www.w3.org/2000/svg" xmlns:xlink="http://www.w3.org/1999/xlink">
<g id="graph0" class="graph" transform="scale(1 1) rotate(0) translate(4 506)">
<title>G</title>
<polygon fill="#ffffff" stroke="transparent" points="-4,4 -4,-506 801.3864,-506 801.3864,4 -4,4"/>
<!-- #24 CFG_F_START __main__ -->
<g id="node1" class="node">
<title>#24 CFG_F_START __main__</title>
<ellipse fill="none" stroke="#ff0000" cx="503.6419" cy="-484" rx="122.6784" ry="18"/>
<text text-anchor="middle" x="503.6419" y="-480.3" font-family="Times,serif" font-size="14.00" fill="#ff0000">#24 CFG_F_START __main__</text>
</g>
<!-- #1» cp = require(&#39;child_process&#39;) -->
<g id="node2" class="node">
<title>#1» cp = require(&#39;child_process&#39;)</title>
<ellipse fill="none" stroke="#000000" cx="503.6419" cy="-411" rx="126.978" ry="18"/>
<text text-anchor="middle" x="503.6419" y="-407.3" font-family="Times,serif" font-size="14.00" fill="#000000">#1» cp = require(&#39;child_process&#39;)</text>
</g>
<!-- #24 CFG_F_START __main__&#45;&gt;#1» cp = require(&#39;child_process&#39;) -->
<g id="edge1" class="edge">
<title>#24 CFG_F_START __main__&#45;&gt;#1» cp = require(&#39;child_process&#39;)</title>
<path fill="none" stroke="#ff0000" d="M503.6419,-465.9551C503.6419,-457.8828 503.6419,-448.1764 503.6419,-439.1817"/>
<polygon fill="#ff0000" stroke="#ff0000" points="507.142,-439.0903 503.6419,-429.0904 500.142,-439.0904 507.142,-439.0903"/>
</g>
<!-- #5» f = Function (__6_anon__) &#45; (24) -->
<g id="node7" class="node">
<title>#5» f = Function (__6_anon__) &#45; (24)</title>
<ellipse fill="none" stroke="#000000" cx="393.6419" cy="-338" rx="144.8743" ry="18"/>
<text text-anchor="middle" x="393.6419" y="-334.3" font-family="Times,serif" font-size="14.00" fill="#000000">#5» f = Function (__6_anon__) &#45; (24)</text>
</g>
<!-- #1» cp = require(&#39;child_process&#39;)&#45;&gt;#5» f = Function (__6_anon__) &#45; (24) -->
<g id="edge4" class="edge">
<title>#1» cp = require(&#39;child_process&#39;)&#45;&gt;#5» f = Function (__6_anon__) &#45; (24)</title>
<path fill="none" stroke="#ff0000" d="M477.0139,-393.3287C462.5288,-383.7159 444.4281,-371.7036 428.797,-361.3303"/>
<polygon fill="#ff0000" stroke="#ff0000" points="430.6733,-358.3748 420.4058,-355.7615 426.8027,-364.2074 430.6733,-358.3748"/>
</g>
<!-- #29 24.cp&#45;o1 -->
<g id="node8" class="node">
<title>#29 24.cp&#45;o1</title>
<ellipse fill="none" stroke="#006400" cx="614.6419" cy="-338" rx="57.6901" ry="18"/>
<text text-anchor="middle" x="614.6419" y="-334.3" font-family="Times,serif" font-size="14.00" fill="#006400">#29 24.cp&#45;o1</text>
</g>
<!-- #1» cp = require(&#39;child_process&#39;)&#45;&gt;#29 24.cp&#45;o1 -->
<g id="edge5" class="edge">
<title>#1» cp = require(&#39;child_process&#39;)&#45;&gt;#29 24.cp&#45;o1</title>
<path fill="none" stroke="#000000" stroke-dasharray="5,2" d="M530.5119,-393.3287C545.6701,-383.3598 564.7519,-370.8105 580.9091,-360.1846"/>
<polygon fill="#000000" stroke="#000000" points="583.109,-362.9269 589.5409,-354.5078 579.2626,-357.0784 583.109,-362.9269"/>
</g>
<!-- #26 CFG_F_START 6_anon -->
<g id="node3" class="node">
<title>#26 CFG_F_START 6_anon</title>
<ellipse fill="none" stroke="#ff0000" cx="276.6419" cy="-251" rx="113.18" ry="18"/>
<text text-anchor="middle" x="276.6419" y="-247.3" font-family="Times,serif" font-size="14.00" fill="#ff0000">#26 CFG_F_START 6_anon</text>
</g>
<!-- #8 Variable (y) &#45; (26) -->
<g id="node4" class="node">
<title>#8 Variable (y) &#45; (26)</title>
<ellipse fill="none" stroke="#000000" cx="271.6419" cy="-178" rx="87.1846" ry="18"/>
<text text-anchor="middle" x="271.6419" y="-174.3" font-family="Times,serif" font-size="14.00" fill="#000000">#8 Variable (y) &#45; (26)</text>
</g>
<!-- #26 CFG_F_START 6_anon&#45;&gt;#8 Variable (y) &#45; (26) -->
<g id="edge2" class="edge">
<title>#26 CFG_F_START 6_anon&#45;&gt;#8 Variable (y) &#45; (26)</title>
<path fill="none" stroke="#ff0000" d="M275.4059,-232.9551C274.853,-224.8828 274.1882,-215.1764 273.5721,-206.1817"/>
<polygon fill="#ff0000" stroke="#ff0000" points="277.0562,-205.8278 272.8809,-196.0904 270.0725,-206.3062 277.0562,-205.8278"/>
</g>
<!-- #9» y = cp.execSync(x); &#45; (26) -->
<g id="node9" class="node">
<title>#9» y = cp.execSync(x); &#45; (26)</title>
<ellipse fill="none" stroke="#000000" cx="270.6419" cy="-91" rx="120.4791" ry="18"/>
<text text-anchor="middle" x="270.6419" y="-87.3" font-family="Times,serif" font-size="14.00" fill="#000000">#9» y = cp.execSync(x); &#45; (26)</text>
</g>
<!-- #8 Variable (y) &#45; (26)&#45;&gt;#9» y = cp.execSync(x); &#45; (26) -->
<g id="edge6" class="edge">
<title>#8 Variable (y) &#45; (26)&#45;&gt;#9» y = cp.execSync(x); &#45; (26)</title>
<path fill="none" stroke="#ff0000" d="M271.4347,-159.9735C271.2992,-148.1918 271.1196,-132.5607 270.9655,-119.1581"/>
<polygon fill="#ff0000" stroke="#ff0000" points="274.4636,-118.9624 270.8488,-109.0034 267.4641,-119.043 274.4636,-118.9624"/>
</g>
<!-- #28 TAINT_SOURCE -->
<g id="node5" class="node">
<title>#28 TAINT_SOURCE</title>
<ellipse fill="none" stroke="#8b6914" cx="91.6419" cy="-338" rx="91.784" ry="18"/>
<text text-anchor="middle" x="91.6419" y="-334.3" font-family="Times,serif" font-size="14.00" fill="#8b6914">#28 TAINT_SOURCE</text>
</g>
<!-- #31 26.x&#45;o3 -->
<g id="node6" class="node">
<title>#31 26.x&#45;o3</title>
<ellipse fill="none" stroke="#006400" cx="91.6419" cy="-251" rx="53.8905" ry="18"/>
<text text-anchor="middle" x="91.6419" y="-247.3" font-family="Times,serif" font-size="14.00" fill="#006400">#31 26.x&#45;o3</text>
</g>
<!-- #28 TAINT_SOURCE&#45;&gt;#31 26.x&#45;o3 -->
<g id="edge3" class="edge">
<title>#28 TAINT_SOURCE&#45;&gt;#31 26.x&#45;o3</title>
<path fill="none" stroke="#006400" d="M91.6419,-319.9735C91.6419,-308.1918 91.6419,-292.5607 91.6419,-279.1581"/>
<polygon fill="#006400" stroke="#006400" points="95.142,-279.0033 91.6419,-269.0034 88.142,-279.0034 95.142,-279.0033"/>
<text text-anchor="middle" x="112.1419" y="-290.8" font-family="Times,serif" font-size="14.00" fill="#006400">TAINT</text>
</g>
<!-- #32 26.y&#45;o4 -->
<g id="node10" class="node">
<title>#32 26.y&#45;o4</title>
<ellipse fill="none" stroke="#006400" cx="94.6419" cy="-18" rx="53.8905" ry="18"/>
<text text-anchor="middle" x="94.6419" y="-14.3" font-family="Times,serif" font-size="14.00" fill="#006400">#32 26.y&#45;o4</text>
</g>
<!-- #31 26.x&#45;o3&#45;&gt;#32 26.y&#45;o4 -->
<g id="edge7" class="edge">
<title>#31 26.x&#45;o3&#45;&gt;#32 26.y&#45;o4</title>
<path fill="none" stroke="#006400" d="M91.8773,-232.7169C92.3986,-192.2236 93.6538,-94.7396 94.2775,-46.301"/>
<polygon fill="#006400" stroke="#006400" points="97.7784,-46.2425 94.4076,-36.1982 90.779,-46.1523 97.7784,-46.2425"/>
<text text-anchor="middle" x="114.6419" y="-130.8" font-family="Times,serif" font-size="14.00" fill="#006400">DEP(x)</text>
</g>
<!-- #5» f = Function (__6_anon__) &#45; (24)&#45;&gt;#26 CFG_F_START 6_anon -->
<g id="edge8" class="edge">
<title>#5» f = Function (__6_anon__) &#45; (24)&#45;&gt;#26 CFG_F_START 6_anon</title>
<path fill="none" stroke="#000000" d="M369.6828,-320.1843C352.0952,-307.1063 328.0181,-289.2029 308.7634,-274.8853"/>
<polygon fill="#000000" stroke="#000000" points="310.682,-271.9503 300.5689,-268.7919 306.505,-277.5676 310.682,-271.9503"/>
<text text-anchor="middle" x="351.6419" y="-290.8" font-family="Times,serif" font-size="14.00" fill="#000000">FD</text>
</g>
<!-- #5» f = Function (__6_anon__) &#45; (24)&#45;&gt;#31 26.x&#45;o3 -->
<g id="edge11" class="edge">
<title>#5» f = Function (__6_anon__) &#45; (24)&#45;&gt;#31 26.x&#45;o3</title>
<path fill="none" stroke="#000000" stroke-dasharray="5,2" d="M336.1271,-321.4312C280.0608,-305.2796 195.6459,-280.9614 142.1157,-265.5405"/>
<polygon fill="#000000" stroke="#000000" points="143.0717,-262.1736 132.4936,-262.7685 141.1339,-268.9001 143.0717,-262.1736"/>
<text text-anchor="middle" x="284.6419" y="-290.8" font-family="Times,serif" font-size="14.00" fill="#000000">param 0</text>
</g>
<!-- #18» module.exports = f; &#45; (24) -->
<g id="node11" class="node">
<title>#18» module.exports = f; &#45; (24)</title>
<ellipse fill="none" stroke="#000000" cx="531.6419" cy="-251" rx="124.2781" ry="18"/>
<text text-anchor="middle" x="531.6419" y="-247.3" font-family="Times,serif" font-size="14.00" fill="#000000">#18» module.exports = f; &#45; (24)</text>
</g>
<!-- #5» f = Function (__6_anon__) &#45; (24)&#45;&gt;#18» module.exports = f; &#45; (24) -->
<g id="edge9" class="edge">
<title>#5» f = Function (__6_anon__) &#45; (24)&#45;&gt;#18» module.exports = f; &#45; (24)</title>
<path fill="none" stroke="#ff0000" d="M421.9012,-320.1843C442.9247,-306.9304 471.8097,-288.7203 494.6683,-274.3094"/>
<polygon fill="#ff0000" stroke="#ff0000" points="496.8276,-277.0857 503.4203,-268.7919 493.0945,-271.1642 496.8276,-277.0857"/>
</g>
<!-- #30 26.this&#45;o2 -->
<g id="node12" class="node">
<title>#30 26.this&#45;o2</title>
<ellipse fill="none" stroke="#006400" cx="735.6419" cy="-251" rx="61.99" ry="18"/>
<text text-anchor="middle" x="735.6419" y="-247.3" font-family="Times,serif" font-size="14.00" fill="#006400">#30 26.this&#45;o2</text>
</g>
<!-- #5» f = Function (__6_anon__) &#45; (24)&#45;&gt;#30 26.this&#45;o2 -->
<g id="edge10" class="edge">
<title>#5» f = Function (__6_anon__) &#45; (24)&#45;&gt;#30 26.this&#45;o2</title>
<path fill="none" stroke="#000000" stroke-dasharray="5,2" d="M457.5683,-321.738C521.3006,-305.5254 618.237,-280.8661 679.2016,-265.3576"/>
<polygon fill="#000000" stroke="#000000" points="680.2085,-268.713 689.0369,-262.8556 678.4827,-261.9291 680.2085,-268.713"/>
</g>
<!-- #9» y = cp.execSync(x); &#45; (26)&#45;&gt;#32 26.y&#45;o4 -->
<g id="edge13" class="edge">
<title>#9» y = cp.execSync(x); &#45; (26)&#45;&gt;#32 26.y&#45;o4</title>
<path fill="none" stroke="#000000" stroke-dasharray="5,2" d="M229.8216,-74.0688C202.3887,-62.6905 166.2712,-47.7099 138.2709,-36.0961"/>
<polygon fill="#000000" stroke="#000000" points="139.3108,-32.7384 128.7329,-32.14 136.6289,-39.2043 139.3108,-32.7384"/>
</g>
<!-- #27 CFG_F_END 6_anon -->
<g id="node13" class="node">
<title>#27 CFG_F_END 6_anon</title>
<ellipse fill="none" stroke="#ff0000" cx="270.6419" cy="-18" rx="103.1819" ry="18"/>
<text text-anchor="middle" x="270.6419" y="-14.3" font-family="Times,serif" font-size="14.00" fill="#ff0000">#27 CFG_F_END 6_anon</text>
</g>
<!-- #9» y = cp.execSync(x); &#45; (26)&#45;&gt;#27 CFG_F_END 6_anon -->
<g id="edge12" class="edge">
<title>#9» y = cp.execSync(x); &#45; (26)&#45;&gt;#27 CFG_F_END 6_anon</title>
<path fill="none" stroke="#ff0000" d="M270.6419,-72.9551C270.6419,-64.8828 270.6419,-55.1764 270.6419,-46.1817"/>
<polygon fill="#ff0000" stroke="#ff0000" points="274.142,-46.0903 270.6419,-36.0904 267.142,-46.0904 274.142,-46.0903"/>
</g>
<!-- #25 CFG_F_END __main__ -->
<g id="node14" class="node">
<title>#25 CFG_F_END __main__</title>
<ellipse fill="none" stroke="#ff0000" cx="531.6419" cy="-178" rx="113.18" ry="18"/>
<text text-anchor="middle" x="531.6419" y="-174.3" font-family="Times,serif" font-size="14.00" fill="#ff0000">#25 CFG_F_END __main__</text>
</g>
<!-- #18» module.exports = f; &#45; (24)&#45;&gt;#25 CFG_F_END __main__ -->
<g id="edge14" class="edge">
<title>#18» module.exports = f; &#45; (24)&#45;&gt;#25 CFG_F_END __main__</title>
<path fill="none" stroke="#ff0000" d="M531.6419,-232.9551C531.6419,-224.8828 531.6419,-215.1764 531.6419,-206.1817"/>
<polygon fill="#ff0000" stroke="#ff0000" points="535.142,-206.0903 531.6419,-196.0904 528.142,-206.0904 535.142,-206.0903"/>
</g>
</g>
</svg>
