<?xml version="1.0" encoding="UTF-8" standalone="no"?>
<!DOCTYPE svg PUBLIC "-//W3C//DTD SVG 1.1//EN"
 "http://www.w3.org/Graphics/SVG/1.1/DTD/svg11.dtd">
<!-- Generated by graphviz version 2.40.1 (20161225.0304)
 -->
<!-- Title: G Pages: 1 -->
<svg width="947pt" height="1335pt"
 viewBox="0.00 0.00 947.00 1335.00" xmlns="http://www.w3.org/2000/svg" xmlns:xlink="http://www.w3.org/1999/xlink">
<g id="graph0" class="graph" transform="scale(1 1) rotate(0) translate(4 1331)">
<title>G</title>
<polygon fill="#ffffff" stroke="transparent" points="-4,4 -4,-1331 943,-1331 943,4 -4,4"/>
<!-- #0 Program (0) -->
<g id="node1" class="node">
<title>#0 Program (0)</title>
<ellipse fill="none" stroke="#000000" cx="257" cy="-1309" rx="65.7887" ry="18"/>
<text text-anchor="middle" x="257" y="-1305.3" font-family="Times,serif" font-size="14.00" fill="#000000">#0 Program (0)</text>
</g>
<!-- #1 Variable (x) &#45; (27) -->
<g id="node2" class="node">
<title>#1 Variable (x) &#45; (27)</title>
<ellipse fill="none" stroke="#000000" cx="294" cy="-1222" rx="87.1846" ry="18"/>
<text text-anchor="middle" x="294" y="-1218.3" font-family="Times,serif" font-size="14.00" fill="#000000">#1 Variable (x) &#45; (27)</text>
</g>
<!-- #0 Program (0)&#45;&gt;#1 Variable (x) &#45; (27) -->
<g id="edge1" class="edge">
<title>#0 Program (0)&#45;&gt;#1 Variable (x) &#45; (27)</title>
<path fill="none" stroke="#0000ff" d="M264.6664,-1290.9735C269.7763,-1278.9585 276.5887,-1262.9401 282.3622,-1249.3646"/>
<polygon fill="#0000ff" stroke="#0000ff" points="285.6505,-1250.5755 286.3434,-1240.0034 279.2089,-1247.8359 285.6505,-1250.5755"/>
<text text-anchor="middle" x="281.5" y="-1261.8" font-family="Times,serif" font-size="14.00" fill="#0000ff">1</text>
</g>
<!-- #3 Variable (v1) &#45; (27) -->
<g id="node3" class="node">
<title>#3 Variable (v1) &#45; (27)</title>
<ellipse fill="none" stroke="#000000" cx="466" cy="-1135" rx="91.784" ry="18"/>
<text text-anchor="middle" x="466" y="-1131.3" font-family="Times,serif" font-size="14.00" fill="#000000">#3 Variable (v1) &#45; (27)</text>
</g>
<!-- #0 Program (0)&#45;&gt;#3 Variable (v1) &#45; (27) -->
<g id="edge2" class="edge">
<title>#0 Program (0)&#45;&gt;#3 Variable (v1) &#45; (27)</title>
<path fill="none" stroke="#0000ff" d="M295.9889,-1294.4852C324.1607,-1282.7092 362.0218,-1264.1172 390,-1240 415.9167,-1217.6598 437.8579,-1184.8161 451.4033,-1161.827"/>
<polygon fill="#0000ff" stroke="#0000ff" points="454.563,-1163.3533 456.5124,-1152.9393 448.4943,-1159.8647 454.563,-1163.3533"/>
<text text-anchor="middle" x="426.5" y="-1218.3" font-family="Times,serif" font-size="14.00" fill="#0000ff">2</text>
</g>
<!-- #5 WhileStatement (27) -->
<g id="node4" class="node">
<title>#5 WhileStatement (27)</title>
<ellipse fill="none" stroke="#000000" cx="329" cy="-1048" rx="96.6831" ry="18"/>
<text text-anchor="middle" x="329" y="-1044.3" font-family="Times,serif" font-size="14.00" fill="#000000">#5 WhileStatement (27)</text>
</g>
<!-- #0 Program (0)&#45;&gt;#5 WhileStatement (27) -->
<g id="edge3" class="edge">
<title>#0 Program (0)&#45;&gt;#5 WhileStatement (27)</title>
<path fill="none" stroke="#0000ff" d="M238.3008,-1291.6138C225.2807,-1278.5565 208.4431,-1259.617 198,-1240 165.2486,-1178.4774 138.9757,-1138.8323 182,-1084 190.0181,-1073.7813 213.7689,-1066.086 239.9043,-1060.4893"/>
<polygon fill="#0000ff" stroke="#0000ff" points="240.9018,-1063.8585 250.0098,-1058.4461 239.5145,-1056.9973 240.9018,-1063.8585"/>
<text text-anchor="middle" x="174.5" y="-1174.8" font-family="Times,serif" font-size="14.00" fill="#0000ff">3</text>
</g>
<!-- #1 Variable (x) &#45; (27)&#45;&gt;#3 Variable (v1) &#45; (27) -->
<g id="edge6" class="edge">
<title>#1 Variable (x) &#45; (27)&#45;&gt;#3 Variable (v1) &#45; (27)</title>
<path fill="none" stroke="#ff0000" d="M327.1633,-1205.2255C354.5582,-1191.3688 393.6316,-1171.605 423.3515,-1156.5722"/>
<polygon fill="#ff0000" stroke="#ff0000" points="425.3018,-1159.508 432.6455,-1151.8712 422.1423,-1153.2616 425.3018,-1159.508"/>
</g>
<!-- #2 Literal (27) -->
<g id="node6" class="node">
<title>#2 Literal (27)</title>
<ellipse fill="none" stroke="#000000" cx="294" cy="-1135" rx="62.2891" ry="18"/>
<text text-anchor="middle" x="294" y="-1131.3" font-family="Times,serif" font-size="14.00" fill="#000000">#2 Literal (27)</text>
</g>
<!-- #1 Variable (x) &#45; (27)&#45;&gt;#2 Literal (27) -->
<g id="edge5" class="edge">
<title>#1 Variable (x) &#45; (27)&#45;&gt;#2 Literal (27)</title>
<path fill="none" stroke="#0000ff" d="M294,-1203.9735C294,-1192.1918 294,-1176.5607 294,-1163.1581"/>
<polygon fill="#0000ff" stroke="#0000ff" points="297.5001,-1163.0033 294,-1153.0034 290.5001,-1163.0034 297.5001,-1163.0033"/>
<text text-anchor="middle" x="303.5" y="-1174.8" font-family="Times,serif" font-size="14.00" fill="#0000ff">init</text>
</g>
<!-- #31 x&#45;o1 -->
<g id="node7" class="node">
<title>#31 x&#45;o1</title>
<ellipse fill="none" stroke="#006400" cx="119" cy="-961" rx="42.4939" ry="18"/>
<text text-anchor="middle" x="119" y="-957.3" font-family="Times,serif" font-size="14.00" fill="#006400">#31 x&#45;o1</text>
</g>
<!-- #1 Variable (x) &#45; (27)&#45;&gt;#31 x&#45;o1 -->
<g id="edge7" class="edge">
<title>#1 Variable (x) &#45; (27)&#45;&gt;#31 x&#45;o1</title>
<path fill="none" stroke="#006400" d="M272.7462,-1204.4352C257.6822,-1191.2915 237.6295,-1172.3221 223,-1153 182.1429,-1099.0373 147.6885,-1026.9528 130.5797,-988.273"/>
<polygon fill="#006400" stroke="#006400" points="133.6263,-986.5038 126.4165,-978.7406 127.2115,-989.3055 133.6263,-986.5038"/>
<text text-anchor="middle" x="219" y="-1087.8" font-family="Times,serif" font-size="14.00" fill="#006400">CREATE x</text>
</g>
<!-- #3 Variable (v1) &#45; (27)&#45;&gt;#5 WhileStatement (27) -->
<g id="edge9" class="edge">
<title>#3 Variable (v1) &#45; (27)&#45;&gt;#5 WhileStatement (27)</title>
<path fill="none" stroke="#ff0000" d="M438.6053,-1117.6033C417.4177,-1104.1485 387.9043,-1085.4064 364.8402,-1070.7598"/>
<polygon fill="#ff0000" stroke="#ff0000" points="366.6652,-1067.7727 356.3472,-1065.3665 362.9127,-1073.6819 366.6652,-1067.7727"/>
</g>
<!-- #4 Literal (27) -->
<g id="node8" class="node">
<title>#4 Literal (27)</title>
<ellipse fill="none" stroke="#000000" cx="618" cy="-1048" rx="62.2891" ry="18"/>
<text text-anchor="middle" x="618" y="-1044.3" font-family="Times,serif" font-size="14.00" fill="#000000">#4 Literal (27)</text>
</g>
<!-- #3 Variable (v1) &#45; (27)&#45;&gt;#4 Literal (27) -->
<g id="edge8" class="edge">
<title>#3 Variable (v1) &#45; (27)&#45;&gt;#4 Literal (27)</title>
<path fill="none" stroke="#0000ff" d="M510.9335,-1119.1291C524.8039,-1113.5177 539.8745,-1106.6696 553,-1099 566.2542,-1091.2552 579.7867,-1081.0725 591.0482,-1071.8439"/>
<polygon fill="#0000ff" stroke="#0000ff" points="593.3925,-1074.4458 598.8105,-1065.3411 588.8973,-1069.0799 593.3925,-1074.4458"/>
<text text-anchor="middle" x="582.5" y="-1087.8" font-family="Times,serif" font-size="14.00" fill="#0000ff">init</text>
</g>
<!-- #32 v1&#45;o2 -->
<g id="node9" class="node">
<title>#32 v1&#45;o2</title>
<ellipse fill="none" stroke="#006400" cx="491" cy="-1048" rx="46.5926" ry="18"/>
<text text-anchor="middle" x="491" y="-1044.3" font-family="Times,serif" font-size="14.00" fill="#006400">#32 v1&#45;o2</text>
</g>
<!-- #3 Variable (v1) &#45; (27)&#45;&gt;#32 v1&#45;o2 -->
<g id="edge10" class="edge">
<title>#3 Variable (v1) &#45; (27)&#45;&gt;#32 v1&#45;o2</title>
<path fill="none" stroke="#006400" d="M471.18,-1116.9735C474.5991,-1105.0751 479.1463,-1089.2508 483.0228,-1075.7606"/>
<polygon fill="#006400" stroke="#006400" points="486.4286,-1076.5811 485.8266,-1066.0034 479.7009,-1074.6478 486.4286,-1076.5811"/>
<text text-anchor="middle" x="514" y="-1087.8" font-family="Times,serif" font-size="14.00" fill="#006400">CREATE v1</text>
</g>
<!-- #6 Identifier (v1) &#45; (27) -->
<g id="node10" class="node">
<title>#6 Identifier (v1) &#45; (27)</title>
<ellipse fill="none" stroke="#000000" cx="491" cy="-961" rx="94.4839" ry="18"/>
<text text-anchor="middle" x="491" y="-957.3" font-family="Times,serif" font-size="14.00" fill="#000000">#6 Identifier (v1) &#45; (27)</text>
</g>
<!-- #5 WhileStatement (27)&#45;&gt;#6 Identifier (v1) &#45; (27) -->
<g id="edge11" class="edge">
<title>#5 WhileStatement (27)&#45;&gt;#6 Identifier (v1) &#45; (27)</title>
<path fill="none" stroke="#0000ff" d="M361.006,-1030.8116C386.6052,-1017.0639 422.6623,-997.6999 450.31,-982.852"/>
<polygon fill="#0000ff" stroke="#0000ff" points="452.1825,-985.8193 459.3365,-978.0045 448.8706,-979.6523 452.1825,-985.8193"/>
<text text-anchor="middle" x="429.5" y="-1000.8" font-family="Times,serif" font-size="14.00" fill="#0000ff">test</text>
</g>
<!-- #5 WhileStatement (27)&#45;&gt;#6 Identifier (v1) &#45; (27) -->
<g id="edge13" class="edge">
<title>#5 WhileStatement (27)&#45;&gt;#6 Identifier (v1) &#45; (27)</title>
<path fill="none" stroke="#ff0000" d="M342.6678,-1029.7247C351.6437,-1018.8584 364.2413,-1005.5668 378,-997 390.568,-989.1745 404.991,-982.9049 419.2352,-977.9345"/>
<polygon fill="#ff0000" stroke="#ff0000" points="420.6437,-981.1554 429.0431,-974.6979 418.45,-974.508 420.6437,-981.1554"/>
<text text-anchor="middle" x="387.5" y="-1000.8" font-family="Times,serif" font-size="14.00" fill="#ff0000">test</text>
</g>
<!-- #26 BlockStatement (27) -->
<g id="node11" class="node">
<title>#26 BlockStatement (27)</title>
<ellipse fill="none" stroke="#000000" cx="279" cy="-961" rx="100.1823" ry="18"/>
<text text-anchor="middle" x="279" y="-957.3" font-family="Times,serif" font-size="14.00" fill="#000000">#26 BlockStatement (27)</text>
</g>
<!-- #5 WhileStatement (27)&#45;&gt;#26 BlockStatement (27) -->
<g id="edge12" class="edge">
<title>#5 WhileStatement (27)&#45;&gt;#26 BlockStatement (27)</title>
<path fill="none" stroke="#0000ff" d="M312.873,-1030.061C308.3551,-1024.511 303.6787,-1018.2161 300,-1012 295.6796,-1004.6994 291.8344,-996.3439 288.653,-988.5379"/>
<polygon fill="#0000ff" stroke="#0000ff" points="291.8618,-987.1312 284.9925,-979.0651 285.3323,-989.6544 291.8618,-987.1312"/>
<text text-anchor="middle" x="314" y="-1000.8" font-family="Times,serif" font-size="14.00" fill="#0000ff">body</text>
</g>
<!-- #27 CFG_F_START __main__ -->
<g id="node5" class="node">
<title>#27 CFG_F_START __main__</title>
<ellipse fill="none" stroke="#ff0000" cx="463" cy="-1309" rx="122.6784" ry="18"/>
<text text-anchor="middle" x="463" y="-1305.3" font-family="Times,serif" font-size="14.00" fill="#ff0000">#27 CFG_F_START __main__</text>
</g>
<!-- #27 CFG_F_START __main__&#45;&gt;#1 Variable (x) &#45; (27) -->
<g id="edge4" class="edge">
<title>#27 CFG_F_START __main__&#45;&gt;#1 Variable (x) &#45; (27)</title>
<path fill="none" stroke="#ff0000" d="M429.2065,-1291.6033C402.2618,-1277.7324 364.4015,-1258.2422 335.5956,-1243.4131"/>
<polygon fill="#ff0000" stroke="#ff0000" points="337.0795,-1240.2405 326.5865,-1238.7753 333.8755,-1246.4642 337.0795,-1240.2405"/>
</g>
<!-- #7 Variable (v2) &#45; (27) -->
<g id="node12" class="node">
<title>#7 Variable (v2) &#45; (27)</title>
<ellipse fill="none" stroke="#000000" cx="412" cy="-874" rx="91.784" ry="18"/>
<text text-anchor="middle" x="412" y="-870.3" font-family="Times,serif" font-size="14.00" fill="#000000">#7 Variable (v2) &#45; (27)</text>
</g>
<!-- #31 x&#45;o1&#45;&gt;#7 Variable (v2) &#45; (27) -->
<g id="edge14" class="edge">
<title>#31 x&#45;o1&#45;&gt;#7 Variable (v2) &#45; (27)</title>
<path fill="none" stroke="#006400" d="M151.2741,-949.2721C157.4667,-947.1176 163.9166,-944.9388 170,-943 229.7769,-923.9491 298.6409,-904.559 347.5864,-891.2052"/>
<polygon fill="#006400" stroke="#006400" points="348.6787,-894.5354 357.4094,-888.5333 346.8414,-887.7808 348.6787,-894.5354"/>
<text text-anchor="middle" x="296" y="-913.8" font-family="Times,serif" font-size="14.00" fill="#006400">VAR x</text>
</g>
<!-- #20 ExpressionStatement (27) -->
<g id="node13" class="node">
<title>#20 ExpressionStatement (27)</title>
<ellipse fill="none" stroke="#000000" cx="245" cy="-279" rx="118.0794" ry="18"/>
<text text-anchor="middle" x="245" y="-275.3" font-family="Times,serif" font-size="14.00" fill="#000000">#20 ExpressionStatement (27)</text>
</g>
<!-- #31 x&#45;o1&#45;&gt;#20 ExpressionStatement (27) -->
<g id="edge15" class="edge">
<title>#31 x&#45;o1&#45;&gt;#20 ExpressionStatement (27)</title>
<path fill="none" stroke="#006400" d="M82.9731,-951.3038C47.9484,-939.4329 0,-915.5873 0,-874 0,-874 0,-874 0,-352 0,-320.9716 73.0868,-302.0605 139.4232,-291.2865"/>
<polygon fill="#006400" stroke="#006400" points="140.2397,-294.7012 149.5751,-289.691 139.1529,-287.7861 140.2397,-294.7012"/>
<text text-anchor="middle" x="20" y="-609.3" font-family="Times,serif" font-size="14.00" fill="#006400">VAR x</text>
</g>
<!-- #32 v1&#45;o2&#45;&gt;#6 Identifier (v1) &#45; (27) -->
<g id="edge16" class="edge">
<title>#32 v1&#45;o2&#45;&gt;#6 Identifier (v1) &#45; (27)</title>
<path fill="none" stroke="#006400" d="M491,-1029.9735C491,-1018.1918 491,-1002.5607 491,-989.1581"/>
<polygon fill="#006400" stroke="#006400" points="494.5001,-989.0033 491,-979.0034 487.5001,-989.0034 494.5001,-989.0033"/>
<text text-anchor="middle" x="514" y="-1000.8" font-family="Times,serif" font-size="14.00" fill="#006400">VAR v1</text>
</g>
<!-- #6 Identifier (v1) &#45; (27)&#45;&gt;#7 Variable (v2) &#45; (27) -->
<g id="edge17" class="edge">
<title>#6 Identifier (v1) &#45; (27)&#45;&gt;#7 Variable (v2) &#45; (27)</title>
<path fill="none" stroke="#ff0000" d="M474.6311,-942.9735C463.2972,-930.4919 448.0403,-913.6899 435.4225,-899.7944"/>
<polygon fill="#ff0000" stroke="#ff0000" points="437.6615,-897.0538 428.3479,-892.0034 432.4793,-901.7595 437.6615,-897.0538"/>
<text text-anchor="middle" x="475" y="-913.8" font-family="Times,serif" font-size="14.00" fill="#ff0000">TRUE</text>
</g>
<!-- #30 CFG_WHILE_END (27) -->
<g id="node14" class="node">
<title>#30 CFG_WHILE_END (27)</title>
<ellipse fill="none" stroke="#ff0000" cx="245" cy="-192" rx="116.1796" ry="18"/>
<text text-anchor="middle" x="245" y="-188.3" font-family="Times,serif" font-size="14.00" fill="#ff0000">#30 CFG_WHILE_END (27)</text>
</g>
<!-- #6 Identifier (v1) &#45; (27)&#45;&gt;#30 CFG_WHILE_END (27) -->
<g id="edge18" class="edge">
<title>#6 Identifier (v1) &#45; (27)&#45;&gt;#30 CFG_WHILE_END (27)</title>
<path fill="none" stroke="#ff0000" d="M572.1844,-951.7367C690.6655,-937.1002 897,-906.8894 897,-874 897,-874 897,-874 897,-279 897,-219.9447 428.5052,-218.0421 370,-210 360.2256,-208.6564 350.0251,-207.229 339.8503,-205.7887"/>
<polygon fill="#ff0000" stroke="#ff0000" points="340.0938,-202.2883 329.7009,-204.3468 339.1092,-209.2187 340.0938,-202.2883"/>
<text text-anchor="middle" x="918" y="-565.8" font-family="Times,serif" font-size="14.00" fill="#ff0000">FALSE</text>
</g>
<!-- #26 BlockStatement (27)&#45;&gt;#7 Variable (v2) &#45; (27) -->
<g id="edge19" class="edge">
<title>#26 BlockStatement (27)&#45;&gt;#7 Variable (v2) &#45; (27)</title>
<path fill="none" stroke="#0000ff" d="M305.5949,-943.6033C326.0732,-930.2077 354.5632,-911.5714 376.9099,-896.9536"/>
<polygon fill="#0000ff" stroke="#0000ff" points="378.9986,-899.7697 385.4512,-891.3665 375.1666,-893.9117 378.9986,-899.7697"/>
<text text-anchor="middle" x="357.5" y="-913.8" font-family="Times,serif" font-size="14.00" fill="#0000ff">1</text>
</g>
<!-- #26 BlockStatement (27)&#45;&gt;#20 ExpressionStatement (27) -->
<g id="edge21" class="edge">
<title>#26 BlockStatement (27)&#45;&gt;#20 ExpressionStatement (27)</title>
<path fill="none" stroke="#0000ff" d="M216.4369,-946.8444C156.7907,-931.4834 76,-904.9622 76,-874 76,-874 76,-874 76,-352 76,-329.8916 125.3579,-310.3587 170.7252,-297.0746"/>
<polygon fill="#0000ff" stroke="#0000ff" points="171.9685,-300.3597 180.6262,-294.2528 170.0499,-293.6278 171.9685,-300.3597"/>
<text text-anchor="middle" x="79.5" y="-609.3" font-family="Times,serif" font-size="14.00" fill="#0000ff">3</text>
</g>
<!-- #11 IfStatement (27) -->
<g id="node15" class="node">
<title>#11 IfStatement (27)</title>
<ellipse fill="none" stroke="#000000" cx="279" cy="-787" rx="85.2851" ry="18"/>
<text text-anchor="middle" x="279" y="-783.3" font-family="Times,serif" font-size="14.00" fill="#000000">#11 IfStatement (27)</text>
</g>
<!-- #26 BlockStatement (27)&#45;&gt;#11 IfStatement (27) -->
<g id="edge20" class="edge">
<title>#26 BlockStatement (27)&#45;&gt;#11 IfStatement (27)</title>
<path fill="none" stroke="#0000ff" d="M279,-942.7078C279,-912.3436 279,-851.3226 279,-815.3464"/>
<polygon fill="#0000ff" stroke="#0000ff" points="282.5001,-815.0471 279,-805.0471 275.5001,-815.0471 282.5001,-815.0471"/>
<text text-anchor="middle" x="282.5" y="-870.3" font-family="Times,serif" font-size="14.00" fill="#0000ff">2</text>
</g>
<!-- #7 Variable (v2) &#45; (27)&#45;&gt;#11 IfStatement (27) -->
<g id="edge23" class="edge">
<title>#7 Variable (v2) &#45; (27)&#45;&gt;#11 IfStatement (27)</title>
<path fill="none" stroke="#ff0000" d="M385.4051,-856.6033C364.9268,-843.2077 336.4368,-824.5714 314.0901,-809.9536"/>
<polygon fill="#ff0000" stroke="#ff0000" points="315.8334,-806.9117 305.5488,-804.3665 312.0014,-812.7697 315.8334,-806.9117"/>
</g>
<!-- #8 BinaryExpression (==) &#45; (27) -->
<g id="node16" class="node">
<title>#8 BinaryExpression (==) &#45; (27)</title>
<ellipse fill="none" stroke="#000000" cx="627" cy="-787" rx="126.1777" ry="18"/>
<text text-anchor="middle" x="627" y="-783.3" font-family="Times,serif" font-size="14.00" fill="#000000">#8 BinaryExpression (==) &#45; (27)</text>
</g>
<!-- #7 Variable (v2) &#45; (27)&#45;&gt;#8 BinaryExpression (==) &#45; (27) -->
<g id="edge22" class="edge">
<title>#7 Variable (v2) &#45; (27)&#45;&gt;#8 BinaryExpression (==) &#45; (27)</title>
<path fill="none" stroke="#0000ff" d="M452.1876,-857.738C487.0337,-843.6375 537.6692,-823.1478 575.4845,-807.8458"/>
<polygon fill="#0000ff" stroke="#0000ff" points="576.848,-811.0698 584.805,-804.0743 574.2223,-804.5809 576.848,-811.0698"/>
<text text-anchor="middle" x="541.5" y="-826.8" font-family="Times,serif" font-size="14.00" fill="#0000ff">init</text>
</g>
<!-- #33 v2&#45;o3 -->
<g id="node17" class="node">
<title>#33 v2&#45;o3</title>
<ellipse fill="none" stroke="#006400" cx="429" cy="-787" rx="46.5926" ry="18"/>
<text text-anchor="middle" x="429" y="-783.3" font-family="Times,serif" font-size="14.00" fill="#006400">#33 v2&#45;o3</text>
</g>
<!-- #7 Variable (v2) &#45; (27)&#45;&gt;#33 v2&#45;o3 -->
<g id="edge24" class="edge">
<title>#7 Variable (v2) &#45; (27)&#45;&gt;#33 v2&#45;o3</title>
<path fill="none" stroke="#006400" d="M415.5224,-855.9735C417.8246,-844.1918 420.879,-828.5607 423.4978,-815.1581"/>
<polygon fill="#006400" stroke="#006400" points="426.9993,-815.489 425.4821,-805.0034 420.1292,-814.1465 426.9993,-815.489"/>
<text text-anchor="middle" x="457" y="-826.8" font-family="Times,serif" font-size="14.00" fill="#006400">CREATE v2</text>
</g>
<!-- #20 ExpressionStatement (27)&#45;&gt;#30 CFG_WHILE_END (27) -->
<g id="edge26" class="edge">
<title>#20 ExpressionStatement (27)&#45;&gt;#30 CFG_WHILE_END (27)</title>
<path fill="none" stroke="#ff0000" d="M245,-260.9735C245,-249.1918 245,-233.5607 245,-220.1581"/>
<polygon fill="#ff0000" stroke="#ff0000" points="248.5001,-220.0033 245,-210.0034 241.5001,-220.0034 248.5001,-220.0033"/>
</g>
<!-- #21 AssignmentExpression (27) -->
<g id="node18" class="node">
<title>#21 AssignmentExpression (27)</title>
<ellipse fill="none" stroke="#000000" cx="504" cy="-192" rx="124.5782" ry="18"/>
<text text-anchor="middle" x="504" y="-188.3" font-family="Times,serif" font-size="14.00" fill="#000000">#21 AssignmentExpression (27)</text>
</g>
<!-- #20 ExpressionStatement (27)&#45;&gt;#21 AssignmentExpression (27) -->
<g id="edge25" class="edge">
<title>#20 ExpressionStatement (27)&#45;&gt;#21 AssignmentExpression (27)</title>
<path fill="none" stroke="#0000ff" d="M294.0204,-262.5337C336.9218,-248.1228 399.3469,-227.1537 444.9805,-211.8251"/>
<polygon fill="#0000ff" stroke="#0000ff" points="446.3751,-215.0489 454.7401,-208.5468 444.1461,-208.4132 446.3751,-215.0489"/>
<text text-anchor="middle" x="420" y="-231.8" font-family="Times,serif" font-size="14.00" fill="#0000ff">expression</text>
</g>
<!-- #28 CFG_F_END __main__ -->
<g id="node19" class="node">
<title>#28 CFG_F_END __main__</title>
<ellipse fill="none" stroke="#ff0000" cx="245" cy="-105" rx="113.18" ry="18"/>
<text text-anchor="middle" x="245" y="-101.3" font-family="Times,serif" font-size="14.00" fill="#ff0000">#28 CFG_F_END __main__</text>
</g>
<!-- #30 CFG_WHILE_END (27)&#45;&gt;#28 CFG_F_END __main__ -->
<g id="edge27" class="edge">
<title>#30 CFG_WHILE_END (27)&#45;&gt;#28 CFG_F_END __main__</title>
<path fill="none" stroke="#ff0000" d="M245,-173.9735C245,-162.1918 245,-146.5607 245,-133.1581"/>
<polygon fill="#ff0000" stroke="#ff0000" points="248.5001,-133.0033 245,-123.0034 241.5001,-133.0034 248.5001,-133.0033"/>
</g>
<!-- #12 Identifier (v2) &#45; (27) -->
<g id="node20" class="node">
<title>#12 Identifier (v2) &#45; (27)</title>
<ellipse fill="none" stroke="#000000" cx="421" cy="-700" rx="98.5829" ry="18"/>
<text text-anchor="middle" x="421" y="-696.3" font-family="Times,serif" font-size="14.00" fill="#000000">#12 Identifier (v2) &#45; (27)</text>
</g>
<!-- #11 IfStatement (27)&#45;&gt;#12 Identifier (v2) &#45; (27) -->
<g id="edge28" class="edge">
<title>#11 IfStatement (27)&#45;&gt;#12 Identifier (v2) &#45; (27)</title>
<path fill="none" stroke="#0000ff" d="M307.0546,-769.8116C328.9858,-756.3749 359.6735,-737.5733 383.6774,-722.8667"/>
<polygon fill="#0000ff" stroke="#0000ff" points="385.8192,-725.6591 392.5176,-717.4505 382.1622,-719.6903 385.8192,-725.6591"/>
<text text-anchor="middle" x="368.5" y="-739.8" font-family="Times,serif" font-size="14.00" fill="#0000ff">test</text>
</g>
<!-- #11 IfStatement (27)&#45;&gt;#12 Identifier (v2) &#45; (27) -->
<g id="edge30" class="edge">
<title>#11 IfStatement (27)&#45;&gt;#12 Identifier (v2) &#45; (27)</title>
<path fill="none" stroke="#ff0000" d="M289.5691,-768.7907C296.675,-757.9492 306.9326,-744.6605 319,-736 329.1122,-728.7427 340.8256,-722.8301 352.6333,-718.0524"/>
<polygon fill="#ff0000" stroke="#ff0000" points="353.9879,-721.282 362.0942,-714.4601 351.503,-714.7378 353.9879,-721.282"/>
<text text-anchor="middle" x="328.5" y="-739.8" font-family="Times,serif" font-size="14.00" fill="#ff0000">test</text>
</g>
<!-- #19 BlockStatement (27) -->
<g id="node21" class="node">
<title>#19 BlockStatement (27)</title>
<ellipse fill="none" stroke="#000000" cx="204" cy="-700" rx="100.1823" ry="18"/>
<text text-anchor="middle" x="204" y="-696.3" font-family="Times,serif" font-size="14.00" fill="#000000">#19 BlockStatement (27)</text>
</g>
<!-- #11 IfStatement (27)&#45;&gt;#19 BlockStatement (27) -->
<g id="edge29" class="edge">
<title>#11 IfStatement (27)&#45;&gt;#19 BlockStatement (27)</title>
<path fill="none" stroke="#0000ff" d="M263.46,-768.9735C252.6999,-756.4919 238.2154,-739.6899 226.2365,-725.7944"/>
<polygon fill="#0000ff" stroke="#0000ff" points="228.7005,-723.2922 219.5201,-718.0034 223.3986,-727.8628 228.7005,-723.2922"/>
<text text-anchor="middle" x="258" y="-739.8" font-family="Times,serif" font-size="14.00" fill="#0000ff">then</text>
</g>
<!-- #9 Identifier (x) &#45; (27) -->
<g id="node22" class="node">
<title>#9 Identifier (x) &#45; (27)</title>
<ellipse fill="none" stroke="#000000" cx="627" cy="-700" rx="89.8845" ry="18"/>
<text text-anchor="middle" x="627" y="-696.3" font-family="Times,serif" font-size="14.00" fill="#000000">#9 Identifier (x) &#45; (27)</text>
</g>
<!-- #8 BinaryExpression (==) &#45; (27)&#45;&gt;#9 Identifier (x) &#45; (27) -->
<g id="edge31" class="edge">
<title>#8 BinaryExpression (==) &#45; (27)&#45;&gt;#9 Identifier (x) &#45; (27)</title>
<path fill="none" stroke="#0000ff" d="M627,-768.9735C627,-757.1918 627,-741.5607 627,-728.1581"/>
<polygon fill="#0000ff" stroke="#0000ff" points="630.5001,-728.0033 627,-718.0034 623.5001,-728.0034 630.5001,-728.0033"/>
<text text-anchor="middle" x="636.5" y="-739.8" font-family="Times,serif" font-size="14.00" fill="#0000ff">left</text>
</g>
<!-- #10 Literal (27) -->
<g id="node23" class="node">
<title>#10 Literal (27)</title>
<ellipse fill="none" stroke="#000000" cx="802" cy="-700" rx="66.8882" ry="18"/>
<text text-anchor="middle" x="802" y="-696.3" font-family="Times,serif" font-size="14.00" fill="#000000">#10 Literal (27)</text>
</g>
<!-- #8 BinaryExpression (==) &#45; (27)&#45;&gt;#10 Literal (27) -->
<g id="edge32" class="edge">
<title>#8 BinaryExpression (==) &#45; (27)&#45;&gt;#10 Literal (27)</title>
<path fill="none" stroke="#0000ff" d="M661.9933,-769.6033C690.5577,-755.4027 730.969,-735.3125 761.0384,-720.3638"/>
<polygon fill="#0000ff" stroke="#0000ff" points="762.6172,-723.4876 770.0136,-715.9018 759.501,-717.2194 762.6172,-723.4876"/>
<text text-anchor="middle" x="737" y="-739.8" font-family="Times,serif" font-size="14.00" fill="#0000ff">right</text>
</g>
<!-- #33 v2&#45;o3&#45;&gt;#12 Identifier (v2) &#45; (27) -->
<g id="edge33" class="edge">
<title>#33 v2&#45;o3&#45;&gt;#12 Identifier (v2) &#45; (27)</title>
<path fill="none" stroke="#006400" d="M427.3424,-768.9735C426.259,-757.1918 424.8217,-741.5607 423.5892,-728.1581"/>
<polygon fill="#006400" stroke="#006400" points="427.0565,-727.6408 422.6555,-718.0034 420.086,-728.2819 427.0565,-727.6408"/>
<text text-anchor="middle" x="449" y="-739.8" font-family="Times,serif" font-size="14.00" fill="#006400">VAR v2</text>
</g>
<!-- #22 Identifier (v1) &#45; (27) -->
<g id="node24" class="node">
<title>#22 Identifier (v1) &#45; (27)</title>
<ellipse fill="none" stroke="#000000" cx="745" cy="-105" rx="98.5829" ry="18"/>
<text text-anchor="middle" x="745" y="-101.3" font-family="Times,serif" font-size="14.00" fill="#000000">#22 Identifier (v1) &#45; (27)</text>
</g>
<!-- #21 AssignmentExpression (27)&#45;&gt;#22 Identifier (v1) &#45; (27) -->
<g id="edge34" class="edge">
<title>#21 AssignmentExpression (27)&#45;&gt;#22 Identifier (v1) &#45; (27)</title>
<path fill="none" stroke="#0000ff" d="M550.4672,-175.2255C590.5665,-160.7499 648.5237,-139.8276 690.7417,-124.587"/>
<polygon fill="#0000ff" stroke="#0000ff" points="692.0875,-127.8223 700.305,-121.1347 689.7106,-121.2382 692.0875,-127.8223"/>
<text text-anchor="middle" x="647.5" y="-144.8" font-family="Times,serif" font-size="14.00" fill="#0000ff">left</text>
</g>
<!-- #23 BinaryExpression (&lt;) &#45; (27) -->
<g id="node25" class="node">
<title>#23 BinaryExpression (&lt;) &#45; (27)</title>
<ellipse fill="none" stroke="#000000" cx="503" cy="-105" rx="125.3778" ry="18"/>
<text text-anchor="middle" x="503" y="-101.3" font-family="Times,serif" font-size="14.00" fill="#000000">#23 BinaryExpression (&lt;) &#45; (27)</text>
</g>
<!-- #21 AssignmentExpression (27)&#45;&gt;#23 BinaryExpression (&lt;) &#45; (27) -->
<g id="edge35" class="edge">
<title>#21 AssignmentExpression (27)&#45;&gt;#23 BinaryExpression (&lt;) &#45; (27)</title>
<path fill="none" stroke="#0000ff" d="M503.7928,-173.9735C503.6574,-162.1918 503.4777,-146.5607 503.3237,-133.1581"/>
<polygon fill="#0000ff" stroke="#0000ff" points="506.8217,-132.9624 503.2069,-123.0034 499.8222,-133.043 506.8217,-132.9624"/>
<text text-anchor="middle" x="516" y="-144.8" font-family="Times,serif" font-size="14.00" fill="#0000ff">right</text>
</g>
<!-- #13 Variable (v3) &#45; (27) -->
<g id="node26" class="node">
<title>#13 Variable (v3) &#45; (27)</title>
<ellipse fill="none" stroke="#000000" cx="305" cy="-613" rx="96.3833" ry="18"/>
<text text-anchor="middle" x="305" y="-609.3" font-family="Times,serif" font-size="14.00" fill="#000000">#13 Variable (v3) &#45; (27)</text>
</g>
<!-- #12 Identifier (v2) &#45; (27)&#45;&gt;#13 Variable (v3) &#45; (27) -->
<g id="edge36" class="edge">
<title>#12 Identifier (v2) &#45; (27)&#45;&gt;#13 Variable (v3) &#45; (27)</title>
<path fill="none" stroke="#ff0000" d="M397.5257,-682.3943C379.9945,-669.2459 355.8466,-651.135 336.6162,-636.7122"/>
<polygon fill="#ff0000" stroke="#ff0000" points="338.5395,-633.7796 328.4394,-630.5796 334.3394,-639.3796 338.5395,-633.7796"/>
<text text-anchor="middle" x="388" y="-652.8" font-family="Times,serif" font-size="14.00" fill="#ff0000">TRUE</text>
</g>
<!-- #29 CFG_IF_END (27) -->
<g id="node27" class="node">
<title>#29 CFG_IF_END (27)</title>
<ellipse fill="none" stroke="#ff0000" cx="415" cy="-352" rx="94.7833" ry="18"/>
<text text-anchor="middle" x="415" y="-348.3" font-family="Times,serif" font-size="14.00" fill="#ff0000">#29 CFG_IF_END (27)</text>
</g>
<!-- #12 Identifier (v2) &#45; (27)&#45;&gt;#29 CFG_IF_END (27) -->
<g id="edge37" class="edge">
<title>#12 Identifier (v2) &#45; (27)&#45;&gt;#29 CFG_IF_END (27)</title>
<path fill="none" stroke="#ff0000" d="M484.2068,-686.0733C544.7614,-670.8509 627,-644.3977 627,-613 627,-613 627,-613 627,-439 627,-408.3328 550.115,-383.0504 488.9479,-367.789"/>
<polygon fill="#ff0000" stroke="#ff0000" points="489.4393,-364.3062 478.8945,-365.3342 487.7788,-371.1064 489.4393,-364.3062"/>
<text text-anchor="middle" x="648" y="-522.3" font-family="Times,serif" font-size="14.00" fill="#ff0000">FALSE</text>
</g>
<!-- #19 BlockStatement (27)&#45;&gt;#13 Variable (v3) &#45; (27) -->
<g id="edge38" class="edge">
<title>#19 BlockStatement (27)&#45;&gt;#13 Variable (v3) &#45; (27)</title>
<path fill="none" stroke="#0000ff" d="M224.9273,-681.9735C239.9231,-669.0564 260.2905,-651.5122 276.7307,-637.3508"/>
<polygon fill="#0000ff" stroke="#0000ff" points="279.1527,-639.884 284.4451,-630.7057 274.5842,-634.5803 279.1527,-639.884"/>
<text text-anchor="middle" x="264.5" y="-652.8" font-family="Times,serif" font-size="14.00" fill="#0000ff">1</text>
</g>
<!-- #17 Variable (y) &#45; (27) -->
<g id="node28" class="node">
<title>#17 Variable (y) &#45; (27)</title>
<ellipse fill="none" stroke="#000000" cx="203" cy="-439" rx="91.784" ry="18"/>
<text text-anchor="middle" x="203" y="-435.3" font-family="Times,serif" font-size="14.00" fill="#000000">#17 Variable (y) &#45; (27)</text>
</g>
<!-- #19 BlockStatement (27)&#45;&gt;#17 Variable (y) &#45; (27) -->
<g id="edge39" class="edge">
<title>#19 BlockStatement (27)&#45;&gt;#17 Variable (y) &#45; (27)</title>
<path fill="none" stroke="#0000ff" d="M195.7633,-681.8795C181.3063,-647.6788 154.2376,-571.3576 169,-508 172.4291,-493.2827 179.4697,-478.0949 186.259,-465.7279"/>
<polygon fill="#0000ff" stroke="#0000ff" points="189.3975,-467.2908 191.338,-456.8752 183.3257,-463.8074 189.3975,-467.2908"/>
<text text-anchor="middle" x="170.5" y="-565.8" font-family="Times,serif" font-size="14.00" fill="#0000ff">2</text>
</g>
<!-- #24 Identifier (x) &#45; (27) -->
<g id="node29" class="node">
<title>#24 Identifier (x) &#45; (27)</title>
<ellipse fill="none" stroke="#000000" cx="413" cy="-18" rx="94.4839" ry="18"/>
<text text-anchor="middle" x="413" y="-14.3" font-family="Times,serif" font-size="14.00" fill="#000000">#24 Identifier (x) &#45; (27)</text>
</g>
<!-- #23 BinaryExpression (&lt;) &#45; (27)&#45;&gt;#24 Identifier (x) &#45; (27) -->
<g id="edge40" class="edge">
<title>#23 BinaryExpression (&lt;) &#45; (27)&#45;&gt;#24 Identifier (x) &#45; (27)</title>
<path fill="none" stroke="#0000ff" d="M484.3519,-86.9735C471.1108,-74.1738 453.1698,-56.8308 438.5909,-42.7379"/>
<polygon fill="#0000ff" stroke="#0000ff" points="440.9387,-40.1395 431.3162,-35.7057 436.0736,-45.1724 440.9387,-40.1395"/>
<text text-anchor="middle" x="472.5" y="-57.8" font-family="Times,serif" font-size="14.00" fill="#0000ff">left</text>
</g>
<!-- #25 Literal (27) -->
<g id="node30" class="node">
<title>#25 Literal (27)</title>
<ellipse fill="none" stroke="#000000" cx="592" cy="-18" rx="66.8882" ry="18"/>
<text text-anchor="middle" x="592" y="-14.3" font-family="Times,serif" font-size="14.00" fill="#000000">#25 Literal (27)</text>
</g>
<!-- #23 BinaryExpression (&lt;) &#45; (27)&#45;&gt;#25 Literal (27) -->
<g id="edge41" class="edge">
<title>#23 BinaryExpression (&lt;) &#45; (27)&#45;&gt;#25 Literal (27)</title>
<path fill="none" stroke="#0000ff" d="M521.4409,-86.9735C534.6216,-74.089 552.5118,-56.6009 566.9795,-42.4583"/>
<polygon fill="#0000ff" stroke="#0000ff" points="569.4857,-44.9028 574.1901,-35.4097 564.5925,-39.8971 569.4857,-44.9028"/>
<text text-anchor="middle" x="565" y="-57.8" font-family="Times,serif" font-size="14.00" fill="#0000ff">right</text>
</g>
<!-- #13 Variable (v3) &#45; (27)&#45;&gt;#17 Variable (y) &#45; (27) -->
<g id="edge43" class="edge">
<title>#13 Variable (v3) &#45; (27)&#45;&gt;#17 Variable (y) &#45; (27)</title>
<path fill="none" stroke="#ff0000" d="M304.8243,-594.8982C303.5777,-565.9495 297.0277,-509.0398 266,-475 261.2676,-469.8082 255.6075,-465.1701 249.6485,-461.0907"/>
<polygon fill="#ff0000" stroke="#ff0000" points="251.106,-457.8729 240.777,-455.5144 247.3808,-463.7994 251.106,-457.8729"/>
</g>
<!-- #14 BinaryExpression (+) &#45; (27) -->
<g id="node31" class="node">
<title>#14 BinaryExpression (+) &#45; (27)</title>
<ellipse fill="none" stroke="#000000" cx="458" cy="-526" rx="125.3778" ry="18"/>
<text text-anchor="middle" x="458" y="-522.3" font-family="Times,serif" font-size="14.00" fill="#000000">#14 BinaryExpression (+) &#45; (27)</text>
</g>
<!-- #13 Variable (v3) &#45; (27)&#45;&gt;#14 BinaryExpression (+) &#45; (27) -->
<g id="edge42" class="edge">
<title>#13 Variable (v3) &#45; (27)&#45;&gt;#14 BinaryExpression (+) &#45; (27)</title>
<path fill="none" stroke="#0000ff" d="M335.2279,-595.8116C358.9882,-582.3008 392.2878,-563.3658 418.2133,-548.6238"/>
<polygon fill="#0000ff" stroke="#0000ff" points="420.0854,-551.5856 427.0482,-543.6 416.6253,-545.5006 420.0854,-551.5856"/>
<text text-anchor="middle" x="400.5" y="-565.8" font-family="Times,serif" font-size="14.00" fill="#0000ff">init</text>
</g>
<!-- #34 v3&#45;o4 -->
<g id="node32" class="node">
<title>#34 v3&#45;o4</title>
<ellipse fill="none" stroke="#006400" cx="225" cy="-526" rx="46.5926" ry="18"/>
<text text-anchor="middle" x="225" y="-522.3" font-family="Times,serif" font-size="14.00" fill="#006400">#34 v3&#45;o4</text>
</g>
<!-- #13 Variable (v3) &#45; (27)&#45;&gt;#34 v3&#45;o4 -->
<g id="edge44" class="edge">
<title>#13 Variable (v3) &#45; (27)&#45;&gt;#34 v3&#45;o4</title>
<path fill="none" stroke="#006400" d="M246.5153,-598.5053C236.424,-593.3615 227.2013,-586.4045 221,-577 216.5807,-570.298 215.7809,-561.9705 216.5955,-554.001"/>
<polygon fill="#006400" stroke="#006400" points="220.0872,-554.3614 218.4278,-543.8974 213.1995,-553.1123 220.0872,-554.3614"/>
<text text-anchor="middle" x="256" y="-565.8" font-family="Times,serif" font-size="14.00" fill="#006400">CREATE v3</text>
</g>
<!-- #29 CFG_IF_END (27)&#45;&gt;#20 ExpressionStatement (27) -->
<g id="edge45" class="edge">
<title>#29 CFG_IF_END (27)&#45;&gt;#20 ExpressionStatement (27)</title>
<path fill="none" stroke="#ff0000" d="M376.4244,-335.4352C351.9948,-324.9448 320.1851,-311.2854 293.9797,-300.0325"/>
<polygon fill="#ff0000" stroke="#ff0000" points="295.1724,-296.7356 284.6027,-296.0059 292.4103,-303.1677 295.1724,-296.7356"/>
</g>
<!-- #17 Variable (y) &#45; (27)&#45;&gt;#29 CFG_IF_END (27) -->
<g id="edge47" class="edge">
<title>#17 Variable (y) &#45; (27)&#45;&gt;#29 CFG_IF_END (27)</title>
<path fill="none" stroke="#ff0000" d="M242.8756,-422.636C277.5585,-408.4029 327.9669,-387.7164 365.2758,-372.4057"/>
<polygon fill="#ff0000" stroke="#ff0000" points="367.0209,-375.4729 374.9434,-368.4383 364.3633,-368.997 367.0209,-375.4729"/>
</g>
<!-- #18 Identifier (v3) &#45; (27) -->
<g id="node33" class="node">
<title>#18 Identifier (v3) &#45; (27)</title>
<ellipse fill="none" stroke="#000000" cx="203" cy="-352" rx="98.5829" ry="18"/>
<text text-anchor="middle" x="203" y="-348.3" font-family="Times,serif" font-size="14.00" fill="#000000">#18 Identifier (v3) &#45; (27)</text>
</g>
<!-- #17 Variable (y) &#45; (27)&#45;&gt;#18 Identifier (v3) &#45; (27) -->
<g id="edge46" class="edge">
<title>#17 Variable (y) &#45; (27)&#45;&gt;#18 Identifier (v3) &#45; (27)</title>
<path fill="none" stroke="#0000ff" d="M203,-420.9735C203,-409.1918 203,-393.5607 203,-380.1581"/>
<polygon fill="#0000ff" stroke="#0000ff" points="206.5001,-380.0033 203,-370.0034 199.5001,-380.0034 206.5001,-380.0033"/>
<text text-anchor="middle" x="212.5" y="-391.8" font-family="Times,serif" font-size="14.00" fill="#0000ff">init</text>
</g>
<!-- #15 Literal (27) -->
<g id="node34" class="node">
<title>#15 Literal (27)</title>
<ellipse fill="none" stroke="#000000" cx="532" cy="-439" rx="66.8882" ry="18"/>
<text text-anchor="middle" x="532" y="-435.3" font-family="Times,serif" font-size="14.00" fill="#000000">#15 Literal (27)</text>
</g>
<!-- #14 BinaryExpression (+) &#45; (27)&#45;&gt;#15 Literal (27) -->
<g id="edge48" class="edge">
<title>#14 BinaryExpression (+) &#45; (27)&#45;&gt;#15 Literal (27)</title>
<path fill="none" stroke="#0000ff" d="M473.3328,-507.9735C484.0202,-495.4087 498.4315,-478.4657 510.296,-464.5168"/>
<polygon fill="#0000ff" stroke="#0000ff" points="513.127,-466.5906 516.94,-456.7057 507.7949,-462.0553 513.127,-466.5906"/>
<text text-anchor="middle" x="508.5" y="-478.8" font-family="Times,serif" font-size="14.00" fill="#0000ff">left</text>
</g>
<!-- #16 Literal (27) -->
<g id="node35" class="node">
<title>#16 Literal (27)</title>
<ellipse fill="none" stroke="#000000" cx="380" cy="-439" rx="66.8882" ry="18"/>
<text text-anchor="middle" x="380" y="-435.3" font-family="Times,serif" font-size="14.00" fill="#000000">#16 Literal (27)</text>
</g>
<!-- #14 BinaryExpression (+) &#45; (27)&#45;&gt;#16 Literal (27) -->
<g id="edge49" class="edge">
<title>#14 BinaryExpression (+) &#45; (27)&#45;&gt;#16 Literal (27)</title>
<path fill="none" stroke="#0000ff" d="M441.8383,-507.9735C430.5733,-495.4087 415.383,-478.4657 402.8772,-464.5168"/>
<polygon fill="#0000ff" stroke="#0000ff" points="405.1556,-461.815 395.8741,-456.7057 399.9435,-466.4878 405.1556,-461.815"/>
<text text-anchor="middle" x="437" y="-478.8" font-family="Times,serif" font-size="14.00" fill="#0000ff">right</text>
</g>
<!-- #34 v3&#45;o4&#45;&gt;#17 Variable (y) &#45; (27) -->
<g id="edge50" class="edge">
<title>#34 v3&#45;o4&#45;&gt;#17 Variable (y) &#45; (27)</title>
<path fill="none" stroke="#006400" d="M220.4416,-507.9735C217.4328,-496.0751 213.4312,-480.2508 210.0199,-466.7606"/>
<polygon fill="#006400" stroke="#006400" points="213.3974,-465.8401 207.5526,-457.0034 206.611,-467.5563 213.3974,-465.8401"/>
<text text-anchor="middle" x="239" y="-478.8" font-family="Times,serif" font-size="14.00" fill="#006400">VAR v3</text>
</g>
</g>
</svg>
