<?xml version="1.0" encoding="UTF-8" standalone="no"?>
<!DOCTYPE svg PUBLIC "-//W3C//DTD SVG 1.1//EN"
 "http://www.w3.org/Graphics/SVG/1.1/DTD/svg11.dtd">
<!-- Generated by graphviz version 2.40.1 (20161225.0304)
 -->
<!-- Title: G Pages: 1 -->
<svg width="1446pt" height="914pt"
 viewBox="0.00 0.00 1446.04 914.00" xmlns="http://www.w3.org/2000/svg" xmlns:xlink="http://www.w3.org/1999/xlink">
<g id="graph0" class="graph" transform="scale(1 1) rotate(0) translate(4 910)">
<title>G</title>
<polygon fill="#ffffff" stroke="transparent" points="-4,4 -4,-910 1442.0352,-910 1442.0352,4 -4,4"/>
<!-- #0 Program -->
<g id="node1" class="node">
<title>#0 Program</title>
<ellipse fill="none" stroke="#000000" cx="401.9418" cy="-888" rx="52.7911" ry="18"/>
<text text-anchor="middle" x="401.9418" y="-884.3" font-family="Times,serif" font-size="14.00" fill="#000000">#0 Program</text>
</g>
<!-- #1 Variable (f) -->
<g id="node2" class="node">
<title>#1 Variable (f)</title>
<ellipse fill="none" stroke="#000000" cx="549.9418" cy="-801" rx="63.8893" ry="18"/>
<text text-anchor="middle" x="549.9418" y="-797.3" font-family="Times,serif" font-size="14.00" fill="#000000">#1 Variable (f)</text>
</g>
<!-- #0 Program&#45;&gt;#1 Variable (f) -->
<g id="edge1" class="edge">
<title>#0 Program&#45;&gt;#1 Variable (f)</title>
<path fill="none" stroke="#0000ff" d="M428.7434,-872.245C452.439,-858.3158 487.2159,-837.8727 513.4465,-822.4533"/>
<polygon fill="#0000ff" stroke="#0000ff" points="515.4888,-825.3127 522.3359,-817.2277 511.9414,-819.2781 515.4888,-825.3127"/>
<text text-anchor="middle" x="488.4418" y="-840.8" font-family="Times,serif" font-size="14.00" fill="#0000ff">1</text>
</g>
<!-- #25 ExpressionStatement -->
<g id="node3" class="node">
<title>#25 ExpressionStatement</title>
<ellipse fill="none" stroke="#000000" cx="401.9418" cy="-714" rx="100.9827" ry="18"/>
<text text-anchor="middle" x="401.9418" y="-710.3" font-family="Times,serif" font-size="14.00" fill="#000000">#25 ExpressionStatement</text>
</g>
<!-- #0 Program&#45;&gt;#25 ExpressionStatement -->
<g id="edge2" class="edge">
<title>#0 Program&#45;&gt;#25 ExpressionStatement</title>
<path fill="none" stroke="#0000ff" d="M401.9418,-869.7078C401.9418,-839.3436 401.9418,-778.3226 401.9418,-742.3464"/>
<polygon fill="#0000ff" stroke="#0000ff" points="405.4419,-742.0471 401.9418,-732.0471 398.4419,-742.0471 405.4419,-742.0471"/>
<text text-anchor="middle" x="405.4418" y="-797.3" font-family="Times,serif" font-size="14.00" fill="#0000ff">2</text>
</g>
<!-- #1 Variable (f)&#45;&gt;#25 ExpressionStatement -->
<g id="edge6" class="edge">
<title>#1 Variable (f)&#45;&gt;#25 ExpressionStatement</title>
<path fill="none" stroke="#ff0000" d="M522.1041,-784.636C498.9591,-771.0304 465.7827,-751.5281 440.1518,-736.4613"/>
<polygon fill="#ff0000" stroke="#ff0000" points="441.8239,-733.3843 431.4293,-731.3339 438.2765,-739.4189 441.8239,-733.3843"/>
</g>
<!-- #2 Function (anon) -->
<g id="node7" class="node">
<title>#2 Function (anon)</title>
<ellipse fill="none" stroke="#000000" cx="672.9418" cy="-714" rx="78.7863" ry="18"/>
<text text-anchor="middle" x="672.9418" y="-710.3" font-family="Times,serif" font-size="14.00" fill="#000000">#2 Function (anon)</text>
</g>
<!-- #1 Variable (f)&#45;&gt;#2 Function (anon) -->
<g id="edge5" class="edge">
<title>#1 Variable (f)&#45;&gt;#2 Function (anon)</title>
<path fill="none" stroke="#0000ff" d="M573.6574,-784.2255C592.555,-770.8589 619.2237,-751.9957 640.1635,-737.1846"/>
<polygon fill="#0000ff" stroke="#0000ff" points="642.314,-739.9506 648.457,-731.3185 638.2717,-734.2357 642.314,-739.9506"/>
<text text-anchor="middle" x="627.4418" y="-753.8" font-family="Times,serif" font-size="14.00" fill="#0000ff">init</text>
</g>
<!-- #26 AssignmentExpression -->
<g id="node8" class="node">
<title>#26 AssignmentExpression</title>
<ellipse fill="none" stroke="#000000" cx="401.9418" cy="-627" rx="107.781" ry="18"/>
<text text-anchor="middle" x="401.9418" y="-623.3" font-family="Times,serif" font-size="14.00" fill="#000000">#26 AssignmentExpression</text>
</g>
<!-- #25 ExpressionStatement&#45;&gt;#26 AssignmentExpression -->
<g id="edge7" class="edge">
<title>#25 ExpressionStatement&#45;&gt;#26 AssignmentExpression</title>
<path fill="none" stroke="#0000ff" d="M401.9418,-695.9735C401.9418,-684.1918 401.9418,-668.5607 401.9418,-655.1581"/>
<polygon fill="#0000ff" stroke="#0000ff" points="405.4419,-655.0033 401.9418,-645.0034 398.4419,-655.0034 405.4419,-655.0033"/>
<text text-anchor="middle" x="430.9418" y="-666.8" font-family="Times,serif" font-size="14.00" fill="#0000ff">expression</text>
</g>
<!-- #32 CFG_F_END __main__ -->
<g id="node9" class="node">
<title>#32 CFG_F_END __main__</title>
<ellipse fill="none" stroke="#ff0000" cx="162.9418" cy="-627" rx="113.18" ry="18"/>
<text text-anchor="middle" x="162.9418" y="-623.3" font-family="Times,serif" font-size="14.00" fill="#ff0000">#32 CFG_F_END __main__</text>
</g>
<!-- #25 ExpressionStatement&#45;&gt;#32 CFG_F_END __main__ -->
<g id="edge8" class="edge">
<title>#25 ExpressionStatement&#45;&gt;#32 CFG_F_END __main__</title>
<path fill="none" stroke="#ff0000" d="M357.5478,-697.8399C318.0976,-683.4793 260.2824,-662.4336 217.9189,-647.0126"/>
<polygon fill="#ff0000" stroke="#ff0000" points="218.9104,-643.6489 208.3164,-643.5171 216.516,-650.2267 218.9104,-643.6489"/>
</g>
<!-- #31 CFG_F_START __main__ -->
<g id="node4" class="node">
<title>#31 CFG_F_START __main__</title>
<ellipse fill="none" stroke="#ff0000" cx="594.9418" cy="-888" rx="122.6784" ry="18"/>
<text text-anchor="middle" x="594.9418" y="-884.3" font-family="Times,serif" font-size="14.00" fill="#ff0000">#31 CFG_F_START __main__</text>
</g>
<!-- #31 CFG_F_START __main__&#45;&gt;#1 Variable (f) -->
<g id="edge3" class="edge">
<title>#31 CFG_F_START __main__&#45;&gt;#1 Variable (f)</title>
<path fill="none" stroke="#ff0000" d="M585.6177,-869.9735C579.3427,-857.8418 570.9566,-841.6287 563.8917,-827.9698"/>
<polygon fill="#ff0000" stroke="#ff0000" points="566.9569,-826.2776 559.2538,-819.0034 560.7394,-829.4935 566.9569,-826.2776"/>
</g>
<!-- #33 CFG_F_START 2_anon -->
<g id="node5" class="node">
<title>#33 CFG_F_START 2_anon</title>
<ellipse fill="none" stroke="#ff0000" cx="1192.9418" cy="-627" rx="113.18" ry="18"/>
<text text-anchor="middle" x="1192.9418" y="-623.3" font-family="Times,serif" font-size="14.00" fill="#ff0000">#33 CFG_F_START 2_anon</text>
</g>
<!-- #4 Variable (x) -->
<g id="node6" class="node">
<title>#4 Variable (x)</title>
<ellipse fill="none" stroke="#000000" cx="984.9418" cy="-540" rx="64.9885" ry="18"/>
<text text-anchor="middle" x="984.9418" y="-536.3" font-family="Times,serif" font-size="14.00" fill="#000000">#4 Variable (x)</text>
</g>
<!-- #33 CFG_F_START 2_anon&#45;&gt;#4 Variable (x) -->
<g id="edge4" class="edge">
<title>#33 CFG_F_START 2_anon&#45;&gt;#4 Variable (x)</title>
<path fill="none" stroke="#ff0000" d="M1152.3435,-610.019C1117.289,-595.3568 1066.6941,-574.1945 1030.3142,-558.9779"/>
<polygon fill="#ff0000" stroke="#ff0000" points="1031.4992,-555.6798 1020.9231,-555.0499 1028.798,-562.1376 1031.4992,-555.6798"/>
</g>
<!-- #5 MemberExpression -->
<g id="node10" class="node">
<title>#5 MemberExpression</title>
<ellipse fill="none" stroke="#000000" cx="1190.9418" cy="-453" rx="91.784" ry="18"/>
<text text-anchor="middle" x="1190.9418" y="-449.3" font-family="Times,serif" font-size="14.00" fill="#000000">#5 MemberExpression</text>
</g>
<!-- #4 Variable (x)&#45;&gt;#5 MemberExpression -->
<g id="edge9" class="edge">
<title>#4 Variable (x)&#45;&gt;#5 MemberExpression</title>
<path fill="none" stroke="#0000ff" d="M1020.8242,-524.8458C1054.4744,-510.6343 1105.0529,-489.2735 1142.318,-473.5353"/>
<polygon fill="#0000ff" stroke="#0000ff" points="1144.1173,-476.5748 1151.9677,-469.4599 1141.3938,-470.1263 1144.1173,-476.5748"/>
<text text-anchor="middle" x="1109.4418" y="-492.8" font-family="Times,serif" font-size="14.00" fill="#0000ff">init</text>
</g>
<!-- #8 ExpressionStatement -->
<g id="node11" class="node">
<title>#8 ExpressionStatement</title>
<ellipse fill="none" stroke="#000000" cx="730.9418" cy="-453" rx="96.6831" ry="18"/>
<text text-anchor="middle" x="730.9418" y="-449.3" font-family="Times,serif" font-size="14.00" fill="#000000">#8 ExpressionStatement</text>
</g>
<!-- #4 Variable (x)&#45;&gt;#8 ExpressionStatement -->
<g id="edge10" class="edge">
<title>#4 Variable (x)&#45;&gt;#8 ExpressionStatement</title>
<path fill="none" stroke="#ff0000" d="M984.7032,-521.8562C983.5481,-510.7576 980.1437,-497.1671 970.9418,-489 950.8065,-471.1292 890.9656,-462.1294 836.0791,-457.5972"/>
<polygon fill="#ff0000" stroke="#ff0000" points="836.1413,-454.0914 825.899,-456.8018 835.5959,-461.0702 836.1413,-454.0914"/>
</g>
<!-- #3 Identifier (req) -->
<g id="node12" class="node">
<title>#3 Identifier (req)</title>
<ellipse fill="none" stroke="#000000" cx="987.9418" cy="-627" rx="74.187" ry="18"/>
<text text-anchor="middle" x="987.9418" y="-623.3" font-family="Times,serif" font-size="14.00" fill="#000000">#3 Identifier (req)</text>
</g>
<!-- #2 Function (anon)&#45;&gt;#3 Identifier (req) -->
<g id="edge11" class="edge">
<title>#2 Function (anon)&#45;&gt;#3 Identifier (req)</title>
<path fill="none" stroke="#0000ff" d="M729.4617,-701.4773C757.9189,-694.9311 792.8842,-686.5209 823.9418,-678 861.0756,-667.8121 902.4787,-654.9246 934.394,-644.6538"/>
<polygon fill="#0000ff" stroke="#0000ff" points="935.5399,-647.9618 943.979,-641.5562 933.3872,-641.301 935.5399,-647.9618"/>
<text text-anchor="middle" x="895.9418" y="-666.8" font-family="Times,serif" font-size="14.00" fill="#0000ff">param 1</text>
</g>
<!-- #24 BlockStatement -->
<g id="node13" class="node">
<title>#24 BlockStatement</title>
<ellipse fill="none" stroke="#000000" cx="610.9418" cy="-627" rx="83.3857" ry="18"/>
<text text-anchor="middle" x="610.9418" y="-623.3" font-family="Times,serif" font-size="14.00" fill="#000000">#24 BlockStatement</text>
</g>
<!-- #2 Function (anon)&#45;&gt;#24 BlockStatement -->
<g id="edge12" class="edge">
<title>#2 Function (anon)&#45;&gt;#24 BlockStatement</title>
<path fill="none" stroke="#0000ff" d="M660.0953,-695.9735C651.2835,-683.6085 639.4501,-667.0036 629.6021,-653.1847"/>
<polygon fill="#0000ff" stroke="#0000ff" points="632.4256,-651.1158 623.7717,-645.0034 626.725,-655.1783 632.4256,-651.1158"/>
<text text-anchor="middle" x="660.4418" y="-666.8" font-family="Times,serif" font-size="14.00" fill="#0000ff">block</text>
</g>
<!-- #35 PDG_OBJECT o1 -->
<g id="node14" class="node">
<title>#35 PDG_OBJECT o1</title>
<ellipse fill="none" stroke="#006400" cx="803.9418" cy="-627" rx="91.784" ry="18"/>
<text text-anchor="middle" x="803.9418" y="-623.3" font-family="Times,serif" font-size="14.00" fill="#006400">#35 PDG_OBJECT o1</text>
</g>
<!-- #2 Function (anon)&#45;&gt;#35 PDG_OBJECT o1 -->
<g id="edge13" class="edge">
<title>#2 Function (anon)&#45;&gt;#35 PDG_OBJECT o1</title>
<path fill="none" stroke="#006400" d="M698.8231,-696.8116C718.9662,-683.4341 747.1166,-664.7388 769.2173,-650.0613"/>
<polygon fill="#006400" stroke="#006400" points="771.2718,-652.8984 777.6657,-644.4505 767.3991,-647.0672 771.2718,-652.8984"/>
<text text-anchor="middle" x="782.9418" y="-666.8" font-family="Times,serif" font-size="14.00" fill="#006400">CREATE req</text>
</g>
<!-- #27 MemberExpression -->
<g id="node15" class="node">
<title>#27 MemberExpression</title>
<ellipse fill="none" stroke="#000000" cx="217.9418" cy="-540" rx="96.3833" ry="18"/>
<text text-anchor="middle" x="217.9418" y="-536.3" font-family="Times,serif" font-size="14.00" fill="#000000">#27 MemberExpression</text>
</g>
<!-- #26 AssignmentExpression&#45;&gt;#27 MemberExpression -->
<g id="edge14" class="edge">
<title>#26 AssignmentExpression&#45;&gt;#27 MemberExpression</title>
<path fill="none" stroke="#0000ff" d="M366.0279,-610.019C336.4243,-596.0216 294.292,-576.1004 262.5321,-561.0835"/>
<polygon fill="#0000ff" stroke="#0000ff" points="263.9885,-557.9006 253.452,-556.7902 260.9963,-564.2289 263.9885,-557.9006"/>
<text text-anchor="middle" x="331.4418" y="-579.8" font-family="Times,serif" font-size="14.00" fill="#0000ff">left</text>
</g>
<!-- #30 Identifier (f) -->
<g id="node16" class="node">
<title>#30 Identifier (f)</title>
<ellipse fill="none" stroke="#000000" cx="401.9418" cy="-540" rx="70.3881" ry="18"/>
<text text-anchor="middle" x="401.9418" y="-536.3" font-family="Times,serif" font-size="14.00" fill="#000000">#30 Identifier (f)</text>
</g>
<!-- #26 AssignmentExpression&#45;&gt;#30 Identifier (f) -->
<g id="edge15" class="edge">
<title>#26 AssignmentExpression&#45;&gt;#30 Identifier (f)</title>
<path fill="none" stroke="#0000ff" d="M401.9418,-608.9735C401.9418,-597.1918 401.9418,-581.5607 401.9418,-568.1581"/>
<polygon fill="#0000ff" stroke="#0000ff" points="405.4419,-568.0033 401.9418,-558.0034 398.4419,-568.0034 405.4419,-568.0033"/>
<text text-anchor="middle" x="414.9418" y="-579.8" font-family="Times,serif" font-size="14.00" fill="#0000ff">right</text>
</g>
<!-- #6 Identifier (req) -->
<g id="node17" class="node">
<title>#6 Identifier (req)</title>
<ellipse fill="none" stroke="#000000" cx="1363.9418" cy="-366" rx="74.187" ry="18"/>
<text text-anchor="middle" x="1363.9418" y="-362.3" font-family="Times,serif" font-size="14.00" fill="#000000">#6 Identifier (req)</text>
</g>
<!-- #5 MemberExpression&#45;&gt;#6 Identifier (req) -->
<g id="edge16" class="edge">
<title>#5 MemberExpression&#45;&gt;#6 Identifier (req)</title>
<path fill="none" stroke="#0000ff" d="M1224.2979,-436.2255C1252.3272,-422.1298 1292.5116,-401.9215 1322.5834,-386.7987"/>
<polygon fill="#0000ff" stroke="#0000ff" points="1324.2053,-389.9008 1331.5667,-382.2811 1321.0603,-383.6471 1324.2053,-389.9008"/>
<text text-anchor="middle" x="1303.9418" y="-405.8" font-family="Times,serif" font-size="14.00" fill="#0000ff">object</text>
</g>
<!-- #7 Identifier (body) -->
<g id="node18" class="node">
<title>#7 Identifier (body)</title>
<ellipse fill="none" stroke="#000000" cx="1190.9418" cy="-366" rx="80.6858" ry="18"/>
<text text-anchor="middle" x="1190.9418" y="-362.3" font-family="Times,serif" font-size="14.00" fill="#000000">#7 Identifier (body)</text>
</g>
<!-- #5 MemberExpression&#45;&gt;#7 Identifier (body) -->
<g id="edge17" class="edge">
<title>#5 MemberExpression&#45;&gt;#7 Identifier (body)</title>
<path fill="none" stroke="#0000ff" d="M1190.9418,-434.9735C1190.9418,-423.1918 1190.9418,-407.5607 1190.9418,-394.1581"/>
<polygon fill="#0000ff" stroke="#0000ff" points="1194.4419,-394.0033 1190.9418,-384.0034 1187.4419,-394.0034 1194.4419,-394.0033"/>
<text text-anchor="middle" x="1213.9418" y="-405.8" font-family="Times,serif" font-size="14.00" fill="#0000ff">property</text>
</g>
<!-- #9 AssignmentExpression -->
<g id="node19" class="node">
<title>#9 AssignmentExpression</title>
<ellipse fill="none" stroke="#000000" cx="988.9418" cy="-366" rx="103.1819" ry="18"/>
<text text-anchor="middle" x="988.9418" y="-362.3" font-family="Times,serif" font-size="14.00" fill="#000000">#9 AssignmentExpression</text>
</g>
<!-- #8 ExpressionStatement&#45;&gt;#9 AssignmentExpression -->
<g id="edge18" class="edge">
<title>#8 ExpressionStatement&#45;&gt;#9 AssignmentExpression</title>
<path fill="none" stroke="#0000ff" d="M777.9629,-437.144C821.2487,-422.5477 885.5614,-400.8608 931.794,-385.2708"/>
<polygon fill="#0000ff" stroke="#0000ff" points="933.0137,-388.5532 941.371,-382.0413 930.7769,-381.9201 933.0137,-388.5532"/>
<text text-anchor="middle" x="903.9418" y="-405.8" font-family="Times,serif" font-size="14.00" fill="#0000ff">expression</text>
</g>
<!-- #14 Variable (v1) -->
<g id="node20" class="node">
<title>#14 Variable (v1)</title>
<ellipse fill="none" stroke="#000000" cx="663.9418" cy="-279" rx="73.387" ry="18"/>
<text text-anchor="middle" x="663.9418" y="-275.3" font-family="Times,serif" font-size="14.00" fill="#000000">#14 Variable (v1)</text>
</g>
<!-- #8 ExpressionStatement&#45;&gt;#14 Variable (v1) -->
<g id="edge19" class="edge">
<title>#8 ExpressionStatement&#45;&gt;#14 Variable (v1)</title>
<path fill="none" stroke="#ff0000" d="M711.2039,-435.1554C698.4284,-422.3041 682.7668,-403.8005 674.9418,-384 665.2025,-359.3558 662.9553,-329.0587 662.8442,-307.3535"/>
<polygon fill="#ff0000" stroke="#ff0000" points="666.3459,-307.1908 662.945,-297.1567 659.3462,-307.1216 666.3459,-307.1908"/>
</g>
<!-- #36 PDG_OBJECT o2 -->
<g id="node21" class="node">
<title>#36 PDG_OBJECT o2</title>
<ellipse fill="none" stroke="#006400" cx="775.9418" cy="-366" rx="91.784" ry="18"/>
<text text-anchor="middle" x="775.9418" y="-362.3" font-family="Times,serif" font-size="14.00" fill="#006400">#36 PDG_OBJECT o2</text>
</g>
<!-- #8 ExpressionStatement&#45;&gt;#36 PDG_OBJECT o2 -->
<g id="edge20" class="edge">
<title>#8 ExpressionStatement&#45;&gt;#36 PDG_OBJECT o2</title>
<path fill="none" stroke="#006400" d="M713.7159,-435.0593C706.2643,-425.0633 700.5502,-412.5439 706.9418,-402 710.4712,-396.1776 715.2846,-391.2526 720.7397,-387.0972"/>
<polygon fill="#006400" stroke="#006400" points="722.715,-389.987 729.1166,-381.5448 718.8476,-384.1523 722.715,-389.987"/>
<text text-anchor="middle" x="733.9418" y="-405.8" font-family="Times,serif" font-size="14.00" fill="#006400">WRITE a</text>
</g>
<!-- #24 BlockStatement&#45;&gt;#4 Variable (x) -->
<g id="edge21" class="edge">
<title>#24 BlockStatement&#45;&gt;#4 Variable (x)</title>
<path fill="none" stroke="#0000ff" d="M667.7443,-613.7866C737.179,-597.6347 854.1568,-570.4232 924.9925,-553.9454"/>
<polygon fill="#0000ff" stroke="#0000ff" points="926.1508,-557.2695 935.0977,-551.5947 924.5648,-550.4515 926.1508,-557.2695"/>
<text text-anchor="middle" x="823.4418" y="-579.8" font-family="Times,serif" font-size="14.00" fill="#0000ff">1</text>
</g>
<!-- #24 BlockStatement&#45;&gt;#8 ExpressionStatement -->
<g id="edge22" class="edge">
<title>#24 BlockStatement&#45;&gt;#8 ExpressionStatement</title>
<path fill="none" stroke="#0000ff" d="M623.3319,-609.0343C644.5855,-578.2166 688.0832,-515.1449 712.7723,-479.3456"/>
<polygon fill="#0000ff" stroke="#0000ff" points="715.8229,-481.0872 718.619,-470.868 710.0604,-477.113 715.8229,-481.0872"/>
<text text-anchor="middle" x="685.4418" y="-536.3" font-family="Times,serif" font-size="14.00" fill="#0000ff">2</text>
</g>
<!-- #24 BlockStatement&#45;&gt;#14 Variable (v1) -->
<g id="edge23" class="edge">
<title>#24 BlockStatement&#45;&gt;#14 Variable (v1)</title>
<path fill="none" stroke="#0000ff" d="M610.2758,-608.6723C609.694,-591.0677 608.9418,-563.7198 608.9418,-540 608.9418,-540 608.9418,-540 608.9418,-366 608.9418,-342.5047 623.4505,-320.194 637.5644,-304.049"/>
<polygon fill="#0000ff" stroke="#0000ff" points="640.19,-306.3647 644.3959,-296.6405 635.0439,-301.6194 640.19,-306.3647"/>
<text text-anchor="middle" x="612.4418" y="-449.3" font-family="Times,serif" font-size="14.00" fill="#0000ff">3</text>
</g>
<!-- #18 Variable (v2) -->
<g id="node22" class="node">
<title>#18 Variable (v2)</title>
<ellipse fill="none" stroke="#000000" cx="600.9418" cy="-192" rx="73.387" ry="18"/>
<text text-anchor="middle" x="600.9418" y="-188.3" font-family="Times,serif" font-size="14.00" fill="#000000">#18 Variable (v2)</text>
</g>
<!-- #24 BlockStatement&#45;&gt;#18 Variable (v2) -->
<g id="edge24" class="edge">
<title>#24 BlockStatement&#45;&gt;#18 Variable (v2)</title>
<path fill="none" stroke="#0000ff" d="M594.1537,-609.2238C580.3119,-592.653 562.9418,-566.5658 562.9418,-540 562.9418,-540 562.9418,-540 562.9418,-279 562.9418,-257.4445 572.8591,-235.2074 582.5609,-218.6107"/>
<polygon fill="#0000ff" stroke="#0000ff" points="585.5944,-220.3596 587.8643,-210.0108 579.6362,-216.6853 585.5944,-220.3596"/>
<text text-anchor="middle" x="566.4418" y="-405.8" font-family="Times,serif" font-size="14.00" fill="#0000ff">4</text>
</g>
<!-- #22 ReturnStatement -->
<g id="node23" class="node">
<title>#22 ReturnStatement</title>
<ellipse fill="none" stroke="#000000" cx="495.9418" cy="-105" rx="85.5853" ry="18"/>
<text text-anchor="middle" x="495.9418" y="-101.3" font-family="Times,serif" font-size="14.00" fill="#000000">#22 ReturnStatement</text>
</g>
<!-- #24 BlockStatement&#45;&gt;#22 ReturnStatement -->
<g id="edge25" class="edge">
<title>#24 BlockStatement&#45;&gt;#22 ReturnStatement</title>
<path fill="none" stroke="#0000ff" d="M565.7938,-611.8596C535.0628,-598.3781 499.9418,-575.258 499.9418,-540 499.9418,-540 499.9418,-540 499.9418,-192 499.9418,-172.5269 498.9294,-150.628 497.9233,-133.6725"/>
<polygon fill="#0000ff" stroke="#0000ff" points="501.3931,-133.0805 497.2737,-123.3193 494.4068,-133.5189 501.3931,-133.0805"/>
<text text-anchor="middle" x="503.4418" y="-362.3" font-family="Times,serif" font-size="14.00" fill="#0000ff">5</text>
</g>
<!-- #35 PDG_OBJECT o1&#45;&gt;#4 Variable (x) -->
<g id="edge26" class="edge">
<title>#35 PDG_OBJECT o1&#45;&gt;#4 Variable (x)</title>
<path fill="none" stroke="#006400" d="M838.8404,-610.2255C868.5383,-595.9508 911.2783,-575.4073 942.8643,-560.2251"/>
<polygon fill="#006400" stroke="#006400" points="944.7853,-563.1851 952.2819,-555.6984 941.7527,-556.8761 944.7853,-563.1851"/>
<text text-anchor="middle" x="947.9418" y="-579.8" font-family="Times,serif" font-size="14.00" fill="#006400">LOOKUP body</text>
</g>
<!-- #35 PDG_OBJECT o1&#45;&gt;#36 PDG_OBJECT o2 -->
<g id="edge27" class="edge">
<title>#35 PDG_OBJECT o1&#45;&gt;#36 PDG_OBJECT o2</title>
<path fill="none" stroke="#006400" d="M820.4904,-609.1709C824.6291,-603.72 828.5629,-597.4503 830.9418,-591 860.056,-512.0553 884.8933,-474.3537 841.9418,-402 838.6625,-396.476 834.2046,-391.7453 829.1424,-387.7072"/>
<polygon fill="#006400" stroke="#006400" points="830.9878,-384.728 820.7727,-381.9171 827.0053,-390.4848 830.9878,-384.728"/>
<text text-anchor="middle" x="920.9418" y="-492.8" font-family="Times,serif" font-size="14.00" fill="#006400">SUB_OBJECT body</text>
</g>
<!-- #28 Identifier (module) -->
<g id="node24" class="node">
<title>#28 Identifier (module)</title>
<ellipse fill="none" stroke="#000000" cx="297.9418" cy="-453" rx="94.4839" ry="18"/>
<text text-anchor="middle" x="297.9418" y="-449.3" font-family="Times,serif" font-size="14.00" fill="#000000">#28 Identifier (module)</text>
</g>
<!-- #27 MemberExpression&#45;&gt;#28 Identifier (module) -->
<g id="edge28" class="edge">
<title>#27 MemberExpression&#45;&gt;#28 Identifier (module)</title>
<path fill="none" stroke="#0000ff" d="M234.5178,-521.9735C246.1025,-509.3752 261.7344,-492.3755 274.5803,-478.4055"/>
<polygon fill="#0000ff" stroke="#0000ff" points="277.1945,-480.7335 281.3869,-471.0034 272.0418,-475.9953 277.1945,-480.7335"/>
<text text-anchor="middle" x="279.9418" y="-492.8" font-family="Times,serif" font-size="14.00" fill="#0000ff">object</text>
</g>
<!-- #29 Identifier (exports) -->
<g id="node25" class="node">
<title>#29 Identifier (exports)</title>
<ellipse fill="none" stroke="#000000" cx="92.9418" cy="-453" rx="92.8835" ry="18"/>
<text text-anchor="middle" x="92.9418" y="-449.3" font-family="Times,serif" font-size="14.00" fill="#000000">#29 Identifier (exports)</text>
</g>
<!-- #27 MemberExpression&#45;&gt;#29 Identifier (exports) -->
<g id="edge29" class="edge">
<title>#27 MemberExpression&#45;&gt;#29 Identifier (exports)</title>
<path fill="none" stroke="#0000ff" d="M192.9466,-522.6033C173.7852,-509.267 147.1605,-490.7362 126.2003,-476.1479"/>
<polygon fill="#0000ff" stroke="#0000ff" points="128.1008,-473.2064 117.8936,-470.3665 124.1019,-478.9518 128.1008,-473.2064"/>
<text text-anchor="middle" x="185.9418" y="-492.8" font-family="Times,serif" font-size="14.00" fill="#0000ff">property</text>
</g>
<!-- #10 MemberExpression -->
<g id="node26" class="node">
<title>#10 MemberExpression</title>
<ellipse fill="none" stroke="#000000" cx="988.9418" cy="-279" rx="96.3833" ry="18"/>
<text text-anchor="middle" x="988.9418" y="-275.3" font-family="Times,serif" font-size="14.00" fill="#000000">#10 MemberExpression</text>
</g>
<!-- #9 AssignmentExpression&#45;&gt;#10 MemberExpression -->
<g id="edge30" class="edge">
<title>#9 AssignmentExpression&#45;&gt;#10 MemberExpression</title>
<path fill="none" stroke="#0000ff" d="M988.9418,-347.9735C988.9418,-336.1918 988.9418,-320.5607 988.9418,-307.1581"/>
<polygon fill="#0000ff" stroke="#0000ff" points="992.4419,-307.0033 988.9418,-297.0034 985.4419,-307.0034 992.4419,-307.0033"/>
<text text-anchor="middle" x="998.4418" y="-318.8" font-family="Times,serif" font-size="14.00" fill="#0000ff">left</text>
</g>
<!-- #13 Literal -->
<g id="node27" class="node">
<title>#13 Literal</title>
<ellipse fill="none" stroke="#000000" cx="1152.9418" cy="-279" rx="50.0912" ry="18"/>
<text text-anchor="middle" x="1152.9418" y="-275.3" font-family="Times,serif" font-size="14.00" fill="#000000">#13 Literal</text>
</g>
<!-- #9 AssignmentExpression&#45;&gt;#13 Literal -->
<g id="edge31" class="edge">
<title>#9 AssignmentExpression&#45;&gt;#13 Literal</title>
<path fill="none" stroke="#0000ff" d="M1021.3429,-348.8116C1048.5501,-334.3785 1087.4261,-313.7553 1115.8695,-298.6664"/>
<polygon fill="#0000ff" stroke="#0000ff" points="1117.5161,-301.755 1124.7098,-293.9767 1114.2356,-295.5712 1117.5161,-301.755"/>
<text text-anchor="middle" x="1092.9418" y="-318.8" font-family="Times,serif" font-size="14.00" fill="#0000ff">right</text>
</g>
<!-- #14 Variable (v1)&#45;&gt;#18 Variable (v2) -->
<g id="edge33" class="edge">
<title>#14 Variable (v1)&#45;&gt;#18 Variable (v2)</title>
<path fill="none" stroke="#ff0000" d="M661.4932,-260.7789C659.427,-250.4553 655.677,-237.7053 648.9418,-228 645.7496,-223.4002 641.7819,-219.1449 637.505,-215.2923"/>
<polygon fill="#ff0000" stroke="#ff0000" points="639.53,-212.4269 629.5734,-208.805 635.0981,-217.8454 639.53,-212.4269"/>
</g>
<!-- #14 Variable (v1)&#45;&gt;#18 Variable (v2) -->
<g id="edge34" class="edge">
<title>#14 Variable (v1)&#45;&gt;#18 Variable (v2)</title>
<path fill="none" stroke="#006400" d="M621.7827,-264.1516C612.7018,-258.9117 604.2466,-252.0022 598.9418,-243 594.938,-236.2057 593.9598,-227.9714 594.3874,-220.1196"/>
<polygon fill="#006400" stroke="#006400" points="597.8637,-220.5265 595.6231,-210.1713 590.9171,-219.6636 597.8637,-220.5265"/>
<text text-anchor="middle" x="621.9418" y="-231.8" font-family="Times,serif" font-size="14.00" fill="#006400">VAR v1</text>
</g>
<!-- #15 MemberExpression -->
<g id="node28" class="node">
<title>#15 MemberExpression</title>
<ellipse fill="none" stroke="#000000" cx="802.9418" cy="-192" rx="96.3833" ry="18"/>
<text text-anchor="middle" x="802.9418" y="-188.3" font-family="Times,serif" font-size="14.00" fill="#000000">#15 MemberExpression</text>
</g>
<!-- #14 Variable (v1)&#45;&gt;#15 MemberExpression -->
<g id="edge32" class="edge">
<title>#14 Variable (v1)&#45;&gt;#15 MemberExpression</title>
<path fill="none" stroke="#0000ff" d="M690.7424,-262.2255C712.288,-248.7401 742.7725,-229.6599 766.5291,-214.7906"/>
<polygon fill="#0000ff" stroke="#0000ff" points="768.6524,-217.5908 775.272,-209.3185 764.9385,-211.6572 768.6524,-217.5908"/>
<text text-anchor="middle" x="750.4418" y="-231.8" font-family="Times,serif" font-size="14.00" fill="#0000ff">init</text>
</g>
<!-- #36 PDG_OBJECT o2&#45;&gt;#14 Variable (v1) -->
<g id="edge35" class="edge">
<title>#36 PDG_OBJECT o2&#45;&gt;#14 Variable (v1)</title>
<path fill="none" stroke="#006400" d="M753.2769,-348.3943C736.2389,-335.1594 712.728,-316.8964 694.1019,-302.428"/>
<polygon fill="#006400" stroke="#006400" points="696.2351,-299.6532 686.1907,-296.2827 691.9409,-305.1813 696.2351,-299.6532"/>
<text text-anchor="middle" x="772.9418" y="-318.8" font-family="Times,serif" font-size="14.00" fill="#006400">LOOKUP param</text>
</g>
<!-- #18 Variable (v2)&#45;&gt;#22 ReturnStatement -->
<g id="edge37" class="edge">
<title>#18 Variable (v2)&#45;&gt;#22 ReturnStatement</title>
<path fill="none" stroke="#ff0000" d="M579.4199,-174.4674C572.256,-168.6111 564.2431,-162.0389 556.9418,-156 546.3661,-147.253 534.8044,-137.6079 524.6176,-129.0815"/>
<polygon fill="#ff0000" stroke="#ff0000" points="526.701,-126.2609 516.7879,-122.5218 522.2056,-131.6267 526.701,-126.2609"/>
</g>
<!-- #18 Variable (v2)&#45;&gt;#22 ReturnStatement -->
<g id="edge38" class="edge">
<title>#18 Variable (v2)&#45;&gt;#22 ReturnStatement</title>
<path fill="none" stroke="#006400" d="M587.9354,-174.1816C579.7717,-163.7468 568.6076,-150.7475 556.9418,-141 550.9039,-135.955 544.0736,-131.183 537.2241,-126.8626"/>
<polygon fill="#006400" stroke="#006400" points="538.9644,-123.8248 528.5961,-121.6452 535.3422,-129.8148 538.9644,-123.8248"/>
<text text-anchor="middle" x="594.9418" y="-144.8" font-family="Times,serif" font-size="14.00" fill="#006400">VAR v2</text>
</g>
<!-- #19 CallExpression -->
<g id="node29" class="node">
<title>#19 CallExpression</title>
<ellipse fill="none" stroke="#000000" cx="679.9418" cy="-105" rx="79.8859" ry="18"/>
<text text-anchor="middle" x="679.9418" y="-101.3" font-family="Times,serif" font-size="14.00" fill="#000000">#19 CallExpression</text>
</g>
<!-- #18 Variable (v2)&#45;&gt;#19 CallExpression -->
<g id="edge36" class="edge">
<title>#18 Variable (v2)&#45;&gt;#19 CallExpression</title>
<path fill="none" stroke="#0000ff" d="M616.9286,-174.3943C628.4171,-161.7424 644.0778,-144.4957 656.9124,-130.3614"/>
<polygon fill="#0000ff" stroke="#0000ff" points="659.5762,-132.6343 663.7076,-122.8782 654.3939,-127.9286 659.5762,-132.6343"/>
<text text-anchor="middle" x="654.4418" y="-144.8" font-family="Times,serif" font-size="14.00" fill="#0000ff">init</text>
</g>
<!-- #23 Identifier (v2) -->
<g id="node30" class="node">
<title>#23 Identifier (v2)</title>
<ellipse fill="none" stroke="#000000" cx="289.9418" cy="-18" rx="76.0865" ry="18"/>
<text text-anchor="middle" x="289.9418" y="-14.3" font-family="Times,serif" font-size="14.00" fill="#000000">#23 Identifier (v2)</text>
</g>
<!-- #22 ReturnStatement&#45;&gt;#23 Identifier (v2) -->
<g id="edge39" class="edge">
<title>#22 ReturnStatement&#45;&gt;#23 Identifier (v2)</title>
<path fill="none" stroke="#0000ff" d="M457.6775,-88.8399C423.4983,-74.4049 373.3254,-53.2154 336.7616,-37.7734"/>
<polygon fill="#0000ff" stroke="#0000ff" points="337.8804,-34.4466 327.3065,-33.7803 335.1569,-40.8951 337.8804,-34.4466"/>
<text text-anchor="middle" x="431.9418" y="-57.8" font-family="Times,serif" font-size="14.00" fill="#0000ff">argument</text>
</g>
<!-- #34 CFG_F_END 2_anon -->
<g id="node31" class="node">
<title>#34 CFG_F_END 2_anon</title>
<ellipse fill="none" stroke="#ff0000" cx="486.9418" cy="-18" rx="103.1819" ry="18"/>
<text text-anchor="middle" x="486.9418" y="-14.3" font-family="Times,serif" font-size="14.00" fill="#ff0000">#34 CFG_F_END 2_anon</text>
</g>
<!-- #22 ReturnStatement&#45;&gt;#34 CFG_F_END 2_anon -->
<g id="edge40" class="edge">
<title>#22 ReturnStatement&#45;&gt;#34 CFG_F_END 2_anon</title>
<path fill="none" stroke="#ff0000" d="M494.0769,-86.9735C492.8581,-75.1918 491.2411,-59.5607 489.8547,-46.1581"/>
<polygon fill="#ff0000" stroke="#ff0000" points="493.3147,-45.5901 488.8042,-36.0034 486.3518,-46.3105 493.3147,-45.5901"/>
</g>
<!-- #11 Identifier (x) -->
<g id="node32" class="node">
<title>#11 Identifier (x)</title>
<ellipse fill="none" stroke="#000000" cx="1149.9418" cy="-192" rx="71.4873" ry="18"/>
<text text-anchor="middle" x="1149.9418" y="-188.3" font-family="Times,serif" font-size="14.00" fill="#000000">#11 Identifier (x)</text>
</g>
<!-- #10 MemberExpression&#45;&gt;#11 Identifier (x) -->
<g id="edge41" class="edge">
<title>#10 MemberExpression&#45;&gt;#11 Identifier (x)</title>
<path fill="none" stroke="#0000ff" d="M1020.7502,-261.8116C1046.5207,-247.8859 1082.9553,-228.1976 1110.5657,-213.2777"/>
<polygon fill="#0000ff" stroke="#0000ff" points="1112.4291,-216.2492 1119.5628,-208.4159 1109.1012,-210.0908 1112.4291,-216.2492"/>
<text text-anchor="middle" x="1095.9418" y="-231.8" font-family="Times,serif" font-size="14.00" fill="#0000ff">object</text>
</g>
<!-- #12 Identifier (a) -->
<g id="node33" class="node">
<title>#12 Identifier (a)</title>
<ellipse fill="none" stroke="#000000" cx="988.9418" cy="-192" rx="71.4873" ry="18"/>
<text text-anchor="middle" x="988.9418" y="-188.3" font-family="Times,serif" font-size="14.00" fill="#000000">#12 Identifier (a)</text>
</g>
<!-- #10 MemberExpression&#45;&gt;#12 Identifier (a) -->
<g id="edge42" class="edge">
<title>#10 MemberExpression&#45;&gt;#12 Identifier (a)</title>
<path fill="none" stroke="#0000ff" d="M988.9418,-260.9735C988.9418,-249.1918 988.9418,-233.5607 988.9418,-220.1581"/>
<polygon fill="#0000ff" stroke="#0000ff" points="992.4419,-220.0033 988.9418,-210.0034 985.4419,-220.0034 992.4419,-220.0033"/>
<text text-anchor="middle" x="1011.9418" y="-231.8" font-family="Times,serif" font-size="14.00" fill="#0000ff">property</text>
</g>
<!-- #16 Identifier (x) -->
<g id="node34" class="node">
<title>#16 Identifier (x)</title>
<ellipse fill="none" stroke="#000000" cx="1046.9418" cy="-105" rx="71.4873" ry="18"/>
<text text-anchor="middle" x="1046.9418" y="-101.3" font-family="Times,serif" font-size="14.00" fill="#000000">#16 Identifier (x)</text>
</g>
<!-- #15 MemberExpression&#45;&gt;#16 Identifier (x) -->
<g id="edge43" class="edge">
<title>#15 MemberExpression&#45;&gt;#16 Identifier (x)</title>
<path fill="none" stroke="#0000ff" d="M847.6951,-176.0429C889.5204,-161.1298 951.9227,-138.8797 995.7204,-123.2634"/>
<polygon fill="#0000ff" stroke="#0000ff" points="997.0778,-126.4953 1005.3215,-119.84 994.7268,-119.9018 997.0778,-126.4953"/>
<text text-anchor="middle" x="955.9418" y="-144.8" font-family="Times,serif" font-size="14.00" fill="#0000ff">object</text>
</g>
<!-- #17 Identifier (param) -->
<g id="node35" class="node">
<title>#17 Identifier (param)</title>
<ellipse fill="none" stroke="#000000" cx="867.9418" cy="-105" rx="89.8845" ry="18"/>
<text text-anchor="middle" x="867.9418" y="-101.3" font-family="Times,serif" font-size="14.00" fill="#000000">#17 Identifier (param)</text>
</g>
<!-- #15 MemberExpression&#45;&gt;#17 Identifier (param) -->
<g id="edge44" class="edge">
<title>#15 MemberExpression&#45;&gt;#17 Identifier (param)</title>
<path fill="none" stroke="#0000ff" d="M816.4098,-173.9735C825.648,-161.6085 838.054,-145.0036 848.3785,-131.1847"/>
<polygon fill="#0000ff" stroke="#0000ff" points="851.3095,-133.1093 854.491,-123.0034 845.7018,-128.9196 851.3095,-133.1093"/>
<text text-anchor="middle" x="861.9418" y="-144.8" font-family="Times,serif" font-size="14.00" fill="#0000ff">property</text>
</g>
<!-- #20 Identifier (eval) -->
<g id="node36" class="node">
<title>#20 Identifier (eval)</title>
<ellipse fill="none" stroke="#000000" cx="689.9418" cy="-18" rx="81.7856" ry="18"/>
<text text-anchor="middle" x="689.9418" y="-14.3" font-family="Times,serif" font-size="14.00" fill="#000000">#20 Identifier (eval)</text>
</g>
<!-- #19 CallExpression&#45;&gt;#20 Identifier (eval) -->
<g id="edge45" class="edge">
<title>#19 CallExpression&#45;&gt;#20 Identifier (eval)</title>
<path fill="none" stroke="#0000ff" d="M682.0138,-86.9735C683.368,-75.1918 685.1647,-59.5607 686.7052,-46.1581"/>
<polygon fill="#0000ff" stroke="#0000ff" points="690.2075,-46.3376 687.8724,-36.0034 683.2533,-45.5383 690.2075,-46.3376"/>
<text text-anchor="middle" x="700.9418" y="-57.8" font-family="Times,serif" font-size="14.00" fill="#0000ff">callee</text>
</g>
<!-- #21 Identifier (v1) -->
<g id="node37" class="node">
<title>#21 Identifier (v1)</title>
<ellipse fill="none" stroke="#000000" cx="865.9418" cy="-18" rx="76.0865" ry="18"/>
<text text-anchor="middle" x="865.9418" y="-14.3" font-family="Times,serif" font-size="14.00" fill="#000000">#21 Identifier (v1)</text>
</g>
<!-- #19 CallExpression&#45;&gt;#21 Identifier (v1) -->
<g id="edge46" class="edge">
<title>#19 CallExpression&#45;&gt;#21 Identifier (v1)</title>
<path fill="none" stroke="#0000ff" d="M714.9269,-88.636C745.2889,-74.4344 789.3866,-53.808 822.0981,-38.5075"/>
<polygon fill="#0000ff" stroke="#0000ff" points="823.853,-41.5507 831.4282,-34.1435 820.8871,-35.21 823.853,-41.5507"/>
<text text-anchor="middle" x="797.9418" y="-57.8" font-family="Times,serif" font-size="14.00" fill="#0000ff">arg 1</text>
</g>
</g>
</svg>
