<?xml version="1.0" encoding="UTF-8" standalone="no"?>
<!DOCTYPE svg PUBLIC "-//W3C//DTD SVG 1.1//EN"
 "http://www.w3.org/Graphics/SVG/1.1/DTD/svg11.dtd">
<!-- Generated by graphviz version 2.40.1 (20161225.0304)
 -->
<!-- Title: G Pages: 1 -->
<svg width="1154pt" height="1043pt"
 viewBox="0.00 0.00 1153.64 1043.00" xmlns="http://www.w3.org/2000/svg" xmlns:xlink="http://www.w3.org/1999/xlink">
<g id="graph0" class="graph" transform="scale(1 1) rotate(0) translate(4 1039)">
<title>G</title>
<polygon fill="#ffffff" stroke="transparent" points="-4,4 -4,-1039 1149.6373,-1039 1149.6373,4 -4,4"/>
<!-- #0 Program -->
<g id="node1" class="node">
<title>#0 Program</title>
<ellipse fill="none" stroke="#000000" cx="508.594" cy="-1017" rx="52.7911" ry="18"/>
<text text-anchor="middle" x="508.594" y="-1013.3" font-family="Times,serif" font-size="14.00" fill="#000000">#0 Program</text>
</g>
<!-- #1 Variable (f) -->
<g id="node2" class="node">
<title>#1 Variable (f)</title>
<ellipse fill="none" stroke="#000000" cx="604.594" cy="-930" rx="63.8893" ry="18"/>
<text text-anchor="middle" x="604.594" y="-926.3" font-family="Times,serif" font-size="14.00" fill="#000000">#1 Variable (f)</text>
</g>
<!-- #0 Program&#45;&gt;#1 Variable (f) -->
<g id="edge1" class="edge">
<title>#0 Program&#45;&gt;#1 Variable (f)</title>
<path fill="none" stroke="#0000ff" d="M527.5605,-999.8116C541.93,-986.7893 561.8599,-968.7277 577.8479,-954.2386"/>
<polygon fill="#0000ff" stroke="#0000ff" points="580.2787,-956.7592 585.3383,-947.4505 575.5781,-951.5722 580.2787,-956.7592"/>
<text text-anchor="middle" x="566.094" y="-969.8" font-family="Times,serif" font-size="14.00" fill="#0000ff">1</text>
</g>
<!-- #23 CFG_F_START 2_anon -->
<g id="node4" class="node">
<title>#23 CFG_F_START 2_anon</title>
<ellipse fill="none" stroke="#ff0000" cx="547.594" cy="-735" rx="113.18" ry="18"/>
<text text-anchor="middle" x="547.594" y="-731.3" font-family="Times,serif" font-size="14.00" fill="#ff0000">#23 CFG_F_START 2_anon</text>
</g>
<!-- #1 Variable (f)&#45;&gt;#23 CFG_F_START 2_anon -->
<g id="edge5" class="edge">
<title>#1 Variable (f)&#45;&gt;#23 CFG_F_START 2_anon</title>
<path fill="none" stroke="#000000" d="M588.3865,-912.4829C577.3123,-899.3623 563.4471,-880.4008 556.594,-861 545.2813,-828.9741 544.3625,-789.5821 545.4019,-763.4582"/>
<polygon fill="#000000" stroke="#000000" points="548.9147,-763.3042 545.9426,-753.1348 541.9242,-762.938 548.9147,-763.3042"/>
<text text-anchor="middle" x="565.594" y="-839.3" font-family="Times,serif" font-size="14.00" fill="#000000">FD</text>
</g>
<!-- #2 Function (anon) -->
<g id="node6" class="node">
<title>#2 Function (anon)</title>
<ellipse fill="none" stroke="#000000" cx="662.594" cy="-843" rx="78.7863" ry="18"/>
<text text-anchor="middle" x="662.594" y="-839.3" font-family="Times,serif" font-size="14.00" fill="#000000">#2 Function (anon)</text>
</g>
<!-- #1 Variable (f)&#45;&gt;#2 Function (anon) -->
<g id="edge4" class="edge">
<title>#1 Variable (f)&#45;&gt;#2 Function (anon)</title>
<path fill="none" stroke="#0000ff" d="M616.6116,-911.9735C624.7772,-899.7252 635.7163,-883.3165 644.8763,-869.5766"/>
<polygon fill="#0000ff" stroke="#0000ff" points="647.9569,-871.2653 650.5918,-861.0034 642.1325,-867.3824 647.9569,-871.2653"/>
<text text-anchor="middle" x="647.094" y="-882.8" font-family="Times,serif" font-size="14.00" fill="#0000ff">init</text>
</g>
<!-- #22 CFG_F_END __main__ -->
<g id="node7" class="node">
<title>#22 CFG_F_END __main__</title>
<ellipse fill="none" stroke="#ff0000" cx="872.594" cy="-843" rx="113.18" ry="18"/>
<text text-anchor="middle" x="872.594" y="-839.3" font-family="Times,serif" font-size="14.00" fill="#ff0000">#22 CFG_F_END __main__</text>
</g>
<!-- #1 Variable (f)&#45;&gt;#22 CFG_F_END __main__ -->
<g id="edge6" class="edge">
<title>#1 Variable (f)&#45;&gt;#22 CFG_F_END __main__</title>
<path fill="none" stroke="#ff0000" d="M646.469,-916.4063C691.0481,-901.9347 761.9926,-878.9042 812.5226,-862.5008"/>
<polygon fill="#ff0000" stroke="#ff0000" points="813.9118,-865.7297 822.3425,-859.313 811.7504,-859.0717 813.9118,-865.7297"/>
</g>
<!-- #26 this&#45;o2 -->
<g id="node8" class="node">
<title>#26 this&#45;o2</title>
<ellipse fill="none" stroke="#006400" cx="431.594" cy="-789" rx="50.8918" ry="18"/>
<text text-anchor="middle" x="431.594" y="-785.3" font-family="Times,serif" font-size="14.00" fill="#006400">#26 this&#45;o2</text>
</g>
<!-- #1 Variable (f)&#45;&gt;#26 this&#45;o2 -->
<g id="edge7" class="edge">
<title>#1 Variable (f)&#45;&gt;#26 this&#45;o2</title>
<path fill="none" stroke="#006400" d="M547.0937,-922.1347C511.5407,-916.1269 470.3371,-906.7104 457.594,-894 437.5312,-873.9886 432.0863,-841.089 430.9974,-817.4465"/>
<polygon fill="#006400" stroke="#006400" points="434.4935,-817.2324 430.7668,-807.3147 427.4954,-817.3918 434.4935,-817.2324"/>
<text text-anchor="middle" x="495.594" y="-882.8" font-family="Times,serif" font-size="14.00" fill="#006400">CREATE this</text>
</g>
<!-- #21 CFG_F_START __main__ -->
<g id="node3" class="node">
<title>#21 CFG_F_START __main__</title>
<ellipse fill="none" stroke="#ff0000" cx="701.594" cy="-1017" rx="122.6784" ry="18"/>
<text text-anchor="middle" x="701.594" y="-1013.3" font-family="Times,serif" font-size="14.00" fill="#ff0000">#21 CFG_F_START __main__</text>
</g>
<!-- #21 CFG_F_START __main__&#45;&gt;#1 Variable (f) -->
<g id="edge2" class="edge">
<title>#21 CFG_F_START __main__&#45;&gt;#1 Variable (f)</title>
<path fill="none" stroke="#ff0000" d="M681.4955,-998.9735C667.1301,-986.089 647.6318,-968.6009 631.8636,-954.4583"/>
<polygon fill="#ff0000" stroke="#ff0000" points="633.7861,-951.4811 624.0048,-947.4097 629.1123,-956.6922 633.7861,-951.4811"/>
</g>
<!-- #4 ExpressionStatement -->
<g id="node5" class="node">
<title>#4 ExpressionStatement</title>
<ellipse fill="none" stroke="#000000" cx="568.594" cy="-627" rx="96.6831" ry="18"/>
<text text-anchor="middle" x="568.594" y="-623.3" font-family="Times,serif" font-size="14.00" fill="#000000">#4 ExpressionStatement</text>
</g>
<!-- #23 CFG_F_START 2_anon&#45;&gt;#4 ExpressionStatement -->
<g id="edge3" class="edge">
<title>#23 CFG_F_START 2_anon&#45;&gt;#4 ExpressionStatement</title>
<path fill="none" stroke="#ff0000" d="M551.1564,-716.6793C554.4495,-699.7429 559.3907,-674.3311 563.1733,-654.8777"/>
<polygon fill="#ff0000" stroke="#ff0000" points="566.6111,-655.5344 565.0842,-645.0502 559.7398,-654.1982 566.6111,-655.5344"/>
</g>
<!-- #5 AssignmentExpression -->
<g id="node9" class="node">
<title>#5 AssignmentExpression</title>
<ellipse fill="none" stroke="#000000" cx="363.594" cy="-540" rx="103.1819" ry="18"/>
<text text-anchor="middle" x="363.594" y="-536.3" font-family="Times,serif" font-size="14.00" fill="#000000">#5 AssignmentExpression</text>
</g>
<!-- #4 ExpressionStatement&#45;&gt;#5 AssignmentExpression -->
<g id="edge8" class="edge">
<title>#4 ExpressionStatement&#45;&gt;#5 AssignmentExpression</title>
<path fill="none" stroke="#0000ff" d="M527.7687,-610.524C512.8889,-604.4596 495.9518,-597.4876 480.594,-591 457.4791,-581.2356 431.9201,-570.1303 410.6022,-560.7812"/>
<polygon fill="#0000ff" stroke="#0000ff" points="412.0018,-557.5732 401.4385,-556.756 409.1866,-563.9822 412.0018,-557.5732"/>
<text text-anchor="middle" x="509.594" y="-579.8" font-family="Times,serif" font-size="14.00" fill="#0000ff">expression</text>
</g>
<!-- #10 Variable (v1) -->
<g id="node10" class="node">
<title>#10 Variable (v1)</title>
<ellipse fill="none" stroke="#000000" cx="558.594" cy="-453" rx="73.387" ry="18"/>
<text text-anchor="middle" x="558.594" y="-449.3" font-family="Times,serif" font-size="14.00" fill="#000000">#10 Variable (v1)</text>
</g>
<!-- #4 ExpressionStatement&#45;&gt;#10 Variable (v1) -->
<g id="edge9" class="edge">
<title>#4 ExpressionStatement&#45;&gt;#10 Variable (v1)</title>
<path fill="none" stroke="#ff0000" d="M589.7702,-609.0732C594.5716,-603.7951 599.0121,-597.6375 601.594,-591 618.0284,-548.7505 620.7755,-530.0753 601.594,-489 599.5394,-484.6002 596.6532,-480.5483 593.3375,-476.8758"/>
<polygon fill="#ff0000" stroke="#ff0000" points="595.6928,-474.2851 586.057,-469.8804 590.8429,-479.3327 595.6928,-474.2851"/>
</g>
<!-- #28 this&#45;o4 -->
<g id="node11" class="node">
<title>#28 this&#45;o4</title>
<ellipse fill="none" stroke="#006400" cx="535.594" cy="-540" rx="50.8918" ry="18"/>
<text text-anchor="middle" x="535.594" y="-536.3" font-family="Times,serif" font-size="14.00" fill="#006400">#28 this&#45;o4</text>
</g>
<!-- #4 ExpressionStatement&#45;&gt;#28 this&#45;o4 -->
<g id="edge10" class="edge">
<title>#4 ExpressionStatement&#45;&gt;#28 this&#45;o4</title>
<path fill="none" stroke="#006400" d="M555.9276,-608.9406C552.4881,-603.3873 549.0422,-597.1207 546.594,-591 543.7263,-583.8305 541.5487,-575.7804 539.9196,-568.2312"/>
<polygon fill="#006400" stroke="#006400" points="543.3502,-567.5363 538.0248,-558.3772 536.4761,-568.8582 543.3502,-567.5363"/>
<text text-anchor="middle" x="574.094" y="-579.8" font-family="Times,serif" font-size="14.00" fill="#006400">WRITE x</text>
</g>
<!-- #2 Function (anon)&#45;&gt;#23 CFG_F_START 2_anon -->
<g id="edge13" class="edge">
<title>#2 Function (anon)&#45;&gt;#23 CFG_F_START 2_anon</title>
<path fill="none" stroke="#000000" d="M643.8613,-825.4076C624.9287,-807.6274 595.5002,-779.9901 574.1626,-759.9514"/>
<polygon fill="#000000" stroke="#000000" points="576.3874,-757.2393 566.7019,-752.9448 571.5953,-762.3419 576.3874,-757.2393"/>
<text text-anchor="middle" x="631.594" y="-785.3" font-family="Times,serif" font-size="14.00" fill="#000000">FD</text>
</g>
<!-- #3 Identifier (x) -->
<g id="node12" class="node">
<title>#3 Identifier (x)</title>
<ellipse fill="none" stroke="#000000" cx="872.594" cy="-681" rx="67.6881" ry="18"/>
<text text-anchor="middle" x="872.594" y="-677.3" font-family="Times,serif" font-size="14.00" fill="#000000">#3 Identifier (x)</text>
</g>
<!-- #2 Function (anon)&#45;&gt;#3 Identifier (x) -->
<g id="edge11" class="edge">
<title>#2 Function (anon)&#45;&gt;#3 Identifier (x)</title>
<path fill="none" stroke="#0000ff" d="M721.0615,-830.7953C764.4595,-818.5947 821.4688,-795.3452 853.594,-753 863.0583,-740.5249 867.8201,-723.7365 870.2106,-709.5092"/>
<polygon fill="#0000ff" stroke="#0000ff" points="873.7273,-709.6247 871.615,-699.2425 866.7919,-708.6759 873.7273,-709.6247"/>
<text text-anchor="middle" x="856.594" y="-785.3" font-family="Times,serif" font-size="14.00" fill="#0000ff">param 1</text>
</g>
<!-- #20 BlockStatement -->
<g id="node13" class="node">
<title>#20 BlockStatement</title>
<ellipse fill="none" stroke="#000000" cx="761.594" cy="-735" rx="83.3857" ry="18"/>
<text text-anchor="middle" x="761.594" y="-731.3" font-family="Times,serif" font-size="14.00" fill="#000000">#20 BlockStatement</text>
</g>
<!-- #2 Function (anon)&#45;&gt;#20 BlockStatement -->
<g id="edge12" class="edge">
<title>#2 Function (anon)&#45;&gt;#20 BlockStatement</title>
<path fill="none" stroke="#0000ff" d="M678.9418,-825.166C695.1354,-807.5003 720.0895,-780.2776 738.3431,-760.3646"/>
<polygon fill="#0000ff" stroke="#0000ff" points="741.0446,-762.5971 745.2219,-752.8605 735.8846,-757.867 741.0446,-762.5971"/>
<text text-anchor="middle" x="742.094" y="-785.3" font-family="Times,serif" font-size="14.00" fill="#0000ff">block</text>
</g>
<!-- #26 this&#45;o2&#45;&gt;#28 this&#45;o4 -->
<g id="edge14" class="edge">
<title>#26 this&#45;o2&#45;&gt;#28 this&#45;o4</title>
<path fill="none" stroke="#006400" d="M426.558,-770.9598C416.593,-731.0484 399.044,-634.2065 444.594,-576 450.3451,-568.6509 467.9166,-560.9801 486.1052,-554.6169"/>
<polygon fill="#006400" stroke="#006400" points="487.2521,-557.9239 495.6135,-551.4172 485.0195,-551.2895 487.2521,-557.9239"/>
<text text-anchor="middle" x="469.594" y="-677.3" font-family="Times,serif" font-size="14.00" fill="#006400">NEW_VERSION x</text>
</g>
<!-- #6 MemberExpression -->
<g id="node14" class="node">
<title>#6 MemberExpression</title>
<ellipse fill="none" stroke="#000000" cx="204.594" cy="-453" rx="91.784" ry="18"/>
<text text-anchor="middle" x="204.594" y="-449.3" font-family="Times,serif" font-size="14.00" fill="#000000">#6 MemberExpression</text>
</g>
<!-- #5 AssignmentExpression&#45;&gt;#6 MemberExpression -->
<g id="edge15" class="edge">
<title>#5 AssignmentExpression&#45;&gt;#6 MemberExpression</title>
<path fill="none" stroke="#0000ff" d="M332.1807,-522.8116C307.0556,-509.0639 271.6662,-489.6999 244.5305,-474.852"/>
<polygon fill="#0000ff" stroke="#0000ff" points="246.1238,-471.7342 235.6711,-470.0045 242.7637,-477.875 246.1238,-471.7342"/>
<text text-anchor="middle" x="304.094" y="-492.8" font-family="Times,serif" font-size="14.00" fill="#0000ff">left</text>
</g>
<!-- #9 Identifier (x) -->
<g id="node15" class="node">
<title>#9 Identifier (x)</title>
<ellipse fill="none" stroke="#000000" cx="381.594" cy="-453" rx="67.6881" ry="18"/>
<text text-anchor="middle" x="381.594" y="-449.3" font-family="Times,serif" font-size="14.00" fill="#000000">#9 Identifier (x)</text>
</g>
<!-- #5 AssignmentExpression&#45;&gt;#9 Identifier (x) -->
<g id="edge16" class="edge">
<title>#5 AssignmentExpression&#45;&gt;#9 Identifier (x)</title>
<path fill="none" stroke="#0000ff" d="M367.3236,-521.9735C369.7612,-510.1918 372.9952,-494.5607 375.7682,-481.1581"/>
<polygon fill="#0000ff" stroke="#0000ff" points="379.2704,-481.5051 377.8692,-471.0034 372.4156,-480.0868 379.2704,-481.5051"/>
<text text-anchor="middle" x="387.594" y="-492.8" font-family="Times,serif" font-size="14.00" fill="#0000ff">right</text>
</g>
<!-- #11 MemberExpression -->
<g id="node16" class="node">
<title>#11 MemberExpression</title>
<ellipse fill="none" stroke="#000000" cx="444.594" cy="-366" rx="96.3833" ry="18"/>
<text text-anchor="middle" x="444.594" y="-362.3" font-family="Times,serif" font-size="14.00" fill="#000000">#11 MemberExpression</text>
</g>
<!-- #10 Variable (v1)&#45;&gt;#11 MemberExpression -->
<g id="edge17" class="edge">
<title>#10 Variable (v1)&#45;&gt;#11 MemberExpression</title>
<path fill="none" stroke="#0000ff" d="M536.0713,-435.8116C518.8879,-422.698 495.0085,-404.4742 475.9563,-389.9344"/>
<polygon fill="#0000ff" stroke="#0000ff" points="477.9255,-387.0344 467.8526,-383.75 473.6788,-392.5991 477.9255,-387.0344"/>
<text text-anchor="middle" x="518.094" y="-405.8" font-family="Times,serif" font-size="14.00" fill="#0000ff">init</text>
</g>
<!-- #14 Variable (v2) -->
<g id="node17" class="node">
<title>#14 Variable (v2)</title>
<ellipse fill="none" stroke="#000000" cx="662.594" cy="-279" rx="73.387" ry="18"/>
<text text-anchor="middle" x="662.594" y="-275.3" font-family="Times,serif" font-size="14.00" fill="#000000">#14 Variable (v2)</text>
</g>
<!-- #10 Variable (v1)&#45;&gt;#14 Variable (v2) -->
<g id="edge18" class="edge">
<title>#10 Variable (v1)&#45;&gt;#14 Variable (v2)</title>
<path fill="none" stroke="#ff0000" d="M566.0224,-434.9563C575.1296,-413.5617 591.5882,-377.134 609.594,-348 618.9095,-332.9273 630.8161,-317.1801 640.9833,-304.5414"/>
<polygon fill="#ff0000" stroke="#ff0000" points="643.7538,-306.6822 647.3687,-296.7231 638.3322,-302.2543 643.7538,-306.6822"/>
</g>
<!-- #25 x&#45;o3 -->
<g id="node18" class="node">
<title>#25 x&#45;o3</title>
<ellipse fill="none" stroke="#006400" cx="660.594" cy="-366" rx="42.4939" ry="18"/>
<text text-anchor="middle" x="660.594" y="-362.3" font-family="Times,serif" font-size="14.00" fill="#006400">#25 x&#45;o3</text>
</g>
<!-- #10 Variable (v1)&#45;&gt;#25 x&#45;o3 -->
<g id="edge19" class="edge">
<title>#10 Variable (v1)&#45;&gt;#25 x&#45;o3</title>
<path fill="none" stroke="#000000" d="M571.68,-435.2758C579.8719,-424.8744 591.0378,-411.8772 602.594,-402 609.5324,-396.0697 617.5454,-390.4493 625.3585,-385.4892"/>
<polygon fill="#000000" stroke="#000000" points="627.3217,-388.3913 634.0269,-380.1882 623.6697,-382.4194 627.3217,-388.3913"/>
<text text-anchor="middle" x="624.094" y="-405.8" font-family="Times,serif" font-size="14.00" fill="#000000">REF v1</text>
</g>
<!-- #28 this&#45;o4&#45;&gt;#10 Variable (v1) -->
<g id="edge20" class="edge">
<title>#28 this&#45;o4&#45;&gt;#10 Variable (v1)</title>
<path fill="none" stroke="#006400" d="M533.1381,-521.7107C532.4187,-511.8335 532.5149,-499.5386 535.594,-489 536.53,-485.7964 537.8476,-482.6068 539.3838,-479.5251"/>
<polygon fill="#006400" stroke="#006400" points="542.5116,-481.1076 544.4847,-470.6981 536.4508,-477.6051 542.5116,-481.1076"/>
<text text-anchor="middle" x="568.594" y="-492.8" font-family="Times,serif" font-size="14.00" fill="#006400">LOOKUP x</text>
</g>
<!-- #3 Identifier (x)&#45;&gt;#25 x&#45;o3 -->
<g id="edge21" class="edge">
<title>#3 Identifier (x)&#45;&gt;#25 x&#45;o3</title>
<path fill="none" stroke="#006400" d="M866.8934,-662.8762C861.2968,-643.4513 853.594,-611.6102 853.594,-583.5 853.594,-583.5 853.594,-583.5 853.594,-453 853.594,-420.3099 829.1412,-417.928 800.594,-402 773.1702,-386.6988 739.1064,-377.7547 711.446,-372.6089"/>
<polygon fill="#006400" stroke="#006400" points="712.023,-369.1568 701.5692,-370.8802 710.816,-376.0519 712.023,-369.1568"/>
<text text-anchor="middle" x="885.594" y="-536.3" font-family="Times,serif" font-size="14.00" fill="#006400">CREATE x</text>
</g>
<!-- #20 BlockStatement&#45;&gt;#4 ExpressionStatement -->
<g id="edge22" class="edge">
<title>#20 BlockStatement&#45;&gt;#4 ExpressionStatement</title>
<path fill="none" stroke="#0000ff" d="M728.7903,-718.2696C717.2842,-712.2998 704.3106,-705.4538 692.594,-699 663.2702,-682.8477 630.5353,-663.796 606.0657,-649.3488"/>
<polygon fill="#0000ff" stroke="#0000ff" points="607.8348,-646.3288 597.4462,-644.2484 604.27,-652.3531 607.8348,-646.3288"/>
<text text-anchor="middle" x="696.094" y="-677.3" font-family="Times,serif" font-size="14.00" fill="#0000ff">1</text>
</g>
<!-- #20 BlockStatement&#45;&gt;#10 Variable (v1) -->
<g id="edge23" class="edge">
<title>#20 BlockStatement&#45;&gt;#10 Variable (v1)</title>
<path fill="none" stroke="#0000ff" d="M747.5981,-717.1281C743.8409,-711.58 740.1236,-705.2693 737.594,-699 702.1037,-611.041 764.241,-558.4054 699.594,-489 689.77,-478.4529 660.6927,-470.1561 631.4765,-464.1988"/>
<polygon fill="#0000ff" stroke="#0000ff" points="632.0761,-460.7499 621.5906,-462.2683 630.7344,-467.6201 632.0761,-460.7499"/>
<text text-anchor="middle" x="733.094" y="-579.8" font-family="Times,serif" font-size="14.00" fill="#0000ff">2</text>
</g>
<!-- #20 BlockStatement&#45;&gt;#14 Variable (v2) -->
<g id="edge24" class="edge">
<title>#20 BlockStatement&#45;&gt;#14 Variable (v2)</title>
<path fill="none" stroke="#0000ff" d="M758.8615,-716.7028C755.9006,-695.2606 751.594,-658.6347 751.594,-627 751.594,-627 751.594,-627 751.594,-366 751.594,-337.452 727.8882,-315.1981 704.9457,-300.3455"/>
<polygon fill="#0000ff" stroke="#0000ff" points="706.5975,-297.2529 696.2411,-295.0177 702.9432,-303.2234 706.5975,-297.2529"/>
<text text-anchor="middle" x="755.094" y="-492.8" font-family="Times,serif" font-size="14.00" fill="#0000ff">3</text>
</g>
<!-- #18 ReturnStatement -->
<g id="node19" class="node">
<title>#18 ReturnStatement</title>
<ellipse fill="none" stroke="#000000" cx="704.594" cy="-105" rx="85.5853" ry="18"/>
<text text-anchor="middle" x="704.594" y="-101.3" font-family="Times,serif" font-size="14.00" fill="#000000">#18 ReturnStatement</text>
</g>
<!-- #20 BlockStatement&#45;&gt;#18 ReturnStatement -->
<g id="edge25" class="edge">
<title>#20 BlockStatement&#45;&gt;#18 ReturnStatement</title>
<path fill="none" stroke="#0000ff" d="M769.2451,-717.0242C777.5354,-695.8839 789.594,-659.5414 789.594,-627 789.594,-627 789.594,-627 789.594,-192 789.594,-164.4101 767.4529,-142.3205 745.7713,-127.3036"/>
<polygon fill="#0000ff" stroke="#0000ff" points="747.4976,-124.2505 737.2141,-121.7009 743.6632,-130.1069 747.4976,-124.2505"/>
<text text-anchor="middle" x="793.094" y="-405.8" font-family="Times,serif" font-size="14.00" fill="#0000ff">4</text>
</g>
<!-- #7 ThisExpression -->
<g id="node20" class="node">
<title>#7 ThisExpression</title>
<ellipse fill="none" stroke="#000000" cx="229.594" cy="-366" rx="76.8869" ry="18"/>
<text text-anchor="middle" x="229.594" y="-362.3" font-family="Times,serif" font-size="14.00" fill="#000000">#7 ThisExpression</text>
</g>
<!-- #6 MemberExpression&#45;&gt;#7 ThisExpression -->
<g id="edge26" class="edge">
<title>#6 MemberExpression&#45;&gt;#7 ThisExpression</title>
<path fill="none" stroke="#0000ff" d="M209.774,-434.9735C213.1931,-423.0751 217.7403,-407.2508 221.6168,-393.7606"/>
<polygon fill="#0000ff" stroke="#0000ff" points="225.0226,-394.5811 224.4206,-384.0034 218.2949,-392.6478 225.0226,-394.5811"/>
<text text-anchor="middle" x="235.594" y="-405.8" font-family="Times,serif" font-size="14.00" fill="#0000ff">object</text>
</g>
<!-- #8 Identifier (x) -->
<g id="node21" class="node">
<title>#8 Identifier (x)</title>
<ellipse fill="none" stroke="#000000" cx="67.594" cy="-366" rx="67.6881" ry="18"/>
<text text-anchor="middle" x="67.594" y="-362.3" font-family="Times,serif" font-size="14.00" fill="#000000">#8 Identifier (x)</text>
</g>
<!-- #6 MemberExpression&#45;&gt;#8 Identifier (x) -->
<g id="edge27" class="edge">
<title>#6 MemberExpression&#45;&gt;#8 Identifier (x)</title>
<path fill="none" stroke="#0000ff" d="M177.1993,-435.6033C155.7347,-421.9726 125.7253,-402.9155 102.5331,-388.1876"/>
<polygon fill="#0000ff" stroke="#0000ff" points="104.3282,-385.1815 94.0102,-382.7753 100.5757,-391.0907 104.3282,-385.1815"/>
<text text-anchor="middle" x="167.594" y="-405.8" font-family="Times,serif" font-size="14.00" fill="#0000ff">property</text>
</g>
<!-- #12 ThisExpression -->
<g id="node22" class="node">
<title>#12 ThisExpression</title>
<ellipse fill="none" stroke="#000000" cx="300.594" cy="-279" rx="81.4863" ry="18"/>
<text text-anchor="middle" x="300.594" y="-275.3" font-family="Times,serif" font-size="14.00" fill="#000000">#12 ThisExpression</text>
</g>
<!-- #11 MemberExpression&#45;&gt;#12 ThisExpression -->
<g id="edge28" class="edge">
<title>#11 MemberExpression&#45;&gt;#12 ThisExpression</title>
<path fill="none" stroke="#0000ff" d="M415.7995,-348.6033C393.2851,-335.0009 361.8264,-315.9945 337.4701,-301.2793"/>
<polygon fill="#0000ff" stroke="#0000ff" points="339.2169,-298.2455 328.8478,-296.07 335.5971,-304.2369 339.2169,-298.2455"/>
<text text-anchor="middle" x="398.594" y="-318.8" font-family="Times,serif" font-size="14.00" fill="#0000ff">object</text>
</g>
<!-- #13 Identifier (x) -->
<g id="node23" class="node">
<title>#13 Identifier (x)</title>
<ellipse fill="none" stroke="#000000" cx="471.594" cy="-279" rx="71.4873" ry="18"/>
<text text-anchor="middle" x="471.594" y="-275.3" font-family="Times,serif" font-size="14.00" fill="#000000">#13 Identifier (x)</text>
</g>
<!-- #11 MemberExpression&#45;&gt;#13 Identifier (x) -->
<g id="edge29" class="edge">
<title>#11 MemberExpression&#45;&gt;#13 Identifier (x)</title>
<path fill="none" stroke="#0000ff" d="M450.1884,-347.9735C453.881,-336.0751 458.792,-320.2508 462.9786,-306.7606"/>
<polygon fill="#0000ff" stroke="#0000ff" points="466.3854,-307.5914 466.0068,-297.0034 459.7,-305.5166 466.3854,-307.5914"/>
<text text-anchor="middle" x="483.594" y="-318.8" font-family="Times,serif" font-size="14.00" fill="#0000ff">property</text>
</g>
<!-- #14 Variable (v2)&#45;&gt;#18 ReturnStatement -->
<g id="edge31" class="edge">
<title>#14 Variable (v2)&#45;&gt;#18 ReturnStatement</title>
<path fill="none" stroke="#ff0000" d="M655.2421,-261.0109C647.6329,-239.6688 638.2033,-203.2916 648.594,-174 654.4329,-157.54 666.0582,-142.1449 677.2106,-130.0915"/>
<polygon fill="#ff0000" stroke="#ff0000" points="679.9541,-132.2901 684.4055,-122.6757 674.9301,-127.4157 679.9541,-132.2901"/>
</g>
<!-- #15 CallExpression -->
<g id="node24" class="node">
<title>#15 CallExpression</title>
<ellipse fill="none" stroke="#000000" cx="897.594" cy="-192" rx="79.8859" ry="18"/>
<text text-anchor="middle" x="897.594" y="-188.3" font-family="Times,serif" font-size="14.00" fill="#000000">#15 CallExpression</text>
</g>
<!-- #14 Variable (v2)&#45;&gt;#15 CallExpression -->
<g id="edge30" class="edge">
<title>#14 Variable (v2)&#45;&gt;#15 CallExpression</title>
<path fill="none" stroke="#0000ff" d="M703.2596,-263.9451C742.952,-249.2504 803.4752,-226.844 846.4201,-210.9452"/>
<polygon fill="#0000ff" stroke="#0000ff" points="847.6829,-214.21 855.8457,-207.4558 845.2525,-207.6454 847.6829,-214.21"/>
<text text-anchor="middle" x="803.094" y="-231.8" font-family="Times,serif" font-size="14.00" fill="#0000ff">init</text>
</g>
<!-- #29 v2&#45;o5 -->
<g id="node25" class="node">
<title>#29 v2&#45;o5</title>
<ellipse fill="none" stroke="#006400" cx="704.594" cy="-192" rx="46.5926" ry="18"/>
<text text-anchor="middle" x="704.594" y="-188.3" font-family="Times,serif" font-size="14.00" fill="#006400">#29 v2&#45;o5</text>
</g>
<!-- #14 Variable (v2)&#45;&gt;#29 v2&#45;o5 -->
<g id="edge32" class="edge">
<title>#14 Variable (v2)&#45;&gt;#29 v2&#45;o5</title>
<path fill="none" stroke="#006400" d="M659.4685,-260.7311C658.5768,-250.6324 658.8925,-238.1196 663.594,-228 665.8316,-223.1839 669.0554,-218.7506 672.7262,-214.7636"/>
<polygon fill="#006400" stroke="#006400" points="675.359,-217.0899 680.1944,-207.6628 670.5356,-212.0169 675.359,-217.0899"/>
<text text-anchor="middle" x="698.594" y="-231.8" font-family="Times,serif" font-size="14.00" fill="#006400">CREATE v2</text>
</g>
<!-- #25 x&#45;o3&#45;&gt;#4 ExpressionStatement -->
<g id="edge33" class="edge">
<title>#25 x&#45;o3&#45;&gt;#4 ExpressionStatement</title>
<path fill="none" stroke="#006400" d="M662.0598,-384.0003C664.4436,-424.8774 664.9196,-526.1791 618.594,-591 615.3677,-595.5144 611.3958,-599.6775 607.113,-603.4462"/>
<polygon fill="#006400" stroke="#006400" points="604.7928,-600.82 599.1621,-609.7948 609.1606,-606.2902 604.7928,-600.82"/>
<text text-anchor="middle" x="677.594" y="-492.8" font-family="Times,serif" font-size="14.00" fill="#006400">VAR x</text>
</g>
<!-- #25 x&#45;o3&#45;&gt;#14 Variable (v2) -->
<g id="edge34" class="edge">
<title>#25 x&#45;o3&#45;&gt;#14 Variable (v2)</title>
<path fill="none" stroke="#006400" d="M661.0084,-347.9735C661.2792,-336.1918 661.6386,-320.5607 661.9467,-307.1581"/>
<polygon fill="#006400" stroke="#006400" points="665.4493,-307.0812 662.1801,-297.0034 658.4511,-306.9202 665.4493,-307.0812"/>
<text text-anchor="middle" x="685.594" y="-318.8" font-family="Times,serif" font-size="14.00" fill="#006400">VAR v1</text>
</g>
<!-- #19 Identifier (v2) -->
<g id="node26" class="node">
<title>#19 Identifier (v2)</title>
<ellipse fill="none" stroke="#000000" cx="606.594" cy="-18" rx="76.0865" ry="18"/>
<text text-anchor="middle" x="606.594" y="-14.3" font-family="Times,serif" font-size="14.00" fill="#000000">#19 Identifier (v2)</text>
</g>
<!-- #18 ReturnStatement&#45;&gt;#19 Identifier (v2) -->
<g id="edge35" class="edge">
<title>#18 ReturnStatement&#45;&gt;#19 Identifier (v2)</title>
<path fill="none" stroke="#0000ff" d="M684.7622,-87.3943C670.1507,-74.4228 650.0985,-56.6213 633.9622,-42.2962"/>
<polygon fill="#0000ff" stroke="#0000ff" points="636.1982,-39.6011 626.3963,-35.5796 631.551,-44.8359 636.1982,-39.6011"/>
<text text-anchor="middle" x="687.594" y="-57.8" font-family="Times,serif" font-size="14.00" fill="#0000ff">argument</text>
</g>
<!-- #24 CFG_F_END 2_anon -->
<g id="node27" class="node">
<title>#24 CFG_F_END 2_anon</title>
<ellipse fill="none" stroke="#ff0000" cx="803.594" cy="-18" rx="103.1819" ry="18"/>
<text text-anchor="middle" x="803.594" y="-14.3" font-family="Times,serif" font-size="14.00" fill="#ff0000">#24 CFG_F_END 2_anon</text>
</g>
<!-- #18 ReturnStatement&#45;&gt;#24 CFG_F_END 2_anon -->
<g id="edge36" class="edge">
<title>#18 ReturnStatement&#45;&gt;#24 CFG_F_END 2_anon</title>
<path fill="none" stroke="#ff0000" d="M724.6281,-87.3943C739.2917,-74.5081 759.3793,-56.8554 775.6243,-42.5794"/>
<polygon fill="#ff0000" stroke="#ff0000" points="778.0486,-45.1084 783.2499,-35.8782 773.4278,-39.8503 778.0486,-45.1084"/>
</g>
<!-- #16 Identifier (eval) -->
<g id="node28" class="node">
<title>#16 Identifier (eval)</title>
<ellipse fill="none" stroke="#000000" cx="893.594" cy="-105" rx="81.7856" ry="18"/>
<text text-anchor="middle" x="893.594" y="-101.3" font-family="Times,serif" font-size="14.00" fill="#000000">#16 Identifier (eval)</text>
</g>
<!-- #15 CallExpression&#45;&gt;#16 Identifier (eval) -->
<g id="edge37" class="edge">
<title>#15 CallExpression&#45;&gt;#16 Identifier (eval)</title>
<path fill="none" stroke="#0000ff" d="M896.7652,-173.9735C896.2235,-162.1918 895.5048,-146.5607 894.8886,-133.1581"/>
<polygon fill="#0000ff" stroke="#0000ff" points="898.3774,-132.832 894.4217,-123.0034 891.3848,-133.1536 898.3774,-132.832"/>
<text text-anchor="middle" x="911.594" y="-144.8" font-family="Times,serif" font-size="14.00" fill="#0000ff">callee</text>
</g>
<!-- #17 Identifier (v1) -->
<g id="node29" class="node">
<title>#17 Identifier (v1)</title>
<ellipse fill="none" stroke="#000000" cx="1069.594" cy="-105" rx="76.0865" ry="18"/>
<text text-anchor="middle" x="1069.594" y="-101.3" font-family="Times,serif" font-size="14.00" fill="#000000">#17 Identifier (v1)</text>
</g>
<!-- #15 CallExpression&#45;&gt;#17 Identifier (v1) -->
<g id="edge38" class="edge">
<title>#15 CallExpression&#45;&gt;#17 Identifier (v1)</title>
<path fill="none" stroke="#0000ff" d="M930.3507,-175.4312C958.1751,-161.3572 998.2586,-141.0824 1028.2812,-125.8966"/>
<polygon fill="#0000ff" stroke="#0000ff" points="1029.9071,-128.9965 1037.2508,-121.3596 1026.7476,-122.7501 1029.9071,-128.9965"/>
<text text-anchor="middle" x="1007.594" y="-144.8" font-family="Times,serif" font-size="14.00" fill="#0000ff">arg 1</text>
</g>
<!-- #29 v2&#45;o5&#45;&gt;#18 ReturnStatement -->
<g id="edge39" class="edge">
<title>#29 v2&#45;o5&#45;&gt;#18 ReturnStatement</title>
<path fill="none" stroke="#006400" d="M704.594,-173.9735C704.594,-162.1918 704.594,-146.5607 704.594,-133.1581"/>
<polygon fill="#006400" stroke="#006400" points="708.0941,-133.0033 704.594,-123.0034 701.0941,-133.0034 708.0941,-133.0033"/>
<text text-anchor="middle" x="727.594" y="-144.8" font-family="Times,serif" font-size="14.00" fill="#006400">VAR v2</text>
</g>
</g>
</svg>
