<?xml version="1.0" encoding="UTF-8" standalone="no"?>
<!DOCTYPE svg PUBLIC "-//W3C//DTD SVG 1.1//EN"
 "http://www.w3.org/Graphics/SVG/1.1/DTD/svg11.dtd">
<!-- Generated by graphviz version 2.40.1 (20161225.0304)
 -->
<!-- Title: G Pages: 1 -->
<svg width="724pt" height="1777pt"
 viewBox="0.00 0.00 724.29 1777.00" xmlns="http://www.w3.org/2000/svg" xmlns:xlink="http://www.w3.org/1999/xlink">
<g id="graph0" class="graph" transform="scale(1 1) rotate(0) translate(4 1773)">
<title>G</title>
<polygon fill="#ffffff" stroke="transparent" points="-4,4 -4,-1773 720.2895,-1773 720.2895,4 -4,4"/>
<!-- #64 CFG_F_START __main__ -->
<g id="node1" class="node">
<title>#64 CFG_F_START __main__</title>
<ellipse fill="none" stroke="#ff0000" cx="377.2895" cy="-1751" rx="122.6784" ry="18"/>
<text text-anchor="middle" x="377.2895" y="-1747.3" font-family="Times,serif" font-size="14.00" fill="#ff0000">#64 CFG_F_START __main__</text>
</g>
<!-- #1 Variable (express) &#45; (64) -->
<g id="node2" class="node">
<title>#1 Variable (express) &#45; (64)</title>
<ellipse fill="none" stroke="#000000" cx="377.2895" cy="-1678" rx="109.381" ry="18"/>
<text text-anchor="middle" x="377.2895" y="-1674.3" font-family="Times,serif" font-size="14.00" fill="#000000">#1 Variable (express) &#45; (64)</text>
</g>
<!-- #64 CFG_F_START __main__&#45;&gt;#1 Variable (express) &#45; (64) -->
<g id="edge1" class="edge">
<title>#64 CFG_F_START __main__&#45;&gt;#1 Variable (express) &#45; (64)</title>
<path fill="none" stroke="#ff0000" d="M377.2895,-1732.9551C377.2895,-1724.8828 377.2895,-1715.1764 377.2895,-1706.1817"/>
<polygon fill="#ff0000" stroke="#ff0000" points="380.7896,-1706.0903 377.2895,-1696.0904 373.7896,-1706.0904 380.7896,-1706.0903"/>
</g>
<!-- #5 Variable (v1) &#45; (64) -->
<g id="node7" class="node">
<title>#5 Variable (v1) &#45; (64)</title>
<ellipse fill="none" stroke="#000000" cx="441.2895" cy="-1591" rx="91.784" ry="18"/>
<text text-anchor="middle" x="441.2895" y="-1587.3" font-family="Times,serif" font-size="14.00" fill="#000000">#5 Variable (v1) &#45; (64)</text>
</g>
<!-- #1 Variable (express) &#45; (64)&#45;&gt;#5 Variable (v1) &#45; (64) -->
<g id="edge4" class="edge">
<title>#1 Variable (express) &#45; (64)&#45;&gt;#5 Variable (v1) &#45; (64)</title>
<path fill="none" stroke="#ff0000" d="M404.2626,-1660.3052C410.8248,-1655.0253 417.3632,-1648.8088 422.2895,-1642 427.2743,-1635.1104 431.1024,-1626.7616 433.9712,-1618.8312"/>
<polygon fill="#ff0000" stroke="#ff0000" points="437.3548,-1619.743 437.1066,-1609.1511 430.6954,-1617.586 437.3548,-1619.743"/>
</g>
<!-- #70 express&#45;o1 -->
<g id="node8" class="node">
<title>#70 express&#45;o1</title>
<ellipse fill="none" stroke="#006400" cx="321.2895" cy="-1537" rx="64.189" ry="18"/>
<text text-anchor="middle" x="321.2895" y="-1533.3" font-family="Times,serif" font-size="14.00" fill="#006400">#70 express&#45;o1</text>
</g>
<!-- #1 Variable (express) &#45; (64)&#45;&gt;#70 express&#45;o1 -->
<g id="edge5" class="edge">
<title>#1 Variable (express) &#45; (64)&#45;&gt;#70 express&#45;o1</title>
<path fill="none" stroke="#006400" d="M339.4085,-1661.0695C332.1442,-1656.0148 325.4987,-1649.7098 321.2895,-1642 308.3945,-1618.3807 310.3712,-1587.0868 314.356,-1564.8231"/>
<polygon fill="#006400" stroke="#006400" points="317.7925,-1565.4873 316.3493,-1554.9912 310.9321,-1564.0964 317.7925,-1565.4873"/>
<text text-anchor="middle" x="369.7895" y="-1630.8" font-family="Times,serif" font-size="14.00" fill="#006400">CREATE express</text>
</g>
<!-- #66 CFG_F_START 21_anon -->
<g id="node3" class="node">
<title>#66 CFG_F_START 21_anon</title>
<ellipse fill="none" stroke="#ff0000" cx="434.2895" cy="-961" rx="117.7793" ry="18"/>
<text text-anchor="middle" x="434.2895" y="-957.3" font-family="Times,serif" font-size="14.00" fill="#ff0000">#66 CFG_F_START 21_anon</text>
</g>
<!-- #24 Variable (v3) &#45; (66) -->
<g id="node4" class="node">
<title>#24 Variable (v3) &#45; (66)</title>
<ellipse fill="none" stroke="#000000" cx="434.2895" cy="-874" rx="96.3833" ry="18"/>
<text text-anchor="middle" x="434.2895" y="-870.3" font-family="Times,serif" font-size="14.00" fill="#000000">#24 Variable (v3) &#45; (66)</text>
</g>
<!-- #66 CFG_F_START 21_anon&#45;&gt;#24 Variable (v3) &#45; (66) -->
<g id="edge2" class="edge">
<title>#66 CFG_F_START 21_anon&#45;&gt;#24 Variable (v3) &#45; (66)</title>
<path fill="none" stroke="#ff0000" d="M434.2895,-942.9735C434.2895,-931.1918 434.2895,-915.5607 434.2895,-902.1581"/>
<polygon fill="#ff0000" stroke="#ff0000" points="437.7896,-902.0033 434.2895,-892.0034 430.7896,-902.0034 437.7896,-902.0033"/>
</g>
<!-- #28 Variable (folder) &#45; (66) -->
<g id="node9" class="node">
<title>#28 Variable (folder) &#45; (66)</title>
<ellipse fill="none" stroke="#000000" cx="430.2895" cy="-700" rx="108.5808" ry="18"/>
<text text-anchor="middle" x="430.2895" y="-696.3" font-family="Times,serif" font-size="14.00" fill="#000000">#28 Variable (folder) &#45; (66)</text>
</g>
<!-- #24 Variable (v3) &#45; (66)&#45;&gt;#28 Variable (folder) &#45; (66) -->
<g id="edge6" class="edge">
<title>#24 Variable (v3) &#45; (66)&#45;&gt;#28 Variable (folder) &#45; (66)</title>
<path fill="none" stroke="#ff0000" d="M428.4848,-855.7463C426.744,-850.0795 424.8769,-843.7991 423.2895,-838 415.1386,-808.2234 411.9916,-799.6954 415.2895,-769 416.7628,-755.2876 419.838,-740.3019 422.8226,-727.8101"/>
<polygon fill="#ff0000" stroke="#ff0000" points="426.2487,-728.536 425.2713,-717.9863 419.4565,-726.8429 426.2487,-728.536"/>
</g>
<!-- #80 req.query&#45;o11 -->
<g id="node10" class="node">
<title>#80 req.query&#45;o11</title>
<ellipse fill="none" stroke="#006400" cx="500.2895" cy="-787" rx="76.0865" ry="18"/>
<text text-anchor="middle" x="500.2895" y="-783.3" font-family="Times,serif" font-size="14.00" fill="#006400">#80 req.query&#45;o11</text>
</g>
<!-- #24 Variable (v3) &#45; (66)&#45;&gt;#80 req.query&#45;o11 -->
<g id="edge7" class="edge">
<title>#24 Variable (v3) &#45; (66)&#45;&gt;#80 req.query&#45;o11</title>
<path fill="none" stroke="#006400" d="M459.9676,-856.424C466.536,-851.0633 473.1786,-844.7769 478.2895,-838 483.5732,-830.994 487.8803,-822.5246 491.2376,-814.5174"/>
<polygon fill="#006400" stroke="#006400" points="494.5332,-815.6988 494.8635,-805.1091 488.0015,-813.1815 494.5332,-815.6988"/>
<text text-anchor="middle" x="541.7895" y="-826.8" font-family="Times,serif" font-size="14.00" fill="#006400">CREATE req.query</text>
</g>
<!-- #24 Variable (v3) &#45; (66)&#45;&gt;#80 req.query&#45;o11 -->
<g id="edge8" class="edge">
<title>#24 Variable (v3) &#45; (66)&#45;&gt;#80 req.query&#45;o11</title>
<path fill="none" stroke="#000000" d="M428.3757,-855.7813C426.1544,-845.4585 425.4044,-832.7085 431.2895,-823 435.1418,-816.6451 440.5237,-811.3591 446.6001,-806.9761"/>
<polygon fill="#000000" stroke="#000000" points="448.6366,-809.83 455.2382,-801.5433 444.9098,-803.9045 448.6366,-809.83"/>
<text text-anchor="middle" x="452.7895" y="-826.8" font-family="Times,serif" font-size="14.00" fill="#000000">REF v3</text>
</g>
<!-- #68 CFG_F_START 33_anon -->
<g id="node5" class="node">
<title>#68 CFG_F_START 33_anon</title>
<ellipse fill="none" stroke="#ff0000" cx="220.2895" cy="-526" rx="117.7793" ry="18"/>
<text text-anchor="middle" x="220.2895" y="-522.3" font-family="Times,serif" font-size="14.00" fill="#ff0000">#68 CFG_F_START 33_anon</text>
</g>
<!-- #37 Variable (v4) &#45; (68) -->
<g id="node6" class="node">
<title>#37 Variable (v4) &#45; (68)</title>
<ellipse fill="none" stroke="#000000" cx="220.2895" cy="-439" rx="96.3833" ry="18"/>
<text text-anchor="middle" x="220.2895" y="-435.3" font-family="Times,serif" font-size="14.00" fill="#000000">#37 Variable (v4) &#45; (68)</text>
</g>
<!-- #68 CFG_F_START 33_anon&#45;&gt;#37 Variable (v4) &#45; (68) -->
<g id="edge3" class="edge">
<title>#68 CFG_F_START 33_anon&#45;&gt;#37 Variable (v4) &#45; (68)</title>
<path fill="none" stroke="#ff0000" d="M220.2895,-507.9735C220.2895,-496.1918 220.2895,-480.5607 220.2895,-467.1581"/>
<polygon fill="#ff0000" stroke="#ff0000" points="223.7896,-467.0033 220.2895,-457.0034 216.7896,-467.0034 223.7896,-467.0033"/>
</g>
<!-- #41 Variable (v5) &#45; (68) -->
<g id="node11" class="node">
<title>#41 Variable (v5) &#45; (68)</title>
<ellipse fill="none" stroke="#000000" cx="215.2895" cy="-265" rx="96.3833" ry="18"/>
<text text-anchor="middle" x="215.2895" y="-261.3" font-family="Times,serif" font-size="14.00" fill="#000000">#41 Variable (v5) &#45; (68)</text>
</g>
<!-- #37 Variable (v4) &#45; (68)&#45;&gt;#41 Variable (v5) &#45; (68) -->
<g id="edge9" class="edge">
<title>#37 Variable (v4) &#45; (68)&#45;&gt;#41 Variable (v5) &#45; (68)</title>
<path fill="none" stroke="#ff0000" d="M215.6051,-420.9916C212.2581,-407.1563 208.0483,-387.5134 206.2895,-370 203.6777,-343.9925 206.7838,-314.3123 210.0394,-293.1581"/>
<polygon fill="#ff0000" stroke="#ff0000" points="213.5037,-293.6609 211.6755,-283.225 206.5967,-292.5232 213.5037,-293.6609"/>
</g>
<!-- #88 res.send&#45;o19 -->
<g id="node12" class="node">
<title>#88 res.send&#45;o19</title>
<ellipse fill="none" stroke="#006400" cx="286.2895" cy="-352" rx="71.4873" ry="18"/>
<text text-anchor="middle" x="286.2895" y="-348.3" font-family="Times,serif" font-size="14.00" fill="#006400">#88 res.send&#45;o19</text>
</g>
<!-- #37 Variable (v4) &#45; (68)&#45;&gt;#88 res.send&#45;o19 -->
<g id="edge10" class="edge">
<title>#37 Variable (v4) &#45; (68)&#45;&gt;#88 res.send&#45;o19</title>
<path fill="none" stroke="#006400" d="M216.4017,-420.7818C215.1891,-410.4591 215.4391,-397.7091 221.2895,-388 224.9575,-381.9127 230.0573,-376.7781 235.8026,-372.4681"/>
<polygon fill="#006400" stroke="#006400" points="238.1319,-375.1272 244.5905,-366.7286 234.3041,-369.2665 238.1319,-375.1272"/>
<text text-anchor="middle" x="271.7895" y="-391.8" font-family="Times,serif" font-size="14.00" fill="#006400">CREATE res.send</text>
</g>
<!-- #37 Variable (v4) &#45; (68)&#45;&gt;#88 res.send&#45;o19 -->
<g id="edge11" class="edge">
<title>#37 Variable (v4) &#45; (68)&#45;&gt;#88 res.send&#45;o19</title>
<path fill="none" stroke="#000000" d="M278.6661,-424.6873C298.2394,-418.6221 316.5681,-411.0866 322.2895,-403 328.4239,-394.3296 324.5861,-384.8236 317.512,-376.3925"/>
<polygon fill="#000000" stroke="#000000" points="319.7897,-373.7154 310.2988,-369.0065 314.7817,-378.6062 319.7897,-373.7154"/>
<text text-anchor="middle" x="347.7895" y="-391.8" font-family="Times,serif" font-size="14.00" fill="#000000">REF v4</text>
</g>
<!-- #9 Variable (exec) &#45; (64) -->
<g id="node13" class="node">
<title>#9 Variable (exec) &#45; (64)</title>
<ellipse fill="none" stroke="#000000" cx="478.2895" cy="-1396" rx="98.5829" ry="18"/>
<text text-anchor="middle" x="478.2895" y="-1392.3" font-family="Times,serif" font-size="14.00" fill="#000000">#9 Variable (exec) &#45; (64)</text>
</g>
<!-- #5 Variable (v1) &#45; (64)&#45;&gt;#9 Variable (exec) &#45; (64) -->
<g id="edge12" class="edge">
<title>#5 Variable (v1) &#45; (64)&#45;&gt;#9 Variable (exec) &#45; (64)</title>
<path fill="none" stroke="#ff0000" d="M442.361,-1572.8772C444.0636,-1548.2365 448.0718,-1502.891 456.2895,-1465 459.2667,-1451.2724 463.8352,-1436.3855 468.0392,-1423.9655"/>
<polygon fill="#ff0000" stroke="#ff0000" points="471.459,-1424.7873 471.4418,-1414.1925 464.8482,-1422.4857 471.459,-1424.7873"/>
</g>
<!-- #71 v1&#45;o2 -->
<g id="node14" class="node">
<title>#71 v1&#45;o2</title>
<ellipse fill="none" stroke="#006400" cx="512.2895" cy="-1483" rx="46.5926" ry="18"/>
<text text-anchor="middle" x="512.2895" y="-1479.3" font-family="Times,serif" font-size="14.00" fill="#006400">#71 v1&#45;o2</text>
</g>
<!-- #5 Variable (v1) &#45; (64)&#45;&gt;#71 v1&#45;o2 -->
<g id="edge13" class="edge">
<title>#5 Variable (v1) &#45; (64)&#45;&gt;#71 v1&#45;o2</title>
<path fill="none" stroke="#006400" d="M453.3337,-1572.6793C464.7929,-1555.2483 482.1542,-1528.8396 495.0727,-1509.1889"/>
<polygon fill="#006400" stroke="#006400" points="498.0897,-1510.971 500.6584,-1500.6923 492.2405,-1507.1257 498.0897,-1510.971"/>
<text text-anchor="middle" x="523.2895" y="-1533.3" font-family="Times,serif" font-size="14.00" fill="#006400">CREATE v1</text>
</g>
<!-- #13 Variable (app) &#45; (64) -->
<g id="node15" class="node">
<title>#13 Variable (app) &#45; (64)</title>
<ellipse fill="none" stroke="#000000" cx="321.2895" cy="-1309" rx="100.1823" ry="18"/>
<text text-anchor="middle" x="321.2895" y="-1305.3" font-family="Times,serif" font-size="14.00" fill="#000000">#13 Variable (app) &#45; (64)</text>
</g>
<!-- #70 express&#45;o1&#45;&gt;#13 Variable (app) &#45; (64) -->
<g id="edge14" class="edge">
<title>#70 express&#45;o1&#45;&gt;#13 Variable (app) &#45; (64)</title>
<path fill="none" stroke="#006400" d="M321.2895,-1518.7272C321.2895,-1479.0232 321.2895,-1384.6466 321.2895,-1337.2228"/>
<polygon fill="#006400" stroke="#006400" points="324.7896,-1337.0433 321.2895,-1327.0433 317.7896,-1337.0434 324.7896,-1337.0433"/>
<text text-anchor="middle" x="369.7895" y="-1435.8" font-family="Times,serif" font-size="14.00" fill="#006400">CALLEE express</text>
</g>
<!-- #32 Variable (v6) &#45; (66) -->
<g id="node16" class="node">
<title>#32 Variable (v6) &#45; (66)</title>
<ellipse fill="none" stroke="#000000" cx="343.2895" cy="-613" rx="96.3833" ry="18"/>
<text text-anchor="middle" x="343.2895" y="-609.3" font-family="Times,serif" font-size="14.00" fill="#000000">#32 Variable (v6) &#45; (66)</text>
</g>
<!-- #28 Variable (folder) &#45; (66)&#45;&gt;#32 Variable (v6) &#45; (66) -->
<g id="edge15" class="edge">
<title>#28 Variable (folder) &#45; (66)&#45;&gt;#32 Variable (v6) &#45; (66)</title>
<path fill="none" stroke="#ff0000" d="M412.263,-681.9735C399.5807,-669.2912 382.4381,-652.1486 368.416,-638.1265"/>
<polygon fill="#ff0000" stroke="#ff0000" points="370.5412,-635.3019 360.9952,-630.7057 365.5914,-640.2517 370.5412,-635.3019"/>
</g>
<!-- #81 v3.folder&#45;o12 -->
<g id="node17" class="node">
<title>#81 v3.folder&#45;o12</title>
<ellipse fill="none" stroke="#006400" cx="532.2895" cy="-613" rx="74.9875" ry="18"/>
<text text-anchor="middle" x="532.2895" y="-609.3" font-family="Times,serif" font-size="14.00" fill="#006400">#81 v3.folder&#45;o12</text>
</g>
<!-- #28 Variable (folder) &#45; (66)&#45;&gt;#81 v3.folder&#45;o12 -->
<g id="edge16" class="edge">
<title>#28 Variable (folder) &#45; (66)&#45;&gt;#81 v3.folder&#45;o12</title>
<path fill="none" stroke="#006400" d="M464.9924,-682.9388C474.3413,-677.5409 484.119,-671.1067 492.2895,-664 500.5675,-656.7997 508.3422,-647.6863 514.7961,-639.1614"/>
<polygon fill="#006400" stroke="#006400" points="517.7336,-641.0729 520.7796,-630.9254 512.0703,-636.9586 517.7336,-641.0729"/>
<text text-anchor="middle" x="558.2895" y="-652.8" font-family="Times,serif" font-size="14.00" fill="#006400">CREATE v3.folder</text>
</g>
<!-- #28 Variable (folder) &#45; (66)&#45;&gt;#81 v3.folder&#45;o12 -->
<g id="edge17" class="edge">
<title>#28 Variable (folder) &#45; (66)&#45;&gt;#81 v3.folder&#45;o12</title>
<path fill="none" stroke="#000000" d="M423.9541,-681.9164C421.466,-671.3875 420.5876,-658.3826 427.2895,-649 432.7979,-641.2883 449.5727,-634.1883 468.1437,-628.3683"/>
<polygon fill="#000000" stroke="#000000" points="469.3821,-631.6515 477.9687,-625.445 467.3858,-624.9422 469.3821,-631.6515"/>
<text text-anchor="middle" x="457.7895" y="-652.8" font-family="Times,serif" font-size="14.00" fill="#000000">REF folder</text>
</g>
<!-- #80 req.query&#45;o11&#45;&gt;#28 Variable (folder) &#45; (66) -->
<g id="edge18" class="edge">
<title>#80 req.query&#45;o11&#45;&gt;#28 Variable (folder) &#45; (66)</title>
<path fill="none" stroke="#006400" d="M485.7855,-768.9735C475.8366,-756.6085 462.4763,-740.0036 451.3577,-726.1847"/>
<polygon fill="#006400" stroke="#006400" points="453.7707,-723.6005 444.775,-718.0034 448.3169,-727.9886 453.7707,-723.6005"/>
<text text-anchor="middle" x="515.7895" y="-739.8" font-family="Times,serif" font-size="14.00" fill="#006400">LOOKUP folder</text>
</g>
<!-- #45 ExpressionStatement (68) -->
<g id="node18" class="node">
<title>#45 ExpressionStatement (68)</title>
<ellipse fill="none" stroke="#000000" cx="218.2895" cy="-91" rx="118.0794" ry="18"/>
<text text-anchor="middle" x="218.2895" y="-87.3" font-family="Times,serif" font-size="14.00" fill="#000000">#45 ExpressionStatement (68)</text>
</g>
<!-- #41 Variable (v5) &#45; (68)&#45;&gt;#45 ExpressionStatement (68) -->
<g id="edge19" class="edge">
<title>#41 Variable (v5) &#45; (68)&#45;&gt;#45 ExpressionStatement (68)</title>
<path fill="none" stroke="#ff0000" d="M233.6331,-247.0697C237.9679,-241.7076 241.9939,-235.5091 244.2895,-229 259.3674,-186.2476 258.2372,-170.1344 244.2895,-127 243.2695,-123.8457 241.8587,-120.7353 240.217,-117.7432"/>
<polygon fill="#ff0000" stroke="#ff0000" points="243.091,-115.7406 234.7596,-109.1955 237.191,-119.5076 243.091,-115.7406"/>
</g>
<!-- #89 v5&#45;o20 -->
<g id="node19" class="node">
<title>#89 v5&#45;o20</title>
<ellipse fill="none" stroke="#006400" cx="176.2895" cy="-178" rx="51.1914" ry="18"/>
<text text-anchor="middle" x="176.2895" y="-174.3" font-family="Times,serif" font-size="14.00" fill="#006400">#89 v5&#45;o20</text>
</g>
<!-- #41 Variable (v5) &#45; (68)&#45;&gt;#89 v5&#45;o20 -->
<g id="edge20" class="edge">
<title>#41 Variable (v5) &#45; (68)&#45;&gt;#89 v5&#45;o20</title>
<path fill="none" stroke="#006400" d="M188.6543,-247.5215C182.8509,-242.3127 177.4931,-236.0761 174.2895,-229 171.1238,-222.0074 170.3295,-213.9076 170.6642,-206.2505"/>
<polygon fill="#006400" stroke="#006400" points="174.1532,-206.5369 171.7038,-196.2291 167.1905,-205.8145 174.1532,-206.5369"/>
<text text-anchor="middle" x="209.2895" y="-217.8" font-family="Times,serif" font-size="14.00" fill="#006400">CREATE v5</text>
</g>
<!-- #88 res.send&#45;o19&#45;&gt;#41 Variable (v5) &#45; (68) -->
<g id="edge21" class="edge">
<title>#88 res.send&#45;o19&#45;&gt;#41 Variable (v5) &#45; (68)</title>
<path fill="none" stroke="#006400" d="M271.5783,-333.9735C261.3921,-321.4919 247.6801,-304.6899 236.3401,-290.7944"/>
<polygon fill="#006400" stroke="#006400" points="239.0162,-288.5379 229.9819,-283.0034 233.593,-292.9638 239.0162,-288.5379"/>
<text text-anchor="middle" x="290.2895" y="-304.8" font-family="Times,serif" font-size="14.00" fill="#006400">CALLEE v4</text>
</g>
<!-- #9 Variable (exec) &#45; (64)&#45;&gt;#13 Variable (app) &#45; (64) -->
<g id="edge22" class="edge">
<title>#9 Variable (exec) &#45; (64)&#45;&gt;#13 Variable (app) &#45; (64)</title>
<path fill="none" stroke="#ff0000" d="M447.2714,-1378.8116C422.6501,-1365.1679 388.0465,-1345.9927 361.3335,-1331.19"/>
<polygon fill="#ff0000" stroke="#ff0000" points="362.6865,-1327.9383 352.2432,-1326.1527 359.2936,-1334.0611 362.6865,-1327.9383"/>
</g>
<!-- #72 v1.exec&#45;o3 -->
<g id="node20" class="node">
<title>#72 v1.exec&#45;o3</title>
<ellipse fill="none" stroke="#006400" cx="600.2895" cy="-1309" rx="65.7887" ry="18"/>
<text text-anchor="middle" x="600.2895" y="-1305.3" font-family="Times,serif" font-size="14.00" fill="#006400">#72 v1.exec&#45;o3</text>
</g>
<!-- #9 Variable (exec) &#45; (64)&#45;&gt;#72 v1.exec&#45;o3 -->
<g id="edge23" class="edge">
<title>#9 Variable (exec) &#45; (64)&#45;&gt;#72 v1.exec&#45;o3</title>
<path fill="none" stroke="#006400" d="M473.7103,-1377.7552C472.1677,-1367.1692 472.3166,-1354.1608 479.2895,-1345 486.7017,-1335.2621 510.6733,-1327.1694 535.3462,-1321.1396"/>
<polygon fill="#006400" stroke="#006400" points="536.2278,-1324.528 545.1716,-1318.8484 534.638,-1317.7109 536.2278,-1324.528"/>
<text text-anchor="middle" x="528.7895" y="-1348.8" font-family="Times,serif" font-size="14.00" fill="#006400">CREATE v1.exec</text>
</g>
<!-- #9 Variable (exec) &#45; (64)&#45;&gt;#72 v1.exec&#45;o3 -->
<g id="edge24" class="edge">
<title>#9 Variable (exec) &#45; (64)&#45;&gt;#72 v1.exec&#45;o3</title>
<path fill="none" stroke="#000000" d="M541.4081,-1382.0854C554.7665,-1376.8663 567.9379,-1369.7319 578.2895,-1360 584.955,-1353.7335 589.7017,-1345.1071 593.0362,-1336.7306"/>
<polygon fill="#000000" stroke="#000000" points="596.3823,-1337.7632 596.3324,-1327.1685 589.7645,-1335.4819 596.3823,-1337.7632"/>
<text text-anchor="middle" x="615.2895" y="-1348.8" font-family="Times,serif" font-size="14.00" fill="#000000">REF exec</text>
</g>
<!-- #71 v1&#45;o2&#45;&gt;#9 Variable (exec) &#45; (64) -->
<g id="edge25" class="edge">
<title>#71 v1&#45;o2&#45;&gt;#9 Variable (exec) &#45; (64)</title>
<path fill="none" stroke="#006400" d="M505.2447,-1464.9735C500.5491,-1452.9585 494.2891,-1436.9401 488.9837,-1423.3646"/>
<polygon fill="#006400" stroke="#006400" points="492.2252,-1422.0434 485.3253,-1414.0034 485.7054,-1424.5914 492.2252,-1422.0434"/>
<text text-anchor="middle" x="539.2895" y="-1435.8" font-family="Times,serif" font-size="14.00" fill="#006400">LOOKUP exec</text>
</g>
<!-- #16 Variable (v2) &#45; (64) -->
<g id="node21" class="node">
<title>#16 Variable (v2) &#45; (64)</title>
<ellipse fill="none" stroke="#000000" cx="230.2895" cy="-1135" rx="96.3833" ry="18"/>
<text text-anchor="middle" x="230.2895" y="-1131.3" font-family="Times,serif" font-size="14.00" fill="#000000">#16 Variable (v2) &#45; (64)</text>
</g>
<!-- #13 Variable (app) &#45; (64)&#45;&gt;#16 Variable (v2) &#45; (64) -->
<g id="edge26" class="edge">
<title>#13 Variable (app) &#45; (64)&#45;&gt;#16 Variable (v2) &#45; (64)</title>
<path fill="none" stroke="#ff0000" d="M324.6764,-1290.9666C328.9485,-1262.6155 332.9368,-1207.1325 307.2895,-1171 302.944,-1164.8779 297.2846,-1159.7673 291.0052,-1155.508"/>
<polygon fill="#ff0000" stroke="#ff0000" points="292.5048,-1152.3273 282.1232,-1150.2124 288.9201,-1158.3397 292.5048,-1152.3273"/>
</g>
<!-- #73 app&#45;o4 -->
<g id="node22" class="node">
<title>#73 app&#45;o4</title>
<ellipse fill="none" stroke="#006400" cx="230.2895" cy="-1222" rx="50.8918" ry="18"/>
<text text-anchor="middle" x="230.2895" y="-1218.3" font-family="Times,serif" font-size="14.00" fill="#006400">#73 app&#45;o4</text>
</g>
<!-- #13 Variable (app) &#45; (64)&#45;&gt;#73 app&#45;o4 -->
<g id="edge27" class="edge">
<title>#13 Variable (app) &#45; (64)&#45;&gt;#73 app&#45;o4</title>
<path fill="none" stroke="#006400" d="M258.4068,-1294.948C247.7539,-1289.7717 237.989,-1282.6895 231.2895,-1273 226.737,-1266.4157 225.2747,-1258.1229 225.2879,-1250.1489"/>
<polygon fill="#006400" stroke="#006400" points="228.7899,-1250.2467 226.0195,-1240.0205 221.8081,-1249.7423 228.7899,-1250.2467"/>
<text text-anchor="middle" x="269.2895" y="-1261.8" font-family="Times,serif" font-size="14.00" fill="#006400">CREATE app</text>
</g>
<!-- #32 Variable (v6) &#45; (66)&#45;&gt;#68 CFG_F_START 33_anon -->
<g id="edge28" class="edge">
<title>#32 Variable (v6) &#45; (66)&#45;&gt;#68 CFG_F_START 33_anon</title>
<path fill="none" stroke="#000000" d="M318.3986,-595.3943C299.849,-582.2738 274.3132,-564.2119 253.9436,-549.8041"/>
<polygon fill="#000000" stroke="#000000" points="255.7509,-546.7954 245.5655,-543.8782 251.7086,-552.5103 255.7509,-546.7954"/>
<text text-anchor="middle" x="298.2895" y="-565.8" font-family="Times,serif" font-size="14.00" fill="#000000">FD</text>
</g>
<!-- #48 Variable (v7) &#45; (66) -->
<g id="node23" class="node">
<title>#48 Variable (v7) &#45; (66)</title>
<ellipse fill="none" stroke="#000000" cx="509.2895" cy="-439" rx="96.3833" ry="18"/>
<text text-anchor="middle" x="509.2895" y="-435.3" font-family="Times,serif" font-size="14.00" fill="#000000">#48 Variable (v7) &#45; (66)</text>
</g>
<!-- #32 Variable (v6) &#45; (66)&#45;&gt;#48 Variable (v7) &#45; (66) -->
<g id="edge29" class="edge">
<title>#32 Variable (v6) &#45; (66)&#45;&gt;#48 Variable (v7) &#45; (66)</title>
<path fill="none" stroke="#ff0000" d="M412.1349,-600.3667C427.0254,-595.0856 441.7463,-587.6021 453.2895,-577 484.9731,-547.8995 499.1274,-498.3328 505.1546,-467.1956"/>
<polygon fill="#ff0000" stroke="#ff0000" points="508.6601,-467.4724 506.9629,-457.0144 501.768,-466.2482 508.6601,-467.4724"/>
</g>
<!-- #82 v6&#45;o13 -->
<g id="node24" class="node">
<title>#82 v6&#45;o13</title>
<ellipse fill="none" stroke="#006400" cx="407.2895" cy="-526" rx="51.1914" ry="18"/>
<text text-anchor="middle" x="407.2895" y="-522.3" font-family="Times,serif" font-size="14.00" fill="#006400">#82 v6&#45;o13</text>
</g>
<!-- #32 Variable (v6) &#45; (66)&#45;&gt;#82 v6&#45;o13 -->
<g id="edge30" class="edge">
<title>#32 Variable (v6) &#45; (66)&#45;&gt;#82 v6&#45;o13</title>
<path fill="none" stroke="#006400" d="M356.5503,-594.9735C365.7071,-582.5261 378.0246,-565.782 388.2302,-551.9087"/>
<polygon fill="#006400" stroke="#006400" points="391.1582,-553.8349 394.2646,-543.7057 385.5196,-549.6869 391.1582,-553.8349"/>
<text text-anchor="middle" x="414.2895" y="-565.8" font-family="Times,serif" font-size="14.00" fill="#006400">CREATE v6</text>
</g>
<!-- #81 v3.folder&#45;o12&#45;&gt;#48 Variable (v7) &#45; (66) -->
<g id="edge31" class="edge">
<title>#81 v3.folder&#45;o12&#45;&gt;#48 Variable (v7) &#45; (66)</title>
<path fill="none" stroke="#006400" d="M529.8716,-594.7078C525.8579,-564.3436 517.7919,-503.3226 513.0364,-467.3464"/>
<polygon fill="#006400" stroke="#006400" points="516.4554,-466.5022 511.675,-457.0471 509.5157,-467.4195 516.4554,-466.5022"/>
<text text-anchor="middle" x="554.7895" y="-522.3" font-family="Times,serif" font-size="14.00" fill="#006400">VAR folder</text>
</g>
<!-- #69 CFG_F_END 33_anon -->
<g id="node25" class="node">
<title>#69 CFG_F_END 33_anon</title>
<ellipse fill="none" stroke="#ff0000" cx="218.2895" cy="-18" rx="107.781" ry="18"/>
<text text-anchor="middle" x="218.2895" y="-14.3" font-family="Times,serif" font-size="14.00" fill="#ff0000">#69 CFG_F_END 33_anon</text>
</g>
<!-- #45 ExpressionStatement (68)&#45;&gt;#69 CFG_F_END 33_anon -->
<g id="edge32" class="edge">
<title>#45 ExpressionStatement (68)&#45;&gt;#69 CFG_F_END 33_anon</title>
<path fill="none" stroke="#ff0000" d="M218.2895,-72.9551C218.2895,-64.8828 218.2895,-55.1764 218.2895,-46.1817"/>
<polygon fill="#ff0000" stroke="#ff0000" points="221.7896,-46.0903 218.2895,-36.0904 214.7896,-46.0904 221.7896,-46.0903"/>
</g>
<!-- #89 v5&#45;o20&#45;&gt;#45 ExpressionStatement (68) -->
<g id="edge33" class="edge">
<title>#89 v5&#45;o20&#45;&gt;#45 ExpressionStatement (68)</title>
<path fill="none" stroke="#006400" d="M183.5951,-159.8627C187.6849,-150.03 193.0114,-137.7292 198.2895,-127 199.7413,-124.0489 201.3171,-120.996 202.9254,-117.9731"/>
<polygon fill="#006400" stroke="#006400" points="206.0354,-119.5807 207.7568,-109.1267 199.8919,-116.2255 206.0354,-119.5807"/>
<text text-anchor="middle" x="221.2895" y="-130.8" font-family="Times,serif" font-size="14.00" fill="#006400">VAR v5</text>
</g>
<!-- #72 v1.exec&#45;o3&#45;&gt;#48 Variable (v7) &#45; (66) -->
<g id="edge34" class="edge">
<title>#72 v1.exec&#45;o3&#45;&gt;#48 Variable (v7) &#45; (66)</title>
<path fill="none" stroke="#006400" d="M612.1389,-1291.1719C622.2927,-1274.1484 635.2895,-1247.3978 635.2895,-1222 635.2895,-1222 635.2895,-1222 635.2895,-526 635.2895,-492.6343 605.0004,-471.0728 574.1234,-457.7612"/>
<polygon fill="#006400" stroke="#006400" points="575.1377,-454.396 564.5549,-453.8909 572.5129,-460.8853 575.1377,-454.396"/>
<text text-anchor="middle" x="675.7895" y="-870.3" font-family="Times,serif" font-size="14.00" fill="#006400">CALLEE exec</text>
</g>
<!-- #20 Variable (v8) &#45; (64) -->
<g id="node26" class="node">
<title>#20 Variable (v8) &#45; (64)</title>
<ellipse fill="none" stroke="#000000" cx="288.2895" cy="-1048" rx="96.3833" ry="18"/>
<text text-anchor="middle" x="288.2895" y="-1044.3" font-family="Times,serif" font-size="14.00" fill="#000000">#20 Variable (v8) &#45; (64)</text>
</g>
<!-- #16 Variable (v2) &#45; (64)&#45;&gt;#20 Variable (v8) &#45; (64) -->
<g id="edge35" class="edge">
<title>#16 Variable (v2) &#45; (64)&#45;&gt;#20 Variable (v8) &#45; (64)</title>
<path fill="none" stroke="#ff0000" d="M257.0664,-1117.4974C263.4796,-1112.2161 269.7704,-1105.9508 274.2895,-1099 278.7438,-1092.149 281.793,-1083.8974 283.8759,-1076.0472"/>
<polygon fill="#ff0000" stroke="#ff0000" points="287.3313,-1076.6325 286.0941,-1066.1101 280.4994,-1075.1074 287.3313,-1076.6325"/>
</g>
<!-- #74 app.get&#45;o5 -->
<g id="node27" class="node">
<title>#74 app.get&#45;o5</title>
<ellipse fill="none" stroke="#006400" cx="110.2895" cy="-1048" rx="63.8893" ry="18"/>
<text text-anchor="middle" x="110.2895" y="-1044.3" font-family="Times,serif" font-size="14.00" fill="#006400">#74 app.get&#45;o5</text>
</g>
<!-- #16 Variable (v2) &#45; (64)&#45;&gt;#74 app.get&#45;o5 -->
<g id="edge36" class="edge">
<title>#16 Variable (v2) &#45; (64)&#45;&gt;#74 app.get&#45;o5</title>
<path fill="none" stroke="#006400" d="M201.4436,-1117.6972C192.2919,-1111.9661 182.2315,-1105.4097 173.2895,-1099 169.6465,-1096.3887 154.0254,-1083.7446 139.2511,-1071.7007"/>
<polygon fill="#006400" stroke="#006400" points="141.1719,-1068.7507 131.2116,-1065.139 136.7456,-1074.1737 141.1719,-1068.7507"/>
<text text-anchor="middle" x="221.7895" y="-1087.8" font-family="Times,serif" font-size="14.00" fill="#006400">CREATE app.get</text>
</g>
<!-- #16 Variable (v2) &#45; (64)&#45;&gt;#74 app.get&#45;o5 -->
<g id="edge37" class="edge">
<title>#16 Variable (v2) &#45; (64)&#45;&gt;#74 app.get&#45;o5</title>
<path fill="none" stroke="#000000" d="M161.9348,-1122.3099C138.0475,-1116.3777 115.3965,-1108.5071 108.2895,-1099 103.4939,-1092.5849 102.3342,-1084.3417 102.8406,-1076.3612"/>
<polygon fill="#000000" stroke="#000000" points="106.3431,-1076.5933 104.3005,-1066.1972 99.4143,-1075.598 106.3431,-1076.5933"/>
<text text-anchor="middle" x="129.7895" y="-1087.8" font-family="Times,serif" font-size="14.00" fill="#000000">REF v2</text>
</g>
<!-- #73 app&#45;o4&#45;&gt;#16 Variable (v2) &#45; (64) -->
<g id="edge38" class="edge">
<title>#73 app&#45;o4&#45;&gt;#16 Variable (v2) &#45; (64)</title>
<path fill="none" stroke="#006400" d="M230.2895,-1203.9735C230.2895,-1192.1918 230.2895,-1176.5607 230.2895,-1163.1581"/>
<polygon fill="#006400" stroke="#006400" points="233.7896,-1163.0033 230.2895,-1153.0034 226.7896,-1163.0034 233.7896,-1163.0033"/>
<text text-anchor="middle" x="268.2895" y="-1174.8" font-family="Times,serif" font-size="14.00" fill="#006400">LOOKUP get</text>
</g>
<!-- #54 ExpressionStatement (66) -->
<g id="node28" class="node">
<title>#54 ExpressionStatement (66)</title>
<ellipse fill="none" stroke="#000000" cx="487.2895" cy="-265" rx="118.0794" ry="18"/>
<text text-anchor="middle" x="487.2895" y="-261.3" font-family="Times,serif" font-size="14.00" fill="#000000">#54 ExpressionStatement (66)</text>
</g>
<!-- #48 Variable (v7) &#45; (66)&#45;&gt;#54 ExpressionStatement (66) -->
<g id="edge39" class="edge">
<title>#48 Variable (v7) &#45; (66)&#45;&gt;#54 ExpressionStatement (66)</title>
<path fill="none" stroke="#ff0000" d="M520.357,-420.9406C523.1909,-415.3873 525.8446,-409.1207 527.2895,-403 533.2422,-377.7839 557.0044,-372.4592 525.2895,-301 523.6363,-297.2751 521.3963,-293.7506 518.8258,-290.4705"/>
<polygon fill="#ff0000" stroke="#ff0000" points="521.2152,-287.8954 511.9012,-282.8456 516.0332,-292.6015 521.2152,-287.8954"/>
</g>
<!-- #87 v7&#45;o18 -->
<g id="node29" class="node">
<title>#87 v7&#45;o18</title>
<ellipse fill="none" stroke="#006400" cx="459.2895" cy="-352" rx="51.1914" ry="18"/>
<text text-anchor="middle" x="459.2895" y="-348.3" font-family="Times,serif" font-size="14.00" fill="#006400">#87 v7&#45;o18</text>
</g>
<!-- #48 Variable (v7) &#45; (66)&#45;&gt;#87 v7&#45;o18 -->
<g id="edge40" class="edge">
<title>#48 Variable (v7) &#45; (66)&#45;&gt;#87 v7&#45;o18</title>
<path fill="none" stroke="#006400" d="M474.8626,-422.1881C467.8084,-417.0531 461.3153,-410.6835 457.2895,-403 453.6706,-396.093 452.776,-387.9082 453.1604,-380.1402"/>
<polygon fill="#006400" stroke="#006400" points="456.665,-380.302 454.3416,-369.9651 449.7117,-379.4948 456.665,-380.302"/>
<text text-anchor="middle" x="492.2895" y="-391.8" font-family="Times,serif" font-size="14.00" fill="#006400">CREATE v7</text>
</g>
<!-- #82 v6&#45;o13&#45;&gt;#48 Variable (v7) &#45; (66) -->
<g id="edge41" class="edge">
<title>#82 v6&#45;o13&#45;&gt;#48 Variable (v7) &#45; (66)</title>
<path fill="none" stroke="#006400" d="M410.4229,-507.5737C413.068,-496.9234 417.8355,-483.9111 426.2895,-475 432.4159,-468.5424 439.8974,-463.1796 447.8338,-458.7435"/>
<polygon fill="#006400" stroke="#006400" points="449.6079,-461.768 456.9395,-454.1196 446.4385,-455.5266 449.6079,-461.768"/>
<text text-anchor="middle" x="449.2895" y="-478.8" font-family="Times,serif" font-size="14.00" fill="#006400">VAR v6</text>
</g>
<!-- #20 Variable (v8) &#45; (64)&#45;&gt;#66 CFG_F_START 21_anon -->
<g id="edge42" class="edge">
<title>#20 Variable (v8) &#45; (64)&#45;&gt;#66 CFG_F_START 21_anon</title>
<path fill="none" stroke="#000000" d="M317.1344,-1030.8116C339.7826,-1017.3157 371.5137,-998.4075 396.2413,-983.6726"/>
<polygon fill="#000000" stroke="#000000" points="398.206,-986.5762 405.0048,-978.4505 394.6227,-980.5628 398.206,-986.5762"/>
<text text-anchor="middle" x="379.2895" y="-1000.8" font-family="Times,serif" font-size="14.00" fill="#000000">FD</text>
</g>
<!-- #57 Variable (v9) &#45; (64) -->
<g id="node30" class="node">
<title>#57 Variable (v9) &#45; (64)</title>
<ellipse fill="none" stroke="#000000" cx="203.2895" cy="-874" rx="96.3833" ry="18"/>
<text text-anchor="middle" x="203.2895" y="-870.3" font-family="Times,serif" font-size="14.00" fill="#000000">#57 Variable (v9) &#45; (64)</text>
</g>
<!-- #20 Variable (v8) &#45; (64)&#45;&gt;#57 Variable (v9) &#45; (64) -->
<g id="edge43" class="edge">
<title>#20 Variable (v8) &#45; (64)&#45;&gt;#57 Variable (v9) &#45; (64)</title>
<path fill="none" stroke="#ff0000" d="M288.5744,-1029.6284C288.1154,-1001.3085 283.5643,-946.4543 257.2895,-910 253.8287,-905.1984 249.5144,-900.8515 244.8426,-896.9748"/>
<polygon fill="#ff0000" stroke="#ff0000" points="246.8322,-894.0921 236.7305,-890.8975 242.6352,-899.6944 246.8322,-894.0921"/>
</g>
<!-- #75 v8&#45;o6 -->
<g id="node31" class="node">
<title>#75 v8&#45;o6</title>
<ellipse fill="none" stroke="#006400" cx="210.2895" cy="-961" rx="46.5926" ry="18"/>
<text text-anchor="middle" x="210.2895" y="-957.3" font-family="Times,serif" font-size="14.00" fill="#006400">#75 v8&#45;o6</text>
</g>
<!-- #20 Variable (v8) &#45; (64)&#45;&gt;#75 v8&#45;o6 -->
<g id="edge44" class="edge">
<title>#20 Variable (v8) &#45; (64)&#45;&gt;#75 v8&#45;o6</title>
<path fill="none" stroke="#006400" d="M229.8048,-1033.5053C219.7135,-1028.3615 210.4908,-1021.4045 204.2895,-1012 199.8035,-1005.1968 199.2859,-996.7499 200.4748,-988.7005"/>
<polygon fill="#006400" stroke="#006400" points="203.9053,-989.3993 202.7231,-978.8707 197.0815,-987.8385 203.9053,-989.3993"/>
<text text-anchor="middle" x="239.2895" y="-1000.8" font-family="Times,serif" font-size="14.00" fill="#006400">CREATE v8</text>
</g>
<!-- #74 app.get&#45;o5&#45;&gt;#57 Variable (v9) &#45; (64) -->
<g id="edge45" class="edge">
<title>#74 app.get&#45;o5&#45;&gt;#57 Variable (v9) &#45; (64)</title>
<path fill="none" stroke="#006400" d="M98.2919,-1030.1629C85.2448,-1008.3272 68.2587,-970.8259 84.2895,-943 97.3869,-920.2659 121.1592,-904.3368 144.032,-893.5588"/>
<polygon fill="#006400" stroke="#006400" points="145.6881,-896.6529 153.4045,-889.3929 142.8449,-890.2563 145.6881,-896.6529"/>
<text text-anchor="middle" x="119.2895" y="-957.3" font-family="Times,serif" font-size="14.00" fill="#006400">CALLEE v2</text>
</g>
<!-- #67 CFG_F_END 21_anon -->
<g id="node32" class="node">
<title>#67 CFG_F_END 21_anon</title>
<ellipse fill="none" stroke="#ff0000" cx="487.2895" cy="-178" rx="107.781" ry="18"/>
<text text-anchor="middle" x="487.2895" y="-174.3" font-family="Times,serif" font-size="14.00" fill="#ff0000">#67 CFG_F_END 21_anon</text>
</g>
<!-- #54 ExpressionStatement (66)&#45;&gt;#67 CFG_F_END 21_anon -->
<g id="edge46" class="edge">
<title>#54 ExpressionStatement (66)&#45;&gt;#67 CFG_F_END 21_anon</title>
<path fill="none" stroke="#ff0000" d="M487.2895,-246.9735C487.2895,-235.1918 487.2895,-219.5607 487.2895,-206.1581"/>
<polygon fill="#ff0000" stroke="#ff0000" points="490.7896,-206.0033 487.2895,-196.0034 483.7896,-206.0034 490.7896,-206.0033"/>
</g>
<!-- #87 v7&#45;o18&#45;&gt;#54 ExpressionStatement (66) -->
<g id="edge47" class="edge">
<title>#87 v7&#45;o18&#45;&gt;#54 ExpressionStatement (66)</title>
<path fill="none" stroke="#006400" d="M465.0911,-333.9735C468.9205,-322.0751 474.0134,-306.2508 478.355,-292.7606"/>
<polygon fill="#006400" stroke="#006400" points="481.7633,-293.5948 481.4953,-283.0034 475.0999,-291.4502 481.7633,-293.5948"/>
<text text-anchor="middle" x="498.2895" y="-304.8" font-family="Times,serif" font-size="14.00" fill="#006400">VAR v7</text>
</g>
<!-- #62 ExpressionStatement (64) -->
<g id="node33" class="node">
<title>#62 ExpressionStatement (64)</title>
<ellipse fill="none" stroke="#000000" cx="118.2895" cy="-700" rx="118.0794" ry="18"/>
<text text-anchor="middle" x="118.2895" y="-696.3" font-family="Times,serif" font-size="14.00" fill="#000000">#62 ExpressionStatement (64)</text>
</g>
<!-- #57 Variable (v9) &#45; (64)&#45;&gt;#62 ExpressionStatement (64) -->
<g id="edge48" class="edge">
<title>#57 Variable (v9) &#45; (64)&#45;&gt;#62 ExpressionStatement (64)</title>
<path fill="none" stroke="#ff0000" d="M202.7903,-855.7127C201.1737,-827.5057 194.5894,-772.8 168.2895,-736 165.1021,-731.54 161.1869,-727.4229 156.9632,-723.6902"/>
<polygon fill="#ff0000" stroke="#ff0000" points="159.1079,-720.9236 149.1178,-717.3954 154.7272,-726.3835 159.1079,-720.9236"/>
</g>
<!-- #79 v9&#45;o10 -->
<g id="node34" class="node">
<title>#79 v9&#45;o10</title>
<ellipse fill="none" stroke="#006400" cx="118.2895" cy="-787" rx="51.1914" ry="18"/>
<text text-anchor="middle" x="118.2895" y="-783.3" font-family="Times,serif" font-size="14.00" fill="#006400">#79 v9&#45;o10</text>
</g>
<!-- #57 Variable (v9) &#45; (64)&#45;&gt;#79 v9&#45;o10 -->
<g id="edge49" class="edge">
<title>#57 Variable (v9) &#45; (64)&#45;&gt;#79 v9&#45;o10</title>
<path fill="none" stroke="#006400" d="M145.3761,-859.6253C135.1079,-854.4677 125.6713,-847.4748 119.2895,-838 114.8176,-831.3607 113.379,-823.0517 113.3891,-815.0798"/>
<polygon fill="#006400" stroke="#006400" points="116.8903,-815.1848 114.1037,-804.963 109.9077,-814.6915 116.8903,-815.1848"/>
<text text-anchor="middle" x="154.2895" y="-826.8" font-family="Times,serif" font-size="14.00" fill="#006400">CREATE v9</text>
</g>
<!-- #75 v8&#45;o6&#45;&gt;#57 Variable (v9) &#45; (64) -->
<g id="edge50" class="edge">
<title>#75 v8&#45;o6&#45;&gt;#57 Variable (v9) &#45; (64)</title>
<path fill="none" stroke="#006400" d="M208.8391,-942.9735C207.8911,-931.1918 206.6335,-915.5607 205.5551,-902.1581"/>
<polygon fill="#006400" stroke="#006400" points="209.0289,-901.6904 204.7381,-892.0034 202.0514,-902.2519 209.0289,-901.6904"/>
<text text-anchor="middle" x="230.2895" y="-913.8" font-family="Times,serif" font-size="14.00" fill="#006400">VAR v8</text>
</g>
<!-- #65 CFG_F_END __main__ -->
<g id="node35" class="node">
<title>#65 CFG_F_END __main__</title>
<ellipse fill="none" stroke="#ff0000" cx="116.2895" cy="-613" rx="113.18" ry="18"/>
<text text-anchor="middle" x="116.2895" y="-609.3" font-family="Times,serif" font-size="14.00" fill="#ff0000">#65 CFG_F_END __main__</text>
</g>
<!-- #62 ExpressionStatement (64)&#45;&gt;#65 CFG_F_END __main__ -->
<g id="edge51" class="edge">
<title>#62 ExpressionStatement (64)&#45;&gt;#65 CFG_F_END __main__</title>
<path fill="none" stroke="#ff0000" d="M117.8751,-681.9735C117.6043,-670.1918 117.2449,-654.5607 116.9368,-641.1581"/>
<polygon fill="#ff0000" stroke="#ff0000" points="120.4324,-640.9202 116.7034,-631.0034 113.4342,-641.0812 120.4324,-640.9202"/>
</g>
<!-- #79 v9&#45;o10&#45;&gt;#62 ExpressionStatement (64) -->
<g id="edge52" class="edge">
<title>#79 v9&#45;o10&#45;&gt;#62 ExpressionStatement (64)</title>
<path fill="none" stroke="#006400" d="M118.2895,-768.9735C118.2895,-757.1918 118.2895,-741.5607 118.2895,-728.1581"/>
<polygon fill="#006400" stroke="#006400" points="121.7896,-728.0033 118.2895,-718.0034 114.7896,-728.0034 121.7896,-728.0033"/>
<text text-anchor="middle" x="141.2895" y="-739.8" font-family="Times,serif" font-size="14.00" fill="#006400">VAR v9</text>
</g>
</g>
</svg>
