<?xml version="1.0" encoding="UTF-8" standalone="no"?>
<!DOCTYPE svg PUBLIC "-//W3C//DTD SVG 1.1//EN"
 "http://www.w3.org/Graphics/SVG/1.1/DTD/svg11.dtd">
<!-- Generated by graphviz version 2.40.1 (20161225.0304)
 -->
<!-- Title: G Pages: 1 -->
<svg width="1261pt" height="761pt"
 viewBox="0.00 0.00 1260.58 761.00" xmlns="http://www.w3.org/2000/svg" xmlns:xlink="http://www.w3.org/1999/xlink">
<g id="graph0" class="graph" transform="scale(1 1) rotate(0) translate(4 757)">
<title>G</title>
<polygon fill="#ffffff" stroke="transparent" points="-4,4 -4,-757 1256.5848,-757 1256.5848,4 -4,4"/>
<!-- #0 Program -->
<g id="node1" class="node">
<title>#0 Program</title>
<ellipse fill="none" stroke="#000000" cx="573.2416" cy="-735" rx="52.7911" ry="18"/>
<text text-anchor="middle" x="573.2416" y="-731.3" font-family="Times,serif" font-size="14.00" fill="#000000">#0 Program</text>
</g>
<!-- #1 Variable (f) -->
<g id="node2" class="node">
<title>#1 Variable (f)</title>
<ellipse fill="none" stroke="#000000" cx="708.2416" cy="-648" rx="63.8893" ry="18"/>
<text text-anchor="middle" x="708.2416" y="-644.3" font-family="Times,serif" font-size="14.00" fill="#000000">#1 Variable (f)</text>
</g>
<!-- #0 Program&#45;&gt;#1 Variable (f) -->
<g id="edge1" class="edge">
<title>#0 Program&#45;&gt;#1 Variable (f)</title>
<path fill="none" stroke="#0000ff" d="M598.0027,-719.0429C619.1967,-705.3845 649.9404,-685.5719 673.5798,-670.3376"/>
<polygon fill="#0000ff" stroke="#0000ff" points="675.7475,-673.1046 682.2572,-664.7455 671.9555,-667.2206 675.7475,-673.1046"/>
<text text-anchor="middle" x="652.7416" y="-687.8" font-family="Times,serif" font-size="14.00" fill="#0000ff">1</text>
</g>
<!-- #12 ExpressionStatement -->
<g id="node3" class="node">
<title>#12 ExpressionStatement</title>
<ellipse fill="none" stroke="#000000" cx="573.2416" cy="-561" rx="100.9827" ry="18"/>
<text text-anchor="middle" x="573.2416" y="-557.3" font-family="Times,serif" font-size="14.00" fill="#000000">#12 ExpressionStatement</text>
</g>
<!-- #0 Program&#45;&gt;#12 ExpressionStatement -->
<g id="edge2" class="edge">
<title>#0 Program&#45;&gt;#12 ExpressionStatement</title>
<path fill="none" stroke="#0000ff" d="M573.2416,-716.7078C573.2416,-686.3436 573.2416,-625.3226 573.2416,-589.3464"/>
<polygon fill="#0000ff" stroke="#0000ff" points="576.7417,-589.0471 573.2416,-579.0471 569.7417,-589.0471 576.7417,-589.0471"/>
<text text-anchor="middle" x="576.7416" y="-644.3" font-family="Times,serif" font-size="14.00" fill="#0000ff">2</text>
</g>
<!-- #1 Variable (f)&#45;&gt;#12 ExpressionStatement -->
<g id="edge7" class="edge">
<title>#1 Variable (f)&#45;&gt;#12 ExpressionStatement</title>
<path fill="none" stroke="#ff0000" d="M682.5314,-631.4312C661.638,-617.9665 631.9378,-598.8264 608.771,-583.8967"/>
<polygon fill="#ff0000" stroke="#ff0000" points="610.5457,-580.8766 600.244,-578.4015 606.7538,-586.7606 610.5457,-580.8766"/>
</g>
<!-- #20 CFG_F_START 2_anon -->
<g id="node5" class="node">
<title>#20 CFG_F_START 2_anon</title>
<ellipse fill="none" stroke="#ff0000" cx="708.2416" cy="-507" rx="113.18" ry="18"/>
<text text-anchor="middle" x="708.2416" y="-503.3" font-family="Times,serif" font-size="14.00" fill="#ff0000">#20 CFG_F_START 2_anon</text>
</g>
<!-- #1 Variable (f)&#45;&gt;#20 CFG_F_START 2_anon -->
<g id="edge6" class="edge">
<title>#1 Variable (f)&#45;&gt;#20 CFG_F_START 2_anon</title>
<path fill="none" stroke="#000000" d="M708.2416,-629.8554C708.2416,-605.8485 708.2416,-563.2861 708.2416,-535.1035"/>
<polygon fill="#000000" stroke="#000000" points="711.7417,-535.075 708.2416,-525.075 704.7417,-535.075 711.7417,-535.075"/>
<text text-anchor="middle" x="717.2416" y="-600.8" font-family="Times,serif" font-size="14.00" fill="#000000">FD</text>
</g>
<!-- #2 Function (anon) -->
<g id="node7" class="node">
<title>#2 Function (anon)</title>
<ellipse fill="none" stroke="#000000" cx="873.2416" cy="-561" rx="78.7863" ry="18"/>
<text text-anchor="middle" x="873.2416" y="-557.3" font-family="Times,serif" font-size="14.00" fill="#000000">#2 Function (anon)</text>
</g>
<!-- #1 Variable (f)&#45;&gt;#2 Function (anon) -->
<g id="edge5" class="edge">
<title>#1 Variable (f)&#45;&gt;#2 Function (anon)</title>
<path fill="none" stroke="#0000ff" d="M738.5052,-632.0429C764.9494,-618.0995 803.5575,-597.7425 832.6739,-582.3903"/>
<polygon fill="#0000ff" stroke="#0000ff" points="834.5531,-585.3562 841.7663,-577.5961 831.2882,-579.1642 834.5531,-585.3562"/>
<text text-anchor="middle" x="809.7416" y="-600.8" font-family="Times,serif" font-size="14.00" fill="#0000ff">init</text>
</g>
<!-- #13 AssignmentExpression -->
<g id="node8" class="node">
<title>#13 AssignmentExpression</title>
<ellipse fill="none" stroke="#000000" cx="334.2416" cy="-453" rx="107.781" ry="18"/>
<text text-anchor="middle" x="334.2416" y="-449.3" font-family="Times,serif" font-size="14.00" fill="#000000">#13 AssignmentExpression</text>
</g>
<!-- #12 ExpressionStatement&#45;&gt;#13 AssignmentExpression -->
<g id="edge8" class="edge">
<title>#12 ExpressionStatement&#45;&gt;#13 AssignmentExpression</title>
<path fill="none" stroke="#0000ff" d="M536.1601,-544.2435C494.4191,-525.3814 426.5204,-494.6992 381.131,-474.1885"/>
<polygon fill="#0000ff" stroke="#0000ff" points="382.3587,-470.9026 371.8046,-469.9741 379.4761,-477.2815 382.3587,-470.9026"/>
<text text-anchor="middle" x="518.2416" y="-503.3" font-family="Times,serif" font-size="14.00" fill="#0000ff">expression</text>
</g>
<!-- #19 CFG_F_END __main__ -->
<g id="node9" class="node">
<title>#19 CFG_F_END __main__</title>
<ellipse fill="none" stroke="#ff0000" cx="573.2416" cy="-453" rx="113.18" ry="18"/>
<text text-anchor="middle" x="573.2416" y="-449.3" font-family="Times,serif" font-size="14.00" fill="#ff0000">#19 CFG_F_END __main__</text>
</g>
<!-- #12 ExpressionStatement&#45;&gt;#19 CFG_F_END __main__ -->
<g id="edge9" class="edge">
<title>#12 ExpressionStatement&#45;&gt;#19 CFG_F_END __main__</title>
<path fill="none" stroke="#ff0000" d="M573.2416,-542.6793C573.2416,-525.821 573.2416,-500.5651 573.2416,-481.147"/>
<polygon fill="#ff0000" stroke="#ff0000" points="576.7417,-481.0501 573.2416,-471.0502 569.7417,-481.0502 576.7417,-481.0501"/>
</g>
<!-- #18 CFG_F_START __main__ -->
<g id="node4" class="node">
<title>#18 CFG_F_START __main__</title>
<ellipse fill="none" stroke="#ff0000" cx="766.2416" cy="-735" rx="122.6784" ry="18"/>
<text text-anchor="middle" x="766.2416" y="-731.3" font-family="Times,serif" font-size="14.00" fill="#ff0000">#18 CFG_F_START __main__</text>
</g>
<!-- #18 CFG_F_START __main__&#45;&gt;#1 Variable (f) -->
<g id="edge3" class="edge">
<title>#18 CFG_F_START __main__&#45;&gt;#1 Variable (f)</title>
<path fill="none" stroke="#ff0000" d="M754.224,-716.9735C746.004,-704.6435 734.9733,-688.0975 725.7764,-674.3021"/>
<polygon fill="#ff0000" stroke="#ff0000" points="728.5047,-672.0847 720.0454,-665.7057 722.6803,-675.9677 728.5047,-672.0847"/>
</g>
<!-- #5 Variable (v1) -->
<g id="node6" class="node">
<title>#5 Variable (v1)</title>
<ellipse fill="none" stroke="#000000" cx="889.2416" cy="-279" rx="69.5877" ry="18"/>
<text text-anchor="middle" x="889.2416" y="-275.3" font-family="Times,serif" font-size="14.00" fill="#000000">#5 Variable (v1)</text>
</g>
<!-- #20 CFG_F_START 2_anon&#45;&gt;#5 Variable (v1) -->
<g id="edge4" class="edge">
<title>#20 CFG_F_START 2_anon&#45;&gt;#5 Variable (v1)</title>
<path fill="none" stroke="#ff0000" d="M705.8949,-488.887C702.7813,-456.9381 700.9785,-389.9889 733.2416,-348 755.0715,-319.5896 791.11,-302.6215 823.0516,-292.626"/>
<polygon fill="#ff0000" stroke="#ff0000" points="824.2138,-295.9322 832.8128,-289.7428 822.2309,-289.219 824.2138,-295.9322"/>
</g>
<!-- #6 CallExpression -->
<g id="node10" class="node">
<title>#6 CallExpression</title>
<ellipse fill="none" stroke="#000000" cx="1018.2416" cy="-192" rx="75.2868" ry="18"/>
<text text-anchor="middle" x="1018.2416" y="-188.3" font-family="Times,serif" font-size="14.00" fill="#000000">#6 CallExpression</text>
</g>
<!-- #5 Variable (v1)&#45;&gt;#6 CallExpression -->
<g id="edge10" class="edge">
<title>#5 Variable (v1)&#45;&gt;#6 CallExpression</title>
<path fill="none" stroke="#0000ff" d="M914.4204,-262.019C934.3573,-248.5731 962.3995,-229.661 984.3152,-214.8806"/>
<polygon fill="#0000ff" stroke="#0000ff" points="986.3518,-217.7287 992.6855,-209.2355 982.4378,-211.9252 986.3518,-217.7287"/>
<text text-anchor="middle" x="970.7416" y="-231.8" font-family="Times,serif" font-size="14.00" fill="#0000ff">init</text>
</g>
<!-- #9 ReturnStatement -->
<g id="node11" class="node">
<title>#9 ReturnStatement</title>
<ellipse fill="none" stroke="#000000" cx="840.2416" cy="-105" rx="81.4863" ry="18"/>
<text text-anchor="middle" x="840.2416" y="-101.3" font-family="Times,serif" font-size="14.00" fill="#000000">#9 ReturnStatement</text>
</g>
<!-- #5 Variable (v1)&#45;&gt;#9 ReturnStatement -->
<g id="edge11" class="edge">
<title>#5 Variable (v1)&#45;&gt;#9 ReturnStatement</title>
<path fill="none" stroke="#ff0000" d="M896.5108,-260.9725C898.4479,-255.3148 900.2708,-248.9828 901.2416,-243 908.5453,-197.9926 914.5896,-179.5511 890.2416,-141 887.2786,-136.3085 883.4634,-132.0402 879.2629,-128.2161"/>
<polygon fill="#ff0000" stroke="#ff0000" points="881.3553,-125.4065 871.387,-121.8171 876.9412,-130.8394 881.3553,-125.4065"/>
</g>
<!-- #25 v1&#45;o4 -->
<g id="node12" class="node">
<title>#25 v1&#45;o4</title>
<ellipse fill="none" stroke="#006400" cx="840.2416" cy="-192" rx="46.5926" ry="18"/>
<text text-anchor="middle" x="840.2416" y="-188.3" font-family="Times,serif" font-size="14.00" fill="#006400">#25 v1&#45;o4</text>
</g>
<!-- #5 Variable (v1)&#45;&gt;#25 v1&#45;o4 -->
<g id="edge12" class="edge">
<title>#5 Variable (v1)&#45;&gt;#25 v1&#45;o4</title>
<path fill="none" stroke="#006400" d="M852.1301,-263.676C843.8015,-258.4025 836.0235,-251.5962 831.2416,-243 827.308,-235.9286 827.2525,-227.5259 828.8346,-219.6019"/>
<polygon fill="#006400" stroke="#006400" points="832.209,-220.5312 831.5457,-209.9572 825.4701,-218.6369 832.209,-220.5312"/>
<text text-anchor="middle" x="866.2416" y="-231.8" font-family="Times,serif" font-size="14.00" fill="#006400">CREATE v1</text>
</g>
<!-- #3 Identifier (x) -->
<g id="node13" class="node">
<title>#3 Identifier (x)</title>
<ellipse fill="none" stroke="#000000" cx="953.2416" cy="-453" rx="67.6881" ry="18"/>
<text text-anchor="middle" x="953.2416" y="-449.3" font-family="Times,serif" font-size="14.00" fill="#000000">#3 Identifier (x)</text>
</g>
<!-- #2 Function (anon)&#45;&gt;#3 Identifier (x) -->
<g id="edge13" class="edge">
<title>#2 Function (anon)&#45;&gt;#3 Identifier (x)</title>
<path fill="none" stroke="#0000ff" d="M886.452,-543.166C899.364,-525.7348 919.1685,-498.9987 933.8628,-479.1614"/>
<polygon fill="#0000ff" stroke="#0000ff" points="936.8718,-480.9794 940.0116,-470.8605 931.2469,-476.8128 936.8718,-480.9794"/>
<text text-anchor="middle" x="947.2416" y="-503.3" font-family="Times,serif" font-size="14.00" fill="#0000ff">param 1</text>
</g>
<!-- #4 Identifier (y) -->
<g id="node14" class="node">
<title>#4 Identifier (y)</title>
<ellipse fill="none" stroke="#000000" cx="1106.2416" cy="-453" rx="67.6881" ry="18"/>
<text text-anchor="middle" x="1106.2416" y="-449.3" font-family="Times,serif" font-size="14.00" fill="#000000">#4 Identifier (y)</text>
</g>
<!-- #2 Function (anon)&#45;&gt;#4 Identifier (y) -->
<g id="edge14" class="edge">
<title>#2 Function (anon)&#45;&gt;#4 Identifier (y)</title>
<path fill="none" stroke="#0000ff" d="M919.0898,-546.3622C936.5891,-540.3341 956.5712,-532.9096 974.2416,-525 1007.4902,-510.1173 1043.7132,-490.0659 1069.7885,-474.9029"/>
<polygon fill="#0000ff" stroke="#0000ff" points="1071.7079,-477.8349 1078.5669,-469.7599 1068.1694,-471.7951 1071.7079,-477.8349"/>
<text text-anchor="middle" x="1066.2416" y="-503.3" font-family="Times,serif" font-size="14.00" fill="#0000ff">param 2</text>
</g>
<!-- #11 BlockStatement -->
<g id="node15" class="node">
<title>#11 BlockStatement</title>
<ellipse fill="none" stroke="#000000" cx="825.2416" cy="-366" rx="83.3857" ry="18"/>
<text text-anchor="middle" x="825.2416" y="-362.3" font-family="Times,serif" font-size="14.00" fill="#000000">#11 BlockStatement</text>
</g>
<!-- #2 Function (anon)&#45;&gt;#11 BlockStatement -->
<g id="edge15" class="edge">
<title>#2 Function (anon)&#45;&gt;#11 BlockStatement</title>
<path fill="none" stroke="#0000ff" d="M866.9454,-542.8999C860.8238,-524.8467 851.5505,-496.2418 845.2416,-471 838.8133,-445.2802 833.3311,-415.5665 829.7411,-394.3266"/>
<polygon fill="#0000ff" stroke="#0000ff" points="833.1752,-393.6405 828.0881,-384.3469 826.2693,-394.7844 833.1752,-393.6405"/>
<text text-anchor="middle" x="860.7416" y="-449.3" font-family="Times,serif" font-size="14.00" fill="#0000ff">block</text>
</g>
<!-- #14 MemberExpression -->
<g id="node16" class="node">
<title>#14 MemberExpression</title>
<ellipse fill="none" stroke="#000000" cx="196.2416" cy="-366" rx="96.3833" ry="18"/>
<text text-anchor="middle" x="196.2416" y="-362.3" font-family="Times,serif" font-size="14.00" fill="#000000">#14 MemberExpression</text>
</g>
<!-- #13 AssignmentExpression&#45;&gt;#14 MemberExpression -->
<g id="edge16" class="edge">
<title>#13 AssignmentExpression&#45;&gt;#14 MemberExpression</title>
<path fill="none" stroke="#0000ff" d="M306.3153,-435.3943C284.9455,-421.922 255.3114,-403.2397 232.1742,-388.6531"/>
<polygon fill="#0000ff" stroke="#0000ff" points="233.9814,-385.655 223.6555,-383.2827 230.2482,-391.5765 233.9814,-385.655"/>
<text text-anchor="middle" x="283.7416" y="-405.8" font-family="Times,serif" font-size="14.00" fill="#0000ff">left</text>
</g>
<!-- #17 Identifier (f) -->
<g id="node17" class="node">
<title>#17 Identifier (f)</title>
<ellipse fill="none" stroke="#000000" cx="380.2416" cy="-366" rx="70.3881" ry="18"/>
<text text-anchor="middle" x="380.2416" y="-362.3" font-family="Times,serif" font-size="14.00" fill="#000000">#17 Identifier (f)</text>
</g>
<!-- #13 AssignmentExpression&#45;&gt;#17 Identifier (f) -->
<g id="edge17" class="edge">
<title>#13 AssignmentExpression&#45;&gt;#17 Identifier (f)</title>
<path fill="none" stroke="#0000ff" d="M343.7729,-434.9735C350.1873,-422.8418 358.7598,-406.6287 365.9817,-392.9698"/>
<polygon fill="#0000ff" stroke="#0000ff" points="369.1425,-394.4797 370.7226,-384.0034 362.9542,-391.2077 369.1425,-394.4797"/>
<text text-anchor="middle" x="373.2416" y="-405.8" font-family="Times,serif" font-size="14.00" fill="#0000ff">right</text>
</g>
<!-- #7 Identifier (eval) -->
<g id="node18" class="node">
<title>#7 Identifier (eval)</title>
<ellipse fill="none" stroke="#000000" cx="1175.2416" cy="-105" rx="77.1866" ry="18"/>
<text text-anchor="middle" x="1175.2416" y="-101.3" font-family="Times,serif" font-size="14.00" fill="#000000">#7 Identifier (eval)</text>
</g>
<!-- #6 CallExpression&#45;&gt;#7 Identifier (eval) -->
<g id="edge18" class="edge">
<title>#6 CallExpression&#45;&gt;#7 Identifier (eval)</title>
<path fill="none" stroke="#0000ff" d="M1048.1417,-175.4312C1073.1607,-161.5671 1109.0384,-141.6859 1136.2994,-126.5795"/>
<polygon fill="#0000ff" stroke="#0000ff" points="1138.1356,-129.5635 1145.1859,-121.6551 1134.7426,-123.4407 1138.1356,-129.5635"/>
<text text-anchor="middle" x="1121.2416" y="-144.8" font-family="Times,serif" font-size="14.00" fill="#0000ff">callee</text>
</g>
<!-- #8 Identifier (x) -->
<g id="node19" class="node">
<title>#8 Identifier (x)</title>
<ellipse fill="none" stroke="#000000" cx="1012.2416" cy="-105" rx="67.6881" ry="18"/>
<text text-anchor="middle" x="1012.2416" y="-101.3" font-family="Times,serif" font-size="14.00" fill="#000000">#8 Identifier (x)</text>
</g>
<!-- #6 CallExpression&#45;&gt;#8 Identifier (x) -->
<g id="edge19" class="edge">
<title>#6 CallExpression&#45;&gt;#8 Identifier (x)</title>
<path fill="none" stroke="#0000ff" d="M1016.9984,-173.9735C1016.1859,-162.1918 1015.1079,-146.5607 1014.1836,-133.1581"/>
<polygon fill="#0000ff" stroke="#0000ff" points="1017.6631,-132.7388 1013.4832,-123.0034 1010.6797,-133.2205 1017.6631,-132.7388"/>
<text text-anchor="middle" x="1029.2416" y="-144.8" font-family="Times,serif" font-size="14.00" fill="#0000ff">arg 1</text>
</g>
<!-- #10 Identifier (v1) -->
<g id="node20" class="node">
<title>#10 Identifier (v1)</title>
<ellipse fill="none" stroke="#000000" cx="742.2416" cy="-18" rx="76.0865" ry="18"/>
<text text-anchor="middle" x="742.2416" y="-14.3" font-family="Times,serif" font-size="14.00" fill="#000000">#10 Identifier (v1)</text>
</g>
<!-- #9 ReturnStatement&#45;&gt;#10 Identifier (v1) -->
<g id="edge20" class="edge">
<title>#9 ReturnStatement&#45;&gt;#10 Identifier (v1)</title>
<path fill="none" stroke="#0000ff" d="M820.4099,-87.3943C805.7983,-74.4228 785.7461,-56.6213 769.6098,-42.2962"/>
<polygon fill="#0000ff" stroke="#0000ff" points="771.8459,-39.6011 762.0439,-35.5796 767.1986,-44.8359 771.8459,-39.6011"/>
<text text-anchor="middle" x="822.2416" y="-57.8" font-family="Times,serif" font-size="14.00" fill="#0000ff">argument</text>
</g>
<!-- #21 CFG_F_END 2_anon -->
<g id="node21" class="node">
<title>#21 CFG_F_END 2_anon</title>
<ellipse fill="none" stroke="#ff0000" cx="939.2416" cy="-18" rx="103.1819" ry="18"/>
<text text-anchor="middle" x="939.2416" y="-14.3" font-family="Times,serif" font-size="14.00" fill="#ff0000">#21 CFG_F_END 2_anon</text>
</g>
<!-- #9 ReturnStatement&#45;&gt;#21 CFG_F_END 2_anon -->
<g id="edge21" class="edge">
<title>#9 ReturnStatement&#45;&gt;#21 CFG_F_END 2_anon</title>
<path fill="none" stroke="#ff0000" d="M860.2758,-87.3943C874.9393,-74.5081 895.0269,-56.8554 911.2719,-42.5794"/>
<polygon fill="#ff0000" stroke="#ff0000" points="913.6963,-45.1084 918.8975,-35.8782 909.0754,-39.8503 913.6963,-45.1084"/>
</g>
<!-- #25 v1&#45;o4&#45;&gt;#9 ReturnStatement -->
<g id="edge22" class="edge">
<title>#25 v1&#45;o4&#45;&gt;#9 ReturnStatement</title>
<path fill="none" stroke="#006400" d="M840.2416,-173.9735C840.2416,-162.1918 840.2416,-146.5607 840.2416,-133.1581"/>
<polygon fill="#006400" stroke="#006400" points="843.7417,-133.0033 840.2416,-123.0034 836.7417,-133.0034 843.7417,-133.0033"/>
<text text-anchor="middle" x="863.2416" y="-144.8" font-family="Times,serif" font-size="14.00" fill="#006400">VAR v1</text>
</g>
<!-- #23 x&#45;o2 -->
<g id="node22" class="node">
<title>#23 x&#45;o2</title>
<ellipse fill="none" stroke="#006400" cx="968.2416" cy="-366" rx="42.4939" ry="18"/>
<text text-anchor="middle" x="968.2416" y="-362.3" font-family="Times,serif" font-size="14.00" fill="#006400">#23 x&#45;o2</text>
</g>
<!-- #3 Identifier (x)&#45;&gt;#23 x&#45;o2 -->
<g id="edge23" class="edge">
<title>#3 Identifier (x)&#45;&gt;#23 x&#45;o2</title>
<path fill="none" stroke="#006400" d="M956.3496,-434.9735C958.381,-423.1918 961.076,-407.5607 963.3868,-394.1581"/>
<polygon fill="#006400" stroke="#006400" points="966.8876,-394.4527 965.1376,-384.0034 959.9893,-393.2633 966.8876,-394.4527"/>
<text text-anchor="middle" x="993.2416" y="-405.8" font-family="Times,serif" font-size="14.00" fill="#006400">CREATE x</text>
</g>
<!-- #11 BlockStatement&#45;&gt;#5 Variable (v1) -->
<g id="edge24" class="edge">
<title>#11 BlockStatement&#45;&gt;#5 Variable (v1)</title>
<path fill="none" stroke="#0000ff" d="M838.5025,-347.9735C847.6592,-335.5261 859.9767,-318.782 870.1824,-304.9087"/>
<polygon fill="#0000ff" stroke="#0000ff" points="873.1104,-306.8349 876.2168,-296.7057 867.4717,-302.6869 873.1104,-306.8349"/>
<text text-anchor="middle" x="863.7416" y="-318.8" font-family="Times,serif" font-size="14.00" fill="#0000ff">1</text>
</g>
<!-- #11 BlockStatement&#45;&gt;#9 ReturnStatement -->
<g id="edge25" class="edge">
<title>#11 BlockStatement&#45;&gt;#9 ReturnStatement</title>
<path fill="none" stroke="#0000ff" d="M815.0188,-348.1036C796.7203,-313.6428 762.2487,-235.9985 784.2416,-174 790.0805,-157.54 801.7058,-142.1449 812.8582,-130.0915"/>
<polygon fill="#0000ff" stroke="#0000ff" points="815.6018,-132.2901 820.0531,-122.6757 810.5777,-127.4157 815.6018,-132.2901"/>
<text text-anchor="middle" x="781.7416" y="-231.8" font-family="Times,serif" font-size="14.00" fill="#0000ff">2</text>
</g>
<!-- #15 Identifier (module) -->
<g id="node23" class="node">
<title>#15 Identifier (module)</title>
<ellipse fill="none" stroke="#000000" cx="94.2416" cy="-279" rx="94.4839" ry="18"/>
<text text-anchor="middle" x="94.2416" y="-275.3" font-family="Times,serif" font-size="14.00" fill="#000000">#15 Identifier (module)</text>
</g>
<!-- #14 MemberExpression&#45;&gt;#15 Identifier (module) -->
<g id="edge26" class="edge">
<title>#14 MemberExpression&#45;&gt;#15 Identifier (module)</title>
<path fill="none" stroke="#0000ff" d="M175.6004,-348.3943C160.3925,-335.4228 139.5218,-317.6213 122.7269,-303.2962"/>
<polygon fill="#0000ff" stroke="#0000ff" points="124.7318,-300.4061 114.8522,-296.5796 120.1892,-305.732 124.7318,-300.4061"/>
<text text-anchor="middle" x="169.2416" y="-318.8" font-family="Times,serif" font-size="14.00" fill="#0000ff">object</text>
</g>
<!-- #16 Identifier (exports) -->
<g id="node24" class="node">
<title>#16 Identifier (exports)</title>
<ellipse fill="none" stroke="#000000" cx="299.2416" cy="-279" rx="92.8835" ry="18"/>
<text text-anchor="middle" x="299.2416" y="-275.3" font-family="Times,serif" font-size="14.00" fill="#000000">#16 Identifier (exports)</text>
</g>
<!-- #14 MemberExpression&#45;&gt;#16 Identifier (exports) -->
<g id="edge27" class="edge">
<title>#14 MemberExpression&#45;&gt;#16 Identifier (exports)</title>
<path fill="none" stroke="#0000ff" d="M217.0852,-348.3943C232.4423,-335.4228 253.5175,-317.6213 270.4771,-303.2962"/>
<polygon fill="#0000ff" stroke="#0000ff" points="273.048,-305.7062 278.429,-296.5796 268.5311,-300.3585 273.048,-305.7062"/>
<text text-anchor="middle" x="277.2416" y="-318.8" font-family="Times,serif" font-size="14.00" fill="#0000ff">property</text>
</g>
<!-- #23 x&#45;o2&#45;&gt;#5 Variable (v1) -->
<g id="edge28" class="edge">
<title>#23 x&#45;o2&#45;&gt;#5 Variable (v1)</title>
<path fill="none" stroke="#006400" d="M952.6338,-348.8116C941.0998,-336.1096 925.2123,-318.6133 912.2281,-304.3142"/>
<polygon fill="#006400" stroke="#006400" points="914.6731,-301.8004 905.3594,-296.75 909.4908,-306.5061 914.6731,-301.8004"/>
<text text-anchor="middle" x="953.2416" y="-318.8" font-family="Times,serif" font-size="14.00" fill="#006400">VAR x</text>
</g>
</g>
</svg>
