<?xml version="1.0" encoding="UTF-8" standalone="no"?>
<!DOCTYPE svg PUBLIC "-//W3C//DTD SVG 1.1//EN"
 "http://www.w3.org/Graphics/SVG/1.1/DTD/svg11.dtd">
<!-- Generated by graphviz version 2.40.1 (20161225.0304)
 -->
<!-- Title: G Pages: 1 -->
<svg width="1472pt" height="827pt"
 viewBox="0.00 0.00 1471.74 827.00" xmlns="http://www.w3.org/2000/svg" xmlns:xlink="http://www.w3.org/1999/xlink">
<g id="graph0" class="graph" transform="scale(1 1) rotate(0) translate(4 823)">
<title>G</title>
<polygon fill="#ffffff" stroke="transparent" points="-4,4 -4,-823 1467.7364,-823 1467.7364,4 -4,4"/>
<!-- #0 Program -->
<g id="node1" class="node">
<title>#0 Program</title>
<ellipse fill="none" stroke="#000000" cx="496.0934" cy="-801" rx="52.7911" ry="18"/>
<text text-anchor="middle" x="496.0934" y="-797.3" font-family="Times,serif" font-size="14.00" fill="#000000">#0 Program</text>
</g>
<!-- #1 Variable (f) -->
<g id="node2" class="node">
<title>#1 Variable (f)</title>
<ellipse fill="none" stroke="#000000" cx="592.0934" cy="-714" rx="63.8893" ry="18"/>
<text text-anchor="middle" x="592.0934" y="-710.3" font-family="Times,serif" font-size="14.00" fill="#000000">#1 Variable (f)</text>
</g>
<!-- #0 Program&#45;&gt;#1 Variable (f) -->
<g id="edge1" class="edge">
<title>#0 Program&#45;&gt;#1 Variable (f)</title>
<path fill="none" stroke="#0000ff" d="M515.0599,-783.8116C529.4294,-770.7893 549.3594,-752.7277 565.3474,-738.2386"/>
<polygon fill="#0000ff" stroke="#0000ff" points="567.7782,-740.7592 572.8377,-731.4505 563.0775,-735.5722 567.7782,-740.7592"/>
<text text-anchor="middle" x="553.5934" y="-753.8" font-family="Times,serif" font-size="14.00" fill="#0000ff">1</text>
</g>
<!-- #24 CFG_F_START 2_anon -->
<g id="node4" class="node">
<title>#24 CFG_F_START 2_anon</title>
<ellipse fill="none" stroke="#ff0000" cx="477.0934" cy="-540" rx="113.18" ry="18"/>
<text text-anchor="middle" x="477.0934" y="-536.3" font-family="Times,serif" font-size="14.00" fill="#ff0000">#24 CFG_F_START 2_anon</text>
</g>
<!-- #1 Variable (f)&#45;&gt;#24 CFG_F_START 2_anon -->
<g id="edge5" class="edge">
<title>#1 Variable (f)&#45;&gt;#24 CFG_F_START 2_anon</title>
<path fill="none" stroke="#000000" d="M590.9629,-695.8713C588.8314,-673.7418 582.6987,-635.9442 565.0934,-609 553.0662,-590.5929 534.4568,-574.9675 517.4434,-563.2654"/>
<polygon fill="#000000" stroke="#000000" points="519.0076,-560.1038 508.7352,-557.5096 515.1477,-565.9435 519.0076,-560.1038"/>
<text text-anchor="middle" x="591.0934" y="-623.3" font-family="Times,serif" font-size="14.00" fill="#000000">FD</text>
</g>
<!-- #2 Function (anon) -->
<g id="node6" class="node">
<title>#2 Function (anon)</title>
<ellipse fill="none" stroke="#000000" cx="477.0934" cy="-627" rx="78.7863" ry="18"/>
<text text-anchor="middle" x="477.0934" y="-623.3" font-family="Times,serif" font-size="14.00" fill="#000000">#2 Function (anon)</text>
</g>
<!-- #1 Variable (f)&#45;&gt;#2 Function (anon) -->
<g id="edge4" class="edge">
<title>#1 Variable (f)&#45;&gt;#2 Function (anon)</title>
<path fill="none" stroke="#0000ff" d="M569.6473,-697.019C552.0313,-683.6921 527.3171,-664.9953 507.8579,-650.274"/>
<polygon fill="#0000ff" stroke="#0000ff" points="509.9626,-647.4775 499.876,-644.2355 505.7393,-653.06 509.9626,-647.4775"/>
<text text-anchor="middle" x="551.5934" y="-666.8" font-family="Times,serif" font-size="14.00" fill="#0000ff">init</text>
</g>
<!-- #23 CFG_F_END __main__ -->
<g id="node7" class="node">
<title>#23 CFG_F_END __main__</title>
<ellipse fill="none" stroke="#ff0000" cx="741.0934" cy="-627" rx="113.18" ry="18"/>
<text text-anchor="middle" x="741.0934" y="-623.3" font-family="Times,serif" font-size="14.00" fill="#ff0000">#23 CFG_F_END __main__</text>
</g>
<!-- #1 Variable (f)&#45;&gt;#23 CFG_F_END __main__ -->
<g id="edge6" class="edge">
<title>#1 Variable (f)&#45;&gt;#23 CFG_F_END __main__</title>
<path fill="none" stroke="#ff0000" d="M620.1192,-697.636C643.3452,-684.0745 676.605,-664.6543 702.3744,-649.6077"/>
<polygon fill="#ff0000" stroke="#ff0000" points="704.2774,-652.5496 711.1483,-644.4848 700.7477,-646.5046 704.2774,-652.5496"/>
</g>
<!-- #22 CFG_F_START __main__ -->
<g id="node3" class="node">
<title>#22 CFG_F_START __main__</title>
<ellipse fill="none" stroke="#ff0000" cx="689.0934" cy="-801" rx="122.6784" ry="18"/>
<text text-anchor="middle" x="689.0934" y="-797.3" font-family="Times,serif" font-size="14.00" fill="#ff0000">#22 CFG_F_START __main__</text>
</g>
<!-- #22 CFG_F_START __main__&#45;&gt;#1 Variable (f) -->
<g id="edge2" class="edge">
<title>#22 CFG_F_START __main__&#45;&gt;#1 Variable (f)</title>
<path fill="none" stroke="#ff0000" d="M668.995,-782.9735C654.6295,-770.089 635.1312,-752.6009 619.363,-738.4583"/>
<polygon fill="#ff0000" stroke="#ff0000" points="621.2856,-735.4811 611.5042,-731.4097 616.6117,-740.6922 621.2856,-735.4811"/>
</g>
<!-- #3 ExpressionStatement -->
<g id="node5" class="node">
<title>#3 ExpressionStatement</title>
<ellipse fill="none" stroke="#000000" cx="477.0934" cy="-453" rx="96.6831" ry="18"/>
<text text-anchor="middle" x="477.0934" y="-449.3" font-family="Times,serif" font-size="14.00" fill="#000000">#3 ExpressionStatement</text>
</g>
<!-- #24 CFG_F_START 2_anon&#45;&gt;#3 ExpressionStatement -->
<g id="edge3" class="edge">
<title>#24 CFG_F_START 2_anon&#45;&gt;#3 ExpressionStatement</title>
<path fill="none" stroke="#ff0000" d="M477.0934,-521.9735C477.0934,-510.1918 477.0934,-494.5607 477.0934,-481.1581"/>
<polygon fill="#ff0000" stroke="#ff0000" points="480.5935,-481.0033 477.0934,-471.0034 473.5935,-481.0034 480.5935,-481.0033"/>
</g>
<!-- #4 AssignmentExpression -->
<g id="node8" class="node">
<title>#4 AssignmentExpression</title>
<ellipse fill="none" stroke="#000000" cx="251.0934" cy="-366" rx="103.1819" ry="18"/>
<text text-anchor="middle" x="251.0934" y="-362.3" font-family="Times,serif" font-size="14.00" fill="#000000">#4 AssignmentExpression</text>
</g>
<!-- #3 ExpressionStatement&#45;&gt;#4 AssignmentExpression -->
<g id="edge7" class="edge">
<title>#3 ExpressionStatement&#45;&gt;#4 AssignmentExpression</title>
<path fill="none" stroke="#0000ff" d="M434.8497,-436.738C397.6711,-422.4259 343.3933,-401.5314 303.4641,-386.1604"/>
<polygon fill="#0000ff" stroke="#0000ff" points="304.4874,-382.804 293.8976,-382.4777 301.9726,-389.3367 304.4874,-382.804"/>
<text text-anchor="middle" x="407.0934" y="-405.8" font-family="Times,serif" font-size="14.00" fill="#0000ff">expression</text>
</g>
<!-- #7 ExpressionStatement -->
<g id="node9" class="node">
<title>#7 ExpressionStatement</title>
<ellipse fill="none" stroke="#000000" cx="605.0934" cy="-366" rx="96.6831" ry="18"/>
<text text-anchor="middle" x="605.0934" y="-362.3" font-family="Times,serif" font-size="14.00" fill="#000000">#7 ExpressionStatement</text>
</g>
<!-- #3 ExpressionStatement&#45;&gt;#7 ExpressionStatement -->
<g id="edge8" class="edge">
<title>#3 ExpressionStatement&#45;&gt;#7 ExpressionStatement</title>
<path fill="none" stroke="#ff0000" d="M504.0564,-435.5835C513.0154,-429.7349 523.0185,-423.1379 532.0934,-417 545.3077,-408.0624 559.7295,-398.0439 572.2386,-389.2679"/>
<polygon fill="#ff0000" stroke="#ff0000" points="574.3885,-392.0349 580.5548,-383.4193 570.3616,-386.3091 574.3885,-392.0349"/>
</g>
<!-- #27 obj&#45;o2 -->
<g id="node10" class="node">
<title>#27 obj&#45;o2</title>
<ellipse fill="none" stroke="#006400" cx="423.0934" cy="-366" rx="49.2915" ry="18"/>
<text text-anchor="middle" x="423.0934" y="-362.3" font-family="Times,serif" font-size="14.00" fill="#006400">#27 obj&#45;o2</text>
</g>
<!-- #3 ExpressionStatement&#45;&gt;#27 obj&#45;o2 -->
<g id="edge9" class="edge">
<title>#3 ExpressionStatement&#45;&gt;#27 obj&#45;o2</title>
<path fill="none" stroke="#006400" d="M465.9046,-434.9735C458.2515,-422.6435 447.9816,-406.0975 439.4189,-392.3021"/>
<polygon fill="#006400" stroke="#006400" points="442.3306,-390.3563 434.0832,-383.7057 436.3831,-394.0479 442.3306,-390.3563"/>
<text text-anchor="middle" x="491.0934" y="-405.8" font-family="Times,serif" font-size="14.00" fill="#006400">CREATE obj</text>
</g>
<!-- #2 Function (anon)&#45;&gt;#24 CFG_F_START 2_anon -->
<g id="edge11" class="edge">
<title>#2 Function (anon)&#45;&gt;#24 CFG_F_START 2_anon</title>
<path fill="none" stroke="#000000" d="M477.0934,-608.9735C477.0934,-597.1918 477.0934,-581.5607 477.0934,-568.1581"/>
<polygon fill="#000000" stroke="#000000" points="480.5935,-568.0033 477.0934,-558.0034 473.5935,-568.0034 480.5935,-568.0033"/>
<text text-anchor="middle" x="486.0934" y="-579.8" font-family="Times,serif" font-size="14.00" fill="#000000">FD</text>
</g>
<!-- #21 BlockStatement -->
<g id="node11" class="node">
<title>#21 BlockStatement</title>
<ellipse fill="none" stroke="#000000" cx="691.0934" cy="-540" rx="83.3857" ry="18"/>
<text text-anchor="middle" x="691.0934" y="-536.3" font-family="Times,serif" font-size="14.00" fill="#000000">#21 BlockStatement</text>
</g>
<!-- #2 Function (anon)&#45;&gt;#21 BlockStatement -->
<g id="edge10" class="edge">
<title>#2 Function (anon)&#45;&gt;#21 BlockStatement</title>
<path fill="none" stroke="#0000ff" d="M515.8472,-611.245C551.3791,-596.7997 604.1432,-575.3489 642.4865,-559.7608"/>
<polygon fill="#0000ff" stroke="#0000ff" points="643.9592,-562.9403 651.9048,-555.9318 641.3229,-556.4557 643.9592,-562.9403"/>
<text text-anchor="middle" x="612.5934" y="-579.8" font-family="Times,serif" font-size="14.00" fill="#0000ff">block</text>
</g>
<!-- #5 Identifier (obj) -->
<g id="node12" class="node">
<title>#5 Identifier (obj)</title>
<ellipse fill="none" stroke="#000000" cx="74.0934" cy="-279" rx="74.187" ry="18"/>
<text text-anchor="middle" x="74.0934" y="-275.3" font-family="Times,serif" font-size="14.00" fill="#000000">#5 Identifier (obj)</text>
</g>
<!-- #4 AssignmentExpression&#45;&gt;#5 Identifier (obj) -->
<g id="edge12" class="edge">
<title>#4 AssignmentExpression&#45;&gt;#5 Identifier (obj)</title>
<path fill="none" stroke="#0000ff" d="M216.5459,-349.019C187.826,-334.9025 146.848,-314.7607 116.2091,-299.7009"/>
<polygon fill="#0000ff" stroke="#0000ff" points="117.5759,-296.4728 107.0575,-295.2027 114.4881,-302.755 117.5759,-296.4728"/>
<text text-anchor="middle" x="183.5934" y="-318.8" font-family="Times,serif" font-size="14.00" fill="#0000ff">left</text>
</g>
<!-- #6 ObjectExpression -->
<g id="node13" class="node">
<title>#6 ObjectExpression</title>
<ellipse fill="none" stroke="#000000" cx="251.0934" cy="-279" rx="84.485" ry="18"/>
<text text-anchor="middle" x="251.0934" y="-275.3" font-family="Times,serif" font-size="14.00" fill="#000000">#6 ObjectExpression</text>
</g>
<!-- #4 AssignmentExpression&#45;&gt;#6 ObjectExpression -->
<g id="edge13" class="edge">
<title>#4 AssignmentExpression&#45;&gt;#6 ObjectExpression</title>
<path fill="none" stroke="#0000ff" d="M251.0934,-347.9735C251.0934,-336.1918 251.0934,-320.5607 251.0934,-307.1581"/>
<polygon fill="#0000ff" stroke="#0000ff" points="254.5935,-307.0033 251.0934,-297.0034 247.5935,-307.0034 254.5935,-307.0033"/>
<text text-anchor="middle" x="264.0934" y="-318.8" font-family="Times,serif" font-size="14.00" fill="#0000ff">right</text>
</g>
<!-- #8 AssignmentExpression -->
<g id="node14" class="node">
<title>#8 AssignmentExpression</title>
<ellipse fill="none" stroke="#000000" cx="1080.0934" cy="-279" rx="103.1819" ry="18"/>
<text text-anchor="middle" x="1080.0934" y="-275.3" font-family="Times,serif" font-size="14.00" fill="#000000">#8 AssignmentExpression</text>
</g>
<!-- #7 ExpressionStatement&#45;&gt;#8 AssignmentExpression -->
<g id="edge14" class="edge">
<title>#7 ExpressionStatement&#45;&gt;#8 AssignmentExpression</title>
<path fill="none" stroke="#0000ff" d="M627.2795,-348.4309C643.235,-336.8212 665.7878,-322.4236 688.0934,-315 738.4312,-298.247 871.8911,-288.5734 969.1371,-283.5541"/>
<polygon fill="#0000ff" stroke="#0000ff" points="969.51,-287.0399 979.3202,-283.0386 969.156,-280.0488 969.51,-287.0399"/>
<text text-anchor="middle" x="717.0934" y="-318.8" font-family="Times,serif" font-size="14.00" fill="#0000ff">expression</text>
</g>
<!-- #13 ExpressionStatement -->
<g id="node15" class="node">
<title>#13 ExpressionStatement</title>
<ellipse fill="none" stroke="#000000" cx="639.0934" cy="-279" rx="100.9827" ry="18"/>
<text text-anchor="middle" x="639.0934" y="-275.3" font-family="Times,serif" font-size="14.00" fill="#000000">#13 ExpressionStatement</text>
</g>
<!-- #7 ExpressionStatement&#45;&gt;#13 ExpressionStatement -->
<g id="edge15" class="edge">
<title>#7 ExpressionStatement&#45;&gt;#13 ExpressionStatement</title>
<path fill="none" stroke="#ff0000" d="M612.1382,-347.9735C616.8338,-335.9585 623.0938,-319.9401 628.3992,-306.3646"/>
<polygon fill="#ff0000" stroke="#ff0000" points="631.6775,-307.5914 632.0576,-297.0034 625.1577,-305.0434 631.6775,-307.5914"/>
</g>
<!-- #28 24.obj&#45;o3 -->
<g id="node16" class="node">
<title>#28 24.obj&#45;o3</title>
<ellipse fill="none" stroke="#006400" cx="455.0934" cy="-279" rx="60.3893" ry="18"/>
<text text-anchor="middle" x="455.0934" y="-275.3" font-family="Times,serif" font-size="14.00" fill="#006400">#28 24.obj&#45;o3</text>
</g>
<!-- #7 ExpressionStatement&#45;&gt;#28 24.obj&#45;o3 -->
<g id="edge16" class="edge">
<title>#7 ExpressionStatement&#45;&gt;#28 24.obj&#45;o3</title>
<path fill="none" stroke="#006400" d="M582.0984,-348.4004C568.0521,-338.0432 549.4993,-325.0486 532.0934,-315 521.8134,-309.0652 510.3916,-303.3058 499.5603,-298.1974"/>
<polygon fill="#006400" stroke="#006400" points="500.7833,-294.9069 490.2376,-293.8878 497.846,-301.2609 500.7833,-294.9069"/>
<text text-anchor="middle" x="582.5934" y="-318.8" font-family="Times,serif" font-size="14.00" fill="#006400">WRITE x</text>
</g>
<!-- #27 obj&#45;o2&#45;&gt;#28 24.obj&#45;o3 -->
<g id="edge17" class="edge">
<title>#27 obj&#45;o2&#45;&gt;#28 24.obj&#45;o3</title>
<path fill="none" stroke="#006400" d="M420.5218,-347.9653C419.8032,-337.9398 420.1078,-325.4223 424.0934,-315 425.5112,-311.2925 427.4915,-307.7068 429.7726,-304.328"/>
<polygon fill="#006400" stroke="#006400" points="432.5545,-306.4521 435.9138,-296.404 427.0216,-302.1641 432.5545,-306.4521"/>
<text text-anchor="middle" x="478.0934" y="-318.8" font-family="Times,serif" font-size="14.00" fill="#006400">NEW_VERSION x</text>
</g>
<!-- #19 ReturnStatement -->
<g id="node17" class="node">
<title>#19 ReturnStatement</title>
<ellipse fill="none" stroke="#000000" cx="565.0934" cy="-105" rx="85.5853" ry="18"/>
<text text-anchor="middle" x="565.0934" y="-101.3" font-family="Times,serif" font-size="14.00" fill="#000000">#19 ReturnStatement</text>
</g>
<!-- #27 obj&#45;o2&#45;&gt;#19 ReturnStatement -->
<g id="edge18" class="edge">
<title>#27 obj&#45;o2&#45;&gt;#19 ReturnStatement</title>
<path fill="none" stroke="#006400" d="M410.5985,-348.556C401.819,-335.1726 390.829,-315.852 386.0934,-297 378.6221,-267.2574 375.8018,-256.8882 386.0934,-228 402.8426,-180.9858 416.0162,-169.3465 457.0934,-141 468.9226,-132.837 482.7458,-126.4067 496.4757,-121.3834"/>
<polygon fill="#006400" stroke="#006400" points="497.6235,-124.69 505.9405,-118.1266 495.3458,-118.0709 497.6235,-124.69"/>
<text text-anchor="middle" x="411.0934" y="-231.8" font-family="Times,serif" font-size="14.00" fill="#006400">VAR obj</text>
</g>
<!-- #21 BlockStatement&#45;&gt;#3 ExpressionStatement -->
<g id="edge19" class="edge">
<title>#21 BlockStatement&#45;&gt;#3 ExpressionStatement</title>
<path fill="none" stroke="#0000ff" d="M651.8425,-524.0429C616.6916,-509.7525 564.9694,-488.7253 526.9123,-473.2535"/>
<polygon fill="#0000ff" stroke="#0000ff" points="528.1314,-469.971 517.5496,-469.4471 525.4951,-476.4556 528.1314,-469.971"/>
<text text-anchor="middle" x="600.5934" y="-492.8" font-family="Times,serif" font-size="14.00" fill="#0000ff">1</text>
</g>
<!-- #21 BlockStatement&#45;&gt;#7 ExpressionStatement -->
<g id="edge20" class="edge">
<title>#21 BlockStatement&#45;&gt;#7 ExpressionStatement</title>
<path fill="none" stroke="#0000ff" d="M682.2138,-522.0343C667.1504,-491.5572 636.4957,-429.5349 618.7063,-393.5423"/>
<polygon fill="#0000ff" stroke="#0000ff" points="621.6222,-391.5426 614.0536,-384.1286 615.3468,-394.6443 621.6222,-391.5426"/>
<text text-anchor="middle" x="660.5934" y="-449.3" font-family="Times,serif" font-size="14.00" fill="#0000ff">2</text>
</g>
<!-- #21 BlockStatement&#45;&gt;#13 ExpressionStatement -->
<g id="edge21" class="edge">
<title>#21 BlockStatement&#45;&gt;#13 ExpressionStatement</title>
<path fill="none" stroke="#0000ff" d="M700.2171,-521.9307C719.2978,-481.3426 758.2949,-381.3167 716.0934,-315 712.3141,-309.061 707.2696,-304.0854 701.5626,-299.9203"/>
<polygon fill="#0000ff" stroke="#0000ff" points="703.1206,-296.7645 692.7975,-294.38 699.3805,-302.6816 703.1206,-296.7645"/>
<text text-anchor="middle" x="737.5934" y="-405.8" font-family="Times,serif" font-size="14.00" fill="#0000ff">3</text>
</g>
<!-- #21 BlockStatement&#45;&gt;#19 ReturnStatement -->
<g id="edge22" class="edge">
<title>#21 BlockStatement&#45;&gt;#19 ReturnStatement</title>
<path fill="none" stroke="#0000ff" d="M720.2038,-522.86C742.0089,-507.5952 768.0934,-483.0537 768.0934,-453 768.0934,-453 768.0934,-453 768.0934,-192 768.0934,-162.0967 692.7345,-136.3359 633.8465,-120.7706"/>
<polygon fill="#0000ff" stroke="#0000ff" points="634.3674,-117.2901 623.8094,-118.1727 632.6134,-124.0668 634.3674,-117.2901"/>
<text text-anchor="middle" x="771.5934" y="-318.8" font-family="Times,serif" font-size="14.00" fill="#0000ff">4</text>
</g>
<!-- #9 MemberExpression -->
<g id="node18" class="node">
<title>#9 MemberExpression</title>
<ellipse fill="none" stroke="#000000" cx="1240.0934" cy="-192" rx="91.784" ry="18"/>
<text text-anchor="middle" x="1240.0934" y="-188.3" font-family="Times,serif" font-size="14.00" fill="#000000">#9 MemberExpression</text>
</g>
<!-- #8 AssignmentExpression&#45;&gt;#9 MemberExpression -->
<g id="edge23" class="edge">
<title>#8 AssignmentExpression&#45;&gt;#9 MemberExpression</title>
<path fill="none" stroke="#0000ff" d="M1111.7043,-261.8116C1136.9874,-248.0639 1172.5994,-228.6999 1199.9058,-213.852"/>
<polygon fill="#0000ff" stroke="#0000ff" points="1201.7076,-216.8563 1208.8209,-209.0045 1198.3636,-210.7066 1201.7076,-216.8563"/>
<text text-anchor="middle" x="1178.5934" y="-231.8" font-family="Times,serif" font-size="14.00" fill="#0000ff">left</text>
</g>
<!-- #12 Literal -->
<g id="node19" class="node">
<title>#12 Literal</title>
<ellipse fill="none" stroke="#000000" cx="1080.0934" cy="-192" rx="50.0912" ry="18"/>
<text text-anchor="middle" x="1080.0934" y="-188.3" font-family="Times,serif" font-size="14.00" fill="#000000">#12 Literal</text>
</g>
<!-- #8 AssignmentExpression&#45;&gt;#12 Literal -->
<g id="edge24" class="edge">
<title>#8 AssignmentExpression&#45;&gt;#12 Literal</title>
<path fill="none" stroke="#0000ff" d="M1080.0934,-260.9735C1080.0934,-249.1918 1080.0934,-233.5607 1080.0934,-220.1581"/>
<polygon fill="#0000ff" stroke="#0000ff" points="1083.5935,-220.0033 1080.0934,-210.0034 1076.5935,-220.0034 1083.5935,-220.0033"/>
<text text-anchor="middle" x="1093.0934" y="-231.8" font-family="Times,serif" font-size="14.00" fill="#0000ff">right</text>
</g>
<!-- #13 ExpressionStatement&#45;&gt;#19 ReturnStatement -->
<g id="edge26" class="edge">
<title>#13 ExpressionStatement&#45;&gt;#19 ReturnStatement</title>
<path fill="none" stroke="#ff0000" d="M644.5502,-260.8491C646.0032,-255.1864 647.3692,-248.8826 648.0934,-243 653.8519,-196.2231 649.6249,-176.9036 619.0934,-141 614.974,-136.1557 610.0463,-131.6977 604.8671,-127.691"/>
<polygon fill="#ff0000" stroke="#ff0000" points="606.7702,-124.7491 596.6011,-121.7758 602.6965,-130.4417 606.7702,-124.7491"/>
</g>
<!-- #14 AssignmentExpression -->
<g id="node20" class="node">
<title>#14 AssignmentExpression</title>
<ellipse fill="none" stroke="#000000" cx="904.0934" cy="-192" rx="107.781" ry="18"/>
<text text-anchor="middle" x="904.0934" y="-188.3" font-family="Times,serif" font-size="14.00" fill="#000000">#14 AssignmentExpression</text>
</g>
<!-- #13 ExpressionStatement&#45;&gt;#14 AssignmentExpression -->
<g id="edge25" class="edge">
<title>#13 ExpressionStatement&#45;&gt;#14 AssignmentExpression</title>
<path fill="none" stroke="#0000ff" d="M687.3904,-263.144C731.8039,-248.563 797.7696,-226.9063 845.2456,-211.3198"/>
<polygon fill="#0000ff" stroke="#0000ff" points="846.3723,-214.6338 854.7816,-208.1892 844.1888,-207.9831 846.3723,-214.6338"/>
<text text-anchor="middle" x="816.0934" y="-231.8" font-family="Times,serif" font-size="14.00" fill="#0000ff">expression</text>
</g>
<!-- #30 24.obj&#45;o5 -->
<g id="node21" class="node">
<title>#30 24.obj&#45;o5</title>
<ellipse fill="none" stroke="#006400" cx="565.0934" cy="-192" rx="60.3893" ry="18"/>
<text text-anchor="middle" x="565.0934" y="-188.3" font-family="Times,serif" font-size="14.00" fill="#006400">#30 24.obj&#45;o5</text>
</g>
<!-- #13 ExpressionStatement&#45;&gt;#30 24.obj&#45;o5 -->
<g id="edge27" class="edge">
<title>#13 ExpressionStatement&#45;&gt;#30 24.obj&#45;o5</title>
<path fill="none" stroke="#006400" d="M612.6511,-261.2502C605.7857,-255.8888 598.7413,-249.6455 593.0934,-243 587.0755,-235.919 581.7668,-227.3408 577.4347,-219.2561"/>
<polygon fill="#006400" stroke="#006400" points="580.4476,-217.458 572.8139,-210.1112 574.1999,-220.615 580.4476,-217.458"/>
<text text-anchor="middle" x="620.5934" y="-231.8" font-family="Times,serif" font-size="14.00" fill="#006400">WRITE y</text>
</g>
<!-- #28 24.obj&#45;o3&#45;&gt;#19 ReturnStatement -->
<g id="edge29" class="edge">
<title>#28 24.obj&#45;o3&#45;&gt;#19 ReturnStatement</title>
<path fill="none" stroke="#006400" d="M447.6103,-260.9258C439.7378,-238.8513 430.4755,-201.1092 446.0934,-174 459.4595,-150.7995 483.943,-134.686 507.2424,-123.9019"/>
<polygon fill="#006400" stroke="#006400" points="508.6692,-127.0981 516.4295,-119.885 505.8649,-120.6843 508.6692,-127.0981"/>
<text text-anchor="middle" x="471.0934" y="-188.3" font-family="Times,serif" font-size="14.00" fill="#006400">VAR obj</text>
</g>
<!-- #28 24.obj&#45;o3&#45;&gt;#30 24.obj&#45;o5 -->
<g id="edge28" class="edge">
<title>#28 24.obj&#45;o3&#45;&gt;#30 24.obj&#45;o5</title>
<path fill="none" stroke="#006400" d="M456.8132,-260.9766C458.7117,-250.2051 462.7034,-236.9247 471.0934,-228 480.3455,-218.1582 492.5803,-210.9776 505.153,-205.7485"/>
<polygon fill="#006400" stroke="#006400" points="506.6654,-208.9189 514.7895,-202.1183 504.1977,-202.3683 506.6654,-208.9189"/>
<text text-anchor="middle" x="525.0934" y="-231.8" font-family="Times,serif" font-size="14.00" fill="#006400">NEW_VERSION y</text>
</g>
<!-- #20 Identifier (obj) -->
<g id="node22" class="node">
<title>#20 Identifier (obj)</title>
<ellipse fill="none" stroke="#000000" cx="493.0934" cy="-18" rx="78.7863" ry="18"/>
<text text-anchor="middle" x="493.0934" y="-14.3" font-family="Times,serif" font-size="14.00" fill="#000000">#20 Identifier (obj)</text>
</g>
<!-- #19 ReturnStatement&#45;&gt;#20 Identifier (obj) -->
<g id="edge30" class="edge">
<title>#19 ReturnStatement&#45;&gt;#20 Identifier (obj)</title>
<path fill="none" stroke="#0000ff" d="M550.175,-86.9735C539.7765,-74.4087 525.7547,-57.4657 514.2108,-43.5168"/>
<polygon fill="#0000ff" stroke="#0000ff" points="516.8185,-41.1782 507.7464,-35.7057 511.4257,-45.6412 516.8185,-41.1782"/>
<text text-anchor="middle" x="560.0934" y="-57.8" font-family="Times,serif" font-size="14.00" fill="#0000ff">argument</text>
</g>
<!-- #25 CFG_F_END 2_anon -->
<g id="node23" class="node">
<title>#25 CFG_F_END 2_anon</title>
<ellipse fill="none" stroke="#ff0000" cx="693.0934" cy="-18" rx="103.1819" ry="18"/>
<text text-anchor="middle" x="693.0934" y="-14.3" font-family="Times,serif" font-size="14.00" fill="#ff0000">#25 CFG_F_END 2_anon</text>
</g>
<!-- #19 ReturnStatement&#45;&gt;#25 CFG_F_END 2_anon -->
<g id="edge31" class="edge">
<title>#19 ReturnStatement&#45;&gt;#25 CFG_F_END 2_anon</title>
<path fill="none" stroke="#ff0000" d="M590.6885,-87.6033C610.1815,-74.3542 637.2174,-55.9782 658.6151,-41.4345"/>
<polygon fill="#ff0000" stroke="#ff0000" points="660.801,-44.1808 667.104,-35.6647 656.866,-38.3914 660.801,-44.1808"/>
</g>
<!-- #10 Identifier (obj) -->
<g id="node24" class="node">
<title>#10 Identifier (obj)</title>
<ellipse fill="none" stroke="#000000" cx="1385.0934" cy="-105" rx="78.7863" ry="18"/>
<text text-anchor="middle" x="1385.0934" y="-101.3" font-family="Times,serif" font-size="14.00" fill="#000000">#10 Identifier (obj)</text>
</g>
<!-- #9 MemberExpression&#45;&gt;#10 Identifier (obj) -->
<g id="edge32" class="edge">
<title>#9 MemberExpression&#45;&gt;#10 Identifier (obj)</title>
<path fill="none" stroke="#0000ff" d="M1268.7408,-174.8116C1291.5279,-161.1393 1323.573,-141.9122 1348.2653,-127.0969"/>
<polygon fill="#0000ff" stroke="#0000ff" points="1350.2248,-130.0029 1356.999,-121.8567 1346.6233,-124.0004 1350.2248,-130.0029"/>
<text text-anchor="middle" x="1338.0934" y="-144.8" font-family="Times,serif" font-size="14.00" fill="#0000ff">object</text>
</g>
<!-- #11 Identifier (x) -->
<g id="node25" class="node">
<title>#11 Identifier (x)</title>
<ellipse fill="none" stroke="#000000" cx="1217.0934" cy="-105" rx="71.4873" ry="18"/>
<text text-anchor="middle" x="1217.0934" y="-101.3" font-family="Times,serif" font-size="14.00" fill="#000000">#11 Identifier (x)</text>
</g>
<!-- #9 MemberExpression&#45;&gt;#11 Identifier (x) -->
<g id="edge33" class="edge">
<title>#9 MemberExpression&#45;&gt;#11 Identifier (x)</title>
<path fill="none" stroke="#0000ff" d="M1235.3278,-173.9735C1232.1823,-162.0751 1227.9988,-146.2508 1224.4324,-132.7606"/>
<polygon fill="#0000ff" stroke="#0000ff" points="1227.7926,-131.7766 1221.8529,-123.0034 1221.0251,-133.5658 1227.7926,-131.7766"/>
<text text-anchor="middle" x="1252.0934" y="-144.8" font-family="Times,serif" font-size="14.00" fill="#0000ff">property</text>
</g>
<!-- #15 MemberExpression -->
<g id="node26" class="node">
<title>#15 MemberExpression</title>
<ellipse fill="none" stroke="#000000" cx="1009.0934" cy="-105" rx="96.3833" ry="18"/>
<text text-anchor="middle" x="1009.0934" y="-101.3" font-family="Times,serif" font-size="14.00" fill="#000000">#15 MemberExpression</text>
</g>
<!-- #14 AssignmentExpression&#45;&gt;#15 MemberExpression -->
<g id="edge34" class="edge">
<title>#14 AssignmentExpression&#45;&gt;#15 MemberExpression</title>
<path fill="none" stroke="#0000ff" d="M925.5951,-174.1843C941.1666,-161.2823 962.4062,-143.6837 979.5667,-129.465"/>
<polygon fill="#0000ff" stroke="#0000ff" points="982.1533,-131.8672 987.6205,-122.7919 977.6872,-126.477 982.1533,-131.8672"/>
<text text-anchor="middle" x="971.5934" y="-144.8" font-family="Times,serif" font-size="14.00" fill="#0000ff">left</text>
</g>
<!-- #18 Literal -->
<g id="node27" class="node">
<title>#18 Literal</title>
<ellipse fill="none" stroke="#000000" cx="845.0934" cy="-105" rx="50.0912" ry="18"/>
<text text-anchor="middle" x="845.0934" y="-101.3" font-family="Times,serif" font-size="14.00" fill="#000000">#18 Literal</text>
</g>
<!-- #14 AssignmentExpression&#45;&gt;#18 Literal -->
<g id="edge35" class="edge">
<title>#14 AssignmentExpression&#45;&gt;#18 Literal</title>
<path fill="none" stroke="#0000ff" d="M891.8686,-173.9735C883.5068,-161.6435 872.286,-145.0975 862.9305,-131.3021"/>
<polygon fill="#0000ff" stroke="#0000ff" points="865.6102,-129.0176 857.1007,-122.7057 859.8167,-132.9465 865.6102,-129.0176"/>
<text text-anchor="middle" x="891.0934" y="-144.8" font-family="Times,serif" font-size="14.00" fill="#0000ff">right</text>
</g>
<!-- #30 24.obj&#45;o5&#45;&gt;#19 ReturnStatement -->
<g id="edge36" class="edge">
<title>#30 24.obj&#45;o5&#45;&gt;#19 ReturnStatement</title>
<path fill="none" stroke="#006400" d="M565.0934,-173.9735C565.0934,-162.1918 565.0934,-146.5607 565.0934,-133.1581"/>
<polygon fill="#006400" stroke="#006400" points="568.5935,-133.0033 565.0934,-123.0034 561.5935,-133.0034 568.5935,-133.0033"/>
<text text-anchor="middle" x="590.0934" y="-144.8" font-family="Times,serif" font-size="14.00" fill="#006400">VAR obj</text>
</g>
<!-- #16 Identifier (obj) -->
<g id="node28" class="node">
<title>#16 Identifier (obj)</title>
<ellipse fill="none" stroke="#000000" cx="913.0934" cy="-18" rx="78.7863" ry="18"/>
<text text-anchor="middle" x="913.0934" y="-14.3" font-family="Times,serif" font-size="14.00" fill="#000000">#16 Identifier (obj)</text>
</g>
<!-- #15 MemberExpression&#45;&gt;#16 Identifier (obj) -->
<g id="edge37" class="edge">
<title>#15 MemberExpression&#45;&gt;#16 Identifier (obj)</title>
<path fill="none" stroke="#0000ff" d="M989.2022,-86.9735C975.0783,-74.1738 955.9412,-56.8308 940.3904,-42.7379"/>
<polygon fill="#0000ff" stroke="#0000ff" points="942.391,-39.8275 932.6307,-35.7057 937.6903,-45.0144 942.391,-39.8275"/>
<text text-anchor="middle" x="983.0934" y="-57.8" font-family="Times,serif" font-size="14.00" fill="#0000ff">object</text>
</g>
<!-- #17 Identifier (y) -->
<g id="node29" class="node">
<title>#17 Identifier (y)</title>
<ellipse fill="none" stroke="#000000" cx="1081.0934" cy="-18" rx="71.4873" ry="18"/>
<text text-anchor="middle" x="1081.0934" y="-14.3" font-family="Times,serif" font-size="14.00" fill="#000000">#17 Identifier (y)</text>
</g>
<!-- #15 MemberExpression&#45;&gt;#17 Identifier (y) -->
<g id="edge38" class="edge">
<title>#15 MemberExpression&#45;&gt;#17 Identifier (y)</title>
<path fill="none" stroke="#0000ff" d="M1024.0119,-86.9735C1034.4104,-74.4087 1048.4322,-57.4657 1059.976,-43.5168"/>
<polygon fill="#0000ff" stroke="#0000ff" points="1062.7611,-45.6412 1066.4404,-35.7057 1057.3683,-41.1782 1062.7611,-45.6412"/>
<text text-anchor="middle" x="1072.0934" y="-57.8" font-family="Times,serif" font-size="14.00" fill="#0000ff">property</text>
</g>
</g>
</svg>
