<?xml version="1.0" encoding="UTF-8" standalone="no"?>
<!DOCTYPE svg PUBLIC "-//W3C//DTD SVG 1.1//EN"
 "http://www.w3.org/Graphics/SVG/1.1/DTD/svg11.dtd">
<!-- Generated by graphviz version 2.40.1 (20161225.0304)
 -->
<!-- Title: G Pages: 1 -->
<svg width="774pt" height="552pt"
 viewBox="0.00 0.00 774.13 552.00" xmlns="http://www.w3.org/2000/svg" xmlns:xlink="http://www.w3.org/1999/xlink">
<g id="graph0" class="graph" transform="scale(1 1) rotate(0) translate(4 548)">
<title>G</title>
<polygon fill="#ffffff" stroke="transparent" points="-4,4 -4,-548 770.1344,-548 770.1344,4 -4,4"/>
<!-- #0 Program -->
<g id="node1" class="node">
<title>#0 Program</title>
<ellipse fill="none" stroke="#000000" cx="246.3431" cy="-526" rx="52.7911" ry="18"/>
<text text-anchor="middle" x="246.3431" y="-522.3" font-family="Times,serif" font-size="14.00" fill="#000000">#0 Program</text>
</g>
<!-- #1 Function (f) -->
<g id="node2" class="node">
<title>#1 Function (f)</title>
<ellipse fill="none" stroke="#000000" cx="340.3431" cy="-439" rx="64.189" ry="18"/>
<text text-anchor="middle" x="340.3431" y="-435.3" font-family="Times,serif" font-size="14.00" fill="#000000">#1 Function (f)</text>
</g>
<!-- #0 Program&#45;&gt;#1 Function (f) -->
<g id="edge1" class="edge">
<title>#0 Program&#45;&gt;#1 Function (f)</title>
<path fill="none" stroke="#0000ff" d="M264.9145,-508.8116C278.8567,-495.9077 298.145,-478.0557 313.7264,-463.6346"/>
<polygon fill="#0000ff" stroke="#0000ff" points="316.5269,-465.8117 321.4886,-456.4505 311.7721,-460.6744 316.5269,-465.8117"/>
<text text-anchor="middle" x="302.8431" y="-478.8" font-family="Times,serif" font-size="14.00" fill="#0000ff">1</text>
</g>
<!-- #7 BlockStatement -->
<g id="node6" class="node">
<title>#7 BlockStatement</title>
<ellipse fill="none" stroke="#000000" cx="237.3431" cy="-352" rx="78.7863" ry="18"/>
<text text-anchor="middle" x="237.3431" y="-348.3" font-family="Times,serif" font-size="14.00" fill="#000000">#7 BlockStatement</text>
</g>
<!-- #1 Function (f)&#45;&gt;#7 BlockStatement -->
<g id="edge4" class="edge">
<title>#1 Function (f)&#45;&gt;#7 BlockStatement</title>
<path fill="none" stroke="#0000ff" d="M319.9937,-421.8116C304.5764,-408.7893 283.1932,-390.7277 266.0394,-376.2386"/>
<polygon fill="#0000ff" stroke="#0000ff" points="267.9009,-373.2295 258.0029,-369.4505 263.3839,-378.5771 267.9009,-373.2295"/>
<text text-anchor="middle" x="310.8431" y="-391.8" font-family="Times,serif" font-size="14.00" fill="#0000ff">block</text>
</g>
<!-- #9 CFG_F_END __main__ -->
<g id="node7" class="node">
<title>#9 CFG_F_END __main__</title>
<ellipse fill="none" stroke="#ff0000" cx="442.3431" cy="-352" rx="108.5808" ry="18"/>
<text text-anchor="middle" x="442.3431" y="-348.3" font-family="Times,serif" font-size="14.00" fill="#ff0000">#9 CFG_F_END __main__</text>
</g>
<!-- #1 Function (f)&#45;&gt;#9 CFG_F_END __main__ -->
<g id="edge5" class="edge">
<title>#1 Function (f)&#45;&gt;#9 CFG_F_END __main__</title>
<path fill="none" stroke="#ff0000" d="M360.4951,-421.8116C375.6628,-408.8744 396.6617,-390.9636 413.5918,-376.5232"/>
<polygon fill="#ff0000" stroke="#ff0000" points="416.1958,-378.9024 421.5328,-369.75 411.6531,-373.5766 416.1958,-378.9024"/>
</g>
<!-- #8 CFG_F_START __main__ -->
<g id="node3" class="node">
<title>#8 CFG_F_START __main__</title>
<ellipse fill="none" stroke="#ff0000" cx="435.3431" cy="-526" rx="118.0794" ry="18"/>
<text text-anchor="middle" x="435.3431" y="-522.3" font-family="Times,serif" font-size="14.00" fill="#ff0000">#8 CFG_F_START __main__</text>
</g>
<!-- #8 CFG_F_START __main__&#45;&gt;#1 Function (f) -->
<g id="edge2" class="edge">
<title>#8 CFG_F_START __main__&#45;&gt;#1 Function (f)</title>
<path fill="none" stroke="#ff0000" d="M415.6591,-507.9735C401.5898,-495.089 382.4935,-477.6009 367.0505,-463.4583"/>
<polygon fill="#ff0000" stroke="#ff0000" points="369.0923,-460.5823 359.3537,-456.4097 364.3647,-465.7446 369.0923,-460.5823"/>
</g>
<!-- #10 CFG_F_START 1_f -->
<g id="node4" class="node">
<title>#10 CFG_F_START 1_f</title>
<ellipse fill="none" stroke="#ff0000" cx="667.3431" cy="-352" rx="98.5829" ry="18"/>
<text text-anchor="middle" x="667.3431" y="-348.3" font-family="Times,serif" font-size="14.00" fill="#ff0000">#10 CFG_F_START 1_f</text>
</g>
<!-- #2 Variable (x) -->
<g id="node5" class="node">
<title>#2 Variable (x)</title>
<ellipse fill="none" stroke="#000000" cx="327.3431" cy="-265" rx="64.9885" ry="18"/>
<text text-anchor="middle" x="327.3431" y="-261.3" font-family="Times,serif" font-size="14.00" fill="#000000">#2 Variable (x)</text>
</g>
<!-- #10 CFG_F_START 1_f&#45;&gt;#2 Variable (x) -->
<g id="edge3" class="edge">
<title>#10 CFG_F_START 1_f&#45;&gt;#2 Variable (x)</title>
<path fill="none" stroke="#ff0000" d="M609.6668,-337.2416C546.9929,-321.2045 447.4518,-295.7337 384.846,-279.714"/>
<polygon fill="#ff0000" stroke="#ff0000" points="385.6822,-276.3152 375.1266,-277.2269 383.9468,-283.0967 385.6822,-276.3152"/>
</g>
<!-- #3 ExpressionStatement -->
<g id="node8" class="node">
<title>#3 ExpressionStatement</title>
<ellipse fill="none" stroke="#000000" cx="249.3431" cy="-192" rx="96.6831" ry="18"/>
<text text-anchor="middle" x="249.3431" y="-188.3" font-family="Times,serif" font-size="14.00" fill="#000000">#3 ExpressionStatement</text>
</g>
<!-- #2 Variable (x)&#45;&gt;#3 ExpressionStatement -->
<g id="edge6" class="edge">
<title>#2 Variable (x)&#45;&gt;#3 ExpressionStatement</title>
<path fill="none" stroke="#ff0000" d="M308.8582,-247.7C298.9979,-238.4717 286.6917,-226.9544 275.8327,-216.7916"/>
<polygon fill="#ff0000" stroke="#ff0000" points="277.9301,-213.9607 268.2372,-209.6829 273.1468,-219.0715 277.9301,-213.9607"/>
</g>
<!-- #7 BlockStatement&#45;&gt;#2 Variable (x) -->
<g id="edge7" class="edge">
<title>#7 BlockStatement&#45;&gt;#2 Variable (x)</title>
<path fill="none" stroke="#0000ff" d="M255.556,-334.3943C268.8528,-321.5407 287.0556,-303.9446 301.8041,-289.6878"/>
<polygon fill="#0000ff" stroke="#0000ff" points="304.4001,-292.0463 309.1574,-282.5796 299.5349,-287.0133 304.4001,-292.0463"/>
<text text-anchor="middle" x="291.8431" y="-304.8" font-family="Times,serif" font-size="14.00" fill="#0000ff">1</text>
</g>
<!-- #7 BlockStatement&#45;&gt;#3 ExpressionStatement -->
<g id="edge8" class="edge">
<title>#7 BlockStatement&#45;&gt;#3 ExpressionStatement</title>
<path fill="none" stroke="#0000ff" d="M238.6964,-333.957C240.767,-306.3487 244.74,-253.3746 247.2037,-220.5255"/>
<polygon fill="#0000ff" stroke="#0000ff" points="250.7187,-220.4564 247.9764,-210.2226 243.7383,-219.9328 250.7187,-220.4564"/>
<text text-anchor="middle" x="248.8431" y="-261.3" font-family="Times,serif" font-size="14.00" fill="#0000ff">2</text>
</g>
<!-- #4 CallExpression -->
<g id="node9" class="node">
<title>#4 CallExpression</title>
<ellipse fill="none" stroke="#000000" cx="158.3431" cy="-105" rx="75.2868" ry="18"/>
<text text-anchor="middle" x="158.3431" y="-101.3" font-family="Times,serif" font-size="14.00" fill="#000000">#4 CallExpression</text>
</g>
<!-- #3 ExpressionStatement&#45;&gt;#4 CallExpression -->
<g id="edge9" class="edge">
<title>#3 ExpressionStatement&#45;&gt;#4 CallExpression</title>
<path fill="none" stroke="#0000ff" d="M230.4879,-173.9735C217.0996,-161.1738 198.9592,-143.8308 184.2184,-129.7379"/>
<polygon fill="#0000ff" stroke="#0000ff" points="186.5097,-127.0863 176.8629,-122.7057 181.6724,-132.146 186.5097,-127.0863"/>
<text text-anchor="middle" x="238.3431" y="-144.8" font-family="Times,serif" font-size="14.00" fill="#0000ff">expression</text>
</g>
<!-- #11 CFG_F_END 1_f -->
<g id="node10" class="node">
<title>#11 CFG_F_END 1_f</title>
<ellipse fill="none" stroke="#ff0000" cx="340.3431" cy="-105" rx="89.0842" ry="18"/>
<text text-anchor="middle" x="340.3431" y="-101.3" font-family="Times,serif" font-size="14.00" fill="#ff0000">#11 CFG_F_END 1_f</text>
</g>
<!-- #3 ExpressionStatement&#45;&gt;#11 CFG_F_END 1_f -->
<g id="edge10" class="edge">
<title>#3 ExpressionStatement&#45;&gt;#11 CFG_F_END 1_f</title>
<path fill="none" stroke="#ff0000" d="M268.1984,-173.9735C281.5866,-161.1738 299.727,-143.8308 314.4679,-129.7379"/>
<polygon fill="#ff0000" stroke="#ff0000" points="317.0139,-132.146 321.8234,-122.7057 312.1766,-127.0863 317.0139,-132.146"/>
</g>
<!-- #5 Identifier (eval) -->
<g id="node11" class="node">
<title>#5 Identifier (eval)</title>
<ellipse fill="none" stroke="#000000" cx="77.3431" cy="-18" rx="77.1866" ry="18"/>
<text text-anchor="middle" x="77.3431" y="-14.3" font-family="Times,serif" font-size="14.00" fill="#000000">#5 Identifier (eval)</text>
</g>
<!-- #4 CallExpression&#45;&gt;#5 Identifier (eval) -->
<g id="edge11" class="edge">
<title>#4 CallExpression&#45;&gt;#5 Identifier (eval)</title>
<path fill="none" stroke="#0000ff" d="M141.9516,-87.3943C130.1723,-74.7424 114.115,-57.4957 100.9555,-43.3614"/>
<polygon fill="#0000ff" stroke="#0000ff" points="103.3642,-40.8122 93.9883,-35.8782 98.2409,-45.5821 103.3642,-40.8122"/>
<text text-anchor="middle" x="139.3431" y="-57.8" font-family="Times,serif" font-size="14.00" fill="#0000ff">callee</text>
</g>
<!-- #6 Identifier (x) -->
<g id="node12" class="node">
<title>#6 Identifier (x)</title>
<ellipse fill="none" stroke="#000000" cx="240.3431" cy="-18" rx="67.6881" ry="18"/>
<text text-anchor="middle" x="240.3431" y="-14.3" font-family="Times,serif" font-size="14.00" fill="#000000">#6 Identifier (x)</text>
</g>
<!-- #4 CallExpression&#45;&gt;#6 Identifier (x) -->
<g id="edge12" class="edge">
<title>#4 CallExpression&#45;&gt;#6 Identifier (x)</title>
<path fill="none" stroke="#0000ff" d="M174.9371,-87.3943C186.9408,-74.6586 203.3328,-57.2671 216.7036,-43.081"/>
<polygon fill="#0000ff" stroke="#0000ff" points="219.462,-45.2573 223.7739,-35.5796 214.368,-40.4561 219.462,-45.2573"/>
<text text-anchor="middle" x="218.3431" y="-57.8" font-family="Times,serif" font-size="14.00" fill="#0000ff">arg 1</text>
</g>
</g>
</svg>
