<?xml version="1.0" encoding="UTF-8" standalone="no"?>
<!DOCTYPE svg PUBLIC "-//W3C//DTD SVG 1.1//EN"
 "http://www.w3.org/Graphics/SVG/1.1/DTD/svg11.dtd">
<!-- Generated by graphviz version 2.40.1 (20161225.0304)
 -->
<!-- Title: G Pages: 1 -->
<svg width="651pt" height="465pt"
 viewBox="0.00 0.00 650.88 465.00" xmlns="http://www.w3.org/2000/svg" xmlns:xlink="http://www.w3.org/1999/xlink">
<g id="graph0" class="graph" transform="scale(1 1) rotate(0) translate(4 461)">
<title>G</title>
<polygon fill="#ffffff" stroke="transparent" points="-4,4 -4,-461 646.8812,-461 646.8812,4 -4,4"/>
<!-- #16 CFG_F_START __main__ -->
<g id="node1" class="node">
<title>#16 CFG_F_START __main__</title>
<ellipse fill="none" stroke="#ff0000" cx="129.09" cy="-439" rx="122.6784" ry="18"/>
<text text-anchor="middle" x="129.09" y="-435.3" font-family="Times,serif" font-size="14.00" fill="#ff0000">#16 CFG_F_START __main__</text>
</g>
<!-- #1 Function (f) -->
<g id="node2" class="node">
<title>#1 Function (f)</title>
<ellipse fill="none" stroke="#000000" cx="129.09" cy="-366" rx="64.189" ry="18"/>
<text text-anchor="middle" x="129.09" y="-362.3" font-family="Times,serif" font-size="14.00" fill="#000000">#1 Function (f)</text>
</g>
<!-- #16 CFG_F_START __main__&#45;&gt;#1 Function (f) -->
<g id="edge1" class="edge">
<title>#16 CFG_F_START __main__&#45;&gt;#1 Function (f)</title>
<path fill="none" stroke="#ff0000" d="M129.09,-420.9551C129.09,-412.8828 129.09,-403.1764 129.09,-394.1817"/>
<polygon fill="#ff0000" stroke="#ff0000" points="132.5901,-394.0903 129.09,-384.0904 125.5901,-394.0904 132.5901,-394.0903"/>
</g>
<!-- #17 CFG_F_END __main__ -->
<g id="node5" class="node">
<title>#17 CFG_F_END __main__</title>
<ellipse fill="none" stroke="#ff0000" cx="113.09" cy="-279" rx="113.18" ry="18"/>
<text text-anchor="middle" x="113.09" y="-275.3" font-family="Times,serif" font-size="14.00" fill="#ff0000">#17 CFG_F_END __main__</text>
</g>
<!-- #1 Function (f)&#45;&gt;#17 CFG_F_END __main__ -->
<g id="edge3" class="edge">
<title>#1 Function (f)&#45;&gt;#17 CFG_F_END __main__</title>
<path fill="none" stroke="#ff0000" d="M125.7748,-347.9735C123.608,-336.1918 120.7333,-320.5607 118.2685,-307.1581"/>
<polygon fill="#ff0000" stroke="#ff0000" points="121.652,-306.2053 116.4009,-297.0034 114.7675,-307.4715 121.652,-306.2053"/>
</g>
<!-- #20 PDG_OBJECT o1 -->
<g id="node6" class="node">
<title>#20 PDG_OBJECT o1</title>
<ellipse fill="none" stroke="#006400" cx="336.09" cy="-279" rx="91.784" ry="18"/>
<text text-anchor="middle" x="336.09" y="-275.3" font-family="Times,serif" font-size="14.00" fill="#006400">#20 PDG_OBJECT o1</text>
</g>
<!-- #1 Function (f)&#45;&gt;#20 PDG_OBJECT o1 -->
<g id="edge4" class="edge">
<title>#1 Function (f)&#45;&gt;#20 PDG_OBJECT o1</title>
<path fill="none" stroke="#006400" d="M165.1466,-350.8458C199.2108,-336.5289 250.5386,-314.9564 288.0608,-299.1862"/>
<polygon fill="#006400" stroke="#006400" points="289.4212,-302.4111 297.2839,-295.3098 286.7089,-295.9578 289.4212,-302.4111"/>
<text text-anchor="middle" x="280.09" y="-318.8" font-family="Times,serif" font-size="14.00" fill="#006400">CREATE o1</text>
</g>
<!-- #18 CFG_F_START 1_f -->
<g id="node3" class="node">
<title>#18 CFG_F_START 1_f</title>
<ellipse fill="none" stroke="#ff0000" cx="544.09" cy="-279" rx="98.5829" ry="18"/>
<text text-anchor="middle" x="544.09" y="-275.3" font-family="Times,serif" font-size="14.00" fill="#ff0000">#18 CFG_F_START 1_f</text>
</g>
<!-- #3» x = req.body; -->
<g id="node4" class="node">
<title>#3» x = req.body;</title>
<ellipse fill="none" stroke="#000000" cx="489.09" cy="-192" rx="74.9875" ry="18"/>
<text text-anchor="middle" x="489.09" y="-188.3" font-family="Times,serif" font-size="14.00" fill="#000000">#3» x = req.body;</text>
</g>
<!-- #18 CFG_F_START 1_f&#45;&gt;#3» x = req.body; -->
<g id="edge2" class="edge">
<title>#18 CFG_F_START 1_f&#45;&gt;#3» x = req.body;</title>
<path fill="none" stroke="#ff0000" d="M532.6939,-260.9735C524.9507,-248.7252 514.5774,-232.3165 505.8912,-218.5766"/>
<polygon fill="#ff0000" stroke="#ff0000" points="508.7734,-216.5857 500.4714,-210.0034 502.8566,-220.3262 508.7734,-216.5857"/>
</g>
<!-- #9» x.a = 2; -->
<g id="node7" class="node">
<title>#9» x.a = 2;</title>
<ellipse fill="none" stroke="#000000" cx="489.09" cy="-105" rx="53.8905" ry="18"/>
<text text-anchor="middle" x="489.09" y="-101.3" font-family="Times,serif" font-size="14.00" fill="#000000">#9» x.a = 2;</text>
</g>
<!-- #3» x = req.body;&#45;&gt;#9» x.a = 2; -->
<g id="edge5" class="edge">
<title>#3» x = req.body;&#45;&gt;#9» x.a = 2;</title>
<path fill="none" stroke="#ff0000" d="M489.09,-173.9735C489.09,-162.1918 489.09,-146.5607 489.09,-133.1581"/>
<polygon fill="#ff0000" stroke="#ff0000" points="492.5901,-133.0033 489.09,-123.0034 485.5901,-133.0034 492.5901,-133.0033"/>
</g>
<!-- #20 PDG_OBJECT o1&#45;&gt;#3» x = req.body; -->
<g id="edge6" class="edge">
<title>#20 PDG_OBJECT o1&#45;&gt;#3» x = req.body;</title>
<path fill="none" stroke="#006400" d="M364.9605,-261.7752C381.834,-251.7836 403.584,-239.0336 423.09,-228 431.6059,-223.1829 440.7936,-218.1002 449.5294,-213.3204"/>
<polygon fill="#006400" stroke="#006400" points="451.3173,-216.3321 458.4224,-208.4729 447.9669,-210.1859 451.3173,-216.3321"/>
<text text-anchor="middle" x="466.09" y="-231.8" font-family="Times,serif" font-size="14.00" fill="#006400">LOOKUP body</text>
</g>
<!-- #21 PDG_OBJECT o2 -->
<g id="node8" class="node">
<title>#21 PDG_OBJECT o2</title>
<ellipse fill="none" stroke="#006400" cx="336.09" cy="-18" rx="91.784" ry="18"/>
<text text-anchor="middle" x="336.09" y="-14.3" font-family="Times,serif" font-size="14.00" fill="#006400">#21 PDG_OBJECT o2</text>
</g>
<!-- #20 PDG_OBJECT o1&#45;&gt;#21 PDG_OBJECT o2 -->
<g id="edge7" class="edge">
<title>#20 PDG_OBJECT o1&#45;&gt;#21 PDG_OBJECT o2</title>
<path fill="none" stroke="#006400" d="M336.09,-260.647C336.09,-215.8139 336.09,-100.4607 336.09,-46.5557"/>
<polygon fill="#006400" stroke="#006400" points="339.5901,-46.3327 336.09,-36.3327 332.5901,-46.3328 339.5901,-46.3327"/>
<text text-anchor="middle" x="393.09" y="-144.8" font-family="Times,serif" font-size="14.00" fill="#006400">SUB_OBJECT body</text>
</g>
<!-- #9» x.a = 2;&#45;&gt;#21 PDG_OBJECT o2 -->
<g id="edge9" class="edge">
<title>#9» x.a = 2;&#45;&gt;#21 PDG_OBJECT o2</title>
<path fill="none" stroke="#006400" d="M461.7366,-89.4461C437.5656,-75.7018 402.0428,-55.5026 374.9295,-40.0852"/>
<polygon fill="#006400" stroke="#006400" points="376.5084,-36.9568 366.0854,-35.0562 373.0483,-43.0418 376.5084,-36.9568"/>
<text text-anchor="middle" x="449.09" y="-57.8" font-family="Times,serif" font-size="14.00" fill="#006400">WRITE a</text>
</g>
<!-- #19 CFG_F_END 1_f -->
<g id="node9" class="node">
<title>#19 CFG_F_END 1_f</title>
<ellipse fill="none" stroke="#ff0000" cx="535.09" cy="-18" rx="89.0842" ry="18"/>
<text text-anchor="middle" x="535.09" y="-14.3" font-family="Times,serif" font-size="14.00" fill="#ff0000">#19 CFG_F_END 1_f</text>
</g>
<!-- #9» x.a = 2;&#45;&gt;#19 CFG_F_END 1_f -->
<g id="edge8" class="edge">
<title>#9» x.a = 2;&#45;&gt;#19 CFG_F_END 1_f</title>
<path fill="none" stroke="#ff0000" d="M498.6212,-86.9735C505.0357,-74.8418 513.6081,-58.6287 520.83,-44.9698"/>
<polygon fill="#ff0000" stroke="#ff0000" points="523.9908,-46.4797 525.5709,-36.0034 517.8026,-43.2077 523.9908,-46.4797"/>
</g>
</g>
</svg>
