<?xml version="1.0" encoding="UTF-8" standalone="no"?>
<!DOCTYPE svg PUBLIC "-//W3C//DTD SVG 1.1//EN"
 "http://www.w3.org/Graphics/SVG/1.1/DTD/svg11.dtd">
<!-- Generated by graphviz version 2.40.1 (20161225.0304)
 -->
<!-- Title: G Pages: 1 -->
<svg width="1501pt" height="1001pt"
 viewBox="0.00 0.00 1501.24 1001.00" xmlns="http://www.w3.org/2000/svg" xmlns:xlink="http://www.w3.org/1999/xlink">
<g id="graph0" class="graph" transform="scale(1 1) rotate(0) translate(4 997)">
<title>G</title>
<polygon fill="#ffffff" stroke="transparent" points="-4,4 -4,-997 1497.2416,-997 1497.2416,4 -4,4"/>
<!-- #0 Program -->
<g id="node1" class="node">
<title>#0 Program</title>
<ellipse fill="none" stroke="#000000" cx="661.2416" cy="-975" rx="52.7911" ry="18"/>
<text text-anchor="middle" x="661.2416" y="-971.3" font-family="Times,serif" font-size="14.00" fill="#000000">#0 Program</text>
</g>
<!-- #1 Variable (f) -->
<g id="node2" class="node">
<title>#1 Variable (f)</title>
<ellipse fill="none" stroke="#000000" cx="810.2416" cy="-888" rx="63.8893" ry="18"/>
<text text-anchor="middle" x="810.2416" y="-884.3" font-family="Times,serif" font-size="14.00" fill="#000000">#1 Variable (f)</text>
</g>
<!-- #0 Program&#45;&gt;#1 Variable (f) -->
<g id="edge1" class="edge">
<title>#0 Program&#45;&gt;#1 Variable (f)</title>
<path fill="none" stroke="#0000ff" d="M687.8799,-959.4461C711.795,-945.4822 747.1212,-924.8556 773.6766,-909.3501"/>
<polygon fill="#0000ff" stroke="#0000ff" points="775.4461,-912.3699 782.317,-904.305 771.9164,-906.3249 775.4461,-912.3699"/>
<text text-anchor="middle" x="748.7416" y="-927.8" font-family="Times,serif" font-size="14.00" fill="#0000ff">1</text>
</g>
<!-- #23 ExpressionStatement -->
<g id="node3" class="node">
<title>#23 ExpressionStatement</title>
<ellipse fill="none" stroke="#000000" cx="661.2416" cy="-801" rx="100.9827" ry="18"/>
<text text-anchor="middle" x="661.2416" y="-797.3" font-family="Times,serif" font-size="14.00" fill="#000000">#23 ExpressionStatement</text>
</g>
<!-- #0 Program&#45;&gt;#23 ExpressionStatement -->
<g id="edge2" class="edge">
<title>#0 Program&#45;&gt;#23 ExpressionStatement</title>
<path fill="none" stroke="#0000ff" d="M661.2416,-956.7078C661.2416,-926.3436 661.2416,-865.3226 661.2416,-829.3464"/>
<polygon fill="#0000ff" stroke="#0000ff" points="664.7417,-829.0471 661.2416,-819.0471 657.7417,-829.0471 664.7417,-829.0471"/>
<text text-anchor="middle" x="664.7416" y="-884.3" font-family="Times,serif" font-size="14.00" fill="#0000ff">2</text>
</g>
<!-- #1 Variable (f)&#45;&gt;#23 ExpressionStatement -->
<g id="edge6" class="edge">
<title>#1 Variable (f)&#45;&gt;#23 ExpressionStatement</title>
<path fill="none" stroke="#ff0000" d="M782.2159,-871.636C758.9145,-858.0304 725.514,-838.5281 699.7099,-823.4613"/>
<polygon fill="#ff0000" stroke="#ff0000" points="701.329,-820.3538 690.9285,-818.3339 697.7993,-826.3988 701.329,-820.3538"/>
</g>
<!-- #2 Function (anon) -->
<g id="node7" class="node">
<title>#2 Function (anon)</title>
<ellipse fill="none" stroke="#000000" cx="896.2416" cy="-801" rx="78.7863" ry="18"/>
<text text-anchor="middle" x="896.2416" y="-797.3" font-family="Times,serif" font-size="14.00" fill="#000000">#2 Function (anon)</text>
</g>
<!-- #1 Variable (f)&#45;&gt;#2 Function (anon) -->
<g id="edge5" class="edge">
<title>#1 Variable (f)&#45;&gt;#2 Function (anon)</title>
<path fill="none" stroke="#0000ff" d="M827.645,-870.3943C840.2343,-857.6586 857.4259,-840.2671 871.4489,-826.081"/>
<polygon fill="#0000ff" stroke="#0000ff" points="874.3232,-828.152 878.8641,-818.5796 869.3449,-823.2309 874.3232,-828.152"/>
<text text-anchor="middle" x="867.7416" y="-840.8" font-family="Times,serif" font-size="14.00" fill="#0000ff">init</text>
</g>
<!-- #24 AssignmentExpression -->
<g id="node8" class="node">
<title>#24 AssignmentExpression</title>
<ellipse fill="none" stroke="#000000" cx="402.2416" cy="-714" rx="107.781" ry="18"/>
<text text-anchor="middle" x="402.2416" y="-710.3" font-family="Times,serif" font-size="14.00" fill="#000000">#24 AssignmentExpression</text>
</g>
<!-- #23 ExpressionStatement&#45;&gt;#24 AssignmentExpression -->
<g id="edge7" class="edge">
<title>#23 ExpressionStatement&#45;&gt;#24 AssignmentExpression</title>
<path fill="none" stroke="#0000ff" d="M613.737,-785.0429C570.3811,-770.4793 506.1949,-748.9187 459.9126,-733.3721"/>
<polygon fill="#0000ff" stroke="#0000ff" points="460.9162,-730.0171 450.3222,-730.1506 458.6872,-736.6527 460.9162,-730.0171"/>
<text text-anchor="middle" x="577.2416" y="-753.8" font-family="Times,serif" font-size="14.00" fill="#0000ff">expression</text>
</g>
<!-- #30 CFG_F_END __main__ -->
<g id="node9" class="node">
<title>#30 CFG_F_END __main__</title>
<ellipse fill="none" stroke="#ff0000" cx="661.2416" cy="-714" rx="113.18" ry="18"/>
<text text-anchor="middle" x="661.2416" y="-710.3" font-family="Times,serif" font-size="14.00" fill="#ff0000">#30 CFG_F_END __main__</text>
</g>
<!-- #23 ExpressionStatement&#45;&gt;#30 CFG_F_END __main__ -->
<g id="edge8" class="edge">
<title>#23 ExpressionStatement&#45;&gt;#30 CFG_F_END __main__</title>
<path fill="none" stroke="#ff0000" d="M661.2416,-782.9735C661.2416,-771.1918 661.2416,-755.5607 661.2416,-742.1581"/>
<polygon fill="#ff0000" stroke="#ff0000" points="664.7417,-742.0033 661.2416,-732.0034 657.7417,-742.0034 664.7417,-742.0033"/>
</g>
<!-- #29 CFG_F_START __main__ -->
<g id="node4" class="node">
<title>#29 CFG_F_START __main__</title>
<ellipse fill="none" stroke="#ff0000" cx="854.2416" cy="-975" rx="122.6784" ry="18"/>
<text text-anchor="middle" x="854.2416" y="-971.3" font-family="Times,serif" font-size="14.00" fill="#ff0000">#29 CFG_F_START __main__</text>
</g>
<!-- #29 CFG_F_START __main__&#45;&gt;#1 Variable (f) -->
<g id="edge3" class="edge">
<title>#29 CFG_F_START __main__&#45;&gt;#1 Variable (f)</title>
<path fill="none" stroke="#ff0000" d="M845.1248,-956.9735C838.9892,-944.8418 830.7895,-928.6287 823.8816,-914.9698"/>
<polygon fill="#ff0000" stroke="#ff0000" points="826.9832,-913.3474 819.3468,-906.0034 820.7367,-916.5066 826.9832,-913.3474"/>
</g>
<!-- #31 CFG_F_START 2_anon -->
<g id="node5" class="node">
<title>#31 CFG_F_START 2_anon</title>
<ellipse fill="none" stroke="#ff0000" cx="1110.2416" cy="-714" rx="113.18" ry="18"/>
<text text-anchor="middle" x="1110.2416" y="-710.3" font-family="Times,serif" font-size="14.00" fill="#ff0000">#31 CFG_F_START 2_anon</text>
</g>
<!-- #4 Variable (a) -->
<g id="node6" class="node">
<title>#4 Variable (a)</title>
<ellipse fill="none" stroke="#000000" cx="1110.2416" cy="-627" rx="64.189" ry="18"/>
<text text-anchor="middle" x="1110.2416" y="-623.3" font-family="Times,serif" font-size="14.00" fill="#000000">#4 Variable (a)</text>
</g>
<!-- #31 CFG_F_START 2_anon&#45;&gt;#4 Variable (a) -->
<g id="edge4" class="edge">
<title>#31 CFG_F_START 2_anon&#45;&gt;#4 Variable (a)</title>
<path fill="none" stroke="#ff0000" d="M1110.2416,-695.9735C1110.2416,-684.1918 1110.2416,-668.5607 1110.2416,-655.1581"/>
<polygon fill="#ff0000" stroke="#ff0000" points="1113.7417,-655.0033 1110.2416,-645.0034 1106.7417,-655.0034 1113.7417,-655.0033"/>
</g>
<!-- #5 ObjectExpression -->
<g id="node10" class="node">
<title>#5 ObjectExpression</title>
<ellipse fill="none" stroke="#000000" cx="1028.2416" cy="-540" rx="84.485" ry="18"/>
<text text-anchor="middle" x="1028.2416" y="-536.3" font-family="Times,serif" font-size="14.00" fill="#000000">#5 ObjectExpression</text>
</g>
<!-- #4 Variable (a)&#45;&gt;#5 ObjectExpression -->
<g id="edge9" class="edge">
<title>#4 Variable (a)&#45;&gt;#5 ObjectExpression</title>
<path fill="none" stroke="#0000ff" d="M1093.6477,-609.3943C1081.723,-596.7424 1065.4675,-579.4957 1052.1455,-565.3614"/>
<polygon fill="#0000ff" stroke="#0000ff" points="1054.4982,-562.7547 1045.0923,-557.8782 1049.4042,-567.5559 1054.4982,-562.7547"/>
<text text-anchor="middle" x="1082.7416" y="-579.8" font-family="Times,serif" font-size="14.00" fill="#0000ff">init</text>
</g>
<!-- #6 ExpressionStatement -->
<g id="node11" class="node">
<title>#6 ExpressionStatement</title>
<ellipse fill="none" stroke="#000000" cx="1227.2416" cy="-540" rx="96.6831" ry="18"/>
<text text-anchor="middle" x="1227.2416" y="-536.3" font-family="Times,serif" font-size="14.00" fill="#000000">#6 ExpressionStatement</text>
</g>
<!-- #4 Variable (a)&#45;&gt;#6 ExpressionStatement -->
<g id="edge10" class="edge">
<title>#4 Variable (a)&#45;&gt;#6 ExpressionStatement</title>
<path fill="none" stroke="#ff0000" d="M1119.9914,-609.1092C1126.5543,-598.3876 1136.0414,-585.1131 1147.2416,-576 1154.6068,-570.0073 1163.1293,-564.7984 1171.8085,-560.3468"/>
<polygon fill="#ff0000" stroke="#ff0000" points="1173.379,-563.4753 1180.868,-555.981 1170.3401,-557.1693 1173.379,-563.4753"/>
</g>
<!-- #34 a&#45;o2 -->
<g id="node12" class="node">
<title>#34 a&#45;o2</title>
<ellipse fill="none" stroke="#006400" cx="1384.2416" cy="-540" rx="42.4939" ry="18"/>
<text text-anchor="middle" x="1384.2416" y="-536.3" font-family="Times,serif" font-size="14.00" fill="#006400">#34 a&#45;o2</text>
</g>
<!-- #4 Variable (a)&#45;&gt;#34 a&#45;o2 -->
<g id="edge11" class="edge">
<title>#4 Variable (a)&#45;&gt;#34 a&#45;o2</title>
<path fill="none" stroke="#006400" d="M1133.0654,-609.9679C1149.7073,-598.4508 1173.2744,-583.9428 1196.2416,-576 1254.2811,-555.9281 1273.5169,-572.2973 1333.2416,-558 1336.5846,-557.1997 1340.0144,-556.2602 1343.4379,-555.2377"/>
<polygon fill="#006400" stroke="#006400" points="1344.5329,-558.5622 1352.9918,-552.1828 1342.4008,-551.8948 1344.5329,-558.5622"/>
<text text-anchor="middle" x="1227.7416" y="-579.8" font-family="Times,serif" font-size="14.00" fill="#006400">CREATE a</text>
</g>
<!-- #3 Identifier (p) -->
<g id="node13" class="node">
<title>#3 Identifier (p)</title>
<ellipse fill="none" stroke="#000000" cx="1309.2416" cy="-714" rx="67.6881" ry="18"/>
<text text-anchor="middle" x="1309.2416" y="-710.3" font-family="Times,serif" font-size="14.00" fill="#000000">#3 Identifier (p)</text>
</g>
<!-- #2 Function (anon)&#45;&gt;#3 Identifier (p) -->
<g id="edge12" class="edge">
<title>#2 Function (anon)&#45;&gt;#3 Identifier (p)</title>
<path fill="none" stroke="#0000ff" d="M956.1296,-789.2107C1023.4122,-775.8473 1135.8321,-753.1638 1232.2416,-732 1237.6053,-730.8226 1243.1727,-729.5736 1248.7492,-728.3043"/>
<polygon fill="#0000ff" stroke="#0000ff" points="1249.7909,-731.6563 1258.7548,-726.0084 1248.2253,-724.8336 1249.7909,-731.6563"/>
<text text-anchor="middle" x="1162.2416" y="-753.8" font-family="Times,serif" font-size="14.00" fill="#0000ff">param 1</text>
</g>
<!-- #22 BlockStatement -->
<g id="node14" class="node">
<title>#22 BlockStatement</title>
<ellipse fill="none" stroke="#000000" cx="896.2416" cy="-714" rx="83.3857" ry="18"/>
<text text-anchor="middle" x="896.2416" y="-710.3" font-family="Times,serif" font-size="14.00" fill="#000000">#22 BlockStatement</text>
</g>
<!-- #2 Function (anon)&#45;&gt;#22 BlockStatement -->
<g id="edge13" class="edge">
<title>#2 Function (anon)&#45;&gt;#22 BlockStatement</title>
<path fill="none" stroke="#0000ff" d="M896.2416,-782.9735C896.2416,-771.1918 896.2416,-755.5607 896.2416,-742.1581"/>
<polygon fill="#0000ff" stroke="#0000ff" points="899.7417,-742.0033 896.2416,-732.0034 892.7417,-742.0034 899.7417,-742.0033"/>
<text text-anchor="middle" x="911.7416" y="-753.8" font-family="Times,serif" font-size="14.00" fill="#0000ff">block</text>
</g>
<!-- #25 MemberExpression -->
<g id="node15" class="node">
<title>#25 MemberExpression</title>
<ellipse fill="none" stroke="#000000" cx="218.2416" cy="-627" rx="96.3833" ry="18"/>
<text text-anchor="middle" x="218.2416" y="-623.3" font-family="Times,serif" font-size="14.00" fill="#000000">#25 MemberExpression</text>
</g>
<!-- #24 AssignmentExpression&#45;&gt;#25 MemberExpression -->
<g id="edge14" class="edge">
<title>#24 AssignmentExpression&#45;&gt;#25 MemberExpression</title>
<path fill="none" stroke="#0000ff" d="M366.3278,-697.019C336.7242,-683.0216 294.5919,-663.1004 262.832,-648.0835"/>
<polygon fill="#0000ff" stroke="#0000ff" points="264.2884,-644.9006 253.7519,-643.7902 261.2962,-651.2289 264.2884,-644.9006"/>
<text text-anchor="middle" x="331.7416" y="-666.8" font-family="Times,serif" font-size="14.00" fill="#0000ff">left</text>
</g>
<!-- #28 Identifier (f) -->
<g id="node16" class="node">
<title>#28 Identifier (f)</title>
<ellipse fill="none" stroke="#000000" cx="402.2416" cy="-627" rx="70.3881" ry="18"/>
<text text-anchor="middle" x="402.2416" y="-623.3" font-family="Times,serif" font-size="14.00" fill="#000000">#28 Identifier (f)</text>
</g>
<!-- #24 AssignmentExpression&#45;&gt;#28 Identifier (f) -->
<g id="edge15" class="edge">
<title>#24 AssignmentExpression&#45;&gt;#28 Identifier (f)</title>
<path fill="none" stroke="#0000ff" d="M402.2416,-695.9735C402.2416,-684.1918 402.2416,-668.5607 402.2416,-655.1581"/>
<polygon fill="#0000ff" stroke="#0000ff" points="405.7417,-655.0033 402.2416,-645.0034 398.7417,-655.0034 405.7417,-655.0033"/>
<text text-anchor="middle" x="415.2416" y="-666.8" font-family="Times,serif" font-size="14.00" fill="#0000ff">right</text>
</g>
<!-- #7 AssignmentExpression -->
<g id="node17" class="node">
<title>#7 AssignmentExpression</title>
<ellipse fill="none" stroke="#000000" cx="750.2416" cy="-453" rx="103.1819" ry="18"/>
<text text-anchor="middle" x="750.2416" y="-449.3" font-family="Times,serif" font-size="14.00" fill="#000000">#7 AssignmentExpression</text>
</g>
<!-- #6 ExpressionStatement&#45;&gt;#7 AssignmentExpression -->
<g id="edge16" class="edge">
<title>#6 ExpressionStatement&#45;&gt;#7 AssignmentExpression</title>
<path fill="none" stroke="#0000ff" d="M1157.8817,-527.3495C1071.3362,-511.5644 923.5706,-484.6135 831.7218,-467.8612"/>
<polygon fill="#0000ff" stroke="#0000ff" points="832.1,-464.3725 821.6342,-466.0213 830.8439,-471.2589 832.1,-464.3725"/>
<text text-anchor="middle" x="1046.2416" y="-492.8" font-family="Times,serif" font-size="14.00" fill="#0000ff">expression</text>
</g>
<!-- #12 Variable (c) -->
<g id="node18" class="node">
<title>#12 Variable (c)</title>
<ellipse fill="none" stroke="#000000" cx="1121.2416" cy="-366" rx="68.7879" ry="18"/>
<text text-anchor="middle" x="1121.2416" y="-362.3" font-family="Times,serif" font-size="14.00" fill="#000000">#12 Variable (c)</text>
</g>
<!-- #6 ExpressionStatement&#45;&gt;#12 Variable (c) -->
<g id="edge17" class="edge">
<title>#6 ExpressionStatement&#45;&gt;#12 Variable (c)</title>
<path fill="none" stroke="#ff0000" d="M1212.8123,-522.0892C1202.1363,-508.4676 1187.5479,-489.0534 1176.2416,-471 1160.2342,-445.4399 1144.5293,-414.7331 1134.0267,-393.1493"/>
<polygon fill="#ff0000" stroke="#ff0000" points="1137.0771,-391.4168 1129.5849,-383.9256 1130.7703,-394.4539 1137.0771,-391.4168"/>
</g>
<!-- #35 a&#45;o3 -->
<g id="node19" class="node">
<title>#35 a&#45;o3</title>
<ellipse fill="none" stroke="#006400" cx="1227.2416" cy="-453" rx="42.4939" ry="18"/>
<text text-anchor="middle" x="1227.2416" y="-449.3" font-family="Times,serif" font-size="14.00" fill="#006400">#35 a&#45;o3</text>
</g>
<!-- #6 ExpressionStatement&#45;&gt;#35 a&#45;o3 -->
<g id="edge18" class="edge">
<title>#6 ExpressionStatement&#45;&gt;#35 a&#45;o3</title>
<path fill="none" stroke="#006400" d="M1227.2416,-521.9735C1227.2416,-510.1918 1227.2416,-494.5607 1227.2416,-481.1581"/>
<polygon fill="#006400" stroke="#006400" points="1230.7417,-481.0033 1227.2416,-471.0034 1223.7417,-481.0034 1230.7417,-481.0033"/>
<text text-anchor="middle" x="1254.7416" y="-492.8" font-family="Times,serif" font-size="14.00" fill="#006400">WRITE b</text>
</g>
<!-- #34 a&#45;o2&#45;&gt;#35 a&#45;o3 -->
<g id="edge19" class="edge">
<title>#34 a&#45;o2&#45;&gt;#35 a&#45;o3</title>
<path fill="none" stroke="#006400" d="M1358.3163,-525.6337C1332.0675,-511.0882 1291.3041,-488.4996 1262.2088,-472.3767"/>
<polygon fill="#006400" stroke="#006400" points="1263.6488,-469.1732 1253.2055,-467.3876 1260.2559,-475.296 1263.6488,-469.1732"/>
<text text-anchor="middle" x="1368.2416" y="-492.8" font-family="Times,serif" font-size="14.00" fill="#006400">NEW_VERSION b</text>
</g>
<!-- #33 p&#45;o1 -->
<g id="node20" class="node">
<title>#33 p&#45;o1</title>
<ellipse fill="none" stroke="#006400" cx="1309.2416" cy="-627" rx="42.4939" ry="18"/>
<text text-anchor="middle" x="1309.2416" y="-623.3" font-family="Times,serif" font-size="14.00" fill="#006400">#33 p&#45;o1</text>
</g>
<!-- #3 Identifier (p)&#45;&gt;#33 p&#45;o1 -->
<g id="edge20" class="edge">
<title>#3 Identifier (p)&#45;&gt;#33 p&#45;o1</title>
<path fill="none" stroke="#006400" d="M1309.2416,-695.9735C1309.2416,-684.1918 1309.2416,-668.5607 1309.2416,-655.1581"/>
<polygon fill="#006400" stroke="#006400" points="1312.7417,-655.0033 1309.2416,-645.0034 1305.7417,-655.0034 1312.7417,-655.0033"/>
<text text-anchor="middle" x="1341.2416" y="-666.8" font-family="Times,serif" font-size="14.00" fill="#006400">CREATE p</text>
</g>
<!-- #22 BlockStatement&#45;&gt;#4 Variable (a) -->
<g id="edge21" class="edge">
<title>#22 BlockStatement&#45;&gt;#4 Variable (a)</title>
<path fill="none" stroke="#0000ff" d="M939.8823,-698.6265C956.9315,-692.4492 976.5897,-685.1146 994.2416,-678 1018.681,-668.1497 1045.6443,-656.3527 1067.4199,-646.5868"/>
<polygon fill="#0000ff" stroke="#0000ff" points="1069.0407,-649.6955 1076.7213,-642.3976 1066.1661,-643.3129 1069.0407,-649.6955"/>
<text text-anchor="middle" x="1032.7416" y="-666.8" font-family="Times,serif" font-size="14.00" fill="#0000ff">1</text>
</g>
<!-- #22 BlockStatement&#45;&gt;#6 ExpressionStatement -->
<g id="edge22" class="edge">
<title>#22 BlockStatement&#45;&gt;#6 ExpressionStatement</title>
<path fill="none" stroke="#0000ff" d="M914.7378,-696.4341C950.3621,-662.9483 1027.8337,-591.8921 1060.2416,-576 1075.511,-568.5123 1110.6127,-560.5088 1144.7141,-553.9542"/>
<polygon fill="#0000ff" stroke="#0000ff" points="1145.5862,-557.3515 1154.7635,-552.0574 1144.2878,-550.4729 1145.5862,-557.3515"/>
<text text-anchor="middle" x="1015.7416" y="-623.3" font-family="Times,serif" font-size="14.00" fill="#0000ff">2</text>
</g>
<!-- #22 BlockStatement&#45;&gt;#12 Variable (c) -->
<g id="edge23" class="edge">
<title>#22 BlockStatement&#45;&gt;#12 Variable (c)</title>
<path fill="none" stroke="#0000ff" d="M903.9003,-696.0349C910.591,-678.693 919.2416,-651.5282 919.2416,-627 919.2416,-627 919.2416,-627 919.2416,-453 919.2416,-422.1649 999.6431,-395.6088 1058.9964,-380.2057"/>
<polygon fill="#0000ff" stroke="#0000ff" points="1059.8675,-383.5957 1068.6958,-377.7381 1058.1416,-376.8118 1059.8675,-383.5957"/>
<text text-anchor="middle" x="922.7416" y="-536.3" font-family="Times,serif" font-size="14.00" fill="#0000ff">3</text>
</g>
<!-- #16 Variable (v1) -->
<g id="node21" class="node">
<title>#16 Variable (v1)</title>
<ellipse fill="none" stroke="#000000" cx="931.2416" cy="-279" rx="73.387" ry="18"/>
<text text-anchor="middle" x="931.2416" y="-275.3" font-family="Times,serif" font-size="14.00" fill="#000000">#16 Variable (v1)</text>
</g>
<!-- #22 BlockStatement&#45;&gt;#16 Variable (v1) -->
<g id="edge24" class="edge">
<title>#22 BlockStatement&#45;&gt;#16 Variable (v1)</title>
<path fill="none" stroke="#0000ff" d="M895.5363,-695.8794C894.2366,-657.5998 892.1222,-565.7125 898.2416,-489 900.166,-464.8758 901.6962,-458.9397 905.2416,-435 911.8623,-390.2952 920.7174,-338.5889 926.1968,-307.3642"/>
<polygon fill="#0000ff" stroke="#0000ff" points="929.6959,-307.6747 927.9849,-297.2189 922.8022,-306.4596 929.6959,-307.6747"/>
<text text-anchor="middle" x="901.7416" y="-492.8" font-family="Times,serif" font-size="14.00" fill="#0000ff">4</text>
</g>
<!-- #20 ReturnStatement -->
<g id="node22" class="node">
<title>#20 ReturnStatement</title>
<ellipse fill="none" stroke="#000000" cx="752.2416" cy="-105" rx="85.5853" ry="18"/>
<text text-anchor="middle" x="752.2416" y="-101.3" font-family="Times,serif" font-size="14.00" fill="#000000">#20 ReturnStatement</text>
</g>
<!-- #22 BlockStatement&#45;&gt;#20 ReturnStatement -->
<g id="edge25" class="edge">
<title>#22 BlockStatement&#45;&gt;#20 ReturnStatement</title>
<path fill="none" stroke="#0000ff" d="M830.4058,-702.8904C717.8015,-683.4385 500.2416,-643.6955 500.2416,-627 500.2416,-627 500.2416,-627 500.2416,-192 500.2416,-155.1443 597.7698,-130.4745 671.4803,-117.0925"/>
<polygon fill="#0000ff" stroke="#0000ff" points="672.4749,-120.4709 681.7105,-115.2791 671.2531,-113.5783 672.4749,-120.4709"/>
<text text-anchor="middle" x="503.7416" y="-405.8" font-family="Times,serif" font-size="14.00" fill="#0000ff">5</text>
</g>
<!-- #26 Identifier (module) -->
<g id="node23" class="node">
<title>#26 Identifier (module)</title>
<ellipse fill="none" stroke="#000000" cx="94.2416" cy="-540" rx="94.4839" ry="18"/>
<text text-anchor="middle" x="94.2416" y="-536.3" font-family="Times,serif" font-size="14.00" fill="#000000">#26 Identifier (module)</text>
</g>
<!-- #25 MemberExpression&#45;&gt;#26 Identifier (module) -->
<g id="edge26" class="edge">
<title>#25 MemberExpression&#45;&gt;#26 Identifier (module)</title>
<path fill="none" stroke="#0000ff" d="M193.4464,-609.6033C174.5625,-596.3542 148.3715,-577.9782 127.6425,-563.4345"/>
<polygon fill="#0000ff" stroke="#0000ff" points="129.6153,-560.5431 119.4189,-557.6647 125.5948,-566.2734 129.6153,-560.5431"/>
<text text-anchor="middle" x="181.2416" y="-579.8" font-family="Times,serif" font-size="14.00" fill="#0000ff">object</text>
</g>
<!-- #27 Identifier (exports) -->
<g id="node24" class="node">
<title>#27 Identifier (exports)</title>
<ellipse fill="none" stroke="#000000" cx="299.2416" cy="-540" rx="92.8835" ry="18"/>
<text text-anchor="middle" x="299.2416" y="-536.3" font-family="Times,serif" font-size="14.00" fill="#000000">#27 Identifier (exports)</text>
</g>
<!-- #25 MemberExpression&#45;&gt;#27 Identifier (exports) -->
<g id="edge27" class="edge">
<title>#25 MemberExpression&#45;&gt;#27 Identifier (exports)</title>
<path fill="none" stroke="#0000ff" d="M235.0249,-608.9735C246.7544,-596.3752 262.5817,-579.3755 275.5882,-565.4055"/>
<polygon fill="#0000ff" stroke="#0000ff" points="278.2273,-567.7073 282.4799,-558.0034 273.104,-562.9374 278.2273,-567.7073"/>
<text text-anchor="middle" x="287.2416" y="-579.8" font-family="Times,serif" font-size="14.00" fill="#0000ff">property</text>
</g>
<!-- #8 MemberExpression -->
<g id="node25" class="node">
<title>#8 MemberExpression</title>
<ellipse fill="none" stroke="#000000" cx="620.2416" cy="-366" rx="91.784" ry="18"/>
<text text-anchor="middle" x="620.2416" y="-362.3" font-family="Times,serif" font-size="14.00" fill="#000000">#8 MemberExpression</text>
</g>
<!-- #7 AssignmentExpression&#45;&gt;#8 MemberExpression -->
<g id="edge28" class="edge">
<title>#7 AssignmentExpression&#45;&gt;#8 MemberExpression</title>
<path fill="none" stroke="#0000ff" d="M723.9342,-435.3943C703.8919,-421.9813 676.1329,-403.4042 654.3796,-388.8461"/>
<polygon fill="#0000ff" stroke="#0000ff" points="656.3236,-385.9357 646.0663,-383.2827 652.4303,-391.7532 656.3236,-385.9357"/>
<text text-anchor="middle" x="702.7416" y="-405.8" font-family="Times,serif" font-size="14.00" fill="#0000ff">left</text>
</g>
<!-- #11 Identifier (p) -->
<g id="node26" class="node">
<title>#11 Identifier (p)</title>
<ellipse fill="none" stroke="#000000" cx="801.2416" cy="-366" rx="71.4873" ry="18"/>
<text text-anchor="middle" x="801.2416" y="-362.3" font-family="Times,serif" font-size="14.00" fill="#000000">#11 Identifier (p)</text>
</g>
<!-- #7 AssignmentExpression&#45;&gt;#11 Identifier (p) -->
<g id="edge29" class="edge">
<title>#7 AssignmentExpression&#45;&gt;#11 Identifier (p)</title>
<path fill="none" stroke="#0000ff" d="M760.8089,-434.9735C767.9206,-422.8418 777.4248,-406.6287 785.4317,-392.9698"/>
<polygon fill="#0000ff" stroke="#0000ff" points="788.6501,-394.4004 790.6879,-384.0034 782.6113,-390.8603 788.6501,-394.4004"/>
<text text-anchor="middle" x="792.2416" y="-405.8" font-family="Times,serif" font-size="14.00" fill="#0000ff">right</text>
</g>
<!-- #12 Variable (c)&#45;&gt;#16 Variable (v1) -->
<g id="edge31" class="edge">
<title>#12 Variable (c)&#45;&gt;#16 Variable (v1)</title>
<path fill="none" stroke="#ff0000" d="M1086.8341,-350.245C1055.5544,-335.9222 1009.2333,-314.712 975.2656,-299.1583"/>
<polygon fill="#ff0000" stroke="#ff0000" points="976.5846,-295.9129 966.0353,-294.9318 973.6703,-302.2774 976.5846,-295.9129"/>
</g>
<!-- #13 MemberExpression -->
<g id="node27" class="node">
<title>#13 MemberExpression</title>
<ellipse fill="none" stroke="#000000" cx="1121.2416" cy="-279" rx="96.3833" ry="18"/>
<text text-anchor="middle" x="1121.2416" y="-275.3" font-family="Times,serif" font-size="14.00" fill="#000000">#13 MemberExpression</text>
</g>
<!-- #12 Variable (c)&#45;&gt;#13 MemberExpression -->
<g id="edge30" class="edge">
<title>#12 Variable (c)&#45;&gt;#13 MemberExpression</title>
<path fill="none" stroke="#0000ff" d="M1121.2416,-347.9735C1121.2416,-336.1918 1121.2416,-320.5607 1121.2416,-307.1581"/>
<polygon fill="#0000ff" stroke="#0000ff" points="1124.7417,-307.0033 1121.2416,-297.0034 1117.7417,-307.0034 1124.7417,-307.0033"/>
<text text-anchor="middle" x="1130.7416" y="-318.8" font-family="Times,serif" font-size="14.00" fill="#0000ff">init</text>
</g>
<!-- #35 a&#45;o3&#45;&gt;#12 Variable (c) -->
<g id="edge32" class="edge">
<title>#35 a&#45;o3&#45;&gt;#12 Variable (c)</title>
<path fill="none" stroke="#006400" d="M1207.3038,-436.636C1191.1817,-423.4036 1168.2637,-404.5936 1150.1309,-389.711"/>
<polygon fill="#006400" stroke="#006400" points="1152.1282,-386.8224 1142.1779,-383.1835 1147.6872,-392.2333 1152.1282,-386.8224"/>
<text text-anchor="middle" x="1213.2416" y="-405.8" font-family="Times,serif" font-size="14.00" fill="#006400">LOOKUP b</text>
</g>
<!-- #33 p&#45;o1&#45;&gt;#6 ExpressionStatement -->
<g id="edge33" class="edge">
<title>#33 p&#45;o1&#45;&gt;#6 ExpressionStatement</title>
<path fill="none" stroke="#006400" d="M1293.4312,-610.2255C1281.4938,-597.5602 1264.905,-579.96 1251.3214,-565.548"/>
<polygon fill="#006400" stroke="#006400" points="1253.5385,-562.7975 1244.1327,-557.921 1248.4446,-567.5987 1253.5385,-562.7975"/>
<text text-anchor="middle" x="1292.2416" y="-579.8" font-family="Times,serif" font-size="14.00" fill="#006400">VAR p</text>
</g>
<!-- #33 p&#45;o1&#45;&gt;#16 Variable (v1) -->
<g id="edge34" class="edge">
<title>#33 p&#45;o1&#45;&gt;#16 Variable (v1)</title>
<path fill="none" stroke="#006400" d="M1348.8635,-620.7105C1391.7953,-611.3754 1454.2416,-589.3201 1454.2416,-540 1454.2416,-540 1454.2416,-540 1454.2416,-366 1454.2416,-267.4663 1113.2842,-314.0774 1016.2416,-297 1009.654,-295.8407 1002.7981,-294.543 995.9647,-293.1895"/>
<polygon fill="#006400" stroke="#006400" points="996.4979,-289.7266 986.0027,-291.1763 995.1113,-296.5879 996.4979,-289.7266"/>
<text text-anchor="middle" x="1473.7416" y="-449.3" font-family="Times,serif" font-size="14.00" fill="#006400">VAR c</text>
</g>
<!-- #16 Variable (v1)&#45;&gt;#20 ReturnStatement -->
<g id="edge36" class="edge">
<title>#16 Variable (v1)&#45;&gt;#20 ReturnStatement</title>
<path fill="none" stroke="#ff0000" d="M910.6608,-261.6839C895.0952,-248.2113 873.5251,-228.7191 856.2416,-210 829.8248,-181.3889 830.323,-167.9793 802.2416,-141 797.6353,-136.5744 792.4572,-132.2546 787.2247,-128.232"/>
<polygon fill="#ff0000" stroke="#ff0000" points="789.1556,-125.307 779.0318,-122.1829 784.9977,-130.9384 789.1556,-125.307"/>
</g>
<!-- #17 CallExpression -->
<g id="node28" class="node">
<title>#17 CallExpression</title>
<ellipse fill="none" stroke="#000000" cx="945.2416" cy="-192" rx="79.8859" ry="18"/>
<text text-anchor="middle" x="945.2416" y="-188.3" font-family="Times,serif" font-size="14.00" fill="#000000">#17 CallExpression</text>
</g>
<!-- #16 Variable (v1)&#45;&gt;#17 CallExpression -->
<g id="edge35" class="edge">
<title>#16 Variable (v1)&#45;&gt;#17 CallExpression</title>
<path fill="none" stroke="#0000ff" d="M934.1424,-260.9735C936.0384,-249.1918 938.5537,-233.5607 940.7105,-220.1581"/>
<polygon fill="#0000ff" stroke="#0000ff" points="944.2113,-220.4324 942.3445,-210.0034 937.3002,-219.3203 944.2113,-220.4324"/>
<text text-anchor="middle" x="947.7416" y="-231.8" font-family="Times,serif" font-size="14.00" fill="#0000ff">init</text>
</g>
<!-- #36 v1&#45;o4 -->
<g id="node29" class="node">
<title>#36 v1&#45;o4</title>
<ellipse fill="none" stroke="#006400" cx="752.2416" cy="-192" rx="46.5926" ry="18"/>
<text text-anchor="middle" x="752.2416" y="-188.3" font-family="Times,serif" font-size="14.00" fill="#006400">#36 v1&#45;o4</text>
</g>
<!-- #16 Variable (v1)&#45;&gt;#36 v1&#45;o4 -->
<g id="edge37" class="edge">
<title>#16 Variable (v1)&#45;&gt;#36 v1&#45;o4</title>
<path fill="none" stroke="#006400" d="M874.4319,-267.5104C822.339,-256.9747 753.2416,-243 753.2416,-243 747.9754,-236.6893 746.3963,-228.251 746.5229,-220.0572"/>
<polygon fill="#006400" stroke="#006400" points="750.0184,-220.2657 747.4465,-209.9878 743.0477,-219.6263 750.0184,-220.2657"/>
<text text-anchor="middle" x="788.2416" y="-231.8" font-family="Times,serif" font-size="14.00" fill="#006400">CREATE v1</text>
</g>
<!-- #21 Identifier (v1) -->
<g id="node30" class="node">
<title>#21 Identifier (v1)</title>
<ellipse fill="none" stroke="#000000" cx="654.2416" cy="-18" rx="76.0865" ry="18"/>
<text text-anchor="middle" x="654.2416" y="-14.3" font-family="Times,serif" font-size="14.00" fill="#000000">#21 Identifier (v1)</text>
</g>
<!-- #20 ReturnStatement&#45;&gt;#21 Identifier (v1) -->
<g id="edge38" class="edge">
<title>#20 ReturnStatement&#45;&gt;#21 Identifier (v1)</title>
<path fill="none" stroke="#0000ff" d="M732.4099,-87.3943C717.7983,-74.4228 697.7461,-56.6213 681.6098,-42.2962"/>
<polygon fill="#0000ff" stroke="#0000ff" points="683.8459,-39.6011 674.0439,-35.5796 679.1986,-44.8359 683.8459,-39.6011"/>
<text text-anchor="middle" x="735.2416" y="-57.8" font-family="Times,serif" font-size="14.00" fill="#0000ff">argument</text>
</g>
<!-- #32 CFG_F_END 2_anon -->
<g id="node31" class="node">
<title>#32 CFG_F_END 2_anon</title>
<ellipse fill="none" stroke="#ff0000" cx="851.2416" cy="-18" rx="103.1819" ry="18"/>
<text text-anchor="middle" x="851.2416" y="-14.3" font-family="Times,serif" font-size="14.00" fill="#ff0000">#32 CFG_F_END 2_anon</text>
</g>
<!-- #20 ReturnStatement&#45;&gt;#32 CFG_F_END 2_anon -->
<g id="edge39" class="edge">
<title>#20 ReturnStatement&#45;&gt;#32 CFG_F_END 2_anon</title>
<path fill="none" stroke="#ff0000" d="M772.2758,-87.3943C786.9393,-74.5081 807.0269,-56.8554 823.2719,-42.5794"/>
<polygon fill="#ff0000" stroke="#ff0000" points="825.6963,-45.1084 830.8975,-35.8782 821.0754,-39.8503 825.6963,-45.1084"/>
</g>
<!-- #9 Identifier (a) -->
<g id="node32" class="node">
<title>#9 Identifier (a)</title>
<ellipse fill="none" stroke="#000000" cx="606.2416" cy="-279" rx="66.8882" ry="18"/>
<text text-anchor="middle" x="606.2416" y="-275.3" font-family="Times,serif" font-size="14.00" fill="#000000">#9 Identifier (a)</text>
</g>
<!-- #8 MemberExpression&#45;&gt;#9 Identifier (a) -->
<g id="edge40" class="edge">
<title>#8 MemberExpression&#45;&gt;#9 Identifier (a)</title>
<path fill="none" stroke="#0000ff" d="M617.3408,-347.9735C615.4449,-336.1918 612.9296,-320.5607 610.7728,-307.1581"/>
<polygon fill="#0000ff" stroke="#0000ff" points="614.1831,-306.3203 609.1387,-297.0034 607.272,-307.4324 614.1831,-306.3203"/>
<text text-anchor="middle" x="631.2416" y="-318.8" font-family="Times,serif" font-size="14.00" fill="#0000ff">object</text>
</g>
<!-- #10 Identifier (b) -->
<g id="node33" class="node">
<title>#10 Identifier (b)</title>
<ellipse fill="none" stroke="#000000" cx="762.2416" cy="-279" rx="71.4873" ry="18"/>
<text text-anchor="middle" x="762.2416" y="-275.3" font-family="Times,serif" font-size="14.00" fill="#000000">#10 Identifier (b)</text>
</g>
<!-- #8 MemberExpression&#45;&gt;#10 Identifier (b) -->
<g id="edge41" class="edge">
<title>#8 MemberExpression&#45;&gt;#10 Identifier (b)</title>
<path fill="none" stroke="#0000ff" d="M648.2963,-348.8116C670.6119,-335.1393 701.9941,-315.9122 726.1755,-301.0969"/>
<polygon fill="#0000ff" stroke="#0000ff" points="728.0301,-304.0653 734.7285,-295.8567 724.3731,-298.0965 728.0301,-304.0653"/>
<text text-anchor="middle" x="723.2416" y="-318.8" font-family="Times,serif" font-size="14.00" fill="#0000ff">property</text>
</g>
<!-- #14 Identifier (a) -->
<g id="node34" class="node">
<title>#14 Identifier (a)</title>
<ellipse fill="none" stroke="#000000" cx="1281.2416" cy="-192" rx="71.4873" ry="18"/>
<text text-anchor="middle" x="1281.2416" y="-188.3" font-family="Times,serif" font-size="14.00" fill="#000000">#14 Identifier (a)</text>
</g>
<!-- #13 MemberExpression&#45;&gt;#14 Identifier (a) -->
<g id="edge42" class="edge">
<title>#13 MemberExpression&#45;&gt;#14 Identifier (a)</title>
<path fill="none" stroke="#0000ff" d="M1152.8525,-261.8116C1178.4629,-247.8859 1214.6713,-228.1976 1242.1102,-213.2777"/>
<polygon fill="#0000ff" stroke="#0000ff" points="1243.9381,-216.2678 1251.0514,-208.4159 1240.5942,-210.1181 1243.9381,-216.2678"/>
<text text-anchor="middle" x="1227.2416" y="-231.8" font-family="Times,serif" font-size="14.00" fill="#0000ff">object</text>
</g>
<!-- #15 Identifier (b) -->
<g id="node35" class="node">
<title>#15 Identifier (b)</title>
<ellipse fill="none" stroke="#000000" cx="1120.2416" cy="-192" rx="71.4873" ry="18"/>
<text text-anchor="middle" x="1120.2416" y="-188.3" font-family="Times,serif" font-size="14.00" fill="#000000">#15 Identifier (b)</text>
</g>
<!-- #13 MemberExpression&#45;&gt;#15 Identifier (b) -->
<g id="edge43" class="edge">
<title>#13 MemberExpression&#45;&gt;#15 Identifier (b)</title>
<path fill="none" stroke="#0000ff" d="M1121.0344,-260.9735C1120.899,-249.1918 1120.7193,-233.5607 1120.5653,-220.1581"/>
<polygon fill="#0000ff" stroke="#0000ff" points="1124.0634,-219.9624 1120.4486,-210.0034 1117.0638,-220.043 1124.0634,-219.9624"/>
<text text-anchor="middle" x="1143.2416" y="-231.8" font-family="Times,serif" font-size="14.00" fill="#0000ff">property</text>
</g>
<!-- #18 Identifier (eval) -->
<g id="node36" class="node">
<title>#18 Identifier (eval)</title>
<ellipse fill="none" stroke="#000000" cx="1107.2416" cy="-105" rx="81.7856" ry="18"/>
<text text-anchor="middle" x="1107.2416" y="-101.3" font-family="Times,serif" font-size="14.00" fill="#000000">#18 Identifier (eval)</text>
</g>
<!-- #17 CallExpression&#45;&gt;#18 Identifier (eval) -->
<g id="edge44" class="edge">
<title>#17 CallExpression&#45;&gt;#18 Identifier (eval)</title>
<path fill="none" stroke="#0000ff" d="M976.4769,-175.2255C1002.2499,-161.3844 1038.9977,-141.6495 1066.978,-126.6231"/>
<polygon fill="#0000ff" stroke="#0000ff" points="1068.9483,-129.5378 1076.1023,-121.723 1065.6364,-123.3708 1068.9483,-129.5378"/>
<text text-anchor="middle" x="1051.2416" y="-144.8" font-family="Times,serif" font-size="14.00" fill="#0000ff">callee</text>
</g>
<!-- #19 Identifier (c) -->
<g id="node37" class="node">
<title>#19 Identifier (c)</title>
<ellipse fill="none" stroke="#000000" cx="936.2416" cy="-105" rx="71.4873" ry="18"/>
<text text-anchor="middle" x="936.2416" y="-101.3" font-family="Times,serif" font-size="14.00" fill="#000000">#19 Identifier (c)</text>
</g>
<!-- #17 CallExpression&#45;&gt;#19 Identifier (c) -->
<g id="edge45" class="edge">
<title>#17 CallExpression&#45;&gt;#19 Identifier (c)</title>
<path fill="none" stroke="#0000ff" d="M943.3768,-173.9735C942.158,-162.1918 940.541,-146.5607 939.1545,-133.1581"/>
<polygon fill="#0000ff" stroke="#0000ff" points="942.6146,-132.5901 938.1041,-123.0034 935.6517,-133.3105 942.6146,-132.5901"/>
<text text-anchor="middle" x="955.2416" y="-144.8" font-family="Times,serif" font-size="14.00" fill="#0000ff">arg 1</text>
</g>
<!-- #36 v1&#45;o4&#45;&gt;#20 ReturnStatement -->
<g id="edge46" class="edge">
<title>#36 v1&#45;o4&#45;&gt;#20 ReturnStatement</title>
<path fill="none" stroke="#006400" d="M752.2416,-173.9735C752.2416,-162.1918 752.2416,-146.5607 752.2416,-133.1581"/>
<polygon fill="#006400" stroke="#006400" points="755.7417,-133.0033 752.2416,-123.0034 748.7417,-133.0034 755.7417,-133.0033"/>
<text text-anchor="middle" x="775.2416" y="-144.8" font-family="Times,serif" font-size="14.00" fill="#006400">VAR v1</text>
</g>
</g>
</svg>
