<?xml version="1.0" encoding="UTF-8" standalone="no"?>
<!DOCTYPE svg PUBLIC "-//W3C//DTD SVG 1.1//EN"
 "http://www.w3.org/Graphics/SVG/1.1/DTD/svg11.dtd">
<!-- Generated by graphviz version 2.40.1 (20161225.0304)
 -->
<!-- Title: G Pages: 1 -->
<svg width="705pt" height="604pt"
 viewBox="0.00 0.00 705.38 604.00" xmlns="http://www.w3.org/2000/svg" xmlns:xlink="http://www.w3.org/1999/xlink">
<g id="graph0" class="graph" transform="scale(1 1) rotate(0) translate(4 600)">
<title>G</title>
<polygon fill="#ffffff" stroke="transparent" points="-4,4 -4,-600 701.3806,-600 701.3806,4 -4,4"/>
<!-- #26 CFG_F_START __main__ -->
<g id="node1" class="node">
<title>#26 CFG_F_START __main__</title>
<ellipse fill="none" stroke="#ff0000" cx="126.7388" cy="-578" rx="122.6784" ry="18"/>
<text text-anchor="middle" x="126.7388" y="-574.3" font-family="Times,serif" font-size="14.00" fill="#ff0000">#26 CFG_F_START __main__</text>
</g>
<!-- #1» cp = require(&#39;child_process&#39;) -->
<g id="node2" class="node">
<title>#1» cp = require(&#39;child_process&#39;)</title>
<ellipse fill="none" stroke="#000000" cx="126.7388" cy="-505" rx="126.978" ry="18"/>
<text text-anchor="middle" x="126.7388" y="-501.3" font-family="Times,serif" font-size="14.00" fill="#000000">#1» cp = require(&#39;child_process&#39;)</text>
</g>
<!-- #26 CFG_F_START __main__&#45;&gt;#1» cp = require(&#39;child_process&#39;) -->
<g id="edge1" class="edge">
<title>#26 CFG_F_START __main__&#45;&gt;#1» cp = require(&#39;child_process&#39;)</title>
<path fill="none" stroke="#ff0000" d="M126.7388,-559.9551C126.7388,-551.8828 126.7388,-542.1764 126.7388,-533.1817"/>
<polygon fill="#ff0000" stroke="#ff0000" points="130.2389,-533.0903 126.7388,-523.0904 123.2389,-533.0904 130.2389,-533.0903"/>
</g>
<!-- #5» f = Function (__6_anon__) &#45; (26) -->
<g id="node7" class="node">
<title>#5» f = Function (__6_anon__) &#45; (26)</title>
<ellipse fill="none" stroke="#000000" cx="329.7388" cy="-432" rx="144.8743" ry="18"/>
<text text-anchor="middle" x="329.7388" y="-428.3" font-family="Times,serif" font-size="14.00" fill="#000000">#5» f = Function (__6_anon__) &#45; (26)</text>
</g>
<!-- #1» cp = require(&#39;child_process&#39;)&#45;&gt;#5» f = Function (__6_anon__) &#45; (26) -->
<g id="edge4" class="edge">
<title>#1» cp = require(&#39;child_process&#39;)&#45;&gt;#5» f = Function (__6_anon__) &#45; (26)</title>
<path fill="none" stroke="#ff0000" d="M173.3111,-488.2523C202.9079,-477.6091 241.4213,-463.7595 272.8269,-452.4659"/>
<polygon fill="#ff0000" stroke="#ff0000" points="274.1018,-455.7269 282.3275,-449.0494 271.733,-449.1398 274.1018,-455.7269"/>
</g>
<!-- #31 26.cp&#45;o1 -->
<g id="node8" class="node">
<title>#31 26.cp&#45;o1</title>
<ellipse fill="none" stroke="#006400" cx="83.7388" cy="-378" rx="57.6901" ry="18"/>
<text text-anchor="middle" x="83.7388" y="-374.3" font-family="Times,serif" font-size="14.00" fill="#006400">#31 26.cp&#45;o1</text>
</g>
<!-- #1» cp = require(&#39;child_process&#39;)&#45;&gt;#31 26.cp&#45;o1 -->
<g id="edge5" class="edge">
<title>#1» cp = require(&#39;child_process&#39;)&#45;&gt;#31 26.cp&#45;o1</title>
<path fill="none" stroke="#000000" stroke-dasharray="5,2" d="M120.5779,-486.804C113.3935,-465.5848 101.4408,-430.2829 93.1055,-405.6646"/>
<polygon fill="#000000" stroke="#000000" points="96.4104,-404.5116 89.8882,-396.1622 89.7801,-406.7565 96.4104,-404.5116"/>
</g>
<!-- #28 CFG_F_START 6_anon -->
<g id="node3" class="node">
<title>#28 CFG_F_START 6_anon</title>
<ellipse fill="none" stroke="#ff0000" cx="420.7388" cy="-324" rx="113.18" ry="18"/>
<text text-anchor="middle" x="420.7388" y="-320.3" font-family="Times,serif" font-size="14.00" fill="#ff0000">#28 CFG_F_START 6_anon</text>
</g>
<!-- #8 Variable (y) &#45; (28) -->
<g id="node4" class="node">
<title>#8 Variable (y) &#45; (28)</title>
<ellipse fill="none" stroke="#000000" cx="420.7388" cy="-251" rx="87.1846" ry="18"/>
<text text-anchor="middle" x="420.7388" y="-247.3" font-family="Times,serif" font-size="14.00" fill="#000000">#8 Variable (y) &#45; (28)</text>
</g>
<!-- #28 CFG_F_START 6_anon&#45;&gt;#8 Variable (y) &#45; (28) -->
<g id="edge2" class="edge">
<title>#28 CFG_F_START 6_anon&#45;&gt;#8 Variable (y) &#45; (28)</title>
<path fill="none" stroke="#ff0000" d="M420.7388,-305.9551C420.7388,-297.8828 420.7388,-288.1764 420.7388,-279.1817"/>
<polygon fill="#ff0000" stroke="#ff0000" points="424.2389,-279.0903 420.7388,-269.0904 417.2389,-279.0904 424.2389,-279.0903"/>
</g>
<!-- #9» v1 = cp.execSync -->
<g id="node9" class="node">
<title>#9» v1 = cp.execSync</title>
<ellipse fill="none" stroke="#000000" cx="420.7388" cy="-164" rx="89.8845" ry="18"/>
<text text-anchor="middle" x="420.7388" y="-160.3" font-family="Times,serif" font-size="14.00" fill="#000000">#9» v1 = cp.execSync</text>
</g>
<!-- #8 Variable (y) &#45; (28)&#45;&gt;#9» v1 = cp.execSync -->
<g id="edge6" class="edge">
<title>#8 Variable (y) &#45; (28)&#45;&gt;#9» v1 = cp.execSync</title>
<path fill="none" stroke="#ff0000" d="M420.7388,-232.9735C420.7388,-221.1918 420.7388,-205.5607 420.7388,-192.1581"/>
<polygon fill="#ff0000" stroke="#ff0000" points="424.2389,-192.0033 420.7388,-182.0034 417.2389,-192.0034 424.2389,-192.0033"/>
</g>
<!-- #30 TAINT_SOURCE -->
<g id="node5" class="node">
<title>#30 TAINT_SOURCE</title>
<ellipse fill="none" stroke="#8b6914" cx="605.7388" cy="-432" rx="91.784" ry="18"/>
<text text-anchor="middle" x="605.7388" y="-428.3" font-family="Times,serif" font-size="14.00" fill="#8b6914">#30 TAINT_SOURCE</text>
</g>
<!-- #32 28.x&#45;o2 -->
<g id="node6" class="node">
<title>#32 28.x&#45;o2</title>
<ellipse fill="none" stroke="#006400" cx="605.7388" cy="-324" rx="53.8905" ry="18"/>
<text text-anchor="middle" x="605.7388" y="-320.3" font-family="Times,serif" font-size="14.00" fill="#006400">#32 28.x&#45;o2</text>
</g>
<!-- #30 TAINT_SOURCE&#45;&gt;#32 28.x&#45;o2 -->
<g id="edge3" class="edge">
<title>#30 TAINT_SOURCE&#45;&gt;#32 28.x&#45;o2</title>
<path fill="none" stroke="#006400" d="M605.7388,-413.6793C605.7388,-396.821 605.7388,-371.5651 605.7388,-352.147"/>
<polygon fill="#006400" stroke="#006400" points="609.2389,-352.0501 605.7388,-342.0502 602.2389,-352.0502 609.2389,-352.0501"/>
<text text-anchor="middle" x="626.2388" y="-374.3" font-family="Times,serif" font-size="14.00" fill="#006400">TAINT</text>
</g>
<!-- #34 28.y&#45;o4 -->
<g id="node10" class="node">
<title>#34 28.y&#45;o4</title>
<ellipse fill="none" stroke="#006400" cx="604.7388" cy="-18" rx="53.8905" ry="18"/>
<text text-anchor="middle" x="604.7388" y="-14.3" font-family="Times,serif" font-size="14.00" fill="#006400">#34 28.y&#45;o4</text>
</g>
<!-- #32 28.x&#45;o2&#45;&gt;#34 28.y&#45;o4 -->
<g id="edge7" class="edge">
<title>#32 28.x&#45;o2&#45;&gt;#34 28.y&#45;o4</title>
<path fill="none" stroke="#006400" d="M605.3493,-305.7006C605.0685,-290.9364 604.7388,-269.632 604.7388,-251 604.7388,-251 604.7388,-251 604.7388,-91 604.7388,-76.2996 604.7388,-59.934 604.7388,-46.4302"/>
<polygon fill="#006400" stroke="#006400" points="608.2389,-46.3003 604.7388,-36.3003 601.2389,-46.3004 608.2389,-46.3003"/>
<text text-anchor="middle" x="625.7388" y="-160.3" font-family="Times,serif" font-size="14.00" fill="#006400">DEP(x)</text>
</g>
<!-- #5» f = Function (__6_anon__) &#45; (26)&#45;&gt;#28 CFG_F_START 6_anon -->
<g id="edge8" class="edge">
<title>#5» f = Function (__6_anon__) &#45; (26)&#45;&gt;#28 CFG_F_START 6_anon</title>
<path fill="none" stroke="#000000" d="M345.1757,-413.6793C359.9722,-396.1185 382.4464,-369.4459 399.041,-349.7512"/>
<polygon fill="#000000" stroke="#000000" points="401.7628,-351.9527 405.5298,-342.0502 396.4097,-347.4422 401.7628,-351.9527"/>
<text text-anchor="middle" x="396.7388" y="-374.3" font-family="Times,serif" font-size="14.00" fill="#000000">FD</text>
</g>
<!-- #5» f = Function (__6_anon__) &#45; (26)&#45;&gt;#32 28.x&#45;o2 -->
<g id="edge10" class="edge">
<title>#5» f = Function (__6_anon__) &#45; (26)&#45;&gt;#32 28.x&#45;o2</title>
<path fill="none" stroke="#000000" stroke-dasharray="5,2" d="M373.777,-414.7677C425.1058,-394.6825 509.4626,-361.6733 561.0631,-341.4818"/>
<polygon fill="#000000" stroke="#000000" points="562.5771,-344.6478 570.6141,-337.7444 560.0262,-338.1291 562.5771,-344.6478"/>
</g>
<!-- #20» module.exports = f; &#45; (26) -->
<g id="node11" class="node">
<title>#20» module.exports = f; &#45; (26)</title>
<ellipse fill="none" stroke="#000000" cx="165.7388" cy="-324" rx="124.2781" ry="18"/>
<text text-anchor="middle" x="165.7388" y="-320.3" font-family="Times,serif" font-size="14.00" fill="#000000">#20» module.exports = f; &#45; (26)</text>
</g>
<!-- #5» f = Function (__6_anon__) &#45; (26)&#45;&gt;#20» module.exports = f; &#45; (26) -->
<g id="edge9" class="edge">
<title>#5» f = Function (__6_anon__) &#45; (26)&#45;&gt;#20» module.exports = f; &#45; (26)</title>
<path fill="none" stroke="#ff0000" d="M302.6575,-414.166C274.9182,-395.8986 231.6609,-367.4121 201.2053,-347.356"/>
<polygon fill="#ff0000" stroke="#ff0000" points="202.8644,-344.2578 192.5877,-341.681 199.0144,-350.104 202.8644,-344.2578"/>
</g>
<!-- #33 26.cp&#45;o1.execSync&#45;o3 -->
<g id="node12" class="node">
<title>#33 26.cp&#45;o1.execSync&#45;o3</title>
<ellipse fill="none" stroke="#006400" cx="200.7388" cy="-18" rx="105.0817" ry="18"/>
<text text-anchor="middle" x="200.7388" y="-14.3" font-family="Times,serif" font-size="14.00" fill="#006400">#33 26.cp&#45;o1.execSync&#45;o3</text>
</g>
<!-- #31 26.cp&#45;o1&#45;&gt;#33 26.cp&#45;o1.execSync&#45;o3 -->
<g id="edge11" class="edge">
<title>#31 26.cp&#45;o1&#45;&gt;#33 26.cp&#45;o1.execSync&#45;o3</title>
<path fill="none" stroke="#006400" d="M54.8873,-362.2287C46.8343,-356.702 38.6743,-349.8764 32.7388,-342 17.3006,-321.5137 13.7388,-313.152 13.7388,-287.5 13.7388,-287.5 13.7388,-287.5 13.7388,-91 13.7388,-66.3623 70.7795,-46.6719 121.8542,-33.9794"/>
<polygon fill="#006400" stroke="#006400" points="122.7412,-37.3659 131.6382,-31.6131 121.0956,-30.562 122.7412,-37.3659"/>
<text text-anchor="middle" x="53.2388" y="-203.8" font-family="Times,serif" font-size="14.00" fill="#006400">SO(execSync)</text>
</g>
<!-- #9» v1 = cp.execSync&#45;&gt;#33 26.cp&#45;o1.execSync&#45;o3 -->
<g id="edge13" class="edge">
<title>#9» v1 = cp.execSync&#45;&gt;#33 26.cp&#45;o1.execSync&#45;o3</title>
<path fill="none" stroke="#000000" stroke-dasharray="5,2" d="M390.9554,-146.9991C372.763,-136.4171 349.1507,-122.3273 328.7388,-109 295.3048,-87.1704 258.2356,-60.5369 232.6313,-41.7394"/>
<polygon fill="#000000" stroke="#000000" points="234.5367,-38.7959 224.4094,-35.6832 230.3852,-44.432 234.5367,-38.7959"/>
</g>
<!-- #13» y = v1(x); &#45; (28) -->
<g id="node13" class="node">
<title>#13» y = v1(x); &#45; (28)</title>
<ellipse fill="none" stroke="#000000" cx="426.7388" cy="-91" rx="89.0842" ry="18"/>
<text text-anchor="middle" x="426.7388" y="-87.3" font-family="Times,serif" font-size="14.00" fill="#000000">#13» y = v1(x); &#45; (28)</text>
</g>
<!-- #9» v1 = cp.execSync&#45;&gt;#13» y = v1(x); &#45; (28) -->
<g id="edge12" class="edge">
<title>#9» v1 = cp.execSync&#45;&gt;#13» y = v1(x); &#45; (28)</title>
<path fill="none" stroke="#ff0000" d="M422.2219,-145.9551C422.8854,-137.8828 423.6832,-128.1764 424.4224,-119.1817"/>
<polygon fill="#ff0000" stroke="#ff0000" points="427.9209,-119.3435 425.2519,-109.0904 420.9444,-118.77 427.9209,-119.3435"/>
</g>
<!-- #27 CFG_F_END __main__ -->
<g id="node14" class="node">
<title>#27 CFG_F_END __main__</title>
<ellipse fill="none" stroke="#ff0000" cx="165.7388" cy="-251" rx="113.18" ry="18"/>
<text text-anchor="middle" x="165.7388" y="-247.3" font-family="Times,serif" font-size="14.00" fill="#ff0000">#27 CFG_F_END __main__</text>
</g>
<!-- #20» module.exports = f; &#45; (26)&#45;&gt;#27 CFG_F_END __main__ -->
<g id="edge14" class="edge">
<title>#20» module.exports = f; &#45; (26)&#45;&gt;#27 CFG_F_END __main__</title>
<path fill="none" stroke="#ff0000" d="M165.7388,-305.9551C165.7388,-297.8828 165.7388,-288.1764 165.7388,-279.1817"/>
<polygon fill="#ff0000" stroke="#ff0000" points="169.2389,-279.0903 165.7388,-269.0904 162.2389,-279.0904 169.2389,-279.0903"/>
</g>
<!-- #13» y = v1(x); &#45; (28)&#45;&gt;#34 28.y&#45;o4 -->
<g id="edge16" class="edge">
<title>#13» y = v1(x); &#45; (28)&#45;&gt;#34 28.y&#45;o4</title>
<path fill="none" stroke="#000000" stroke-dasharray="5,2" d="M466.2427,-74.7989C494.3088,-63.2887 532.0039,-47.8295 560.9816,-35.9453"/>
<polygon fill="#000000" stroke="#000000" points="562.5241,-39.0957 570.4482,-32.063 559.868,-32.6192 562.5241,-39.0957"/>
</g>
<!-- #13» y = v1(x); &#45; (28)&#45;&gt;#33 26.cp&#45;o1.execSync&#45;o3 -->
<g id="edge17" class="edge">
<title>#13» y = v1(x); &#45; (28)&#45;&gt;#33 26.cp&#45;o1.execSync&#45;o3</title>
<path fill="none" stroke="#000000" stroke-dasharray="5,2" d="M379.3617,-75.6968C344.5484,-64.4518 297.0181,-49.0991 259.7391,-37.0576"/>
<polygon fill="#000000" stroke="#000000" points="260.5988,-33.6573 250.0071,-33.9141 258.4472,-40.3185 260.5988,-33.6573"/>
</g>
<!-- #29 CFG_F_END 6_anon -->
<g id="node15" class="node">
<title>#29 CFG_F_END 6_anon</title>
<ellipse fill="none" stroke="#ff0000" cx="427.7388" cy="-18" rx="103.1819" ry="18"/>
<text text-anchor="middle" x="427.7388" y="-14.3" font-family="Times,serif" font-size="14.00" fill="#ff0000">#29 CFG_F_END 6_anon</text>
</g>
<!-- #13» y = v1(x); &#45; (28)&#45;&gt;#29 CFG_F_END 6_anon -->
<g id="edge15" class="edge">
<title>#13» y = v1(x); &#45; (28)&#45;&gt;#29 CFG_F_END 6_anon</title>
<path fill="none" stroke="#ff0000" d="M426.9859,-72.9551C427.0965,-64.8828 427.2295,-55.1764 427.3527,-46.1817"/>
<polygon fill="#ff0000" stroke="#ff0000" points="430.8535,-46.1374 427.4909,-36.0904 423.8542,-46.0414 430.8535,-46.1374"/>
</g>
</g>
</svg>
