<?xml version="1.0" encoding="UTF-8" standalone="no"?>
<!DOCTYPE svg PUBLIC "-//W3C//DTD SVG 1.1//EN"
 "http://www.w3.org/Graphics/SVG/1.1/DTD/svg11.dtd">
<!-- Generated by graphviz version 2.40.1 (20161225.0304)
 -->
<!-- Title: G Pages: 1 -->
<svg width="1071pt" height="1043pt"
 viewBox="0.00 0.00 1071.33 1043.00" xmlns="http://www.w3.org/2000/svg" xmlns:xlink="http://www.w3.org/1999/xlink">
<g id="graph0" class="graph" transform="scale(1 1) rotate(0) translate(4 1039)">
<title>G</title>
<polygon fill="#ffffff" stroke="transparent" points="-4,4 -4,-1039 1067.3316,-1039 1067.3316,4 -4,4"/>
<!-- #0 Program (0) -->
<g id="node1" class="node">
<title>#0 Program (0)</title>
<ellipse fill="none" stroke="#000000" cx="665.3408" cy="-1017" rx="65.7887" ry="18"/>
<text text-anchor="middle" x="665.3408" y="-1013.3" font-family="Times,serif" font-size="14.00" fill="#000000">#0 Program (0)</text>
</g>
<!-- #1 Variable (extend) &#45; (19) -->
<g id="node2" class="node">
<title>#1 Variable (extend) &#45; (19)</title>
<ellipse fill="none" stroke="#000000" cx="768.3408" cy="-930" rx="106.6812" ry="18"/>
<text text-anchor="middle" x="768.3408" y="-926.3" font-family="Times,serif" font-size="14.00" fill="#000000">#1 Variable (extend) &#45; (19)</text>
</g>
<!-- #0 Program (0)&#45;&gt;#1 Variable (extend) &#45; (19) -->
<g id="edge1" class="edge">
<title>#0 Program (0)&#45;&gt;#1 Variable (extend) &#45; (19)</title>
<path fill="none" stroke="#0000ff" d="M685.6903,-999.8116C701.0068,-986.8744 722.2115,-968.9636 739.3077,-954.5232"/>
<polygon fill="#0000ff" stroke="#0000ff" points="741.9454,-956.8766 747.3265,-947.75 737.4285,-951.529 741.9454,-956.8766"/>
<text text-anchor="middle" x="726.8408" y="-969.8" font-family="Times,serif" font-size="14.00" fill="#0000ff">1</text>
</g>
<!-- #21 CFG_F_START 2_anon -->
<g id="node4" class="node">
<title>#21 CFG_F_START 2_anon</title>
<ellipse fill="none" stroke="#ff0000" cx="566.3408" cy="-756" rx="113.18" ry="18"/>
<text text-anchor="middle" x="566.3408" y="-752.3" font-family="Times,serif" font-size="14.00" fill="#ff0000">#21 CFG_F_START 2_anon</text>
</g>
<!-- #1 Variable (extend) &#45; (19)&#45;&gt;#21 CFG_F_START 2_anon -->
<g id="edge5" class="edge">
<title>#1 Variable (extend) &#45; (19)&#45;&gt;#21 CFG_F_START 2_anon</title>
<path fill="none" stroke="#000000" d="M767.4029,-911.7686C764.8577,-882.1107 755.4092,-823.5638 720.3408,-792 710.4805,-783.125 686.1214,-775.8207 659.6143,-770.1658"/>
<polygon fill="#000000" stroke="#000000" points="660.2723,-766.728 649.7743,-768.1572 658.8722,-773.5866 660.2723,-766.728"/>
<text text-anchor="middle" x="767.3408" y="-839.3" font-family="Times,serif" font-size="14.00" fill="#000000">FD</text>
</g>
<!-- #2 Function (anon) &#45; (19) -->
<g id="node6" class="node">
<title>#2 Function (anon) &#45; (19)</title>
<ellipse fill="none" stroke="#000000" cx="566.3408" cy="-843" rx="100.9827" ry="18"/>
<text text-anchor="middle" x="566.3408" y="-839.3" font-family="Times,serif" font-size="14.00" fill="#000000">#2 Function (anon) &#45; (19)</text>
</g>
<!-- #1 Variable (extend) &#45; (19)&#45;&gt;#2 Function (anon) &#45; (19) -->
<g id="edge4" class="edge">
<title>#1 Variable (extend) &#45; (19)&#45;&gt;#2 Function (anon) &#45; (19)</title>
<path fill="none" stroke="#0000ff" d="M729.3932,-913.2255C696.6975,-899.1437 649.8372,-878.9613 614.7359,-863.8434"/>
<polygon fill="#0000ff" stroke="#0000ff" points="615.7378,-860.4641 605.1689,-859.723 612.9688,-866.8932 615.7378,-860.4641"/>
<text text-anchor="middle" x="689.8408" y="-882.8" font-family="Times,serif" font-size="14.00" fill="#0000ff">init</text>
</g>
<!-- #20 CFG_F_END __main__ -->
<g id="node7" class="node">
<title>#20 CFG_F_END __main__</title>
<ellipse fill="none" stroke="#ff0000" cx="917.3408" cy="-843" rx="113.18" ry="18"/>
<text text-anchor="middle" x="917.3408" y="-839.3" font-family="Times,serif" font-size="14.00" fill="#ff0000">#20 CFG_F_END __main__</text>
</g>
<!-- #1 Variable (extend) &#45; (19)&#45;&gt;#20 CFG_F_END __main__ -->
<g id="edge6" class="edge">
<title>#1 Variable (extend) &#45; (19)&#45;&gt;#20 CFG_F_END __main__</title>
<path fill="none" stroke="#ff0000" d="M798.1351,-912.6033C821.28,-899.0892 853.56,-880.2412 878.6924,-865.5665"/>
<polygon fill="#ff0000" stroke="#ff0000" points="880.7273,-868.4314 887.5982,-860.3665 877.1977,-862.3864 880.7273,-868.4314"/>
</g>
<!-- #19 CFG_F_START __main__ -->
<g id="node3" class="node">
<title>#19 CFG_F_START __main__</title>
<ellipse fill="none" stroke="#ff0000" cx="871.3408" cy="-1017" rx="122.6784" ry="18"/>
<text text-anchor="middle" x="871.3408" y="-1013.3" font-family="Times,serif" font-size="14.00" fill="#ff0000">#19 CFG_F_START __main__</text>
</g>
<!-- #19 CFG_F_START __main__&#45;&gt;#1 Variable (extend) &#45; (19) -->
<g id="edge2" class="edge">
<title>#19 CFG_F_START __main__&#45;&gt;#1 Variable (extend) &#45; (19)</title>
<path fill="none" stroke="#ff0000" d="M849.9992,-998.9735C834.7064,-986.0564 813.9357,-968.5122 797.1699,-954.3508"/>
<polygon fill="#ff0000" stroke="#ff0000" points="799.2007,-951.4847 789.3027,-947.7057 794.6838,-956.8323 799.2007,-951.4847"/>
</g>
<!-- #5 Variable (p) &#45; (21) -->
<g id="node5" class="node">
<title>#5 Variable (p) &#45; (21)</title>
<ellipse fill="none" stroke="#000000" cx="486.3408" cy="-648" rx="87.1846" ry="18"/>
<text text-anchor="middle" x="486.3408" y="-644.3" font-family="Times,serif" font-size="14.00" fill="#000000">#5 Variable (p) &#45; (21)</text>
</g>
<!-- #21 CFG_F_START 2_anon&#45;&gt;#5 Variable (p) &#45; (21) -->
<g id="edge3" class="edge">
<title>#21 CFG_F_START 2_anon&#45;&gt;#5 Variable (p) &#45; (21)</title>
<path fill="none" stroke="#ff0000" d="M552.7699,-737.6793C539.8776,-720.2746 520.3552,-693.9193 505.806,-674.278"/>
<polygon fill="#ff0000" stroke="#ff0000" points="508.4761,-672.0024 499.7113,-666.0502 502.8512,-676.1691 508.4761,-672.0024"/>
</g>
<!-- #6 ForInStatement (21) -->
<g id="node8" class="node">
<title>#6 ForInStatement (21)</title>
<ellipse fill="none" stroke="#000000" cx="335.3408" cy="-453" rx="94.4839" ry="18"/>
<text text-anchor="middle" x="335.3408" y="-449.3" font-family="Times,serif" font-size="14.00" fill="#000000">#6 ForInStatement (21)</text>
</g>
<!-- #5 Variable (p) &#45; (21)&#45;&gt;#6 ForInStatement (21) -->
<g id="edge7" class="edge">
<title>#5 Variable (p) &#45; (21)&#45;&gt;#6 ForInStatement (21)</title>
<path fill="none" stroke="#ff0000" d="M472.4058,-630.0044C445.5499,-595.323 386.5373,-519.1146 355.4341,-478.9482"/>
<polygon fill="#ff0000" stroke="#ff0000" points="358.1321,-476.7158 349.2422,-470.9521 352.5975,-481.0016 358.1321,-476.7158"/>
</g>
<!-- #28 p&#45;o5 -->
<g id="node9" class="node">
<title>#28 p&#45;o5</title>
<ellipse fill="none" stroke="#006400" cx="557.3408" cy="-540" rx="42.4939" ry="18"/>
<text text-anchor="middle" x="557.3408" y="-536.3" font-family="Times,serif" font-size="14.00" fill="#006400">#28 p&#45;o5</text>
</g>
<!-- #5 Variable (p) &#45; (21)&#45;&gt;#28 p&#45;o5 -->
<g id="edge8" class="edge">
<title>#5 Variable (p) &#45; (21)&#45;&gt;#28 p&#45;o5</title>
<path fill="none" stroke="#006400" d="M498.385,-629.6793C509.9129,-612.1439 527.4137,-585.523 540.3556,-565.8366"/>
<polygon fill="#006400" stroke="#006400" points="543.3746,-567.6158 545.9433,-557.3371 537.5253,-563.7705 543.3746,-567.6158"/>
<text text-anchor="middle" x="565.3408" y="-590.3" font-family="Times,serif" font-size="14.00" fill="#006400">CREATE p</text>
</g>
<!-- #2 Function (anon) &#45; (19)&#45;&gt;#21 CFG_F_START 2_anon -->
<g id="edge12" class="edge">
<title>#2 Function (anon) &#45; (19)&#45;&gt;#21 CFG_F_START 2_anon</title>
<path fill="none" stroke="#000000" d="M566.3408,-824.9735C566.3408,-813.1918 566.3408,-797.5607 566.3408,-784.1581"/>
<polygon fill="#000000" stroke="#000000" points="569.8409,-784.0033 566.3408,-774.0034 562.8409,-784.0034 569.8409,-784.0033"/>
<text text-anchor="middle" x="575.3408" y="-795.8" font-family="Times,serif" font-size="14.00" fill="#000000">FD</text>
</g>
<!-- #3 Identifier (dest) &#45; (19) -->
<g id="node10" class="node">
<title>#3 Identifier (dest) &#45; (19)</title>
<ellipse fill="none" stroke="#000000" cx="707.3408" cy="-702" rx="99.3824" ry="18"/>
<text text-anchor="middle" x="707.3408" y="-698.3" font-family="Times,serif" font-size="14.00" fill="#000000">#3 Identifier (dest) &#45; (19)</text>
</g>
<!-- #2 Function (anon) &#45; (19)&#45;&gt;#3 Identifier (dest) &#45; (19) -->
<g id="edge9" class="edge">
<title>#2 Function (anon) &#45; (19)&#45;&gt;#3 Identifier (dest) &#45; (19)</title>
<path fill="none" stroke="#0000ff" d="M613.073,-826.9966C638.8171,-815.9121 669.3171,-798.6621 688.3408,-774 697.9049,-761.6012 702.6721,-744.8169 705.0405,-730.5728"/>
<polygon fill="#0000ff" stroke="#0000ff" points="708.5592,-730.6674 706.4238,-720.29 701.6217,-729.7341 708.5592,-730.6674"/>
<text text-anchor="middle" x="693.3408" y="-795.8" font-family="Times,serif" font-size="14.00" fill="#0000ff">param 1</text>
</g>
<!-- #4 Identifier (src) &#45; (19) -->
<g id="node11" class="node">
<title>#4 Identifier (src) &#45; (19)</title>
<ellipse fill="none" stroke="#000000" cx="207.3408" cy="-702" rx="95.5831" ry="18"/>
<text text-anchor="middle" x="207.3408" y="-698.3" font-family="Times,serif" font-size="14.00" fill="#000000">#4 Identifier (src) &#45; (19)</text>
</g>
<!-- #2 Function (anon) &#45; (19)&#45;&gt;#4 Identifier (src) &#45; (19) -->
<g id="edge10" class="edge">
<title>#2 Function (anon) &#45; (19)&#45;&gt;#4 Identifier (src) &#45; (19)</title>
<path fill="none" stroke="#0000ff" d="M475.1805,-835.3094C386.9648,-826.0166 261.5693,-807.3143 226.3408,-774 214.5496,-762.8495 209.7537,-745.3221 207.9278,-730.3528"/>
<polygon fill="#0000ff" stroke="#0000ff" points="211.3861,-729.7066 207.0657,-720.0327 204.4104,-730.2894 211.3861,-729.7066"/>
<text text-anchor="middle" x="323.3408" y="-795.8" font-family="Times,serif" font-size="14.00" fill="#0000ff">param 2</text>
</g>
<!-- #18 BlockStatement (19) -->
<g id="node12" class="node">
<title>#18 BlockStatement (19)</title>
<ellipse fill="none" stroke="#000000" cx="335.3408" cy="-756" rx="100.1823" ry="18"/>
<text text-anchor="middle" x="335.3408" y="-752.3" font-family="Times,serif" font-size="14.00" fill="#000000">#18 BlockStatement (19)</text>
</g>
<!-- #2 Function (anon) &#45; (19)&#45;&gt;#18 BlockStatement (19) -->
<g id="edge11" class="edge">
<title>#2 Function (anon) &#45; (19)&#45;&gt;#18 BlockStatement (19)</title>
<path fill="none" stroke="#0000ff" d="M522.8915,-826.636C484.6575,-812.2362 428.8851,-791.231 388.099,-775.8699"/>
<polygon fill="#0000ff" stroke="#0000ff" points="389.1872,-772.5399 378.5953,-772.2907 386.72,-779.0907 389.1872,-772.5399"/>
<text text-anchor="middle" x="480.8408" y="-795.8" font-family="Times,serif" font-size="14.00" fill="#0000ff">block</text>
</g>
<!-- #7 Identifier (p) &#45; (21) -->
<g id="node13" class="node">
<title>#7 Identifier (p) &#45; (21)</title>
<ellipse fill="none" stroke="#000000" cx="475.3408" cy="-366" rx="89.8845" ry="18"/>
<text text-anchor="middle" x="475.3408" y="-362.3" font-family="Times,serif" font-size="14.00" fill="#000000">#7 Identifier (p) &#45; (21)</text>
</g>
<!-- #6 ForInStatement (21)&#45;&gt;#7 Identifier (p) &#45; (21) -->
<g id="edge13" class="edge">
<title>#6 ForInStatement (21)&#45;&gt;#7 Identifier (p) &#45; (21)</title>
<path fill="none" stroke="#0000ff" d="M368.8303,-435.9916C379.6744,-430.2241 391.6557,-423.5721 402.3408,-417 416.1432,-408.5106 430.8803,-398.4237 443.4732,-389.4704"/>
<polygon fill="#0000ff" stroke="#0000ff" points="445.7273,-392.1609 451.8109,-383.4867 441.6458,-386.4738 445.7273,-392.1609"/>
<text text-anchor="middle" x="434.8408" y="-405.8" font-family="Times,serif" font-size="14.00" fill="#0000ff">left</text>
</g>
<!-- #6 ForInStatement (21)&#45;&gt;#7 Identifier (p) &#45; (21) -->
<g id="edge16" class="edge">
<title>#6 ForInStatement (21)&#45;&gt;#7 Identifier (p) &#45; (21)</title>
<path fill="none" stroke="#ff0000" d="M356.3133,-435.3681C369.1582,-424.9994 386.1833,-412.0042 402.3408,-402 410.9011,-396.6998 420.3511,-391.5613 429.5325,-386.905"/>
<polygon fill="#ff0000" stroke="#ff0000" points="431.175,-389.9973 438.5815,-382.4213 428.0671,-383.725 431.175,-389.9973"/>
</g>
<!-- #8 Identifier (src) &#45; (21) -->
<g id="node14" class="node">
<title>#8 Identifier (src) &#45; (21)</title>
<ellipse fill="none" stroke="#000000" cx="126.3408" cy="-192" rx="95.5831" ry="18"/>
<text text-anchor="middle" x="126.3408" y="-188.3" font-family="Times,serif" font-size="14.00" fill="#000000">#8 Identifier (src) &#45; (21)</text>
</g>
<!-- #6 ForInStatement (21)&#45;&gt;#8 Identifier (src) &#45; (21) -->
<g id="edge14" class="edge">
<title>#6 ForInStatement (21)&#45;&gt;#8 Identifier (src) &#45; (21)</title>
<path fill="none" stroke="#0000ff" d="M248.7363,-445.7465C179.4103,-439.1353 91.7616,-428.6466 79.3408,-417 45.7604,-385.5125 50.261,-359.6805 61.3408,-315 70.207,-279.2465 91.5796,-242.4373 107.41,-218.5205"/>
<polygon fill="#0000ff" stroke="#0000ff" points="110.4607,-220.2575 113.1682,-210.0144 104.664,-216.3334 110.4607,-220.2575"/>
<text text-anchor="middle" x="74.3408" y="-318.8" font-family="Times,serif" font-size="14.00" fill="#0000ff">right</text>
</g>
<!-- #17 BlockStatement (21) -->
<g id="node15" class="node">
<title>#17 BlockStatement (21)</title>
<ellipse fill="none" stroke="#000000" cx="267.3408" cy="-366" rx="100.1823" ry="18"/>
<text text-anchor="middle" x="267.3408" y="-362.3" font-family="Times,serif" font-size="14.00" fill="#000000">#17 BlockStatement (21)</text>
</g>
<!-- #6 ForInStatement (21)&#45;&gt;#17 BlockStatement (21) -->
<g id="edge15" class="edge">
<title>#6 ForInStatement (21)&#45;&gt;#17 BlockStatement (21)</title>
<path fill="none" stroke="#0000ff" d="M321.2512,-434.9735C311.5866,-422.6085 298.608,-406.0036 287.807,-392.1847"/>
<polygon fill="#0000ff" stroke="#0000ff" points="290.3283,-389.7269 281.4124,-384.0034 284.813,-394.0376 290.3283,-389.7269"/>
<text text-anchor="middle" x="320.3408" y="-405.8" font-family="Times,serif" font-size="14.00" fill="#0000ff">body</text>
</g>
<!-- #28 p&#45;o5&#45;&gt;#6 ForInStatement (21) -->
<g id="edge17" class="edge">
<title>#28 p&#45;o5&#45;&gt;#6 ForInStatement (21)</title>
<path fill="none" stroke="#006400" d="M526.0045,-527.7195C489.6694,-513.4801 429.2635,-489.8075 386.1818,-472.9242"/>
<polygon fill="#006400" stroke="#006400" points="387.3098,-469.6071 376.7221,-469.217 384.7556,-476.1245 387.3098,-469.6071"/>
<text text-anchor="middle" x="480.3408" y="-492.8" font-family="Times,serif" font-size="14.00" fill="#006400">VAR p</text>
</g>
<!-- #9 ExpressionStatement (21) -->
<g id="node16" class="node">
<title>#9 ExpressionStatement (21)</title>
<ellipse fill="none" stroke="#000000" cx="485.3408" cy="-279" rx="113.9803" ry="18"/>
<text text-anchor="middle" x="485.3408" y="-275.3" font-family="Times,serif" font-size="14.00" fill="#000000">#9 ExpressionStatement (21)</text>
</g>
<!-- #28 p&#45;o5&#45;&gt;#9 ExpressionStatement (21) -->
<g id="edge18" class="edge">
<title>#28 p&#45;o5&#45;&gt;#9 ExpressionStatement (21)</title>
<path fill="none" stroke="#006400" d="M561.2763,-522.0264C570.0308,-480.3469 589.2138,-378.35 574.3408,-348 564.8898,-328.7141 547.1619,-313.2744 530.0007,-301.9313"/>
<polygon fill="#006400" stroke="#006400" points="531.4582,-298.7144 521.125,-296.3743 527.7435,-304.6475 531.4582,-298.7144"/>
<text text-anchor="middle" x="599.3408" y="-405.8" font-family="Times,serif" font-size="14.00" fill="#006400">VAR p</text>
</g>
<!-- #28 p&#45;o5&#45;&gt;#9 ExpressionStatement (21) -->
<g id="edge19" class="edge">
<title>#28 p&#45;o5&#45;&gt;#9 ExpressionStatement (21)</title>
<path fill="none" stroke="#006400" d="M573.9887,-523.3323C597.0837,-498.1236 634.6901,-448.3161 622.3408,-402 610.6762,-358.2517 604.1493,-343.9542 569.3408,-315 562.0984,-308.9756 553.6968,-303.8092 545.0634,-299.4268"/>
<polygon fill="#006400" stroke="#006400" points="546.5569,-296.2614 536.0215,-295.1406 543.5584,-302.5868 546.5569,-296.2614"/>
<text text-anchor="middle" x="645.3408" y="-405.8" font-family="Times,serif" font-size="14.00" fill="#006400">VAR p</text>
</g>
<!-- #26 dest&#45;o3 -->
<g id="node17" class="node">
<title>#26 dest&#45;o3</title>
<ellipse fill="none" stroke="#006400" cx="707.3408" cy="-594" rx="51.9908" ry="18"/>
<text text-anchor="middle" x="707.3408" y="-590.3" font-family="Times,serif" font-size="14.00" fill="#006400">#26 dest&#45;o3</text>
</g>
<!-- #3 Identifier (dest) &#45; (19)&#45;&gt;#26 dest&#45;o3 -->
<g id="edge20" class="edge">
<title>#3 Identifier (dest) &#45; (19)&#45;&gt;#26 dest&#45;o3</title>
<path fill="none" stroke="#006400" d="M707.3408,-683.6793C707.3408,-666.821 707.3408,-641.5651 707.3408,-622.147"/>
<polygon fill="#006400" stroke="#006400" points="710.8409,-622.0501 707.3408,-612.0502 703.8409,-622.0502 710.8409,-622.0501"/>
<text text-anchor="middle" x="746.8408" y="-644.3" font-family="Times,serif" font-size="14.00" fill="#006400">CREATE dest</text>
</g>
<!-- #27 src&#45;o4 -->
<g id="node18" class="node">
<title>#27 src&#45;o4</title>
<ellipse fill="none" stroke="#006400" cx="207.3408" cy="-540" rx="48.1917" ry="18"/>
<text text-anchor="middle" x="207.3408" y="-536.3" font-family="Times,serif" font-size="14.00" fill="#006400">#27 src&#45;o4</text>
</g>
<!-- #4 Identifier (src) &#45; (19)&#45;&gt;#27 src&#45;o4 -->
<g id="edge21" class="edge">
<title>#4 Identifier (src) &#45; (19)&#45;&gt;#27 src&#45;o4</title>
<path fill="none" stroke="#006400" d="M207.3408,-683.7314C207.3408,-655.778 207.3408,-602.1418 207.3408,-568.882"/>
<polygon fill="#006400" stroke="#006400" points="210.8409,-568.4503 207.3408,-558.4503 203.8409,-568.4504 210.8409,-568.4503"/>
<text text-anchor="middle" x="243.8408" y="-644.3" font-family="Times,serif" font-size="14.00" fill="#006400">CREATE src</text>
</g>
<!-- #18 BlockStatement (19)&#45;&gt;#5 Variable (p) &#45; (21) -->
<g id="edge22" class="edge">
<title>#18 BlockStatement (19)&#45;&gt;#5 Variable (p) &#45; (21)</title>
<path fill="none" stroke="#0000ff" d="M359.9377,-738.4076C385.3846,-720.2071 425.2724,-691.6781 453.4237,-671.5434"/>
<polygon fill="#0000ff" stroke="#0000ff" points="455.657,-674.2492 461.7545,-665.5849 451.5847,-668.5556 455.657,-674.2492"/>
<text text-anchor="middle" x="436.8408" y="-698.3" font-family="Times,serif" font-size="14.00" fill="#0000ff">1</text>
</g>
<!-- #18 BlockStatement (19)&#45;&gt;#6 ForInStatement (21) -->
<g id="edge23" class="edge">
<title>#18 BlockStatement (19)&#45;&gt;#6 ForInStatement (21)</title>
<path fill="none" stroke="#0000ff" d="M335.3408,-737.9534C335.3408,-687.2346 335.3408,-543.1156 335.3408,-481.5028"/>
<polygon fill="#0000ff" stroke="#0000ff" points="338.8409,-481.3351 335.3408,-471.3352 331.8409,-481.3352 338.8409,-481.3351"/>
<text text-anchor="middle" x="338.8408" y="-590.3" font-family="Times,serif" font-size="14.00" fill="#0000ff">2</text>
</g>
<!-- #7 Identifier (p) &#45; (21)&#45;&gt;#9 ExpressionStatement (21) -->
<g id="edge24" class="edge">
<title>#7 Identifier (p) &#45; (21)&#45;&gt;#9 ExpressionStatement (21)</title>
<path fill="none" stroke="#ff0000" d="M477.4128,-347.9735C478.7671,-336.1918 480.5637,-320.5607 482.1043,-307.1581"/>
<polygon fill="#ff0000" stroke="#ff0000" points="485.6066,-307.3376 483.2715,-297.0034 478.6524,-306.5383 485.6066,-307.3376"/>
</g>
<!-- #8 Identifier (src) &#45; (21)&#45;&gt;#6 ForInStatement (21) -->
<g id="edge25" class="edge">
<title>#8 Identifier (src) &#45; (21)&#45;&gt;#6 ForInStatement (21)</title>
<path fill="none" stroke="#ff0000" d="M123.909,-210.224C120.0095,-247.3529 116.584,-332.5862 158.3408,-384 181.429,-412.4277 217.7884,-429.176 251.5626,-439.0284"/>
<polygon fill="#ff0000" stroke="#ff0000" points="250.9038,-442.4769 261.4736,-441.749 252.7569,-435.7266 250.9038,-442.4769"/>
</g>
<!-- #23 FOR_END (21) -->
<g id="node19" class="node">
<title>#23 FOR_END (21)</title>
<ellipse fill="none" stroke="#ff0000" cx="106.3408" cy="-105" rx="83.3857" ry="18"/>
<text text-anchor="middle" x="106.3408" y="-101.3" font-family="Times,serif" font-size="14.00" fill="#ff0000">#23 FOR_END (21)</text>
</g>
<!-- #8 Identifier (src) &#45; (21)&#45;&gt;#23 FOR_END (21) -->
<g id="edge26" class="edge">
<title>#8 Identifier (src) &#45; (21)&#45;&gt;#23 FOR_END (21)</title>
<path fill="none" stroke="#ff0000" d="M122.1968,-173.9735C119.4615,-162.0751 115.8238,-146.2508 112.7226,-132.7606"/>
<polygon fill="#ff0000" stroke="#ff0000" points="116.1311,-131.965 110.4795,-123.0034 109.309,-133.5333 116.1311,-131.965"/>
</g>
<!-- #17 BlockStatement (21)&#45;&gt;#9 ExpressionStatement (21) -->
<g id="edge27" class="edge">
<title>#17 BlockStatement (21)&#45;&gt;#9 ExpressionStatement (21)</title>
<path fill="none" stroke="#0000ff" d="M308.6013,-349.5337C344.1052,-335.3647 395.4952,-314.8558 433.7183,-299.6017"/>
<polygon fill="#0000ff" stroke="#0000ff" points="435.1442,-302.8011 443.1346,-295.8438 432.5496,-296.2997 435.1442,-302.8011"/>
<text text-anchor="middle" x="393.8408" y="-318.8" font-family="Times,serif" font-size="14.00" fill="#0000ff">1</text>
</g>
<!-- #9 ExpressionStatement (21)&#45;&gt;#8 Identifier (src) &#45; (21) -->
<g id="edge29" class="edge">
<title>#9 ExpressionStatement (21)&#45;&gt;#8 Identifier (src) &#45; (21)</title>
<path fill="none" stroke="#ff0000" d="M422.8078,-263.8458C359.1777,-248.4257 260.815,-224.5884 195.0448,-208.6497"/>
<polygon fill="#ff0000" stroke="#ff0000" points="195.7258,-205.2135 185.1827,-206.2597 194.0771,-212.0166 195.7258,-205.2135"/>
</g>
<!-- #10 AssignmentExpression (21) -->
<g id="node20" class="node">
<title>#10 AssignmentExpression (21)</title>
<ellipse fill="none" stroke="#000000" cx="492.3408" cy="-192" rx="124.5782" ry="18"/>
<text text-anchor="middle" x="492.3408" y="-188.3" font-family="Times,serif" font-size="14.00" fill="#000000">#10 AssignmentExpression (21)</text>
</g>
<!-- #9 ExpressionStatement (21)&#45;&gt;#10 AssignmentExpression (21) -->
<g id="edge28" class="edge">
<title>#9 ExpressionStatement (21)&#45;&gt;#10 AssignmentExpression (21)</title>
<path fill="none" stroke="#0000ff" d="M486.7912,-260.9735C487.7392,-249.1918 488.9969,-233.5607 490.0752,-220.1581"/>
<polygon fill="#0000ff" stroke="#0000ff" points="493.5789,-220.2519 490.8923,-210.0034 486.6015,-219.6904 493.5789,-220.2519"/>
<text text-anchor="middle" x="518.3408" y="-231.8" font-family="Times,serif" font-size="14.00" fill="#0000ff">expression</text>
</g>
<!-- #30 dest&#45;o6 -->
<g id="node21" class="node">
<title>#30 dest&#45;o6</title>
<ellipse fill="none" stroke="#006400" cx="705.3408" cy="-192" rx="51.9908" ry="18"/>
<text text-anchor="middle" x="705.3408" y="-188.3" font-family="Times,serif" font-size="14.00" fill="#006400">#30 dest&#45;o6</text>
</g>
<!-- #9 ExpressionStatement (21)&#45;&gt;#30 dest&#45;o6 -->
<g id="edge30" class="edge">
<title>#9 ExpressionStatement (21)&#45;&gt;#30 dest&#45;o6</title>
<path fill="none" stroke="#006400" d="M527.759,-262.2255C566.2049,-247.0219 622.6334,-224.707 661.5115,-209.3325"/>
<polygon fill="#006400" stroke="#006400" points="662.9839,-212.5141 670.996,-205.5818 660.4096,-206.0046 662.9839,-212.5141"/>
<text text-anchor="middle" x="646.3408" y="-231.8" font-family="Times,serif" font-size="14.00" fill="#006400">WRITE * (p)</text>
</g>
<!-- #26 dest&#45;o3&#45;&gt;#30 dest&#45;o6 -->
<g id="edge31" class="edge">
<title>#26 dest&#45;o3&#45;&gt;#30 dest&#45;o6</title>
<path fill="none" stroke="#006400" d="M707.3408,-575.6707C707.3408,-556.0742 707.3408,-524.0911 707.3408,-496.5 707.3408,-496.5 707.3408,-496.5 707.3408,-279 707.3408,-259.5423 706.8346,-237.6433 706.3316,-220.6839"/>
<polygon fill="#006400" stroke="#006400" points="709.8186,-220.2131 706.0068,-210.3277 702.8221,-220.4326 709.8186,-220.2131"/>
<text text-anchor="middle" x="770.8408" y="-405.8" font-family="Times,serif" font-size="14.00" fill="#006400">NEW_VERSION * (p)</text>
</g>
<!-- #27 src&#45;o4&#45;&gt;#6 ForInStatement (21) -->
<g id="edge32" class="edge">
<title>#27 src&#45;o4&#45;&gt;#6 ForInStatement (21)</title>
<path fill="none" stroke="#006400" d="M226.9756,-523.3683C239.5864,-512.9985 256.5125,-499.6489 272.3408,-489 279.4025,-484.2491 287.1248,-479.4984 294.6673,-475.0788"/>
<polygon fill="#006400" stroke="#006400" points="296.4652,-478.0823 303.3884,-470.0623 292.975,-472.0145 296.4652,-478.0823"/>
<text text-anchor="middle" x="296.8408" y="-492.8" font-family="Times,serif" font-size="14.00" fill="#006400">VAR src</text>
</g>
<!-- #27 src&#45;o4&#45;&gt;#9 ExpressionStatement (21) -->
<g id="edge33" class="edge">
<title>#27 src&#45;o4&#45;&gt;#9 ExpressionStatement (21)</title>
<path fill="none" stroke="#006400" d="M180.7576,-524.9302C142.702,-501.2161 79.5558,-452.6473 101.3408,-402 115.1296,-369.943 127.4389,-364.2125 158.3408,-348 198.23,-327.0724 310.03,-306.1473 391.8328,-292.9206"/>
<polygon fill="#006400" stroke="#006400" points="392.5845,-296.3449 401.9046,-291.3064 391.4767,-289.4331 392.5845,-296.3449"/>
<text text-anchor="middle" x="137.8408" y="-405.8" font-family="Times,serif" font-size="14.00" fill="#006400">UNKNOWN</text>
</g>
<!-- #22 CFG_F_END 2_anon -->
<g id="node22" class="node">
<title>#22 CFG_F_END 2_anon</title>
<ellipse fill="none" stroke="#ff0000" cx="103.3408" cy="-18" rx="103.1819" ry="18"/>
<text text-anchor="middle" x="103.3408" y="-14.3" font-family="Times,serif" font-size="14.00" fill="#ff0000">#22 CFG_F_END 2_anon</text>
</g>
<!-- #23 FOR_END (21)&#45;&gt;#22 CFG_F_END 2_anon -->
<g id="edge34" class="edge">
<title>#23 FOR_END (21)&#45;&gt;#22 CFG_F_END 2_anon</title>
<path fill="none" stroke="#ff0000" d="M105.7192,-86.9735C105.313,-75.1918 104.774,-59.5607 104.3118,-46.1581"/>
<polygon fill="#ff0000" stroke="#ff0000" points="107.8043,-45.8768 103.9616,-36.0034 100.8084,-46.1181 107.8043,-45.8768"/>
</g>
<!-- #11 MemberExpression (21) -->
<g id="node23" class="node">
<title>#11 MemberExpression (21)</title>
<ellipse fill="none" stroke="#000000" cx="743.3408" cy="-105" rx="113.18" ry="18"/>
<text text-anchor="middle" x="743.3408" y="-101.3" font-family="Times,serif" font-size="14.00" fill="#000000">#11 MemberExpression (21)</text>
</g>
<!-- #10 AssignmentExpression (21)&#45;&gt;#11 MemberExpression (21) -->
<g id="edge35" class="edge">
<title>#10 AssignmentExpression (21)&#45;&gt;#11 MemberExpression (21)</title>
<path fill="none" stroke="#0000ff" d="M540.4392,-175.3285C581.9936,-160.9251 642.1224,-140.0837 686.1363,-124.8279"/>
<polygon fill="#0000ff" stroke="#0000ff" points="687.5288,-128.0495 695.8311,-121.4675 685.2363,-121.4356 687.5288,-128.0495"/>
<text text-anchor="middle" x="642.8408" y="-144.8" font-family="Times,serif" font-size="14.00" fill="#0000ff">left</text>
</g>
<!-- #14 MemberExpression (21) -->
<g id="node24" class="node">
<title>#14 MemberExpression (21)</title>
<ellipse fill="none" stroke="#000000" cx="492.3408" cy="-105" rx="113.18" ry="18"/>
<text text-anchor="middle" x="492.3408" y="-101.3" font-family="Times,serif" font-size="14.00" fill="#000000">#14 MemberExpression (21)</text>
</g>
<!-- #10 AssignmentExpression (21)&#45;&gt;#14 MemberExpression (21) -->
<g id="edge36" class="edge">
<title>#10 AssignmentExpression (21)&#45;&gt;#14 MemberExpression (21)</title>
<path fill="none" stroke="#0000ff" d="M492.3408,-173.9735C492.3408,-162.1918 492.3408,-146.5607 492.3408,-133.1581"/>
<polygon fill="#0000ff" stroke="#0000ff" points="495.8409,-133.0033 492.3408,-123.0034 488.8409,-133.0034 495.8409,-133.0033"/>
<text text-anchor="middle" x="505.3408" y="-144.8" font-family="Times,serif" font-size="14.00" fill="#0000ff">right</text>
</g>
<!-- #12 Identifier (dest) &#45; (21) -->
<g id="node25" class="node">
<title>#12 Identifier (dest) &#45; (21)</title>
<ellipse fill="none" stroke="#000000" cx="959.3408" cy="-18" rx="103.9815" ry="18"/>
<text text-anchor="middle" x="959.3408" y="-14.3" font-family="Times,serif" font-size="14.00" fill="#000000">#12 Identifier (dest) &#45; (21)</text>
</g>
<!-- #11 MemberExpression (21)&#45;&gt;#12 Identifier (dest) &#45; (21) -->
<g id="edge37" class="edge">
<title>#11 MemberExpression (21)&#45;&gt;#12 Identifier (dest) &#45; (21)</title>
<path fill="none" stroke="#0000ff" d="M784.9878,-88.2255C820.2114,-74.0382 870.8093,-53.6585 908.4332,-38.5045"/>
<polygon fill="#0000ff" stroke="#0000ff" points="910.2203,-41.5579 918.1885,-34.5752 907.605,-35.0648 910.2203,-41.5579"/>
<text text-anchor="middle" x="880.3408" y="-57.8" font-family="Times,serif" font-size="14.00" fill="#0000ff">object</text>
</g>
<!-- #13 Identifier (p) &#45; (21) -->
<g id="node26" class="node">
<title>#13 Identifier (p) &#45; (21)</title>
<ellipse fill="none" stroke="#000000" cx="743.3408" cy="-18" rx="94.4839" ry="18"/>
<text text-anchor="middle" x="743.3408" y="-14.3" font-family="Times,serif" font-size="14.00" fill="#000000">#13 Identifier (p) &#45; (21)</text>
</g>
<!-- #11 MemberExpression (21)&#45;&gt;#13 Identifier (p) &#45; (21) -->
<g id="edge38" class="edge">
<title>#11 MemberExpression (21)&#45;&gt;#13 Identifier (p) &#45; (21)</title>
<path fill="none" stroke="#0000ff" d="M743.3408,-86.9735C743.3408,-75.1918 743.3408,-59.5607 743.3408,-46.1581"/>
<polygon fill="#0000ff" stroke="#0000ff" points="746.8409,-46.0033 743.3408,-36.0034 739.8409,-46.0034 746.8409,-46.0033"/>
<text text-anchor="middle" x="766.3408" y="-57.8" font-family="Times,serif" font-size="14.00" fill="#0000ff">property</text>
</g>
<!-- #15 Identifier (src) &#45; (21) -->
<g id="node27" class="node">
<title>#15 Identifier (src) &#45; (21)</title>
<ellipse fill="none" stroke="#000000" cx="531.3408" cy="-18" rx="100.1823" ry="18"/>
<text text-anchor="middle" x="531.3408" y="-14.3" font-family="Times,serif" font-size="14.00" fill="#000000">#15 Identifier (src) &#45; (21)</text>
</g>
<!-- #14 MemberExpression (21)&#45;&gt;#15 Identifier (src) &#45; (21) -->
<g id="edge39" class="edge">
<title>#14 MemberExpression (21)&#45;&gt;#15 Identifier (src) &#45; (21)</title>
<path fill="none" stroke="#0000ff" d="M500.4217,-86.9735C505.8077,-74.9585 512.9884,-58.9401 519.074,-45.3646"/>
<polygon fill="#0000ff" stroke="#0000ff" points="522.3735,-46.5602 523.2704,-36.0034 515.986,-43.6967 522.3735,-46.5602"/>
<text text-anchor="middle" x="531.3408" y="-57.8" font-family="Times,serif" font-size="14.00" fill="#0000ff">object</text>
</g>
<!-- #16 Identifier (p) &#45; (21) -->
<g id="node28" class="node">
<title>#16 Identifier (p) &#45; (21)</title>
<ellipse fill="none" stroke="#000000" cx="319.3408" cy="-18" rx="94.4839" ry="18"/>
<text text-anchor="middle" x="319.3408" y="-14.3" font-family="Times,serif" font-size="14.00" fill="#000000">#16 Identifier (p) &#45; (21)</text>
</g>
<!-- #14 MemberExpression (21)&#45;&gt;#16 Identifier (p) &#45; (21) -->
<g id="edge40" class="edge">
<title>#14 MemberExpression (21)&#45;&gt;#16 Identifier (p) &#45; (21)</title>
<path fill="none" stroke="#0000ff" d="M458.1616,-87.8116C430.6165,-73.9594 391.733,-54.4053 362.1223,-39.5144"/>
<polygon fill="#0000ff" stroke="#0000ff" points="363.3668,-36.2226 352.8604,-34.8567 360.2218,-42.4764 363.3668,-36.2226"/>
<text text-anchor="middle" x="439.3408" y="-57.8" font-family="Times,serif" font-size="14.00" fill="#0000ff">property</text>
</g>
</g>
</svg>
