<?xml version="1.0" encoding="UTF-8" standalone="no"?>
<!DOCTYPE svg PUBLIC "-//W3C//DTD SVG 1.1//EN"
 "http://www.w3.org/Graphics/SVG/1.1/DTD/svg11.dtd">
<!-- Generated by graphviz version 2.40.1 (20161225.0304)
 -->
<!-- Title: G Pages: 1 -->
<svg width="698pt" height="1293pt"
 viewBox="0.00 0.00 698.09 1293.00" xmlns="http://www.w3.org/2000/svg" xmlns:xlink="http://www.w3.org/1999/xlink">
<g id="graph0" class="graph" transform="scale(1 1) rotate(0) translate(4 1289)">
<title>G</title>
<polygon fill="#ffffff" stroke="transparent" points="-4,4 -4,-1289 694.09,-1289 694.09,4 -4,4"/>
<!-- #44 CFG_F_START __main__ -->
<g id="node1" class="node">
<title>#44 CFG_F_START __main__</title>
<ellipse fill="none" stroke="#ff0000" cx="339" cy="-1267" rx="122.6784" ry="18"/>
<text text-anchor="middle" x="339" y="-1263.3" font-family="Times,serif" font-size="14.00" fill="#ff0000">#44 CFG_F_START __main__</text>
</g>
<!-- #1 Function (search) -->
<g id="node2" class="node">
<title>#1 Function (search)</title>
<ellipse fill="none" stroke="#000000" cx="339" cy="-1194" rx="83.6854" ry="18"/>
<text text-anchor="middle" x="339" y="-1190.3" font-family="Times,serif" font-size="14.00" fill="#000000">#1 Function (search)</text>
</g>
<!-- #44 CFG_F_START __main__&#45;&gt;#1 Function (search) -->
<g id="edge1" class="edge">
<title>#44 CFG_F_START __main__&#45;&gt;#1 Function (search)</title>
<path fill="none" stroke="#ff0000" d="M339,-1248.9551C339,-1240.8828 339,-1231.1764 339,-1222.1817"/>
<polygon fill="#ff0000" stroke="#ff0000" points="342.5001,-1222.0903 339,-1212.0904 335.5001,-1222.0904 342.5001,-1222.0903"/>
</g>
<!-- #49 PDG_OBJECT o1 -->
<g id="node5" class="node">
<title>#49 PDG_OBJECT o1</title>
<ellipse fill="none" stroke="#006400" cx="100" cy="-1107" rx="91.784" ry="18"/>
<text text-anchor="middle" x="100" y="-1103.3" font-family="Times,serif" font-size="14.00" fill="#006400">#49 PDG_OBJECT o1</text>
</g>
<!-- #1 Function (search)&#45;&gt;#49 PDG_OBJECT o1 -->
<g id="edge9" class="edge">
<title>#1 Function (search)&#45;&gt;#49 PDG_OBJECT o1</title>
<path fill="none" stroke="#000000" d="M296.2716,-1178.4461C256.2022,-1163.8602 196.1624,-1142.0047 153.0457,-1126.3095"/>
<polygon fill="#000000" stroke="#000000" points="154.1632,-1122.9917 143.5692,-1122.8599 151.7688,-1129.5695 154.1632,-1122.9917"/>
<text text-anchor="middle" x="273.5" y="-1146.8" font-family="Times,serif" font-size="14.00" fill="#000000">CREATE opts</text>
</g>
<!-- #45 CFG_F_END __main__ -->
<g id="node9" class="node">
<title>#45 CFG_F_END __main__</title>
<ellipse fill="none" stroke="#ff0000" cx="577" cy="-1107" rx="113.18" ry="18"/>
<text text-anchor="middle" x="577" y="-1103.3" font-family="Times,serif" font-size="14.00" fill="#ff0000">#45 CFG_F_END __main__</text>
</g>
<!-- #1 Function (search)&#45;&gt;#45 CFG_F_END __main__ -->
<g id="edge8" class="edge">
<title>#1 Function (search)&#45;&gt;#45 CFG_F_END __main__</title>
<path fill="none" stroke="#ff0000" d="M381.5496,-1178.4461C420.8298,-1164.0874 479.3822,-1142.6838 522.1578,-1127.0474"/>
<polygon fill="#ff0000" stroke="#ff0000" points="523.3868,-1130.3247 531.5773,-1123.6041 520.9835,-1123.7502 523.3868,-1130.3247"/>
</g>
<!-- #46 CFG_F_START 1_search -->
<g id="node3" class="node">
<title>#46 CFG_F_START 1_search</title>
<ellipse fill="none" stroke="#ff0000" cx="328" cy="-1107" rx="118.0794" ry="18"/>
<text text-anchor="middle" x="328" y="-1103.3" font-family="Times,serif" font-size="14.00" fill="#ff0000">#46 CFG_F_START 1_search</text>
</g>
<!-- #3» v1 = opts.filter -->
<g id="node4" class="node">
<title>#3» v1 = opts.filter</title>
<ellipse fill="none" stroke="#000000" cx="316" cy="-1020" rx="79.0865" ry="18"/>
<text text-anchor="middle" x="316" y="-1016.3" font-family="Times,serif" font-size="14.00" fill="#000000">#3» v1 = opts.filter</text>
</g>
<!-- #46 CFG_F_START 1_search&#45;&gt;#3» v1 = opts.filter -->
<g id="edge2" class="edge">
<title>#46 CFG_F_START 1_search&#45;&gt;#3» v1 = opts.filter</title>
<path fill="none" stroke="#ff0000" d="M325.5136,-1088.9735C323.8885,-1077.1918 321.7325,-1061.5607 319.8839,-1048.1581"/>
<polygon fill="#ff0000" stroke="#ff0000" points="323.3169,-1047.4313 318.4832,-1038.0034 316.3825,-1048.3878 323.3169,-1047.4313"/>
</g>
<!-- #7» v2 = !v1 -->
<g id="node10" class="node">
<title>#7» v2 = !v1</title>
<ellipse fill="none" stroke="#000000" cx="321" cy="-933" rx="57.3905" ry="18"/>
<text text-anchor="middle" x="321" y="-929.3" font-family="Times,serif" font-size="14.00" fill="#000000">#7» v2 = !v1</text>
</g>
<!-- #3» v1 = opts.filter&#45;&gt;#7» v2 = !v1 -->
<g id="edge10" class="edge">
<title>#3» v1 = opts.filter&#45;&gt;#7» v2 = !v1</title>
<path fill="none" stroke="#ff0000" d="M316.5271,-1001.5774C316.854,-991.8787 317.3392,-979.7902 318,-969 318.1488,-966.5704 318.3214,-964.05 318.5073,-961.5221"/>
<polygon fill="#ff0000" stroke="#ff0000" points="322.0161,-961.5484 319.3181,-951.3029 315.038,-960.9947 322.0161,-961.5484"/>
</g>
<!-- #3» v1 = opts.filter&#45;&gt;#7» v2 = !v1 -->
<g id="edge11" class="edge">
<title>#3» v1 = opts.filter&#45;&gt;#7» v2 = !v1</title>
<path fill="none" stroke="#006400" d="M317.036,-1001.9735C317.7131,-990.1918 318.6115,-974.5607 319.3817,-961.1581"/>
<polygon fill="#006400" stroke="#006400" points="322.8857,-961.1877 319.9653,-951.0034 315.8972,-960.786 322.8857,-961.1877"/>
<text text-anchor="middle" x="333.5" y="-972.8" font-family="Times,serif" font-size="14.00" fill="#006400">VAR</text>
</g>
<!-- #49 PDG_OBJECT o1&#45;&gt;#3» v1 = opts.filter -->
<g id="edge3" class="edge">
<title>#49 PDG_OBJECT o1&#45;&gt;#3» v1 = opts.filter</title>
<path fill="none" stroke="#006400" d="M140.3746,-1090.738C176.3958,-1076.2295 229.2113,-1054.9566 267.5101,-1039.5306"/>
<polygon fill="#006400" stroke="#006400" points="268.9471,-1042.7252 276.9153,-1035.7424 266.3318,-1036.2321 268.9471,-1042.7252"/>
<text text-anchor="middle" x="263.5" y="-1059.8" font-family="Times,serif" font-size="14.00" fill="#006400">LOOKUP filter</text>
</g>
<!-- #10» v3 = opts.collection -->
<g id="node6" class="node">
<title>#10» v3 = opts.collection</title>
<ellipse fill="none" stroke="#000000" cx="229" cy="-860" rx="101.2821" ry="18"/>
<text text-anchor="middle" x="229" y="-856.3" font-family="Times,serif" font-size="14.00" fill="#000000">#10» v3 = opts.collection</text>
</g>
<!-- #49 PDG_OBJECT o1&#45;&gt;#10» v3 = opts.collection -->
<g id="edge4" class="edge">
<title>#49 PDG_OBJECT o1&#45;&gt;#10» v3 = opts.collection</title>
<path fill="none" stroke="#006400" d="M109.4857,-1088.8375C131.8973,-1045.9253 188.2277,-938.0679 214.759,-887.2676"/>
<polygon fill="#006400" stroke="#006400" points="217.9734,-888.6733 219.5004,-878.1891 211.7686,-885.4328 217.9734,-888.6733"/>
<text text-anchor="middle" x="228" y="-972.8" font-family="Times,serif" font-size="14.00" fill="#006400">LOOKUP collection</text>
</g>
<!-- #50 PDG_OBJECT o2 -->
<g id="node7" class="node">
<title>#50 PDG_OBJECT o2</title>
<ellipse fill="none" stroke="#006400" cx="120" cy="-265" rx="91.784" ry="18"/>
<text text-anchor="middle" x="120" y="-261.3" font-family="Times,serif" font-size="14.00" fill="#006400">#50 PDG_OBJECT o2</text>
</g>
<!-- #49 PDG_OBJECT o1&#45;&gt;#50 PDG_OBJECT o2 -->
<g id="edge5" class="edge">
<title>#49 PDG_OBJECT o1&#45;&gt;#50 PDG_OBJECT o2</title>
<path fill="none" stroke="#000000" d="M100,-1088.6694C100,-1071.0629 100,-1043.7135 100,-1020 100,-1020 100,-1020 100,-352 100,-331.85 105.1587,-309.7269 110.2362,-292.8323"/>
<polygon fill="#000000" stroke="#000000" points="113.6508,-293.6433 113.3403,-283.0531 106.9788,-291.5255 113.6508,-293.6433"/>
<text text-anchor="middle" x="148.5" y="-696.3" font-family="Times,serif" font-size="14.00" fill="#000000">NEW_VERSION</text>
</g>
<!-- #35» v7 = opts.filter -->
<g id="node8" class="node">
<title>#35» v7 = opts.filter</title>
<ellipse fill="none" stroke="#000000" cx="120" cy="-178" rx="83.6854" ry="18"/>
<text text-anchor="middle" x="120" y="-174.3" font-family="Times,serif" font-size="14.00" fill="#000000">#35» v7 = opts.filter</text>
</g>
<!-- #49 PDG_OBJECT o1&#45;&gt;#35» v7 = opts.filter -->
<g id="edge6" class="edge">
<title>#49 PDG_OBJECT o1&#45;&gt;#35» v7 = opts.filter</title>
<path fill="none" stroke="#006400" d="M59.6144,-1090.7884C31.8607,-1076.6845 0,-1053.2521 0,-1020 0,-1020 0,-1020 0,-265 0,-231.7688 30.5371,-209.9256 60.802,-196.4374"/>
<polygon fill="#006400" stroke="#006400" points="62.2835,-199.6115 70.1517,-192.5163 59.5762,-193.1562 62.2835,-199.6115"/>
<text text-anchor="middle" x="42.5" y="-652.8" font-family="Times,serif" font-size="14.00" fill="#006400">LOOKUP filter</text>
</g>
<!-- #14» v4 = v2 &amp;&amp; v3 -->
<g id="node11" class="node">
<title>#14» v4 = v2 &amp;&amp; v3</title>
<ellipse fill="none" stroke="#000000" cx="262" cy="-773" rx="87.1846" ry="18"/>
<text text-anchor="middle" x="262" y="-769.3" font-family="Times,serif" font-size="14.00" fill="#000000">#14» v4 = v2 &amp;&amp; v3</text>
</g>
<!-- #10» v3 = opts.collection&#45;&gt;#14» v4 = v2 &amp;&amp; v3 -->
<g id="edge12" class="edge">
<title>#10» v3 = opts.collection&#45;&gt;#14» v4 = v2 &amp;&amp; v3</title>
<path fill="none" stroke="#ff0000" d="M232.987,-841.7491C235.3956,-831.8832 238.8112,-819.5867 243,-809 244.1587,-806.0716 245.4897,-803.0719 246.8979,-800.1144"/>
<polygon fill="#ff0000" stroke="#ff0000" points="250.1437,-801.4521 251.543,-790.9501 243.9,-798.2874 250.1437,-801.4521"/>
</g>
<!-- #10» v3 = opts.collection&#45;&gt;#14» v4 = v2 &amp;&amp; v3 -->
<g id="edge13" class="edge">
<title>#10» v3 = opts.collection&#45;&gt;#14» v4 = v2 &amp;&amp; v3</title>
<path fill="none" stroke="#006400" d="M235.8376,-841.9735C240.3951,-829.9585 246.471,-813.9401 251.6203,-800.3646"/>
<polygon fill="#006400" stroke="#006400" points="254.897,-801.5947 255.1711,-791.0034 248.352,-799.112 254.897,-801.5947"/>
<text text-anchor="middle" x="262.5" y="-812.8" font-family="Times,serif" font-size="14.00" fill="#006400">VAR</text>
</g>
<!-- #50 PDG_OBJECT o2&#45;&gt;#35» v7 = opts.filter -->
<g id="edge7" class="edge">
<title>#50 PDG_OBJECT o2&#45;&gt;#35» v7 = opts.filter</title>
<path fill="none" stroke="#006400" d="M120,-246.9735C120,-235.1918 120,-219.5607 120,-206.1581"/>
<polygon fill="#006400" stroke="#006400" points="123.5001,-206.0033 120,-196.0034 116.5001,-206.0034 123.5001,-206.0033"/>
<text text-anchor="middle" x="162.5" y="-217.8" font-family="Times,serif" font-size="14.00" fill="#006400">LOOKUP filter</text>
</g>
<!-- #39» eval(v7); -->
<g id="node12" class="node">
<title>#39» eval(v7);</title>
<ellipse fill="none" stroke="#000000" cx="120" cy="-91" rx="62.2891" ry="18"/>
<text text-anchor="middle" x="120" y="-87.3" font-family="Times,serif" font-size="14.00" fill="#000000">#39» eval(v7);</text>
</g>
<!-- #35» v7 = opts.filter&#45;&gt;#39» eval(v7); -->
<g id="edge14" class="edge">
<title>#35» v7 = opts.filter&#45;&gt;#39» eval(v7);</title>
<path fill="none" stroke="#ff0000" d="M118.6832,-159.5906C118.1402,-149.8955 117.7001,-137.8062 118,-127 118.0674,-124.5714 118.1603,-122.0517 118.2695,-119.5244"/>
<polygon fill="#ff0000" stroke="#ff0000" points="121.7767,-119.4699 118.786,-109.3059 114.7856,-119.1165 121.7767,-119.4699"/>
</g>
<!-- #35» v7 = opts.filter&#45;&gt;#39» eval(v7); -->
<g id="edge15" class="edge">
<title>#35» v7 = opts.filter&#45;&gt;#39» eval(v7);</title>
<path fill="none" stroke="#006400" d="M120,-159.9735C120,-148.1918 120,-132.5607 120,-119.1581"/>
<polygon fill="#006400" stroke="#006400" points="123.5001,-119.0033 120,-109.0034 116.5001,-119.0034 123.5001,-119.0033"/>
<text text-anchor="middle" x="134.5" y="-130.8" font-family="Times,serif" font-size="14.00" fill="#006400">VAR</text>
</g>
<!-- #7» v2 = !v1&#45;&gt;#10» v3 = opts.collection -->
<g id="edge16" class="edge">
<title>#7» v2 = !v1&#45;&gt;#10» v3 = opts.collection</title>
<path fill="none" stroke="#ff0000" d="M299.6621,-916.0688C287.6176,-906.5118 272.3703,-894.4134 259.1247,-883.9033"/>
<polygon fill="#ff0000" stroke="#ff0000" points="261.1918,-881.0755 251.1827,-877.6015 256.8407,-886.559 261.1918,-881.0755"/>
</g>
<!-- #7» v2 = !v1&#45;&gt;#14» v4 = v2 &amp;&amp; v3 -->
<g id="edge17" class="edge">
<title>#7» v2 = !v1&#45;&gt;#14» v4 = v2 &amp;&amp; v3</title>
<path fill="none" stroke="#006400" d="M330.6392,-915.1866C339.4809,-896.307 349.7056,-865.9685 339,-842 330.7233,-823.4696 314.7382,-807.8483 299.4679,-796.181"/>
<polygon fill="#006400" stroke="#006400" points="301.2596,-793.1566 291.1114,-790.1125 297.1463,-798.8206 301.2596,-793.1566"/>
<text text-anchor="middle" x="358.5" y="-856.3" font-family="Times,serif" font-size="14.00" fill="#006400">VAR</text>
</g>
<!-- #18 IfStatement -->
<g id="node13" class="node">
<title>#18 IfStatement</title>
<ellipse fill="none" stroke="#000000" cx="360" cy="-700" rx="67.6881" ry="18"/>
<text text-anchor="middle" x="360" y="-696.3" font-family="Times,serif" font-size="14.00" fill="#000000">#18 IfStatement</text>
</g>
<!-- #14» v4 = v2 &amp;&amp; v3&#45;&gt;#18 IfStatement -->
<g id="edge18" class="edge">
<title>#14» v4 = v2 &amp;&amp; v3&#45;&gt;#18 IfStatement</title>
<path fill="none" stroke="#ff0000" d="M285.7231,-755.3287C298.6705,-745.6842 314.8603,-733.6245 328.8174,-723.2279"/>
<polygon fill="#ff0000" stroke="#ff0000" points="331.2414,-725.7866 337.1702,-717.0059 327.0597,-720.1728 331.2414,-725.7866"/>
</g>
<!-- #19 Identifier (v4) -->
<g id="node14" class="node">
<title>#19 Identifier (v4)</title>
<ellipse fill="none" stroke="#000000" cx="346" cy="-613" rx="76.0865" ry="18"/>
<text text-anchor="middle" x="346" y="-609.3" font-family="Times,serif" font-size="14.00" fill="#000000">#19 Identifier (v4)</text>
</g>
<!-- #14» v4 = v2 &amp;&amp; v3&#45;&gt;#19 Identifier (v4) -->
<g id="edge19" class="edge">
<title>#14» v4 = v2 &amp;&amp; v3&#45;&gt;#19 Identifier (v4)</title>
<path fill="none" stroke="#006400" d="M255.0225,-754.8514C248.8435,-735.6919 242.4391,-705.1219 254,-682 264.2517,-661.4967 283.8137,-645.5053 302.2725,-634.1029"/>
<polygon fill="#006400" stroke="#006400" points="304.0637,-637.11 310.9181,-629.0311 300.5218,-631.0722 304.0637,-637.11"/>
<text text-anchor="middle" x="268.5" y="-696.3" font-family="Times,serif" font-size="14.00" fill="#006400">VAR</text>
</g>
<!-- #47 CFG_F_END 1_search -->
<g id="node15" class="node">
<title>#47 CFG_F_END 1_search</title>
<ellipse fill="none" stroke="#ff0000" cx="120" cy="-18" rx="108.5808" ry="18"/>
<text text-anchor="middle" x="120" y="-14.3" font-family="Times,serif" font-size="14.00" fill="#ff0000">#47 CFG_F_END 1_search</text>
</g>
<!-- #39» eval(v7);&#45;&gt;#47 CFG_F_END 1_search -->
<g id="edge20" class="edge">
<title>#39» eval(v7);&#45;&gt;#47 CFG_F_END 1_search</title>
<path fill="none" stroke="#ff0000" d="M120,-72.9551C120,-64.8828 120,-55.1764 120,-46.1817"/>
<polygon fill="#ff0000" stroke="#ff0000" points="123.5001,-46.0903 120,-36.0904 116.5001,-46.0904 123.5001,-46.0903"/>
</g>
<!-- #18 IfStatement&#45;&gt;#19 Identifier (v4) -->
<g id="edge21" class="edge">
<title>#18 IfStatement&#45;&gt;#19 Identifier (v4)</title>
<path fill="none" stroke="#ff0000" d="M357.0992,-681.9735C355.2033,-670.1918 352.6879,-654.5607 350.5312,-641.1581"/>
<polygon fill="#ff0000" stroke="#ff0000" points="353.9415,-640.3203 348.8971,-631.0034 347.0304,-641.4324 353.9415,-640.3203"/>
<text text-anchor="middle" x="363.5" y="-652.8" font-family="Times,serif" font-size="14.00" fill="#ff0000">test</text>
</g>
<!-- #20» v5 = opts.collection -->
<g id="node16" class="node">
<title>#20» v5 = opts.collection</title>
<ellipse fill="none" stroke="#000000" cx="229" cy="-526" rx="101.2821" ry="18"/>
<text text-anchor="middle" x="229" y="-522.3" font-family="Times,serif" font-size="14.00" fill="#000000">#20» v5 = opts.collection</text>
</g>
<!-- #19 Identifier (v4)&#45;&gt;#20» v5 = opts.collection -->
<g id="edge22" class="edge">
<title>#19 Identifier (v4)&#45;&gt;#20» v5 = opts.collection</title>
<path fill="none" stroke="#ff0000" d="M322.8846,-595.8116C305.1699,-582.6392 280.5213,-564.3107 260.9249,-549.739"/>
<polygon fill="#ff0000" stroke="#ff0000" points="262.9838,-546.9084 252.8707,-543.75 258.8068,-552.5257 262.9838,-546.9084"/>
<text text-anchor="middle" x="313" y="-565.8" font-family="Times,serif" font-size="14.00" fill="#ff0000">TRUE</text>
</g>
<!-- #48 CFG_IF_END -->
<g id="node17" class="node">
<title>#48 CFG_IF_END</title>
<ellipse fill="none" stroke="#ff0000" cx="308" cy="-265" rx="77.9862" ry="18"/>
<text text-anchor="middle" x="308" y="-261.3" font-family="Times,serif" font-size="14.00" fill="#ff0000">#48 CFG_IF_END</text>
</g>
<!-- #19 Identifier (v4)&#45;&gt;#48 CFG_IF_END -->
<g id="edge23" class="edge">
<title>#19 Identifier (v4)&#45;&gt;#48 CFG_IF_END</title>
<path fill="none" stroke="#ff0000" d="M349.9958,-594.7702C353.4866,-577.2365 358,-549.9381 358,-526 358,-526 358,-526 358,-352 358,-329.1541 344.8791,-306.8843 332.0801,-290.5954"/>
<polygon fill="#ff0000" stroke="#ff0000" points="334.567,-288.1115 325.4876,-282.6513 329.1802,-292.5818 334.567,-288.1115"/>
<text text-anchor="middle" x="379" y="-435.3" font-family="Times,serif" font-size="14.00" fill="#ff0000">FALSE</text>
</g>
<!-- #24» v6 = &#39;...&#39; + v5 -->
<g id="node18" class="node">
<title>#24» v6 = &#39;...&#39; + v5</title>
<ellipse fill="none" stroke="#000000" cx="230" cy="-439" rx="79.0865" ry="18"/>
<text text-anchor="middle" x="230" y="-435.3" font-family="Times,serif" font-size="14.00" fill="#000000">#24» v6 = &#39;...&#39; + v5</text>
</g>
<!-- #20» v5 = opts.collection&#45;&gt;#24» v6 = &#39;...&#39; + v5 -->
<g id="edge24" class="edge">
<title>#20» v5 = opts.collection&#45;&gt;#24» v6 = &#39;...&#39; + v5</title>
<path fill="none" stroke="#ff0000" d="M221.0059,-507.6931C217.7225,-498.026 215.0868,-485.9309 217,-475 217.4776,-472.2713 218.1444,-469.4767 218.926,-466.71"/>
<polygon fill="#ff0000" stroke="#ff0000" points="222.3268,-467.5723 222.1278,-456.9794 215.6775,-465.3844 222.3268,-467.5723"/>
</g>
<!-- #20» v5 = opts.collection&#45;&gt;#24» v6 = &#39;...&#39; + v5 -->
<g id="edge25" class="edge">
<title>#20» v5 = opts.collection&#45;&gt;#24» v6 = &#39;...&#39; + v5</title>
<path fill="none" stroke="#006400" d="M229.2072,-507.9735C229.3426,-496.1918 229.5223,-480.5607 229.6763,-467.1581"/>
<polygon fill="#006400" stroke="#006400" points="233.1778,-467.043 229.7931,-457.0034 226.1783,-466.9624 233.1778,-467.043"/>
<text text-anchor="middle" x="244.5" y="-478.8" font-family="Times,serif" font-size="14.00" fill="#006400">VAR</text>
</g>
<!-- #48 CFG_IF_END&#45;&gt;#35» v7 = opts.filter -->
<g id="edge26" class="edge">
<title>#48 CFG_IF_END&#45;&gt;#35» v7 = opts.filter</title>
<path fill="none" stroke="#ff0000" d="M277.5859,-248.4178C258.1814,-238.0672 232.3731,-224.7204 209,-214 196.6859,-208.352 183.2193,-202.6614 170.5735,-197.5246"/>
<polygon fill="#ff0000" stroke="#ff0000" points="171.6797,-194.1971 161.0958,-193.7143 169.0685,-200.6919 171.6797,-194.1971"/>
</g>
<!-- #28» opts.filter = v6; -->
<g id="node19" class="node">
<title>#28» opts.filter = v6;</title>
<ellipse fill="none" stroke="#000000" cx="229" cy="-352" rx="86.3847" ry="18"/>
<text text-anchor="middle" x="229" y="-348.3" font-family="Times,serif" font-size="14.00" fill="#000000">#28» opts.filter = v6;</text>
</g>
<!-- #24» v6 = &#39;...&#39; + v5&#45;&gt;#28» opts.filter = v6; -->
<g id="edge27" class="edge">
<title>#24» v6 = &#39;...&#39; + v5&#45;&gt;#28» opts.filter = v6;</title>
<path fill="none" stroke="#ff0000" d="M222.1278,-421.0206C220.0294,-415.3649 218.054,-409.0219 217,-403 215.6847,-395.485 216.5194,-387.4197 218.2365,-379.9715"/>
<polygon fill="#ff0000" stroke="#ff0000" points="221.6158,-380.8841 221.0059,-370.3069 214.8866,-378.9559 221.6158,-380.8841"/>
</g>
<!-- #24» v6 = &#39;...&#39; + v5&#45;&gt;#28» opts.filter = v6; -->
<g id="edge28" class="edge">
<title>#24» v6 = &#39;...&#39; + v5&#45;&gt;#28» opts.filter = v6;</title>
<path fill="none" stroke="#006400" d="M229.7928,-420.9735C229.6574,-409.1918 229.4777,-393.5607 229.3237,-380.1581"/>
<polygon fill="#006400" stroke="#006400" points="232.8217,-379.9624 229.2069,-370.0034 225.8222,-380.043 232.8217,-379.9624"/>
<text text-anchor="middle" x="244.5" y="-391.8" font-family="Times,serif" font-size="14.00" fill="#006400">VAR</text>
</g>
<!-- #28» opts.filter = v6;&#45;&gt;#50 PDG_OBJECT o2 -->
<g id="edge30" class="edge">
<title>#28» opts.filter = v6;&#45;&gt;#50 PDG_OBJECT o2</title>
<path fill="none" stroke="#006400" d="M206.9422,-334.3943C190.5428,-321.3048 167.9817,-303.2973 149.9517,-288.9064"/>
<polygon fill="#006400" stroke="#006400" points="152.0241,-286.0823 142.025,-282.5796 147.6573,-291.5533 152.0241,-286.0823"/>
<text text-anchor="middle" x="219" y="-304.8" font-family="Times,serif" font-size="14.00" fill="#006400">WRITE filter</text>
</g>
<!-- #28» opts.filter = v6;&#45;&gt;#48 CFG_IF_END -->
<g id="edge29" class="edge">
<title>#28» opts.filter = v6;&#45;&gt;#48 CFG_IF_END</title>
<path fill="none" stroke="#ff0000" d="M267.7717,-335.8661C276.7304,-330.6315 285.5222,-324.0463 292,-316 297.3192,-309.3929 300.8797,-301.0021 303.2593,-292.9436"/>
<polygon fill="#ff0000" stroke="#ff0000" points="306.6972,-293.6197 305.6854,-283.0733 299.8996,-291.9488 306.6972,-293.6197"/>
</g>
</g>
</svg>
