<?xml version="1.0" encoding="UTF-8" standalone="no"?>
<!DOCTYPE svg PUBLIC "-//W3C//DTD SVG 1.1//EN"
 "http://www.w3.org/Graphics/SVG/1.1/DTD/svg11.dtd">
<!-- Generated by graphviz version 2.40.1 (20161225.0304)
 -->
<!-- Title: G Pages: 1 -->
<svg width="876pt" height="817pt"
 viewBox="0.00 0.00 876.14 817.17" xmlns="http://www.w3.org/2000/svg" xmlns:xlink="http://www.w3.org/1999/xlink">
<g id="graph0" class="graph" transform="scale(1 1) rotate(0) translate(4 813.1665)">
<title>G</title>
<polygon fill="#ffffff" stroke="transparent" points="-4,4 -4,-813.1665 872.139,-813.1665 872.139,4 -4,4"/>
<!-- #33 CFG_F_START __main__ -->
<g id="node1" class="node">
<title>#33 CFG_F_START __main__</title>
<ellipse fill="none" stroke="#ff0000" cx="389.139" cy="-791.1665" rx="122.6784" ry="18"/>
<text text-anchor="middle" x="389.139" y="-787.4665" font-family="Times,serif" font-size="14.00" fill="#ff0000">#33 CFG_F_START __main__</text>
</g>
<!-- #1» f = Function (__2_anon__) &#45; (33) -->
<g id="node2" class="node">
<title>#1» f = Function (__2_anon__) &#45; (33)</title>
<ellipse fill="none" stroke="#000000" cx="389.139" cy="-718.1665" rx="144.8743" ry="18"/>
<text text-anchor="middle" x="389.139" y="-714.4665" font-family="Times,serif" font-size="14.00" fill="#000000">#1» f = Function (__2_anon__) &#45; (33)</text>
</g>
<!-- #33 CFG_F_START __main__&#45;&gt;#1» f = Function (__2_anon__) &#45; (33) -->
<g id="edge1" class="edge">
<title>#33 CFG_F_START __main__&#45;&gt;#1» f = Function (__2_anon__) &#45; (33)</title>
<path fill="none" stroke="#ff0000" d="M389.139,-773.1216C389.139,-765.0494 389.139,-755.3429 389.139,-746.3483"/>
<polygon fill="#ff0000" stroke="#ff0000" points="392.6391,-746.2568 389.139,-736.2569 385.6391,-746.2569 392.6391,-746.2568"/>
</g>
<!-- #35 CFG_F_START 2_anon -->
<g id="node3" class="node">
<title>#35 CFG_F_START 2_anon</title>
<ellipse fill="none" stroke="#ff0000" cx="562.139" cy="-631.1665" rx="113.18" ry="18"/>
<text text-anchor="middle" x="562.139" y="-627.4665" font-family="Times,serif" font-size="14.00" fill="#ff0000">#35 CFG_F_START 2_anon</text>
</g>
<!-- #1» f = Function (__2_anon__) &#45; (33)&#45;&gt;#35 CFG_F_START 2_anon -->
<g id="edge4" class="edge">
<title>#1» f = Function (__2_anon__) &#45; (33)&#45;&gt;#35 CFG_F_START 2_anon</title>
<path fill="none" stroke="#000000" d="M424.1481,-700.5608C451.4099,-686.8511 489.4002,-667.7461 518.6187,-653.0524"/>
<polygon fill="#000000" stroke="#000000" points="520.4109,-656.0689 527.7723,-648.4492 517.2659,-649.8151 520.4109,-656.0689"/>
<text text-anchor="middle" x="494.139" y="-670.9665" font-family="Times,serif" font-size="14.00" fill="#000000">FD</text>
</g>
<!-- #38 35.p&#45;o1 -->
<g id="node6" class="node">
<title>#38 35.p&#45;o1</title>
<ellipse fill="none" stroke="#006400" cx="320.139" cy="-631.1665" rx="53.8905" ry="18"/>
<text text-anchor="middle" x="320.139" y="-627.4665" font-family="Times,serif" font-size="14.00" fill="#006400">#38 35.p&#45;o1</text>
</g>
<!-- #1» f = Function (__2_anon__) &#45; (33)&#45;&gt;#38 35.p&#45;o1 -->
<g id="edge6" class="edge">
<title>#1» f = Function (__2_anon__) &#45; (33)&#45;&gt;#38 35.p&#45;o1</title>
<path fill="none" stroke="#000000" stroke-dasharray="5,2" d="M374.8421,-700.1401C364.9046,-687.6102 351.5142,-670.7266 340.469,-656.8"/>
<polygon fill="#000000" stroke="#000000" points="342.9029,-654.2363 333.9467,-648.5762 337.4184,-658.5861 342.9029,-654.2363"/>
</g>
<!-- #27» module.exports = f; &#45; (33) -->
<g id="node7" class="node">
<title>#27» module.exports = f; &#45; (33)</title>
<ellipse fill="none" stroke="#000000" cx="124.139" cy="-631.1665" rx="124.2781" ry="18"/>
<text text-anchor="middle" x="124.139" y="-627.4665" font-family="Times,serif" font-size="14.00" fill="#000000">#27» module.exports = f; &#45; (33)</text>
</g>
<!-- #1» f = Function (__2_anon__) &#45; (33)&#45;&gt;#27» module.exports = f; &#45; (33) -->
<g id="edge5" class="edge">
<title>#1» f = Function (__2_anon__) &#45; (33)&#45;&gt;#27» module.exports = f; &#45; (33)</title>
<path fill="none" stroke="#ff0000" d="M337.7301,-701.2889C293.7475,-686.8493 230.3953,-666.0507 184.1099,-650.8551"/>
<polygon fill="#ff0000" stroke="#ff0000" points="185.0981,-647.4958 174.5053,-647.7019 182.9146,-654.1465 185.0981,-647.4958"/>
</g>
<!-- #4» a = [
 &#160;&#160;&#160;0,
 &#160;&#160;&#160;0
] -->
<g id="node4" class="node">
<title>#4» a = [
 &#160;&#160;&#160;0,
 &#160;&#160;&#160;0
]</title>
<ellipse fill="none" stroke="#000000" cx="679.139" cy="-528.0833" rx="47.2526" ry="48.1667"/>
<text text-anchor="middle" x="679.139" y="-546.8833" font-family="Times,serif" font-size="14.00" fill="#000000">#4» a = [</text>
<text text-anchor="middle" x="679.139" y="-531.8833" font-family="Times,serif" font-size="14.00" fill="#000000"> &#160;&#160;&#160;0,</text>
<text text-anchor="middle" x="679.139" y="-516.8833" font-family="Times,serif" font-size="14.00" fill="#000000"> &#160;&#160;&#160;0</text>
<text text-anchor="middle" x="679.139" y="-501.8833" font-family="Times,serif" font-size="14.00" fill="#000000">]</text>
</g>
<!-- #35 CFG_F_START 2_anon&#45;&gt;#4» a = [
 &#160;&#160;&#160;0,
 &#160;&#160;&#160;0
] -->
<g id="edge2" class="edge">
<title>#35 CFG_F_START 2_anon&#45;&gt;#4» a = [
 &#160;&#160;&#160;0,
 &#160;&#160;&#160;0
]</title>
<path fill="none" stroke="#ff0000" d="M582.252,-613.4459C596.8873,-600.5514 617.2614,-582.6007 635.5517,-566.486"/>
<polygon fill="#ff0000" stroke="#ff0000" points="638.0505,-568.9491 643.24,-559.7122 633.423,-563.6968 638.0505,-568.9491"/>
</g>
<!-- #8» c = a -->
<g id="node8" class="node">
<title>#8» c = a</title>
<ellipse fill="none" stroke="#000000" cx="607.139" cy="-425" rx="44.393" ry="18"/>
<text text-anchor="middle" x="607.139" y="-421.3" font-family="Times,serif" font-size="14.00" fill="#000000">#8» c = a</text>
</g>
<!-- #4» a = [
 &#160;&#160;&#160;0,
 &#160;&#160;&#160;0
]&#45;&gt;#8» c = a -->
<g id="edge7" class="edge">
<title>#4» a = [
 &#160;&#160;&#160;0,
 &#160;&#160;&#160;0
]&#45;&gt;#8» c = a</title>
<path fill="none" stroke="#ff0000" d="M651.7135,-488.8178C642.783,-476.032 633.1051,-462.176 625.0562,-450.6523"/>
<polygon fill="#ff0000" stroke="#ff0000" points="627.8536,-448.5451 619.258,-442.351 622.1149,-452.5534 627.8536,-448.5451"/>
</g>
<!-- #39 35.a&#45;o2 -->
<g id="node9" class="node">
<title>#39 35.a&#45;o2</title>
<ellipse fill="none" stroke="#006400" cx="655.139" cy="-338" rx="53.0913" ry="18"/>
<text text-anchor="middle" x="655.139" y="-334.3" font-family="Times,serif" font-size="14.00" fill="#006400">#39 35.a&#45;o2</text>
</g>
<!-- #4» a = [
 &#160;&#160;&#160;0,
 &#160;&#160;&#160;0
]&#45;&gt;#39 35.a&#45;o2 -->
<g id="edge8" class="edge">
<title>#4» a = [
 &#160;&#160;&#160;0,
 &#160;&#160;&#160;0
]&#45;&gt;#39 35.a&#45;o2</title>
<path fill="none" stroke="#000000" stroke-dasharray="5,2" d="M673.0828,-480.1172C668.5563,-444.2667 662.5202,-396.4604 658.7315,-366.4532"/>
<polygon fill="#000000" stroke="#000000" points="662.1695,-365.7411 657.4443,-356.2583 655.2246,-366.618 662.1695,-365.7411"/>
</g>
<!-- #40 35.a&#45;o2.0&#45;o3 -->
<g id="node10" class="node">
<title>#40 35.a&#45;o2.0&#45;o3</title>
<ellipse fill="none" stroke="#006400" cx="679.139" cy="-164" rx="71.4873" ry="18"/>
<text text-anchor="middle" x="679.139" y="-160.3" font-family="Times,serif" font-size="14.00" fill="#006400">#40 35.a&#45;o2.0&#45;o3</text>
</g>
<!-- #4» a = [
 &#160;&#160;&#160;0,
 &#160;&#160;&#160;0
]&#45;&gt;#40 35.a&#45;o2.0&#45;o3 -->
<g id="edge9" class="edge">
<title>#4» a = [
 &#160;&#160;&#160;0,
 &#160;&#160;&#160;0
]&#45;&gt;#40 35.a&#45;o2.0&#45;o3</title>
<path fill="none" stroke="#000000" stroke-dasharray="5,2" d="M726.3441,-522.9144C782.3246,-513.863 868.139,-489.473 868.139,-425 868.139,-425 868.139,-425 868.139,-251 868.139,-222.2058 794.838,-195.5339 739.5346,-179.5083"/>
<polygon fill="#000000" stroke="#000000" points="740.3634,-176.1054 729.7875,-176.7387 738.4501,-182.8388 740.3634,-176.1054"/>
</g>
<!-- #41 35.a&#45;o2.1&#45;o4 -->
<g id="node11" class="node">
<title>#41 35.a&#45;o2.1&#45;o4</title>
<ellipse fill="none" stroke="#006400" cx="769.139" cy="-251" rx="71.4873" ry="18"/>
<text text-anchor="middle" x="769.139" y="-247.3" font-family="Times,serif" font-size="14.00" fill="#006400">#41 35.a&#45;o2.1&#45;o4</text>
</g>
<!-- #4» a = [
 &#160;&#160;&#160;0,
 &#160;&#160;&#160;0
]&#45;&gt;#41 35.a&#45;o2.1&#45;o4 -->
<g id="edge10" class="edge">
<title>#4» a = [
 &#160;&#160;&#160;0,
 &#160;&#160;&#160;0
]&#45;&gt;#41 35.a&#45;o2.1&#45;o4</title>
<path fill="none" stroke="#000000" stroke-dasharray="5,2" d="M694.0007,-482.3286C712.7922,-424.4749 744.5607,-326.6691 760.0718,-278.9151"/>
<polygon fill="#000000" stroke="#000000" points="763.4516,-279.8393 763.2121,-269.2471 756.794,-277.6768 763.4516,-279.8393"/>
</g>
<!-- #37 TAINT_SOURCE -->
<g id="node5" class="node">
<title>#37 TAINT_SOURCE</title>
<ellipse fill="none" stroke="#8b6914" cx="134.139" cy="-718.1665" rx="91.784" ry="18"/>
<text text-anchor="middle" x="134.139" y="-714.4665" font-family="Times,serif" font-size="14.00" fill="#8b6914">#37 TAINT_SOURCE</text>
</g>
<!-- #37 TAINT_SOURCE&#45;&gt;#38 35.p&#45;o1 -->
<g id="edge3" class="edge">
<title>#37 TAINT_SOURCE&#45;&gt;#38 35.p&#45;o1</title>
<path fill="none" stroke="#006400" d="M170.0017,-701.392C201.324,-686.7413 246.7644,-665.4869 279.4405,-650.2029"/>
<polygon fill="#006400" stroke="#006400" points="281.1429,-653.2706 288.7181,-645.8634 278.1771,-646.9299 281.1429,-653.2706"/>
<text text-anchor="middle" x="259.639" y="-670.9665" font-family="Times,serif" font-size="14.00" fill="#006400">TAINT</text>
</g>
<!-- #43 35.a&#45;o5.0&#45;o6 -->
<g id="node12" class="node">
<title>#43 35.a&#45;o5.0&#45;o6</title>
<ellipse fill="none" stroke="#006400" cx="330.139" cy="-164" rx="71.4873" ry="18"/>
<text text-anchor="middle" x="330.139" y="-160.3" font-family="Times,serif" font-size="14.00" fill="#006400">#43 35.a&#45;o5.0&#45;o6</text>
</g>
<!-- #38 35.p&#45;o1&#45;&gt;#43 35.a&#45;o5.0&#45;o6 -->
<g id="edge11" class="edge">
<title>#38 35.p&#45;o1&#45;&gt;#43 35.a&#45;o5.0&#45;o6</title>
<path fill="none" stroke="#006400" d="M312.1902,-613.3173C303.9122,-593.0721 292.139,-558.8677 292.139,-528.0833 292.139,-528.0833 292.139,-528.0833 292.139,-251 292.139,-229.4445 302.0563,-207.2074 311.7582,-190.6107"/>
<polygon fill="#006400" stroke="#006400" points="314.7916,-192.3596 317.0615,-182.0108 308.8335,-188.6853 314.7916,-192.3596"/>
<text text-anchor="middle" x="313.139" y="-377.8" font-family="Times,serif" font-size="14.00" fill="#006400">DEP(p)</text>
</g>
<!-- #34 CFG_F_END __main__ -->
<g id="node13" class="node">
<title>#34 CFG_F_END __main__</title>
<ellipse fill="none" stroke="#ff0000" cx="124.139" cy="-528.0833" rx="113.18" ry="18"/>
<text text-anchor="middle" x="124.139" y="-524.3833" font-family="Times,serif" font-size="14.00" fill="#ff0000">#34 CFG_F_END __main__</text>
</g>
<!-- #27» module.exports = f; &#45; (33)&#45;&gt;#34 CFG_F_END __main__ -->
<g id="edge12" class="edge">
<title>#27» module.exports = f; &#45; (33)&#45;&gt;#34 CFG_F_END __main__</title>
<path fill="none" stroke="#ff0000" d="M124.139,-612.7373C124.139,-597.1258 124.139,-574.4858 124.139,-556.5464"/>
<polygon fill="#ff0000" stroke="#ff0000" points="127.6391,-556.3529 124.139,-546.3529 120.6391,-556.353 127.6391,-556.3529"/>
</g>
<!-- #8» c = a&#45;&gt;#39 35.a&#45;o2 -->
<g id="edge14" class="edge">
<title>#8» c = a&#45;&gt;#39 35.a&#45;o2</title>
<path fill="none" stroke="#000000" stroke-dasharray="5,2" d="M616.8525,-407.3943C623.5743,-395.211 632.6469,-378.7669 640.2732,-364.9443"/>
<polygon fill="#000000" stroke="#000000" points="643.5089,-366.3247 645.2752,-355.8782 637.3798,-362.9432 643.5089,-366.3247"/>
</g>
<!-- #10» a[0] = p; &#45; (35) -->
<g id="node14" class="node">
<title>#10» a[0] = p; &#45; (35)</title>
<ellipse fill="none" stroke="#000000" cx="499.139" cy="-338" rx="84.485" ry="18"/>
<text text-anchor="middle" x="499.139" y="-334.3" font-family="Times,serif" font-size="14.00" fill="#000000">#10» a[0] = p; &#45; (35)</text>
</g>
<!-- #8» c = a&#45;&gt;#10» a[0] = p; &#45; (35) -->
<g id="edge13" class="edge">
<title>#8» c = a&#45;&gt;#10» a[0] = p; &#45; (35)</title>
<path fill="none" stroke="#ff0000" d="M587.0781,-408.8399C570.7116,-395.6557 547.3502,-376.8368 528.8189,-361.9088"/>
<polygon fill="#ff0000" stroke="#ff0000" points="530.9309,-359.1158 520.9477,-355.5681 526.5396,-364.5671 530.9309,-359.1158"/>
</g>
<!-- #39 35.a&#45;o2&#45;&gt;#40 35.a&#45;o2.0&#45;o3 -->
<g id="edge15" class="edge">
<title>#39 35.a&#45;o2&#45;&gt;#40 35.a&#45;o2.0&#45;o3</title>
<path fill="none" stroke="#006400" d="M653.3001,-319.6358C651.6128,-298.5544 650.0676,-263.0173 655.139,-233 657.523,-218.8889 662.4681,-203.8122 667.2533,-191.3626"/>
<polygon fill="#006400" stroke="#006400" points="670.5303,-192.5943 671.0048,-182.0101 664.0334,-189.9883 670.5303,-192.5943"/>
<text text-anchor="middle" x="672.139" y="-247.3" font-family="Times,serif" font-size="14.00" fill="#006400">SO(0)</text>
</g>
<!-- #39 35.a&#45;o2&#45;&gt;#41 35.a&#45;o2.1&#45;o4 -->
<g id="edge16" class="edge">
<title>#39 35.a&#45;o2&#45;&gt;#41 35.a&#45;o2.1&#45;o4</title>
<path fill="none" stroke="#006400" d="M672.1839,-320.5212C682.6675,-310.2068 696.6396,-297.2149 710.139,-287 716.5978,-282.1127 723.7524,-277.2998 730.7869,-272.8619"/>
<polygon fill="#006400" stroke="#006400" points="732.8841,-275.6813 739.5716,-267.4638 729.2192,-269.7173 732.8841,-275.6813"/>
<text text-anchor="middle" x="727.139" y="-290.8" font-family="Times,serif" font-size="14.00" fill="#006400">SO(1)</text>
</g>
<!-- #42 35.a&#45;o5 -->
<g id="node15" class="node">
<title>#42 35.a&#45;o5</title>
<ellipse fill="none" stroke="#006400" cx="411.139" cy="-251" rx="53.0913" ry="18"/>
<text text-anchor="middle" x="411.139" y="-247.3" font-family="Times,serif" font-size="14.00" fill="#006400">#42 35.a&#45;o5</text>
</g>
<!-- #39 35.a&#45;o2&#45;&gt;#42 35.a&#45;o5 -->
<g id="edge17" class="edge">
<title>#39 35.a&#45;o2&#45;&gt;#42 35.a&#45;o5</title>
<path fill="none" stroke="#006400" d="M618.3455,-324.881C575.3408,-309.5474 504.1231,-284.1542 457.4095,-267.4981"/>
<polygon fill="#006400" stroke="#006400" points="458.4269,-264.1451 447.8323,-264.0833 456.0759,-270.7385 458.4269,-264.1451"/>
<text text-anchor="middle" x="565.139" y="-290.8" font-family="Times,serif" font-size="14.00" fill="#006400">NV(0)</text>
</g>
<!-- #44 35.v2&#45;o7 -->
<g id="node16" class="node">
<title>#44 35.v2&#45;o7</title>
<ellipse fill="none" stroke="#006400" cx="638.139" cy="-18" rx="57.6901" ry="18"/>
<text text-anchor="middle" x="638.139" y="-14.3" font-family="Times,serif" font-size="14.00" fill="#006400">#44 35.v2&#45;o7</text>
</g>
<!-- #40 35.a&#45;o2.0&#45;o3&#45;&gt;#44 35.v2&#45;o7 -->
<g id="edge18" class="edge">
<title>#40 35.a&#45;o2.0&#45;o3&#45;&gt;#44 35.v2&#45;o7</title>
<path fill="none" stroke="#006400" d="M674.0292,-145.8042C666.9628,-120.6407 654.1468,-75.0033 645.8956,-45.6212"/>
<polygon fill="#006400" stroke="#006400" points="649.2577,-44.6478 643.1844,-35.9665 642.5184,-46.5404 649.2577,-44.6478"/>
<text text-anchor="middle" x="687.639" y="-87.3" font-family="Times,serif" font-size="14.00" fill="#006400">DEP(v1)</text>
</g>
<!-- #10» a[0] = p; &#45; (35)&#45;&gt;#43 35.a&#45;o5.0&#45;o6 -->
<g id="edge20" class="edge">
<title>#10» a[0] = p; &#45; (35)&#45;&gt;#43 35.a&#45;o5.0&#45;o6</title>
<path fill="none" stroke="#000000" stroke-dasharray="5,2" d="M440.2482,-325.0146C408.5305,-314.9802 371.44,-297.7739 349.139,-269 332.2884,-247.2585 328.5931,-215.4138 328.4614,-192.5002"/>
<polygon fill="#000000" stroke="#000000" points="331.9631,-192.4178 328.6288,-182.3613 324.964,-192.3021 331.9631,-192.4178"/>
</g>
<!-- #16» v1 = c[0] -->
<g id="node17" class="node">
<title>#16» v1 = c[0]</title>
<ellipse fill="none" stroke="#000000" cx="546.139" cy="-251" rx="63.8893" ry="18"/>
<text text-anchor="middle" x="546.139" y="-247.3" font-family="Times,serif" font-size="14.00" fill="#000000">#16» v1 = c[0]</text>
</g>
<!-- #10» a[0] = p; &#45; (35)&#45;&gt;#16» v1 = c[0] -->
<g id="edge19" class="edge">
<title>#10» a[0] = p; &#45; (35)&#45;&gt;#16» v1 = c[0]</title>
<path fill="none" stroke="#ff0000" d="M508.8774,-319.9735C515.4313,-307.8418 524.1902,-291.6287 531.5691,-277.9698"/>
<polygon fill="#ff0000" stroke="#ff0000" points="534.7393,-279.4652 536.413,-269.0034 528.5805,-276.138 534.7393,-279.4652"/>
</g>
<!-- #42 35.a&#45;o5&#45;&gt;#43 35.a&#45;o5.0&#45;o6 -->
<g id="edge21" class="edge">
<title>#42 35.a&#45;o5&#45;&gt;#43 35.a&#45;o5.0&#45;o6</title>
<path fill="none" stroke="#006400" d="M395.136,-233.8116C383.31,-221.1096 367.0203,-203.6133 353.7074,-189.3142"/>
<polygon fill="#006400" stroke="#006400" points="356.0407,-186.684 346.6648,-181.75 350.9174,-191.4539 356.0407,-186.684"/>
<text text-anchor="middle" x="392.139" y="-203.8" font-family="Times,serif" font-size="14.00" fill="#006400">SO(0)</text>
</g>
<!-- #16» v1 = c[0]&#45;&gt;#40 35.a&#45;o2.0&#45;o3 -->
<g id="edge23" class="edge">
<title>#16» v1 = c[0]&#45;&gt;#40 35.a&#45;o2.0&#45;o3</title>
<path fill="none" stroke="#000000" stroke-dasharray="5,2" d="M571.4683,-234.4312C592.3195,-220.7917 622.0739,-201.3283 645.0219,-186.3172"/>
<polygon fill="#000000" stroke="#000000" points="646.9983,-189.2067 653.4509,-180.8035 643.1663,-183.3487 646.9983,-189.2067"/>
</g>
<!-- #20» v2 = eval(v1) -->
<g id="node18" class="node">
<title>#20» v2 = eval(v1)</title>
<ellipse fill="none" stroke="#000000" cx="510.139" cy="-164" rx="79.0865" ry="18"/>
<text text-anchor="middle" x="510.139" y="-160.3" font-family="Times,serif" font-size="14.00" fill="#000000">#20» v2 = eval(v1)</text>
</g>
<!-- #16» v1 = c[0]&#45;&gt;#20» v2 = eval(v1) -->
<g id="edge22" class="edge">
<title>#16» v1 = c[0]&#45;&gt;#20» v2 = eval(v1)</title>
<path fill="none" stroke="#ff0000" d="M538.6798,-232.9735C533.708,-220.9585 527.0797,-204.9401 521.4622,-191.3646"/>
<polygon fill="#ff0000" stroke="#ff0000" points="524.6463,-189.9053 517.5887,-182.0034 518.1782,-192.5818 524.6463,-189.9053"/>
</g>
<!-- #20» v2 = eval(v1)&#45;&gt;#44 35.v2&#45;o7 -->
<g id="edge25" class="edge">
<title>#20» v2 = eval(v1)&#45;&gt;#44 35.v2&#45;o7</title>
<path fill="none" stroke="#000000" stroke-dasharray="5,2" d="M538.7142,-147.0826C553.7315,-137.2527 571.7464,-123.8835 585.139,-109 602.2963,-89.9327 616.5661,-64.4334 625.9603,-45.2786"/>
<polygon fill="#000000" stroke="#000000" points="629.1559,-46.7085 630.2946,-36.175 622.8357,-43.6993 629.1559,-46.7085"/>
</g>
<!-- #24» return v2; -->
<g id="node19" class="node">
<title>#24» return v2;</title>
<ellipse fill="none" stroke="#000000" cx="510.139" cy="-91" rx="65.7887" ry="18"/>
<text text-anchor="middle" x="510.139" y="-87.3" font-family="Times,serif" font-size="14.00" fill="#000000">#24» return v2;</text>
</g>
<!-- #20» v2 = eval(v1)&#45;&gt;#24» return v2; -->
<g id="edge24" class="edge">
<title>#20» v2 = eval(v1)&#45;&gt;#24» return v2;</title>
<path fill="none" stroke="#ff0000" d="M510.139,-145.9551C510.139,-137.8828 510.139,-128.1764 510.139,-119.1817"/>
<polygon fill="#ff0000" stroke="#ff0000" points="513.6391,-119.0903 510.139,-109.0904 506.6391,-119.0904 513.6391,-119.0903"/>
</g>
<!-- #24» return v2;&#45;&gt;#44 35.v2&#45;o7 -->
<g id="edge27" class="edge">
<title>#24» return v2;&#45;&gt;#44 35.v2&#45;o7</title>
<path fill="none" stroke="#000000" stroke-dasharray="5,2" d="M538.8647,-74.6174C557.4012,-64.0458 581.6789,-50.1999 601.5858,-38.8468"/>
<polygon fill="#000000" stroke="#000000" points="603.4356,-41.821 610.3883,-33.8266 599.9677,-35.7404 603.4356,-41.821"/>
</g>
<!-- #36 CFG_F_END 2_anon -->
<g id="node20" class="node">
<title>#36 CFG_F_END 2_anon</title>
<ellipse fill="none" stroke="#ff0000" cx="459.139" cy="-18" rx="103.1819" ry="18"/>
<text text-anchor="middle" x="459.139" y="-14.3" font-family="Times,serif" font-size="14.00" fill="#ff0000">#36 CFG_F_END 2_anon</text>
</g>
<!-- #24» return v2;&#45;&gt;#36 CFG_F_END 2_anon -->
<g id="edge26" class="edge">
<title>#24» return v2;&#45;&gt;#36 CFG_F_END 2_anon</title>
<path fill="none" stroke="#ff0000" d="M497.5322,-72.9551C491.525,-64.3564 484.2222,-53.9034 477.6049,-44.4316"/>
<polygon fill="#ff0000" stroke="#ff0000" points="480.3737,-42.2835 471.7775,-36.0904 474.6354,-46.2925 480.3737,-42.2835"/>
</g>
</g>
</svg>
