<?xml version="1.0" encoding="UTF-8" standalone="no"?>
<!DOCTYPE svg PUBLIC "-//W3C//DTD SVG 1.1//EN"
 "http://www.w3.org/Graphics/SVG/1.1/DTD/svg11.dtd">
<!-- Generated by graphviz version 2.40.1 (20161225.0304)
 -->
<!-- Title: G Pages: 1 -->
<svg width="363pt" height="698pt"
 viewBox="0.00 0.00 363.19 698.00" xmlns="http://www.w3.org/2000/svg" xmlns:xlink="http://www.w3.org/1999/xlink">
<g id="graph0" class="graph" transform="scale(1 1) rotate(0) translate(4 694)">
<title>G</title>
<polygon fill="#ffffff" stroke="transparent" points="-4,4 -4,-694 359.1938,-694 359.1938,4 -4,4"/>
<!-- #35 CFG_F_START __main__ -->
<g id="node1" class="node">
<title>#35 CFG_F_START __main__</title>
<ellipse fill="none" stroke="#ff0000" cx="153.1938" cy="-672" rx="122.6784" ry="18"/>
<text text-anchor="middle" x="153.1938" y="-668.3" font-family="Times,serif" font-size="14.00" fill="#ff0000">#35 CFG_F_START __main__</text>
</g>
<!-- #1» x = {}; -->
<g id="node2" class="node">
<title>#1» x = {};</title>
<ellipse fill="none" stroke="#000000" cx="153.1938" cy="-599" rx="51.9908" ry="18"/>
<text text-anchor="middle" x="153.1938" y="-595.3" font-family="Times,serif" font-size="14.00" fill="#000000">#1» x = {};</text>
</g>
<!-- #35 CFG_F_START __main__&#45;&gt;#1» x = {}; -->
<g id="edge1" class="edge">
<title>#35 CFG_F_START __main__&#45;&gt;#1» x = {};</title>
<path fill="none" stroke="#ff0000" d="M153.1938,-653.9551C153.1938,-645.8828 153.1938,-636.1764 153.1938,-627.1817"/>
<polygon fill="#ff0000" stroke="#ff0000" points="156.6939,-627.0903 153.1938,-617.0904 149.6939,-627.0904 156.6939,-627.0903"/>
</g>
<!-- #5» x.f = 3; -->
<g id="node3" class="node">
<title>#5» x.f = 3;</title>
<ellipse fill="none" stroke="#000000" cx="72.1938" cy="-512" rx="53.0913" ry="18"/>
<text text-anchor="middle" x="72.1938" y="-508.3" font-family="Times,serif" font-size="14.00" fill="#000000">#5» x.f = 3;</text>
</g>
<!-- #1» x = {};&#45;&gt;#5» x.f = 3; -->
<g id="edge2" class="edge">
<title>#1» x = {};&#45;&gt;#5» x.f = 3;</title>
<path fill="none" stroke="#ff0000" d="M137.1908,-581.8116C125.287,-569.026 108.8606,-551.3829 95.4998,-537.0324"/>
<polygon fill="#ff0000" stroke="#ff0000" points="97.8166,-534.3845 88.4408,-529.4505 92.6933,-539.1544 97.8166,-534.3845"/>
</g>
<!-- #37 PDG_OBJECT o1 -->
<g id="node4" class="node">
<title>#37 PDG_OBJECT o1</title>
<ellipse fill="none" stroke="#006400" cx="235.1938" cy="-512" rx="91.784" ry="18"/>
<text text-anchor="middle" x="235.1938" y="-508.3" font-family="Times,serif" font-size="14.00" fill="#006400">#37 PDG_OBJECT o1</text>
</g>
<!-- #1» x = {};&#45;&gt;#37 PDG_OBJECT o1 -->
<g id="edge3" class="edge">
<title>#1» x = {};&#45;&gt;#37 PDG_OBJECT o1</title>
<path fill="none" stroke="#006400" d="M169.3943,-581.8116C181.3663,-569.1096 197.8571,-551.6133 211.3344,-537.3142"/>
<polygon fill="#006400" stroke="#006400" points="214.152,-539.4277 218.4639,-529.75 209.058,-534.6265 214.152,-539.4277"/>
<text text-anchor="middle" x="234.1938" y="-551.8" font-family="Times,serif" font-size="14.00" fill="#006400">CREATE o1</text>
</g>
<!-- #11» aux1 = x.f; -->
<g id="node5" class="node">
<title>#11» aux1 = x.f;</title>
<ellipse fill="none" stroke="#000000" cx="70.1938" cy="-338" rx="70.3881" ry="18"/>
<text text-anchor="middle" x="70.1938" y="-334.3" font-family="Times,serif" font-size="14.00" fill="#000000">#11» aux1 = x.f;</text>
</g>
<!-- #5» x.f = 3;&#45;&gt;#11» aux1 = x.f; -->
<g id="edge4" class="edge">
<title>#5» x.f = 3;&#45;&gt;#11» aux1 = x.f;</title>
<path fill="none" stroke="#ff0000" d="M71.1889,-493.8474C70.4712,-479.9365 69.5689,-460.2622 69.1938,-443 68.6306,-417.0811 69.0017,-387.5564 69.4429,-366.4305"/>
<polygon fill="#ff0000" stroke="#ff0000" points="72.9469,-366.2892 69.6754,-356.2121 65.9487,-366.1299 72.9469,-366.2892"/>
</g>
<!-- #38 PDG_OBJECT o2 -->
<g id="node6" class="node">
<title>#38 PDG_OBJECT o2</title>
<ellipse fill="none" stroke="#006400" cx="170.1938" cy="-425" rx="91.784" ry="18"/>
<text text-anchor="middle" x="170.1938" y="-421.3" font-family="Times,serif" font-size="14.00" fill="#006400">#38 PDG_OBJECT o2</text>
</g>
<!-- #5» x.f = 3;&#45;&gt;#38 PDG_OBJECT o2 -->
<g id="edge5" class="edge">
<title>#5» x.f = 3;&#45;&gt;#38 PDG_OBJECT o2</title>
<path fill="none" stroke="#006400" d="M83.0128,-494.0964C89.9166,-483.6314 99.5495,-470.6303 110.1938,-461 115.6437,-456.0692 121.8687,-451.4584 128.1981,-447.2916"/>
<polygon fill="#006400" stroke="#006400" points="130.2056,-450.1644 136.8308,-441.8966 126.4958,-444.2283 130.2056,-450.1644"/>
<text text-anchor="middle" x="136.1938" y="-464.8" font-family="Times,serif" font-size="14.00" fill="#006400">WRITE f</text>
</g>
<!-- #37 PDG_OBJECT o1&#45;&gt;#38 PDG_OBJECT o2 -->
<g id="edge6" class="edge">
<title>#37 PDG_OBJECT o1&#45;&gt;#38 PDG_OBJECT o2</title>
<path fill="none" stroke="#006400" d="M191.3608,-496.1621C182.9219,-491.0507 175.1711,-484.4465 170.1938,-476 166.238,-469.2872 165.0018,-461.163 165.083,-453.3911"/>
<polygon fill="#006400" stroke="#006400" points="168.5913,-453.4185 165.8784,-443.1769 161.6125,-452.875 168.5913,-453.4185"/>
<text text-anchor="middle" x="223.1938" y="-464.8" font-family="Times,serif" font-size="14.00" fill="#006400">NEW_VERSION f</text>
</g>
<!-- #17» aux2 = x.g; -->
<g id="node7" class="node">
<title>#17» aux2 = x.g;</title>
<ellipse fill="none" stroke="#000000" cx="201.1938" cy="-265" rx="71.4873" ry="18"/>
<text text-anchor="middle" x="201.1938" y="-261.3" font-family="Times,serif" font-size="14.00" fill="#000000">#17» aux2 = x.g;</text>
</g>
<!-- #37 PDG_OBJECT o1&#45;&gt;#17» aux2 = x.g; -->
<g id="edge7" class="edge">
<title>#37 PDG_OBJECT o1&#45;&gt;#17» aux2 = x.g;</title>
<path fill="none" stroke="#006400" d="M261.8289,-494.5215C267.6323,-489.3127 272.9902,-483.0761 276.1938,-476 304.9209,-412.5468 292.8408,-382.0485 261.1938,-320 255.0131,-307.882 244.9965,-297.1003 234.9029,-288.3636"/>
<polygon fill="#006400" stroke="#006400" points="236.8254,-285.4153 226.8633,-281.8089 232.4021,-290.8406 236.8254,-285.4153"/>
<text text-anchor="middle" x="322.1938" y="-377.8" font-family="Times,serif" font-size="14.00" fill="#006400">LOOKUP g</text>
</g>
<!-- #11» aux1 = x.f;&#45;&gt;#17» aux2 = x.g; -->
<g id="edge8" class="edge">
<title>#11» aux1 = x.f;&#45;&gt;#17» aux2 = x.g;</title>
<path fill="none" stroke="#ff0000" d="M99.5927,-321.6174C118.1712,-311.2645 142.3848,-297.7714 162.5136,-286.5546"/>
<polygon fill="#ff0000" stroke="#ff0000" points="164.4081,-289.5057 171.4397,-281.5805 161.0007,-283.391 164.4081,-289.5057"/>
</g>
<!-- #23» aux = aux1 + aux2; -->
<g id="node8" class="node">
<title>#23» aux = aux1 + aux2;</title>
<ellipse fill="none" stroke="#000000" cx="127.1938" cy="-178" rx="100.9827" ry="18"/>
<text text-anchor="middle" x="127.1938" y="-174.3" font-family="Times,serif" font-size="14.00" fill="#000000">#23» aux = aux1 + aux2;</text>
</g>
<!-- #11» aux1 = x.f;&#45;&gt;#23» aux = aux1 + aux2; -->
<g id="edge9" class="edge">
<title>#11» aux1 = x.f;&#45;&gt;#23» aux = aux1 + aux2;</title>
<path fill="none" stroke="#006400" d="M63.9169,-319.8618C58.4378,-300.9786 52.7169,-270.8808 62.1938,-247 69.0306,-229.7719 82.4324,-214.3476 95.2996,-202.4745"/>
<polygon fill="#006400" stroke="#006400" points="97.9735,-204.7845 103.1787,-195.5564 93.3549,-199.5243 97.9735,-204.7845"/>
<text text-anchor="middle" x="91.6938" y="-261.3" font-family="Times,serif" font-size="14.00" fill="#006400">VAR aux1</text>
</g>
<!-- #38 PDG_OBJECT o2&#45;&gt;#11» aux1 = x.f; -->
<g id="edge10" class="edge">
<title>#38 PDG_OBJECT o2&#45;&gt;#11» aux1 = x.f;</title>
<path fill="none" stroke="#006400" d="M133.134,-408.3284C123.4341,-402.9713 113.4045,-396.4605 105.1938,-389 97.5254,-382.0323 90.6657,-373.0723 85.0943,-364.6115"/>
<polygon fill="#006400" stroke="#006400" points="88.0356,-362.7136 79.7749,-356.0796 82.0956,-366.4172 88.0356,-362.7136"/>
<text text-anchor="middle" x="137.1938" y="-377.8" font-family="Times,serif" font-size="14.00" fill="#006400">LOOKUP f</text>
</g>
<!-- #38 PDG_OBJECT o2&#45;&gt;#17» aux2 = x.g; -->
<g id="edge11" class="edge">
<title>#38 PDG_OBJECT o2&#45;&gt;#17» aux2 = x.g;</title>
<path fill="none" stroke="#006400" d="M173.6896,-406.957C179.062,-379.2286 189.3918,-325.9135 195.7498,-293.0982"/>
<polygon fill="#006400" stroke="#006400" points="199.197,-293.7058 197.6631,-283.2226 192.3248,-292.3742 199.197,-293.7058"/>
<text text-anchor="middle" x="224.1938" y="-334.3" font-family="Times,serif" font-size="14.00" fill="#006400">LOOKUP g</text>
</g>
<!-- #17» aux2 = x.g;&#45;&gt;#23» aux = aux1 + aux2; -->
<g id="edge12" class="edge">
<title>#17» aux2 = x.g;&#45;&gt;#23» aux = aux1 + aux2;</title>
<path fill="none" stroke="#ff0000" d="M199.5221,-246.5216C197.7983,-236.1121 194.2983,-223.3621 187.1938,-214 183.3867,-208.9831 178.6608,-204.5217 173.5445,-200.5967"/>
<polygon fill="#ff0000" stroke="#ff0000" points="175.4748,-197.6762 165.259,-194.8674 171.4935,-203.4338 175.4748,-197.6762"/>
</g>
<!-- #17» aux2 = x.g;&#45;&gt;#23» aux = aux1 + aux2; -->
<g id="edge13" class="edge">
<title>#17» aux2 = x.g;&#45;&gt;#23» aux = aux1 + aux2;</title>
<path fill="none" stroke="#006400" d="M151.8371,-251.8634C140.9252,-246.5713 130.6903,-239.2089 124.1938,-229 119.9558,-222.3403 119.0271,-214.147 119.619,-206.2915"/>
<polygon fill="#006400" stroke="#006400" points="123.0929,-206.7265 121.1224,-196.3165 116.171,-205.6831 123.0929,-206.7265"/>
<text text-anchor="middle" x="153.6938" y="-217.8" font-family="Times,serif" font-size="14.00" fill="#006400">VAR aux2</text>
</g>
<!-- #29» y = eval(aux); -->
<g id="node9" class="node">
<title>#29» y = eval(aux);</title>
<ellipse fill="none" stroke="#000000" cx="127.1938" cy="-91" rx="81.4863" ry="18"/>
<text text-anchor="middle" x="127.1938" y="-87.3" font-family="Times,serif" font-size="14.00" fill="#000000">#29» y = eval(aux);</text>
</g>
<!-- #23» aux = aux1 + aux2;&#45;&gt;#29» y = eval(aux); -->
<g id="edge14" class="edge">
<title>#23» aux = aux1 + aux2;&#45;&gt;#29» y = eval(aux);</title>
<path fill="none" stroke="#ff0000" d="M125.877,-159.5906C125.334,-149.8955 124.8938,-137.8062 125.1938,-127 125.2612,-124.5714 125.3541,-122.0517 125.4633,-119.5244"/>
<polygon fill="#ff0000" stroke="#ff0000" points="128.9704,-119.4699 125.9797,-109.3059 121.9794,-119.1165 128.9704,-119.4699"/>
</g>
<!-- #23» aux = aux1 + aux2;&#45;&gt;#29» y = eval(aux); -->
<g id="edge15" class="edge">
<title>#23» aux = aux1 + aux2;&#45;&gt;#29» y = eval(aux);</title>
<path fill="none" stroke="#006400" d="M127.1938,-159.9735C127.1938,-148.1918 127.1938,-132.5607 127.1938,-119.1581"/>
<polygon fill="#006400" stroke="#006400" points="130.6939,-119.0033 127.1938,-109.0034 123.6939,-119.0034 130.6939,-119.0033"/>
<text text-anchor="middle" x="153.1938" y="-130.8" font-family="Times,serif" font-size="14.00" fill="#006400">VAR aux</text>
</g>
<!-- #36 CFG_F_END __main__ -->
<g id="node10" class="node">
<title>#36 CFG_F_END __main__</title>
<ellipse fill="none" stroke="#ff0000" cx="127.1938" cy="-18" rx="113.18" ry="18"/>
<text text-anchor="middle" x="127.1938" y="-14.3" font-family="Times,serif" font-size="14.00" fill="#ff0000">#36 CFG_F_END __main__</text>
</g>
<!-- #29» y = eval(aux);&#45;&gt;#36 CFG_F_END __main__ -->
<g id="edge16" class="edge">
<title>#29» y = eval(aux);&#45;&gt;#36 CFG_F_END __main__</title>
<path fill="none" stroke="#ff0000" d="M127.1938,-72.9551C127.1938,-64.8828 127.1938,-55.1764 127.1938,-46.1817"/>
<polygon fill="#ff0000" stroke="#ff0000" points="130.6939,-46.0903 127.1938,-36.0904 123.6939,-46.0904 130.6939,-46.0903"/>
</g>
</g>
</svg>
