<?xml version="1.0" encoding="UTF-8" standalone="no"?>
<!DOCTYPE svg PUBLIC "-//W3C//DTD SVG 1.1//EN"
 "http://www.w3.org/Graphics/SVG/1.1/DTD/svg11.dtd">
<!-- Generated by graphviz version 2.40.1 (20161225.0304)
 -->
<!-- Title: G Pages: 1 -->
<svg width="585pt" height="364pt"
 viewBox="0.00 0.00 585.28 364.00" xmlns="http://www.w3.org/2000/svg" xmlns:xlink="http://www.w3.org/1999/xlink">
<g id="graph0" class="graph" transform="scale(1 1) rotate(0) translate(4 360)">
<title>G</title>
<polygon fill="#ffffff" stroke="transparent" points="-4,4 -4,-360 581.2814,-360 581.2814,4 -4,4"/>
<!-- #13 CFG_F_START __main__ -->
<g id="node1" class="node">
<title>#13 CFG_F_START __main__</title>
<ellipse fill="none" stroke="#ff0000" cx="201.6419" cy="-338" rx="122.6784" ry="18"/>
<text text-anchor="middle" x="201.6419" y="-334.3" font-family="Times,serif" font-size="14.00" fill="#ff0000">#13 CFG_F_START __main__</text>
</g>
<!-- #1» v1 = 1 + 2 -->
<g id="node2" class="node">
<title>#1» v1 = 1 + 2</title>
<ellipse fill="none" stroke="#000000" cx="201.6419" cy="-265" rx="64.189" ry="18"/>
<text text-anchor="middle" x="201.6419" y="-261.3" font-family="Times,serif" font-size="14.00" fill="#000000">#1» v1 = 1 + 2</text>
</g>
<!-- #13 CFG_F_START __main__&#45;&gt;#1» v1 = 1 + 2 -->
<g id="edge1" class="edge">
<title>#13 CFG_F_START __main__&#45;&gt;#1» v1 = 1 + 2</title>
<path fill="none" stroke="#ff0000" d="M201.6419,-319.9551C201.6419,-311.8828 201.6419,-302.1764 201.6419,-293.1817"/>
<polygon fill="#ff0000" stroke="#ff0000" points="205.142,-293.0903 201.6419,-283.0904 198.142,-293.0904 205.142,-293.0903"/>
</g>
<!-- #5» v2 = v1 + 3 -->
<g id="node6" class="node">
<title>#5» v2 = v1 + 3</title>
<ellipse fill="none" stroke="#000000" cx="202.6419" cy="-178" rx="68.7879" ry="18"/>
<text text-anchor="middle" x="202.6419" y="-174.3" font-family="Times,serif" font-size="14.00" fill="#000000">#5» v2 = v1 + 3</text>
</g>
<!-- #1» v1 = 1 + 2&#45;&gt;#5» v2 = v1 + 3 -->
<g id="edge3" class="edge">
<title>#1» v1 = 1 + 2&#45;&gt;#5» v2 = v1 + 3</title>
<path fill="none" stroke="#ff0000" d="M200.2023,-246.5864C199.6258,-236.89 199.1926,-224.801 199.6419,-214 199.743,-211.5679 199.8825,-209.0458 200.0463,-206.5168"/>
<polygon fill="#ff0000" stroke="#ff0000" points="203.5551,-206.5317 200.821,-196.2957 196.5751,-206.0026 203.5551,-206.5317"/>
</g>
<!-- #1» v1 = 1 + 2&#45;&gt;#5» v2 = v1 + 3 -->
<g id="edge4" class="edge">
<title>#1» v1 = 1 + 2&#45;&gt;#5» v2 = v1 + 3</title>
<path fill="none" stroke="#006400" d="M201.8491,-246.9735C201.9845,-235.1918 202.1642,-219.5607 202.3182,-206.1581"/>
<polygon fill="#006400" stroke="#006400" points="205.8197,-206.043 202.4349,-196.0034 198.8201,-205.9624 205.8197,-206.043"/>
<text text-anchor="middle" x="225.1419" y="-217.8" font-family="Times,serif" font-size="14.00" fill="#006400">CONST</text>
</g>
<!-- #15 CFG_F_START 10_anon -->
<g id="node3" class="node">
<title>#15 CFG_F_START 10_anon</title>
<ellipse fill="none" stroke="#ff0000" cx="459.6419" cy="-338" rx="117.7793" ry="18"/>
<text text-anchor="middle" x="459.6419" y="-334.3" font-family="Times,serif" font-size="14.00" fill="#ff0000">#15 CFG_F_START 10_anon</text>
</g>
<!-- #12 Identifier (v2) -->
<g id="node4" class="node">
<title>#12 Identifier (v2)</title>
<ellipse fill="none" stroke="#000000" cx="459.6419" cy="-265" rx="76.0865" ry="18"/>
<text text-anchor="middle" x="459.6419" y="-261.3" font-family="Times,serif" font-size="14.00" fill="#000000">#12 Identifier (v2)</text>
</g>
<!-- #15 CFG_F_START 10_anon&#45;&gt;#12 Identifier (v2) -->
<g id="edge2" class="edge">
<title>#15 CFG_F_START 10_anon&#45;&gt;#12 Identifier (v2)</title>
<path fill="none" stroke="#ff0000" d="M459.6419,-319.9551C459.6419,-311.8828 459.6419,-302.1764 459.6419,-293.1817"/>
<polygon fill="#ff0000" stroke="#ff0000" points="463.142,-293.0903 459.6419,-283.0904 456.142,-293.0904 463.142,-293.0903"/>
</g>
<!-- #16 CFG_F_END 10_anon -->
<g id="node7" class="node">
<title>#16 CFG_F_END 10_anon</title>
<ellipse fill="none" stroke="#ff0000" cx="459.6419" cy="-178" rx="107.781" ry="18"/>
<text text-anchor="middle" x="459.6419" y="-174.3" font-family="Times,serif" font-size="14.00" fill="#ff0000">#16 CFG_F_END 10_anon</text>
</g>
<!-- #12 Identifier (v2)&#45;&gt;#16 CFG_F_END 10_anon -->
<g id="edge5" class="edge">
<title>#12 Identifier (v2)&#45;&gt;#16 CFG_F_END 10_anon</title>
<path fill="none" stroke="#ff0000" d="M459.6419,-246.9735C459.6419,-235.1918 459.6419,-219.5607 459.6419,-206.1581"/>
<polygon fill="#ff0000" stroke="#ff0000" points="463.142,-206.0033 459.6419,-196.0034 456.142,-206.0034 463.142,-206.0033"/>
</g>
<!-- #17 PDG_OBJECT o1 -->
<g id="node5" class="node">
<title>#17 PDG_OBJECT o1</title>
<ellipse fill="none" stroke="#006400" cx="91.6419" cy="-18" rx="91.784" ry="18"/>
<text text-anchor="middle" x="91.6419" y="-14.3" font-family="Times,serif" font-size="14.00" fill="#006400">#17 PDG_OBJECT o1</text>
</g>
<!-- #9» x = Function (__10_anon__) -->
<g id="node8" class="node">
<title>#9» x = Function (__10_anon__)</title>
<ellipse fill="none" stroke="#000000" cx="202.6419" cy="-105" rx="128.0773" ry="18"/>
<text text-anchor="middle" x="202.6419" y="-101.3" font-family="Times,serif" font-size="14.00" fill="#000000">#9» x = Function (__10_anon__)</text>
</g>
<!-- #5» v2 = v1 + 3&#45;&gt;#9» x = Function (__10_anon__) -->
<g id="edge6" class="edge">
<title>#5» v2 = v1 + 3&#45;&gt;#9» x = Function (__10_anon__)</title>
<path fill="none" stroke="#ff0000" d="M202.6419,-159.9551C202.6419,-151.8828 202.6419,-142.1764 202.6419,-133.1817"/>
<polygon fill="#ff0000" stroke="#ff0000" points="206.142,-133.0903 202.6419,-123.0904 199.142,-133.0904 206.142,-133.0903"/>
</g>
<!-- #9» x = Function (__10_anon__)&#45;&gt;#17 PDG_OBJECT o1 -->
<g id="edge8" class="edge">
<title>#9» x = Function (__10_anon__)&#45;&gt;#17 PDG_OBJECT o1</title>
<path fill="none" stroke="#000000" d="M179.9115,-87.1843C163.1906,-74.0788 140.2871,-56.1274 122.0007,-41.7948"/>
<polygon fill="#000000" stroke="#000000" points="123.9922,-38.9087 113.9625,-35.4946 119.674,-44.4181 123.9922,-38.9087"/>
<text text-anchor="middle" x="186.1419" y="-57.8" font-family="Times,serif" font-size="14.00" fill="#000000">CREATE z</text>
</g>
<!-- #14 CFG_F_END __main__ -->
<g id="node9" class="node">
<title>#14 CFG_F_END __main__</title>
<ellipse fill="none" stroke="#ff0000" cx="314.6419" cy="-18" rx="113.18" ry="18"/>
<text text-anchor="middle" x="314.6419" y="-14.3" font-family="Times,serif" font-size="14.00" fill="#ff0000">#14 CFG_F_END __main__</text>
</g>
<!-- #9» x = Function (__10_anon__)&#45;&gt;#14 CFG_F_END __main__ -->
<g id="edge7" class="edge">
<title>#9» x = Function (__10_anon__)&#45;&gt;#14 CFG_F_END __main__</title>
<path fill="none" stroke="#ff0000" d="M225.577,-87.1843C242.3375,-74.165 265.2546,-56.3633 283.6448,-42.0781"/>
<polygon fill="#ff0000" stroke="#ff0000" points="285.9872,-44.6905 291.7374,-35.7919 281.693,-39.1624 285.9872,-44.6905"/>
</g>
</g>
</svg>
