<?xml version="1.0" encoding="UTF-8" standalone="no"?>
<!DOCTYPE svg PUBLIC "-//W3C//DTD SVG 1.1//EN"
 "http://www.w3.org/Graphics/SVG/1.1/DTD/svg11.dtd">
<!-- Generated by graphviz version 2.40.1 (20161225.0304)
 -->
<!-- Title: G Pages: 1 -->
<svg width="1589pt" height="1370pt"
 viewBox="0.00 0.00 1589.18 1370.00" xmlns="http://www.w3.org/2000/svg" xmlns:xlink="http://www.w3.org/1999/xlink">
<g id="graph0" class="graph" transform="scale(1 1) rotate(0) translate(4 1366)">
<title>G</title>
<polygon fill="#ffffff" stroke="transparent" points="-4,4 -4,-1366 1585.1811,-1366 1585.1811,4 -4,4"/>
<!-- #0 Program (0) -->
<g id="node1" class="node">
<title>#0 Program (0)</title>
<ellipse fill="none" stroke="#000000" cx="1165.0911" cy="-1344" rx="65.7887" ry="18"/>
<text text-anchor="middle" x="1165.0911" y="-1340.3" font-family="Times,serif" font-size="14.00" fill="#000000">#0 Program (0)</text>
</g>
<!-- #1 Variable (f) &#45; (34) -->
<g id="node2" class="node">
<title>#1 Variable (f) &#45; (34)</title>
<ellipse fill="none" stroke="#000000" cx="1268.0911" cy="-1257" rx="85.5853" ry="18"/>
<text text-anchor="middle" x="1268.0911" y="-1253.3" font-family="Times,serif" font-size="14.00" fill="#000000">#1 Variable (f) &#45; (34)</text>
</g>
<!-- #0 Program (0)&#45;&gt;#1 Variable (f) &#45; (34) -->
<g id="edge1" class="edge">
<title>#0 Program (0)&#45;&gt;#1 Variable (f) &#45; (34)</title>
<path fill="none" stroke="#0000ff" d="M1185.4406,-1326.8116C1200.7571,-1313.8744 1221.9618,-1295.9636 1239.0579,-1281.5232"/>
<polygon fill="#0000ff" stroke="#0000ff" points="1241.6957,-1283.8766 1247.0768,-1274.75 1237.1788,-1278.529 1241.6957,-1283.8766"/>
<text text-anchor="middle" x="1226.5911" y="-1296.8" font-family="Times,serif" font-size="14.00" fill="#0000ff">1</text>
</g>
<!-- #36 CFG_F_START 2_anon -->
<g id="node4" class="node">
<title>#36 CFG_F_START 2_anon</title>
<ellipse fill="none" stroke="#ff0000" cx="1150.0911" cy="-1083" rx="113.18" ry="18"/>
<text text-anchor="middle" x="1150.0911" y="-1079.3" font-family="Times,serif" font-size="14.00" fill="#ff0000">#36 CFG_F_START 2_anon</text>
</g>
<!-- #1 Variable (f) &#45; (34)&#45;&gt;#36 CFG_F_START 2_anon -->
<g id="edge6" class="edge">
<title>#1 Variable (f) &#45; (34)&#45;&gt;#36 CFG_F_START 2_anon</title>
<path fill="none" stroke="#000000" d="M1281.7508,-1238.8625C1301.4189,-1210.3686 1332.403,-1154.6935 1304.0911,-1119 1296.2582,-1109.1249 1274.2356,-1101.7026 1249.2088,-1096.2439"/>
<polygon fill="#000000" stroke="#000000" points="1249.609,-1092.7532 1239.1097,-1094.1727 1248.2027,-1099.6104 1249.609,-1092.7532"/>
<text text-anchor="middle" x="1325.0911" y="-1166.3" font-family="Times,serif" font-size="14.00" fill="#000000">FD</text>
</g>
<!-- #2 Function (anon) &#45; (34) -->
<g id="node8" class="node">
<title>#2 Function (anon) &#45; (34)</title>
<ellipse fill="none" stroke="#000000" cx="1150.0911" cy="-1170" rx="100.9827" ry="18"/>
<text text-anchor="middle" x="1150.0911" y="-1166.3" font-family="Times,serif" font-size="14.00" fill="#000000">#2 Function (anon) &#45; (34)</text>
</g>
<!-- #1 Variable (f) &#45; (34)&#45;&gt;#2 Function (anon) &#45; (34) -->
<g id="edge5" class="edge">
<title>#1 Variable (f) &#45; (34)&#45;&gt;#2 Function (anon) &#45; (34)</title>
<path fill="none" stroke="#0000ff" d="M1244.4957,-1239.6033C1226.6054,-1226.4131 1201.8232,-1208.1415 1182.1391,-1193.6286"/>
<polygon fill="#0000ff" stroke="#0000ff" points="1184.176,-1190.782 1174.0501,-1187.6647 1180.022,-1196.4162 1184.176,-1190.782"/>
<text text-anchor="middle" x="1226.5911" y="-1209.8" font-family="Times,serif" font-size="14.00" fill="#0000ff">init</text>
</g>
<!-- #35 CFG_F_END __main__ -->
<g id="node9" class="node">
<title>#35 CFG_F_END __main__</title>
<ellipse fill="none" stroke="#ff0000" cx="1468.0911" cy="-1170" rx="113.18" ry="18"/>
<text text-anchor="middle" x="1468.0911" y="-1166.3" font-family="Times,serif" font-size="14.00" fill="#ff0000">#35 CFG_F_END __main__</text>
</g>
<!-- #1 Variable (f) &#45; (34)&#45;&gt;#35 CFG_F_END __main__ -->
<g id="edge7" class="edge">
<title>#1 Variable (f) &#45; (34)&#45;&gt;#35 CFG_F_END __main__</title>
<path fill="none" stroke="#ff0000" d="M1305.7096,-1240.636C1337.8764,-1226.6434 1384.3813,-1206.4138 1419.3866,-1191.1865"/>
<polygon fill="#ff0000" stroke="#ff0000" points="1421.1596,-1194.2321 1428.9335,-1187.0336 1418.3673,-1187.8131 1421.1596,-1194.2321"/>
</g>
<!-- #41 this&#45;o2 -->
<g id="node10" class="node">
<title>#41 this&#45;o2</title>
<ellipse fill="none" stroke="#006400" cx="477.0911" cy="-975" rx="50.8918" ry="18"/>
<text text-anchor="middle" x="477.0911" y="-971.3" font-family="Times,serif" font-size="14.00" fill="#006400">#41 this&#45;o2</text>
</g>
<!-- #1 Variable (f) &#45; (34)&#45;&gt;#41 this&#45;o2 -->
<g id="edge8" class="edge">
<title>#1 Variable (f) &#45; (34)&#45;&gt;#41 this&#45;o2</title>
<path fill="none" stroke="#006400" d="M1186.9179,-1251.1018C1058.1091,-1238.8958 802.0507,-1202.8593 612.0911,-1101 564.7742,-1075.6279 521.5918,-1029.5304 497.3836,-1000.6813"/>
<polygon fill="#006400" stroke="#006400" points="499.8464,-998.1666 490.7835,-992.6788 494.4461,-1002.6205 499.8464,-998.1666"/>
<text text-anchor="middle" x="713.0911" y="-1122.8" font-family="Times,serif" font-size="14.00" fill="#006400">CREATE this</text>
</g>
<!-- #34 CFG_F_START __main__ -->
<g id="node3" class="node">
<title>#34 CFG_F_START __main__</title>
<ellipse fill="none" stroke="#ff0000" cx="1371.0911" cy="-1344" rx="122.6784" ry="18"/>
<text text-anchor="middle" x="1371.0911" y="-1340.3" font-family="Times,serif" font-size="14.00" fill="#ff0000">#34 CFG_F_START __main__</text>
</g>
<!-- #34 CFG_F_START __main__&#45;&gt;#1 Variable (f) &#45; (34) -->
<g id="edge2" class="edge">
<title>#34 CFG_F_START __main__&#45;&gt;#1 Variable (f) &#45; (34)</title>
<path fill="none" stroke="#ff0000" d="M1349.7495,-1325.9735C1334.4567,-1313.0564 1313.686,-1295.5122 1296.9202,-1281.3508"/>
<polygon fill="#ff0000" stroke="#ff0000" points="1298.951,-1278.4847 1289.053,-1274.7057 1294.4341,-1283.8323 1298.951,-1278.4847"/>
</g>
<!-- #5 ExpressionStatement (36) -->
<g id="node5" class="node">
<title>#5 ExpressionStatement (36)</title>
<ellipse fill="none" stroke="#000000" cx="826.0911" cy="-975" rx="113.9803" ry="18"/>
<text text-anchor="middle" x="826.0911" y="-971.3" font-family="Times,serif" font-size="14.00" fill="#000000">#5 ExpressionStatement (36)</text>
</g>
<!-- #36 CFG_F_START 2_anon&#45;&gt;#5 ExpressionStatement (36) -->
<g id="edge3" class="edge">
<title>#36 CFG_F_START 2_anon&#45;&gt;#5 ExpressionStatement (36)</title>
<path fill="none" stroke="#ff0000" d="M1101.2342,-1066.7144C1043.2577,-1047.3889 946.6655,-1015.1915 884.7143,-994.5411"/>
<polygon fill="#ff0000" stroke="#ff0000" points="885.6738,-991.1716 875.0801,-991.3297 883.4602,-997.8124 885.6738,-991.1716"/>
</g>
<!-- #6 AssignmentExpression (36) -->
<g id="node11" class="node">
<title>#6 AssignmentExpression (36)</title>
<ellipse fill="none" stroke="#000000" cx="926.0911" cy="-888" rx="120.4791" ry="18"/>
<text text-anchor="middle" x="926.0911" y="-884.3" font-family="Times,serif" font-size="14.00" fill="#000000">#6 AssignmentExpression (36)</text>
</g>
<!-- #5 ExpressionStatement (36)&#45;&gt;#6 AssignmentExpression (36) -->
<g id="edge9" class="edge">
<title>#5 ExpressionStatement (36)&#45;&gt;#6 AssignmentExpression (36)</title>
<path fill="none" stroke="#0000ff" d="M846.8112,-956.9735C861.5602,-944.1419 881.5574,-926.7443 897.7778,-912.6326"/>
<polygon fill="#0000ff" stroke="#0000ff" points="900.1504,-915.2076 905.3976,-906.0034 895.5559,-909.9265 900.1504,-915.2076"/>
<text text-anchor="middle" x="911.0911" y="-927.8" font-family="Times,serif" font-size="14.00" fill="#0000ff">expression</text>
</g>
<!-- #11 Variable (self) &#45; (36) -->
<g id="node12" class="node">
<title>#11 Variable (self) &#45; (36)</title>
<ellipse fill="none" stroke="#000000" cx="568.0911" cy="-801" rx="100.1823" ry="18"/>
<text text-anchor="middle" x="568.0911" y="-797.3" font-family="Times,serif" font-size="14.00" fill="#000000">#11 Variable (self) &#45; (36)</text>
</g>
<!-- #5 ExpressionStatement (36)&#45;&gt;#11 Variable (self) &#45; (36) -->
<g id="edge10" class="edge">
<title>#5 ExpressionStatement (36)&#45;&gt;#11 Variable (self) &#45; (36)</title>
<path fill="none" stroke="#ff0000" d="M813.9669,-956.8011C792.3691,-926.0786 744.0206,-864.5846 686.0911,-837 670.9577,-829.7939 654.0497,-823.6293 637.8663,-818.5429"/>
<polygon fill="#ff0000" stroke="#ff0000" points="638.4915,-815.0749 627.9058,-815.5156 636.4558,-821.7724 638.4915,-815.0749"/>
</g>
<!-- #44 this&#45;o5 -->
<g id="node13" class="node">
<title>#44 this&#45;o5</title>
<ellipse fill="none" stroke="#006400" cx="675.0911" cy="-888" rx="50.8918" ry="18"/>
<text text-anchor="middle" x="675.0911" y="-884.3" font-family="Times,serif" font-size="14.00" fill="#006400">#44 this&#45;o5</text>
</g>
<!-- #5 ExpressionStatement (36)&#45;&gt;#44 this&#45;o5 -->
<g id="edge11" class="edge">
<title>#5 ExpressionStatement (36)&#45;&gt;#44 this&#45;o5</title>
<path fill="none" stroke="#006400" d="M739.0688,-963.3916C710.9591,-957.7504 684.778,-949.799 676.0911,-939 671.0737,-932.7627 669.4748,-924.5718 669.5059,-916.5845"/>
<polygon fill="#006400" stroke="#006400" points="673.0133,-916.6339 670.3352,-906.3831 666.0364,-916.0666 673.0133,-916.6339"/>
<text text-anchor="middle" x="720.0911" y="-927.8" font-family="Times,serif" font-size="14.00" fill="#006400">WRITE options</text>
</g>
<!-- #38 CFG_F_START 14_anon -->
<g id="node6" class="node">
<title>#38 CFG_F_START 14_anon</title>
<ellipse fill="none" stroke="#ff0000" cx="336.0911" cy="-540" rx="117.7793" ry="18"/>
<text text-anchor="middle" x="336.0911" y="-536.3" font-family="Times,serif" font-size="14.00" fill="#ff0000">#38 CFG_F_START 14_anon</text>
</g>
<!-- #16 Variable (v2) &#45; (38) -->
<g id="node7" class="node">
<title>#16 Variable (v2) &#45; (38)</title>
<ellipse fill="none" stroke="#000000" cx="630.0911" cy="-453" rx="96.3833" ry="18"/>
<text text-anchor="middle" x="630.0911" y="-449.3" font-family="Times,serif" font-size="14.00" fill="#000000">#16 Variable (v2) &#45; (38)</text>
</g>
<!-- #38 CFG_F_START 14_anon&#45;&gt;#16 Variable (v2) &#45; (38) -->
<g id="edge4" class="edge">
<title>#38 CFG_F_START 14_anon&#45;&gt;#16 Variable (v2) &#45; (38)</title>
<path fill="none" stroke="#ff0000" d="M422.0354,-527.6701C484.863,-518.4846 560.2622,-507.0296 567.0911,-504 581.2717,-497.7088 594.922,-487.3783 605.8691,-477.6541"/>
<polygon fill="#ff0000" stroke="#ff0000" points="608.3701,-480.1083 613.3314,-470.7469 603.6151,-474.9712 608.3701,-480.1083"/>
</g>
<!-- #17 MemberExpression (38) -->
<g id="node14" class="node">
<title>#17 MemberExpression (38)</title>
<ellipse fill="none" stroke="#000000" cx="365.0911" cy="-366" rx="113.18" ry="18"/>
<text text-anchor="middle" x="365.0911" y="-362.3" font-family="Times,serif" font-size="14.00" fill="#000000">#17 MemberExpression (38)</text>
</g>
<!-- #16 Variable (v2) &#45; (38)&#45;&gt;#17 MemberExpression (38) -->
<g id="edge12" class="edge">
<title>#16 Variable (v2) &#45; (38)&#45;&gt;#17 MemberExpression (38)</title>
<path fill="none" stroke="#0000ff" d="M596.6557,-435.8681C574.5166,-425.0381 544.5965,-411.3677 517.0911,-402 494.5167,-394.3117 469.5158,-387.6574 446.4191,-382.2341"/>
<polygon fill="#0000ff" stroke="#0000ff" points="447.1799,-378.8177 436.6497,-379.9857 445.6099,-385.6394 447.1799,-378.8177"/>
<text text-anchor="middle" x="565.5911" y="-405.8" font-family="Times,serif" font-size="14.00" fill="#0000ff">init</text>
</g>
<!-- #20 Variable (v3) &#45; (38) -->
<g id="node15" class="node">
<title>#20 Variable (v3) &#45; (38)</title>
<ellipse fill="none" stroke="#000000" cx="672.0911" cy="-279" rx="96.3833" ry="18"/>
<text text-anchor="middle" x="672.0911" y="-275.3" font-family="Times,serif" font-size="14.00" fill="#000000">#20 Variable (v3) &#45; (38)</text>
</g>
<!-- #16 Variable (v2) &#45; (38)&#45;&gt;#20 Variable (v3) &#45; (38) -->
<g id="edge13" class="edge">
<title>#16 Variable (v2) &#45; (38)&#45;&gt;#20 Variable (v3) &#45; (38)</title>
<path fill="none" stroke="#ff0000" d="M634.5065,-434.7078C641.8674,-404.2127 656.6921,-342.796 665.3608,-306.8826"/>
<polygon fill="#ff0000" stroke="#ff0000" points="668.7907,-307.5892 667.7349,-297.0471 661.9862,-305.9466 668.7907,-307.5892"/>
</g>
<!-- #42 x&#45;o3 -->
<g id="node16" class="node">
<title>#42 x&#45;o3</title>
<ellipse fill="none" stroke="#006400" cx="1229.0911" cy="-366" rx="42.4939" ry="18"/>
<text text-anchor="middle" x="1229.0911" y="-362.3" font-family="Times,serif" font-size="14.00" fill="#006400">#42 x&#45;o3</text>
</g>
<!-- #16 Variable (v2) &#45; (38)&#45;&gt;#42 x&#45;o3 -->
<g id="edge14" class="edge">
<title>#16 Variable (v2) &#45; (38)&#45;&gt;#42 x&#45;o3</title>
<path fill="none" stroke="#000000" d="M698.8759,-440.38C710.9206,-438.4072 723.3525,-436.5215 735.0911,-435 825.355,-423.3008 848.8443,-428.8302 939.0911,-417 977.5613,-411.957 986.6984,-407.6022 1025.0911,-402 1092.8426,-392.1139 1111.3972,-399.4894 1178.0911,-384 1181.4394,-383.2224 1184.8731,-382.299 1188.2991,-381.2876"/>
<polygon fill="#000000" stroke="#000000" points="1189.3863,-384.6147 1197.8575,-378.2516 1187.2671,-377.9431 1189.3863,-384.6147"/>
<text text-anchor="middle" x="1046.5911" y="-405.8" font-family="Times,serif" font-size="14.00" fill="#000000">REF v2</text>
</g>
<!-- #2 Function (anon) &#45; (34)&#45;&gt;#36 CFG_F_START 2_anon -->
<g id="edge18" class="edge">
<title>#2 Function (anon) &#45; (34)&#45;&gt;#36 CFG_F_START 2_anon</title>
<path fill="none" stroke="#000000" d="M1150.0911,-1151.9735C1150.0911,-1140.1918 1150.0911,-1124.5607 1150.0911,-1111.1581"/>
<polygon fill="#000000" stroke="#000000" points="1153.5912,-1111.0033 1150.0911,-1101.0034 1146.5912,-1111.0034 1153.5912,-1111.0033"/>
<text text-anchor="middle" x="1159.0911" y="-1122.8" font-family="Times,serif" font-size="14.00" fill="#000000">FD</text>
</g>
<!-- #3 Identifier (x) &#45; (34) -->
<g id="node17" class="node">
<title>#3 Identifier (x) &#45; (34)</title>
<ellipse fill="none" stroke="#000000" cx="1291.0911" cy="-1029" rx="89.8845" ry="18"/>
<text text-anchor="middle" x="1291.0911" y="-1025.3" font-family="Times,serif" font-size="14.00" fill="#000000">#3 Identifier (x) &#45; (34)</text>
</g>
<!-- #2 Function (anon) &#45; (34)&#45;&gt;#3 Identifier (x) &#45; (34) -->
<g id="edge15" class="edge">
<title>#2 Function (anon) &#45; (34)&#45;&gt;#3 Identifier (x) &#45; (34)</title>
<path fill="none" stroke="#0000ff" d="M1196.8233,-1153.9966C1222.5674,-1142.9121 1253.0674,-1125.6621 1272.0911,-1101 1281.6552,-1088.6012 1286.4224,-1071.8169 1288.7908,-1057.5728"/>
<polygon fill="#0000ff" stroke="#0000ff" points="1292.3095,-1057.6674 1290.1741,-1047.29 1285.372,-1056.7341 1292.3095,-1057.6674"/>
<text text-anchor="middle" x="1277.0911" y="-1122.8" font-family="Times,serif" font-size="14.00" fill="#0000ff">param 1</text>
</g>
<!-- #4 Identifier (y) &#45; (34) -->
<g id="node18" class="node">
<title>#4 Identifier (y) &#45; (34)</title>
<ellipse fill="none" stroke="#000000" cx="929.0911" cy="-1083" rx="89.8845" ry="18"/>
<text text-anchor="middle" x="929.0911" y="-1079.3" font-family="Times,serif" font-size="14.00" fill="#000000">#4 Identifier (y) &#45; (34)</text>
</g>
<!-- #2 Function (anon) &#45; (34)&#45;&gt;#4 Identifier (y) &#45; (34) -->
<g id="edge16" class="edge">
<title>#2 Function (anon) &#45; (34)&#45;&gt;#4 Identifier (y) &#45; (34)</title>
<path fill="none" stroke="#0000ff" d="M1108.2629,-1153.5337C1071.6935,-1139.1376 1018.4992,-1118.1969 979.5715,-1102.8724"/>
<polygon fill="#0000ff" stroke="#0000ff" points="980.5879,-1099.5111 970.0009,-1099.1047 978.0237,-1106.0246 980.5879,-1099.5111"/>
<text text-anchor="middle" x="1076.0911" y="-1122.8" font-family="Times,serif" font-size="14.00" fill="#0000ff">param 2</text>
</g>
<!-- #33 BlockStatement (34) -->
<g id="node19" class="node">
<title>#33 BlockStatement (34)</title>
<ellipse fill="none" stroke="#000000" cx="721.0911" cy="-1083" rx="100.1823" ry="18"/>
<text text-anchor="middle" x="721.0911" y="-1079.3" font-family="Times,serif" font-size="14.00" fill="#000000">#33 BlockStatement (34)</text>
</g>
<!-- #2 Function (anon) &#45; (34)&#45;&gt;#33 BlockStatement (34) -->
<g id="edge17" class="edge">
<title>#2 Function (anon) &#45; (34)&#45;&gt;#33 BlockStatement (34)</title>
<path fill="none" stroke="#0000ff" d="M1083.0599,-1156.4063C1005.7709,-1140.7323 878.9728,-1115.018 797.808,-1098.558"/>
<polygon fill="#0000ff" stroke="#0000ff" points="798.1478,-1095.0557 787.6517,-1096.4983 796.7565,-1101.9161 798.1478,-1095.0557"/>
<text text-anchor="middle" x="977.5911" y="-1122.8" font-family="Times,serif" font-size="14.00" fill="#0000ff">block</text>
</g>
<!-- #41 this&#45;o2&#45;&gt;#11 Variable (self) &#45; (36) -->
<g id="edge20" class="edge">
<title>#41 this&#45;o2&#45;&gt;#11 Variable (self) &#45; (36)</title>
<path fill="none" stroke="#006400" d="M469.5521,-957.1609C466.4202,-947.1966 464.2992,-934.6752 468.0911,-924 482.139,-884.4524 514.9349,-848.375 539.1582,-825.6668"/>
<polygon fill="#006400" stroke="#006400" points="541.6731,-828.1096 546.687,-818.7763 536.9471,-822.9458 541.6731,-828.1096"/>
<text text-anchor="middle" x="525.0911" y="-884.3" font-family="Times,serif" font-size="14.00" fill="#006400">VAR this</text>
</g>
<!-- #41 this&#45;o2&#45;&gt;#44 this&#45;o5 -->
<g id="edge19" class="edge">
<title>#41 this&#45;o2&#45;&gt;#44 this&#45;o5</title>
<path fill="none" stroke="#006400" d="M472.2368,-956.9623C470.4881,-946.1854 470.5173,-932.9044 478.0911,-924 495.4609,-903.5788 563.3955,-894.6971 614.6691,-890.8628"/>
<polygon fill="#006400" stroke="#006400" points="614.9509,-894.3517 624.6818,-890.1613 614.4616,-887.3688 614.9509,-894.3517"/>
<text text-anchor="middle" x="548.5911" y="-927.8" font-family="Times,serif" font-size="14.00" fill="#006400">NEW_VERSION options</text>
</g>
<!-- #7 MemberExpression (36) -->
<g id="node20" class="node">
<title>#7 MemberExpression (36)</title>
<ellipse fill="none" stroke="#000000" cx="835.0911" cy="-801" rx="108.5808" ry="18"/>
<text text-anchor="middle" x="835.0911" y="-797.3" font-family="Times,serif" font-size="14.00" fill="#000000">#7 MemberExpression (36)</text>
</g>
<!-- #6 AssignmentExpression (36)&#45;&gt;#7 MemberExpression (36) -->
<g id="edge21" class="edge">
<title>#6 AssignmentExpression (36)&#45;&gt;#7 MemberExpression (36)</title>
<path fill="none" stroke="#0000ff" d="M907.2359,-869.9735C893.9363,-857.2586 875.9473,-840.0603 861.2597,-826.0183"/>
<polygon fill="#0000ff" stroke="#0000ff" points="863.5691,-823.384 853.9222,-819.0034 858.7317,-828.4437 863.5691,-823.384"/>
<text text-anchor="middle" x="895.5911" y="-840.8" font-family="Times,serif" font-size="14.00" fill="#0000ff">left</text>
</g>
<!-- #10 Identifier (x) &#45; (36) -->
<g id="node21" class="node">
<title>#10 Identifier (x) &#45; (36)</title>
<ellipse fill="none" stroke="#000000" cx="1056.0911" cy="-801" rx="94.4839" ry="18"/>
<text text-anchor="middle" x="1056.0911" y="-797.3" font-family="Times,serif" font-size="14.00" fill="#000000">#10 Identifier (x) &#45; (36)</text>
</g>
<!-- #6 AssignmentExpression (36)&#45;&gt;#10 Identifier (x) &#45; (36) -->
<g id="edge22" class="edge">
<title>#6 AssignmentExpression (36)&#45;&gt;#10 Identifier (x) &#45; (36)</title>
<path fill="none" stroke="#0000ff" d="M952.3986,-870.3943C972.2218,-857.1279 999.5939,-838.8097 1021.2376,-824.325"/>
<polygon fill="#0000ff" stroke="#0000ff" points="1023.4588,-827.0501 1029.8228,-818.5796 1019.5655,-821.2326 1023.4588,-827.0501"/>
<text text-anchor="middle" x="1012.0911" y="-840.8" font-family="Times,serif" font-size="14.00" fill="#0000ff">right</text>
</g>
<!-- #12 ThisExpression (36) -->
<g id="node22" class="node">
<title>#12 ThisExpression (36)</title>
<ellipse fill="none" stroke="#000000" cx="570.0911" cy="-714" rx="98.2828" ry="18"/>
<text text-anchor="middle" x="570.0911" y="-710.3" font-family="Times,serif" font-size="14.00" fill="#000000">#12 ThisExpression (36)</text>
</g>
<!-- #11 Variable (self) &#45; (36)&#45;&gt;#12 ThisExpression (36) -->
<g id="edge23" class="edge">
<title>#11 Variable (self) &#45; (36)&#45;&gt;#12 ThisExpression (36)</title>
<path fill="none" stroke="#0000ff" d="M568.5055,-782.9735C568.7764,-771.1918 569.1357,-755.5607 569.4438,-742.1581"/>
<polygon fill="#0000ff" stroke="#0000ff" points="572.9464,-742.0812 569.6772,-732.0034 565.9483,-741.9202 572.9464,-742.0812"/>
<text text-anchor="middle" x="579.5911" y="-753.8" font-family="Times,serif" font-size="14.00" fill="#0000ff">init</text>
</g>
<!-- #13 Variable (v4) &#45; (36) -->
<g id="node23" class="node">
<title>#13 Variable (v4) &#45; (36)</title>
<ellipse fill="none" stroke="#000000" cx="358.0911" cy="-714" rx="96.3833" ry="18"/>
<text text-anchor="middle" x="358.0911" y="-710.3" font-family="Times,serif" font-size="14.00" fill="#000000">#13 Variable (v4) &#45; (36)</text>
</g>
<!-- #11 Variable (self) &#45; (36)&#45;&gt;#13 Variable (v4) &#45; (36) -->
<g id="edge24" class="edge">
<title>#11 Variable (self) &#45; (36)&#45;&gt;#13 Variable (v4) &#45; (36)</title>
<path fill="none" stroke="#ff0000" d="M528.0974,-784.4312C493.7957,-770.2205 444.2343,-749.6879 407.4664,-734.4555"/>
<polygon fill="#ff0000" stroke="#ff0000" points="408.5141,-731.1011 397.9359,-730.5071 405.8349,-737.5681 408.5141,-731.1011"/>
</g>
<!-- #44 this&#45;o5&#45;&gt;#16 Variable (v2) &#45; (38) -->
<g id="edge26" class="edge">
<title>#44 this&#45;o5&#45;&gt;#16 Variable (v2) &#45; (38)</title>
<path fill="none" stroke="#006400" d="M682.0838,-869.975C688.1927,-852.5896 696.0911,-825.3946 696.0911,-801 696.0911,-801 696.0911,-801 696.0911,-540 696.0911,-515.1746 678.823,-492.9834 661.9523,-477.2268"/>
<polygon fill="#006400" stroke="#006400" points="664.1022,-474.4558 654.2923,-470.4537 659.4654,-479.6998 664.1022,-474.4558"/>
<text text-anchor="middle" x="745.5911" y="-666.8" font-family="Times,serif" font-size="14.00" fill="#006400">LOOKUP options</text>
</g>
<!-- #44 this&#45;o5&#45;&gt;#11 Variable (self) &#45; (36) -->
<g id="edge25" class="edge">
<title>#44 this&#45;o5&#45;&gt;#11 Variable (self) &#45; (36)</title>
<path fill="none" stroke="#006400" d="M653.9817,-871.2096C646.427,-865.175 637.8609,-858.303 630.0911,-852 619.4152,-843.3394 607.7622,-833.7817 597.47,-825.3039"/>
<polygon fill="#006400" stroke="#006400" points="599.4939,-822.4363 589.5521,-818.774 595.0402,-827.8367 599.4939,-822.4363"/>
<text text-anchor="middle" x="656.0911" y="-840.8" font-family="Times,serif" font-size="14.00" fill="#006400">VAR this</text>
</g>
<!-- #18 Identifier (self) &#45; (38) -->
<g id="node24" class="node">
<title>#18 Identifier (self) &#45; (38)</title>
<ellipse fill="none" stroke="#000000" cx="206.0911" cy="-279" rx="102.8821" ry="18"/>
<text text-anchor="middle" x="206.0911" y="-275.3" font-family="Times,serif" font-size="14.00" fill="#000000">#18 Identifier (self) &#45; (38)</text>
</g>
<!-- #17 MemberExpression (38)&#45;&gt;#18 Identifier (self) &#45; (38) -->
<g id="edge27" class="edge">
<title>#17 MemberExpression (38)&#45;&gt;#18 Identifier (self) &#45; (38)</title>
<path fill="none" stroke="#0000ff" d="M333.2972,-348.6033C308.3009,-334.9261 273.3197,-315.7854 246.3657,-301.037"/>
<polygon fill="#0000ff" stroke="#0000ff" points="248.0113,-297.9478 237.5586,-296.218 244.6511,-304.0886 248.0113,-297.9478"/>
<text text-anchor="middle" x="313.0911" y="-318.8" font-family="Times,serif" font-size="14.00" fill="#0000ff">object</text>
</g>
<!-- #19 Identifier (options) &#45; (38) -->
<g id="node25" class="node">
<title>#19 Identifier (options) &#45; (38)</title>
<ellipse fill="none" stroke="#000000" cx="442.0911" cy="-279" rx="115.8798" ry="18"/>
<text text-anchor="middle" x="442.0911" y="-275.3" font-family="Times,serif" font-size="14.00" fill="#000000">#19 Identifier (options) &#45; (38)</text>
</g>
<!-- #17 MemberExpression (38)&#45;&gt;#19 Identifier (options) &#45; (38) -->
<g id="edge28" class="edge">
<title>#17 MemberExpression (38)&#45;&gt;#19 Identifier (options) &#45; (38)</title>
<path fill="none" stroke="#0000ff" d="M381.0456,-347.9735C392.0926,-335.4919 406.9633,-318.6899 419.2616,-304.7944"/>
<polygon fill="#0000ff" stroke="#0000ff" points="422.1504,-306.8114 426.1571,-297.0034 416.9086,-302.172 422.1504,-306.8114"/>
<text text-anchor="middle" x="432.0911" y="-318.8" font-family="Times,serif" font-size="14.00" fill="#0000ff">property</text>
</g>
<!-- #21 CallExpression (38) -->
<g id="node26" class="node">
<title>#21 CallExpression (38)</title>
<ellipse fill="none" stroke="#000000" cx="752.0911" cy="-192" rx="96.6831" ry="18"/>
<text text-anchor="middle" x="752.0911" y="-188.3" font-family="Times,serif" font-size="14.00" fill="#000000">#21 CallExpression (38)</text>
</g>
<!-- #20 Variable (v3) &#45; (38)&#45;&gt;#21 CallExpression (38) -->
<g id="edge29" class="edge">
<title>#20 Variable (v3) &#45; (38)&#45;&gt;#21 CallExpression (38)</title>
<path fill="none" stroke="#0000ff" d="M688.6672,-260.9735C700.2518,-248.3752 715.8838,-231.3755 728.7297,-217.4055"/>
<polygon fill="#0000ff" stroke="#0000ff" points="731.3439,-219.7335 735.5363,-210.0034 726.1912,-214.9953 731.3439,-219.7335"/>
<text text-anchor="middle" x="726.5911" y="-231.8" font-family="Times,serif" font-size="14.00" fill="#0000ff">init</text>
</g>
<!-- #24 ExpressionStatement (38) -->
<g id="node27" class="node">
<title>#24 ExpressionStatement (38)</title>
<ellipse fill="none" stroke="#000000" cx="515.0911" cy="-105" rx="118.0794" ry="18"/>
<text text-anchor="middle" x="515.0911" y="-101.3" font-family="Times,serif" font-size="14.00" fill="#000000">#24 ExpressionStatement (38)</text>
</g>
<!-- #20 Variable (v3) &#45; (38)&#45;&gt;#24 ExpressionStatement (38) -->
<g id="edge30" class="edge">
<title>#20 Variable (v3) &#45; (38)&#45;&gt;#24 ExpressionStatement (38)</title>
<path fill="none" stroke="#ff0000" d="M616.0918,-264.2105C587.2752,-253.7367 554.0893,-236.6875 534.0911,-210 517.5961,-187.9875 513.8439,-156.1861 513.6017,-133.3568"/>
<polygon fill="#ff0000" stroke="#ff0000" points="517.1024,-133.2983 513.714,-123.2599 510.1029,-133.2203 517.1024,-133.2983"/>
</g>
<!-- #48 v3&#45;o9 -->
<g id="node28" class="node">
<title>#48 v3&#45;o9</title>
<ellipse fill="none" stroke="#006400" cx="590.0911" cy="-192" rx="46.5926" ry="18"/>
<text text-anchor="middle" x="590.0911" y="-188.3" font-family="Times,serif" font-size="14.00" fill="#006400">#48 v3&#45;o9</text>
</g>
<!-- #20 Variable (v3) &#45; (38)&#45;&gt;#48 v3&#45;o9 -->
<g id="edge31" class="edge">
<title>#20 Variable (v3) &#45; (38)&#45;&gt;#48 v3&#45;o9</title>
<path fill="none" stroke="#006400" d="M652.3943,-261.0525C646.3952,-255.3982 639.8639,-249.0478 634.0911,-243 626.2591,-234.7948 618.0452,-225.4855 610.8632,-217.0869"/>
<polygon fill="#006400" stroke="#006400" points="613.4718,-214.7513 604.3398,-209.3794 608.1287,-219.2736 613.4718,-214.7513"/>
<text text-anchor="middle" x="669.0911" y="-231.8" font-family="Times,serif" font-size="14.00" fill="#006400">CREATE v3</text>
</g>
<!-- #42 x&#45;o3&#45;&gt;#5 ExpressionStatement (36) -->
<g id="edge32" class="edge">
<title>#42 x&#45;o3&#45;&gt;#5 ExpressionStatement (36)</title>
<path fill="none" stroke="#006400" d="M1227.3718,-384.0443C1224.0478,-418.1182 1216.2546,-494.2363 1207.0911,-558 1197.0819,-627.6486 1180.0911,-643.6359 1180.0911,-714 1180.0911,-888 1180.0911,-888 1180.0911,-888 1180.0911,-937.6106 1047.3209,-959.0862 944.4025,-968.2808"/>
<polygon fill="#006400" stroke="#006400" points="943.8883,-964.8121 934.2263,-969.1591 944.4903,-971.7862 943.8883,-964.8121"/>
<text text-anchor="middle" x="1204.0911" y="-666.8" font-family="Times,serif" font-size="14.00" fill="#006400">VAR x</text>
</g>
<!-- #42 x&#45;o3&#45;&gt;#20 Variable (v3) &#45; (38) -->
<g id="edge33" class="edge">
<title>#42 x&#45;o3&#45;&gt;#20 Variable (v3) &#45; (38)</title>
<path fill="none" stroke="#006400" d="M1197.8353,-353.842C1191.3789,-351.6506 1184.5706,-349.5679 1178.0911,-348 1039.2363,-314.4008 874.7119,-295.7617 771.8442,-286.5615"/>
<polygon fill="#006400" stroke="#006400" points="772.045,-283.0657 761.7761,-285.6736 771.43,-290.0386 772.045,-283.0657"/>
<text text-anchor="middle" x="1106.0911" y="-318.8" font-family="Times,serif" font-size="14.00" fill="#006400">VAR v2</text>
</g>
<!-- #3 Identifier (x) &#45; (34)&#45;&gt;#42 x&#45;o3 -->
<g id="edge34" class="edge">
<title>#3 Identifier (x) &#45; (34)&#45;&gt;#42 x&#45;o3</title>
<path fill="none" stroke="#006400" d="M1285.3905,-1010.8762C1279.7939,-991.4513 1272.0911,-959.6102 1272.0911,-931.5 1272.0911,-931.5 1272.0911,-931.5 1272.0911,-453 1272.0911,-430.6812 1260.5774,-408.1652 1249.4657,-391.6322"/>
<polygon fill="#006400" stroke="#006400" points="1252.0525,-389.2298 1243.4095,-383.102 1246.3447,-393.2822 1252.0525,-389.2298"/>
<text text-anchor="middle" x="1304.0911" y="-710.3" font-family="Times,serif" font-size="14.00" fill="#006400">CREATE x</text>
</g>
<!-- #33 BlockStatement (34)&#45;&gt;#5 ExpressionStatement (36) -->
<g id="edge35" class="edge">
<title>#33 BlockStatement (34)&#45;&gt;#5 ExpressionStatement (36)</title>
<path fill="none" stroke="#0000ff" d="M738.4297,-1065.166C755.6807,-1047.4222 782.3056,-1020.0365 801.6877,-1000.1007"/>
<polygon fill="#0000ff" stroke="#0000ff" points="804.2654,-1002.4703 808.7267,-992.8605 799.2464,-997.5907 804.2654,-1002.4703"/>
<text text-anchor="middle" x="793.5911" y="-1025.3" font-family="Times,serif" font-size="14.00" fill="#0000ff">1</text>
</g>
<!-- #33 BlockStatement (34)&#45;&gt;#11 Variable (self) &#45; (36) -->
<g id="edge36" class="edge">
<title>#33 BlockStatement (34)&#45;&gt;#11 Variable (self) &#45; (36)</title>
<path fill="none" stroke="#0000ff" d="M709.2122,-1064.8102C688.7844,-1033.1843 646.2003,-965.7215 615.0911,-906 601.7094,-880.3106 588.4051,-850.0286 579.3854,-828.6027"/>
<polygon fill="#0000ff" stroke="#0000ff" points="582.5194,-827.0244 575.4391,-819.1428 576.059,-829.7195 582.5194,-827.0244"/>
<text text-anchor="middle" x="636.5911" y="-927.8" font-family="Times,serif" font-size="14.00" fill="#0000ff">2</text>
</g>
<!-- #33 BlockStatement (34)&#45;&gt;#13 Variable (v4) &#45; (36) -->
<g id="edge37" class="edge">
<title>#33 BlockStatement (34)&#45;&gt;#13 Variable (v4) &#45; (36)</title>
<path fill="none" stroke="#0000ff" d="M640.4178,-1072.3023C544.7474,-1057.305 398.0911,-1025.9979 398.0911,-975 398.0911,-975 398.0911,-975 398.0911,-801 398.0911,-779.2588 387.6518,-757.0257 377.4394,-740.4774"/>
<polygon fill="#0000ff" stroke="#0000ff" points="380.2479,-738.3765 371.8568,-731.908 374.3827,-742.1974 380.2479,-738.3765"/>
<text text-anchor="middle" x="401.5911" y="-884.3" font-family="Times,serif" font-size="14.00" fill="#0000ff">3</text>
</g>
<!-- #27 ExpressionStatement (36) -->
<g id="node29" class="node">
<title>#27 ExpressionStatement (36)</title>
<ellipse fill="none" stroke="#000000" cx="957.0911" cy="-627" rx="118.0794" ry="18"/>
<text text-anchor="middle" x="957.0911" y="-623.3" font-family="Times,serif" font-size="14.00" fill="#000000">#27 ExpressionStatement (36)</text>
</g>
<!-- #33 BlockStatement (34)&#45;&gt;#27 ExpressionStatement (36) -->
<g id="edge38" class="edge">
<title>#33 BlockStatement (34)&#45;&gt;#27 ExpressionStatement (36)</title>
<path fill="none" stroke="#0000ff" d="M794.5309,-1070.7554C914.1933,-1049.2268 1143.0538,-1000.942 1194.0911,-939 1233.2793,-891.4388 1261.6167,-709.4269 1221.0911,-663 1210.9462,-651.3778 1139.6861,-642.0926 1073.76,-635.8648"/>
<polygon fill="#0000ff" stroke="#0000ff" points="1073.9383,-632.3664 1063.6583,-634.9299 1073.2932,-639.3366 1073.9383,-632.3664"/>
<text text-anchor="middle" x="1235.5911" y="-840.8" font-family="Times,serif" font-size="14.00" fill="#0000ff">4</text>
</g>
<!-- #8 ThisExpression (36) -->
<g id="node30" class="node">
<title>#8 ThisExpression (36)</title>
<ellipse fill="none" stroke="#000000" cx="818.0911" cy="-714" rx="93.6835" ry="18"/>
<text text-anchor="middle" x="818.0911" y="-710.3" font-family="Times,serif" font-size="14.00" fill="#000000">#8 ThisExpression (36)</text>
</g>
<!-- #7 MemberExpression (36)&#45;&gt;#8 ThisExpression (36) -->
<g id="edge39" class="edge">
<title>#7 MemberExpression (36)&#45;&gt;#8 ThisExpression (36)</title>
<path fill="none" stroke="#0000ff" d="M831.5687,-782.9735C829.2665,-771.1918 826.2122,-755.5607 823.5933,-742.1581"/>
<polygon fill="#0000ff" stroke="#0000ff" points="826.9619,-741.1465 821.609,-732.0034 820.0918,-742.489 826.9619,-741.1465"/>
<text text-anchor="middle" x="845.0911" y="-753.8" font-family="Times,serif" font-size="14.00" fill="#0000ff">object</text>
</g>
<!-- #9 Identifier (options) &#45; (36) -->
<g id="node31" class="node">
<title>#9 Identifier (options) &#45; (36)</title>
<ellipse fill="none" stroke="#000000" cx="1041.0911" cy="-714" rx="111.2805" ry="18"/>
<text text-anchor="middle" x="1041.0911" y="-710.3" font-family="Times,serif" font-size="14.00" fill="#000000">#9 Identifier (options) &#45; (36)</text>
</g>
<!-- #7 MemberExpression (36)&#45;&gt;#9 Identifier (options) &#45; (36) -->
<g id="edge40" class="edge">
<title>#7 MemberExpression (36)&#45;&gt;#9 Identifier (options) &#45; (36)</title>
<path fill="none" stroke="#0000ff" d="M874.81,-784.2255C908.1883,-770.1289 956.0422,-749.9187 991.851,-734.7956"/>
<polygon fill="#0000ff" stroke="#0000ff" points="993.2928,-737.9861 1001.1433,-730.8712 990.5694,-731.5376 993.2928,-737.9861"/>
<text text-anchor="middle" x="974.0911" y="-753.8" font-family="Times,serif" font-size="14.00" fill="#0000ff">property</text>
</g>
<!-- #13 Variable (v4) &#45; (36)&#45;&gt;#38 CFG_F_START 14_anon -->
<g id="edge42" class="edge">
<title>#13 Variable (v4) &#45; (36)&#45;&gt;#38 CFG_F_START 14_anon</title>
<path fill="none" stroke="#000000" d="M342.2602,-696.1591C331.7198,-683.0289 318.7964,-664.1922 313.0911,-645 304.3298,-615.5276 308.7991,-605.3094 318.0911,-576 318.982,-573.1899 320.0681,-570.3283 321.2609,-567.5085"/>
<polygon fill="#000000" stroke="#000000" points="324.5393,-568.7599 325.5985,-558.2181 318.1965,-565.7985 324.5393,-568.7599"/>
<text text-anchor="middle" x="322.0911" y="-623.3" font-family="Times,serif" font-size="14.00" fill="#000000">FD</text>
</g>
<!-- #13 Variable (v4) &#45; (36)&#45;&gt;#27 ExpressionStatement (36) -->
<g id="edge43" class="edge">
<title>#13 Variable (v4) &#45; (36)&#45;&gt;#27 ExpressionStatement (36)</title>
<path fill="none" stroke="#ff0000" d="M428.6678,-701.7553C440.1683,-699.802 451.9577,-697.8248 463.0911,-696 556.759,-680.6474 580.1131,-676.3236 674.0911,-663 733.5194,-654.5746 800.1029,-646.0586 853.7489,-639.4259"/>
<polygon fill="#ff0000" stroke="#ff0000" points="854.4582,-642.865 863.9547,-638.1675 853.6015,-635.9176 854.4582,-642.865"/>
</g>
<!-- #14 Function (anon) &#45; (36) -->
<g id="node32" class="node">
<title>#14 Function (anon) &#45; (36)</title>
<ellipse fill="none" stroke="#000000" cx="445.0911" cy="-627" rx="105.0817" ry="18"/>
<text text-anchor="middle" x="445.0911" y="-623.3" font-family="Times,serif" font-size="14.00" fill="#000000">#14 Function (anon) &#45; (36)</text>
</g>
<!-- #13 Variable (v4) &#45; (36)&#45;&gt;#14 Function (anon) &#45; (36) -->
<g id="edge41" class="edge">
<title>#13 Variable (v4) &#45; (36)&#45;&gt;#14 Function (anon) &#45; (36)</title>
<path fill="none" stroke="#0000ff" d="M376.1176,-695.9735C388.7159,-683.3752 405.7156,-666.3755 419.6856,-652.4055"/>
<polygon fill="#0000ff" stroke="#0000ff" points="422.4915,-654.5493 427.0878,-645.0034 417.5418,-649.5996 422.4915,-654.5493"/>
<text text-anchor="middle" x="416.5911" y="-666.8" font-family="Times,serif" font-size="14.00" fill="#0000ff">init</text>
</g>
<!-- #22 Identifier (eval) &#45; (38) -->
<g id="node33" class="node">
<title>#22 Identifier (eval) &#45; (38)</title>
<ellipse fill="none" stroke="#000000" cx="972.0911" cy="-105" rx="104.7816" ry="18"/>
<text text-anchor="middle" x="972.0911" y="-101.3" font-family="Times,serif" font-size="14.00" fill="#000000">#22 Identifier (eval) &#45; (38)</text>
</g>
<!-- #21 CallExpression (38)&#45;&gt;#22 Identifier (eval) &#45; (38) -->
<g id="edge44" class="edge">
<title>#21 CallExpression (38)&#45;&gt;#22 Identifier (eval) &#45; (38)</title>
<path fill="none" stroke="#0000ff" d="M793.4714,-175.636C829.5016,-161.3877 881.8854,-140.6723 920.6145,-125.3567"/>
<polygon fill="#0000ff" stroke="#0000ff" points="922.1362,-128.5187 930.1484,-121.5865 919.562,-122.0092 922.1362,-128.5187"/>
<text text-anchor="middle" x="892.0911" y="-144.8" font-family="Times,serif" font-size="14.00" fill="#0000ff">callee</text>
</g>
<!-- #23 Identifier (v2) &#45; (38) -->
<g id="node34" class="node">
<title>#23 Identifier (v2) &#45; (38)</title>
<ellipse fill="none" stroke="#000000" cx="751.0911" cy="-105" rx="98.5829" ry="18"/>
<text text-anchor="middle" x="751.0911" y="-101.3" font-family="Times,serif" font-size="14.00" fill="#000000">#23 Identifier (v2) &#45; (38)</text>
</g>
<!-- #21 CallExpression (38)&#45;&gt;#23 Identifier (v2) &#45; (38) -->
<g id="edge45" class="edge">
<title>#21 CallExpression (38)&#45;&gt;#23 Identifier (v2) &#45; (38)</title>
<path fill="none" stroke="#0000ff" d="M751.8839,-173.9735C751.7485,-162.1918 751.5688,-146.5607 751.4148,-133.1581"/>
<polygon fill="#0000ff" stroke="#0000ff" points="754.9129,-132.9624 751.2981,-123.0034 747.9133,-133.043 754.9129,-132.9624"/>
<text text-anchor="middle" x="766.0911" y="-144.8" font-family="Times,serif" font-size="14.00" fill="#0000ff">arg 1</text>
</g>
<!-- #25 Identifier (v3) &#45; (38) -->
<g id="node35" class="node">
<title>#25 Identifier (v3) &#45; (38)</title>
<ellipse fill="none" stroke="#000000" cx="403.0911" cy="-18" rx="98.5829" ry="18"/>
<text text-anchor="middle" x="403.0911" y="-14.3" font-family="Times,serif" font-size="14.00" fill="#000000">#25 Identifier (v3) &#45; (38)</text>
</g>
<!-- #24 ExpressionStatement (38)&#45;&gt;#25 Identifier (v3) &#45; (38) -->
<g id="edge46" class="edge">
<title>#24 ExpressionStatement (38)&#45;&gt;#25 Identifier (v3) &#45; (38)</title>
<path fill="none" stroke="#0000ff" d="M492.156,-87.1843C475.3955,-74.165 452.4784,-56.3633 434.0882,-42.0781"/>
<polygon fill="#0000ff" stroke="#0000ff" points="436.04,-39.1624 425.9956,-35.7919 431.7458,-44.6905 436.04,-39.1624"/>
<text text-anchor="middle" x="495.0911" y="-57.8" font-family="Times,serif" font-size="14.00" fill="#0000ff">expression</text>
</g>
<!-- #39 CFG_F_END 14_anon -->
<g id="node36" class="node">
<title>#39 CFG_F_END 14_anon</title>
<ellipse fill="none" stroke="#ff0000" cx="628.0911" cy="-18" rx="107.781" ry="18"/>
<text text-anchor="middle" x="628.0911" y="-14.3" font-family="Times,serif" font-size="14.00" fill="#ff0000">#39 CFG_F_END 14_anon</text>
</g>
<!-- #24 ExpressionStatement (38)&#45;&gt;#39 CFG_F_END 14_anon -->
<g id="edge47" class="edge">
<title>#24 ExpressionStatement (38)&#45;&gt;#39 CFG_F_END 14_anon</title>
<path fill="none" stroke="#ff0000" d="M538.231,-87.1843C555.1412,-74.165 578.2629,-56.3633 596.8173,-42.0781"/>
<polygon fill="#ff0000" stroke="#ff0000" points="599.1937,-44.6657 604.9821,-35.7919 594.9233,-39.1191 599.1937,-44.6657"/>
</g>
<!-- #48 v3&#45;o9&#45;&gt;#24 ExpressionStatement (38) -->
<g id="edge48" class="edge">
<title>#48 v3&#45;o9&#45;&gt;#24 ExpressionStatement (38)</title>
<path fill="none" stroke="#006400" d="M575.2735,-174.8116C564.4963,-162.31 549.7154,-145.1642 537.4992,-130.9934"/>
<polygon fill="#006400" stroke="#006400" points="539.8329,-128.34 530.6525,-123.0512 534.531,-132.9106 539.8329,-128.34"/>
<text text-anchor="middle" x="580.0911" y="-144.8" font-family="Times,serif" font-size="14.00" fill="#006400">VAR v3</text>
</g>
<!-- #28 AssignmentExpression (36) -->
<g id="node37" class="node">
<title>#28 AssignmentExpression (36)</title>
<ellipse fill="none" stroke="#000000" cx="1073.0911" cy="-540" rx="124.5782" ry="18"/>
<text text-anchor="middle" x="1073.0911" y="-536.3" font-family="Times,serif" font-size="14.00" fill="#000000">#28 AssignmentExpression (36)</text>
</g>
<!-- #27 ExpressionStatement (36)&#45;&gt;#28 AssignmentExpression (36) -->
<g id="edge49" class="edge">
<title>#27 ExpressionStatement (36)&#45;&gt;#28 AssignmentExpression (36)</title>
<path fill="none" stroke="#0000ff" d="M980.8454,-609.1843C998.2827,-596.1063 1022.154,-578.2029 1041.2441,-563.8853"/>
<polygon fill="#0000ff" stroke="#0000ff" points="1043.4686,-566.5919 1049.3686,-557.7919 1039.2686,-560.9919 1043.4686,-566.5919"/>
<text text-anchor="middle" x="1051.0911" y="-579.8" font-family="Times,serif" font-size="14.00" fill="#0000ff">expression</text>
</g>
<!-- #37 CFG_F_END 2_anon -->
<g id="node38" class="node">
<title>#37 CFG_F_END 2_anon</title>
<ellipse fill="none" stroke="#ff0000" cx="827.0911" cy="-540" rx="103.1819" ry="18"/>
<text text-anchor="middle" x="827.0911" y="-536.3" font-family="Times,serif" font-size="14.00" fill="#ff0000">#37 CFG_F_END 2_anon</text>
</g>
<!-- #27 ExpressionStatement (36)&#45;&gt;#37 CFG_F_END 2_anon -->
<g id="edge50" class="edge">
<title>#27 ExpressionStatement (36)&#45;&gt;#37 CFG_F_END 2_anon</title>
<path fill="none" stroke="#ff0000" d="M930.7837,-609.3943C910.9605,-596.1279 883.5884,-577.8097 861.9446,-563.325"/>
<polygon fill="#ff0000" stroke="#ff0000" points="863.6167,-560.2326 853.3594,-557.5796 859.7235,-566.0501 863.6167,-560.2326"/>
</g>
<!-- #14 Function (anon) &#45; (36)&#45;&gt;#38 CFG_F_START 14_anon -->
<g id="edge53" class="edge">
<title>#14 Function (anon) &#45; (36)&#45;&gt;#38 CFG_F_START 14_anon</title>
<path fill="none" stroke="#000000" d="M431.006,-608.68C422.4776,-598.3234 410.9776,-585.5734 399.0911,-576 393.2229,-571.2738 386.6578,-566.7909 380.0417,-562.6956"/>
<polygon fill="#000000" stroke="#000000" points="381.4358,-559.4533 371.0488,-557.3648 377.8663,-565.4748 381.4358,-559.4533"/>
<text text-anchor="middle" x="424.0911" y="-579.8" font-family="Times,serif" font-size="14.00" fill="#000000">FD</text>
</g>
<!-- #15 Identifier (cb) &#45; (36) -->
<g id="node39" class="node">
<title>#15 Identifier (cb) &#45; (36)</title>
<ellipse fill="none" stroke="#000000" cx="570.0911" cy="-540" rx="98.2828" ry="18"/>
<text text-anchor="middle" x="570.0911" y="-536.3" font-family="Times,serif" font-size="14.00" fill="#000000">#15 Identifier (cb) &#45; (36)</text>
</g>
<!-- #14 Function (anon) &#45; (36)&#45;&gt;#15 Identifier (cb) &#45; (36) -->
<g id="edge51" class="edge">
<title>#14 Function (anon) &#45; (36)&#45;&gt;#15 Identifier (cb) &#45; (36)</title>
<path fill="none" stroke="#0000ff" d="M470.3867,-609.3943C489.4475,-596.1279 515.7668,-577.8097 536.5782,-563.325"/>
<polygon fill="#0000ff" stroke="#0000ff" points="538.6248,-566.1649 544.8331,-557.5796 534.626,-560.4195 538.6248,-566.1649"/>
<text text-anchor="middle" x="538.0911" y="-579.8" font-family="Times,serif" font-size="14.00" fill="#0000ff">param 1</text>
</g>
<!-- #26 BlockStatement (36) -->
<g id="node40" class="node">
<title>#26 BlockStatement (36)</title>
<ellipse fill="none" stroke="#000000" cx="100.0911" cy="-540" rx="100.1823" ry="18"/>
<text text-anchor="middle" x="100.0911" y="-536.3" font-family="Times,serif" font-size="14.00" fill="#000000">#26 BlockStatement (36)</text>
</g>
<!-- #14 Function (anon) &#45; (36)&#45;&gt;#26 BlockStatement (36) -->
<g id="edge52" class="edge">
<title>#14 Function (anon) &#45; (36)&#45;&gt;#26 BlockStatement (36)</title>
<path fill="none" stroke="#0000ff" d="M385.7835,-612.0442C325.3436,-596.8028 231.711,-573.1911 168.2533,-557.1887"/>
<polygon fill="#0000ff" stroke="#0000ff" points="168.8897,-553.7397 158.3375,-554.6882 167.1781,-560.5272 168.8897,-553.7397"/>
<text text-anchor="middle" x="309.5911" y="-579.8" font-family="Times,serif" font-size="14.00" fill="#0000ff">block</text>
</g>
<!-- #29 MemberExpression (36) -->
<g id="node41" class="node">
<title>#29 MemberExpression (36)</title>
<ellipse fill="none" stroke="#000000" cx="1073.0911" cy="-453" rx="113.18" ry="18"/>
<text text-anchor="middle" x="1073.0911" y="-449.3" font-family="Times,serif" font-size="14.00" fill="#000000">#29 MemberExpression (36)</text>
</g>
<!-- #28 AssignmentExpression (36)&#45;&gt;#29 MemberExpression (36) -->
<g id="edge54" class="edge">
<title>#28 AssignmentExpression (36)&#45;&gt;#29 MemberExpression (36)</title>
<path fill="none" stroke="#0000ff" d="M1073.0911,-521.9735C1073.0911,-510.1918 1073.0911,-494.5607 1073.0911,-481.1581"/>
<polygon fill="#0000ff" stroke="#0000ff" points="1076.5912,-481.0033 1073.0911,-471.0034 1069.5912,-481.0034 1076.5912,-481.0033"/>
<text text-anchor="middle" x="1082.5911" y="-492.8" font-family="Times,serif" font-size="14.00" fill="#0000ff">left</text>
</g>
<!-- #32 Identifier (v4) &#45; (36) -->
<g id="node42" class="node">
<title>#32 Identifier (v4) &#45; (36)</title>
<ellipse fill="none" stroke="#000000" cx="843.0911" cy="-453" rx="98.5829" ry="18"/>
<text text-anchor="middle" x="843.0911" y="-449.3" font-family="Times,serif" font-size="14.00" fill="#000000">#32 Identifier (v4) &#45; (36)</text>
</g>
<!-- #28 AssignmentExpression (36)&#45;&gt;#32 Identifier (v4) &#45; (36) -->
<g id="edge55" class="edge">
<title>#28 AssignmentExpression (36)&#45;&gt;#32 Identifier (v4) &#45; (36)</title>
<path fill="none" stroke="#0000ff" d="M1028.4721,-523.1224C990.3761,-508.7121 935.537,-487.9687 895.3864,-472.7813"/>
<polygon fill="#0000ff" stroke="#0000ff" points="896.6209,-469.5063 886.0294,-469.2419 894.1443,-476.0535 896.6209,-469.5063"/>
<text text-anchor="middle" x="985.0911" y="-492.8" font-family="Times,serif" font-size="14.00" fill="#0000ff">right</text>
</g>
<!-- #26 BlockStatement (36)&#45;&gt;#16 Variable (v2) &#45; (38) -->
<g id="edge56" class="edge">
<title>#26 BlockStatement (36)&#45;&gt;#16 Variable (v2) &#45; (38)</title>
<path fill="none" stroke="#0000ff" d="M170.8865,-527.1928C183.575,-525.2163 196.7005,-523.3777 209.0911,-522 346.6966,-506.6994 385.805,-537.7137 520.0911,-504 533.7286,-500.5762 563.0887,-486.8371 588.0479,-474.4812"/>
<polygon fill="#0000ff" stroke="#0000ff" points="589.62,-477.6083 597.0069,-470.0132 586.496,-471.344 589.62,-477.6083"/>
<text text-anchor="middle" x="559.5911" y="-492.8" font-family="Times,serif" font-size="14.00" fill="#0000ff">1</text>
</g>
<!-- #26 BlockStatement (36)&#45;&gt;#20 Variable (v3) &#45; (38) -->
<g id="edge57" class="edge">
<title>#26 BlockStatement (36)&#45;&gt;#20 Variable (v3) &#45; (38)</title>
<path fill="none" stroke="#0000ff" d="M145.626,-523.8867C218.8432,-497.4821 366.7262,-442.0989 487.0911,-384 539.9805,-358.4709 598.5478,-324.1419 635.3305,-301.7967"/>
<polygon fill="#0000ff" stroke="#0000ff" points="637.4831,-304.5834 644.196,-296.3866 633.8366,-298.6081 637.4831,-304.5834"/>
<text text-anchor="middle" x="451.5911" y="-405.8" font-family="Times,serif" font-size="14.00" fill="#0000ff">2</text>
</g>
<!-- #26 BlockStatement (36)&#45;&gt;#24 ExpressionStatement (38) -->
<g id="edge58" class="edge">
<title>#26 BlockStatement (36)&#45;&gt;#24 ExpressionStatement (38)</title>
<path fill="none" stroke="#0000ff" d="M91.6273,-521.7683C84.3746,-504.4595 75.0911,-477.516 75.0911,-453 75.0911,-453 75.0911,-453 75.0911,-192 75.0911,-158.3709 275.449,-130.5116 405.7606,-115.9485"/>
<polygon fill="#0000ff" stroke="#0000ff" points="406.2437,-119.4165 415.7979,-114.8375 405.4735,-112.459 406.2437,-119.4165"/>
<text text-anchor="middle" x="78.5911" y="-318.8" font-family="Times,serif" font-size="14.00" fill="#0000ff">3</text>
</g>
<!-- #30 Identifier (v1) &#45; (36) -->
<g id="node43" class="node">
<title>#30 Identifier (v1) &#45; (36)</title>
<ellipse fill="none" stroke="#000000" cx="1070.0911" cy="-366" rx="98.5829" ry="18"/>
<text text-anchor="middle" x="1070.0911" y="-362.3" font-family="Times,serif" font-size="14.00" fill="#000000">#30 Identifier (v1) &#45; (36)</text>
</g>
<!-- #29 MemberExpression (36)&#45;&gt;#30 Identifier (v1) &#45; (36) -->
<g id="edge59" class="edge">
<title>#29 MemberExpression (36)&#45;&gt;#30 Identifier (v1) &#45; (36)</title>
<path fill="none" stroke="#0000ff" d="M1072.4695,-434.9735C1072.0632,-423.1918 1071.5242,-407.5607 1071.0621,-394.1581"/>
<polygon fill="#0000ff" stroke="#0000ff" points="1074.5546,-393.8768 1070.7119,-384.0034 1067.5587,-394.1181 1074.5546,-393.8768"/>
<text text-anchor="middle" x="1089.0911" y="-405.8" font-family="Times,serif" font-size="14.00" fill="#0000ff">object</text>
</g>
<!-- #31 Identifier (func) &#45; (36) -->
<g id="node44" class="node">
<title>#31 Identifier (func) &#45; (36)</title>
<ellipse fill="none" stroke="#000000" cx="848.0911" cy="-366" rx="105.0817" ry="18"/>
<text text-anchor="middle" x="848.0911" y="-362.3" font-family="Times,serif" font-size="14.00" fill="#000000">#31 Identifier (func) &#45; (36)</text>
</g>
<!-- #29 MemberExpression (36)&#45;&gt;#31 Identifier (func) &#45; (36) -->
<g id="edge60" class="edge">
<title>#29 MemberExpression (36)&#45;&gt;#31 Identifier (func) &#45; (36)</title>
<path fill="none" stroke="#0000ff" d="M987.2506,-441.1567C949.2356,-434.8381 909.453,-426.4249 893.0911,-417 882.5154,-410.9081 873.144,-401.4218 865.7284,-392.275"/>
<polygon fill="#0000ff" stroke="#0000ff" points="868.3309,-389.9154 859.4895,-384.0776 862.7607,-394.1548 868.3309,-389.9154"/>
<text text-anchor="middle" x="916.0911" y="-405.8" font-family="Times,serif" font-size="14.00" fill="#0000ff">property</text>
</g>
</g>
</svg>
