<?xml version="1.0" encoding="UTF-8" standalone="no"?>
<!DOCTYPE svg PUBLIC "-//W3C//DTD SVG 1.1//EN"
 "http://www.w3.org/Graphics/SVG/1.1/DTD/svg11.dtd">
<!-- Generated by graphviz version 2.40.1 (20161225.0304)
 -->
<!-- Title: G Pages: 1 -->
<svg width="1258pt" height="914pt"
 viewBox="0.00 0.00 1258.28 914.00" xmlns="http://www.w3.org/2000/svg" xmlns:xlink="http://www.w3.org/1999/xlink">
<g id="graph0" class="graph" transform="scale(1 1) rotate(0) translate(4 910)">
<title>G</title>
<polygon fill="#ffffff" stroke="transparent" points="-4,4 -4,-910 1254.2826,-910 1254.2826,4 -4,4"/>
<!-- #0 Program (0) -->
<g id="node1" class="node">
<title>#0 Program (0)</title>
<ellipse fill="none" stroke="#000000" cx="479.9418" cy="-888" rx="65.7887" ry="18"/>
<text text-anchor="middle" x="479.9418" y="-884.3" font-family="Times,serif" font-size="14.00" fill="#000000">#0 Program (0)</text>
</g>
<!-- #1 Variable (f) &#45; (20) -->
<g id="node2" class="node">
<title>#1 Variable (f) &#45; (20)</title>
<ellipse fill="none" stroke="#000000" cx="710.9418" cy="-801" rx="85.5853" ry="18"/>
<text text-anchor="middle" x="710.9418" y="-797.3" font-family="Times,serif" font-size="14.00" fill="#000000">#1 Variable (f) &#45; (20)</text>
</g>
<!-- #0 Program (0)&#45;&gt;#1 Variable (f) &#45; (20) -->
<g id="edge1" class="edge">
<title>#0 Program (0)&#45;&gt;#1 Variable (f) &#45; (20)</title>
<path fill="none" stroke="#0000ff" d="M518.606,-873.4382C557.2938,-858.8674 617.031,-836.369 659.6596,-820.3141"/>
<polygon fill="#0000ff" stroke="#0000ff" points="660.8968,-823.5882 669.0215,-816.7881 658.4296,-817.0373 660.8968,-823.5882"/>
<text text-anchor="middle" x="613.4418" y="-840.8" font-family="Times,serif" font-size="14.00" fill="#0000ff">1</text>
</g>
<!-- #14 ExpressionStatement (20) -->
<g id="node3" class="node">
<title>#14 ExpressionStatement (20)</title>
<ellipse fill="none" stroke="#000000" cx="466.9418" cy="-714" rx="118.0794" ry="18"/>
<text text-anchor="middle" x="466.9418" y="-710.3" font-family="Times,serif" font-size="14.00" fill="#000000">#14 ExpressionStatement (20)</text>
</g>
<!-- #0 Program (0)&#45;&gt;#14 ExpressionStatement (20) -->
<g id="edge2" class="edge">
<title>#0 Program (0)&#45;&gt;#14 ExpressionStatement (20)</title>
<path fill="none" stroke="#0000ff" d="M478.5751,-869.7078C476.3065,-839.3436 471.7475,-778.3226 469.0596,-742.3464"/>
<polygon fill="#0000ff" stroke="#0000ff" points="472.5255,-741.7585 468.2901,-732.0471 465.545,-742.2801 472.5255,-741.7585"/>
<text text-anchor="middle" x="478.4418" y="-797.3" font-family="Times,serif" font-size="14.00" fill="#0000ff">2</text>
</g>
<!-- #1 Variable (f) &#45; (20)&#45;&gt;#14 ExpressionStatement (20) -->
<g id="edge7" class="edge">
<title>#1 Variable (f) &#45; (20)&#45;&gt;#14 ExpressionStatement (20)</title>
<path fill="none" stroke="#ff0000" d="M667.3194,-785.4461C627.049,-771.0874 567.0206,-749.6838 523.1665,-734.0474"/>
<polygon fill="#ff0000" stroke="#ff0000" points="524.1042,-730.6659 513.5096,-730.6041 521.7533,-737.2593 524.1042,-730.6659"/>
</g>
<!-- #22 CFG_F_START 2_anon -->
<g id="node5" class="node">
<title>#22 CFG_F_START 2_anon</title>
<ellipse fill="none" stroke="#ff0000" cx="902.9418" cy="-627" rx="113.18" ry="18"/>
<text text-anchor="middle" x="902.9418" y="-623.3" font-family="Times,serif" font-size="14.00" fill="#ff0000">#22 CFG_F_START 2_anon</text>
</g>
<!-- #1 Variable (f) &#45; (20)&#45;&gt;#22 CFG_F_START 2_anon -->
<g id="edge6" class="edge">
<title>#1 Variable (f) &#45; (20)&#45;&gt;#22 CFG_F_START 2_anon</title>
<path fill="none" stroke="#000000" d="M709.7816,-782.6853C708.9454,-751.1967 712.6239,-687.7948 752.9418,-663 768.7015,-653.308 786.8791,-646.2253 805.0218,-641.0494"/>
<polygon fill="#000000" stroke="#000000" points="806.0292,-644.4031 814.7862,-638.4394 804.2215,-637.6405 806.0292,-644.4031"/>
<text text-anchor="middle" x="731.9418" y="-710.3" font-family="Times,serif" font-size="14.00" fill="#000000">FD</text>
</g>
<!-- #2 Function (anon) &#45; (20) -->
<g id="node7" class="node">
<title>#2 Function (anon) &#45; (20)</title>
<ellipse fill="none" stroke="#000000" cx="852.9418" cy="-714" rx="100.9827" ry="18"/>
<text text-anchor="middle" x="852.9418" y="-710.3" font-family="Times,serif" font-size="14.00" fill="#000000">#2 Function (anon) &#45; (20)</text>
</g>
<!-- #1 Variable (f) &#45; (20)&#45;&gt;#2 Function (anon) &#45; (20) -->
<g id="edge5" class="edge">
<title>#1 Variable (f) &#45; (20)&#45;&gt;#2 Function (anon) &#45; (20)</title>
<path fill="none" stroke="#0000ff" d="M738.9964,-783.8116C760.9275,-770.3749 791.6153,-751.5733 815.6191,-736.8667"/>
<polygon fill="#0000ff" stroke="#0000ff" points="817.761,-739.6591 824.4594,-731.4505 814.104,-733.6903 817.761,-739.6591"/>
<text text-anchor="middle" x="799.4418" y="-753.8" font-family="Times,serif" font-size="14.00" fill="#0000ff">init</text>
</g>
<!-- #15 AssignmentExpression (20) -->
<g id="node8" class="node">
<title>#15 AssignmentExpression (20)</title>
<ellipse fill="none" stroke="#000000" cx="204.9418" cy="-627" rx="124.5782" ry="18"/>
<text text-anchor="middle" x="204.9418" y="-623.3" font-family="Times,serif" font-size="14.00" fill="#000000">#15 AssignmentExpression (20)</text>
</g>
<!-- #14 ExpressionStatement (20)&#45;&gt;#15 AssignmentExpression (20) -->
<g id="edge8" class="edge">
<title>#14 ExpressionStatement (20)&#45;&gt;#15 AssignmentExpression (20)</title>
<path fill="none" stroke="#0000ff" d="M417.6616,-697.636C374.2075,-683.2065 310.7793,-662.1445 264.4948,-646.7753"/>
<polygon fill="#0000ff" stroke="#0000ff" points="265.4852,-643.4163 254.8918,-643.5865 263.2792,-650.0596 265.4852,-643.4163"/>
<text text-anchor="middle" x="380.9418" y="-666.8" font-family="Times,serif" font-size="14.00" fill="#0000ff">expression</text>
</g>
<!-- #21 CFG_F_END __main__ -->
<g id="node9" class="node">
<title>#21 CFG_F_END __main__</title>
<ellipse fill="none" stroke="#ff0000" cx="460.9418" cy="-627" rx="113.18" ry="18"/>
<text text-anchor="middle" x="460.9418" y="-623.3" font-family="Times,serif" font-size="14.00" fill="#ff0000">#21 CFG_F_END __main__</text>
</g>
<!-- #14 ExpressionStatement (20)&#45;&gt;#21 CFG_F_END __main__ -->
<g id="edge9" class="edge">
<title>#14 ExpressionStatement (20)&#45;&gt;#21 CFG_F_END __main__</title>
<path fill="none" stroke="#ff0000" d="M465.6985,-695.9735C464.886,-684.1918 463.808,-668.5607 462.8837,-655.1581"/>
<polygon fill="#ff0000" stroke="#ff0000" points="466.3632,-654.7388 462.1834,-645.0034 459.3798,-655.2205 466.3632,-654.7388"/>
</g>
<!-- #20 CFG_F_START __main__ -->
<g id="node4" class="node">
<title>#20 CFG_F_START __main__</title>
<ellipse fill="none" stroke="#ff0000" cx="710.9418" cy="-888" rx="122.6784" ry="18"/>
<text text-anchor="middle" x="710.9418" y="-884.3" font-family="Times,serif" font-size="14.00" fill="#ff0000">#20 CFG_F_START __main__</text>
</g>
<!-- #20 CFG_F_START __main__&#45;&gt;#1 Variable (f) &#45; (20) -->
<g id="edge3" class="edge">
<title>#20 CFG_F_START __main__&#45;&gt;#1 Variable (f) &#45; (20)</title>
<path fill="none" stroke="#ff0000" d="M710.9418,-869.9735C710.9418,-858.1918 710.9418,-842.5607 710.9418,-829.1581"/>
<polygon fill="#ff0000" stroke="#ff0000" points="714.4419,-829.0033 710.9418,-819.0034 707.4419,-829.0034 714.4419,-829.0033"/>
</g>
<!-- #4 Variable (func) &#45; (22) -->
<g id="node6" class="node">
<title>#4 Variable (func) &#45; (22)</title>
<ellipse fill="none" stroke="#000000" cx="902.9418" cy="-453" rx="98.5829" ry="18"/>
<text text-anchor="middle" x="902.9418" y="-449.3" font-family="Times,serif" font-size="14.00" fill="#000000">#4 Variable (func) &#45; (22)</text>
</g>
<!-- #22 CFG_F_START 2_anon&#45;&gt;#4 Variable (func) &#45; (22) -->
<g id="edge4" class="edge">
<title>#22 CFG_F_START 2_anon&#45;&gt;#4 Variable (func) &#45; (22)</title>
<path fill="none" stroke="#ff0000" d="M902.9418,-608.7078C902.9418,-578.3436 902.9418,-517.3226 902.9418,-481.3464"/>
<polygon fill="#ff0000" stroke="#ff0000" points="906.4419,-481.0471 902.9418,-471.0471 899.4419,-481.0471 906.4419,-481.0471"/>
</g>
<!-- #5 NewExpression (22) -->
<g id="node10" class="node">
<title>#5 NewExpression (22)</title>
<ellipse fill="none" stroke="#000000" cx="736.9418" cy="-366" rx="94.7833" ry="18"/>
<text text-anchor="middle" x="736.9418" y="-362.3" font-family="Times,serif" font-size="14.00" fill="#000000">#5 NewExpression (22)</text>
</g>
<!-- #4 Variable (func) &#45; (22)&#45;&gt;#5 NewExpression (22) -->
<g id="edge10" class="edge">
<title>#4 Variable (func) &#45; (22)&#45;&gt;#5 NewExpression (22)</title>
<path fill="none" stroke="#0000ff" d="M870.1455,-435.8116C843.8002,-422.0041 806.6454,-402.5314 778.2674,-387.6586"/>
<polygon fill="#0000ff" stroke="#0000ff" points="779.8691,-384.5465 769.387,-383.0045 776.6196,-390.7466 779.8691,-384.5465"/>
<text text-anchor="middle" x="838.4418" y="-405.8" font-family="Times,serif" font-size="14.00" fill="#0000ff">init</text>
</g>
<!-- #8 Variable (v1) &#45; (22) -->
<g id="node11" class="node">
<title>#8 Variable (v1) &#45; (22)</title>
<ellipse fill="none" stroke="#000000" cx="973.9418" cy="-279" rx="91.784" ry="18"/>
<text text-anchor="middle" x="973.9418" y="-275.3" font-family="Times,serif" font-size="14.00" fill="#000000">#8 Variable (v1) &#45; (22)</text>
</g>
<!-- #4 Variable (func) &#45; (22)&#45;&gt;#8 Variable (v1) &#45; (22) -->
<g id="edge11" class="edge">
<title>#4 Variable (func) &#45; (22)&#45;&gt;#8 Variable (v1) &#45; (22)</title>
<path fill="none" stroke="#ff0000" d="M960.0613,-438.2512C969.9102,-433.1271 978.9056,-426.2423 984.9418,-417 1006.4556,-384.0591 995.9575,-336.8186 985.5906,-307.0357"/>
<polygon fill="#ff0000" stroke="#ff0000" points="988.7343,-305.4456 981.9819,-297.2812 982.1691,-307.8744 988.7343,-305.4456"/>
</g>
<!-- #27 func&#45;o4 -->
<g id="node12" class="node">
<title>#27 func&#45;o4</title>
<ellipse fill="none" stroke="#006400" cx="903.9418" cy="-366" rx="53.8905" ry="18"/>
<text text-anchor="middle" x="903.9418" y="-362.3" font-family="Times,serif" font-size="14.00" fill="#006400">#27 func&#45;o4</text>
</g>
<!-- #4 Variable (func) &#45; (22)&#45;&gt;#27 func&#45;o4 -->
<g id="edge12" class="edge">
<title>#4 Variable (func) &#45; (22)&#45;&gt;#27 func&#45;o4</title>
<path fill="none" stroke="#006400" d="M903.149,-434.9735C903.2844,-423.1918 903.464,-407.5607 903.6181,-394.1581"/>
<polygon fill="#006400" stroke="#006400" points="907.1196,-394.043 903.7348,-384.0034 900.12,-393.9624 907.1196,-394.043"/>
<text text-anchor="middle" x="943.4418" y="-405.8" font-family="Times,serif" font-size="14.00" fill="#006400">CREATE func</text>
</g>
<!-- #2 Function (anon) &#45; (20)&#45;&gt;#22 CFG_F_START 2_anon -->
<g id="edge15" class="edge">
<title>#2 Function (anon) &#45; (20)&#45;&gt;#22 CFG_F_START 2_anon</title>
<path fill="none" stroke="#000000" d="M863.3018,-695.9735C870.274,-683.8418 879.5919,-667.6287 887.4418,-653.9698"/>
<polygon fill="#000000" stroke="#000000" points="890.6467,-655.4175 892.595,-645.0034 884.5776,-651.9295 890.6467,-655.4175"/>
<text text-anchor="middle" x="888.9418" y="-666.8" font-family="Times,serif" font-size="14.00" fill="#000000">FD</text>
</g>
<!-- #3 Identifier (x) &#45; (20) -->
<g id="node13" class="node">
<title>#3 Identifier (x) &#45; (20)</title>
<ellipse fill="none" stroke="#000000" cx="681.9418" cy="-627" rx="89.8845" ry="18"/>
<text text-anchor="middle" x="681.9418" y="-623.3" font-family="Times,serif" font-size="14.00" fill="#000000">#3 Identifier (x) &#45; (20)</text>
</g>
<!-- #2 Function (anon) &#45; (20)&#45;&gt;#3 Identifier (x) &#45; (20) -->
<g id="edge13" class="edge">
<title>#2 Function (anon) &#45; (20)&#45;&gt;#3 Identifier (x) &#45; (20)</title>
<path fill="none" stroke="#0000ff" d="M819.1577,-696.8116C791.931,-682.9594 753.497,-663.4053 724.2286,-648.5144"/>
<polygon fill="#0000ff" stroke="#0000ff" points="725.5737,-645.2718 715.0738,-643.8567 722.3995,-651.5108 725.5737,-645.2718"/>
<text text-anchor="middle" x="799.9418" y="-666.8" font-family="Times,serif" font-size="14.00" fill="#0000ff">param 1</text>
</g>
<!-- #13 BlockStatement (20) -->
<g id="node14" class="node">
<title>#13 BlockStatement (20)</title>
<ellipse fill="none" stroke="#000000" cx="1047.9418" cy="-540" rx="100.1823" ry="18"/>
<text text-anchor="middle" x="1047.9418" y="-536.3" font-family="Times,serif" font-size="14.00" fill="#000000">#13 BlockStatement (20)</text>
</g>
<!-- #2 Function (anon) &#45; (20)&#45;&gt;#13 BlockStatement (20) -->
<g id="edge14" class="edge">
<title>#2 Function (anon) &#45; (20)&#45;&gt;#13 BlockStatement (20)</title>
<path fill="none" stroke="#0000ff" d="M925.4386,-701.3417C960.3161,-691.6129 999.8924,-674.5913 1024.9418,-645 1042.9488,-623.7279 1047.7735,-591.5396 1048.6682,-568.4117"/>
<polygon fill="#0000ff" stroke="#0000ff" points="1052.1713,-568.24 1048.8343,-558.1845 1045.1722,-568.1263 1052.1713,-568.24"/>
<text text-anchor="middle" x="1057.4418" y="-623.3" font-family="Times,serif" font-size="14.00" fill="#0000ff">block</text>
</g>
<!-- #16 MemberExpression (20) -->
<g id="node15" class="node">
<title>#16 MemberExpression (20)</title>
<ellipse fill="none" stroke="#000000" cx="316.9418" cy="-540" rx="113.18" ry="18"/>
<text text-anchor="middle" x="316.9418" y="-536.3" font-family="Times,serif" font-size="14.00" fill="#000000">#16 MemberExpression (20)</text>
</g>
<!-- #15 AssignmentExpression (20)&#45;&gt;#16 MemberExpression (20) -->
<g id="edge16" class="edge">
<title>#15 AssignmentExpression (20)&#45;&gt;#16 MemberExpression (20)</title>
<path fill="none" stroke="#0000ff" d="M227.8769,-609.1843C244.6374,-596.165 267.5545,-578.3633 285.9447,-564.0781"/>
<polygon fill="#0000ff" stroke="#0000ff" points="288.287,-566.6905 294.0373,-557.7919 283.9929,-561.1624 288.287,-566.6905"/>
<text text-anchor="middle" x="277.4418" y="-579.8" font-family="Times,serif" font-size="14.00" fill="#0000ff">left</text>
</g>
<!-- #19 Identifier (f) &#45; (20) -->
<g id="node16" class="node">
<title>#19 Identifier (f) &#45; (20)</title>
<ellipse fill="none" stroke="#000000" cx="92.9418" cy="-540" rx="92.8835" ry="18"/>
<text text-anchor="middle" x="92.9418" y="-536.3" font-family="Times,serif" font-size="14.00" fill="#000000">#19 Identifier (f) &#45; (20)</text>
</g>
<!-- #15 AssignmentExpression (20)&#45;&gt;#19 Identifier (f) &#45; (20) -->
<g id="edge17" class="edge">
<title>#15 AssignmentExpression (20)&#45;&gt;#19 Identifier (f) &#45; (20)</title>
<path fill="none" stroke="#0000ff" d="M182.0066,-609.1843C165.1351,-596.0788 142.0252,-578.1274 123.5741,-563.7948"/>
<polygon fill="#0000ff" stroke="#0000ff" points="125.5079,-560.8651 115.4635,-557.4946 121.2137,-566.3932 125.5079,-560.8651"/>
<text text-anchor="middle" x="168.9418" y="-579.8" font-family="Times,serif" font-size="14.00" fill="#0000ff">right</text>
</g>
<!-- #6 Identifier (Function) &#45; (22) -->
<g id="node17" class="node">
<title>#6 Identifier (Function) &#45; (22)</title>
<ellipse fill="none" stroke="#000000" cx="530.9418" cy="-279" rx="116.1796" ry="18"/>
<text text-anchor="middle" x="530.9418" y="-275.3" font-family="Times,serif" font-size="14.00" fill="#000000">#6 Identifier (Function) &#45; (22)</text>
</g>
<!-- #5 NewExpression (22)&#45;&gt;#6 Identifier (Function) &#45; (22) -->
<g id="edge18" class="edge">
<title>#5 NewExpression (22)&#45;&gt;#6 Identifier (Function) &#45; (22)</title>
<path fill="none" stroke="#0000ff" d="M697.7098,-349.4312C664.383,-335.3562 616.3718,-315.0797 580.4137,-299.8935"/>
<polygon fill="#0000ff" stroke="#0000ff" points="581.6556,-296.6187 571.0817,-295.9523 578.9321,-303.0672 581.6556,-296.6187"/>
<text text-anchor="middle" x="662.9418" y="-318.8" font-family="Times,serif" font-size="14.00" fill="#0000ff">callee</text>
</g>
<!-- #7 Identifier (x) &#45; (22) -->
<g id="node18" class="node">
<title>#7 Identifier (x) &#45; (22)</title>
<ellipse fill="none" stroke="#000000" cx="754.9418" cy="-279" rx="89.8845" ry="18"/>
<text text-anchor="middle" x="754.9418" y="-275.3" font-family="Times,serif" font-size="14.00" fill="#000000">#7 Identifier (x) &#45; (22)</text>
</g>
<!-- #5 NewExpression (22)&#45;&gt;#7 Identifier (x) &#45; (22) -->
<g id="edge19" class="edge">
<title>#5 NewExpression (22)&#45;&gt;#7 Identifier (x) &#45; (22)</title>
<path fill="none" stroke="#0000ff" d="M740.6714,-347.9735C743.109,-336.1918 746.343,-320.5607 749.1159,-307.1581"/>
<polygon fill="#0000ff" stroke="#0000ff" points="752.6182,-307.5051 751.2169,-297.0034 745.7634,-306.0868 752.6182,-307.5051"/>
<text text-anchor="middle" x="760.9418" y="-318.8" font-family="Times,serif" font-size="14.00" fill="#0000ff">arg 1</text>
</g>
<!-- #9 CallExpression (22) -->
<g id="node19" class="node">
<title>#9 CallExpression (22)</title>
<ellipse fill="none" stroke="#000000" cx="825.9418" cy="-192" rx="92.8835" ry="18"/>
<text text-anchor="middle" x="825.9418" y="-188.3" font-family="Times,serif" font-size="14.00" fill="#000000">#9 CallExpression (22)</text>
</g>
<!-- #8 Variable (v1) &#45; (22)&#45;&gt;#9 CallExpression (22) -->
<g id="edge20" class="edge">
<title>#8 Variable (v1) &#45; (22)&#45;&gt;#9 CallExpression (22)</title>
<path fill="none" stroke="#0000ff" d="M944.7017,-261.8116C921.5932,-248.2275 889.1566,-229.1601 864.0206,-214.3842"/>
<polygon fill="#0000ff" stroke="#0000ff" points="865.5156,-211.2031 855.121,-209.1527 861.9682,-217.2377 865.5156,-211.2031"/>
<text text-anchor="middle" x="917.4418" y="-231.8" font-family="Times,serif" font-size="14.00" fill="#0000ff">init</text>
</g>
<!-- #11 ReturnStatement (22) -->
<g id="node20" class="node">
<title>#11 ReturnStatement (22)</title>
<ellipse fill="none" stroke="#000000" cx="1036.9418" cy="-105" rx="102.8821" ry="18"/>
<text text-anchor="middle" x="1036.9418" y="-101.3" font-family="Times,serif" font-size="14.00" fill="#000000">#11 ReturnStatement (22)</text>
</g>
<!-- #8 Variable (v1) &#45; (22)&#45;&gt;#11 ReturnStatement (22) -->
<g id="edge21" class="edge">
<title>#8 Variable (v1) &#45; (22)&#45;&gt;#11 ReturnStatement (22)</title>
<path fill="none" stroke="#ff0000" d="M969.7748,-260.799C965.7289,-239.2531 961.6886,-202.68 972.9418,-174 979.6631,-156.8698 992.8576,-141.4574 1005.5286,-129.5667"/>
<polygon fill="#ff0000" stroke="#ff0000" points="1008.1625,-131.907 1013.288,-122.6344 1003.4988,-126.6868 1008.1625,-131.907"/>
</g>
<!-- #28 v1&#45;o5 -->
<g id="node21" class="node">
<title>#28 v1&#45;o5</title>
<ellipse fill="none" stroke="#006400" cx="1028.9418" cy="-192" rx="46.5926" ry="18"/>
<text text-anchor="middle" x="1028.9418" y="-188.3" font-family="Times,serif" font-size="14.00" fill="#006400">#28 v1&#45;o5</text>
</g>
<!-- #8 Variable (v1) &#45; (22)&#45;&gt;#28 v1&#45;o5 -->
<g id="edge22" class="edge">
<title>#8 Variable (v1) &#45; (22)&#45;&gt;#28 v1&#45;o5</title>
<path fill="none" stroke="#006400" d="M985.3378,-260.9735C993.1326,-248.6435 1003.5927,-232.0975 1012.314,-218.3021"/>
<polygon fill="#006400" stroke="#006400" points="1015.3633,-220.0286 1017.7485,-209.7057 1009.4465,-216.288 1015.3633,-220.0286"/>
<text text-anchor="middle" x="1038.9418" y="-231.8" font-family="Times,serif" font-size="14.00" fill="#006400">CREATE v1</text>
</g>
<!-- #27 func&#45;o4&#45;&gt;#8 Variable (v1) &#45; (22) -->
<g id="edge23" class="edge">
<title>#27 func&#45;o4&#45;&gt;#8 Variable (v1) &#45; (22)</title>
<path fill="none" stroke="#006400" d="M899.9636,-347.7266C898.7209,-337.3855 898.9709,-324.6355 904.9418,-315 908.5281,-309.2125 913.376,-304.3086 918.8499,-300.1647"/>
<polygon fill="#006400" stroke="#006400" points="920.8269,-303.0534 927.2436,-294.6227 916.97,-297.2118 920.8269,-303.0534"/>
<text text-anchor="middle" x="944.9418" y="-318.8" font-family="Times,serif" font-size="14.00" fill="#006400">CALLEE func</text>
</g>
<!-- #26 x&#45;o3 -->
<g id="node22" class="node">
<title>#26 x&#45;o3</title>
<ellipse fill="none" stroke="#006400" cx="757.9418" cy="-540" rx="42.4939" ry="18"/>
<text text-anchor="middle" x="757.9418" y="-536.3" font-family="Times,serif" font-size="14.00" fill="#006400">#26 x&#45;o3</text>
</g>
<!-- #3 Identifier (x) &#45; (20)&#45;&gt;#26 x&#45;o3 -->
<g id="edge24" class="edge">
<title>#3 Identifier (x) &#45; (20)&#45;&gt;#26 x&#45;o3</title>
<path fill="none" stroke="#006400" d="M697.689,-608.9735C708.8106,-596.2422 723.8587,-579.0161 736.134,-564.9642"/>
<polygon fill="#006400" stroke="#006400" points="739.0473,-566.9492 742.9904,-557.1154 733.7755,-562.3439 739.0473,-566.9492"/>
<text text-anchor="middle" x="755.9418" y="-579.8" font-family="Times,serif" font-size="14.00" fill="#006400">CREATE x</text>
</g>
<!-- #13 BlockStatement (20)&#45;&gt;#4 Variable (func) &#45; (22) -->
<g id="edge25" class="edge">
<title>#13 BlockStatement (20)&#45;&gt;#4 Variable (func) &#45; (22)</title>
<path fill="none" stroke="#0000ff" d="M1018.9473,-522.6033C996.4238,-509.0892 965.0103,-490.2412 940.5526,-475.5665"/>
<polygon fill="#0000ff" stroke="#0000ff" points="942.2616,-472.5103 931.8859,-470.3665 938.6601,-478.5127 942.2616,-472.5103"/>
<text text-anchor="middle" x="987.4418" y="-492.8" font-family="Times,serif" font-size="14.00" fill="#0000ff">1</text>
</g>
<!-- #13 BlockStatement (20)&#45;&gt;#8 Variable (v1) &#45; (22) -->
<g id="edge26" class="edge">
<title>#13 BlockStatement (20)&#45;&gt;#8 Variable (v1) &#45; (22)</title>
<path fill="none" stroke="#0000ff" d="M1047.4153,-521.8444C1045.6393,-482.3285 1037.8748,-386.3497 1003.9418,-315 1002.3082,-311.5652 1000.2708,-308.1844 998.0316,-304.9523"/>
<polygon fill="#0000ff" stroke="#0000ff" points="1000.6412,-302.6042 991.7714,-296.8095 995.0916,-306.8707 1000.6412,-302.6042"/>
<text text-anchor="middle" x="1038.4418" y="-405.8" font-family="Times,serif" font-size="14.00" fill="#0000ff">2</text>
</g>
<!-- #13 BlockStatement (20)&#45;&gt;#11 ReturnStatement (22) -->
<g id="edge27" class="edge">
<title>#13 BlockStatement (20)&#45;&gt;#11 ReturnStatement (22)</title>
<path fill="none" stroke="#0000ff" d="M1068.159,-522.1093C1084.1996,-505.8548 1103.9418,-480.3033 1103.9418,-453 1103.9418,-453 1103.9418,-453 1103.9418,-192 1103.9418,-167.487 1097.7509,-160.534 1082.9418,-141 1079.8057,-136.8634 1076.0847,-132.9418 1072.138,-129.3145"/>
<polygon fill="#0000ff" stroke="#0000ff" points="1074.2553,-126.5209 1064.3647,-122.7227 1069.7279,-131.8598 1074.2553,-126.5209"/>
<text text-anchor="middle" x="1107.4418" y="-318.8" font-family="Times,serif" font-size="14.00" fill="#0000ff">3</text>
</g>
<!-- #17 Identifier (module) &#45; (20) -->
<g id="node23" class="node">
<title>#17 Identifier (module) &#45; (20)</title>
<ellipse fill="none" stroke="#000000" cx="441.9418" cy="-453" rx="116.1796" ry="18"/>
<text text-anchor="middle" x="441.9418" y="-449.3" font-family="Times,serif" font-size="14.00" fill="#000000">#17 Identifier (module) &#45; (20)</text>
</g>
<!-- #16 MemberExpression (20)&#45;&gt;#17 Identifier (module) &#45; (20) -->
<g id="edge28" class="edge">
<title>#16 MemberExpression (20)&#45;&gt;#17 Identifier (module) &#45; (20)</title>
<path fill="none" stroke="#0000ff" d="M342.2374,-522.3943C361.2982,-509.1279 387.6175,-490.8097 408.4288,-476.325"/>
<polygon fill="#0000ff" stroke="#0000ff" points="410.4754,-479.1649 416.6838,-470.5796 406.4766,-473.4195 410.4754,-479.1649"/>
<text text-anchor="middle" x="403.9418" y="-492.8" font-family="Times,serif" font-size="14.00" fill="#0000ff">object</text>
</g>
<!-- #18 Identifier (exports) &#45; (20) -->
<g id="node24" class="node">
<title>#18 Identifier (exports) &#45; (20)</title>
<ellipse fill="none" stroke="#000000" cx="191.9418" cy="-453" rx="115.8798" ry="18"/>
<text text-anchor="middle" x="191.9418" y="-449.3" font-family="Times,serif" font-size="14.00" fill="#000000">#18 Identifier (exports) &#45; (20)</text>
</g>
<!-- #16 MemberExpression (20)&#45;&gt;#18 Identifier (exports) &#45; (20) -->
<g id="edge29" class="edge">
<title>#16 MemberExpression (20)&#45;&gt;#18 Identifier (exports) &#45; (20)</title>
<path fill="none" stroke="#0000ff" d="M291.6461,-522.3943C272.5854,-509.1279 246.266,-490.8097 225.4547,-476.325"/>
<polygon fill="#0000ff" stroke="#0000ff" points="227.4069,-473.4195 217.1997,-470.5796 223.4081,-479.1649 227.4069,-473.4195"/>
<text text-anchor="middle" x="284.9418" y="-492.8" font-family="Times,serif" font-size="14.00" fill="#0000ff">property</text>
</g>
<!-- #10 Identifier (func) &#45; (22) -->
<g id="node25" class="node">
<title>#10 Identifier (func) &#45; (22)</title>
<ellipse fill="none" stroke="#000000" cx="810.9418" cy="-105" rx="105.0817" ry="18"/>
<text text-anchor="middle" x="810.9418" y="-101.3" font-family="Times,serif" font-size="14.00" fill="#000000">#10 Identifier (func) &#45; (22)</text>
</g>
<!-- #9 CallExpression (22)&#45;&gt;#10 Identifier (func) &#45; (22) -->
<g id="edge30" class="edge">
<title>#9 CallExpression (22)&#45;&gt;#10 Identifier (func) &#45; (22)</title>
<path fill="none" stroke="#0000ff" d="M822.8337,-173.9735C820.8024,-162.1918 818.1074,-146.5607 815.7966,-133.1581"/>
<polygon fill="#0000ff" stroke="#0000ff" points="819.194,-132.2633 814.0458,-123.0034 812.2958,-133.4527 819.194,-132.2633"/>
<text text-anchor="middle" x="834.9418" y="-144.8" font-family="Times,serif" font-size="14.00" fill="#0000ff">callee</text>
</g>
<!-- #12 Identifier (v1) &#45; (22) -->
<g id="node26" class="node">
<title>#12 Identifier (v1) &#45; (22)</title>
<ellipse fill="none" stroke="#000000" cx="926.9418" cy="-18" rx="98.5829" ry="18"/>
<text text-anchor="middle" x="926.9418" y="-14.3" font-family="Times,serif" font-size="14.00" fill="#000000">#12 Identifier (v1) &#45; (22)</text>
</g>
<!-- #11 ReturnStatement (22)&#45;&gt;#12 Identifier (v1) &#45; (22) -->
<g id="edge31" class="edge">
<title>#11 ReturnStatement (22)&#45;&gt;#12 Identifier (v1) &#45; (22)</title>
<path fill="none" stroke="#0000ff" d="M1014.6816,-87.3943C998.1318,-74.3048 975.3636,-56.2973 957.1683,-41.9064"/>
<polygon fill="#0000ff" stroke="#0000ff" points="959.1834,-39.0378 949.1688,-35.5796 954.841,-44.5282 959.1834,-39.0378"/>
<text text-anchor="middle" x="1013.9418" y="-57.8" font-family="Times,serif" font-size="14.00" fill="#0000ff">argument</text>
</g>
<!-- #23 CFG_F_END 2_anon -->
<g id="node27" class="node">
<title>#23 CFG_F_END 2_anon</title>
<ellipse fill="none" stroke="#ff0000" cx="1146.9418" cy="-18" rx="103.1819" ry="18"/>
<text text-anchor="middle" x="1146.9418" y="-14.3" font-family="Times,serif" font-size="14.00" fill="#ff0000">#23 CFG_F_END 2_anon</text>
</g>
<!-- #11 ReturnStatement (22)&#45;&gt;#23 CFG_F_END 2_anon -->
<g id="edge32" class="edge">
<title>#11 ReturnStatement (22)&#45;&gt;#23 CFG_F_END 2_anon</title>
<path fill="none" stroke="#ff0000" d="M1059.2019,-87.3943C1075.7517,-74.3048 1098.5199,-56.2973 1116.7152,-41.9064"/>
<polygon fill="#ff0000" stroke="#ff0000" points="1119.0425,-44.5282 1124.7147,-35.5796 1114.7002,-39.0378 1119.0425,-44.5282"/>
</g>
<!-- #28 v1&#45;o5&#45;&gt;#11 ReturnStatement (22) -->
<g id="edge33" class="edge">
<title>#28 v1&#45;o5&#45;&gt;#11 ReturnStatement (22)</title>
<path fill="none" stroke="#006400" d="M1030.5994,-173.9735C1031.6827,-162.1918 1033.1201,-146.5607 1034.3525,-133.1581"/>
<polygon fill="#006400" stroke="#006400" points="1037.8558,-133.2819 1035.2863,-123.0034 1030.8852,-132.6408 1037.8558,-133.2819"/>
<text text-anchor="middle" x="1055.9418" y="-144.8" font-family="Times,serif" font-size="14.00" fill="#006400">VAR v1</text>
</g>
<!-- #26 x&#45;o3&#45;&gt;#4 Variable (func) &#45; (22) -->
<g id="edge34" class="edge">
<title>#26 x&#45;o3&#45;&gt;#4 Variable (func) &#45; (22)</title>
<path fill="none" stroke="#006400" d="M782.539,-525.2416C805.2341,-511.6246 839.2647,-491.2062 865.3632,-475.5471"/>
<polygon fill="#006400" stroke="#006400" points="867.458,-478.372 874.2322,-470.2258 863.8565,-472.3695 867.458,-478.372"/>
<text text-anchor="middle" x="858.9418" y="-492.8" font-family="Times,serif" font-size="14.00" fill="#006400">VAR x</text>
</g>
</g>
</svg>
