<?xml version="1.0" encoding="UTF-8" standalone="no"?>
<!DOCTYPE svg PUBLIC "-//W3C//DTD SVG 1.1//EN"
 "http://www.w3.org/Graphics/SVG/1.1/DTD/svg11.dtd">
<!-- Generated by graphviz version 2.40.1 (20161225.0304)
 -->
<!-- Title: G Pages: 1 -->
<svg width="829pt" height="1008pt"
 viewBox="0.00 0.00 828.78 1008.00" xmlns="http://www.w3.org/2000/svg" xmlns:xlink="http://www.w3.org/1999/xlink">
<g id="graph0" class="graph" transform="scale(1 1) rotate(0) translate(4 1004)">
<title>G</title>
<polygon fill="#ffffff" stroke="transparent" points="-4,4 -4,-1004 824.782,-1004 824.782,4 -4,4"/>
<!-- #0 Program (0) -->
<g id="node1" class="node">
<title>#0 Program (0)</title>
<ellipse fill="none" stroke="#000000" cx="248.09" cy="-982" rx="65.7887" ry="18"/>
<text text-anchor="middle" x="248.09" y="-978.3" font-family="Times,serif" font-size="14.00" fill="#000000">#0 Program (0)</text>
</g>
<!-- #1» f = Function (__2_anon__) &#45; (29) -->
<g id="node2" class="node">
<title>#1» f = Function (__2_anon__) &#45; (29)</title>
<ellipse fill="none" stroke="#000000" cx="477.09" cy="-895" rx="144.8743" ry="18"/>
<text text-anchor="middle" x="477.09" y="-891.3" font-family="Times,serif" font-size="14.00" fill="#000000">#1» f = Function (__2_anon__) &#45; (29)</text>
</g>
<!-- #0 Program (0)&#45;&gt;#1» f = Function (__2_anon__) &#45; (29) -->
<g id="edge1" class="edge">
<title>#0 Program (0)&#45;&gt;#1» f = Function (__2_anon__) &#45; (29)</title>
<path fill="none" stroke="#0000ff" d="M286.6777,-967.34C323.9283,-953.1881 380.6886,-931.6241 422.5518,-915.7197"/>
<polygon fill="#0000ff" stroke="#0000ff" points="423.942,-918.9357 432.0471,-912.1124 421.456,-912.392 423.942,-918.9357"/>
<text text-anchor="middle" x="380.59" y="-934.8" font-family="Times,serif" font-size="14.00" fill="#0000ff">1</text>
</g>
<!-- #23» module.exports = f; &#45; (29) -->
<g id="node3" class="node">
<title>#23» module.exports = f; &#45; (29)</title>
<ellipse fill="none" stroke="#000000" cx="197.09" cy="-808" rx="124.2781" ry="18"/>
<text text-anchor="middle" x="197.09" y="-804.3" font-family="Times,serif" font-size="14.00" fill="#000000">#23» module.exports = f; &#45; (29)</text>
</g>
<!-- #0 Program (0)&#45;&gt;#23» module.exports = f; &#45; (29) -->
<g id="edge2" class="edge">
<title>#0 Program (0)&#45;&gt;#23» module.exports = f; &#45; (29)</title>
<path fill="none" stroke="#0000ff" d="M242.8242,-964.0343C233.9294,-933.6874 215.8675,-872.0644 205.2984,-836.0052"/>
<polygon fill="#0000ff" stroke="#0000ff" points="208.575,-834.7405 202.4035,-826.1286 201.8576,-836.7094 208.575,-834.7405"/>
<text text-anchor="middle" x="231.59" y="-891.3" font-family="Times,serif" font-size="14.00" fill="#0000ff">2</text>
</g>
<!-- #1» f = Function (__2_anon__) &#45; (29)&#45;&gt;#23» module.exports = f; &#45; (29) -->
<g id="edge8" class="edge">
<title>#1» f = Function (__2_anon__) &#45; (29)&#45;&gt;#23» module.exports = f; &#45; (29)</title>
<path fill="none" stroke="#ff0000" d="M413.0839,-878.8309C390.8262,-872.937 365.7629,-865.9952 343.09,-859 312.8141,-849.659 279.4269,-838.0928 252.2301,-828.3377"/>
<polygon fill="#ff0000" stroke="#ff0000" points="253.102,-824.9316 242.5076,-824.8331 250.7282,-831.5168 253.102,-824.9316"/>
</g>
<!-- #31 CFG_F_START 2_anon -->
<g id="node5" class="node">
<title>#31 CFG_F_START 2_anon</title>
<ellipse fill="none" stroke="#ff0000" cx="357.09" cy="-721" rx="113.18" ry="18"/>
<text text-anchor="middle" x="357.09" y="-717.3" font-family="Times,serif" font-size="14.00" fill="#ff0000">#31 CFG_F_START 2_anon</text>
</g>
<!-- #1» f = Function (__2_anon__) &#45; (29)&#45;&gt;#31 CFG_F_START 2_anon -->
<g id="edge7" class="edge">
<title>#1» f = Function (__2_anon__) &#45; (29)&#45;&gt;#31 CFG_F_START 2_anon</title>
<path fill="none" stroke="#000000" d="M430.4371,-877.8803C407.0869,-866.7875 380.7388,-849.8893 366.09,-826 352.0352,-803.0795 351.1506,-771.8741 352.9472,-749.4481"/>
<polygon fill="#000000" stroke="#000000" points="356.4577,-749.5245 353.9986,-739.2191 349.4944,-748.8088 356.4577,-749.5245"/>
<text text-anchor="middle" x="375.09" y="-804.3" font-family="Times,serif" font-size="14.00" fill="#000000">FD</text>
</g>
<!-- #2 Function (anon) &#45; (29) -->
<g id="node9" class="node">
<title>#2 Function (anon) &#45; (29)</title>
<ellipse fill="none" stroke="#000000" cx="494.09" cy="-808" rx="100.9827" ry="18"/>
<text text-anchor="middle" x="494.09" y="-804.3" font-family="Times,serif" font-size="14.00" fill="#000000">#2 Function (anon) &#45; (29)</text>
</g>
<!-- #1» f = Function (__2_anon__) &#45; (29)&#45;&gt;#2 Function (anon) &#45; (29) -->
<g id="edge6" class="edge">
<title>#1» f = Function (__2_anon__) &#45; (29)&#45;&gt;#2 Function (anon) &#45; (29)</title>
<path fill="none" stroke="#0000ff" d="M480.6124,-876.9735C482.9146,-865.1918 485.9689,-849.5607 488.5878,-836.1581"/>
<polygon fill="#0000ff" stroke="#0000ff" points="492.0893,-836.489 490.5721,-826.0034 485.2192,-835.1465 492.0893,-836.489"/>
<text text-anchor="middle" x="495.59" y="-847.8" font-family="Times,serif" font-size="14.00" fill="#0000ff">init</text>
</g>
<!-- #34 f&#45;o1 -->
<g id="node10" class="node">
<title>#34 f&#45;o1</title>
<ellipse fill="none" stroke="#006400" cx="654.09" cy="-808" rx="40.8928" ry="18"/>
<text text-anchor="middle" x="654.09" y="-804.3" font-family="Times,serif" font-size="14.00" fill="#006400">#34 f&#45;o1</text>
</g>
<!-- #1» f = Function (__2_anon__) &#45; (29)&#45;&gt;#34 f&#45;o1 -->
<g id="edge9" class="edge">
<title>#1» f = Function (__2_anon__) &#45; (29)&#45;&gt;#34 f&#45;o1</title>
<path fill="none" stroke="#000000" stroke-dasharray="5,2" d="M512.9086,-877.3943C543.3931,-862.4103 586.9896,-840.9815 617.6505,-825.9109"/>
<polygon fill="#000000" stroke="#000000" points="619.2912,-829.0045 626.7218,-821.4521 616.2034,-822.7223 619.2912,-829.0045"/>
</g>
<!-- #35 this&#45;o2 -->
<g id="node11" class="node">
<title>#35 this&#45;o2</title>
<ellipse fill="none" stroke="#006400" cx="764.09" cy="-808" rx="50.8918" ry="18"/>
<text text-anchor="middle" x="764.09" y="-804.3" font-family="Times,serif" font-size="14.00" fill="#006400">#35 this&#45;o2</text>
</g>
<!-- #1» f = Function (__2_anon__) &#45; (29)&#45;&gt;#35 this&#45;o2 -->
<g id="edge10" class="edge">
<title>#1» f = Function (__2_anon__) &#45; (29)&#45;&gt;#35 this&#45;o2</title>
<path fill="none" stroke="#000000" stroke-dasharray="5,2" d="M532.0869,-878.3285C585.1887,-862.2314 664.8177,-838.093 715.6061,-822.6972"/>
<polygon fill="#000000" stroke="#000000" points="716.8083,-825.9901 725.3629,-819.7396 714.7776,-819.2911 716.8083,-825.9901"/>
</g>
<!-- #30 CFG_F_END __main__ -->
<g id="node12" class="node">
<title>#30 CFG_F_END __main__</title>
<ellipse fill="none" stroke="#ff0000" cx="113.09" cy="-721" rx="113.18" ry="18"/>
<text text-anchor="middle" x="113.09" y="-717.3" font-family="Times,serif" font-size="14.00" fill="#ff0000">#30 CFG_F_END __main__</text>
</g>
<!-- #23» module.exports = f; &#45; (29)&#45;&gt;#30 CFG_F_END __main__ -->
<g id="edge11" class="edge">
<title>#23» module.exports = f; &#45; (29)&#45;&gt;#30 CFG_F_END __main__</title>
<path fill="none" stroke="#ff0000" d="M179.6851,-789.9735C167.5212,-777.3752 151.1077,-760.3755 137.6194,-746.4055"/>
<polygon fill="#ff0000" stroke="#ff0000" points="139.9364,-743.7663 130.4725,-739.0034 134.9006,-748.6285 139.9364,-743.7663"/>
</g>
<!-- #29 CFG_F_START __main__ -->
<g id="node4" class="node">
<title>#29 CFG_F_START __main__</title>
<ellipse fill="none" stroke="#ff0000" cx="477.09" cy="-982" rx="122.6784" ry="18"/>
<text text-anchor="middle" x="477.09" y="-978.3" font-family="Times,serif" font-size="14.00" fill="#ff0000">#29 CFG_F_START __main__</text>
</g>
<!-- #29 CFG_F_START __main__&#45;&gt;#1» f = Function (__2_anon__) &#45; (29) -->
<g id="edge3" class="edge">
<title>#29 CFG_F_START __main__&#45;&gt;#1» f = Function (__2_anon__) &#45; (29)</title>
<path fill="none" stroke="#ff0000" d="M477.09,-963.9735C477.09,-952.1918 477.09,-936.5607 477.09,-923.1581"/>
<polygon fill="#ff0000" stroke="#ff0000" points="480.5901,-923.0033 477.09,-913.0034 473.5901,-923.0034 480.5901,-923.0033"/>
</g>
<!-- #4» x = {} -->
<g id="node6" class="node">
<title>#4» x = {}</title>
<ellipse fill="none" stroke="#000000" cx="457.09" cy="-613" rx="50.0912" ry="18"/>
<text text-anchor="middle" x="457.09" y="-609.3" font-family="Times,serif" font-size="14.00" fill="#000000">#4» x = {}</text>
</g>
<!-- #31 CFG_F_START 2_anon&#45;&gt;#4» x = {} -->
<g id="edge4" class="edge">
<title>#31 CFG_F_START 2_anon&#45;&gt;#4» x = {}</title>
<path fill="none" stroke="#ff0000" d="M373.6029,-703.166C390.1559,-685.2888 415.7712,-657.6242 434.2637,-637.6523"/>
<polygon fill="#ff0000" stroke="#ff0000" points="436.9877,-639.862 441.2136,-630.1465 431.8513,-635.1062 436.9877,-639.862"/>
</g>
<!-- #6» x.f = y; &#45; (31) -->
<g id="node13" class="node">
<title>#6» x.f = y; &#45; (31)</title>
<ellipse fill="none" stroke="#000000" cx="321.09" cy="-540" rx="75.2868" ry="18"/>
<text text-anchor="middle" x="321.09" y="-536.3" font-family="Times,serif" font-size="14.00" fill="#000000">#6» x.f = y; &#45; (31)</text>
</g>
<!-- #4» x = {}&#45;&gt;#6» x.f = y; &#45; (31) -->
<g id="edge12" class="edge">
<title>#4» x = {}&#45;&gt;#6» x.f = y; &#45; (31)</title>
<path fill="none" stroke="#ff0000" d="M432.4799,-597.3205C421.4888,-590.5145 408.2883,-582.6066 396.09,-576 386.2692,-570.6811 375.5383,-565.2907 365.3431,-560.3574"/>
<polygon fill="#ff0000" stroke="#ff0000" points="366.7037,-557.1284 356.1723,-555.9705 363.6829,-563.4432 366.7037,-557.1284"/>
</g>
<!-- #37 x&#45;o4 -->
<g id="node14" class="node">
<title>#37 x&#45;o4</title>
<ellipse fill="none" stroke="#006400" cx="457.09" cy="-540" rx="42.4939" ry="18"/>
<text text-anchor="middle" x="457.09" y="-536.3" font-family="Times,serif" font-size="14.00" fill="#006400">#37 x&#45;o4</text>
</g>
<!-- #4» x = {}&#45;&gt;#37 x&#45;o4 -->
<g id="edge13" class="edge">
<title>#4» x = {}&#45;&gt;#37 x&#45;o4</title>
<path fill="none" stroke="#000000" stroke-dasharray="5,2" d="M457.09,-594.9551C457.09,-586.8828 457.09,-577.1764 457.09,-568.1817"/>
<polygon fill="#000000" stroke="#000000" points="460.5901,-568.0903 457.09,-558.0904 453.5901,-568.0904 460.5901,-568.0903"/>
</g>
<!-- #33 TAINT_SOURCE -->
<g id="node7" class="node">
<title>#33 TAINT_SOURCE</title>
<ellipse fill="none" stroke="#8b6914" cx="166.09" cy="-366" rx="91.784" ry="18"/>
<text text-anchor="middle" x="166.09" y="-362.3" font-family="Times,serif" font-size="14.00" fill="#8b6914">#33 TAINT_SOURCE</text>
</g>
<!-- #36 y&#45;o3 -->
<g id="node8" class="node">
<title>#36 y&#45;o3</title>
<ellipse fill="none" stroke="#006400" cx="379.09" cy="-279" rx="42.4939" ry="18"/>
<text text-anchor="middle" x="379.09" y="-275.3" font-family="Times,serif" font-size="14.00" fill="#006400">#36 y&#45;o3</text>
</g>
<!-- #33 TAINT_SOURCE&#45;&gt;#36 y&#45;o3 -->
<g id="edge5" class="edge">
<title>#33 TAINT_SOURCE&#45;&gt;#36 y&#45;o3</title>
<path fill="none" stroke="#006400" d="M184.2517,-348.2574C196.5469,-337.1768 213.6702,-323.4566 231.09,-315 261.7327,-300.1241 299.0094,-291.1039 328.4858,-285.8129"/>
<polygon fill="#006400" stroke="#006400" points="329.2941,-289.2256 338.5629,-284.0934 328.1167,-282.3254 329.2941,-289.2256"/>
<text text-anchor="middle" x="251.59" y="-318.8" font-family="Times,serif" font-size="14.00" fill="#006400">TAINT</text>
</g>
<!-- #36 y&#45;o3&#45;&gt;#6» x.f = y; &#45; (31) -->
<g id="edge14" class="edge">
<title>#36 y&#45;o3&#45;&gt;#6» x.f = y; &#45; (31)</title>
<path fill="none" stroke="#006400" d="M370.7911,-296.8314C364.6576,-310.5741 356.4708,-330.1784 351.09,-348 334.0047,-404.5873 326.2537,-473.6506 323.063,-511.6076"/>
<polygon fill="#006400" stroke="#006400" points="319.5486,-511.6513 322.2468,-521.8968 326.5267,-512.2049 319.5486,-511.6513"/>
<text text-anchor="middle" x="356.59" y="-405.8" font-family="Times,serif" font-size="14.00" fill="#006400">DEP y</text>
</g>
<!-- #39 v2&#45;o6 -->
<g id="node15" class="node">
<title>#39 v2&#45;o6</title>
<ellipse fill="none" stroke="#006400" cx="463.09" cy="-192" rx="46.5926" ry="18"/>
<text text-anchor="middle" x="463.09" y="-188.3" font-family="Times,serif" font-size="14.00" fill="#006400">#39 v2&#45;o6</text>
</g>
<!-- #36 y&#45;o3&#45;&gt;#39 v2&#45;o6 -->
<g id="edge15" class="edge">
<title>#36 y&#45;o3&#45;&gt;#39 v2&#45;o6</title>
<path fill="none" stroke="#006400" d="M395.286,-262.2255C407.8714,-249.1907 425.5037,-230.9286 439.6329,-216.2948"/>
<polygon fill="#006400" stroke="#006400" points="442.229,-218.645 446.657,-209.0198 437.1931,-213.7828 442.229,-218.645"/>
<text text-anchor="middle" x="448.59" y="-231.8" font-family="Times,serif" font-size="14.00" fill="#006400">DEP v1</text>
</g>
<!-- #2 Function (anon) &#45; (29)&#45;&gt;#31 CFG_F_START 2_anon -->
<g id="edge18" class="edge">
<title>#2 Function (anon) &#45; (29)&#45;&gt;#31 CFG_F_START 2_anon</title>
<path fill="none" stroke="#000000" d="M466.6952,-790.6033C445.6462,-777.2364 416.3797,-758.6512 393.3832,-744.0475"/>
<polygon fill="#000000" stroke="#000000" points="395.2248,-741.0709 384.9068,-738.6647 391.4722,-746.9801 395.2248,-741.0709"/>
<text text-anchor="middle" x="443.09" y="-760.8" font-family="Times,serif" font-size="14.00" fill="#000000">FD</text>
</g>
<!-- #3 Identifier (y) &#45; (29) -->
<g id="node16" class="node">
<title>#3 Identifier (y) &#45; (29)</title>
<ellipse fill="none" stroke="#000000" cx="731.09" cy="-667" rx="89.8845" ry="18"/>
<text text-anchor="middle" x="731.09" y="-663.3" font-family="Times,serif" font-size="14.00" fill="#000000">#3 Identifier (y) &#45; (29)</text>
</g>
<!-- #2 Function (anon) &#45; (29)&#45;&gt;#3 Identifier (y) &#45; (29) -->
<g id="edge16" class="edge">
<title>#2 Function (anon) &#45; (29)&#45;&gt;#3 Identifier (y) &#45; (29)</title>
<path fill="none" stroke="#0000ff" d="M572.3826,-796.5114C613.5562,-787.0208 662.5142,-769.8575 697.09,-739 710.0787,-727.4081 718.5162,-709.7967 723.7371,-694.8937"/>
<polygon fill="#0000ff" stroke="#0000ff" points="727.1514,-695.7068 726.854,-685.1162 720.482,-693.5807 727.1514,-695.7068"/>
<text text-anchor="middle" x="693.09" y="-760.8" font-family="Times,serif" font-size="14.00" fill="#0000ff">param 1</text>
</g>
<!-- #22 BlockStatement (29) -->
<g id="node17" class="node">
<title>#22 BlockStatement (29)</title>
<ellipse fill="none" stroke="#000000" cx="588.09" cy="-721" rx="100.1823" ry="18"/>
<text text-anchor="middle" x="588.09" y="-717.3" font-family="Times,serif" font-size="14.00" fill="#000000">#22 BlockStatement (29)</text>
</g>
<!-- #2 Function (anon) &#45; (29)&#45;&gt;#22 BlockStatement (29) -->
<g id="edge17" class="edge">
<title>#2 Function (anon) &#45; (29)&#45;&gt;#22 BlockStatement (29)</title>
<path fill="none" stroke="#0000ff" d="M513.5668,-789.9735C527.3964,-777.1738 546.1349,-759.8308 561.3617,-745.7379"/>
<polygon fill="#0000ff" stroke="#0000ff" points="563.998,-748.0669 568.9597,-738.7057 559.2432,-742.9296 563.998,-748.0669"/>
<text text-anchor="middle" x="561.59" y="-760.8" font-family="Times,serif" font-size="14.00" fill="#0000ff">block</text>
</g>
<!-- #12» v1 = x.f -->
<g id="node18" class="node">
<title>#12» v1 = x.f</title>
<ellipse fill="none" stroke="#000000" cx="420.09" cy="-366" rx="59.5901" ry="18"/>
<text text-anchor="middle" x="420.09" y="-362.3" font-family="Times,serif" font-size="14.00" fill="#000000">#12» v1 = x.f</text>
</g>
<!-- #6» x.f = y; &#45; (31)&#45;&gt;#12» v1 = x.f -->
<g id="edge19" class="edge">
<title>#6» x.f = y; &#45; (31)&#45;&gt;#12» v1 = x.f</title>
<path fill="none" stroke="#ff0000" d="M327.9931,-521.9726C336.4796,-500.5937 351.8885,-464.1811 369.09,-435 377.8789,-420.0901 389.1953,-404.5011 398.9346,-391.9206"/>
<polygon fill="#ff0000" stroke="#ff0000" points="401.9409,-393.76 405.3747,-383.737 396.44,-389.431 401.9409,-393.76"/>
</g>
<!-- #38 x&#45;o5 -->
<g id="node19" class="node">
<title>#38 x&#45;o5</title>
<ellipse fill="none" stroke="#006400" cx="420.09" cy="-453" rx="42.4939" ry="18"/>
<text text-anchor="middle" x="420.09" y="-449.3" font-family="Times,serif" font-size="14.00" fill="#006400">#38 x&#45;o5</text>
</g>
<!-- #6» x.f = y; &#45; (31)&#45;&gt;#38 x&#45;o5 -->
<g id="edge20" class="edge">
<title>#6» x.f = y; &#45; (31)&#45;&gt;#38 x&#45;o5</title>
<path fill="none" stroke="#006400" d="M336.2774,-522.1543C345.3399,-511.9558 357.3399,-499.2058 369.09,-489 375.1308,-483.7531 381.9291,-478.5384 388.5454,-473.7737"/>
<polygon fill="#006400" stroke="#006400" points="390.5829,-476.6198 396.7582,-468.0106 386.562,-470.8898 390.5829,-476.6198"/>
<text text-anchor="middle" x="395.09" y="-492.8" font-family="Times,serif" font-size="14.00" fill="#006400">WRITE f</text>
</g>
<!-- #37 x&#45;o4&#45;&gt;#38 x&#45;o5 -->
<g id="edge21" class="edge">
<title>#37 x&#45;o4&#45;&gt;#38 x&#45;o5</title>
<path fill="none" stroke="#006400" d="M441.9234,-523.0576C437.508,-517.3458 433.0748,-510.7098 430.09,-504 426.9132,-496.8587 424.7413,-488.7109 423.258,-481.0553"/>
<polygon fill="#006400" stroke="#006400" points="426.6926,-480.3701 421.6324,-471.0618 419.7835,-481.494 426.6926,-480.3701"/>
<text text-anchor="middle" x="483.09" y="-492.8" font-family="Times,serif" font-size="14.00" fill="#006400">NEW_VERSION f</text>
</g>
<!-- #20 ReturnStatement (31) -->
<g id="node20" class="node">
<title>#20 ReturnStatement (31)</title>
<ellipse fill="none" stroke="#000000" cx="538.09" cy="-105" rx="102.8821" ry="18"/>
<text text-anchor="middle" x="538.09" y="-101.3" font-family="Times,serif" font-size="14.00" fill="#000000">#20 ReturnStatement (31)</text>
</g>
<!-- #39 v2&#45;o6&#45;&gt;#20 ReturnStatement (31) -->
<g id="edge22" class="edge">
<title>#39 v2&#45;o6&#45;&gt;#20 ReturnStatement (31)</title>
<path fill="none" stroke="#006400" d="M466.3468,-174.0321C468.9549,-163.5443 473.4777,-150.5418 481.09,-141 484.8776,-136.2523 489.4716,-131.9502 494.3896,-128.1081"/>
<polygon fill="#006400" stroke="#006400" points="496.7565,-130.7203 502.8867,-122.079 492.7057,-125.0113 496.7565,-130.7203"/>
<text text-anchor="middle" x="502.59" y="-144.8" font-family="Times,serif" font-size="14.00" fill="#006400">DEP v2</text>
</g>
<!-- #3 Identifier (y) &#45; (29)&#45;&gt;#36 y&#45;o3 -->
<g id="edge23" class="edge">
<title>#3 Identifier (y) &#45; (29)&#45;&gt;#36 y&#45;o3</title>
<path fill="none" stroke="#000000" stroke-dasharray="5,2" d="M719.9571,-649.0255C710.0413,-631.2767 697.09,-603.0188 697.09,-576.5 697.09,-576.5 697.09,-576.5 697.09,-366 697.09,-243.8651 548.0012,-332.337 431.09,-297 427.7893,-296.0024 424.3857,-294.9282 420.9737,-293.819"/>
<polygon fill="#000000" stroke="#000000" points="422.0084,-290.4746 411.4147,-290.6344 419.7958,-297.1157 422.0084,-290.4746"/>
</g>
<!-- #22 BlockStatement (29)&#45;&gt;#4» x = {} -->
<g id="edge24" class="edge">
<title>#22 BlockStatement (29)&#45;&gt;#4» x = {}</title>
<path fill="none" stroke="#0000ff" d="M556.8501,-703.8273C547.6073,-698.2525 537.6716,-691.7519 529.09,-685 511.1549,-670.889 492.9992,-652.7006 479.4062,-638.1354"/>
<polygon fill="#0000ff" stroke="#0000ff" points="481.699,-635.4579 472.3542,-630.4653 476.5459,-640.1957 481.699,-635.4579"/>
<text text-anchor="middle" x="532.59" y="-663.3" font-family="Times,serif" font-size="14.00" fill="#0000ff">1</text>
</g>
<!-- #22 BlockStatement (29)&#45;&gt;#6» x.f = y; &#45; (31) -->
<g id="edge25" class="edge">
<title>#22 BlockStatement (29)&#45;&gt;#6» x.f = y; &#45; (31)</title>
<path fill="none" stroke="#0000ff" d="M534.0406,-705.6775C491.5576,-691.5701 432.7913,-667.28 391.09,-631 369.5732,-612.2806 350.241,-586.0582 337.3732,-566.5682"/>
<polygon fill="#0000ff" stroke="#0000ff" points="340.2954,-564.6414 331.9312,-558.1381 334.4143,-568.4379 340.2954,-564.6414"/>
<text text-anchor="middle" x="394.59" y="-609.3" font-family="Times,serif" font-size="14.00" fill="#0000ff">2</text>
</g>
<!-- #22 BlockStatement (29)&#45;&gt;#12» v1 = x.f -->
<g id="edge26" class="edge">
<title>#22 BlockStatement (29)&#45;&gt;#12» v1 = x.f</title>
<path fill="none" stroke="#0000ff" d="M577.5048,-702.952C566.261,-682.04 550.09,-646.1942 550.09,-613 550.09,-613 550.09,-613 550.09,-453 550.09,-415.3925 512.05,-393.0142 477.1246,-380.3935"/>
<polygon fill="#0000ff" stroke="#0000ff" points="477.9851,-376.9895 467.3907,-377.088 475.7342,-383.6177 477.9851,-376.9895"/>
<text text-anchor="middle" x="553.59" y="-536.3" font-family="Times,serif" font-size="14.00" fill="#0000ff">3</text>
</g>
<!-- #22 BlockStatement (29)&#45;&gt;#20 ReturnStatement (31) -->
<g id="edge28" class="edge">
<title>#22 BlockStatement (29)&#45;&gt;#20 ReturnStatement (31)</title>
<path fill="none" stroke="#0000ff" d="M598.6751,-702.952C609.919,-682.04 626.09,-646.1942 626.09,-613 626.09,-613 626.09,-613 626.09,-192 626.09,-164.1871 603.5849,-142.2552 581.3367,-127.3691"/>
<polygon fill="#0000ff" stroke="#0000ff" points="583.1917,-124.401 572.8699,-122.0112 579.4485,-130.3162 583.1917,-124.401"/>
<text text-anchor="middle" x="629.59" y="-405.8" font-family="Times,serif" font-size="14.00" fill="#0000ff">5</text>
</g>
<!-- #16» v2 = eval(v1) -->
<g id="node21" class="node">
<title>#16» v2 = eval(v1)</title>
<ellipse fill="none" stroke="#000000" cx="519.09" cy="-279" rx="79.0865" ry="18"/>
<text text-anchor="middle" x="519.09" y="-275.3" font-family="Times,serif" font-size="14.00" fill="#000000">#16» v2 = eval(v1)</text>
</g>
<!-- #22 BlockStatement (29)&#45;&gt;#16» v2 = eval(v1) -->
<g id="edge27" class="edge">
<title>#22 BlockStatement (29)&#45;&gt;#16» v2 = eval(v1)</title>
<path fill="none" stroke="#0000ff" d="M588.09,-702.655C588.09,-681.168 588.09,-644.5 588.09,-613 588.09,-613 588.09,-613 588.09,-366 588.09,-340.7565 570.037,-318.5749 552.3994,-302.9275"/>
<polygon fill="#0000ff" stroke="#0000ff" points="554.3022,-299.9553 544.3912,-296.2104 549.8036,-305.3185 554.3022,-299.9553"/>
<text text-anchor="middle" x="591.59" y="-492.8" font-family="Times,serif" font-size="14.00" fill="#0000ff">4</text>
</g>
<!-- #12» v1 = x.f&#45;&gt;#36 y&#45;o3 -->
<g id="edge30" class="edge">
<title>#12» v1 = x.f&#45;&gt;#36 y&#45;o3</title>
<path fill="none" stroke="#000000" stroke-dasharray="5,2" d="M411.5947,-347.9735C405.8947,-335.8784 398.2828,-319.7263 391.8581,-306.0934"/>
<polygon fill="#000000" stroke="#000000" points="394.8631,-304.2595 387.434,-296.7057 388.531,-307.2436 394.8631,-304.2595"/>
<text text-anchor="middle" x="423.59" y="-318.8" font-family="Times,serif" font-size="14.00" fill="#000000">REF v1</text>
</g>
<!-- #12» v1 = x.f&#45;&gt;#16» v2 = eval(v1) -->
<g id="edge29" class="edge">
<title>#12» v1 = x.f&#45;&gt;#16» v2 = eval(v1)</title>
<path fill="none" stroke="#ff0000" d="M439.6492,-348.8116C454.4677,-335.7893 475.0205,-317.7277 491.5081,-303.2386"/>
<polygon fill="#ff0000" stroke="#ff0000" points="494.0313,-305.6807 499.2325,-296.4505 489.4104,-300.4226 494.0313,-305.6807"/>
</g>
<!-- #38 x&#45;o5&#45;&gt;#12» v1 = x.f -->
<g id="edge31" class="edge">
<title>#38 x&#45;o5&#45;&gt;#12» v1 = x.f</title>
<path fill="none" stroke="#006400" d="M420.09,-434.9735C420.09,-423.1918 420.09,-407.5607 420.09,-394.1581"/>
<polygon fill="#006400" stroke="#006400" points="423.5901,-394.0033 420.09,-384.0034 416.5901,-394.0034 423.5901,-394.0033"/>
<text text-anchor="middle" x="452.09" y="-405.8" font-family="Times,serif" font-size="14.00" fill="#006400">LOOKUP f</text>
</g>
<!-- #21 Identifier (v2) &#45; (31) -->
<g id="node22" class="node">
<title>#21 Identifier (v2) &#45; (31)</title>
<ellipse fill="none" stroke="#000000" cx="428.09" cy="-18" rx="98.5829" ry="18"/>
<text text-anchor="middle" x="428.09" y="-14.3" font-family="Times,serif" font-size="14.00" fill="#000000">#21 Identifier (v2) &#45; (31)</text>
</g>
<!-- #20 ReturnStatement (31)&#45;&gt;#21 Identifier (v2) &#45; (31) -->
<g id="edge32" class="edge">
<title>#20 ReturnStatement (31)&#45;&gt;#21 Identifier (v2) &#45; (31)</title>
<path fill="none" stroke="#0000ff" d="M515.8298,-87.3943C499.28,-74.3048 476.5118,-56.2973 458.3165,-41.9064"/>
<polygon fill="#0000ff" stroke="#0000ff" points="460.3316,-39.0378 450.317,-35.5796 455.9892,-44.5282 460.3316,-39.0378"/>
<text text-anchor="middle" x="515.09" y="-57.8" font-family="Times,serif" font-size="14.00" fill="#0000ff">argument</text>
</g>
<!-- #32 CFG_F_END 2_anon -->
<g id="node23" class="node">
<title>#32 CFG_F_END 2_anon</title>
<ellipse fill="none" stroke="#ff0000" cx="648.09" cy="-18" rx="103.1819" ry="18"/>
<text text-anchor="middle" x="648.09" y="-14.3" font-family="Times,serif" font-size="14.00" fill="#ff0000">#32 CFG_F_END 2_anon</text>
</g>
<!-- #20 ReturnStatement (31)&#45;&gt;#32 CFG_F_END 2_anon -->
<g id="edge33" class="edge">
<title>#20 ReturnStatement (31)&#45;&gt;#32 CFG_F_END 2_anon</title>
<path fill="none" stroke="#ff0000" d="M560.3501,-87.3943C576.9,-74.3048 599.6681,-56.2973 617.8635,-41.9064"/>
<polygon fill="#ff0000" stroke="#ff0000" points="620.1908,-44.5282 625.8629,-35.5796 615.8484,-39.0378 620.1908,-44.5282"/>
</g>
<!-- #16» v2 = eval(v1)&#45;&gt;#39 v2&#45;o6 -->
<g id="edge35" class="edge">
<title>#16» v2 = eval(v1)&#45;&gt;#39 v2&#45;o6</title>
<path fill="none" stroke="#000000" stroke-dasharray="5,2" d="M507.4867,-260.9735C499.5502,-248.6435 488.8999,-232.0975 480.0201,-218.3021"/>
<polygon fill="#000000" stroke="#000000" points="482.8423,-216.22 474.4867,-209.7057 476.9562,-220.0087 482.8423,-216.22"/>
</g>
<!-- #16» v2 = eval(v1)&#45;&gt;#20 ReturnStatement (31) -->
<g id="edge34" class="edge">
<title>#16» v2 = eval(v1)&#45;&gt;#20 ReturnStatement (31)</title>
<path fill="none" stroke="#ff0000" d="M521.0874,-260.7078C524.403,-230.3436 531.0662,-169.3226 534.9947,-133.3464"/>
<polygon fill="#ff0000" stroke="#ff0000" points="538.513,-133.368 536.1193,-123.0471 531.5544,-132.608 538.513,-133.368"/>
</g>
</g>
</svg>
