<?xml version="1.0" encoding="UTF-8" standalone="no"?>
<!DOCTYPE svg PUBLIC "-//W3C//DTD SVG 1.1//EN"
 "http://www.w3.org/Graphics/SVG/1.1/DTD/svg11.dtd">
<!-- Generated by graphviz version 2.40.1 (20161225.0304)
 -->
<!-- Title: G Pages: 1 -->
<svg width="480pt" height="479pt"
 viewBox="0.00 0.00 480.13 479.00" xmlns="http://www.w3.org/2000/svg" xmlns:xlink="http://www.w3.org/1999/xlink">
<g id="graph0" class="graph" transform="scale(1 1) rotate(0) translate(4 475)">
<title>G</title>
<polygon fill="#ffffff" stroke="transparent" points="-4,4 -4,-475 476.1344,-475 476.1344,4 -4,4"/>
<!-- #0 Program -->
<g id="node1" class="node">
<title>#0 Program</title>
<ellipse fill="none" stroke="#000000" cx="338.594" cy="-453" rx="52.7911" ry="18"/>
<text text-anchor="middle" x="338.594" y="-449.3" font-family="Times,serif" font-size="14.00" fill="#000000">#0 Program</text>
</g>
<!-- #1 Variable (v1) -->
<g id="node2" class="node">
<title>#1 Variable (v1)</title>
<ellipse fill="none" stroke="#000000" cx="215.594" cy="-366" rx="69.5877" ry="18"/>
<text text-anchor="middle" x="215.594" y="-362.3" font-family="Times,serif" font-size="14.00" fill="#000000">#1 Variable (v1)</text>
</g>
<!-- #0 Program&#45;&gt;#1 Variable (v1) -->
<g id="edge1" class="edge">
<title>#0 Program&#45;&gt;#1 Variable (v1)</title>
<path fill="none" stroke="#0000ff" d="M315.4586,-436.636C296.4981,-423.2248 269.4372,-404.0842 248.2665,-389.1098"/>
<polygon fill="#0000ff" stroke="#0000ff" points="250.0733,-386.1008 239.888,-383.1835 246.031,-391.8157 250.0733,-386.1008"/>
<text text-anchor="middle" x="287.094" y="-405.8" font-family="Times,serif" font-size="14.00" fill="#0000ff">1</text>
</g>
<!-- #4 Variable (v1) -->
<g id="node3" class="node">
<title>#4 Variable (v1)</title>
<ellipse fill="none" stroke="#000000" cx="300.594" cy="-192" rx="69.5877" ry="18"/>
<text text-anchor="middle" x="300.594" y="-188.3" font-family="Times,serif" font-size="14.00" fill="#000000">#4 Variable (v1)</text>
</g>
<!-- #0 Program&#45;&gt;#4 Variable (v1) -->
<g id="edge2" class="edge">
<title>#0 Program&#45;&gt;#4 Variable (v1)</title>
<path fill="none" stroke="#0000ff" d="M339.4803,-434.7617C340.849,-395.8754 341.3571,-302.3014 319.594,-228 318.728,-225.0434 317.606,-222.0499 316.3403,-219.1176"/>
<polygon fill="#0000ff" stroke="#0000ff" points="319.4663,-217.5425 311.945,-210.0806 313.1713,-220.6042 319.4663,-217.5425"/>
<text text-anchor="middle" x="340.094" y="-318.8" font-family="Times,serif" font-size="14.00" fill="#0000ff">2</text>
</g>
<!-- #1 Variable (v1)&#45;&gt;#4 Variable (v1) -->
<g id="edge5" class="edge">
<title>#1 Variable (v1)&#45;&gt;#4 Variable (v1)</title>
<path fill="none" stroke="#ff0000" d="M259.7835,-352.0482C270.1245,-346.7394 280.0264,-339.5728 286.594,-330 308.7982,-297.6358 308.4041,-250.5455 305.1864,-220.5983"/>
<polygon fill="#ff0000" stroke="#ff0000" points="308.6248,-219.8876 303.9098,-210.3998 301.679,-220.7571 308.6248,-219.8876"/>
</g>
<!-- #2 CallExpression -->
<g id="node5" class="node">
<title>#2 CallExpression</title>
<ellipse fill="none" stroke="#000000" cx="85.594" cy="-279" rx="75.2868" ry="18"/>
<text text-anchor="middle" x="85.594" y="-275.3" font-family="Times,serif" font-size="14.00" fill="#000000">#2 CallExpression</text>
</g>
<!-- #1 Variable (v1)&#45;&gt;#2 CallExpression -->
<g id="edge4" class="edge">
<title>#1 Variable (v1)&#45;&gt;#2 CallExpression</title>
<path fill="none" stroke="#0000ff" d="M190.2201,-349.019C170.1286,-335.5731 141.869,-316.661 119.7834,-301.8806"/>
<polygon fill="#0000ff" stroke="#0000ff" points="121.6055,-298.8886 111.3482,-296.2355 117.7123,-304.706 121.6055,-298.8886"/>
<text text-anchor="middle" x="168.094" y="-318.8" font-family="Times,serif" font-size="14.00" fill="#0000ff">init</text>
</g>
<!-- #10 v1&#45;o1 -->
<g id="node6" class="node">
<title>#10 v1&#45;o1</title>
<ellipse fill="none" stroke="#006400" cx="225.594" cy="-279" rx="46.5926" ry="18"/>
<text text-anchor="middle" x="225.594" y="-275.3" font-family="Times,serif" font-size="14.00" fill="#006400">#10 v1&#45;o1</text>
</g>
<!-- #1 Variable (v1)&#45;&gt;#10 v1&#45;o1 -->
<g id="edge6" class="edge">
<title>#1 Variable (v1)&#45;&gt;#10 v1&#45;o1</title>
<path fill="none" stroke="#006400" d="M214.9621,-347.9873C214.8656,-338.1911 215.1455,-325.8853 216.594,-315 216.936,-312.4296 217.393,-309.7776 217.9203,-307.1331"/>
<polygon fill="#006400" stroke="#006400" points="221.3835,-307.6894 220.2082,-297.16 214.5607,-306.1242 221.3835,-307.6894"/>
<text text-anchor="middle" x="251.594" y="-318.8" font-family="Times,serif" font-size="14.00" fill="#006400">CREATE v1</text>
</g>
<!-- #5 MemberExpression -->
<g id="node7" class="node">
<title>#5 MemberExpression</title>
<ellipse fill="none" stroke="#000000" cx="145.594" cy="-105" rx="91.784" ry="18"/>
<text text-anchor="middle" x="145.594" y="-101.3" font-family="Times,serif" font-size="14.00" fill="#000000">#5 MemberExpression</text>
</g>
<!-- #4 Variable (v1)&#45;&gt;#5 MemberExpression -->
<g id="edge7" class="edge">
<title>#4 Variable (v1)&#45;&gt;#5 MemberExpression</title>
<path fill="none" stroke="#0000ff" d="M271.4397,-175.636C246.9365,-161.8826 211.698,-142.1035 184.739,-126.9717"/>
<polygon fill="#0000ff" stroke="#0000ff" points="186.3746,-123.8761 175.9412,-122.0336 182.9483,-129.9803 186.3746,-123.8761"/>
<text text-anchor="middle" x="241.094" y="-144.8" font-family="Times,serif" font-size="14.00" fill="#0000ff">init</text>
</g>
<!-- #9 CFG_F_END __main__ -->
<g id="node8" class="node">
<title>#9 CFG_F_END __main__</title>
<ellipse fill="none" stroke="#ff0000" cx="363.594" cy="-105" rx="108.5808" ry="18"/>
<text text-anchor="middle" x="363.594" y="-101.3" font-family="Times,serif" font-size="14.00" fill="#ff0000">#9 CFG_F_END __main__</text>
</g>
<!-- #4 Variable (v1)&#45;&gt;#9 CFG_F_END __main__ -->
<g id="edge8" class="edge">
<title>#4 Variable (v1)&#45;&gt;#9 CFG_F_END __main__</title>
<path fill="none" stroke="#ff0000" d="M313.6476,-173.9735C322.6016,-161.6085 334.6259,-145.0036 344.6327,-131.1847"/>
<polygon fill="#ff0000" stroke="#ff0000" points="347.5267,-133.1556 350.5571,-123.0034 341.8571,-129.05 347.5267,-133.1556"/>
</g>
<!-- #8 CFG_F_START __main__ -->
<g id="node4" class="node">
<title>#8 CFG_F_START __main__</title>
<ellipse fill="none" stroke="#ff0000" cx="149.594" cy="-453" rx="118.0794" ry="18"/>
<text text-anchor="middle" x="149.594" y="-449.3" font-family="Times,serif" font-size="14.00" fill="#ff0000">#8 CFG_F_START __main__</text>
</g>
<!-- #8 CFG_F_START __main__&#45;&gt;#1 Variable (v1) -->
<g id="edge3" class="edge">
<title>#8 CFG_F_START __main__&#45;&gt;#1 Variable (v1)</title>
<path fill="none" stroke="#ff0000" d="M163.2692,-434.9735C172.7121,-422.5261 185.4146,-405.782 195.9391,-391.9087"/>
<polygon fill="#ff0000" stroke="#ff0000" points="198.9066,-393.788 202.1621,-383.7057 193.3298,-389.5573 198.9066,-393.788"/>
</g>
<!-- #3 Identifier (f) -->
<g id="node9" class="node">
<title>#3 Identifier (f)</title>
<ellipse fill="none" stroke="#000000" cx="85.594" cy="-192" rx="65.7887" ry="18"/>
<text text-anchor="middle" x="85.594" y="-188.3" font-family="Times,serif" font-size="14.00" fill="#000000">#3 Identifier (f)</text>
</g>
<!-- #2 CallExpression&#45;&gt;#3 Identifier (f) -->
<g id="edge9" class="edge">
<title>#2 CallExpression&#45;&gt;#3 Identifier (f)</title>
<path fill="none" stroke="#0000ff" d="M85.594,-260.9735C85.594,-249.1918 85.594,-233.5607 85.594,-220.1581"/>
<polygon fill="#0000ff" stroke="#0000ff" points="89.0941,-220.0033 85.594,-210.0034 82.0941,-220.0034 89.0941,-220.0033"/>
<text text-anchor="middle" x="101.594" y="-231.8" font-family="Times,serif" font-size="14.00" fill="#0000ff">callee</text>
</g>
<!-- #10 v1&#45;o1&#45;&gt;#4 Variable (v1) -->
<g id="edge10" class="edge">
<title>#10 v1&#45;o1&#45;&gt;#4 Variable (v1)</title>
<path fill="none" stroke="#006400" d="M227.5845,-260.9954C229.5014,-250.4947 233.2548,-237.4914 240.594,-228 244.8877,-222.4472 250.2997,-217.5671 256.1066,-213.3388"/>
<polygon fill="#006400" stroke="#006400" points="258.3843,-216.0298 264.8126,-207.6079 254.5354,-210.1829 258.3843,-216.0298"/>
<text text-anchor="middle" x="263.594" y="-231.8" font-family="Times,serif" font-size="14.00" fill="#006400">VAR v1</text>
</g>
<!-- #6 Identifier (x) -->
<g id="node10" class="node">
<title>#6 Identifier (x)</title>
<ellipse fill="none" stroke="#000000" cx="67.594" cy="-18" rx="67.6881" ry="18"/>
<text text-anchor="middle" x="67.594" y="-14.3" font-family="Times,serif" font-size="14.00" fill="#000000">#6 Identifier (x)</text>
</g>
<!-- #5 MemberExpression&#45;&gt;#6 Identifier (x) -->
<g id="edge11" class="edge">
<title>#5 MemberExpression&#45;&gt;#6 Identifier (x)</title>
<path fill="none" stroke="#0000ff" d="M129.4324,-86.9735C118.1673,-74.4087 102.977,-57.4657 90.4712,-43.5168"/>
<polygon fill="#0000ff" stroke="#0000ff" points="92.7496,-40.815 83.4681,-35.7057 87.5376,-45.4878 92.7496,-40.815"/>
<text text-anchor="middle" x="128.594" y="-57.8" font-family="Times,serif" font-size="14.00" fill="#0000ff">object</text>
</g>
<!-- #7 Identifier (v1) -->
<g id="node11" class="node">
<title>#7 Identifier (v1)</title>
<ellipse fill="none" stroke="#000000" cx="224.594" cy="-18" rx="71.4873" ry="18"/>
<text text-anchor="middle" x="224.594" y="-14.3" font-family="Times,serif" font-size="14.00" fill="#000000">#7 Identifier (v1)</text>
</g>
<!-- #5 MemberExpression&#45;&gt;#7 Identifier (v1) -->
<g id="edge12" class="edge">
<title>#5 MemberExpression&#45;&gt;#7 Identifier (v1)</title>
<path fill="none" stroke="#0000ff" d="M161.9629,-86.9735C173.479,-74.2912 189.0453,-57.1486 201.7779,-43.1265"/>
<polygon fill="#0000ff" stroke="#0000ff" points="204.385,-45.4619 208.5164,-35.7057 199.2027,-40.7561 204.385,-45.4619"/>
<text text-anchor="middle" x="213.594" y="-57.8" font-family="Times,serif" font-size="14.00" fill="#0000ff">property</text>
</g>
</g>
</svg>
