<?xml version="1.0" encoding="UTF-8" standalone="no"?>
<!DOCTYPE svg PUBLIC "-//W3C//DTD SVG 1.1//EN"
 "http://www.w3.org/Graphics/SVG/1.1/DTD/svg11.dtd">
<!-- Generated by graphviz version 2.40.1 (20161225.0304)
 -->
<!-- Title: G Pages: 1 -->
<svg width="1411pt" height="653pt"
 viewBox="0.00 0.00 1411.14 653.00" xmlns="http://www.w3.org/2000/svg" xmlns:xlink="http://www.w3.org/1999/xlink">
<g id="graph0" class="graph" transform="scale(1 1) rotate(0) translate(4 649)">
<title>G</title>
<polygon fill="#ffffff" stroke="transparent" points="-4,4 -4,-649 1407.1355,-649 1407.1355,4 -4,4"/>
<!-- #0 Program -->
<g id="node1" class="node">
<title>#0 Program</title>
<ellipse fill="none" stroke="#000000" cx="733.4937" cy="-627" rx="52.7911" ry="18"/>
<text text-anchor="middle" x="733.4937" y="-623.3" font-family="Times,serif" font-size="14.00" fill="#000000">#0 Program</text>
</g>
<!-- #1 ExpressionStatement -->
<g id="node2" class="node">
<title>#1 ExpressionStatement</title>
<ellipse fill="none" stroke="#000000" cx="934.4937" cy="-540" rx="96.6831" ry="18"/>
<text text-anchor="middle" x="934.4937" y="-536.3" font-family="Times,serif" font-size="14.00" fill="#000000">#1 ExpressionStatement</text>
</g>
<!-- #0 Program&#45;&gt;#1 ExpressionStatement -->
<g id="edge1" class="edge">
<title>#0 Program&#45;&gt;#1 ExpressionStatement</title>
<path fill="none" stroke="#0000ff" d="M766.2351,-612.8283C798.9124,-598.6844 849.4788,-576.7975 886.6511,-560.708"/>
<polygon fill="#0000ff" stroke="#0000ff" points="888.4863,-563.7275 896.2732,-556.5432 885.7057,-557.3034 888.4863,-563.7275"/>
<text text-anchor="middle" x="849.9937" y="-579.8" font-family="Times,serif" font-size="14.00" fill="#0000ff">1</text>
</g>
<!-- #5 ExpressionStatement -->
<g id="node3" class="node">
<title>#5 ExpressionStatement</title>
<ellipse fill="none" stroke="#000000" cx="867.4937" cy="-453" rx="96.6831" ry="18"/>
<text text-anchor="middle" x="867.4937" y="-449.3" font-family="Times,serif" font-size="14.00" fill="#000000">#5 ExpressionStatement</text>
</g>
<!-- #0 Program&#45;&gt;#5 ExpressionStatement -->
<g id="edge2" class="edge">
<title>#0 Program&#45;&gt;#5 ExpressionStatement</title>
<path fill="none" stroke="#0000ff" d="M747.0797,-609.3584C770.795,-578.5639 819.8464,-514.8703 847.4659,-479.0062"/>
<polygon fill="#0000ff" stroke="#0000ff" points="850.3427,-481.007 853.6712,-470.9485 844.7967,-476.7359 850.3427,-481.007"/>
<text text-anchor="middle" x="817.9937" y="-536.3" font-family="Times,serif" font-size="14.00" fill="#0000ff">2</text>
</g>
<!-- #11 ExpressionStatement -->
<g id="node4" class="node">
<title>#11 ExpressionStatement</title>
<ellipse fill="none" stroke="#000000" cx="699.4937" cy="-366" rx="100.9827" ry="18"/>
<text text-anchor="middle" x="699.4937" y="-362.3" font-family="Times,serif" font-size="14.00" fill="#000000">#11 ExpressionStatement</text>
</g>
<!-- #0 Program&#45;&gt;#11 ExpressionStatement -->
<g id="edge3" class="edge">
<title>#0 Program&#45;&gt;#11 ExpressionStatement</title>
<path fill="none" stroke="#0000ff" d="M731.1028,-608.647C725.2625,-563.8139 710.2357,-448.4607 703.2136,-394.5557"/>
<polygon fill="#0000ff" stroke="#0000ff" points="706.6444,-393.7968 701.8818,-384.3327 699.703,-394.7011 706.6444,-393.7968"/>
<text text-anchor="middle" x="720.9937" y="-492.8" font-family="Times,serif" font-size="14.00" fill="#0000ff">3</text>
</g>
<!-- #17 ExpressionStatement -->
<g id="node5" class="node">
<title>#17 ExpressionStatement</title>
<ellipse fill="none" stroke="#000000" cx="403.4937" cy="-279" rx="100.9827" ry="18"/>
<text text-anchor="middle" x="403.4937" y="-275.3" font-family="Times,serif" font-size="14.00" fill="#000000">#17 ExpressionStatement</text>
</g>
<!-- #0 Program&#45;&gt;#17 ExpressionStatement -->
<g id="edge4" class="edge">
<title>#0 Program&#45;&gt;#17 ExpressionStatement</title>
<path fill="none" stroke="#0000ff" d="M682.932,-621.8139C602.0303,-612.0967 452.4937,-587.6861 452.4937,-540 452.4937,-540 452.4937,-540 452.4937,-366 452.4937,-343.4143 439.8016,-321.2834 427.3365,-304.9944"/>
<polygon fill="#0000ff" stroke="#0000ff" points="429.9145,-302.6159 420.9072,-297.0374 424.4697,-307.0154 429.9145,-302.6159"/>
<text text-anchor="middle" x="455.9937" y="-449.3" font-family="Times,serif" font-size="14.00" fill="#0000ff">4</text>
</g>
<!-- #1 ExpressionStatement&#45;&gt;#5 ExpressionStatement -->
<g id="edge7" class="edge">
<title>#1 ExpressionStatement&#45;&gt;#5 ExpressionStatement</title>
<path fill="none" stroke="#ff0000" d="M920.6112,-521.9735C911.0887,-509.6085 898.301,-493.0036 887.6589,-479.1847"/>
<polygon fill="#ff0000" stroke="#ff0000" points="890.2329,-476.7907 881.3583,-471.0034 884.6869,-481.0618 890.2329,-476.7907"/>
</g>
<!-- #2 AssignmentExpression -->
<g id="node7" class="node">
<title>#2 AssignmentExpression</title>
<ellipse fill="none" stroke="#000000" cx="1098.4937" cy="-453" rx="103.1819" ry="18"/>
<text text-anchor="middle" x="1098.4937" y="-449.3" font-family="Times,serif" font-size="14.00" fill="#000000">#2 AssignmentExpression</text>
</g>
<!-- #1 ExpressionStatement&#45;&gt;#2 AssignmentExpression -->
<g id="edge6" class="edge">
<title>#1 ExpressionStatement&#45;&gt;#2 AssignmentExpression</title>
<path fill="none" stroke="#0000ff" d="M966.8948,-522.8116C992.7262,-509.1084 1029.0761,-489.8252 1057.0293,-474.9963"/>
<polygon fill="#0000ff" stroke="#0000ff" points="1058.9661,-477.9309 1066.1598,-470.1527 1055.6857,-471.7472 1058.9661,-477.9309"/>
<text text-anchor="middle" x="1054.4937" y="-492.8" font-family="Times,serif" font-size="14.00" fill="#0000ff">expression</text>
</g>
<!-- #25 PDG_OBJECT o1 -->
<g id="node8" class="node">
<title>#25 PDG_OBJECT o1</title>
<ellipse fill="none" stroke="#006400" cx="1311.4937" cy="-453" rx="91.784" ry="18"/>
<text text-anchor="middle" x="1311.4937" y="-449.3" font-family="Times,serif" font-size="14.00" fill="#006400">#25 PDG_OBJECT o1</text>
</g>
<!-- #1 ExpressionStatement&#45;&gt;#25 PDG_OBJECT o1 -->
<g id="edge8" class="edge">
<title>#1 ExpressionStatement&#45;&gt;#25 PDG_OBJECT o1</title>
<path fill="none" stroke="#006400" d="M995.4842,-525.9253C1062.8192,-510.3864 1171.0193,-485.4171 1241.6905,-469.1084"/>
<polygon fill="#006400" stroke="#006400" points="1242.8789,-472.4263 1251.8357,-466.7672 1241.3048,-465.6055 1242.8789,-472.4263"/>
<text text-anchor="middle" x="1180.4937" y="-492.8" font-family="Times,serif" font-size="14.00" fill="#006400">CREATE o1</text>
</g>
<!-- #5 ExpressionStatement&#45;&gt;#11 ExpressionStatement -->
<g id="edge10" class="edge">
<title>#5 ExpressionStatement&#45;&gt;#11 ExpressionStatement</title>
<path fill="none" stroke="#ff0000" d="M834.7027,-436.019C808.0777,-422.231 770.3531,-402.6951 741.5142,-387.7607"/>
<polygon fill="#ff0000" stroke="#ff0000" points="742.978,-384.5772 732.4885,-383.0866 739.759,-390.7932 742.978,-384.5772"/>
</g>
<!-- #6 AssignmentExpression -->
<g id="node9" class="node">
<title>#6 AssignmentExpression</title>
<ellipse fill="none" stroke="#000000" cx="921.4937" cy="-366" rx="103.1819" ry="18"/>
<text text-anchor="middle" x="921.4937" y="-362.3" font-family="Times,serif" font-size="14.00" fill="#000000">#6 AssignmentExpression</text>
</g>
<!-- #5 ExpressionStatement&#45;&gt;#6 AssignmentExpression -->
<g id="edge9" class="edge">
<title>#5 ExpressionStatement&#45;&gt;#6 AssignmentExpression</title>
<path fill="none" stroke="#0000ff" d="M878.6825,-434.9735C886.2849,-422.7252 896.4696,-406.3165 904.9979,-392.5766"/>
<polygon fill="#0000ff" stroke="#0000ff" points="908.0192,-394.3456 910.3192,-384.0034 902.0717,-390.654 908.0192,-394.3456"/>
<text text-anchor="middle" x="927.4937" y="-405.8" font-family="Times,serif" font-size="14.00" fill="#0000ff">expression</text>
</g>
<!-- #11 ExpressionStatement&#45;&gt;#17 ExpressionStatement -->
<g id="edge12" class="edge">
<title>#11 ExpressionStatement&#45;&gt;#17 ExpressionStatement</title>
<path fill="none" stroke="#ff0000" d="M646.9159,-350.5464C596.2436,-335.6529 519.5555,-313.1128 465.8321,-297.3224"/>
<polygon fill="#ff0000" stroke="#ff0000" points="466.6606,-293.918 456.0794,-294.456 464.6866,-300.6339 466.6606,-293.918"/>
</g>
<!-- #12 AssignmentExpression -->
<g id="node10" class="node">
<title>#12 AssignmentExpression</title>
<ellipse fill="none" stroke="#000000" cx="699.4937" cy="-279" rx="107.781" ry="18"/>
<text text-anchor="middle" x="699.4937" y="-275.3" font-family="Times,serif" font-size="14.00" fill="#000000">#12 AssignmentExpression</text>
</g>
<!-- #11 ExpressionStatement&#45;&gt;#12 AssignmentExpression -->
<g id="edge11" class="edge">
<title>#11 ExpressionStatement&#45;&gt;#12 AssignmentExpression</title>
<path fill="none" stroke="#0000ff" d="M699.4937,-347.9735C699.4937,-336.1918 699.4937,-320.5607 699.4937,-307.1581"/>
<polygon fill="#0000ff" stroke="#0000ff" points="702.9938,-307.0033 699.4937,-297.0034 695.9938,-307.0034 702.9938,-307.0033"/>
<text text-anchor="middle" x="728.4937" y="-318.8" font-family="Times,serif" font-size="14.00" fill="#0000ff">expression</text>
</g>
<!-- #18 AssignmentExpression -->
<g id="node11" class="node">
<title>#18 AssignmentExpression</title>
<ellipse fill="none" stroke="#000000" cx="155.4937" cy="-192" rx="107.781" ry="18"/>
<text text-anchor="middle" x="155.4937" y="-188.3" font-family="Times,serif" font-size="14.00" fill="#000000">#18 AssignmentExpression</text>
</g>
<!-- #17 ExpressionStatement&#45;&gt;#18 AssignmentExpression -->
<g id="edge13" class="edge">
<title>#17 ExpressionStatement&#45;&gt;#18 AssignmentExpression</title>
<path fill="none" stroke="#0000ff" d="M357.7176,-262.9415C316.384,-248.4414 255.4508,-227.0656 211.2811,-211.5706"/>
<polygon fill="#0000ff" stroke="#0000ff" points="212.4382,-208.2675 201.8434,-208.2598 210.121,-214.8728 212.4382,-208.2675"/>
<text text-anchor="middle" x="323.4937" y="-231.8" font-family="Times,serif" font-size="14.00" fill="#0000ff">expression</text>
</g>
<!-- #24 CFG_F_END __main__ -->
<g id="node12" class="node">
<title>#24 CFG_F_END __main__</title>
<ellipse fill="none" stroke="#ff0000" cx="394.4937" cy="-192" rx="113.18" ry="18"/>
<text text-anchor="middle" x="394.4937" y="-188.3" font-family="Times,serif" font-size="14.00" fill="#ff0000">#24 CFG_F_END __main__</text>
</g>
<!-- #17 ExpressionStatement&#45;&gt;#24 CFG_F_END __main__ -->
<g id="edge14" class="edge">
<title>#17 ExpressionStatement&#45;&gt;#24 CFG_F_END __main__</title>
<path fill="none" stroke="#ff0000" d="M401.6289,-260.9735C400.41,-249.1918 398.793,-233.5607 397.4066,-220.1581"/>
<polygon fill="#ff0000" stroke="#ff0000" points="400.8666,-219.5901 396.3561,-210.0034 393.9037,-220.3105 400.8666,-219.5901"/>
</g>
<!-- #23 CFG_F_START __main__ -->
<g id="node6" class="node">
<title>#23 CFG_F_START __main__</title>
<ellipse fill="none" stroke="#ff0000" cx="934.4937" cy="-627" rx="122.6784" ry="18"/>
<text text-anchor="middle" x="934.4937" y="-623.3" font-family="Times,serif" font-size="14.00" fill="#ff0000">#23 CFG_F_START __main__</text>
</g>
<!-- #23 CFG_F_START __main__&#45;&gt;#1 ExpressionStatement -->
<g id="edge5" class="edge">
<title>#23 CFG_F_START __main__&#45;&gt;#1 ExpressionStatement</title>
<path fill="none" stroke="#ff0000" d="M934.4937,-608.9735C934.4937,-597.1918 934.4937,-581.5607 934.4937,-568.1581"/>
<polygon fill="#ff0000" stroke="#ff0000" points="937.9938,-568.0033 934.4937,-558.0034 930.9938,-568.0034 937.9938,-568.0033"/>
</g>
<!-- #3 Identifier (x) -->
<g id="node13" class="node">
<title>#3 Identifier (x)</title>
<ellipse fill="none" stroke="#000000" cx="1110.4937" cy="-366" rx="67.6881" ry="18"/>
<text text-anchor="middle" x="1110.4937" y="-362.3" font-family="Times,serif" font-size="14.00" fill="#000000">#3 Identifier (x)</text>
</g>
<!-- #2 AssignmentExpression&#45;&gt;#3 Identifier (x) -->
<g id="edge15" class="edge">
<title>#2 AssignmentExpression&#45;&gt;#3 Identifier (x)</title>
<path fill="none" stroke="#0000ff" d="M1100.9801,-434.9735C1102.6051,-423.1918 1104.7612,-407.5607 1106.6098,-394.1581"/>
<polygon fill="#0000ff" stroke="#0000ff" points="1110.1111,-394.3878 1108.0104,-384.0034 1103.1768,-393.4313 1110.1111,-394.3878"/>
<text text-anchor="middle" x="1113.9937" y="-405.8" font-family="Times,serif" font-size="14.00" fill="#0000ff">left</text>
</g>
<!-- #4 ObjectExpression -->
<g id="node14" class="node">
<title>#4 ObjectExpression</title>
<ellipse fill="none" stroke="#000000" cx="1280.4937" cy="-366" rx="84.485" ry="18"/>
<text text-anchor="middle" x="1280.4937" y="-362.3" font-family="Times,serif" font-size="14.00" fill="#000000">#4 ObjectExpression</text>
</g>
<!-- #2 AssignmentExpression&#45;&gt;#4 ObjectExpression -->
<g id="edge16" class="edge">
<title>#2 AssignmentExpression&#45;&gt;#4 ObjectExpression</title>
<path fill="none" stroke="#0000ff" d="M1134.0171,-436.019C1163.3608,-421.9921 1205.1493,-402.0162 1236.5869,-386.9884"/>
<polygon fill="#0000ff" stroke="#0000ff" points="1238.4731,-389.9661 1245.9858,-382.4955 1235.4541,-383.6506 1238.4731,-389.9661"/>
<text text-anchor="middle" x="1212.4937" y="-405.8" font-family="Times,serif" font-size="14.00" fill="#0000ff">right</text>
</g>
<!-- #7 MemberExpression -->
<g id="node15" class="node">
<title>#7 MemberExpression</title>
<ellipse fill="none" stroke="#000000" cx="972.4937" cy="-279" rx="91.784" ry="18"/>
<text text-anchor="middle" x="972.4937" y="-275.3" font-family="Times,serif" font-size="14.00" fill="#000000">#7 MemberExpression</text>
</g>
<!-- #6 AssignmentExpression&#45;&gt;#7 MemberExpression -->
<g id="edge17" class="edge">
<title>#6 AssignmentExpression&#45;&gt;#7 MemberExpression</title>
<path fill="none" stroke="#0000ff" d="M932.0609,-347.9735C939.1726,-335.8418 948.6768,-319.6287 956.6837,-305.9698"/>
<polygon fill="#0000ff" stroke="#0000ff" points="959.9022,-307.4004 961.94,-297.0034 953.8633,-303.8603 959.9022,-307.4004"/>
<text text-anchor="middle" x="958.9937" y="-318.8" font-family="Times,serif" font-size="14.00" fill="#0000ff">left</text>
</g>
<!-- #10 Literal -->
<g id="node16" class="node">
<title>#10 Literal</title>
<ellipse fill="none" stroke="#000000" cx="1132.4937" cy="-279" rx="50.0912" ry="18"/>
<text text-anchor="middle" x="1132.4937" y="-275.3" font-family="Times,serif" font-size="14.00" fill="#000000">#10 Literal</text>
</g>
<!-- #6 AssignmentExpression&#45;&gt;#10 Literal -->
<g id="edge18" class="edge">
<title>#6 AssignmentExpression&#45;&gt;#10 Literal</title>
<path fill="none" stroke="#0000ff" d="M962.1766,-349.2255C998.8934,-334.0864 1052.7114,-311.896 1089.9825,-296.5283"/>
<polygon fill="#0000ff" stroke="#0000ff" points="1091.6431,-299.6295 1099.5539,-292.5818 1088.9747,-293.158 1091.6431,-299.6295"/>
<text text-anchor="middle" x="1052.4937" y="-318.8" font-family="Times,serif" font-size="14.00" fill="#0000ff">right</text>
</g>
<!-- #13 Identifier (aux) -->
<g id="node17" class="node">
<title>#13 Identifier (aux)</title>
<ellipse fill="none" stroke="#000000" cx="605.4937" cy="-192" rx="79.8859" ry="18"/>
<text text-anchor="middle" x="605.4937" y="-188.3" font-family="Times,serif" font-size="14.00" fill="#000000">#13 Identifier (aux)</text>
</g>
<!-- #12 AssignmentExpression&#45;&gt;#13 Identifier (aux) -->
<g id="edge19" class="edge">
<title>#12 AssignmentExpression&#45;&gt;#13 Identifier (aux)</title>
<path fill="none" stroke="#0000ff" d="M680.0168,-260.9735C666.1872,-248.1738 647.4487,-230.8308 632.2219,-216.7379"/>
<polygon fill="#0000ff" stroke="#0000ff" points="634.3404,-213.9296 624.6239,-209.7057 629.5856,-219.0669 634.3404,-213.9296"/>
<text text-anchor="middle" x="667.9937" y="-231.8" font-family="Times,serif" font-size="14.00" fill="#0000ff">left</text>
</g>
<!-- #14 MemberExpression -->
<g id="node18" class="node">
<title>#14 MemberExpression</title>
<ellipse fill="none" stroke="#000000" cx="799.4937" cy="-192" rx="96.3833" ry="18"/>
<text text-anchor="middle" x="799.4937" y="-188.3" font-family="Times,serif" font-size="14.00" fill="#000000">#14 MemberExpression</text>
</g>
<!-- #12 AssignmentExpression&#45;&gt;#14 MemberExpression -->
<g id="edge20" class="edge">
<title>#12 AssignmentExpression&#45;&gt;#14 MemberExpression</title>
<path fill="none" stroke="#0000ff" d="M720.2137,-260.9735C735.061,-248.0564 755.2268,-230.5122 771.5042,-216.3508"/>
<polygon fill="#0000ff" stroke="#0000ff" points="773.8951,-218.9099 779.1423,-209.7057 769.3005,-213.6288 773.8951,-218.9099"/>
<text text-anchor="middle" x="768.4937" y="-231.8" font-family="Times,serif" font-size="14.00" fill="#0000ff">right</text>
</g>
<!-- #19 Identifier (y) -->
<g id="node19" class="node">
<title>#19 Identifier (y)</title>
<ellipse fill="none" stroke="#000000" cx="71.4937" cy="-105" rx="71.4873" ry="18"/>
<text text-anchor="middle" x="71.4937" y="-101.3" font-family="Times,serif" font-size="14.00" fill="#000000">#19 Identifier (y)</text>
</g>
<!-- #18 AssignmentExpression&#45;&gt;#19 Identifier (y) -->
<g id="edge21" class="edge">
<title>#18 AssignmentExpression&#45;&gt;#19 Identifier (y)</title>
<path fill="none" stroke="#0000ff" d="M138.0888,-173.9735C125.8438,-161.2912 109.2923,-144.1486 95.7538,-130.1265"/>
<polygon fill="#0000ff" stroke="#0000ff" points="98.0527,-127.4686 88.5888,-122.7057 93.0169,-132.3308 98.0527,-127.4686"/>
<text text-anchor="middle" x="128.9937" y="-144.8" font-family="Times,serif" font-size="14.00" fill="#0000ff">left</text>
</g>
<!-- #20 CallExpression -->
<g id="node20" class="node">
<title>#20 CallExpression</title>
<ellipse fill="none" stroke="#000000" cx="240.4937" cy="-105" rx="79.8859" ry="18"/>
<text text-anchor="middle" x="240.4937" y="-101.3" font-family="Times,serif" font-size="14.00" fill="#000000">#20 CallExpression</text>
</g>
<!-- #18 AssignmentExpression&#45;&gt;#20 CallExpression -->
<g id="edge22" class="edge">
<title>#18 AssignmentExpression&#45;&gt;#20 CallExpression</title>
<path fill="none" stroke="#0000ff" d="M173.1057,-173.9735C185.4965,-161.2912 202.245,-144.1486 215.9447,-130.1265"/>
<polygon fill="#0000ff" stroke="#0000ff" points="218.7101,-132.3045 223.195,-122.7057 213.7031,-127.4126 218.7101,-132.3045"/>
<text text-anchor="middle" x="216.4937" y="-144.8" font-family="Times,serif" font-size="14.00" fill="#0000ff">right</text>
</g>
<!-- #8 Identifier (x) -->
<g id="node21" class="node">
<title>#8 Identifier (x)</title>
<ellipse fill="none" stroke="#000000" cx="981.4937" cy="-192" rx="67.6881" ry="18"/>
<text text-anchor="middle" x="981.4937" y="-188.3" font-family="Times,serif" font-size="14.00" fill="#000000">#8 Identifier (x)</text>
</g>
<!-- #7 MemberExpression&#45;&gt;#8 Identifier (x) -->
<g id="edge23" class="edge">
<title>#7 MemberExpression&#45;&gt;#8 Identifier (x)</title>
<path fill="none" stroke="#0000ff" d="M974.3585,-260.9735C975.5773,-249.1918 977.1943,-233.5607 978.5808,-220.1581"/>
<polygon fill="#0000ff" stroke="#0000ff" points="982.0836,-220.3105 979.6312,-210.0034 975.1207,-219.5901 982.0836,-220.3105"/>
<text text-anchor="middle" x="994.4937" y="-231.8" font-family="Times,serif" font-size="14.00" fill="#0000ff">object</text>
</g>
<!-- #9 Identifier (f) -->
<g id="node22" class="node">
<title>#9 Identifier (f)</title>
<ellipse fill="none" stroke="#000000" cx="1132.4937" cy="-192" rx="65.7887" ry="18"/>
<text text-anchor="middle" x="1132.4937" y="-188.3" font-family="Times,serif" font-size="14.00" fill="#000000">#9 Identifier (f)</text>
</g>
<!-- #7 MemberExpression&#45;&gt;#9 Identifier (f) -->
<g id="edge24" class="edge">
<title>#7 MemberExpression&#45;&gt;#9 Identifier (f)</title>
<path fill="none" stroke="#0000ff" d="M1003.7231,-262.019C1029.4607,-248.0242 1066.089,-228.1075 1093.7046,-213.0916"/>
<polygon fill="#0000ff" stroke="#0000ff" points="1095.5823,-216.0545 1102.6956,-208.2027 1092.2384,-209.9049 1095.5823,-216.0545"/>
<text text-anchor="middle" x="1084.4937" y="-231.8" font-family="Times,serif" font-size="14.00" fill="#0000ff">property</text>
</g>
<!-- #15 Identifier (x) -->
<g id="node23" class="node">
<title>#15 Identifier (x)</title>
<ellipse fill="none" stroke="#000000" cx="719.4937" cy="-105" rx="71.4873" ry="18"/>
<text text-anchor="middle" x="719.4937" y="-101.3" font-family="Times,serif" font-size="14.00" fill="#000000">#15 Identifier (x)</text>
</g>
<!-- #14 MemberExpression&#45;&gt;#15 Identifier (x) -->
<g id="edge25" class="edge">
<title>#14 MemberExpression&#45;&gt;#15 Identifier (x)</title>
<path fill="none" stroke="#0000ff" d="M782.9176,-173.9735C771.2557,-161.2912 755.4924,-144.1486 742.5985,-130.1265"/>
<polygon fill="#0000ff" stroke="#0000ff" points="745.1199,-127.6976 735.7748,-122.7057 739.9672,-132.4358 745.1199,-127.6976"/>
<text text-anchor="middle" x="781.4937" y="-144.8" font-family="Times,serif" font-size="14.00" fill="#0000ff">object</text>
</g>
<!-- #16 Identifier (f) -->
<g id="node24" class="node">
<title>#16 Identifier (f)</title>
<ellipse fill="none" stroke="#000000" cx="879.4937" cy="-105" rx="70.3881" ry="18"/>
<text text-anchor="middle" x="879.4937" y="-101.3" font-family="Times,serif" font-size="14.00" fill="#000000">#16 Identifier (f)</text>
</g>
<!-- #14 MemberExpression&#45;&gt;#16 Identifier (f) -->
<g id="edge26" class="edge">
<title>#14 MemberExpression&#45;&gt;#16 Identifier (f)</title>
<path fill="none" stroke="#0000ff" d="M816.0697,-173.9735C827.7316,-161.2912 843.4949,-144.1486 856.3888,-130.1265"/>
<polygon fill="#0000ff" stroke="#0000ff" points="859.0202,-132.4358 863.2126,-122.7057 853.8674,-127.6976 859.0202,-132.4358"/>
<text text-anchor="middle" x="867.4937" y="-144.8" font-family="Times,serif" font-size="14.00" fill="#0000ff">property</text>
</g>
<!-- #21 Identifier (eval) -->
<g id="node25" class="node">
<title>#21 Identifier (eval)</title>
<ellipse fill="none" stroke="#000000" cx="150.4937" cy="-18" rx="81.7856" ry="18"/>
<text text-anchor="middle" x="150.4937" y="-14.3" font-family="Times,serif" font-size="14.00" fill="#000000">#21 Identifier (eval)</text>
</g>
<!-- #20 CallExpression&#45;&gt;#21 Identifier (eval) -->
<g id="edge27" class="edge">
<title>#20 CallExpression&#45;&gt;#21 Identifier (eval)</title>
<path fill="none" stroke="#0000ff" d="M222.2808,-87.3943C208.984,-74.5407 190.7812,-56.9446 176.0327,-42.6878"/>
<polygon fill="#0000ff" stroke="#0000ff" points="178.3019,-40.0133 168.6794,-35.5796 173.4367,-45.0463 178.3019,-40.0133"/>
<text text-anchor="middle" x="217.4937" y="-57.8" font-family="Times,serif" font-size="14.00" fill="#0000ff">callee</text>
</g>
<!-- #22 Identifier (aux) -->
<g id="node26" class="node">
<title>#22 Identifier (aux)</title>
<ellipse fill="none" stroke="#000000" cx="330.4937" cy="-18" rx="79.8859" ry="18"/>
<text text-anchor="middle" x="330.4937" y="-14.3" font-family="Times,serif" font-size="14.00" fill="#000000">#22 Identifier (aux)</text>
</g>
<!-- #20 CallExpression&#45;&gt;#22 Identifier (aux) -->
<g id="edge28" class="edge">
<title>#20 CallExpression&#45;&gt;#22 Identifier (aux)</title>
<path fill="none" stroke="#0000ff" d="M258.7065,-87.3943C272.0033,-74.5407 290.2061,-56.9446 304.9546,-42.6878"/>
<polygon fill="#0000ff" stroke="#0000ff" points="307.5506,-45.0463 312.3079,-35.5796 302.6854,-40.0133 307.5506,-45.0463"/>
<text text-anchor="middle" x="305.4937" y="-57.8" font-family="Times,serif" font-size="14.00" fill="#0000ff">arg 1</text>
</g>
</g>
</svg>
