<?xml version="1.0" encoding="UTF-8" standalone="no"?>
<!DOCTYPE svg PUBLIC "-//W3C//DTD SVG 1.1//EN"
 "http://www.w3.org/Graphics/SVG/1.1/DTD/svg11.dtd">
<!-- Generated by graphviz version 2.40.1 (20161225.0304)
 -->
<!-- Title: G Pages: 1 -->
<svg width="1097pt" height="914pt"
 viewBox="0.00 0.00 1097.09 914.00" xmlns="http://www.w3.org/2000/svg" xmlns:xlink="http://www.w3.org/1999/xlink">
<g id="graph0" class="graph" transform="scale(1 1) rotate(0) translate(4 910)">
<title>G</title>
<polygon fill="#ffffff" stroke="transparent" points="-4,4 -4,-910 1093.09,-910 1093.09,4 -4,4"/>
<!-- #0 Program -->
<g id="node1" class="node">
<title>#0 Program</title>
<ellipse fill="none" stroke="#000000" cx="352.09" cy="-888" rx="52.7911" ry="18"/>
<text text-anchor="middle" x="352.09" y="-884.3" font-family="Times,serif" font-size="14.00" fill="#000000">#0 Program</text>
</g>
<!-- #1 Variable (f) -->
<g id="node2" class="node">
<title>#1 Variable (f)</title>
<ellipse fill="none" stroke="#000000" cx="500.09" cy="-801" rx="63.8893" ry="18"/>
<text text-anchor="middle" x="500.09" y="-797.3" font-family="Times,serif" font-size="14.00" fill="#000000">#1 Variable (f)</text>
</g>
<!-- #0 Program&#45;&gt;#1 Variable (f) -->
<g id="edge1" class="edge">
<title>#0 Program&#45;&gt;#1 Variable (f)</title>
<path fill="none" stroke="#0000ff" d="M378.8916,-872.245C402.5872,-858.3158 437.3641,-837.8727 463.5947,-822.4533"/>
<polygon fill="#0000ff" stroke="#0000ff" points="465.637,-825.3127 472.4842,-817.2277 462.0896,-819.2781 465.637,-825.3127"/>
<text text-anchor="middle" x="438.59" y="-840.8" font-family="Times,serif" font-size="14.00" fill="#0000ff">1</text>
</g>
<!-- #16 ExpressionStatement -->
<g id="node3" class="node">
<title>#16 ExpressionStatement</title>
<ellipse fill="none" stroke="#000000" cx="352.09" cy="-714" rx="100.9827" ry="18"/>
<text text-anchor="middle" x="352.09" y="-710.3" font-family="Times,serif" font-size="14.00" fill="#000000">#16 ExpressionStatement</text>
</g>
<!-- #0 Program&#45;&gt;#16 ExpressionStatement -->
<g id="edge2" class="edge">
<title>#0 Program&#45;&gt;#16 ExpressionStatement</title>
<path fill="none" stroke="#0000ff" d="M352.09,-869.7078C352.09,-839.3436 352.09,-778.3226 352.09,-742.3464"/>
<polygon fill="#0000ff" stroke="#0000ff" points="355.5901,-742.0471 352.09,-732.0471 348.5901,-742.0471 355.5901,-742.0471"/>
<text text-anchor="middle" x="355.59" y="-797.3" font-family="Times,serif" font-size="14.00" fill="#0000ff">2</text>
</g>
<!-- #1 Variable (f)&#45;&gt;#16 ExpressionStatement -->
<g id="edge6" class="edge">
<title>#1 Variable (f)&#45;&gt;#16 ExpressionStatement</title>
<path fill="none" stroke="#ff0000" d="M472.2523,-784.636C449.1073,-771.0304 415.9309,-751.5281 390.3,-736.4613"/>
<polygon fill="#ff0000" stroke="#ff0000" points="391.9721,-733.3843 381.5776,-731.3339 388.4247,-739.4189 391.9721,-733.3843"/>
</g>
<!-- #2 Function (anon) -->
<g id="node7" class="node">
<title>#2 Function (anon)</title>
<ellipse fill="none" stroke="#000000" cx="641.09" cy="-714" rx="78.7863" ry="18"/>
<text text-anchor="middle" x="641.09" y="-710.3" font-family="Times,serif" font-size="14.00" fill="#000000">#2 Function (anon)</text>
</g>
<!-- #1 Variable (f)&#45;&gt;#2 Function (anon) -->
<g id="edge5" class="edge">
<title>#1 Variable (f)&#45;&gt;#2 Function (anon)</title>
<path fill="none" stroke="#0000ff" d="M526.9429,-784.4312C549.0033,-770.8194 580.4641,-751.4074 604.7722,-736.4088"/>
<polygon fill="#0000ff" stroke="#0000ff" points="606.7011,-739.3314 613.3736,-731.1016 603.0253,-733.3741 606.7011,-739.3314"/>
<text text-anchor="middle" x="587.59" y="-753.8" font-family="Times,serif" font-size="14.00" fill="#0000ff">init</text>
</g>
<!-- #17 AssignmentExpression -->
<g id="node8" class="node">
<title>#17 AssignmentExpression</title>
<ellipse fill="none" stroke="#000000" cx="352.09" cy="-627" rx="107.781" ry="18"/>
<text text-anchor="middle" x="352.09" y="-623.3" font-family="Times,serif" font-size="14.00" fill="#000000">#17 AssignmentExpression</text>
</g>
<!-- #16 ExpressionStatement&#45;&gt;#17 AssignmentExpression -->
<g id="edge7" class="edge">
<title>#16 ExpressionStatement&#45;&gt;#17 AssignmentExpression</title>
<path fill="none" stroke="#0000ff" d="M352.09,-695.9735C352.09,-684.1918 352.09,-668.5607 352.09,-655.1581"/>
<polygon fill="#0000ff" stroke="#0000ff" points="355.5901,-655.0033 352.09,-645.0034 348.5901,-655.0034 355.5901,-655.0033"/>
<text text-anchor="middle" x="381.09" y="-666.8" font-family="Times,serif" font-size="14.00" fill="#0000ff">expression</text>
</g>
<!-- #23 CFG_F_END __main__ -->
<g id="node9" class="node">
<title>#23 CFG_F_END __main__</title>
<ellipse fill="none" stroke="#ff0000" cx="113.09" cy="-627" rx="113.18" ry="18"/>
<text text-anchor="middle" x="113.09" y="-623.3" font-family="Times,serif" font-size="14.00" fill="#ff0000">#23 CFG_F_END __main__</text>
</g>
<!-- #16 ExpressionStatement&#45;&gt;#23 CFG_F_END __main__ -->
<g id="edge8" class="edge">
<title>#16 ExpressionStatement&#45;&gt;#23 CFG_F_END __main__</title>
<path fill="none" stroke="#ff0000" d="M307.696,-697.8399C268.2458,-683.4793 210.4306,-662.4336 168.0671,-647.0126"/>
<polygon fill="#ff0000" stroke="#ff0000" points="169.0586,-643.6489 158.4646,-643.5171 166.6642,-650.2267 169.0586,-643.6489"/>
</g>
<!-- #22 CFG_F_START __main__ -->
<g id="node4" class="node">
<title>#22 CFG_F_START __main__</title>
<ellipse fill="none" stroke="#ff0000" cx="545.09" cy="-888" rx="122.6784" ry="18"/>
<text text-anchor="middle" x="545.09" y="-884.3" font-family="Times,serif" font-size="14.00" fill="#ff0000">#22 CFG_F_START __main__</text>
</g>
<!-- #22 CFG_F_START __main__&#45;&gt;#1 Variable (f) -->
<g id="edge3" class="edge">
<title>#22 CFG_F_START __main__&#45;&gt;#1 Variable (f)</title>
<path fill="none" stroke="#ff0000" d="M535.7659,-869.9735C529.4909,-857.8418 521.1048,-841.6287 514.0399,-827.9698"/>
<polygon fill="#ff0000" stroke="#ff0000" points="517.1051,-826.2776 509.402,-819.0034 510.8876,-829.4935 517.1051,-826.2776"/>
</g>
<!-- #24 CFG_F_START 2_anon -->
<g id="node5" class="node">
<title>#24 CFG_F_START 2_anon</title>
<ellipse fill="none" stroke="#ff0000" cx="763.09" cy="-540" rx="113.18" ry="18"/>
<text text-anchor="middle" x="763.09" y="-536.3" font-family="Times,serif" font-size="14.00" fill="#ff0000">#24 CFG_F_START 2_anon</text>
</g>
<!-- #5 Variable (x) -->
<g id="node6" class="node">
<title>#5 Variable (x)</title>
<ellipse fill="none" stroke="#000000" cx="764.09" cy="-453" rx="64.9885" ry="18"/>
<text text-anchor="middle" x="764.09" y="-449.3" font-family="Times,serif" font-size="14.00" fill="#000000">#5 Variable (x)</text>
</g>
<!-- #24 CFG_F_START 2_anon&#45;&gt;#5 Variable (x) -->
<g id="edge4" class="edge">
<title>#24 CFG_F_START 2_anon&#45;&gt;#5 Variable (x)</title>
<path fill="none" stroke="#ff0000" d="M763.2972,-521.9735C763.4326,-510.1918 763.6123,-494.5607 763.7663,-481.1581"/>
<polygon fill="#ff0000" stroke="#ff0000" points="767.2678,-481.043 763.883,-471.0034 760.2682,-480.9624 767.2678,-481.043"/>
</g>
<!-- #6 MemberExpression -->
<g id="node10" class="node">
<title>#6 MemberExpression</title>
<ellipse fill="none" stroke="#000000" cx="884.09" cy="-366" rx="91.784" ry="18"/>
<text text-anchor="middle" x="884.09" y="-362.3" font-family="Times,serif" font-size="14.00" fill="#000000">#6 MemberExpression</text>
</g>
<!-- #5 Variable (x)&#45;&gt;#6 MemberExpression -->
<g id="edge9" class="edge">
<title>#5 Variable (x)&#45;&gt;#6 MemberExpression</title>
<path fill="none" stroke="#0000ff" d="M787.512,-436.019C805.7746,-422.7787 831.3481,-404.2379 851.5917,-389.5613"/>
<polygon fill="#0000ff" stroke="#0000ff" points="853.8626,-392.238 859.9043,-383.5346 849.7538,-386.5707 853.8626,-392.238"/>
<text text-anchor="middle" x="840.59" y="-405.8" font-family="Times,serif" font-size="14.00" fill="#0000ff">init</text>
</g>
<!-- #9 Variable (v1) -->
<g id="node11" class="node">
<title>#9 Variable (v1)</title>
<ellipse fill="none" stroke="#000000" cx="695.09" cy="-279" rx="69.5877" ry="18"/>
<text text-anchor="middle" x="695.09" y="-275.3" font-family="Times,serif" font-size="14.00" fill="#000000">#9 Variable (v1)</text>
</g>
<!-- #5 Variable (x)&#45;&gt;#9 Variable (v1) -->
<g id="edge10" class="edge">
<title>#5 Variable (x)&#45;&gt;#9 Variable (v1)</title>
<path fill="none" stroke="#ff0000" d="M764.0158,-434.7234C763.1391,-407.005 758.3984,-353.4958 736.09,-315 733.6648,-310.815 730.5758,-306.8672 727.1844,-303.2286"/>
<polygon fill="#ff0000" stroke="#ff0000" points="729.5417,-300.6395 719.9141,-296.2168 724.6823,-305.678 729.5417,-300.6395"/>
</g>
<!-- #29 x&#45;o4 -->
<g id="node12" class="node">
<title>#29 x&#45;o4</title>
<ellipse fill="none" stroke="#006400" cx="689.09" cy="-366" rx="42.4939" ry="18"/>
<text text-anchor="middle" x="689.09" y="-362.3" font-family="Times,serif" font-size="14.00" fill="#006400">#29 x&#45;o4</text>
</g>
<!-- #5 Variable (x)&#45;&gt;#29 x&#45;o4 -->
<g id="edge11" class="edge">
<title>#5 Variable (x)&#45;&gt;#29 x&#45;o4</title>
<path fill="none" stroke="#006400" d="M715.7288,-440.7517C704.0737,-435.412 693.0028,-427.8041 686.09,-417 681.7691,-410.2469 680.8735,-401.9044 681.5231,-393.9368"/>
<polygon fill="#006400" stroke="#006400" points="685.0142,-394.266 683.1089,-383.844 678.0991,-393.1795 685.0142,-394.266"/>
<text text-anchor="middle" x="718.09" y="-405.8" font-family="Times,serif" font-size="14.00" fill="#006400">CREATE x</text>
</g>
<!-- #3 Identifier (c) -->
<g id="node13" class="node">
<title>#3 Identifier (c)</title>
<ellipse fill="none" stroke="#000000" cx="802.09" cy="-627" rx="66.8882" ry="18"/>
<text text-anchor="middle" x="802.09" y="-623.3" font-family="Times,serif" font-size="14.00" fill="#000000">#3 Identifier (c)</text>
</g>
<!-- #2 Function (anon)&#45;&gt;#3 Identifier (c) -->
<g id="edge12" class="edge">
<title>#2 Function (anon)&#45;&gt;#3 Identifier (c)</title>
<path fill="none" stroke="#0000ff" d="M672.1324,-697.2255C698.0747,-683.207 735.2055,-663.1425 763.14,-648.0475"/>
<polygon fill="#0000ff" stroke="#0000ff" points="765.0977,-650.968 772.2315,-643.1347 761.7698,-644.8096 765.0977,-650.968"/>
<text text-anchor="middle" x="754.09" y="-666.8" font-family="Times,serif" font-size="14.00" fill="#0000ff">param 1</text>
</g>
<!-- #4 Identifier (p) -->
<g id="node14" class="node">
<title>#4 Identifier (p)</title>
<ellipse fill="none" stroke="#000000" cx="1010.09" cy="-627" rx="67.6881" ry="18"/>
<text text-anchor="middle" x="1010.09" y="-623.3" font-family="Times,serif" font-size="14.00" fill="#000000">#4 Identifier (p)</text>
</g>
<!-- #2 Function (anon)&#45;&gt;#4 Identifier (p) -->
<g id="edge13" class="edge">
<title>#2 Function (anon)&#45;&gt;#4 Identifier (p)</title>
<path fill="none" stroke="#0000ff" d="M695.9345,-701.0692C763.7698,-685.0755 878.8883,-657.9337 949.3406,-641.323"/>
<polygon fill="#0000ff" stroke="#0000ff" points="950.4702,-644.6527 959.4001,-638.9513 948.8638,-637.8395 950.4702,-644.6527"/>
<text text-anchor="middle" x="870.09" y="-666.8" font-family="Times,serif" font-size="14.00" fill="#0000ff">param 2</text>
</g>
<!-- #15 BlockStatement -->
<g id="node15" class="node">
<title>#15 BlockStatement</title>
<ellipse fill="none" stroke="#000000" cx="549.09" cy="-540" rx="83.3857" ry="18"/>
<text text-anchor="middle" x="549.09" y="-536.3" font-family="Times,serif" font-size="14.00" fill="#000000">#15 BlockStatement</text>
</g>
<!-- #2 Function (anon)&#45;&gt;#15 BlockStatement -->
<g id="edge14" class="edge">
<title>#2 Function (anon)&#45;&gt;#15 BlockStatement</title>
<path fill="none" stroke="#0000ff" d="M631.5909,-696.0343C615.4076,-665.4269 582.4025,-603.0042 563.4093,-567.0823"/>
<polygon fill="#0000ff" stroke="#0000ff" points="566.4436,-565.333 558.6752,-558.1286 560.2554,-568.605 566.4436,-565.333"/>
<text text-anchor="middle" x="619.59" y="-623.3" font-family="Times,serif" font-size="14.00" fill="#0000ff">block</text>
</g>
<!-- #18 MemberExpression -->
<g id="node16" class="node">
<title>#18 MemberExpression</title>
<ellipse fill="none" stroke="#000000" cx="352.09" cy="-540" rx="96.3833" ry="18"/>
<text text-anchor="middle" x="352.09" y="-536.3" font-family="Times,serif" font-size="14.00" fill="#000000">#18 MemberExpression</text>
</g>
<!-- #17 AssignmentExpression&#45;&gt;#18 MemberExpression -->
<g id="edge15" class="edge">
<title>#17 AssignmentExpression&#45;&gt;#18 MemberExpression</title>
<path fill="none" stroke="#0000ff" d="M352.09,-608.9735C352.09,-597.1918 352.09,-581.5607 352.09,-568.1581"/>
<polygon fill="#0000ff" stroke="#0000ff" points="355.5901,-568.0033 352.09,-558.0034 348.5901,-568.0034 355.5901,-568.0033"/>
<text text-anchor="middle" x="361.59" y="-579.8" font-family="Times,serif" font-size="14.00" fill="#0000ff">left</text>
</g>
<!-- #21 Identifier (f) -->
<g id="node17" class="node">
<title>#21 Identifier (f)</title>
<ellipse fill="none" stroke="#000000" cx="168.09" cy="-540" rx="70.3881" ry="18"/>
<text text-anchor="middle" x="168.09" y="-536.3" font-family="Times,serif" font-size="14.00" fill="#000000">#21 Identifier (f)</text>
</g>
<!-- #17 AssignmentExpression&#45;&gt;#21 Identifier (f) -->
<g id="edge16" class="edge">
<title>#17 AssignmentExpression&#45;&gt;#21 Identifier (f)</title>
<path fill="none" stroke="#0000ff" d="M316.1761,-610.019C286.0014,-595.7516 242.8099,-575.3295 210.8538,-560.2199"/>
<polygon fill="#0000ff" stroke="#0000ff" points="212.2787,-557.0221 201.7422,-555.9117 209.2865,-563.3504 212.2787,-557.0221"/>
<text text-anchor="middle" x="285.09" y="-579.8" font-family="Times,serif" font-size="14.00" fill="#0000ff">right</text>
</g>
<!-- #7 Identifier (c) -->
<g id="node18" class="node">
<title>#7 Identifier (c)</title>
<ellipse fill="none" stroke="#000000" cx="867.09" cy="-279" rx="66.8882" ry="18"/>
<text text-anchor="middle" x="867.09" y="-275.3" font-family="Times,serif" font-size="14.00" fill="#000000">#7 Identifier (c)</text>
</g>
<!-- #6 MemberExpression&#45;&gt;#7 Identifier (c) -->
<g id="edge17" class="edge">
<title>#6 MemberExpression&#45;&gt;#7 Identifier (c)</title>
<path fill="none" stroke="#0000ff" d="M880.5676,-347.9735C878.2654,-336.1918 875.211,-320.5607 872.5921,-307.1581"/>
<polygon fill="#0000ff" stroke="#0000ff" points="875.9607,-306.1465 870.6079,-297.0034 869.0907,-307.489 875.9607,-306.1465"/>
<text text-anchor="middle" x="893.09" y="-318.8" font-family="Times,serif" font-size="14.00" fill="#0000ff">object</text>
</g>
<!-- #8 Identifier (p) -->
<g id="node19" class="node">
<title>#8 Identifier (p)</title>
<ellipse fill="none" stroke="#000000" cx="1020.09" cy="-279" rx="67.6881" ry="18"/>
<text text-anchor="middle" x="1020.09" y="-275.3" font-family="Times,serif" font-size="14.00" fill="#000000">#8 Identifier (p)</text>
</g>
<!-- #6 MemberExpression&#45;&gt;#8 Identifier (p) -->
<g id="edge18" class="edge">
<title>#6 MemberExpression&#45;&gt;#8 Identifier (p)</title>
<path fill="none" stroke="#0000ff" d="M911.2847,-348.6033C932.5926,-334.9726 962.383,-315.9155 985.4059,-301.1876"/>
<polygon fill="#0000ff" stroke="#0000ff" points="987.3288,-304.1125 993.8665,-295.7753 983.5566,-298.2158 987.3288,-304.1125"/>
<text text-anchor="middle" x="983.09" y="-318.8" font-family="Times,serif" font-size="14.00" fill="#0000ff">property</text>
</g>
<!-- #10 CallExpression -->
<g id="node20" class="node">
<title>#10 CallExpression</title>
<ellipse fill="none" stroke="#000000" cx="804.09" cy="-192" rx="79.8859" ry="18"/>
<text text-anchor="middle" x="804.09" y="-188.3" font-family="Times,serif" font-size="14.00" fill="#000000">#10 CallExpression</text>
</g>
<!-- #9 Variable (v1)&#45;&gt;#10 CallExpression -->
<g id="edge19" class="edge">
<title>#9 Variable (v1)&#45;&gt;#10 CallExpression</title>
<path fill="none" stroke="#0000ff" d="M716.6249,-261.8116C733.0885,-248.6709 755.981,-230.3989 774.216,-215.8443"/>
<polygon fill="#0000ff" stroke="#0000ff" points="776.5944,-218.4242 782.2267,-209.4505 772.2276,-212.9532 776.5944,-218.4242"/>
<text text-anchor="middle" x="765.59" y="-231.8" font-family="Times,serif" font-size="14.00" fill="#0000ff">init</text>
</g>
<!-- #13 ReturnStatement -->
<g id="node21" class="node">
<title>#13 ReturnStatement</title>
<ellipse fill="none" stroke="#000000" cx="621.09" cy="-105" rx="85.5853" ry="18"/>
<text text-anchor="middle" x="621.09" y="-101.3" font-family="Times,serif" font-size="14.00" fill="#000000">#13 ReturnStatement</text>
</g>
<!-- #9 Variable (v1)&#45;&gt;#13 ReturnStatement -->
<g id="edge20" class="edge">
<title>#9 Variable (v1)&#45;&gt;#13 ReturnStatement</title>
<path fill="none" stroke="#ff0000" d="M696.1453,-260.9142C696.9067,-232.9767 694.8535,-178.6259 671.09,-141 668.127,-136.3085 664.3117,-132.0402 660.1112,-128.2161"/>
<polygon fill="#ff0000" stroke="#ff0000" points="662.2036,-125.4065 652.2353,-121.8171 657.7895,-130.8394 662.2036,-125.4065"/>
</g>
<!-- #30 v1&#45;o5 -->
<g id="node22" class="node">
<title>#30 v1&#45;o5</title>
<ellipse fill="none" stroke="#006400" cx="621.09" cy="-192" rx="46.5926" ry="18"/>
<text text-anchor="middle" x="621.09" y="-188.3" font-family="Times,serif" font-size="14.00" fill="#006400">#30 v1&#45;o5</text>
</g>
<!-- #9 Variable (v1)&#45;&gt;#30 v1&#45;o5 -->
<g id="edge21" class="edge">
<title>#9 Variable (v1)&#45;&gt;#30 v1&#45;o5</title>
<path fill="none" stroke="#006400" d="M642.8378,-267.0222C630.7537,-261.6981 619.329,-254.0304 612.09,-243 607.5808,-236.1292 607.4391,-227.663 609.1208,-219.6166"/>
<polygon fill="#006400" stroke="#006400" points="612.5441,-220.3833 612.0348,-209.8008 605.8336,-218.3912 612.5441,-220.3833"/>
<text text-anchor="middle" x="647.09" y="-231.8" font-family="Times,serif" font-size="14.00" fill="#006400">CREATE v1</text>
</g>
<!-- #29 x&#45;o4&#45;&gt;#9 Variable (v1) -->
<g id="edge22" class="edge">
<title>#29 x&#45;o4&#45;&gt;#9 Variable (v1)</title>
<path fill="none" stroke="#006400" d="M690.3332,-347.9735C691.1457,-336.1918 692.2237,-320.5607 693.148,-307.1581"/>
<polygon fill="#006400" stroke="#006400" points="696.6519,-307.2205 693.8484,-297.0034 689.6685,-306.7388 696.6519,-307.2205"/>
<text text-anchor="middle" x="712.09" y="-318.8" font-family="Times,serif" font-size="14.00" fill="#006400">VAR x</text>
</g>
<!-- #27 c&#45;o2 -->
<g id="node23" class="node">
<title>#27 c&#45;o2</title>
<ellipse fill="none" stroke="#006400" cx="936.09" cy="-540" rx="42.4939" ry="18"/>
<text text-anchor="middle" x="936.09" y="-536.3" font-family="Times,serif" font-size="14.00" fill="#006400">#27 c&#45;o2</text>
</g>
<!-- #3 Identifier (c)&#45;&gt;#27 c&#45;o2 -->
<g id="edge23" class="edge">
<title>#3 Identifier (c)&#45;&gt;#27 c&#45;o2</title>
<path fill="none" stroke="#006400" d="M827.9265,-610.2255C849.6413,-596.1271 880.7745,-575.9138 904.0686,-560.79"/>
<polygon fill="#006400" stroke="#006400" points="906.095,-563.6473 912.5764,-555.2663 902.2832,-557.7762 906.095,-563.6473"/>
<text text-anchor="middle" x="908.59" y="-579.8" font-family="Times,serif" font-size="14.00" fill="#006400">CREATE c</text>
</g>
<!-- #26 p&#45;o3 -->
<g id="node24" class="node">
<title>#26 p&#45;o3</title>
<ellipse fill="none" stroke="#006400" cx="1038.09" cy="-540" rx="42.4939" ry="18"/>
<text text-anchor="middle" x="1038.09" y="-536.3" font-family="Times,serif" font-size="14.00" fill="#006400">#26 p&#45;o3</text>
</g>
<!-- #4 Identifier (p)&#45;&gt;#26 p&#45;o3 -->
<g id="edge24" class="edge">
<title>#4 Identifier (p)&#45;&gt;#26 p&#45;o3</title>
<path fill="none" stroke="#006400" d="M1015.8916,-608.9735C1019.721,-597.0751 1024.8139,-581.2508 1029.1555,-567.7606"/>
<polygon fill="#006400" stroke="#006400" points="1032.5638,-568.5948 1032.2958,-558.0034 1025.9004,-566.4502 1032.5638,-568.5948"/>
<text text-anchor="middle" x="1057.09" y="-579.8" font-family="Times,serif" font-size="14.00" fill="#006400">CREATE p</text>
</g>
<!-- #15 BlockStatement&#45;&gt;#5 Variable (x) -->
<g id="edge25" class="edge">
<title>#15 BlockStatement&#45;&gt;#5 Variable (x)</title>
<path fill="none" stroke="#0000ff" d="M588.5243,-524.0429C624.957,-509.3003 679.1089,-487.3877 717.626,-471.8017"/>
<polygon fill="#0000ff" stroke="#0000ff" points="719.1044,-474.9792 727.0613,-467.9837 716.4786,-468.4903 719.1044,-474.9792"/>
<text text-anchor="middle" x="672.59" y="-492.8" font-family="Times,serif" font-size="14.00" fill="#0000ff">1</text>
</g>
<!-- #15 BlockStatement&#45;&gt;#9 Variable (v1) -->
<g id="edge26" class="edge">
<title>#15 BlockStatement&#45;&gt;#9 Variable (v1)</title>
<path fill="none" stroke="#0000ff" d="M555.6373,-522.011C568.7368,-487.0634 600.191,-408.1484 638.09,-348 647.7386,-332.687 660.4079,-317.0235 671.3514,-304.499"/>
<polygon fill="#0000ff" stroke="#0000ff" points="674.2087,-306.5531 678.2445,-296.7571 668.9807,-301.8983 674.2087,-306.5531"/>
<text text-anchor="middle" x="610.59" y="-405.8" font-family="Times,serif" font-size="14.00" fill="#0000ff">2</text>
</g>
<!-- #15 BlockStatement&#45;&gt;#13 ReturnStatement -->
<g id="edge27" class="edge">
<title>#15 BlockStatement&#45;&gt;#13 ReturnStatement</title>
<path fill="none" stroke="#0000ff" d="M548.091,-521.6758C547.2183,-504.0738 546.09,-476.7276 546.09,-453 546.09,-453 546.09,-453 546.09,-192 546.09,-166.0008 565.5422,-143.9186 584.6335,-128.5069"/>
<polygon fill="#0000ff" stroke="#0000ff" points="586.9132,-131.1699 592.7357,-122.3184 582.6642,-125.607 586.9132,-131.1699"/>
<text text-anchor="middle" x="549.59" y="-318.8" font-family="Times,serif" font-size="14.00" fill="#0000ff">3</text>
</g>
<!-- #19 Identifier (module) -->
<g id="node25" class="node">
<title>#19 Identifier (module)</title>
<ellipse fill="none" stroke="#000000" cx="183.09" cy="-453" rx="94.4839" ry="18"/>
<text text-anchor="middle" x="183.09" y="-449.3" font-family="Times,serif" font-size="14.00" fill="#000000">#19 Identifier (module)</text>
</g>
<!-- #18 MemberExpression&#45;&gt;#19 Identifier (module) -->
<g id="edge28" class="edge">
<title>#18 MemberExpression&#45;&gt;#19 Identifier (module)</title>
<path fill="none" stroke="#0000ff" d="M319.1039,-523.019C292.2337,-509.1864 254.1255,-489.5686 225.0793,-474.6158"/>
<polygon fill="#0000ff" stroke="#0000ff" points="226.4859,-471.4034 215.9929,-469.9382 223.2819,-477.6271 226.4859,-471.4034"/>
<text text-anchor="middle" x="295.09" y="-492.8" font-family="Times,serif" font-size="14.00" fill="#0000ff">object</text>
</g>
<!-- #20 Identifier (exports) -->
<g id="node26" class="node">
<title>#20 Identifier (exports)</title>
<ellipse fill="none" stroke="#000000" cx="388.09" cy="-453" rx="92.8835" ry="18"/>
<text text-anchor="middle" x="388.09" y="-449.3" font-family="Times,serif" font-size="14.00" fill="#000000">#20 Identifier (exports)</text>
</g>
<!-- #18 MemberExpression&#45;&gt;#20 Identifier (exports) -->
<g id="edge29" class="edge">
<title>#18 MemberExpression&#45;&gt;#20 Identifier (exports)</title>
<path fill="none" stroke="#0000ff" d="M359.5492,-521.9735C364.5209,-509.9585 371.1492,-493.9401 376.7667,-480.3646"/>
<polygon fill="#0000ff" stroke="#0000ff" points="380.0508,-481.5818 380.6403,-471.0034 373.5827,-478.9053 380.0508,-481.5818"/>
<text text-anchor="middle" x="396.09" y="-492.8" font-family="Times,serif" font-size="14.00" fill="#0000ff">property</text>
</g>
<!-- #11 Identifier (eval) -->
<g id="node27" class="node">
<title>#11 Identifier (eval)</title>
<ellipse fill="none" stroke="#000000" cx="971.09" cy="-105" rx="81.7856" ry="18"/>
<text text-anchor="middle" x="971.09" y="-101.3" font-family="Times,serif" font-size="14.00" fill="#000000">#11 Identifier (eval)</text>
</g>
<!-- #10 CallExpression&#45;&gt;#11 Identifier (eval) -->
<g id="edge30" class="edge">
<title>#10 CallExpression&#45;&gt;#11 Identifier (eval)</title>
<path fill="none" stroke="#0000ff" d="M835.8945,-175.4312C862.6228,-161.5068 901.0021,-141.5129 930.045,-126.3827"/>
<polygon fill="#0000ff" stroke="#0000ff" points="931.8683,-129.3794 939.1199,-121.6551 928.6341,-123.1713 931.8683,-129.3794"/>
<text text-anchor="middle" x="913.09" y="-144.8" font-family="Times,serif" font-size="14.00" fill="#0000ff">callee</text>
</g>
<!-- #12 Identifier (x) -->
<g id="node28" class="node">
<title>#12 Identifier (x)</title>
<ellipse fill="none" stroke="#000000" cx="800.09" cy="-105" rx="71.4873" ry="18"/>
<text text-anchor="middle" x="800.09" y="-101.3" font-family="Times,serif" font-size="14.00" fill="#000000">#12 Identifier (x)</text>
</g>
<!-- #10 CallExpression&#45;&gt;#12 Identifier (x) -->
<g id="edge31" class="edge">
<title>#10 CallExpression&#45;&gt;#12 Identifier (x)</title>
<path fill="none" stroke="#0000ff" d="M803.2612,-173.9735C802.7195,-162.1918 802.0008,-146.5607 801.3846,-133.1581"/>
<polygon fill="#0000ff" stroke="#0000ff" points="804.8734,-132.832 800.9177,-123.0034 797.8808,-133.1536 804.8734,-132.832"/>
<text text-anchor="middle" x="816.09" y="-144.8" font-family="Times,serif" font-size="14.00" fill="#0000ff">arg 1</text>
</g>
<!-- #14 Identifier (v1) -->
<g id="node29" class="node">
<title>#14 Identifier (v1)</title>
<ellipse fill="none" stroke="#000000" cx="523.09" cy="-18" rx="76.0865" ry="18"/>
<text text-anchor="middle" x="523.09" y="-14.3" font-family="Times,serif" font-size="14.00" fill="#000000">#14 Identifier (v1)</text>
</g>
<!-- #13 ReturnStatement&#45;&gt;#14 Identifier (v1) -->
<g id="edge32" class="edge">
<title>#13 ReturnStatement&#45;&gt;#14 Identifier (v1)</title>
<path fill="none" stroke="#0000ff" d="M601.2582,-87.3943C586.6466,-74.4228 566.5945,-56.6213 550.4581,-42.2962"/>
<polygon fill="#0000ff" stroke="#0000ff" points="552.6942,-39.6011 542.8922,-35.5796 548.0469,-44.8359 552.6942,-39.6011"/>
<text text-anchor="middle" x="603.09" y="-57.8" font-family="Times,serif" font-size="14.00" fill="#0000ff">argument</text>
</g>
<!-- #25 CFG_F_END 2_anon -->
<g id="node30" class="node">
<title>#25 CFG_F_END 2_anon</title>
<ellipse fill="none" stroke="#ff0000" cx="720.09" cy="-18" rx="103.1819" ry="18"/>
<text text-anchor="middle" x="720.09" y="-14.3" font-family="Times,serif" font-size="14.00" fill="#ff0000">#25 CFG_F_END 2_anon</text>
</g>
<!-- #13 ReturnStatement&#45;&gt;#25 CFG_F_END 2_anon -->
<g id="edge33" class="edge">
<title>#13 ReturnStatement&#45;&gt;#25 CFG_F_END 2_anon</title>
<path fill="none" stroke="#ff0000" d="M641.1241,-87.3943C655.7877,-74.5081 675.8752,-56.8554 692.1203,-42.5794"/>
<polygon fill="#ff0000" stroke="#ff0000" points="694.5446,-45.1084 699.7458,-35.8782 689.9238,-39.8503 694.5446,-45.1084"/>
</g>
<!-- #30 v1&#45;o5&#45;&gt;#13 ReturnStatement -->
<g id="edge34" class="edge">
<title>#30 v1&#45;o5&#45;&gt;#13 ReturnStatement</title>
<path fill="none" stroke="#006400" d="M621.09,-173.9735C621.09,-162.1918 621.09,-146.5607 621.09,-133.1581"/>
<polygon fill="#006400" stroke="#006400" points="624.5901,-133.0033 621.09,-123.0034 617.5901,-133.0034 624.5901,-133.0033"/>
<text text-anchor="middle" x="644.09" y="-144.8" font-family="Times,serif" font-size="14.00" fill="#006400">VAR v1</text>
</g>
<!-- #27 c&#45;o2&#45;&gt;#5 Variable (x) -->
<g id="edge35" class="edge">
<title>#27 c&#45;o2&#45;&gt;#5 Variable (x)</title>
<path fill="none" stroke="#006400" d="M908.8361,-526.2146C880.8162,-512.0418 836.8594,-489.8078 804.7327,-473.5576"/>
<polygon fill="#006400" stroke="#006400" points="806.0945,-470.3242 795.5913,-468.9338 802.9349,-476.5707 806.0945,-470.3242"/>
<text text-anchor="middle" x="902.59" y="-492.8" font-family="Times,serif" font-size="14.00" fill="#006400">LOOKUP * (p)</text>
</g>
<!-- #26 p&#45;o3&#45;&gt;#5 Variable (x) -->
<g id="edge36" class="edge">
<title>#26 p&#45;o3&#45;&gt;#5 Variable (x)</title>
<path fill="none" stroke="#006400" d="M1016.0525,-524.6299C998.6292,-513.1719 973.2907,-498.0064 949.09,-489 912.527,-475.3929 869.8923,-466.6517 834.7727,-461.1954"/>
<polygon fill="#006400" stroke="#006400" points="835.0131,-457.6924 824.6053,-459.674 833.9772,-464.6154 835.0131,-457.6924"/>
<text text-anchor="middle" x="999.09" y="-492.8" font-family="Times,serif" font-size="14.00" fill="#006400">VAR p</text>
</g>
</g>
</svg>
