<?xml version="1.0" encoding="UTF-8" standalone="no"?>
<!DOCTYPE svg PUBLIC "-//W3C//DTD SVG 1.1//EN"
 "http://www.w3.org/Graphics/SVG/1.1/DTD/svg11.dtd">
<!-- Generated by graphviz version 2.40.1 (20161225.0304)
 -->
<!-- Title: G Pages: 1 -->
<svg width="1415pt" height="653pt"
 viewBox="0.00 0.00 1414.99 653.00" xmlns="http://www.w3.org/2000/svg" xmlns:xlink="http://www.w3.org/1999/xlink">
<g id="graph0" class="graph" transform="scale(1 1) rotate(0) translate(4 649)">
<title>G</title>
<polygon fill="#ffffff" stroke="transparent" points="-4,4 -4,-649 1410.9862,-649 1410.9862,4 -4,4"/>
<!-- #0 Program -->
<g id="node1" class="node">
<title>#0 Program</title>
<ellipse fill="none" stroke="#000000" cx="724.4937" cy="-627" rx="52.7911" ry="18"/>
<text text-anchor="middle" x="724.4937" y="-623.3" font-family="Times,serif" font-size="14.00" fill="#000000">#0 Program</text>
</g>
<!-- #1 ExpressionStatement -->
<g id="node2" class="node">
<title>#1 ExpressionStatement</title>
<ellipse fill="none" stroke="#000000" cx="911.4937" cy="-540" rx="96.6831" ry="18"/>
<text text-anchor="middle" x="911.4937" y="-536.3" font-family="Times,serif" font-size="14.00" fill="#000000">#1 ExpressionStatement</text>
</g>
<!-- #0 Program&#45;&gt;#1 ExpressionStatement -->
<g id="edge1" class="edge">
<title>#0 Program&#45;&gt;#1 ExpressionStatement</title>
<path fill="none" stroke="#0000ff" d="M755.7933,-612.4382C785.9203,-598.4218 831.8154,-577.0696 865.982,-561.1739"/>
<polygon fill="#0000ff" stroke="#0000ff" points="867.6945,-564.2374 875.2849,-556.8458 864.7417,-557.8907 867.6945,-564.2374"/>
<text text-anchor="middle" x="832.9937" y="-579.8" font-family="Times,serif" font-size="14.00" fill="#0000ff">1</text>
</g>
<!-- #5 ExpressionStatement -->
<g id="node3" class="node">
<title>#5 ExpressionStatement</title>
<ellipse fill="none" stroke="#000000" cx="864.4937" cy="-453" rx="96.6831" ry="18"/>
<text text-anchor="middle" x="864.4937" y="-449.3" font-family="Times,serif" font-size="14.00" fill="#000000">#5 ExpressionStatement</text>
</g>
<!-- #0 Program&#45;&gt;#5 ExpressionStatement -->
<g id="edge2" class="edge">
<title>#0 Program&#45;&gt;#5 ExpressionStatement</title>
<path fill="none" stroke="#0000ff" d="M735.7803,-609.3238C749.6756,-587.9718 774.4035,-551.2748 798.4937,-522 811.085,-506.6988 826.308,-490.6425 838.9596,-477.8725"/>
<polygon fill="#0000ff" stroke="#0000ff" points="841.4732,-480.3088 846.0722,-470.7641 836.5249,-475.3575 841.4732,-480.3088"/>
<text text-anchor="middle" x="801.9937" y="-536.3" font-family="Times,serif" font-size="14.00" fill="#0000ff">2</text>
</g>
<!-- #11 ExpressionStatement -->
<g id="node4" class="node">
<title>#11 ExpressionStatement</title>
<ellipse fill="none" stroke="#000000" cx="724.4937" cy="-366" rx="100.9827" ry="18"/>
<text text-anchor="middle" x="724.4937" y="-362.3" font-family="Times,serif" font-size="14.00" fill="#000000">#11 ExpressionStatement</text>
</g>
<!-- #0 Program&#45;&gt;#11 ExpressionStatement -->
<g id="edge3" class="edge">
<title>#0 Program&#45;&gt;#11 ExpressionStatement</title>
<path fill="none" stroke="#0000ff" d="M724.4937,-608.647C724.4937,-563.8139 724.4937,-448.4607 724.4937,-394.5557"/>
<polygon fill="#0000ff" stroke="#0000ff" points="727.9938,-394.3327 724.4937,-384.3327 720.9938,-394.3328 727.9938,-394.3327"/>
<text text-anchor="middle" x="727.9937" y="-492.8" font-family="Times,serif" font-size="14.00" fill="#0000ff">3</text>
</g>
<!-- #17 ExpressionStatement -->
<g id="node5" class="node">
<title>#17 ExpressionStatement</title>
<ellipse fill="none" stroke="#000000" cx="463.4937" cy="-279" rx="100.9827" ry="18"/>
<text text-anchor="middle" x="463.4937" y="-275.3" font-family="Times,serif" font-size="14.00" fill="#000000">#17 ExpressionStatement</text>
</g>
<!-- #0 Program&#45;&gt;#17 ExpressionStatement -->
<g id="edge4" class="edge">
<title>#0 Program&#45;&gt;#17 ExpressionStatement</title>
<path fill="none" stroke="#0000ff" d="M680.7319,-616.7562C623.2394,-602.0021 529.4937,-572.9003 529.4937,-540 529.4937,-540 529.4937,-540 529.4937,-366 529.4937,-341.339 512.4535,-319.2774 495.6901,-303.5407"/>
<polygon fill="#0000ff" stroke="#0000ff" points="497.8696,-300.7952 488.0696,-296.7687 493.2197,-306.0277 497.8696,-300.7952"/>
<text text-anchor="middle" x="532.9937" y="-449.3" font-family="Times,serif" font-size="14.00" fill="#0000ff">4</text>
</g>
<!-- #1 ExpressionStatement&#45;&gt;#5 ExpressionStatement -->
<g id="edge7" class="edge">
<title>#1 ExpressionStatement&#45;&gt;#5 ExpressionStatement</title>
<path fill="none" stroke="#ff0000" d="M901.7552,-521.9735C895.2013,-509.8418 886.4425,-493.6287 879.0636,-479.9698"/>
<polygon fill="#ff0000" stroke="#ff0000" points="882.0521,-478.138 874.2196,-471.0034 875.8933,-481.4652 882.0521,-478.138"/>
</g>
<!-- #2 AssignmentExpression -->
<g id="node7" class="node">
<title>#2 AssignmentExpression</title>
<ellipse fill="none" stroke="#000000" cx="1152.4937" cy="-453" rx="103.1819" ry="18"/>
<text text-anchor="middle" x="1152.4937" y="-449.3" font-family="Times,serif" font-size="14.00" fill="#000000">#2 AssignmentExpression</text>
</g>
<!-- #1 ExpressionStatement&#45;&gt;#2 AssignmentExpression -->
<g id="edge6" class="edge">
<title>#1 ExpressionStatement&#45;&gt;#2 AssignmentExpression</title>
<path fill="none" stroke="#0000ff" d="M955.9776,-523.9415C996.0604,-509.4718 1055.1097,-488.1552 1098.0106,-472.6681"/>
<polygon fill="#0000ff" stroke="#0000ff" points="1099.2347,-475.9474 1107.4522,-469.2598 1096.8578,-469.3633 1099.2347,-475.9474"/>
<text text-anchor="middle" x="1074.4937" y="-492.8" font-family="Times,serif" font-size="14.00" fill="#0000ff">expression</text>
</g>
<!-- #5 ExpressionStatement&#45;&gt;#11 ExpressionStatement -->
<g id="edge9" class="edge">
<title>#5 ExpressionStatement&#45;&gt;#11 ExpressionStatement</title>
<path fill="none" stroke="#ff0000" d="M836.499,-435.6033C814.8475,-422.1485 784.6878,-403.4064 761.1187,-388.7598"/>
<polygon fill="#ff0000" stroke="#ff0000" points="762.7807,-385.6719 752.4397,-383.3665 759.086,-391.6175 762.7807,-385.6719"/>
</g>
<!-- #6 AssignmentExpression -->
<g id="node8" class="node">
<title>#6 AssignmentExpression</title>
<ellipse fill="none" stroke="#000000" cx="963.4937" cy="-366" rx="103.1819" ry="18"/>
<text text-anchor="middle" x="963.4937" y="-362.3" font-family="Times,serif" font-size="14.00" fill="#000000">#6 AssignmentExpression</text>
</g>
<!-- #5 ExpressionStatement&#45;&gt;#6 AssignmentExpression -->
<g id="edge8" class="edge">
<title>#5 ExpressionStatement&#45;&gt;#6 AssignmentExpression</title>
<path fill="none" stroke="#0000ff" d="M885.0065,-434.9735C899.7054,-422.0564 919.6695,-404.5122 935.7841,-390.3508"/>
<polygon fill="#0000ff" stroke="#0000ff" points="938.1445,-392.936 943.3458,-383.7057 933.5237,-387.6778 938.1445,-392.936"/>
<text text-anchor="middle" x="948.4937" y="-405.8" font-family="Times,serif" font-size="14.00" fill="#0000ff">expression</text>
</g>
<!-- #11 ExpressionStatement&#45;&gt;#17 ExpressionStatement -->
<g id="edge11" class="edge">
<title>#11 ExpressionStatement&#45;&gt;#17 ExpressionStatement</title>
<path fill="none" stroke="#ff0000" d="M676.6222,-350.0429C632.7941,-335.4335 567.8426,-313.783 521.1705,-298.2256"/>
<polygon fill="#ff0000" stroke="#ff0000" points="522.0965,-294.845 511.5028,-295.0031 519.8828,-301.4858 522.0965,-294.845"/>
</g>
<!-- #12 AssignmentExpression -->
<g id="node9" class="node">
<title>#12 AssignmentExpression</title>
<ellipse fill="none" stroke="#000000" cx="724.4937" cy="-279" rx="107.781" ry="18"/>
<text text-anchor="middle" x="724.4937" y="-275.3" font-family="Times,serif" font-size="14.00" fill="#000000">#12 AssignmentExpression</text>
</g>
<!-- #11 ExpressionStatement&#45;&gt;#12 AssignmentExpression -->
<g id="edge10" class="edge">
<title>#11 ExpressionStatement&#45;&gt;#12 AssignmentExpression</title>
<path fill="none" stroke="#0000ff" d="M724.4937,-347.9735C724.4937,-336.1918 724.4937,-320.5607 724.4937,-307.1581"/>
<polygon fill="#0000ff" stroke="#0000ff" points="727.9938,-307.0033 724.4937,-297.0034 720.9938,-307.0034 727.9938,-307.0033"/>
<text text-anchor="middle" x="753.4937" y="-318.8" font-family="Times,serif" font-size="14.00" fill="#0000ff">expression</text>
</g>
<!-- #18 AssignmentExpression -->
<g id="node10" class="node">
<title>#18 AssignmentExpression</title>
<ellipse fill="none" stroke="#000000" cx="155.4937" cy="-192" rx="107.781" ry="18"/>
<text text-anchor="middle" x="155.4937" y="-188.3" font-family="Times,serif" font-size="14.00" fill="#000000">#18 AssignmentExpression</text>
</g>
<!-- #17 ExpressionStatement&#45;&gt;#18 AssignmentExpression -->
<g id="edge12" class="edge">
<title>#17 ExpressionStatement&#45;&gt;#18 AssignmentExpression</title>
<path fill="none" stroke="#0000ff" d="M409.4917,-263.7462C356.7595,-248.8511 276.4684,-226.1714 220.3143,-210.3097"/>
<polygon fill="#0000ff" stroke="#0000ff" points="221.0467,-206.8797 210.4719,-207.5296 219.1439,-213.6161 221.0467,-206.8797"/>
<text text-anchor="middle" x="357.4937" y="-231.8" font-family="Times,serif" font-size="14.00" fill="#0000ff">expression</text>
</g>
<!-- #24 CFG_F_END __main__ -->
<g id="node11" class="node">
<title>#24 CFG_F_END __main__</title>
<ellipse fill="none" stroke="#ff0000" cx="394.4937" cy="-192" rx="113.18" ry="18"/>
<text text-anchor="middle" x="394.4937" y="-188.3" font-family="Times,serif" font-size="14.00" fill="#ff0000">#24 CFG_F_END __main__</text>
</g>
<!-- #17 ExpressionStatement&#45;&gt;#24 CFG_F_END __main__ -->
<g id="edge13" class="edge">
<title>#17 ExpressionStatement&#45;&gt;#24 CFG_F_END __main__</title>
<path fill="none" stroke="#ff0000" d="M449.1968,-260.9735C439.3901,-248.6085 426.2206,-232.0036 415.2608,-218.1847"/>
<polygon fill="#ff0000" stroke="#ff0000" points="417.7284,-215.6635 408.7722,-210.0034 412.2439,-220.0133 417.7284,-215.6635"/>
</g>
<!-- #23 CFG_F_START __main__ -->
<g id="node6" class="node">
<title>#23 CFG_F_START __main__</title>
<ellipse fill="none" stroke="#ff0000" cx="917.4937" cy="-627" rx="122.6784" ry="18"/>
<text text-anchor="middle" x="917.4937" y="-623.3" font-family="Times,serif" font-size="14.00" fill="#ff0000">#23 CFG_F_START __main__</text>
</g>
<!-- #23 CFG_F_START __main__&#45;&gt;#1 ExpressionStatement -->
<g id="edge5" class="edge">
<title>#23 CFG_F_START __main__&#45;&gt;#1 ExpressionStatement</title>
<path fill="none" stroke="#ff0000" d="M916.2505,-608.9735C915.4379,-597.1918 914.3599,-581.5607 913.4356,-568.1581"/>
<polygon fill="#ff0000" stroke="#ff0000" points="916.9151,-567.7388 912.7353,-558.0034 909.9317,-568.2205 916.9151,-567.7388"/>
</g>
<!-- #3 Identifier (x) -->
<g id="node12" class="node">
<title>#3 Identifier (x)</title>
<ellipse fill="none" stroke="#000000" cx="1152.4937" cy="-366" rx="67.6881" ry="18"/>
<text text-anchor="middle" x="1152.4937" y="-362.3" font-family="Times,serif" font-size="14.00" fill="#000000">#3 Identifier (x)</text>
</g>
<!-- #2 AssignmentExpression&#45;&gt;#3 Identifier (x) -->
<g id="edge14" class="edge">
<title>#2 AssignmentExpression&#45;&gt;#3 Identifier (x)</title>
<path fill="none" stroke="#0000ff" d="M1152.4937,-434.9735C1152.4937,-423.1918 1152.4937,-407.5607 1152.4937,-394.1581"/>
<polygon fill="#0000ff" stroke="#0000ff" points="1155.9938,-394.0033 1152.4937,-384.0034 1148.9938,-394.0034 1155.9938,-394.0033"/>
<text text-anchor="middle" x="1161.9937" y="-405.8" font-family="Times,serif" font-size="14.00" fill="#0000ff">left</text>
</g>
<!-- #4 ObjectExpression -->
<g id="node13" class="node">
<title>#4 ObjectExpression</title>
<ellipse fill="none" stroke="#000000" cx="1322.4937" cy="-366" rx="84.485" ry="18"/>
<text text-anchor="middle" x="1322.4937" y="-362.3" font-family="Times,serif" font-size="14.00" fill="#000000">#4 ObjectExpression</text>
</g>
<!-- #2 AssignmentExpression&#45;&gt;#4 ObjectExpression -->
<g id="edge15" class="edge">
<title>#2 AssignmentExpression&#45;&gt;#4 ObjectExpression</title>
<path fill="none" stroke="#0000ff" d="M1186.0802,-435.8116C1213.235,-421.9147 1251.6035,-402.2791 1280.7354,-387.3704"/>
<polygon fill="#0000ff" stroke="#0000ff" points="1282.5358,-390.3808 1289.8433,-382.7093 1279.3468,-384.1494 1282.5358,-390.3808"/>
<text text-anchor="middle" x="1260.4937" y="-405.8" font-family="Times,serif" font-size="14.00" fill="#0000ff">right</text>
</g>
<!-- #7 MemberExpression -->
<g id="node14" class="node">
<title>#7 MemberExpression</title>
<ellipse fill="none" stroke="#000000" cx="976.4937" cy="-279" rx="91.784" ry="18"/>
<text text-anchor="middle" x="976.4937" y="-275.3" font-family="Times,serif" font-size="14.00" fill="#000000">#7 MemberExpression</text>
</g>
<!-- #6 AssignmentExpression&#45;&gt;#7 MemberExpression -->
<g id="edge16" class="edge">
<title>#6 AssignmentExpression&#45;&gt;#7 MemberExpression</title>
<path fill="none" stroke="#0000ff" d="M966.1873,-347.9735C967.9478,-336.1918 970.2834,-320.5607 972.2861,-307.1581"/>
<polygon fill="#0000ff" stroke="#0000ff" points="975.7871,-307.4108 973.8035,-297.0034 968.864,-306.3763 975.7871,-307.4108"/>
<text text-anchor="middle" x="979.9937" y="-318.8" font-family="Times,serif" font-size="14.00" fill="#0000ff">left</text>
</g>
<!-- #10 Literal -->
<g id="node15" class="node">
<title>#10 Literal</title>
<ellipse fill="none" stroke="#000000" cx="1136.4937" cy="-279" rx="50.0912" ry="18"/>
<text text-anchor="middle" x="1136.4937" y="-275.3" font-family="Times,serif" font-size="14.00" fill="#000000">#10 Literal</text>
</g>
<!-- #6 AssignmentExpression&#45;&gt;#10 Literal -->
<g id="edge17" class="edge">
<title>#6 AssignmentExpression&#45;&gt;#10 Literal</title>
<path fill="none" stroke="#0000ff" d="M997.6729,-348.8116C1026.6759,-334.2263 1068.2491,-313.3195 1098.3327,-298.1908"/>
<polygon fill="#0000ff" stroke="#0000ff" points="1099.912,-301.3143 1107.2735,-293.6945 1096.767,-295.0605 1099.912,-301.3143"/>
<text text-anchor="middle" x="1072.4937" y="-318.8" font-family="Times,serif" font-size="14.00" fill="#0000ff">right</text>
</g>
<!-- #13 Identifier (aux) -->
<g id="node16" class="node">
<title>#13 Identifier (aux)</title>
<ellipse fill="none" stroke="#000000" cx="605.4937" cy="-192" rx="79.8859" ry="18"/>
<text text-anchor="middle" x="605.4937" y="-188.3" font-family="Times,serif" font-size="14.00" fill="#000000">#13 Identifier (aux)</text>
</g>
<!-- #12 AssignmentExpression&#45;&gt;#13 Identifier (aux) -->
<g id="edge18" class="edge">
<title>#12 AssignmentExpression&#45;&gt;#13 Identifier (aux)</title>
<path fill="none" stroke="#0000ff" d="M700.4122,-261.3943C682.2282,-248.1 657.1048,-229.7325 637.2729,-215.2336"/>
<polygon fill="#0000ff" stroke="#0000ff" points="639.2715,-212.3591 629.1332,-209.2827 635.1402,-218.01 639.2715,-212.3591"/>
<text text-anchor="middle" x="681.9937" y="-231.8" font-family="Times,serif" font-size="14.00" fill="#0000ff">left</text>
</g>
<!-- #14 MemberExpression -->
<g id="node17" class="node">
<title>#14 MemberExpression</title>
<ellipse fill="none" stroke="#000000" cx="799.4937" cy="-192" rx="96.3833" ry="18"/>
<text text-anchor="middle" x="799.4937" y="-188.3" font-family="Times,serif" font-size="14.00" fill="#000000">#14 MemberExpression</text>
</g>
<!-- #12 AssignmentExpression&#45;&gt;#14 MemberExpression -->
<g id="edge19" class="edge">
<title>#12 AssignmentExpression&#45;&gt;#14 MemberExpression</title>
<path fill="none" stroke="#0000ff" d="M740.0337,-260.9735C750.7938,-248.4919 765.2782,-231.6899 777.2571,-217.7944"/>
<polygon fill="#0000ff" stroke="#0000ff" points="780.095,-219.8628 783.9735,-210.0034 774.7931,-215.2922 780.095,-219.8628"/>
<text text-anchor="middle" x="779.4937" y="-231.8" font-family="Times,serif" font-size="14.00" fill="#0000ff">right</text>
</g>
<!-- #19 Identifier (y) -->
<g id="node18" class="node">
<title>#19 Identifier (y)</title>
<ellipse fill="none" stroke="#000000" cx="71.4937" cy="-105" rx="71.4873" ry="18"/>
<text text-anchor="middle" x="71.4937" y="-101.3" font-family="Times,serif" font-size="14.00" fill="#000000">#19 Identifier (y)</text>
</g>
<!-- #18 AssignmentExpression&#45;&gt;#19 Identifier (y) -->
<g id="edge20" class="edge">
<title>#18 AssignmentExpression&#45;&gt;#19 Identifier (y)</title>
<path fill="none" stroke="#0000ff" d="M138.0888,-173.9735C125.8438,-161.2912 109.2923,-144.1486 95.7538,-130.1265"/>
<polygon fill="#0000ff" stroke="#0000ff" points="98.0527,-127.4686 88.5888,-122.7057 93.0169,-132.3308 98.0527,-127.4686"/>
<text text-anchor="middle" x="128.9937" y="-144.8" font-family="Times,serif" font-size="14.00" fill="#0000ff">left</text>
</g>
<!-- #20 CallExpression -->
<g id="node19" class="node">
<title>#20 CallExpression</title>
<ellipse fill="none" stroke="#000000" cx="240.4937" cy="-105" rx="79.8859" ry="18"/>
<text text-anchor="middle" x="240.4937" y="-101.3" font-family="Times,serif" font-size="14.00" fill="#000000">#20 CallExpression</text>
</g>
<!-- #18 AssignmentExpression&#45;&gt;#20 CallExpression -->
<g id="edge21" class="edge">
<title>#18 AssignmentExpression&#45;&gt;#20 CallExpression</title>
<path fill="none" stroke="#0000ff" d="M173.1057,-173.9735C185.4965,-161.2912 202.245,-144.1486 215.9447,-130.1265"/>
<polygon fill="#0000ff" stroke="#0000ff" points="218.7101,-132.3045 223.195,-122.7057 213.7031,-127.4126 218.7101,-132.3045"/>
<text text-anchor="middle" x="216.4937" y="-144.8" font-family="Times,serif" font-size="14.00" fill="#0000ff">right</text>
</g>
<!-- #8 Identifier (x) -->
<g id="node20" class="node">
<title>#8 Identifier (x)</title>
<ellipse fill="none" stroke="#000000" cx="981.4937" cy="-192" rx="67.6881" ry="18"/>
<text text-anchor="middle" x="981.4937" y="-188.3" font-family="Times,serif" font-size="14.00" fill="#000000">#8 Identifier (x)</text>
</g>
<!-- #7 MemberExpression&#45;&gt;#8 Identifier (x) -->
<g id="edge22" class="edge">
<title>#7 MemberExpression&#45;&gt;#8 Identifier (x)</title>
<path fill="none" stroke="#0000ff" d="M977.5297,-260.9735C978.2068,-249.1918 979.1051,-233.5607 979.8754,-220.1581"/>
<polygon fill="#0000ff" stroke="#0000ff" points="983.3794,-220.1877 980.459,-210.0034 976.3909,-219.786 983.3794,-220.1877"/>
<text text-anchor="middle" x="995.4937" y="-231.8" font-family="Times,serif" font-size="14.00" fill="#0000ff">object</text>
</g>
<!-- #9 Identifier (f) -->
<g id="node21" class="node">
<title>#9 Identifier (f)</title>
<ellipse fill="none" stroke="#000000" cx="1132.4937" cy="-192" rx="65.7887" ry="18"/>
<text text-anchor="middle" x="1132.4937" y="-188.3" font-family="Times,serif" font-size="14.00" fill="#000000">#9 Identifier (f)</text>
</g>
<!-- #7 MemberExpression&#45;&gt;#9 Identifier (f) -->
<g id="edge23" class="edge">
<title>#7 MemberExpression&#45;&gt;#9 Identifier (f)</title>
<path fill="none" stroke="#0000ff" d="M1006.9424,-262.019C1032.0366,-248.0242 1067.7491,-228.1075 1094.6743,-213.0916"/>
<polygon fill="#0000ff" stroke="#0000ff" points="1096.4117,-216.1302 1103.4406,-208.2027 1093.0022,-210.0166 1096.4117,-216.1302"/>
<text text-anchor="middle" x="1086.4937" y="-231.8" font-family="Times,serif" font-size="14.00" fill="#0000ff">property</text>
</g>
<!-- #15 Identifier (x) -->
<g id="node22" class="node">
<title>#15 Identifier (x)</title>
<ellipse fill="none" stroke="#000000" cx="719.4937" cy="-105" rx="71.4873" ry="18"/>
<text text-anchor="middle" x="719.4937" y="-101.3" font-family="Times,serif" font-size="14.00" fill="#000000">#15 Identifier (x)</text>
</g>
<!-- #14 MemberExpression&#45;&gt;#15 Identifier (x) -->
<g id="edge24" class="edge">
<title>#14 MemberExpression&#45;&gt;#15 Identifier (x)</title>
<path fill="none" stroke="#0000ff" d="M782.9176,-173.9735C771.2557,-161.2912 755.4924,-144.1486 742.5985,-130.1265"/>
<polygon fill="#0000ff" stroke="#0000ff" points="745.1199,-127.6976 735.7748,-122.7057 739.9672,-132.4358 745.1199,-127.6976"/>
<text text-anchor="middle" x="781.4937" y="-144.8" font-family="Times,serif" font-size="14.00" fill="#0000ff">object</text>
</g>
<!-- #16 Identifier (f) -->
<g id="node23" class="node">
<title>#16 Identifier (f)</title>
<ellipse fill="none" stroke="#000000" cx="879.4937" cy="-105" rx="70.3881" ry="18"/>
<text text-anchor="middle" x="879.4937" y="-101.3" font-family="Times,serif" font-size="14.00" fill="#000000">#16 Identifier (f)</text>
</g>
<!-- #14 MemberExpression&#45;&gt;#16 Identifier (f) -->
<g id="edge25" class="edge">
<title>#14 MemberExpression&#45;&gt;#16 Identifier (f)</title>
<path fill="none" stroke="#0000ff" d="M816.0697,-173.9735C827.7316,-161.2912 843.4949,-144.1486 856.3888,-130.1265"/>
<polygon fill="#0000ff" stroke="#0000ff" points="859.0202,-132.4358 863.2126,-122.7057 853.8674,-127.6976 859.0202,-132.4358"/>
<text text-anchor="middle" x="867.4937" y="-144.8" font-family="Times,serif" font-size="14.00" fill="#0000ff">property</text>
</g>
<!-- #21 Identifier (eval) -->
<g id="node24" class="node">
<title>#21 Identifier (eval)</title>
<ellipse fill="none" stroke="#000000" cx="150.4937" cy="-18" rx="81.7856" ry="18"/>
<text text-anchor="middle" x="150.4937" y="-14.3" font-family="Times,serif" font-size="14.00" fill="#000000">#21 Identifier (eval)</text>
</g>
<!-- #20 CallExpression&#45;&gt;#21 Identifier (eval) -->
<g id="edge26" class="edge">
<title>#20 CallExpression&#45;&gt;#21 Identifier (eval)</title>
<path fill="none" stroke="#0000ff" d="M222.2808,-87.3943C208.984,-74.5407 190.7812,-56.9446 176.0327,-42.6878"/>
<polygon fill="#0000ff" stroke="#0000ff" points="178.3019,-40.0133 168.6794,-35.5796 173.4367,-45.0463 178.3019,-40.0133"/>
<text text-anchor="middle" x="217.4937" y="-57.8" font-family="Times,serif" font-size="14.00" fill="#0000ff">callee</text>
</g>
<!-- #22 Identifier (aux) -->
<g id="node25" class="node">
<title>#22 Identifier (aux)</title>
<ellipse fill="none" stroke="#000000" cx="330.4937" cy="-18" rx="79.8859" ry="18"/>
<text text-anchor="middle" x="330.4937" y="-14.3" font-family="Times,serif" font-size="14.00" fill="#000000">#22 Identifier (aux)</text>
</g>
<!-- #20 CallExpression&#45;&gt;#22 Identifier (aux) -->
<g id="edge27" class="edge">
<title>#20 CallExpression&#45;&gt;#22 Identifier (aux)</title>
<path fill="none" stroke="#0000ff" d="M258.7065,-87.3943C272.0033,-74.5407 290.2061,-56.9446 304.9546,-42.6878"/>
<polygon fill="#0000ff" stroke="#0000ff" points="307.5506,-45.0463 312.3079,-35.5796 302.6854,-40.0133 307.5506,-45.0463"/>
<text text-anchor="middle" x="305.4937" y="-57.8" font-family="Times,serif" font-size="14.00" fill="#0000ff">arg 1</text>
</g>
</g>
</svg>
