<?xml version="1.0" encoding="UTF-8" standalone="no"?>
<!DOCTYPE svg PUBLIC "-//W3C//DTD SVG 1.1//EN"
 "http://www.w3.org/Graphics/SVG/1.1/DTD/svg11.dtd">
<!-- Generated by graphviz version 2.40.1 (20161225.0304)
 -->
<!-- Title: G Pages: 1 -->
<svg width="1162pt" height="977pt"
 viewBox="0.00 0.00 1162.28 977.00" xmlns="http://www.w3.org/2000/svg" xmlns:xlink="http://www.w3.org/1999/xlink">
<g id="graph0" class="graph" transform="scale(1 1) rotate(0) translate(4 973)">
<title>G</title>
<polygon fill="#ffffff" stroke="transparent" points="-4,4 -4,-973 1158.2826,-973 1158.2826,4 -4,4"/>
<!-- #0 Program -->
<g id="node1" class="node">
<title>#0 Program</title>
<ellipse fill="none" stroke="#000000" cx="447.3408" cy="-951" rx="52.7911" ry="18"/>
<text text-anchor="middle" x="447.3408" y="-947.3" font-family="Times,serif" font-size="14.00" fill="#000000">#0 Program</text>
</g>
<!-- #1 Variable (read) -->
<g id="node2" class="node">
<title>#1 Variable (read)</title>
<ellipse fill="none" stroke="#000000" cx="245.3408" cy="-864" rx="75.2868" ry="18"/>
<text text-anchor="middle" x="245.3408" y="-860.3" font-family="Times,serif" font-size="14.00" fill="#000000">#1 Variable (read)</text>
</g>
<!-- #0 Program&#45;&gt;#1 Variable (read) -->
<g id="edge1" class="edge">
<title>#0 Program&#45;&gt;#1 Variable (read)</title>
<path fill="none" stroke="#0000ff" d="M414.4365,-936.8283C380.9416,-922.4023 328.7441,-899.9212 291.2023,-883.7522"/>
<polygon fill="#0000ff" stroke="#0000ff" points="292.5627,-880.5273 281.9938,-879.7862 289.7937,-886.9564 292.5627,-880.5273"/>
<text text-anchor="middle" x="361.8408" y="-903.8" font-family="Times,serif" font-size="14.00" fill="#0000ff">1</text>
</g>
<!-- #6 Variable (f) -->
<g id="node3" class="node">
<title>#6 Variable (f)</title>
<ellipse fill="none" stroke="#000000" cx="447.3408" cy="-777" rx="63.8893" ry="18"/>
<text text-anchor="middle" x="447.3408" y="-773.3" font-family="Times,serif" font-size="14.00" fill="#000000">#6 Variable (f)</text>
</g>
<!-- #0 Program&#45;&gt;#6 Variable (f) -->
<g id="edge2" class="edge">
<title>#0 Program&#45;&gt;#6 Variable (f)</title>
<path fill="none" stroke="#0000ff" d="M447.3408,-932.7078C447.3408,-902.3436 447.3408,-841.3226 447.3408,-805.3464"/>
<polygon fill="#0000ff" stroke="#0000ff" points="450.8409,-805.0471 447.3408,-795.0471 443.8409,-805.0471 450.8409,-805.0471"/>
<text text-anchor="middle" x="450.8408" y="-860.3" font-family="Times,serif" font-size="14.00" fill="#0000ff">2</text>
</g>
<!-- #18 ExpressionStatement -->
<g id="node4" class="node">
<title>#18 ExpressionStatement</title>
<ellipse fill="none" stroke="#000000" cx="691.3408" cy="-669" rx="100.9827" ry="18"/>
<text text-anchor="middle" x="691.3408" y="-665.3" font-family="Times,serif" font-size="14.00" fill="#000000">#18 ExpressionStatement</text>
</g>
<!-- #0 Program&#45;&gt;#18 ExpressionStatement -->
<g id="edge3" class="edge">
<title>#0 Program&#45;&gt;#18 ExpressionStatement</title>
<path fill="none" stroke="#0000ff" d="M462.6041,-933.3596C504.2698,-885.2051 620.1001,-751.3356 669.0491,-694.7634"/>
<polygon fill="#0000ff" stroke="#0000ff" points="671.8725,-696.8493 675.769,-686.997 666.579,-692.2691 671.8725,-696.8493"/>
<text text-anchor="middle" x="569.8408" y="-816.8" font-family="Times,serif" font-size="14.00" fill="#0000ff">3</text>
</g>
<!-- #1 Variable (read)&#45;&gt;#6 Variable (f) -->
<g id="edge9" class="edge">
<title>#1 Variable (read)&#45;&gt;#6 Variable (f)</title>
<path fill="none" stroke="#ff0000" d="M281.9215,-848.245C315.945,-833.5913 366.7075,-811.7282 403.0181,-796.0895"/>
<polygon fill="#ff0000" stroke="#ff0000" points="404.584,-799.2259 412.3839,-792.0557 401.815,-792.7969 404.584,-799.2259"/>
</g>
<!-- #26 CFG_F_START 2_anon -->
<g id="node6" class="node">
<title>#26 CFG_F_START 2_anon</title>
<ellipse fill="none" stroke="#ff0000" cx="247.3408" cy="-366" rx="113.18" ry="18"/>
<text text-anchor="middle" x="247.3408" y="-362.3" font-family="Times,serif" font-size="14.00" fill="#ff0000">#26 CFG_F_START 2_anon</text>
</g>
<!-- #1 Variable (read)&#45;&gt;#26 CFG_F_START 2_anon -->
<g id="edge8" class="edge">
<title>#1 Variable (read)&#45;&gt;#26 CFG_F_START 2_anon</title>
<path fill="none" stroke="#cd9b1d" d="M244.0089,-845.6807C242.8453,-828.0822 241.3408,-800.7386 241.3408,-777 241.3408,-777 241.3408,-777 241.3408,-453 241.3408,-433.5013 242.8594,-411.6025 244.3686,-394.6535"/>
<polygon fill="#cd9b1d" stroke="#cd9b1d" points="247.89,-394.5894 245.3429,-384.3053 240.9208,-393.9331 247.89,-394.5894"/>
<text text-anchor="middle" x="250.3408" y="-611.3" font-family="Times,serif" font-size="14.00" fill="#cd9b1d">FD</text>
</g>
<!-- #2 Function (anon) -->
<g id="node10" class="node">
<title>#2 Function (anon)</title>
<ellipse fill="none" stroke="#000000" cx="144.3408" cy="-723" rx="78.7863" ry="18"/>
<text text-anchor="middle" x="144.3408" y="-719.3" font-family="Times,serif" font-size="14.00" fill="#000000">#2 Function (anon)</text>
</g>
<!-- #1 Variable (read)&#45;&gt;#2 Function (anon) -->
<g id="edge7" class="edge">
<title>#1 Variable (read)&#45;&gt;#2 Function (anon)</title>
<path fill="none" stroke="#0000ff" d="M225.5718,-846.5432C219.7066,-840.9087 213.4821,-834.4463 208.3408,-828 188.6286,-803.284 170.3064,-772.0277 158.3621,-750.0681"/>
<polygon fill="#0000ff" stroke="#0000ff" points="161.3018,-748.1436 153.4947,-740.9813 155.1313,-751.449 161.3018,-748.1436"/>
<text text-anchor="middle" x="217.8408" y="-816.8" font-family="Times,serif" font-size="14.00" fill="#0000ff">init</text>
</g>
<!-- #6 Variable (f)&#45;&gt;#18 ExpressionStatement -->
<g id="edge12" class="edge">
<title>#6 Variable (f)&#45;&gt;#18 ExpressionStatement</title>
<path fill="none" stroke="#ff0000" d="M470.877,-759.9312C478.9855,-753.9918 488.0981,-747.2511 496.3408,-741 517.0262,-725.3127 518.9706,-716.3052 542.3408,-705 561.8846,-695.5458 584.1036,-688.4614 605.3079,-683.1964"/>
<polygon fill="#ff0000" stroke="#ff0000" points="606.3684,-686.542 615.2914,-680.8296 604.7537,-679.7308 606.3684,-686.542"/>
</g>
<!-- #28 CFG_F_START 7_anon -->
<g id="node8" class="node">
<title>#28 CFG_F_START 7_anon</title>
<ellipse fill="none" stroke="#ff0000" cx="377.3408" cy="-615" rx="113.18" ry="18"/>
<text text-anchor="middle" x="377.3408" y="-611.3" font-family="Times,serif" font-size="14.00" fill="#ff0000">#28 CFG_F_START 7_anon</text>
</g>
<!-- #6 Variable (f)&#45;&gt;#28 CFG_F_START 7_anon -->
<g id="edge11" class="edge">
<title>#6 Variable (f)&#45;&gt;#28 CFG_F_START 7_anon</title>
<path fill="none" stroke="#cd9b1d" d="M436.8589,-759.1691C426.6491,-741.3203 411.132,-712.8667 400.3408,-687 394.3822,-672.717 389.0323,-656.313 384.9949,-642.7737"/>
<polygon fill="#cd9b1d" stroke="#cd9b1d" points="388.3244,-641.6886 382.1749,-633.061 381.602,-643.6404 388.3244,-641.6886"/>
<text text-anchor="middle" x="434.3408" y="-719.3" font-family="Times,serif" font-size="14.00" fill="#cd9b1d">FD</text>
</g>
<!-- #7 Function (anon) -->
<g id="node11" class="node">
<title>#7 Function (anon)</title>
<ellipse fill="none" stroke="#000000" cx="488.3408" cy="-669" rx="78.7863" ry="18"/>
<text text-anchor="middle" x="488.3408" y="-665.3" font-family="Times,serif" font-size="14.00" fill="#000000">#7 Function (anon)</text>
</g>
<!-- #6 Variable (f)&#45;&gt;#7 Function (anon) -->
<g id="edge10" class="edge">
<title>#6 Variable (f)&#45;&gt;#7 Function (anon)</title>
<path fill="none" stroke="#0000ff" d="M454.2959,-758.6793C460.7551,-741.6649 470.4615,-716.0967 477.8596,-696.6091"/>
<polygon fill="#0000ff" stroke="#0000ff" points="481.2114,-697.6414 481.4885,-687.0502 474.6671,-695.1569 481.2114,-697.6414"/>
<text text-anchor="middle" x="482.8408" y="-719.3" font-family="Times,serif" font-size="14.00" fill="#0000ff">init</text>
</g>
<!-- #19 AssignmentExpression -->
<g id="node12" class="node">
<title>#19 AssignmentExpression</title>
<ellipse fill="none" stroke="#000000" cx="933.3408" cy="-561" rx="107.781" ry="18"/>
<text text-anchor="middle" x="933.3408" y="-557.3" font-family="Times,serif" font-size="14.00" fill="#000000">#19 AssignmentExpression</text>
</g>
<!-- #18 ExpressionStatement&#45;&gt;#19 AssignmentExpression -->
<g id="edge13" class="edge">
<title>#18 ExpressionStatement&#45;&gt;#19 AssignmentExpression</title>
<path fill="none" stroke="#0000ff" d="M728.8878,-652.2435C771.2412,-633.342 840.1915,-602.5708 886.151,-582.0599"/>
<polygon fill="#0000ff" stroke="#0000ff" points="887.6009,-585.2457 895.3064,-577.9741 884.7481,-578.8533 887.6009,-585.2457"/>
<text text-anchor="middle" x="876.3408" y="-611.3" font-family="Times,serif" font-size="14.00" fill="#0000ff">expression</text>
</g>
<!-- #25 CFG_F_END __main__ -->
<g id="node13" class="node">
<title>#25 CFG_F_END __main__</title>
<ellipse fill="none" stroke="#ff0000" cx="694.3408" cy="-561" rx="113.18" ry="18"/>
<text text-anchor="middle" x="694.3408" y="-557.3" font-family="Times,serif" font-size="14.00" fill="#ff0000">#25 CFG_F_END __main__</text>
</g>
<!-- #18 ExpressionStatement&#45;&gt;#25 CFG_F_END __main__ -->
<g id="edge14" class="edge">
<title>#18 ExpressionStatement&#45;&gt;#25 CFG_F_END __main__</title>
<path fill="none" stroke="#ff0000" d="M691.8497,-650.6793C692.318,-633.821 693.0196,-608.5651 693.559,-589.147"/>
<polygon fill="#ff0000" stroke="#ff0000" points="697.0603,-589.1435 693.8394,-579.0502 690.063,-588.9491 697.0603,-589.1435"/>
</g>
<!-- #24 CFG_F_START __main__ -->
<g id="node5" class="node">
<title>#24 CFG_F_START __main__</title>
<ellipse fill="none" stroke="#ff0000" cx="245.3408" cy="-951" rx="122.6784" ry="18"/>
<text text-anchor="middle" x="245.3408" y="-947.3" font-family="Times,serif" font-size="14.00" fill="#ff0000">#24 CFG_F_START __main__</text>
</g>
<!-- #24 CFG_F_START __main__&#45;&gt;#1 Variable (read) -->
<g id="edge4" class="edge">
<title>#24 CFG_F_START __main__&#45;&gt;#1 Variable (read)</title>
<path fill="none" stroke="#ff0000" d="M245.3408,-932.9735C245.3408,-921.1918 245.3408,-905.5607 245.3408,-892.1581"/>
<polygon fill="#ff0000" stroke="#ff0000" points="248.8409,-892.0033 245.3408,-882.0034 241.8409,-892.0034 248.8409,-892.0033"/>
</g>
<!-- #3 ReturnStatement -->
<g id="node7" class="node">
<title>#3 ReturnStatement</title>
<ellipse fill="none" stroke="#000000" cx="152.3408" cy="-279" rx="81.4863" ry="18"/>
<text text-anchor="middle" x="152.3408" y="-275.3" font-family="Times,serif" font-size="14.00" fill="#000000">#3 ReturnStatement</text>
</g>
<!-- #26 CFG_F_START 2_anon&#45;&gt;#3 ReturnStatement -->
<g id="edge5" class="edge">
<title>#26 CFG_F_START 2_anon&#45;&gt;#3 ReturnStatement</title>
<path fill="none" stroke="#ff0000" d="M227.6568,-347.9735C213.68,-335.1738 194.7423,-317.8308 179.3534,-303.7379"/>
<polygon fill="#ff0000" stroke="#ff0000" points="181.4132,-300.8783 171.6746,-296.7057 176.6856,-306.0406 181.4132,-300.8783"/>
</g>
<!-- #4 Literal -->
<g id="node14" class="node">
<title>#4 Literal</title>
<ellipse fill="none" stroke="#000000" cx="270.3408" cy="-192" rx="45.4919" ry="18"/>
<text text-anchor="middle" x="270.3408" y="-188.3" font-family="Times,serif" font-size="14.00" fill="#000000">#4 Literal</text>
</g>
<!-- #3 ReturnStatement&#45;&gt;#4 Literal -->
<g id="edge15" class="edge">
<title>#3 ReturnStatement&#45;&gt;#4 Literal</title>
<path fill="none" stroke="#0000ff" d="M175.9363,-261.6033C194.5328,-247.8924 220.5759,-228.6911 240.5993,-213.9281"/>
<polygon fill="#0000ff" stroke="#0000ff" points="242.801,-216.6532 248.7729,-207.9018 238.647,-211.019 242.801,-216.6532"/>
<text text-anchor="middle" x="245.3408" y="-231.8" font-family="Times,serif" font-size="14.00" fill="#0000ff">argument</text>
</g>
<!-- #27 CFG_F_END 2_anon -->
<g id="node15" class="node">
<title>#27 CFG_F_END 2_anon</title>
<ellipse fill="none" stroke="#ff0000" cx="103.3408" cy="-192" rx="103.1819" ry="18"/>
<text text-anchor="middle" x="103.3408" y="-188.3" font-family="Times,serif" font-size="14.00" fill="#ff0000">#27 CFG_F_END 2_anon</text>
</g>
<!-- #3 ReturnStatement&#45;&gt;#27 CFG_F_END 2_anon -->
<g id="edge16" class="edge">
<title>#3 ReturnStatement&#45;&gt;#27 CFG_F_END 2_anon</title>
<path fill="none" stroke="#ff0000" d="M142.188,-260.9735C135.3552,-248.8418 126.2236,-232.6287 118.5307,-218.9698"/>
<polygon fill="#ff0000" stroke="#ff0000" points="121.4377,-216.9989 113.4807,-210.0034 115.3385,-220.4341 121.4377,-216.9989"/>
</g>
<!-- #8 Variable (s) -->
<g id="node9" class="node">
<title>#8 Variable (s)</title>
<ellipse fill="none" stroke="#000000" cx="483.3408" cy="-453" rx="63.8893" ry="18"/>
<text text-anchor="middle" x="483.3408" y="-449.3" font-family="Times,serif" font-size="14.00" fill="#000000">#8 Variable (s)</text>
</g>
<!-- #28 CFG_F_START 7_anon&#45;&gt;#8 Variable (s) -->
<g id="edge6" class="edge">
<title>#28 CFG_F_START 7_anon&#45;&gt;#8 Variable (s)</title>
<path fill="none" stroke="#ff0000" d="M376.9144,-596.8342C377.2829,-581.6371 379.5482,-559.8065 388.3408,-543 402.6591,-515.6317 428.5625,-491.9494 449.7079,-475.7567"/>
<polygon fill="#ff0000" stroke="#ff0000" points="451.9009,-478.4876 457.8388,-469.7131 447.7251,-472.8695 451.9009,-478.4876"/>
</g>
<!-- #8 Variable (s)&#45;&gt;#26 CFG_F_START 2_anon -->
<g id="edge20" class="edge">
<title>#8 Variable (s)&#45;&gt;#26 CFG_F_START 2_anon</title>
<path fill="none" stroke="#000000" d="M444.3702,-438.6337C405.5435,-424.3205 345.5898,-402.2189 302.0113,-386.154"/>
<polygon fill="#000000" stroke="#000000" points="303.0144,-382.7935 292.421,-382.6185 300.5931,-389.3615 303.0144,-382.7935"/>
<text text-anchor="middle" x="388.8408" y="-405.8" font-family="Times,serif" font-size="14.00" fill="#000000">CG</text>
</g>
<!-- #9 CallExpression -->
<g id="node16" class="node">
<title>#9 CallExpression</title>
<ellipse fill="none" stroke="#000000" cx="491.3408" cy="-366" rx="75.2868" ry="18"/>
<text text-anchor="middle" x="491.3408" y="-362.3" font-family="Times,serif" font-size="14.00" fill="#000000">#9 CallExpression</text>
</g>
<!-- #8 Variable (s)&#45;&gt;#9 CallExpression -->
<g id="edge17" class="edge">
<title>#8 Variable (s)&#45;&gt;#9 CallExpression</title>
<path fill="none" stroke="#0000ff" d="M484.9984,-434.9735C486.0818,-423.1918 487.5192,-407.5607 488.7516,-394.1581"/>
<polygon fill="#0000ff" stroke="#0000ff" points="492.2549,-394.2819 489.6853,-384.0034 485.2843,-393.6408 492.2549,-394.2819"/>
<text text-anchor="middle" x="496.8408" y="-405.8" font-family="Times,serif" font-size="14.00" fill="#0000ff">init</text>
</g>
<!-- #11 Variable (v1) -->
<g id="node17" class="node">
<title>#11 Variable (v1)</title>
<ellipse fill="none" stroke="#000000" cx="673.3408" cy="-279" rx="73.387" ry="18"/>
<text text-anchor="middle" x="673.3408" y="-275.3" font-family="Times,serif" font-size="14.00" fill="#000000">#11 Variable (v1)</text>
</g>
<!-- #8 Variable (s)&#45;&gt;#11 Variable (v1) -->
<g id="edge18" class="edge">
<title>#8 Variable (s)&#45;&gt;#11 Variable (v1)</title>
<path fill="none" stroke="#ff0000" d="M508.0819,-436.2417C527.1465,-422.9094 553.8008,-403.3419 575.3408,-384 603.4315,-358.7758 632.5743,-326.6604 651.6988,-304.6282"/>
<polygon fill="#ff0000" stroke="#ff0000" points="654.3961,-306.8597 658.2709,-296.9988 649.0925,-302.2911 654.3961,-306.8597"/>
</g>
<!-- #32 s&#45;o3 -->
<g id="node18" class="node">
<title>#32 s&#45;o3</title>
<ellipse fill="none" stroke="#006400" cx="664.3408" cy="-366" rx="41.6928" ry="18"/>
<text text-anchor="middle" x="664.3408" y="-362.3" font-family="Times,serif" font-size="14.00" fill="#006400">#32 s&#45;o3</text>
</g>
<!-- #8 Variable (s)&#45;&gt;#32 s&#45;o3 -->
<g id="edge19" class="edge">
<title>#8 Variable (s)&#45;&gt;#32 s&#45;o3</title>
<path fill="none" stroke="#006400" d="M537.1575,-443.2037C560.051,-437.6199 586.4578,-429.2278 608.3408,-417 620.8407,-410.0154 632.8387,-399.7454 642.5002,-390.2486"/>
<polygon fill="#006400" stroke="#006400" points="645.2217,-392.4717 649.7126,-382.8757 640.2177,-387.5767 645.2217,-392.4717"/>
<text text-anchor="middle" x="659.3408" y="-405.8" font-family="Times,serif" font-size="14.00" fill="#006400">CREATE s</text>
</g>
<!-- #5 BlockStatement -->
<g id="node19" class="node">
<title>#5 BlockStatement</title>
<ellipse fill="none" stroke="#000000" cx="118.3408" cy="-507" rx="78.7863" ry="18"/>
<text text-anchor="middle" x="118.3408" y="-503.3" font-family="Times,serif" font-size="14.00" fill="#000000">#5 BlockStatement</text>
</g>
<!-- #2 Function (anon)&#45;&gt;#5 BlockStatement -->
<g id="edge21" class="edge">
<title>#2 Function (anon)&#45;&gt;#5 BlockStatement</title>
<path fill="none" stroke="#0000ff" d="M142.1688,-704.9555C137.6379,-667.3144 127.1503,-580.1867 121.7262,-535.1246"/>
<polygon fill="#0000ff" stroke="#0000ff" points="125.195,-534.6551 120.525,-525.1451 118.2452,-535.4917 125.195,-534.6551"/>
<text text-anchor="middle" x="149.8408" y="-611.3" font-family="Times,serif" font-size="14.00" fill="#0000ff">block</text>
</g>
<!-- #17 BlockStatement -->
<g id="node20" class="node">
<title>#17 BlockStatement</title>
<ellipse fill="none" stroke="#000000" cx="480.3408" cy="-561" rx="83.3857" ry="18"/>
<text text-anchor="middle" x="480.3408" y="-557.3" font-family="Times,serif" font-size="14.00" fill="#000000">#17 BlockStatement</text>
</g>
<!-- #7 Function (anon)&#45;&gt;#17 BlockStatement -->
<g id="edge22" class="edge">
<title>#7 Function (anon)&#45;&gt;#17 BlockStatement</title>
<path fill="none" stroke="#0000ff" d="M490.9869,-650.8493C492.6653,-636.2296 494.0577,-615.1892 491.3408,-597 490.9384,-594.3055 490.3753,-591.5339 489.7146,-588.7819"/>
<polygon fill="#0000ff" stroke="#0000ff" points="493.0644,-587.7642 487.0064,-579.0722 486.3217,-589.6449 493.0644,-587.7642"/>
<text text-anchor="middle" x="507.8408" y="-611.3" font-family="Times,serif" font-size="14.00" fill="#0000ff">block</text>
</g>
<!-- #20 MemberExpression -->
<g id="node21" class="node">
<title>#20 MemberExpression</title>
<ellipse fill="none" stroke="#000000" cx="1039.3408" cy="-453" rx="96.3833" ry="18"/>
<text text-anchor="middle" x="1039.3408" y="-449.3" font-family="Times,serif" font-size="14.00" fill="#000000">#20 MemberExpression</text>
</g>
<!-- #19 AssignmentExpression&#45;&gt;#20 MemberExpression -->
<g id="edge23" class="edge">
<title>#19 AssignmentExpression&#45;&gt;#20 MemberExpression</title>
<path fill="none" stroke="#0000ff" d="M950.8446,-543.166C968.2598,-525.4222 995.1383,-498.0365 1014.705,-478.1007"/>
<polygon fill="#0000ff" stroke="#0000ff" points="1017.3043,-480.449 1021.8111,-470.8605 1012.3085,-475.5457 1017.3043,-480.449"/>
<text text-anchor="middle" x="1010.8408" y="-503.3" font-family="Times,serif" font-size="14.00" fill="#0000ff">left</text>
</g>
<!-- #23 Identifier (f) -->
<g id="node22" class="node">
<title>#23 Identifier (f)</title>
<ellipse fill="none" stroke="#000000" cx="855.3408" cy="-453" rx="70.3881" ry="18"/>
<text text-anchor="middle" x="855.3408" y="-449.3" font-family="Times,serif" font-size="14.00" fill="#000000">#23 Identifier (f)</text>
</g>
<!-- #19 AssignmentExpression&#45;&gt;#23 Identifier (f) -->
<g id="edge24" class="edge">
<title>#19 AssignmentExpression&#45;&gt;#23 Identifier (f)</title>
<path fill="none" stroke="#0000ff" d="M920.1092,-542.6793C907.5392,-525.2746 888.5048,-498.9193 874.3194,-479.278"/>
<polygon fill="#0000ff" stroke="#0000ff" points="877.0694,-477.1077 868.3771,-471.0502 871.3946,-481.2062 877.0694,-477.1077"/>
<text text-anchor="middle" x="918.3408" y="-503.3" font-family="Times,serif" font-size="14.00" fill="#0000ff">right</text>
</g>
<!-- #10 Identifier (read) -->
<g id="node23" class="node">
<title>#10 Identifier (read)</title>
<ellipse fill="none" stroke="#000000" cx="499.3408" cy="-279" rx="82.5854" ry="18"/>
<text text-anchor="middle" x="499.3408" y="-275.3" font-family="Times,serif" font-size="14.00" fill="#000000">#10 Identifier (read)</text>
</g>
<!-- #9 CallExpression&#45;&gt;#10 Identifier (read) -->
<g id="edge25" class="edge">
<title>#9 CallExpression&#45;&gt;#10 Identifier (read)</title>
<path fill="none" stroke="#0000ff" d="M492.9984,-347.9735C494.0818,-336.1918 495.5192,-320.5607 496.7516,-307.1581"/>
<polygon fill="#0000ff" stroke="#0000ff" points="500.2549,-307.2819 497.6853,-297.0034 493.2843,-306.6408 500.2549,-307.2819"/>
<text text-anchor="middle" x="511.3408" y="-318.8" font-family="Times,serif" font-size="14.00" fill="#0000ff">callee</text>
</g>
<!-- #12 CallExpression -->
<g id="node24" class="node">
<title>#12 CallExpression</title>
<ellipse fill="none" stroke="#000000" cx="745.3408" cy="-192" rx="79.8859" ry="18"/>
<text text-anchor="middle" x="745.3408" y="-188.3" font-family="Times,serif" font-size="14.00" fill="#000000">#12 CallExpression</text>
</g>
<!-- #11 Variable (v1)&#45;&gt;#12 CallExpression -->
<g id="edge26" class="edge">
<title>#11 Variable (v1)&#45;&gt;#12 CallExpression</title>
<path fill="none" stroke="#0000ff" d="M688.2593,-260.9735C698.6578,-248.4087 712.6796,-231.4657 724.2234,-217.5168"/>
<polygon fill="#0000ff" stroke="#0000ff" points="727.0085,-219.6412 730.6878,-209.7057 721.6157,-215.1782 727.0085,-219.6412"/>
<text text-anchor="middle" x="722.8408" y="-231.8" font-family="Times,serif" font-size="14.00" fill="#0000ff">init</text>
</g>
<!-- #15 ReturnStatement -->
<g id="node25" class="node">
<title>#15 ReturnStatement</title>
<ellipse fill="none" stroke="#000000" cx="525.3408" cy="-105" rx="85.5853" ry="18"/>
<text text-anchor="middle" x="525.3408" y="-101.3" font-family="Times,serif" font-size="14.00" fill="#000000">#15 ReturnStatement</text>
</g>
<!-- #11 Variable (v1)&#45;&gt;#15 ReturnStatement -->
<g id="edge27" class="edge">
<title>#11 Variable (v1)&#45;&gt;#15 ReturnStatement</title>
<path fill="none" stroke="#ff0000" d="M625.7526,-265.1934C597.7545,-254.6011 564.074,-237.1031 544.3408,-210 528.1502,-187.7626 524.3493,-155.9973 524.0124,-133.2378"/>
<polygon fill="#ff0000" stroke="#ff0000" points="527.5127,-133.1983 524.0776,-123.1758 520.5128,-133.1529 527.5127,-133.1983"/>
</g>
<!-- #33 v1&#45;o4 -->
<g id="node26" class="node">
<title>#33 v1&#45;o4</title>
<ellipse fill="none" stroke="#006400" cx="600.3408" cy="-192" rx="46.5926" ry="18"/>
<text text-anchor="middle" x="600.3408" y="-188.3" font-family="Times,serif" font-size="14.00" fill="#006400">#33 v1&#45;o4</text>
</g>
<!-- #11 Variable (v1)&#45;&gt;#33 v1&#45;o4 -->
<g id="edge28" class="edge">
<title>#11 Variable (v1)&#45;&gt;#33 v1&#45;o4</title>
<path fill="none" stroke="#006400" d="M649.6918,-261.6542C643.0002,-256.1209 636.0042,-249.6864 630.3408,-243 624.1663,-235.7101 618.5188,-226.9862 613.8302,-218.8321"/>
<polygon fill="#006400" stroke="#006400" points="616.848,-217.0561 608.9671,-209.975 610.712,-220.4251 616.848,-217.0561"/>
<text text-anchor="middle" x="665.3408" y="-231.8" font-family="Times,serif" font-size="14.00" fill="#006400">CREATE v1</text>
</g>
<!-- #32 s&#45;o3&#45;&gt;#11 Variable (v1) -->
<g id="edge29" class="edge">
<title>#32 s&#45;o3&#45;&gt;#11 Variable (v1)</title>
<path fill="none" stroke="#006400" d="M666.2056,-347.9735C667.4244,-336.1918 669.0415,-320.5607 670.4279,-307.1581"/>
<polygon fill="#006400" stroke="#006400" points="673.9308,-307.3105 671.4784,-297.0034 666.9679,-306.5901 673.9308,-307.3105"/>
<text text-anchor="middle" x="688.3408" y="-318.8" font-family="Times,serif" font-size="14.00" fill="#006400">VAR s</text>
</g>
<!-- #5 BlockStatement&#45;&gt;#3 ReturnStatement -->
<g id="edge30" class="edge">
<title>#5 BlockStatement&#45;&gt;#3 ReturnStatement</title>
<path fill="none" stroke="#0000ff" d="M117.2159,-488.6336C115.8163,-458.7749 114.7603,-398.0102 125.3408,-348 128.3452,-333.7995 133.9465,-318.7123 139.2718,-306.2788"/>
<polygon fill="#0000ff" stroke="#0000ff" points="142.558,-307.503 143.4286,-296.9439 136.1633,-304.6554 142.558,-307.503"/>
<text text-anchor="middle" x="121.8408" y="-405.8" font-family="Times,serif" font-size="14.00" fill="#0000ff">1</text>
</g>
<!-- #17 BlockStatement&#45;&gt;#8 Variable (s) -->
<g id="edge31" class="edge">
<title>#17 BlockStatement&#45;&gt;#8 Variable (s)</title>
<path fill="none" stroke="#0000ff" d="M480.8497,-542.6793C481.318,-525.821 482.0196,-500.5651 482.559,-481.147"/>
<polygon fill="#0000ff" stroke="#0000ff" points="486.0603,-481.1435 482.8394,-471.0502 479.063,-480.9491 486.0603,-481.1435"/>
<text text-anchor="middle" x="484.8408" y="-503.3" font-family="Times,serif" font-size="14.00" fill="#0000ff">1</text>
</g>
<!-- #17 BlockStatement&#45;&gt;#11 Variable (v1) -->
<g id="edge32" class="edge">
<title>#17 BlockStatement&#45;&gt;#11 Variable (v1)</title>
<path fill="none" stroke="#0000ff" d="M513.4753,-544.3385C558.3516,-520.6028 639.1715,-473.5986 694.3408,-417 726.4203,-384.0894 732.0122,-356.0474 711.3408,-315 709.3086,-310.9646 706.6324,-307.1387 703.6391,-303.5932"/>
<polygon fill="#0000ff" stroke="#0000ff" points="706.1351,-301.1391 696.7064,-296.307 701.0639,-305.9643 706.1351,-301.1391"/>
<text text-anchor="middle" x="709.8408" y="-405.8" font-family="Times,serif" font-size="14.00" fill="#0000ff">2</text>
</g>
<!-- #17 BlockStatement&#45;&gt;#15 ReturnStatement -->
<g id="edge33" class="edge">
<title>#17 BlockStatement&#45;&gt;#15 ReturnStatement</title>
<path fill="none" stroke="#0000ff" d="M451.9871,-543.9765C424.9553,-525.3501 388.3408,-492.7787 388.3408,-453 388.3408,-453 388.3408,-453 388.3408,-192 388.3408,-155.9444 422.5741,-134.1962 456.8157,-121.461"/>
<polygon fill="#0000ff" stroke="#0000ff" points="458.1551,-124.7007 466.4454,-118.1036 455.8506,-118.0909 458.1551,-124.7007"/>
<text text-anchor="middle" x="391.8408" y="-318.8" font-family="Times,serif" font-size="14.00" fill="#0000ff">3</text>
</g>
<!-- #21 Identifier (module) -->
<g id="node27" class="node">
<title>#21 Identifier (module)</title>
<ellipse fill="none" stroke="#000000" cx="856.3408" cy="-366" rx="94.4839" ry="18"/>
<text text-anchor="middle" x="856.3408" y="-362.3" font-family="Times,serif" font-size="14.00" fill="#000000">#21 Identifier (module)</text>
</g>
<!-- #20 MemberExpression&#45;&gt;#21 Identifier (module) -->
<g id="edge34" class="edge">
<title>#20 MemberExpression&#45;&gt;#21 Identifier (module)</title>
<path fill="none" stroke="#0000ff" d="M1004.0566,-436.2255C974.5628,-422.2039 932.3462,-402.1337 900.5922,-387.0375"/>
<polygon fill="#0000ff" stroke="#0000ff" points="902.0509,-383.8557 891.5168,-382.723 899.0453,-390.1776 902.0509,-383.8557"/>
<text text-anchor="middle" x="975.3408" y="-405.8" font-family="Times,serif" font-size="14.00" fill="#0000ff">object</text>
</g>
<!-- #22 Identifier (exports) -->
<g id="node28" class="node">
<title>#22 Identifier (exports)</title>
<ellipse fill="none" stroke="#000000" cx="1061.3408" cy="-366" rx="92.8835" ry="18"/>
<text text-anchor="middle" x="1061.3408" y="-362.3" font-family="Times,serif" font-size="14.00" fill="#000000">#22 Identifier (exports)</text>
</g>
<!-- #20 MemberExpression&#45;&gt;#22 Identifier (exports) -->
<g id="edge35" class="edge">
<title>#20 MemberExpression&#45;&gt;#22 Identifier (exports)</title>
<path fill="none" stroke="#0000ff" d="M1043.8992,-434.9735C1046.908,-423.0751 1050.9096,-407.2508 1054.3209,-393.7606"/>
<polygon fill="#0000ff" stroke="#0000ff" points="1057.7298,-394.5563 1056.7883,-384.0034 1050.9434,-392.8401 1057.7298,-394.5563"/>
<text text-anchor="middle" x="1074.3408" y="-405.8" font-family="Times,serif" font-size="14.00" fill="#0000ff">property</text>
</g>
<!-- #13 Identifier (eval) -->
<g id="node29" class="node">
<title>#13 Identifier (eval)</title>
<ellipse fill="none" stroke="#000000" cx="728.3408" cy="-105" rx="81.7856" ry="18"/>
<text text-anchor="middle" x="728.3408" y="-101.3" font-family="Times,serif" font-size="14.00" fill="#000000">#13 Identifier (eval)</text>
</g>
<!-- #12 CallExpression&#45;&gt;#13 Identifier (eval) -->
<g id="edge36" class="edge">
<title>#12 CallExpression&#45;&gt;#13 Identifier (eval)</title>
<path fill="none" stroke="#0000ff" d="M741.8184,-173.9735C739.5162,-162.1918 736.4619,-146.5607 733.843,-133.1581"/>
<polygon fill="#0000ff" stroke="#0000ff" points="737.2116,-132.1465 731.8587,-123.0034 730.3415,-133.489 737.2116,-132.1465"/>
<text text-anchor="middle" x="753.3408" y="-144.8" font-family="Times,serif" font-size="14.00" fill="#0000ff">callee</text>
</g>
<!-- #14 Identifier (s) -->
<g id="node30" class="node">
<title>#14 Identifier (s)</title>
<ellipse fill="none" stroke="#000000" cx="899.3408" cy="-105" rx="70.6878" ry="18"/>
<text text-anchor="middle" x="899.3408" y="-101.3" font-family="Times,serif" font-size="14.00" fill="#000000">#14 Identifier (s)</text>
</g>
<!-- #12 CallExpression&#45;&gt;#14 Identifier (s) -->
<g id="edge37" class="edge">
<title>#12 CallExpression&#45;&gt;#14 Identifier (s)</title>
<path fill="none" stroke="#0000ff" d="M775.0336,-175.2255C799.5837,-161.3563 834.6091,-141.5692 861.2277,-126.5314"/>
<polygon fill="#0000ff" stroke="#0000ff" points="863.2764,-129.394 870.2615,-121.4279 859.8332,-123.2993 863.2764,-129.394"/>
<text text-anchor="middle" x="845.3408" y="-144.8" font-family="Times,serif" font-size="14.00" fill="#0000ff">arg 1</text>
</g>
<!-- #16 Identifier (v1) -->
<g id="node31" class="node">
<title>#16 Identifier (v1)</title>
<ellipse fill="none" stroke="#000000" cx="427.3408" cy="-18" rx="76.0865" ry="18"/>
<text text-anchor="middle" x="427.3408" y="-14.3" font-family="Times,serif" font-size="14.00" fill="#000000">#16 Identifier (v1)</text>
</g>
<!-- #15 ReturnStatement&#45;&gt;#16 Identifier (v1) -->
<g id="edge38" class="edge">
<title>#15 ReturnStatement&#45;&gt;#16 Identifier (v1)</title>
<path fill="none" stroke="#0000ff" d="M505.5091,-87.3943C490.8975,-74.4228 470.8453,-56.6213 454.709,-42.2962"/>
<polygon fill="#0000ff" stroke="#0000ff" points="456.9451,-39.6011 447.1431,-35.5796 452.2978,-44.8359 456.9451,-39.6011"/>
<text text-anchor="middle" x="507.3408" y="-57.8" font-family="Times,serif" font-size="14.00" fill="#0000ff">argument</text>
</g>
<!-- #29 CFG_F_END 7_anon -->
<g id="node32" class="node">
<title>#29 CFG_F_END 7_anon</title>
<ellipse fill="none" stroke="#ff0000" cx="624.3408" cy="-18" rx="103.1819" ry="18"/>
<text text-anchor="middle" x="624.3408" y="-14.3" font-family="Times,serif" font-size="14.00" fill="#ff0000">#29 CFG_F_END 7_anon</text>
</g>
<!-- #15 ReturnStatement&#45;&gt;#29 CFG_F_END 7_anon -->
<g id="edge39" class="edge">
<title>#15 ReturnStatement&#45;&gt;#29 CFG_F_END 7_anon</title>
<path fill="none" stroke="#ff0000" d="M545.375,-87.3943C560.0385,-74.5081 580.1261,-56.8554 596.3711,-42.5794"/>
<polygon fill="#ff0000" stroke="#ff0000" points="598.7954,-45.1084 603.9967,-35.8782 594.1746,-39.8503 598.7954,-45.1084"/>
</g>
<!-- #33 v1&#45;o4&#45;&gt;#15 ReturnStatement -->
<g id="edge40" class="edge">
<title>#33 v1&#45;o4&#45;&gt;#15 ReturnStatement</title>
<path fill="none" stroke="#006400" d="M585.5232,-174.8116C574.6746,-162.2272 559.7692,-144.9369 547.5065,-130.7122"/>
<polygon fill="#006400" stroke="#006400" points="549.8229,-128.0388 540.6425,-122.75 544.521,-132.6094 549.8229,-128.0388"/>
<text text-anchor="middle" x="589.3408" y="-144.8" font-family="Times,serif" font-size="14.00" fill="#006400">VAR v1</text>
</g>
</g>
</svg>
