<?xml version="1.0" encoding="UTF-8" standalone="no"?>
<!DOCTYPE svg PUBLIC "-//W3C//DTD SVG 1.1//EN"
 "http://www.w3.org/Graphics/SVG/1.1/DTD/svg11.dtd">
<!-- Generated by graphviz version 2.40.1 (20161225.0304)
 -->
<!-- Title: G Pages: 1 -->
<svg width="1748pt" height="1001pt"
 viewBox="0.00 0.00 1748.38 1001.00" xmlns="http://www.w3.org/2000/svg" xmlns:xlink="http://www.w3.org/1999/xlink">
<g id="graph0" class="graph" transform="scale(1 1) rotate(0) translate(4 997)">
<title>G</title>
<polygon fill="#ffffff" stroke="transparent" points="-4,4 -4,-997 1744.3829,-997 1744.3829,4 -4,4"/>
<!-- #0 Program -->
<g id="node1" class="node">
<title>#0 Program</title>
<ellipse fill="none" stroke="#000000" cx="810.8904" cy="-975" rx="52.7911" ry="18"/>
<text text-anchor="middle" x="810.8904" y="-971.3" font-family="Times,serif" font-size="14.00" fill="#000000">#0 Program</text>
</g>
<!-- #1 ExpressionStatement -->
<g id="node2" class="node">
<title>#1 ExpressionStatement</title>
<ellipse fill="none" stroke="#000000" cx="1124.8904" cy="-888" rx="96.6831" ry="18"/>
<text text-anchor="middle" x="1124.8904" y="-884.3" font-family="Times,serif" font-size="14.00" fill="#000000">#1 ExpressionStatement</text>
</g>
<!-- #0 Program&#45;&gt;#1 ExpressionStatement -->
<g id="edge1" class="edge">
<title>#0 Program&#45;&gt;#1 ExpressionStatement</title>
<path fill="none" stroke="#0000ff" d="M851.9404,-963.6263C905.1964,-948.8706 998.6693,-922.9721 1061.181,-905.652"/>
<polygon fill="#0000ff" stroke="#0000ff" points="1062.2346,-908.992 1070.937,-902.9489 1060.3655,-902.2461 1062.2346,-908.992"/>
<text text-anchor="middle" x="990.3904" y="-927.8" font-family="Times,serif" font-size="14.00" fill="#0000ff">1</text>
</g>
<!-- #5 ExpressionStatement -->
<g id="node3" class="node">
<title>#5 ExpressionStatement</title>
<ellipse fill="none" stroke="#000000" cx="978.8904" cy="-801" rx="96.6831" ry="18"/>
<text text-anchor="middle" x="978.8904" y="-797.3" font-family="Times,serif" font-size="14.00" fill="#000000">#5 ExpressionStatement</text>
</g>
<!-- #0 Program&#45;&gt;#5 ExpressionStatement -->
<g id="edge2" class="edge">
<title>#0 Program&#45;&gt;#5 ExpressionStatement</title>
<path fill="none" stroke="#0000ff" d="M840.7416,-959.9717C850.8624,-954.1502 861.8774,-946.9623 870.8904,-939 908.7031,-905.5951 942.8491,-857.5556 962.2099,-827.8622"/>
<polygon fill="#0000ff" stroke="#0000ff" points="965.2683,-829.5771 967.7314,-819.2725 959.3799,-825.7919 965.2683,-829.5771"/>
<text text-anchor="middle" x="936.3904" y="-884.3" font-family="Times,serif" font-size="14.00" fill="#0000ff">2</text>
</g>
<!-- #11 ExpressionStatement -->
<g id="node4" class="node">
<title>#11 ExpressionStatement</title>
<ellipse fill="none" stroke="#000000" cx="939.8904" cy="-627" rx="100.9827" ry="18"/>
<text text-anchor="middle" x="939.8904" y="-623.3" font-family="Times,serif" font-size="14.00" fill="#000000">#11 ExpressionStatement</text>
</g>
<!-- #0 Program&#45;&gt;#11 ExpressionStatement -->
<g id="edge3" class="edge">
<title>#0 Program&#45;&gt;#11 ExpressionStatement</title>
<path fill="none" stroke="#0000ff" d="M826.4639,-957.7467C839.8089,-941.1293 856.8904,-914.6534 856.8904,-888 856.8904,-888 856.8904,-888 856.8904,-714 856.8904,-686.9095 878.2194,-664.9279 899.2528,-649.8372"/>
<polygon fill="#0000ff" stroke="#0000ff" points="901.2549,-652.7085 907.5628,-644.1961 897.3233,-646.9169 901.2549,-652.7085"/>
<text text-anchor="middle" x="860.3904" y="-797.3" font-family="Times,serif" font-size="14.00" fill="#0000ff">3</text>
</g>
<!-- #17 ExpressionStatement -->
<g id="node5" class="node">
<title>#17 ExpressionStatement</title>
<ellipse fill="none" stroke="#000000" cx="911.8904" cy="-540" rx="100.9827" ry="18"/>
<text text-anchor="middle" x="911.8904" y="-536.3" font-family="Times,serif" font-size="14.00" fill="#000000">#17 ExpressionStatement</text>
</g>
<!-- #0 Program&#45;&gt;#17 ExpressionStatement -->
<g id="edge4" class="edge">
<title>#0 Program&#45;&gt;#17 ExpressionStatement</title>
<path fill="none" stroke="#0000ff" d="M810.8904,-956.6694C810.8904,-939.0629 810.8904,-911.7135 810.8904,-888 810.8904,-888 810.8904,-888 810.8904,-627 810.8904,-597.3958 836.1081,-575.6547 861.3419,-561.3102"/>
<polygon fill="#0000ff" stroke="#0000ff" points="863.0691,-564.3555 870.2267,-556.5441 859.7601,-558.187 863.0691,-564.3555"/>
<text text-anchor="middle" x="814.3904" y="-753.8" font-family="Times,serif" font-size="14.00" fill="#0000ff">4</text>
</g>
<!-- #23 Variable (v1) -->
<g id="node6" class="node">
<title>#23 Variable (v1)</title>
<ellipse fill="none" stroke="#000000" cx="772.8904" cy="-453" rx="73.387" ry="18"/>
<text text-anchor="middle" x="772.8904" y="-449.3" font-family="Times,serif" font-size="14.00" fill="#000000">#23 Variable (v1)</text>
</g>
<!-- #0 Program&#45;&gt;#23 Variable (v1) -->
<g id="edge5" class="edge">
<title>#0 Program&#45;&gt;#23 Variable (v1)</title>
<path fill="none" stroke="#0000ff" d="M798.0254,-957.3158C787.0013,-940.3939 772.8904,-913.7121 772.8904,-888 772.8904,-888 772.8904,-888 772.8904,-540 772.8904,-520.5475 772.8904,-498.6484 772.8904,-481.6877"/>
<polygon fill="#0000ff" stroke="#0000ff" points="776.3905,-481.3305 772.8904,-471.3306 769.3905,-481.3306 776.3905,-481.3305"/>
<text text-anchor="middle" x="776.3904" y="-710.3" font-family="Times,serif" font-size="14.00" fill="#0000ff">5</text>
</g>
<!-- #27 ExpressionStatement -->
<g id="node7" class="node">
<title>#27 ExpressionStatement</title>
<ellipse fill="none" stroke="#000000" cx="558.8904" cy="-366" rx="100.9827" ry="18"/>
<text text-anchor="middle" x="558.8904" y="-362.3" font-family="Times,serif" font-size="14.00" fill="#000000">#27 ExpressionStatement</text>
</g>
<!-- #0 Program&#45;&gt;#27 ExpressionStatement -->
<g id="edge6" class="edge">
<title>#0 Program&#45;&gt;#27 ExpressionStatement</title>
<path fill="none" stroke="#0000ff" d="M765.1966,-965.9405C702.6102,-952.1992 597.8904,-923.8505 597.8904,-888 597.8904,-888 597.8904,-888 597.8904,-453 597.8904,-431.3526 587.7121,-409.1175 577.755,-392.5448"/>
<polygon fill="#0000ff" stroke="#0000ff" points="580.6227,-390.5314 572.312,-383.96 574.7108,-394.2797 580.6227,-390.5314"/>
<text text-anchor="middle" x="601.3904" y="-666.8" font-family="Times,serif" font-size="14.00" fill="#0000ff">6</text>
</g>
<!-- #31 ExpressionStatement -->
<g id="node8" class="node">
<title>#31 ExpressionStatement</title>
<ellipse fill="none" stroke="#000000" cx="342.8904" cy="-279" rx="100.9827" ry="18"/>
<text text-anchor="middle" x="342.8904" y="-275.3" font-family="Times,serif" font-size="14.00" fill="#000000">#31 ExpressionStatement</text>
</g>
<!-- #0 Program&#45;&gt;#31 ExpressionStatement -->
<g id="edge7" class="edge">
<title>#0 Program&#45;&gt;#31 ExpressionStatement</title>
<path fill="none" stroke="#0000ff" d="M760.1673,-969.8621C647.624,-957.7782 386.8904,-925.7133 386.8904,-888 386.8904,-888 386.8904,-888 386.8904,-366 386.8904,-344.0068 375.5549,-321.9263 364.391,-305.5131"/>
<polygon fill="#0000ff" stroke="#0000ff" points="366.9593,-303.0897 358.2795,-297.0143 361.2761,-307.1765 366.9593,-303.0897"/>
<text text-anchor="middle" x="390.3904" y="-623.3" font-family="Times,serif" font-size="14.00" fill="#0000ff">7</text>
</g>
<!-- #1 ExpressionStatement&#45;&gt;#5 ExpressionStatement -->
<g id="edge10" class="edge">
<title>#1 ExpressionStatement&#45;&gt;#5 ExpressionStatement</title>
<path fill="none" stroke="#ff0000" d="M1096.0455,-870.8116C1073.3973,-857.3157 1041.6662,-838.4075 1016.9386,-823.6726"/>
<polygon fill="#ff0000" stroke="#ff0000" points="1018.5573,-820.5628 1008.1751,-818.4505 1014.974,-826.5762 1018.5573,-820.5628"/>
</g>
<!-- #2 AssignmentExpression -->
<g id="node10" class="node">
<title>#2 AssignmentExpression</title>
<ellipse fill="none" stroke="#000000" cx="1485.8904" cy="-801" rx="103.1819" ry="18"/>
<text text-anchor="middle" x="1485.8904" y="-797.3" font-family="Times,serif" font-size="14.00" fill="#000000">#2 AssignmentExpression</text>
</g>
<!-- #1 ExpressionStatement&#45;&gt;#2 AssignmentExpression -->
<g id="edge9" class="edge">
<title>#1 ExpressionStatement&#45;&gt;#2 AssignmentExpression</title>
<path fill="none" stroke="#0000ff" d="M1184.098,-873.7311C1247.36,-858.4852 1347.6191,-834.323 1415.0306,-818.077"/>
<polygon fill="#0000ff" stroke="#0000ff" points="1416.2415,-821.3855 1425.1431,-815.6399 1414.6014,-814.5803 1416.2415,-821.3855"/>
<text text-anchor="middle" x="1355.8904" y="-840.8" font-family="Times,serif" font-size="14.00" fill="#0000ff">expression</text>
</g>
<!-- #39 PDG_OBJECT o1 -->
<g id="node11" class="node">
<title>#39 PDG_OBJECT o1</title>
<ellipse fill="none" stroke="#006400" cx="1184.8904" cy="-801" rx="91.784" ry="18"/>
<text text-anchor="middle" x="1184.8904" y="-797.3" font-family="Times,serif" font-size="14.00" fill="#006400">#39 PDG_OBJECT o1</text>
</g>
<!-- #1 ExpressionStatement&#45;&gt;#39 PDG_OBJECT o1 -->
<g id="edge11" class="edge">
<title>#1 ExpressionStatement&#45;&gt;#39 PDG_OBJECT o1</title>
<path fill="none" stroke="#006400" d="M1137.3225,-869.9735C1145.7696,-857.7252 1157.0859,-841.3165 1166.5618,-827.5766"/>
<polygon fill="#006400" stroke="#006400" points="1169.6782,-829.2226 1172.4743,-819.0034 1163.9157,-825.2484 1169.6782,-829.2226"/>
<text text-anchor="middle" x="1192.8904" y="-840.8" font-family="Times,serif" font-size="14.00" fill="#006400">CREATE o1</text>
</g>
<!-- #5 ExpressionStatement&#45;&gt;#11 ExpressionStatement -->
<g id="edge13" class="edge">
<title>#5 ExpressionStatement&#45;&gt;#11 ExpressionStatement</title>
<path fill="none" stroke="#ff0000" d="M974.7905,-782.7078C967.9553,-752.2127 954.1895,-690.796 946.14,-654.8826"/>
<polygon fill="#ff0000" stroke="#ff0000" points="949.5379,-654.0395 943.9355,-645.0471 942.7074,-655.5705 949.5379,-654.0395"/>
</g>
<!-- #6 AssignmentExpression -->
<g id="node12" class="node">
<title>#6 AssignmentExpression</title>
<ellipse fill="none" stroke="#000000" cx="1296.8904" cy="-714" rx="103.1819" ry="18"/>
<text text-anchor="middle" x="1296.8904" y="-710.3" font-family="Times,serif" font-size="14.00" fill="#000000">#6 AssignmentExpression</text>
</g>
<!-- #5 ExpressionStatement&#45;&gt;#6 AssignmentExpression -->
<g id="edge12" class="edge">
<title>#5 ExpressionStatement&#45;&gt;#6 AssignmentExpression</title>
<path fill="none" stroke="#0000ff" d="M1049.1454,-788.5559C1060.7401,-786.6173 1072.6432,-784.6969 1083.8904,-783 1145.0512,-773.7727 1164.0778,-786.9882 1221.8904,-765 1238.4304,-758.7093 1254.9022,-748.1132 1268.1781,-738.2041"/>
<polygon fill="#0000ff" stroke="#0000ff" points="1270.6365,-740.7277 1276.4094,-731.8438 1266.3564,-735.1886 1270.6365,-740.7277"/>
<text text-anchor="middle" x="1278.8904" y="-753.8" font-family="Times,serif" font-size="14.00" fill="#0000ff">expression</text>
</g>
<!-- #40 PDG_OBJECT o2 -->
<g id="node13" class="node">
<title>#40 PDG_OBJECT o2</title>
<ellipse fill="none" stroke="#006400" cx="1071.8904" cy="-714" rx="91.784" ry="18"/>
<text text-anchor="middle" x="1071.8904" y="-710.3" font-family="Times,serif" font-size="14.00" fill="#006400">#40 PDG_OBJECT o2</text>
</g>
<!-- #5 ExpressionStatement&#45;&gt;#40 PDG_OBJECT o2 -->
<g id="edge14" class="edge">
<title>#5 ExpressionStatement&#45;&gt;#40 PDG_OBJECT o2</title>
<path fill="none" stroke="#006400" d="M998.1601,-782.9735C1011.8426,-770.1738 1030.3817,-752.8308 1045.4465,-738.7379"/>
<polygon fill="#006400" stroke="#006400" points="1048.052,-741.0933 1052.9637,-731.7057 1043.2699,-735.9813 1048.052,-741.0933"/>
<text text-anchor="middle" x="1057.8904" y="-753.8" font-family="Times,serif" font-size="14.00" fill="#006400">WRITE f</text>
</g>
<!-- #11 ExpressionStatement&#45;&gt;#17 ExpressionStatement -->
<g id="edge16" class="edge">
<title>#11 ExpressionStatement&#45;&gt;#17 ExpressionStatement</title>
<path fill="none" stroke="#ff0000" d="M934.0888,-608.9735C930.2594,-597.0751 925.1665,-581.2508 920.8249,-567.7606"/>
<polygon fill="#ff0000" stroke="#ff0000" points="924.08,-566.4502 917.6846,-558.0034 917.4166,-568.5948 924.08,-566.4502"/>
</g>
<!-- #12 AssignmentExpression -->
<g id="node14" class="node">
<title>#12 AssignmentExpression</title>
<ellipse fill="none" stroke="#000000" cx="1138.8904" cy="-540" rx="107.781" ry="18"/>
<text text-anchor="middle" x="1138.8904" y="-536.3" font-family="Times,serif" font-size="14.00" fill="#000000">#12 AssignmentExpression</text>
</g>
<!-- #11 ExpressionStatement&#45;&gt;#12 AssignmentExpression -->
<g id="edge15" class="edge">
<title>#11 ExpressionStatement&#45;&gt;#12 AssignmentExpression</title>
<path fill="none" stroke="#0000ff" d="M978.2596,-610.2255C1010.3665,-596.1889 1056.3383,-576.0906 1090.8812,-560.9889"/>
<polygon fill="#0000ff" stroke="#0000ff" points="1092.5394,-564.0839 1100.3,-556.8712 1089.7354,-557.6701 1092.5394,-564.0839"/>
<text text-anchor="middle" x="1080.8904" y="-579.8" font-family="Times,serif" font-size="14.00" fill="#0000ff">expression</text>
</g>
<!-- #17 ExpressionStatement&#45;&gt;#23 Variable (v1) -->
<g id="edge18" class="edge">
<title>#17 ExpressionStatement&#45;&gt;#23 Variable (v1)</title>
<path fill="none" stroke="#ff0000" d="M884.0958,-522.6033C862.3179,-508.9726 831.8704,-489.9155 808.3396,-475.1876"/>
<polygon fill="#ff0000" stroke="#ff0000" points="810.0258,-472.114 799.6923,-469.7753 806.312,-478.0476 810.0258,-472.114"/>
</g>
<!-- #18 AssignmentExpression -->
<g id="node15" class="node">
<title>#18 AssignmentExpression</title>
<ellipse fill="none" stroke="#000000" cx="971.8904" cy="-453" rx="107.781" ry="18"/>
<text text-anchor="middle" x="971.8904" y="-449.3" font-family="Times,serif" font-size="14.00" fill="#000000">#18 AssignmentExpression</text>
</g>
<!-- #17 ExpressionStatement&#45;&gt;#18 AssignmentExpression -->
<g id="edge17" class="edge">
<title>#17 ExpressionStatement&#45;&gt;#18 AssignmentExpression</title>
<path fill="none" stroke="#0000ff" d="M924.3225,-521.9735C932.7696,-509.7252 944.0859,-493.3165 953.5618,-479.5766"/>
<polygon fill="#0000ff" stroke="#0000ff" points="956.6782,-481.2226 959.4743,-471.0034 950.9157,-477.2484 956.6782,-481.2226"/>
<text text-anchor="middle" x="974.8904" y="-492.8" font-family="Times,serif" font-size="14.00" fill="#0000ff">expression</text>
</g>
<!-- #23 Variable (v1)&#45;&gt;#27 ExpressionStatement -->
<g id="edge20" class="edge">
<title>#23 Variable (v1)&#45;&gt;#27 ExpressionStatement</title>
<path fill="none" stroke="#ff0000" d="M734.6315,-437.4461C699.6092,-423.2081 647.5481,-402.0431 609.175,-386.4428"/>
<polygon fill="#ff0000" stroke="#ff0000" points="610.3146,-383.1279 599.7327,-382.6041 607.6783,-389.6126 610.3146,-383.1279"/>
</g>
<!-- #24 BinaryExpression (+) -->
<g id="node16" class="node">
<title>#24 BinaryExpression (+)</title>
<ellipse fill="none" stroke="#000000" cx="779.8904" cy="-366" rx="102.8821" ry="18"/>
<text text-anchor="middle" x="779.8904" y="-362.3" font-family="Times,serif" font-size="14.00" fill="#000000">#24 BinaryExpression (+)</text>
</g>
<!-- #23 Variable (v1)&#45;&gt;#24 BinaryExpression (+) -->
<g id="edge19" class="edge">
<title>#23 Variable (v1)&#45;&gt;#24 BinaryExpression (+)</title>
<path fill="none" stroke="#0000ff" d="M774.3408,-434.9735C775.2888,-423.1918 776.5465,-407.5607 777.6248,-394.1581"/>
<polygon fill="#0000ff" stroke="#0000ff" points="781.1285,-394.2519 778.4419,-384.0034 774.1511,-393.6904 781.1285,-394.2519"/>
<text text-anchor="middle" x="786.3904" y="-405.8" font-family="Times,serif" font-size="14.00" fill="#0000ff">init</text>
</g>
<!-- #27 ExpressionStatement&#45;&gt;#31 ExpressionStatement -->
<g id="edge22" class="edge">
<title>#27 ExpressionStatement&#45;&gt;#31 ExpressionStatement</title>
<path fill="none" stroke="#ff0000" d="M518.0085,-349.5337C482.6048,-335.2738 431.2583,-314.5926 393.3127,-299.309"/>
<polygon fill="#ff0000" stroke="#ff0000" points="394.5556,-296.0364 383.9721,-295.5468 391.9403,-302.5295 394.5556,-296.0364"/>
</g>
<!-- #28 AssignmentExpression -->
<g id="node17" class="node">
<title>#28 AssignmentExpression</title>
<ellipse fill="none" stroke="#000000" cx="569.8904" cy="-279" rx="107.781" ry="18"/>
<text text-anchor="middle" x="569.8904" y="-275.3" font-family="Times,serif" font-size="14.00" fill="#000000">#28 AssignmentExpression</text>
</g>
<!-- #27 ExpressionStatement&#45;&gt;#28 AssignmentExpression -->
<g id="edge21" class="edge">
<title>#27 ExpressionStatement&#45;&gt;#28 AssignmentExpression</title>
<path fill="none" stroke="#0000ff" d="M561.1696,-347.9735C562.6593,-336.1918 564.6356,-320.5607 566.3302,-307.1581"/>
<polygon fill="#0000ff" stroke="#0000ff" points="569.832,-307.3634 567.6141,-297.0034 562.8873,-306.4853 569.832,-307.3634"/>
<text text-anchor="middle" x="594.8904" y="-318.8" font-family="Times,serif" font-size="14.00" fill="#0000ff">expression</text>
</g>
<!-- #32 AssignmentExpression -->
<g id="node18" class="node">
<title>#32 AssignmentExpression</title>
<ellipse fill="none" stroke="#000000" cx="107.8904" cy="-192" rx="107.781" ry="18"/>
<text text-anchor="middle" x="107.8904" y="-188.3" font-family="Times,serif" font-size="14.00" fill="#000000">#32 AssignmentExpression</text>
</g>
<!-- #31 ExpressionStatement&#45;&gt;#32 AssignmentExpression -->
<g id="edge23" class="edge">
<title>#31 ExpressionStatement&#45;&gt;#32 AssignmentExpression</title>
<path fill="none" stroke="#0000ff" d="M298.9644,-262.738C260.1418,-248.3654 203.3884,-227.3546 161.8208,-211.9657"/>
<polygon fill="#0000ff" stroke="#0000ff" points="162.9923,-208.6673 152.3992,-208.4777 160.562,-215.2319 162.9923,-208.6673"/>
<text text-anchor="middle" x="268.8904" y="-231.8" font-family="Times,serif" font-size="14.00" fill="#0000ff">expression</text>
</g>
<!-- #38 CFG_F_END __main__ -->
<g id="node19" class="node">
<title>#38 CFG_F_END __main__</title>
<ellipse fill="none" stroke="#ff0000" cx="346.8904" cy="-192" rx="113.18" ry="18"/>
<text text-anchor="middle" x="346.8904" y="-188.3" font-family="Times,serif" font-size="14.00" fill="#ff0000">#38 CFG_F_END __main__</text>
</g>
<!-- #31 ExpressionStatement&#45;&gt;#38 CFG_F_END __main__ -->
<g id="edge24" class="edge">
<title>#31 ExpressionStatement&#45;&gt;#38 CFG_F_END __main__</title>
<path fill="none" stroke="#ff0000" d="M343.7192,-260.9735C344.2609,-249.1918 344.9796,-233.5607 345.5958,-220.1581"/>
<polygon fill="#ff0000" stroke="#ff0000" points="349.0996,-220.1536 346.0627,-210.0034 342.107,-219.832 349.0996,-220.1536"/>
</g>
<!-- #37 CFG_F_START __main__ -->
<g id="node9" class="node">
<title>#37 CFG_F_START __main__</title>
<ellipse fill="none" stroke="#ff0000" cx="1124.8904" cy="-975" rx="122.6784" ry="18"/>
<text text-anchor="middle" x="1124.8904" y="-971.3" font-family="Times,serif" font-size="14.00" fill="#ff0000">#37 CFG_F_START __main__</text>
</g>
<!-- #37 CFG_F_START __main__&#45;&gt;#1 ExpressionStatement -->
<g id="edge8" class="edge">
<title>#37 CFG_F_START __main__&#45;&gt;#1 ExpressionStatement</title>
<path fill="none" stroke="#ff0000" d="M1124.8904,-956.9735C1124.8904,-945.1918 1124.8904,-929.5607 1124.8904,-916.1581"/>
<polygon fill="#ff0000" stroke="#ff0000" points="1128.3905,-916.0033 1124.8904,-906.0034 1121.3905,-916.0034 1128.3905,-916.0033"/>
</g>
<!-- #3 Identifier (x) -->
<g id="node20" class="node">
<title>#3 Identifier (x)</title>
<ellipse fill="none" stroke="#000000" cx="1485.8904" cy="-714" rx="67.6881" ry="18"/>
<text text-anchor="middle" x="1485.8904" y="-710.3" font-family="Times,serif" font-size="14.00" fill="#000000">#3 Identifier (x)</text>
</g>
<!-- #2 AssignmentExpression&#45;&gt;#3 Identifier (x) -->
<g id="edge25" class="edge">
<title>#2 AssignmentExpression&#45;&gt;#3 Identifier (x)</title>
<path fill="none" stroke="#0000ff" d="M1485.8904,-782.9735C1485.8904,-771.1918 1485.8904,-755.5607 1485.8904,-742.1581"/>
<polygon fill="#0000ff" stroke="#0000ff" points="1489.3905,-742.0033 1485.8904,-732.0034 1482.3905,-742.0034 1489.3905,-742.0033"/>
<text text-anchor="middle" x="1495.3904" y="-753.8" font-family="Times,serif" font-size="14.00" fill="#0000ff">left</text>
</g>
<!-- #4 ObjectExpression -->
<g id="node21" class="node">
<title>#4 ObjectExpression</title>
<ellipse fill="none" stroke="#000000" cx="1655.8904" cy="-714" rx="84.485" ry="18"/>
<text text-anchor="middle" x="1655.8904" y="-710.3" font-family="Times,serif" font-size="14.00" fill="#000000">#4 ObjectExpression</text>
</g>
<!-- #2 AssignmentExpression&#45;&gt;#4 ObjectExpression -->
<g id="edge26" class="edge">
<title>#2 AssignmentExpression&#45;&gt;#4 ObjectExpression</title>
<path fill="none" stroke="#0000ff" d="M1519.477,-783.8116C1546.6317,-769.9147 1585.0002,-750.2791 1614.1321,-735.3704"/>
<polygon fill="#0000ff" stroke="#0000ff" points="1615.9326,-738.3808 1623.2401,-730.7093 1612.7435,-732.1494 1615.9326,-738.3808"/>
<text text-anchor="middle" x="1593.8904" y="-753.8" font-family="Times,serif" font-size="14.00" fill="#0000ff">right</text>
</g>
<!-- #39 PDG_OBJECT o1&#45;&gt;#40 PDG_OBJECT o2 -->
<g id="edge27" class="edge">
<title>#39 PDG_OBJECT o1&#45;&gt;#40 PDG_OBJECT o2</title>
<path fill="none" stroke="#006400" d="M1147.1449,-784.5605C1136.5285,-779.0929 1125.3167,-772.4668 1115.8904,-765 1106.8599,-757.8467 1098.2637,-748.6463 1091.105,-740.0337"/>
<polygon fill="#006400" stroke="#006400" points="1093.6934,-737.6665 1084.7145,-732.0424 1088.2264,-742.0383 1093.6934,-737.6665"/>
<text text-anchor="middle" x="1168.8904" y="-753.8" font-family="Times,serif" font-size="14.00" fill="#006400">NEW_VERSION f</text>
</g>
<!-- #7 MemberExpression -->
<g id="node22" class="node">
<title>#7 MemberExpression</title>
<ellipse fill="none" stroke="#000000" cx="1326.8904" cy="-627" rx="91.784" ry="18"/>
<text text-anchor="middle" x="1326.8904" y="-623.3" font-family="Times,serif" font-size="14.00" fill="#000000">#7 MemberExpression</text>
</g>
<!-- #6 AssignmentExpression&#45;&gt;#7 MemberExpression -->
<g id="edge28" class="edge">
<title>#6 AssignmentExpression&#45;&gt;#7 MemberExpression</title>
<path fill="none" stroke="#0000ff" d="M1303.1064,-695.9735C1307.2093,-684.0751 1312.666,-668.2508 1317.3178,-654.7606"/>
<polygon fill="#0000ff" stroke="#0000ff" points="1320.7312,-655.5981 1320.6824,-645.0034 1314.1136,-653.3161 1320.7312,-655.5981"/>
<text text-anchor="middle" x="1322.3904" y="-666.8" font-family="Times,serif" font-size="14.00" fill="#0000ff">left</text>
</g>
<!-- #10 Literal -->
<g id="node23" class="node">
<title>#10 Literal</title>
<ellipse fill="none" stroke="#000000" cx="1486.8904" cy="-627" rx="50.0912" ry="18"/>
<text text-anchor="middle" x="1486.8904" y="-623.3" font-family="Times,serif" font-size="14.00" fill="#000000">#10 Literal</text>
</g>
<!-- #6 AssignmentExpression&#45;&gt;#10 Literal -->
<g id="edge29" class="edge">
<title>#6 AssignmentExpression&#45;&gt;#10 Literal</title>
<path fill="none" stroke="#0000ff" d="M1333.9754,-697.019C1366.3136,-682.2115 1413.1299,-660.7746 1446.4283,-645.5274"/>
<polygon fill="#0000ff" stroke="#0000ff" points="1448.232,-648.551 1455.8671,-641.2054 1445.3177,-642.1865 1448.232,-648.551"/>
<text text-anchor="middle" x="1415.8904" y="-666.8" font-family="Times,serif" font-size="14.00" fill="#0000ff">right</text>
</g>
<!-- #40 PDG_OBJECT o2&#45;&gt;#11 ExpressionStatement -->
<g id="edge30" class="edge">
<title>#40 PDG_OBJECT o2&#45;&gt;#11 ExpressionStatement</title>
<path fill="none" stroke="#006400" d="M1033.7383,-697.4514C1022.201,-691.8539 1009.7256,-685.184 998.8904,-678 987.3151,-670.3253 975.5432,-660.6126 965.5909,-651.7274"/>
<polygon fill="#006400" stroke="#006400" points="967.7835,-648.99 958.0379,-644.8338 963.0646,-654.1603 967.7835,-648.99"/>
<text text-anchor="middle" x="1030.8904" y="-666.8" font-family="Times,serif" font-size="14.00" fill="#006400">LOOKUP f</text>
</g>
<!-- #40 PDG_OBJECT o2&#45;&gt;#17 ExpressionStatement -->
<g id="edge31" class="edge">
<title>#40 PDG_OBJECT o2&#45;&gt;#17 ExpressionStatement</title>
<path fill="none" stroke="#006400" d="M1072.7756,-695.9987C1072.9397,-673.3061 1069.9422,-634.2217 1049.8904,-609 1031.3326,-585.6574 1002.8174,-569.568 976.5148,-558.8378"/>
<polygon fill="#006400" stroke="#006400" points="977.5358,-555.4798 966.947,-555.1235 975.0026,-562.0053 977.5358,-555.4798"/>
<text text-anchor="middle" x="1099.8904" y="-623.3" font-family="Times,serif" font-size="14.00" fill="#006400">LOOKUP g</text>
</g>
<!-- #13 Identifier (aux1) -->
<g id="node24" class="node">
<title>#13 Identifier (aux1)</title>
<ellipse fill="none" stroke="#000000" cx="1181.8904" cy="-453" rx="84.485" ry="18"/>
<text text-anchor="middle" x="1181.8904" y="-449.3" font-family="Times,serif" font-size="14.00" fill="#000000">#13 Identifier (aux1)</text>
</g>
<!-- #12 AssignmentExpression&#45;&gt;#13 Identifier (aux1) -->
<g id="edge32" class="edge">
<title>#12 AssignmentExpression&#45;&gt;#13 Identifier (aux1)</title>
<path fill="none" stroke="#0000ff" d="M1147.8001,-521.9735C1153.7962,-509.8418 1161.8096,-493.6287 1168.5605,-479.9698"/>
<polygon fill="#0000ff" stroke="#0000ff" points="1171.699,-481.519 1172.9922,-471.0034 1165.4236,-478.4173 1171.699,-481.519"/>
<text text-anchor="middle" x="1172.3904" y="-492.8" font-family="Times,serif" font-size="14.00" fill="#0000ff">left</text>
</g>
<!-- #14 MemberExpression -->
<g id="node25" class="node">
<title>#14 MemberExpression</title>
<ellipse fill="none" stroke="#000000" cx="1380.8904" cy="-453" rx="96.3833" ry="18"/>
<text text-anchor="middle" x="1380.8904" y="-449.3" font-family="Times,serif" font-size="14.00" fill="#000000">#14 MemberExpression</text>
</g>
<!-- #12 AssignmentExpression&#45;&gt;#14 MemberExpression -->
<g id="edge33" class="edge">
<title>#12 AssignmentExpression&#45;&gt;#14 MemberExpression</title>
<path fill="none" stroke="#0000ff" d="M1184.4088,-523.636C1224.887,-509.0839 1284.1295,-487.786 1326.9703,-472.3845"/>
<polygon fill="#0000ff" stroke="#0000ff" points="1328.1675,-475.6735 1336.3938,-468.9967 1325.7993,-469.0862 1328.1675,-475.6735"/>
<text text-anchor="middle" x="1286.8904" y="-492.8" font-family="Times,serif" font-size="14.00" fill="#0000ff">right</text>
</g>
<!-- #19 Identifier (aux2) -->
<g id="node26" class="node">
<title>#19 Identifier (aux2)</title>
<ellipse fill="none" stroke="#000000" cx="984.8904" cy="-366" rx="84.485" ry="18"/>
<text text-anchor="middle" x="984.8904" y="-362.3" font-family="Times,serif" font-size="14.00" fill="#000000">#19 Identifier (aux2)</text>
</g>
<!-- #18 AssignmentExpression&#45;&gt;#19 Identifier (aux2) -->
<g id="edge34" class="edge">
<title>#18 AssignmentExpression&#45;&gt;#19 Identifier (aux2)</title>
<path fill="none" stroke="#0000ff" d="M974.584,-434.9735C976.3445,-423.1918 978.6802,-407.5607 980.6829,-394.1581"/>
<polygon fill="#0000ff" stroke="#0000ff" points="984.1839,-394.4108 982.2003,-384.0034 977.2608,-393.3763 984.1839,-394.4108"/>
<text text-anchor="middle" x="989.3904" y="-405.8" font-family="Times,serif" font-size="14.00" fill="#0000ff">left</text>
</g>
<!-- #20 MemberExpression -->
<g id="node27" class="node">
<title>#20 MemberExpression</title>
<ellipse fill="none" stroke="#000000" cx="1183.8904" cy="-366" rx="96.3833" ry="18"/>
<text text-anchor="middle" x="1183.8904" y="-362.3" font-family="Times,serif" font-size="14.00" fill="#000000">#20 MemberExpression</text>
</g>
<!-- #18 AssignmentExpression&#45;&gt;#20 MemberExpression -->
<g id="edge35" class="edge">
<title>#18 AssignmentExpression&#45;&gt;#20 MemberExpression</title>
<path fill="none" stroke="#0000ff" d="M1012.7662,-436.2255C1047.448,-421.9929 1097.3158,-401.5283 1134.279,-386.3594"/>
<polygon fill="#0000ff" stroke="#0000ff" points="1135.9366,-389.4625 1143.8591,-382.4279 1133.279,-382.9866 1135.9366,-389.4625"/>
<text text-anchor="middle" x="1103.8904" y="-405.8" font-family="Times,serif" font-size="14.00" fill="#0000ff">right</text>
</g>
<!-- #25 Identifier (aux1) -->
<g id="node28" class="node">
<title>#25 Identifier (aux1)</title>
<ellipse fill="none" stroke="#000000" cx="779.8904" cy="-279" rx="84.485" ry="18"/>
<text text-anchor="middle" x="779.8904" y="-275.3" font-family="Times,serif" font-size="14.00" fill="#000000">#25 Identifier (aux1)</text>
</g>
<!-- #24 BinaryExpression (+)&#45;&gt;#25 Identifier (aux1) -->
<g id="edge36" class="edge">
<title>#24 BinaryExpression (+)&#45;&gt;#25 Identifier (aux1)</title>
<path fill="none" stroke="#0000ff" d="M779.8904,-347.9735C779.8904,-336.1918 779.8904,-320.5607 779.8904,-307.1581"/>
<polygon fill="#0000ff" stroke="#0000ff" points="783.3905,-307.0033 779.8904,-297.0034 776.3905,-307.0034 783.3905,-307.0033"/>
<text text-anchor="middle" x="789.3904" y="-318.8" font-family="Times,serif" font-size="14.00" fill="#0000ff">left</text>
</g>
<!-- #26 Identifier (aux2) -->
<g id="node29" class="node">
<title>#26 Identifier (aux2)</title>
<ellipse fill="none" stroke="#000000" cx="966.8904" cy="-279" rx="84.485" ry="18"/>
<text text-anchor="middle" x="966.8904" y="-275.3" font-family="Times,serif" font-size="14.00" fill="#000000">#26 Identifier (aux2)</text>
</g>
<!-- #24 BinaryExpression (+)&#45;&gt;#26 Identifier (aux2) -->
<g id="edge37" class="edge">
<title>#24 BinaryExpression (+)&#45;&gt;#26 Identifier (aux2)</title>
<path fill="none" stroke="#0000ff" d="M816.3898,-349.019C846.6696,-334.9316 889.8466,-314.8439 922.1945,-299.7944"/>
<polygon fill="#0000ff" stroke="#0000ff" points="923.8442,-302.8872 931.4345,-295.4955 920.8913,-296.5404 923.8442,-302.8872"/>
<text text-anchor="middle" x="897.8904" y="-318.8" font-family="Times,serif" font-size="14.00" fill="#0000ff">right</text>
</g>
<!-- #29 Identifier (aux) -->
<g id="node30" class="node">
<title>#29 Identifier (aux)</title>
<ellipse fill="none" stroke="#000000" cx="565.8904" cy="-192" rx="79.8859" ry="18"/>
<text text-anchor="middle" x="565.8904" y="-188.3" font-family="Times,serif" font-size="14.00" fill="#000000">#29 Identifier (aux)</text>
</g>
<!-- #28 AssignmentExpression&#45;&gt;#29 Identifier (aux) -->
<g id="edge38" class="edge">
<title>#28 AssignmentExpression&#45;&gt;#29 Identifier (aux)</title>
<path fill="none" stroke="#0000ff" d="M569.0616,-260.9735C568.5199,-249.1918 567.8013,-233.5607 567.1851,-220.1581"/>
<polygon fill="#0000ff" stroke="#0000ff" points="570.6739,-219.832 566.7182,-210.0034 563.6812,-220.1536 570.6739,-219.832"/>
<text text-anchor="middle" x="578.3904" y="-231.8" font-family="Times,serif" font-size="14.00" fill="#0000ff">left</text>
</g>
<!-- #30 Identifier (v1) -->
<g id="node31" class="node">
<title>#30 Identifier (v1)</title>
<ellipse fill="none" stroke="#000000" cx="739.8904" cy="-192" rx="76.0865" ry="18"/>
<text text-anchor="middle" x="739.8904" y="-188.3" font-family="Times,serif" font-size="14.00" fill="#000000">#30 Identifier (v1)</text>
</g>
<!-- #28 AssignmentExpression&#45;&gt;#30 Identifier (v1) -->
<g id="edge39" class="edge">
<title>#28 AssignmentExpression&#45;&gt;#30 Identifier (v1)</title>
<path fill="none" stroke="#0000ff" d="M603.477,-261.8116C630.8064,-247.8254 669.4942,-228.0263 698.693,-213.0834"/>
<polygon fill="#0000ff" stroke="#0000ff" points="700.5058,-216.0874 707.8133,-208.4159 697.3168,-209.856 700.5058,-216.0874"/>
<text text-anchor="middle" x="678.8904" y="-231.8" font-family="Times,serif" font-size="14.00" fill="#0000ff">right</text>
</g>
<!-- #33 Identifier (y) -->
<g id="node32" class="node">
<title>#33 Identifier (y)</title>
<ellipse fill="none" stroke="#000000" cx="86.8904" cy="-105" rx="71.4873" ry="18"/>
<text text-anchor="middle" x="86.8904" y="-101.3" font-family="Times,serif" font-size="14.00" fill="#000000">#33 Identifier (y)</text>
</g>
<!-- #32 AssignmentExpression&#45;&gt;#33 Identifier (y) -->
<g id="edge40" class="edge">
<title>#32 AssignmentExpression&#45;&gt;#33 Identifier (y)</title>
<path fill="none" stroke="#0000ff" d="M103.5392,-173.9735C100.6672,-162.0751 96.8475,-146.2508 93.5913,-132.7606"/>
<polygon fill="#0000ff" stroke="#0000ff" points="96.9848,-131.9029 91.2361,-123.0034 90.1803,-133.5455 96.9848,-131.9029"/>
<text text-anchor="middle" x="108.3904" y="-144.8" font-family="Times,serif" font-size="14.00" fill="#0000ff">left</text>
</g>
<!-- #34 CallExpression -->
<g id="node33" class="node">
<title>#34 CallExpression</title>
<ellipse fill="none" stroke="#000000" cx="255.8904" cy="-105" rx="79.8859" ry="18"/>
<text text-anchor="middle" x="255.8904" y="-101.3" font-family="Times,serif" font-size="14.00" fill="#000000">#34 CallExpression</text>
</g>
<!-- #32 AssignmentExpression&#45;&gt;#34 CallExpression -->
<g id="edge41" class="edge">
<title>#32 AssignmentExpression&#45;&gt;#34 CallExpression</title>
<path fill="none" stroke="#0000ff" d="M137.4847,-174.6033C160.6997,-160.9567 193.1672,-141.8711 218.2336,-127.1361"/>
<polygon fill="#0000ff" stroke="#0000ff" points="220.2557,-130.0074 227.1028,-121.9224 216.7083,-123.9728 220.2557,-130.0074"/>
<text text-anchor="middle" x="203.8904" y="-144.8" font-family="Times,serif" font-size="14.00" fill="#0000ff">right</text>
</g>
<!-- #8 Identifier (x) -->
<g id="node34" class="node">
<title>#8 Identifier (x)</title>
<ellipse fill="none" stroke="#000000" cx="1331.8904" cy="-540" rx="67.6881" ry="18"/>
<text text-anchor="middle" x="1331.8904" y="-536.3" font-family="Times,serif" font-size="14.00" fill="#000000">#8 Identifier (x)</text>
</g>
<!-- #7 MemberExpression&#45;&gt;#8 Identifier (x) -->
<g id="edge42" class="edge">
<title>#7 MemberExpression&#45;&gt;#8 Identifier (x)</title>
<path fill="none" stroke="#0000ff" d="M1327.9264,-608.9735C1328.6035,-597.1918 1329.5019,-581.5607 1330.2721,-568.1581"/>
<polygon fill="#0000ff" stroke="#0000ff" points="1333.7761,-568.1877 1330.8558,-558.0034 1326.7877,-567.786 1333.7761,-568.1877"/>
<text text-anchor="middle" x="1345.8904" y="-579.8" font-family="Times,serif" font-size="14.00" fill="#0000ff">object</text>
</g>
<!-- #9 Identifier (f) -->
<g id="node35" class="node">
<title>#9 Identifier (f)</title>
<ellipse fill="none" stroke="#000000" cx="1482.8904" cy="-540" rx="65.7887" ry="18"/>
<text text-anchor="middle" x="1482.8904" y="-536.3" font-family="Times,serif" font-size="14.00" fill="#000000">#9 Identifier (f)</text>
</g>
<!-- #7 MemberExpression&#45;&gt;#9 Identifier (f) -->
<g id="edge43" class="edge">
<title>#7 MemberExpression&#45;&gt;#9 Identifier (f)</title>
<path fill="none" stroke="#0000ff" d="M1357.3391,-610.019C1382.4333,-596.0242 1418.1459,-576.1075 1445.0711,-561.0916"/>
<polygon fill="#0000ff" stroke="#0000ff" points="1446.8085,-564.1302 1453.8373,-556.2027 1443.3989,-558.0166 1446.8085,-564.1302"/>
<text text-anchor="middle" x="1436.8904" y="-579.8" font-family="Times,serif" font-size="14.00" fill="#0000ff">property</text>
</g>
<!-- #15 Identifier (x) -->
<g id="node36" class="node">
<title>#15 Identifier (x)</title>
<ellipse fill="none" stroke="#000000" cx="1378.8904" cy="-366" rx="71.4873" ry="18"/>
<text text-anchor="middle" x="1378.8904" y="-362.3" font-family="Times,serif" font-size="14.00" fill="#000000">#15 Identifier (x)</text>
</g>
<!-- #14 MemberExpression&#45;&gt;#15 Identifier (x) -->
<g id="edge44" class="edge">
<title>#14 MemberExpression&#45;&gt;#15 Identifier (x)</title>
<path fill="none" stroke="#0000ff" d="M1380.476,-434.9735C1380.2052,-423.1918 1379.8458,-407.5607 1379.5377,-394.1581"/>
<polygon fill="#0000ff" stroke="#0000ff" points="1383.0333,-393.9202 1379.3043,-384.0034 1376.0351,-394.0812 1383.0333,-393.9202"/>
<text text-anchor="middle" x="1396.8904" y="-405.8" font-family="Times,serif" font-size="14.00" fill="#0000ff">object</text>
</g>
<!-- #16 Identifier (f) -->
<g id="node37" class="node">
<title>#16 Identifier (f)</title>
<ellipse fill="none" stroke="#000000" cx="1538.8904" cy="-366" rx="70.3881" ry="18"/>
<text text-anchor="middle" x="1538.8904" y="-362.3" font-family="Times,serif" font-size="14.00" fill="#000000">#16 Identifier (f)</text>
</g>
<!-- #14 MemberExpression&#45;&gt;#16 Identifier (f) -->
<g id="edge45" class="edge">
<title>#14 MemberExpression&#45;&gt;#16 Identifier (f)</title>
<path fill="none" stroke="#0000ff" d="M1412.1061,-435.8116C1437.3965,-421.8859 1473.1522,-402.1976 1500.2481,-387.2777"/>
<polygon fill="#0000ff" stroke="#0000ff" points="1502.006,-390.3054 1509.0776,-382.4159 1498.6295,-384.1735 1502.006,-390.3054"/>
<text text-anchor="middle" x="1491.8904" y="-405.8" font-family="Times,serif" font-size="14.00" fill="#0000ff">property</text>
</g>
<!-- #21 Identifier (x) -->
<g id="node38" class="node">
<title>#21 Identifier (x)</title>
<ellipse fill="none" stroke="#000000" cx="1161.8904" cy="-279" rx="71.4873" ry="18"/>
<text text-anchor="middle" x="1161.8904" y="-275.3" font-family="Times,serif" font-size="14.00" fill="#000000">#21 Identifier (x)</text>
</g>
<!-- #20 MemberExpression&#45;&gt;#21 Identifier (x) -->
<g id="edge46" class="edge">
<title>#20 MemberExpression&#45;&gt;#21 Identifier (x)</title>
<path fill="none" stroke="#0000ff" d="M1179.332,-347.9735C1176.3232,-336.0751 1172.3217,-320.2508 1168.9104,-306.7606"/>
<polygon fill="#0000ff" stroke="#0000ff" points="1172.2878,-305.8401 1166.443,-297.0034 1165.5015,-307.5563 1172.2878,-305.8401"/>
<text text-anchor="middle" x="1190.8904" y="-318.8" font-family="Times,serif" font-size="14.00" fill="#0000ff">object</text>
</g>
<!-- #22 Identifier (g) -->
<g id="node39" class="node">
<title>#22 Identifier (g)</title>
<ellipse fill="none" stroke="#000000" cx="1322.8904" cy="-279" rx="71.4873" ry="18"/>
<text text-anchor="middle" x="1322.8904" y="-275.3" font-family="Times,serif" font-size="14.00" fill="#000000">#22 Identifier (g)</text>
</g>
<!-- #20 MemberExpression&#45;&gt;#22 Identifier (g) -->
<g id="edge47" class="edge">
<title>#20 MemberExpression&#45;&gt;#22 Identifier (g)</title>
<path fill="none" stroke="#0000ff" d="M1211.6851,-348.6033C1233.463,-334.9726 1263.9105,-315.9155 1287.4413,-301.1876"/>
<polygon fill="#0000ff" stroke="#0000ff" points="1289.4689,-304.0476 1296.0885,-295.7753 1285.755,-298.114 1289.4689,-304.0476"/>
<text text-anchor="middle" x="1283.8904" y="-318.8" font-family="Times,serif" font-size="14.00" fill="#0000ff">property</text>
</g>
<!-- #35 Identifier (eval) -->
<g id="node40" class="node">
<title>#35 Identifier (eval)</title>
<ellipse fill="none" stroke="#000000" cx="165.8904" cy="-18" rx="81.7856" ry="18"/>
<text text-anchor="middle" x="165.8904" y="-14.3" font-family="Times,serif" font-size="14.00" fill="#000000">#35 Identifier (eval)</text>
</g>
<!-- #34 CallExpression&#45;&gt;#35 Identifier (eval) -->
<g id="edge48" class="edge">
<title>#34 CallExpression&#45;&gt;#35 Identifier (eval)</title>
<path fill="none" stroke="#0000ff" d="M237.6776,-87.3943C224.3808,-74.5407 206.178,-56.9446 191.4295,-42.6878"/>
<polygon fill="#0000ff" stroke="#0000ff" points="193.6987,-40.0133 184.0762,-35.5796 188.8335,-45.0463 193.6987,-40.0133"/>
<text text-anchor="middle" x="232.8904" y="-57.8" font-family="Times,serif" font-size="14.00" fill="#0000ff">callee</text>
</g>
<!-- #36 Identifier (aux) -->
<g id="node41" class="node">
<title>#36 Identifier (aux)</title>
<ellipse fill="none" stroke="#000000" cx="345.8904" cy="-18" rx="79.8859" ry="18"/>
<text text-anchor="middle" x="345.8904" y="-14.3" font-family="Times,serif" font-size="14.00" fill="#000000">#36 Identifier (aux)</text>
</g>
<!-- #34 CallExpression&#45;&gt;#36 Identifier (aux) -->
<g id="edge49" class="edge">
<title>#34 CallExpression&#45;&gt;#36 Identifier (aux)</title>
<path fill="none" stroke="#0000ff" d="M274.1033,-87.3943C287.4001,-74.5407 305.6029,-56.9446 320.3513,-42.6878"/>
<polygon fill="#0000ff" stroke="#0000ff" points="322.9473,-45.0463 327.7047,-35.5796 318.0822,-40.0133 322.9473,-45.0463"/>
<text text-anchor="middle" x="320.8904" y="-57.8" font-family="Times,serif" font-size="14.00" fill="#0000ff">arg 1</text>
</g>
</g>
</svg>
