<?xml version="1.0" encoding="UTF-8" standalone="no"?>
<!DOCTYPE svg PUBLIC "-//W3C//DTD SVG 1.1//EN"
 "http://www.w3.org/Graphics/SVG/1.1/DTD/svg11.dtd">
<!-- Generated by graphviz version 2.40.1 (20161225.0304)
 -->
<!-- Title: G Pages: 1 -->
<svg width="1304pt" height="653pt"
 viewBox="0.00 0.00 1303.73 653.00" xmlns="http://www.w3.org/2000/svg" xmlns:xlink="http://www.w3.org/1999/xlink">
<g id="graph0" class="graph" transform="scale(1 1) rotate(0) translate(4 649)">
<title>G</title>
<polygon fill="#ffffff" stroke="transparent" points="-4,4 -4,-649 1299.7318,-649 1299.7318,4 -4,4"/>
<!-- #0 Program (0) -->
<g id="node1" class="node">
<title>#0 Program (0)</title>
<ellipse fill="none" stroke="#000000" cx="497.09" cy="-627" rx="65.7887" ry="18"/>
<text text-anchor="middle" x="497.09" y="-623.3" font-family="Times,serif" font-size="14.00" fill="#000000">#0 Program (0)</text>
</g>
<!-- #1» f = Function (__2_anon__) &#45; (18) -->
<g id="node2" class="node">
<title>#1» f = Function (__2_anon__) &#45; (18)</title>
<ellipse fill="none" stroke="#000000" cx="712.09" cy="-540" rx="144.8743" ry="18"/>
<text text-anchor="middle" x="712.09" y="-536.3" font-family="Times,serif" font-size="14.00" fill="#000000">#1» f = Function (__2_anon__) &#45; (18)</text>
</g>
<!-- #0 Program (0)&#45;&gt;#1» f = Function (__2_anon__) &#45; (18) -->
<g id="edge1" class="edge">
<title>#0 Program (0)&#45;&gt;#1» f = Function (__2_anon__) &#45; (18)</title>
<path fill="none" stroke="#0000ff" d="M534.0498,-612.0442C568.6933,-598.0256 620.836,-576.926 659.7508,-561.1791"/>
<polygon fill="#0000ff" stroke="#0000ff" points="661.3838,-564.2941 669.3407,-557.2985 658.758,-557.8052 661.3838,-564.2941"/>
<text text-anchor="middle" x="621.59" y="-579.8" font-family="Times,serif" font-size="14.00" fill="#0000ff">1</text>
</g>
<!-- #12» module.exports = f; &#45; (18) -->
<g id="node3" class="node">
<title>#12» module.exports = f; &#45; (18)</title>
<ellipse fill="none" stroke="#000000" cx="489.09" cy="-453" rx="124.2781" ry="18"/>
<text text-anchor="middle" x="489.09" y="-449.3" font-family="Times,serif" font-size="14.00" fill="#000000">#12» module.exports = f; &#45; (18)</text>
</g>
<!-- #0 Program (0)&#45;&gt;#12» module.exports = f; &#45; (18) -->
<g id="edge2" class="edge">
<title>#0 Program (0)&#45;&gt;#12» module.exports = f; &#45; (18)</title>
<path fill="none" stroke="#0000ff" d="M496.2489,-608.7078C494.8529,-578.3436 492.0473,-517.3226 490.3932,-481.3464"/>
<polygon fill="#0000ff" stroke="#0000ff" points="493.8754,-480.8758 489.9197,-471.0471 486.8828,-481.1973 493.8754,-480.8758"/>
<text text-anchor="middle" x="497.59" y="-536.3" font-family="Times,serif" font-size="14.00" fill="#0000ff">2</text>
</g>
<!-- #1» f = Function (__2_anon__) &#45; (18)&#45;&gt;#12» module.exports = f; &#45; (18) -->
<g id="edge9" class="edge">
<title>#1» f = Function (__2_anon__) &#45; (18)&#45;&gt;#12» module.exports = f; &#45; (18)</title>
<path fill="none" stroke="#ff0000" d="M668.0323,-522.8116C631.8747,-508.7052 580.5604,-488.6858 542.1471,-473.6994"/>
<polygon fill="#ff0000" stroke="#ff0000" points="543.2643,-470.3784 532.6761,-470.0045 540.7201,-476.8997 543.2643,-470.3784"/>
</g>
<!-- #20 CFG_F_START 2_anon -->
<g id="node5" class="node">
<title>#20 CFG_F_START 2_anon</title>
<ellipse fill="none" stroke="#ff0000" cx="970.09" cy="-366" rx="113.18" ry="18"/>
<text text-anchor="middle" x="970.09" y="-362.3" font-family="Times,serif" font-size="14.00" fill="#ff0000">#20 CFG_F_START 2_anon</text>
</g>
<!-- #1» f = Function (__2_anon__) &#45; (18)&#45;&gt;#20 CFG_F_START 2_anon -->
<g id="edge8" class="edge">
<title>#1» f = Function (__2_anon__) &#45; (18)&#45;&gt;#20 CFG_F_START 2_anon</title>
<path fill="none" stroke="#000000" d="M749.636,-522.5503C776.2274,-509.6045 812.3154,-490.8273 842.09,-471 879.0041,-446.4184 917.9206,-413.3236 943.015,-390.9083"/>
<polygon fill="#000000" stroke="#000000" points="945.5656,-393.3216 950.6568,-384.0302 940.8826,-388.1187 945.5656,-393.3216"/>
<text text-anchor="middle" x="899.09" y="-449.3" font-family="Times,serif" font-size="14.00" fill="#000000">FD</text>
</g>
<!-- #2 Function (anon) &#45; (18) -->
<g id="node10" class="node">
<title>#2 Function (anon) &#45; (18)</title>
<ellipse fill="none" stroke="#000000" cx="732.09" cy="-453" rx="100.9827" ry="18"/>
<text text-anchor="middle" x="732.09" y="-449.3" font-family="Times,serif" font-size="14.00" fill="#000000">#2 Function (anon) &#45; (18)</text>
</g>
<!-- #1» f = Function (__2_anon__) &#45; (18)&#45;&gt;#2 Function (anon) &#45; (18) -->
<g id="edge7" class="edge">
<title>#1» f = Function (__2_anon__) &#45; (18)&#45;&gt;#2 Function (anon) &#45; (18)</title>
<path fill="none" stroke="#0000ff" d="M716.234,-521.9735C718.9692,-510.0751 722.607,-494.2508 725.7082,-480.7606"/>
<polygon fill="#0000ff" stroke="#0000ff" points="729.1218,-481.5333 727.9513,-471.0034 722.2997,-479.965 729.1218,-481.5333"/>
<text text-anchor="middle" x="732.59" y="-492.8" font-family="Times,serif" font-size="14.00" fill="#0000ff">init</text>
</g>
<!-- #19 CFG_F_END __main__ -->
<g id="node11" class="node">
<title>#19 CFG_F_END __main__</title>
<ellipse fill="none" stroke="#ff0000" cx="113.09" cy="-366" rx="113.18" ry="18"/>
<text text-anchor="middle" x="113.09" y="-362.3" font-family="Times,serif" font-size="14.00" fill="#ff0000">#19 CFG_F_END __main__</text>
</g>
<!-- #12» module.exports = f; &#45; (18)&#45;&gt;#19 CFG_F_END __main__ -->
<g id="edge10" class="edge">
<title>#12» module.exports = f; &#45; (18)&#45;&gt;#19 CFG_F_END __main__</title>
<path fill="none" stroke="#ff0000" d="M423.1655,-437.7462C357.2214,-422.4879 255.9732,-399.0607 187.2604,-383.1618"/>
<polygon fill="#ff0000" stroke="#ff0000" points="187.8982,-379.7169 177.3665,-380.8725 186.3201,-386.5368 187.8982,-379.7169"/>
</g>
<!-- #18 CFG_F_START __main__ -->
<g id="node4" class="node">
<title>#18 CFG_F_START __main__</title>
<ellipse fill="none" stroke="#ff0000" cx="712.09" cy="-627" rx="122.6784" ry="18"/>
<text text-anchor="middle" x="712.09" y="-623.3" font-family="Times,serif" font-size="14.00" fill="#ff0000">#18 CFG_F_START __main__</text>
</g>
<!-- #18 CFG_F_START __main__&#45;&gt;#1» f = Function (__2_anon__) &#45; (18) -->
<g id="edge3" class="edge">
<title>#18 CFG_F_START __main__&#45;&gt;#1» f = Function (__2_anon__) &#45; (18)</title>
<path fill="none" stroke="#ff0000" d="M712.09,-608.9735C712.09,-597.1918 712.09,-581.5607 712.09,-568.1581"/>
<polygon fill="#ff0000" stroke="#ff0000" points="715.5901,-568.0033 712.09,-558.0034 708.5901,-568.0034 715.5901,-568.0033"/>
</g>
<!-- #5» v1 = eval(x) -->
<g id="node6" class="node">
<title>#5» v1 = eval(x)</title>
<ellipse fill="none" stroke="#000000" cx="853.09" cy="-279" rx="70.3881" ry="18"/>
<text text-anchor="middle" x="853.09" y="-275.3" font-family="Times,serif" font-size="14.00" fill="#000000">#5» v1 = eval(x)</text>
</g>
<!-- #20 CFG_F_START 2_anon&#45;&gt;#5» v1 = eval(x) -->
<g id="edge4" class="edge">
<title>#20 CFG_F_START 2_anon&#45;&gt;#5» v1 = eval(x)</title>
<path fill="none" stroke="#ff0000" d="M946.4133,-348.3943C928.6146,-335.1594 904.0541,-316.8964 884.5966,-302.428"/>
<polygon fill="#ff0000" stroke="#ff0000" points="886.4453,-299.4411 876.3322,-296.2827 882.2683,-305.0583 886.4453,-299.4411"/>
</g>
<!-- #9 ReturnStatement (20) -->
<g id="node12" class="node">
<title>#9 ReturnStatement (20)</title>
<ellipse fill="none" stroke="#000000" cx="768.09" cy="-105" rx="98.5829" ry="18"/>
<text text-anchor="middle" x="768.09" y="-101.3" font-family="Times,serif" font-size="14.00" fill="#000000">#9 ReturnStatement (20)</text>
</g>
<!-- #5» v1 = eval(x)&#45;&gt;#9 ReturnStatement (20) -->
<g id="edge11" class="edge">
<title>#5» v1 = eval(x)&#45;&gt;#9 ReturnStatement (20)</title>
<path fill="none" stroke="#ff0000" d="M852.3833,-260.8574C850.4891,-232.844 843.5394,-178.3932 818.09,-141 815.0056,-136.4681 811.1523,-132.3079 806.9615,-128.5522"/>
<polygon fill="#ff0000" stroke="#ff0000" points="809.1242,-125.8 799.1468,-122.236 804.724,-131.2441 809.1242,-125.8"/>
</g>
<!-- #27 v1&#45;o5 -->
<g id="node13" class="node">
<title>#27 v1&#45;o5</title>
<ellipse fill="none" stroke="#006400" cx="768.09" cy="-192" rx="46.5926" ry="18"/>
<text text-anchor="middle" x="768.09" y="-188.3" font-family="Times,serif" font-size="14.00" fill="#006400">#27 v1&#45;o5</text>
</g>
<!-- #5» v1 = eval(x)&#45;&gt;#27 v1&#45;o5 -->
<g id="edge12" class="edge">
<title>#5» v1 = eval(x)&#45;&gt;#27 v1&#45;o5</title>
<path fill="none" stroke="#006400" d="M800.3697,-267.0541C788.1387,-261.7298 776.5354,-254.054 769.09,-243 764.6181,-236.3607 763.1794,-228.0517 763.1896,-220.0798"/>
<polygon fill="#006400" stroke="#006400" points="766.6908,-220.1848 763.9042,-209.963 759.7082,-219.6915 766.6908,-220.1848"/>
<text text-anchor="middle" x="804.09" y="-231.8" font-family="Times,serif" font-size="14.00" fill="#006400">CREATE v1</text>
</g>
<!-- #22 TAINT_SOURCE -->
<g id="node7" class="node">
<title>#22 TAINT_SOURCE</title>
<ellipse fill="none" stroke="#8b6914" cx="1204.09" cy="-453" rx="91.784" ry="18"/>
<text text-anchor="middle" x="1204.09" y="-449.3" font-family="Times,serif" font-size="14.00" fill="#8b6914">#22 TAINT_SOURCE</text>
</g>
<!-- #25 x&#45;o3 -->
<g id="node8" class="node">
<title>#25 x&#45;o3</title>
<ellipse fill="none" stroke="#006400" cx="1143.09" cy="-366" rx="42.4939" ry="18"/>
<text text-anchor="middle" x="1143.09" y="-362.3" font-family="Times,serif" font-size="14.00" fill="#006400">#25 x&#45;o3</text>
</g>
<!-- #22 TAINT_SOURCE&#45;&gt;#25 x&#45;o3 -->
<g id="edge5" class="edge">
<title>#22 TAINT_SOURCE&#45;&gt;#25 x&#45;o3</title>
<path fill="none" stroke="#006400" d="M1190.4332,-435.1989C1186.0985,-429.4412 1181.3315,-422.995 1177.09,-417 1171.4028,-408.9618 1165.385,-400.0715 1160.0184,-391.9952"/>
<polygon fill="#006400" stroke="#006400" points="1162.9269,-390.048 1154.4973,-383.6299 1157.0847,-393.9039 1162.9269,-390.048"/>
<text text-anchor="middle" x="1197.59" y="-405.8" font-family="Times,serif" font-size="14.00" fill="#006400">TAINT</text>
</g>
<!-- #26 y&#45;o4 -->
<g id="node9" class="node">
<title>#26 y&#45;o4</title>
<ellipse fill="none" stroke="#006400" cx="1245.09" cy="-366" rx="42.4939" ry="18"/>
<text text-anchor="middle" x="1245.09" y="-362.3" font-family="Times,serif" font-size="14.00" fill="#006400">#26 y&#45;o4</text>
</g>
<!-- #22 TAINT_SOURCE&#45;&gt;#26 y&#45;o4 -->
<g id="edge6" class="edge">
<title>#22 TAINT_SOURCE&#45;&gt;#26 y&#45;o4</title>
<path fill="none" stroke="#006400" d="M1212.5852,-434.9735C1218.2852,-422.8784 1225.8971,-406.7263 1232.3218,-393.0934"/>
<polygon fill="#006400" stroke="#006400" points="1235.6489,-394.2436 1236.7459,-383.7057 1229.3168,-391.2595 1235.6489,-394.2436"/>
<text text-anchor="middle" x="1246.59" y="-405.8" font-family="Times,serif" font-size="14.00" fill="#006400">TAINT</text>
</g>
<!-- #25 x&#45;o3&#45;&gt;#5» v1 = eval(x) -->
<g id="edge13" class="edge">
<title>#25 x&#45;o3&#45;&gt;#5» v1 = eval(x)</title>
<path fill="none" stroke="#006400" d="M1110.8107,-354.2884C1104.6186,-352.1324 1098.1701,-349.9488 1092.09,-348 1030.7208,-328.3298 959.6918,-308.1473 911.115,-294.7328"/>
<polygon fill="#006400" stroke="#006400" points="911.9757,-291.3396 901.4054,-292.059 910.1173,-298.0884 911.9757,-291.3396"/>
<text text-anchor="middle" x="1053.09" y="-318.8" font-family="Times,serif" font-size="14.00" fill="#006400">VAR x</text>
</g>
<!-- #2 Function (anon) &#45; (18)&#45;&gt;#20 CFG_F_START 2_anon -->
<g id="edge17" class="edge">
<title>#2 Function (anon) &#45; (18)&#45;&gt;#20 CFG_F_START 2_anon</title>
<path fill="none" stroke="#000000" d="M776.5768,-436.738C815.7702,-422.411 873.0081,-401.4879 915.0697,-386.1124"/>
<polygon fill="#000000" stroke="#000000" points="916.4164,-389.3468 924.6069,-382.6262 914.0131,-382.7722 916.4164,-389.3468"/>
<text text-anchor="middle" x="874.09" y="-405.8" font-family="Times,serif" font-size="14.00" fill="#000000">FD</text>
</g>
<!-- #3 Identifier (x) &#45; (18) -->
<g id="node14" class="node">
<title>#3 Identifier (x) &#45; (18)</title>
<ellipse fill="none" stroke="#000000" cx="749.09" cy="-366" rx="89.8845" ry="18"/>
<text text-anchor="middle" x="749.09" y="-362.3" font-family="Times,serif" font-size="14.00" fill="#000000">#3 Identifier (x) &#45; (18)</text>
</g>
<!-- #2 Function (anon) &#45; (18)&#45;&gt;#3 Identifier (x) &#45; (18) -->
<g id="edge14" class="edge">
<title>#2 Function (anon) &#45; (18)&#45;&gt;#3 Identifier (x) &#45; (18)</title>
<path fill="none" stroke="#0000ff" d="M735.6124,-434.9735C737.9146,-423.1918 740.9689,-407.5607 743.5878,-394.1581"/>
<polygon fill="#0000ff" stroke="#0000ff" points="747.0893,-394.489 745.5721,-384.0034 740.2192,-393.1465 747.0893,-394.489"/>
<text text-anchor="middle" x="764.09" y="-405.8" font-family="Times,serif" font-size="14.00" fill="#0000ff">param 1</text>
</g>
<!-- #4 Identifier (y) &#45; (18) -->
<g id="node15" class="node">
<title>#4 Identifier (y) &#45; (18)</title>
<ellipse fill="none" stroke="#000000" cx="552.09" cy="-366" rx="89.8845" ry="18"/>
<text text-anchor="middle" x="552.09" y="-362.3" font-family="Times,serif" font-size="14.00" fill="#000000">#4 Identifier (y) &#45; (18)</text>
</g>
<!-- #2 Function (anon) &#45; (18)&#45;&gt;#4 Identifier (y) &#45; (18) -->
<g id="edge15" class="edge">
<title>#2 Function (anon) &#45; (18)&#45;&gt;#4 Identifier (y) &#45; (18)</title>
<path fill="none" stroke="#0000ff" d="M696.9568,-436.019C668.0284,-422.0369 626.8703,-402.1438 595.8126,-387.1326"/>
<polygon fill="#0000ff" stroke="#0000ff" points="597.0496,-383.8431 586.523,-382.6426 594.0034,-390.1456 597.0496,-383.8431"/>
<text text-anchor="middle" x="676.09" y="-405.8" font-family="Times,serif" font-size="14.00" fill="#0000ff">param 2</text>
</g>
<!-- #11 BlockStatement (18) -->
<g id="node16" class="node">
<title>#11 BlockStatement (18)</title>
<ellipse fill="none" stroke="#000000" cx="344.09" cy="-366" rx="100.1823" ry="18"/>
<text text-anchor="middle" x="344.09" y="-362.3" font-family="Times,serif" font-size="14.00" fill="#000000">#11 BlockStatement (18)</text>
</g>
<!-- #2 Function (anon) &#45; (18)&#45;&gt;#11 BlockStatement (18) -->
<g id="edge16" class="edge">
<title>#2 Function (anon) &#45; (18)&#45;&gt;#11 BlockStatement (18)</title>
<path fill="none" stroke="#0000ff" d="M668.8875,-438.8283C599.8751,-423.3539 489.5276,-398.611 416.9288,-382.3324"/>
<polygon fill="#0000ff" stroke="#0000ff" points="417.4671,-378.8663 406.9436,-380.0935 415.9355,-385.6967 417.4671,-378.8663"/>
<text text-anchor="middle" x="577.59" y="-405.8" font-family="Times,serif" font-size="14.00" fill="#0000ff">block</text>
</g>
<!-- #10 Identifier (v1) &#45; (20) -->
<g id="node17" class="node">
<title>#10 Identifier (v1) &#45; (20)</title>
<ellipse fill="none" stroke="#000000" cx="658.09" cy="-18" rx="98.5829" ry="18"/>
<text text-anchor="middle" x="658.09" y="-14.3" font-family="Times,serif" font-size="14.00" fill="#000000">#10 Identifier (v1) &#45; (20)</text>
</g>
<!-- #9 ReturnStatement (20)&#45;&gt;#10 Identifier (v1) &#45; (20) -->
<g id="edge18" class="edge">
<title>#9 ReturnStatement (20)&#45;&gt;#10 Identifier (v1) &#45; (20)</title>
<path fill="none" stroke="#0000ff" d="M745.8298,-87.3943C729.28,-74.3048 706.5118,-56.2973 688.3165,-41.9064"/>
<polygon fill="#0000ff" stroke="#0000ff" points="690.3316,-39.0378 680.317,-35.5796 685.9892,-44.5282 690.3316,-39.0378"/>
<text text-anchor="middle" x="745.09" y="-57.8" font-family="Times,serif" font-size="14.00" fill="#0000ff">argument</text>
</g>
<!-- #21 CFG_F_END 2_anon -->
<g id="node18" class="node">
<title>#21 CFG_F_END 2_anon</title>
<ellipse fill="none" stroke="#ff0000" cx="878.09" cy="-18" rx="103.1819" ry="18"/>
<text text-anchor="middle" x="878.09" y="-14.3" font-family="Times,serif" font-size="14.00" fill="#ff0000">#21 CFG_F_END 2_anon</text>
</g>
<!-- #9 ReturnStatement (20)&#45;&gt;#21 CFG_F_END 2_anon -->
<g id="edge19" class="edge">
<title>#9 ReturnStatement (20)&#45;&gt;#21 CFG_F_END 2_anon</title>
<path fill="none" stroke="#ff0000" d="M790.3501,-87.3943C806.9,-74.3048 829.6681,-56.2973 847.8635,-41.9064"/>
<polygon fill="#ff0000" stroke="#ff0000" points="850.1908,-44.5282 855.8629,-35.5796 845.8484,-39.0378 850.1908,-44.5282"/>
</g>
<!-- #27 v1&#45;o5&#45;&gt;#9 ReturnStatement (20) -->
<g id="edge20" class="edge">
<title>#27 v1&#45;o5&#45;&gt;#9 ReturnStatement (20)</title>
<path fill="none" stroke="#006400" d="M768.09,-173.9735C768.09,-162.1918 768.09,-146.5607 768.09,-133.1581"/>
<polygon fill="#006400" stroke="#006400" points="771.5901,-133.0033 768.09,-123.0034 764.5901,-133.0034 771.5901,-133.0033"/>
<text text-anchor="middle" x="791.09" y="-144.8" font-family="Times,serif" font-size="14.00" fill="#006400">VAR v1</text>
</g>
<!-- #11 BlockStatement (18)&#45;&gt;#5» v1 = eval(x) -->
<g id="edge21" class="edge">
<title>#11 BlockStatement (18)&#45;&gt;#5» v1 = eval(x)</title>
<path fill="none" stroke="#0000ff" d="M417.0329,-353.6029C429.0679,-351.6585 441.421,-349.724 453.09,-348 514.2786,-338.9598 530.0368,-339.914 591.09,-330 658.9846,-318.9751 736.2278,-303.5894 789.1531,-292.6063"/>
<polygon fill="#0000ff" stroke="#0000ff" points="789.9978,-296.0056 799.074,-290.54 788.5704,-289.1526 789.9978,-296.0056"/>
<text text-anchor="middle" x="674.59" y="-318.8" font-family="Times,serif" font-size="14.00" fill="#0000ff">1</text>
</g>
<!-- #11 BlockStatement (18)&#45;&gt;#9 ReturnStatement (20) -->
<g id="edge22" class="edge">
<title>#11 BlockStatement (18)&#45;&gt;#9 ReturnStatement (20)</title>
<path fill="none" stroke="#0000ff" d="M372.2382,-348.6729C446.565,-302.9199 648.0747,-178.8773 731.3335,-127.6261"/>
<polygon fill="#0000ff" stroke="#0000ff" points="733.2706,-130.5436 739.9517,-122.3209 729.6011,-124.5825 733.2706,-130.5436"/>
<text text-anchor="middle" x="569.59" y="-231.8" font-family="Times,serif" font-size="14.00" fill="#0000ff">2</text>
</g>
</g>
</svg>
