<?xml version="1.0" encoding="UTF-8" standalone="no"?>
<!DOCTYPE svg PUBLIC "-//W3C//DTD SVG 1.1//EN"
 "http://www.w3.org/Graphics/SVG/1.1/DTD/svg11.dtd">
<!-- Generated by graphviz version 2.40.1 (20161225.0304)
 -->
<!-- Title: G Pages: 1 -->
<svg width="1564pt" height="848pt"
 viewBox="0.00 0.00 1564.28 848.00" xmlns="http://www.w3.org/2000/svg" xmlns:xlink="http://www.w3.org/1999/xlink">
<g id="graph0" class="graph" transform="scale(1 1) rotate(0) translate(4 844)">
<title>G</title>
<polygon fill="#ffffff" stroke="transparent" points="-4,4 -4,-844 1560.2826,-844 1560.2826,4 -4,4"/>
<!-- #0 Program (0) -->
<g id="node1" class="node">
<title>#0 Program (0)</title>
<ellipse fill="none" stroke="#000000" cx="752.9418" cy="-822" rx="65.7887" ry="18"/>
<text text-anchor="middle" x="752.9418" y="-818.3" font-family="Times,serif" font-size="14.00" fill="#000000">#0 Program (0)</text>
</g>
<!-- #1 Variable (eval) &#45; (23) -->
<g id="node2" class="node">
<title>#1 Variable (eval) &#45; (23)</title>
<ellipse fill="none" stroke="#000000" cx="1020.9418" cy="-735" rx="97.4827" ry="18"/>
<text text-anchor="middle" x="1020.9418" y="-731.3" font-family="Times,serif" font-size="14.00" fill="#000000">#1 Variable (eval) &#45; (23)</text>
</g>
<!-- #0 Program (0)&#45;&gt;#1 Variable (eval) &#45; (23) -->
<g id="edge1" class="edge">
<title>#0 Program (0)&#45;&gt;#1 Variable (eval) &#45; (23)</title>
<path fill="none" stroke="#0000ff" d="M795.4071,-808.2146C840.5159,-793.5711 912.1338,-770.322 962.5398,-753.9588"/>
<polygon fill="#0000ff" stroke="#0000ff" points="963.8933,-757.1993 972.324,-750.7826 961.7319,-750.5414 963.8933,-757.1993"/>
<text text-anchor="middle" x="907.4418" y="-774.8" font-family="Times,serif" font-size="14.00" fill="#0000ff">1</text>
</g>
<!-- #7 Variable (f) &#45; (23) -->
<g id="node3" class="node">
<title>#7 Variable (f) &#45; (23)</title>
<ellipse fill="none" stroke="#000000" cx="752.9418" cy="-648" rx="85.5853" ry="18"/>
<text text-anchor="middle" x="752.9418" y="-644.3" font-family="Times,serif" font-size="14.00" fill="#000000">#7 Variable (f) &#45; (23)</text>
</g>
<!-- #0 Program (0)&#45;&gt;#7 Variable (f) &#45; (23) -->
<g id="edge2" class="edge">
<title>#0 Program (0)&#45;&gt;#7 Variable (f) &#45; (23)</title>
<path fill="none" stroke="#0000ff" d="M752.9418,-803.7078C752.9418,-773.3436 752.9418,-712.3226 752.9418,-676.3464"/>
<polygon fill="#0000ff" stroke="#0000ff" points="756.4419,-676.0471 752.9418,-666.0471 749.4419,-676.0471 756.4419,-676.0471"/>
<text text-anchor="middle" x="756.4418" y="-731.3" font-family="Times,serif" font-size="14.00" fill="#0000ff">2</text>
</g>
<!-- #17 ExpressionStatement (23) -->
<g id="node4" class="node">
<title>#17 ExpressionStatement (23)</title>
<ellipse fill="none" stroke="#000000" cx="547.9418" cy="-561" rx="118.0794" ry="18"/>
<text text-anchor="middle" x="547.9418" y="-557.3" font-family="Times,serif" font-size="14.00" fill="#000000">#17 ExpressionStatement (23)</text>
</g>
<!-- #0 Program (0)&#45;&gt;#17 ExpressionStatement (23) -->
<g id="edge3" class="edge">
<title>#0 Program (0)&#45;&gt;#17 ExpressionStatement (23)</title>
<path fill="none" stroke="#0000ff" d="M738.8513,-804.0604C703.3028,-758.8011 609.8576,-639.8294 568.3327,-586.9612"/>
<polygon fill="#0000ff" stroke="#0000ff" points="571.0602,-584.7675 562.1308,-579.0651 565.5553,-589.0913 571.0602,-584.7675"/>
<text text-anchor="middle" x="659.4418" y="-687.8" font-family="Times,serif" font-size="14.00" fill="#0000ff">3</text>
</g>
<!-- #1 Variable (eval) &#45; (23)&#45;&gt;#7 Variable (f) &#45; (23) -->
<g id="edge9" class="edge">
<title>#1 Variable (eval) &#45; (23)&#45;&gt;#7 Variable (f) &#45; (23)</title>
<path fill="none" stroke="#ff0000" d="M972.7192,-719.3457C926.8982,-704.4709 857.992,-682.1021 809.5784,-666.3858"/>
<polygon fill="#ff0000" stroke="#ff0000" points="810.4704,-662.9956 799.8783,-663.2369 808.309,-669.6536 810.4704,-662.9956"/>
</g>
<!-- #25 CFG_F_START 2_anon -->
<g id="node6" class="node">
<title>#25 CFG_F_START 2_anon</title>
<ellipse fill="none" stroke="#ff0000" cx="1131.9418" cy="-192" rx="113.18" ry="18"/>
<text text-anchor="middle" x="1131.9418" y="-188.3" font-family="Times,serif" font-size="14.00" fill="#ff0000">#25 CFG_F_START 2_anon</text>
</g>
<!-- #1 Variable (eval) &#45; (23)&#45;&gt;#25 CFG_F_START 2_anon -->
<g id="edge8" class="edge">
<title>#1 Variable (eval) &#45; (23)&#45;&gt;#25 CFG_F_START 2_anon</title>
<path fill="none" stroke="#000000" d="M1060.8021,-718.426C1087.9339,-704.1936 1118.9418,-680.7614 1118.9418,-648 1118.9418,-648 1118.9418,-648 1118.9418,-300 1118.9418,-272.7343 1123.0765,-241.8723 1126.6823,-220.1424"/>
<polygon fill="#000000" stroke="#000000" points="1130.1352,-220.7144 1128.3894,-210.2644 1123.2375,-219.5222 1130.1352,-220.7144"/>
<text text-anchor="middle" x="1127.9418" y="-470.3" font-family="Times,serif" font-size="14.00" fill="#000000">FD</text>
</g>
<!-- #2 Function (anon) &#45; (23) -->
<g id="node10" class="node">
<title>#2 Function (anon) &#45; (23)</title>
<ellipse fill="none" stroke="#000000" cx="1261.9418" cy="-387" rx="100.9827" ry="18"/>
<text text-anchor="middle" x="1261.9418" y="-383.3" font-family="Times,serif" font-size="14.00" fill="#000000">#2 Function (anon) &#45; (23)</text>
</g>
<!-- #1 Variable (eval) &#45; (23)&#45;&gt;#2 Function (anon) &#45; (23) -->
<g id="edge7" class="edge">
<title>#1 Variable (eval) &#45; (23)&#45;&gt;#2 Function (anon) &#45; (23)</title>
<path fill="none" stroke="#0000ff" d="M1079.3301,-720.4873C1135.8175,-704.6913 1212.9418,-677.6883 1212.9418,-648 1212.9418,-648 1212.9418,-648 1212.9418,-474 1212.9418,-451.4143 1225.6338,-429.2834 1238.0989,-412.9944"/>
<polygon fill="#0000ff" stroke="#0000ff" points="1240.9657,-415.0154 1244.5282,-405.0374 1235.5209,-410.6159 1240.9657,-415.0154"/>
<text text-anchor="middle" x="1222.4418" y="-557.3" font-family="Times,serif" font-size="14.00" fill="#0000ff">init</text>
</g>
<!-- #7 Variable (f) &#45; (23)&#45;&gt;#17 ExpressionStatement (23) -->
<g id="edge12" class="edge">
<title>#7 Variable (f) &#45; (23)&#45;&gt;#17 ExpressionStatement (23)</title>
<path fill="none" stroke="#ff0000" d="M714.8633,-631.8399C681.7003,-617.7658 633.4071,-597.2707 597.2882,-581.9421"/>
<polygon fill="#ff0000" stroke="#ff0000" points="598.4891,-578.6497 587.9164,-577.9648 595.7544,-585.0934 598.4891,-578.6497"/>
</g>
<!-- #27 CFG_F_START 8_anon -->
<g id="node8" class="node">
<title>#27 CFG_F_START 8_anon</title>
<ellipse fill="none" stroke="#ff0000" cx="704.9418" cy="-474" rx="113.18" ry="18"/>
<text text-anchor="middle" x="704.9418" y="-470.3" font-family="Times,serif" font-size="14.00" fill="#ff0000">#27 CFG_F_START 8_anon</text>
</g>
<!-- #7 Variable (f) &#45; (23)&#45;&gt;#27 CFG_F_START 8_anon -->
<g id="edge11" class="edge">
<title>#7 Variable (f) &#45; (23)&#45;&gt;#27 CFG_F_START 8_anon</title>
<path fill="none" stroke="#000000" d="M747.8956,-629.7078C739.4832,-599.2127 722.5406,-537.796 712.6335,-501.8826"/>
<polygon fill="#000000" stroke="#000000" points="715.9536,-500.7562 709.9203,-492.0471 709.2056,-502.6178 715.9536,-500.7562"/>
<text text-anchor="middle" x="742.9418" y="-557.3" font-family="Times,serif" font-size="14.00" fill="#000000">FD</text>
</g>
<!-- #8 Function (anon) &#45; (23) -->
<g id="node11" class="node">
<title>#8 Function (anon) &#45; (23)</title>
<ellipse fill="none" stroke="#000000" cx="894.9418" cy="-561" rx="100.9827" ry="18"/>
<text text-anchor="middle" x="894.9418" y="-557.3" font-family="Times,serif" font-size="14.00" fill="#000000">#8 Function (anon) &#45; (23)</text>
</g>
<!-- #7 Variable (f) &#45; (23)&#45;&gt;#8 Function (anon) &#45; (23) -->
<g id="edge10" class="edge">
<title>#7 Variable (f) &#45; (23)&#45;&gt;#8 Function (anon) &#45; (23)</title>
<path fill="none" stroke="#0000ff" d="M780.9964,-630.8116C802.9275,-617.3749 833.6153,-598.5733 857.6191,-583.8667"/>
<polygon fill="#0000ff" stroke="#0000ff" points="859.761,-586.6591 866.4594,-578.4505 856.104,-580.6903 859.761,-586.6591"/>
<text text-anchor="middle" x="842.4418" y="-600.8" font-family="Times,serif" font-size="14.00" fill="#0000ff">init</text>
</g>
<!-- #18 AssignmentExpression (23) -->
<g id="node12" class="node">
<title>#18 AssignmentExpression (23)</title>
<ellipse fill="none" stroke="#000000" cx="204.9418" cy="-474" rx="124.5782" ry="18"/>
<text text-anchor="middle" x="204.9418" y="-470.3" font-family="Times,serif" font-size="14.00" fill="#000000">#18 AssignmentExpression (23)</text>
</g>
<!-- #17 ExpressionStatement (23)&#45;&gt;#18 AssignmentExpression (23) -->
<g id="edge13" class="edge">
<title>#17 ExpressionStatement (23)&#45;&gt;#18 AssignmentExpression (23)</title>
<path fill="none" stroke="#0000ff" d="M487.0155,-545.5464C428.0841,-530.5988 338.7866,-507.949 276.5015,-492.1507"/>
<polygon fill="#0000ff" stroke="#0000ff" points="277.2994,-488.7423 266.7458,-489.6762 275.5783,-495.5275 277.2994,-488.7423"/>
<text text-anchor="middle" x="426.9418" y="-513.8" font-family="Times,serif" font-size="14.00" fill="#0000ff">expression</text>
</g>
<!-- #24 CFG_F_END __main__ -->
<g id="node13" class="node">
<title>#24 CFG_F_END __main__</title>
<ellipse fill="none" stroke="#ff0000" cx="460.9418" cy="-474" rx="113.18" ry="18"/>
<text text-anchor="middle" x="460.9418" y="-470.3" font-family="Times,serif" font-size="14.00" fill="#ff0000">#24 CFG_F_END __main__</text>
</g>
<!-- #17 ExpressionStatement (23)&#45;&gt;#24 CFG_F_END __main__ -->
<g id="edge14" class="edge">
<title>#17 ExpressionStatement (23)&#45;&gt;#24 CFG_F_END __main__</title>
<path fill="none" stroke="#ff0000" d="M529.9153,-542.9735C517.317,-530.3752 500.3172,-513.3755 486.3473,-499.4055"/>
<polygon fill="#ff0000" stroke="#ff0000" points="488.4911,-496.5996 478.9451,-492.0034 483.5413,-501.5493 488.4911,-496.5996"/>
</g>
<!-- #23 CFG_F_START __main__ -->
<g id="node5" class="node">
<title>#23 CFG_F_START __main__</title>
<ellipse fill="none" stroke="#ff0000" cx="1020.9418" cy="-822" rx="122.6784" ry="18"/>
<text text-anchor="middle" x="1020.9418" y="-818.3" font-family="Times,serif" font-size="14.00" fill="#ff0000">#23 CFG_F_START __main__</text>
</g>
<!-- #23 CFG_F_START __main__&#45;&gt;#1 Variable (eval) &#45; (23) -->
<g id="edge4" class="edge">
<title>#23 CFG_F_START __main__&#45;&gt;#1 Variable (eval) &#45; (23)</title>
<path fill="none" stroke="#ff0000" d="M1020.9418,-803.9735C1020.9418,-792.1918 1020.9418,-776.5607 1020.9418,-763.1581"/>
<polygon fill="#ff0000" stroke="#ff0000" points="1024.4419,-763.0033 1020.9418,-753.0034 1017.4419,-763.0034 1024.4419,-763.0033"/>
</g>
<!-- #4 ReturnStatement (25) -->
<g id="node7" class="node">
<title>#4 ReturnStatement (25)</title>
<ellipse fill="none" stroke="#000000" cx="1280.9418" cy="-105" rx="98.5829" ry="18"/>
<text text-anchor="middle" x="1280.9418" y="-101.3" font-family="Times,serif" font-size="14.00" fill="#000000">#4 ReturnStatement (25)</text>
</g>
<!-- #25 CFG_F_START 2_anon&#45;&gt;#4 ReturnStatement (25) -->
<g id="edge5" class="edge">
<title>#25 CFG_F_START 2_anon&#45;&gt;#4 ReturnStatement (25)</title>
<path fill="none" stroke="#ff0000" d="M1161.736,-174.6033C1184.9566,-161.045 1217.372,-142.1179 1242.5395,-127.4228"/>
<polygon fill="#ff0000" stroke="#ff0000" points="1244.5825,-130.2829 1251.4534,-122.218 1241.0529,-124.2379 1244.5825,-130.2829"/>
</g>
<!-- #5 Identifier (x) &#45; (25) -->
<g id="node14" class="node">
<title>#5 Identifier (x) &#45; (25)</title>
<ellipse fill="none" stroke="#000000" cx="1241.9418" cy="-18" rx="89.8845" ry="18"/>
<text text-anchor="middle" x="1241.9418" y="-14.3" font-family="Times,serif" font-size="14.00" fill="#000000">#5 Identifier (x) &#45; (25)</text>
</g>
<!-- #4 ReturnStatement (25)&#45;&gt;#5 Identifier (x) &#45; (25) -->
<g id="edge15" class="edge">
<title>#4 ReturnStatement (25)&#45;&gt;#5 Identifier (x) &#45; (25)</title>
<path fill="none" stroke="#0000ff" d="M1272.8609,-86.9735C1267.4749,-74.9585 1260.2942,-58.9401 1254.2086,-45.3646"/>
<polygon fill="#0000ff" stroke="#0000ff" points="1257.2966,-43.6967 1250.0122,-36.0034 1250.9091,-46.5602 1257.2966,-43.6967"/>
<text text-anchor="middle" x="1288.9418" y="-57.8" font-family="Times,serif" font-size="14.00" fill="#0000ff">argument</text>
</g>
<!-- #26 CFG_F_END 2_anon -->
<g id="node15" class="node">
<title>#26 CFG_F_END 2_anon</title>
<ellipse fill="none" stroke="#ff0000" cx="1452.9418" cy="-18" rx="103.1819" ry="18"/>
<text text-anchor="middle" x="1452.9418" y="-14.3" font-family="Times,serif" font-size="14.00" fill="#ff0000">#26 CFG_F_END 2_anon</text>
</g>
<!-- #4 ReturnStatement (25)&#45;&gt;#26 CFG_F_END 2_anon -->
<g id="edge16" class="edge">
<title>#4 ReturnStatement (25)&#45;&gt;#26 CFG_F_END 2_anon</title>
<path fill="none" stroke="#ff0000" d="M1314.5134,-88.019C1341.7724,-74.231 1380.3951,-54.6951 1409.9207,-39.7607"/>
<polygon fill="#ff0000" stroke="#ff0000" points="1411.8176,-42.7235 1419.1613,-35.0866 1408.6581,-36.4771 1411.8176,-42.7235"/>
</g>
<!-- #10 Variable (v1) &#45; (27) -->
<g id="node9" class="node">
<title>#10 Variable (v1) &#45; (27)</title>
<ellipse fill="none" stroke="#000000" cx="830.9418" cy="-300" rx="96.3833" ry="18"/>
<text text-anchor="middle" x="830.9418" y="-296.3" font-family="Times,serif" font-size="14.00" fill="#000000">#10 Variable (v1) &#45; (27)</text>
</g>
<!-- #27 CFG_F_START 8_anon&#45;&gt;#10 Variable (v1) &#45; (27) -->
<g id="edge6" class="edge">
<title>#27 CFG_F_START 8_anon&#45;&gt;#10 Variable (v1) &#45; (27)</title>
<path fill="none" stroke="#ff0000" d="M717.5933,-456.1012C732.4322,-435.1515 757.8185,-399.4462 779.9418,-369 790.1868,-354.9006 801.72,-339.2764 811.224,-326.4662"/>
<polygon fill="#ff0000" stroke="#ff0000" points="814.2849,-328.2151 817.4386,-318.1005 808.6657,-324.0407 814.2849,-328.2151"/>
</g>
<!-- #10 Variable (v1) &#45; (27)&#45;&gt;#25 CFG_F_START 2_anon -->
<g id="edge19" class="edge">
<title>#10 Variable (v1) &#45; (27)&#45;&gt;#25 CFG_F_START 2_anon</title>
<path fill="none" stroke="#cd9b1d" d="M887.98,-285.4426C901.6705,-280.1778 915.5971,-273.1838 926.9418,-264 941.699,-252.0536 934.2583,-238.7015 949.9418,-228 963.9867,-218.4165 997.4026,-210.6147 1031.8228,-204.755"/>
<polygon fill="#cd9b1d" stroke="#cd9b1d" points="1032.7283,-208.1532 1042.0277,-203.0766 1031.5922,-201.246 1032.7283,-208.1532"/>
<text text-anchor="middle" x="959.4418" y="-242.3" font-family="Times,serif" font-size="14.00" fill="#cd9b1d">CG</text>
</g>
<!-- #11 CallExpression (27) -->
<g id="node16" class="node">
<title>#11 CallExpression (27)</title>
<ellipse fill="none" stroke="#000000" cx="678.9418" cy="-192" rx="96.6831" ry="18"/>
<text text-anchor="middle" x="678.9418" y="-188.3" font-family="Times,serif" font-size="14.00" fill="#000000">#11 CallExpression (27)</text>
</g>
<!-- #10 Variable (v1) &#45; (27)&#45;&gt;#11 CallExpression (27) -->
<g id="edge17" class="edge">
<title>#10 Variable (v1) &#45; (27)&#45;&gt;#11 CallExpression (27)</title>
<path fill="none" stroke="#0000ff" d="M806.182,-282.4076C780.5666,-264.2071 740.4146,-235.6781 712.0769,-215.5434"/>
<polygon fill="#0000ff" stroke="#0000ff" points="713.8699,-212.5239 703.6909,-209.5849 709.8155,-218.2302 713.8699,-212.5239"/>
<text text-anchor="middle" x="787.4418" y="-242.3" font-family="Times,serif" font-size="14.00" fill="#0000ff">init</text>
</g>
<!-- #14 ReturnStatement (27) -->
<g id="node17" class="node">
<title>#14 ReturnStatement (27)</title>
<ellipse fill="none" stroke="#000000" cx="915.9418" cy="-105" rx="102.8821" ry="18"/>
<text text-anchor="middle" x="915.9418" y="-101.3" font-family="Times,serif" font-size="14.00" fill="#000000">#14 ReturnStatement (27)</text>
</g>
<!-- #10 Variable (v1) &#45; (27)&#45;&gt;#14 ReturnStatement (27) -->
<g id="edge18" class="edge">
<title>#10 Variable (v1) &#45; (27)&#45;&gt;#14 ReturnStatement (27)</title>
<path fill="none" stroke="#ff0000" d="M878.5218,-284.3353C887.6362,-279.2308 896.1347,-272.5859 901.9418,-264 928.4183,-224.8539 925.8316,-167.3005 921.1542,-133.2381"/>
<polygon fill="#ff0000" stroke="#ff0000" points="924.5688,-132.413 919.5963,-123.0575 917.6493,-133.4719 924.5688,-132.413"/>
</g>
<!-- #35 v1&#45;o7 -->
<g id="node18" class="node">
<title>#35 v1&#45;o7</title>
<ellipse fill="none" stroke="#006400" cx="840.9418" cy="-192" rx="46.5926" ry="18"/>
<text text-anchor="middle" x="840.9418" y="-188.3" font-family="Times,serif" font-size="14.00" fill="#006400">#35 v1&#45;o7</text>
</g>
<!-- #10 Variable (v1) &#45; (27)&#45;&gt;#35 v1&#45;o7 -->
<g id="edge20" class="edge">
<title>#10 Variable (v1) &#45; (27)&#45;&gt;#35 v1&#45;o7</title>
<path fill="none" stroke="#006400" d="M830.0412,-281.8677C829.5922,-267.2584 829.5698,-246.2231 831.9418,-228 832.2764,-225.4286 832.7284,-222.7759 833.2524,-220.131"/>
<polygon fill="#006400" stroke="#006400" points="836.7158,-220.6861 835.5352,-210.1573 829.8922,-219.1243 836.7158,-220.6861"/>
<text text-anchor="middle" x="866.9418" y="-242.3" font-family="Times,serif" font-size="14.00" fill="#006400">CREATE v1</text>
</g>
<!-- #2 Function (anon) &#45; (23)&#45;&gt;#25 CFG_F_START 2_anon -->
<g id="edge23" class="edge">
<title>#2 Function (anon) &#45; (23)&#45;&gt;#25 CFG_F_START 2_anon</title>
<path fill="none" stroke="#000000" d="M1249.7596,-369.1319C1233.5041,-345.2473 1203.8724,-301.5614 1178.9418,-264 1168.9874,-249.0024 1157.9825,-232.1585 1149.1255,-218.5353"/>
<polygon fill="#000000" stroke="#000000" points="1152.0295,-216.5807 1143.648,-210.0998 1146.1586,-220.3929 1152.0295,-216.5807"/>
<text text-anchor="middle" x="1222.9418" y="-296.3" font-family="Times,serif" font-size="14.00" fill="#000000">FD</text>
</g>
<!-- #3 Identifier (x) &#45; (23) -->
<g id="node19" class="node">
<title>#3 Identifier (x) &#45; (23)</title>
<ellipse fill="none" stroke="#000000" cx="1390.9418" cy="-300" rx="89.8845" ry="18"/>
<text text-anchor="middle" x="1390.9418" y="-296.3" font-family="Times,serif" font-size="14.00" fill="#000000">#3 Identifier (x) &#45; (23)</text>
</g>
<!-- #2 Function (anon) &#45; (23)&#45;&gt;#3 Identifier (x) &#45; (23) -->
<g id="edge21" class="edge">
<title>#2 Function (anon) &#45; (23)&#45;&gt;#3 Identifier (x) &#45; (23)</title>
<path fill="none" stroke="#0000ff" d="M1288.0468,-369.3943C1307.847,-356.0407 1335.2368,-337.5685 1356.7795,-323.0396"/>
<polygon fill="#0000ff" stroke="#0000ff" points="1358.982,-325.7759 1365.3157,-317.2827 1355.068,-319.9724 1358.982,-325.7759"/>
<text text-anchor="middle" x="1356.9418" y="-339.8" font-family="Times,serif" font-size="14.00" fill="#0000ff">param 1</text>
</g>
<!-- #6 BlockStatement (23) -->
<g id="node20" class="node">
<title>#6 BlockStatement (23)</title>
<ellipse fill="none" stroke="#000000" cx="1275.9418" cy="-246" rx="95.5831" ry="18"/>
<text text-anchor="middle" x="1275.9418" y="-242.3" font-family="Times,serif" font-size="14.00" fill="#000000">#6 BlockStatement (23)</text>
</g>
<!-- #2 Function (anon) &#45; (23)&#45;&gt;#6 BlockStatement (23) -->
<g id="edge22" class="edge">
<title>#2 Function (anon) &#45; (23)&#45;&gt;#6 BlockStatement (23)</title>
<path fill="none" stroke="#0000ff" d="M1263.7433,-368.8554C1266.127,-344.8485 1270.3531,-302.2861 1273.1513,-274.1035"/>
<polygon fill="#0000ff" stroke="#0000ff" points="1276.6418,-274.3719 1274.1471,-264.075 1269.6761,-273.6802 1276.6418,-274.3719"/>
<text text-anchor="middle" x="1281.4418" y="-339.8" font-family="Times,serif" font-size="14.00" fill="#0000ff">block</text>
</g>
<!-- #8 Function (anon) &#45; (23)&#45;&gt;#27 CFG_F_START 8_anon -->
<g id="edge26" class="edge">
<title>#8 Function (anon) &#45; (23)&#45;&gt;#27 CFG_F_START 8_anon</title>
<path fill="none" stroke="#000000" d="M858.3078,-544.2255C827.8822,-530.2938 784.4158,-510.3908 751.5211,-495.3284"/>
<polygon fill="#000000" stroke="#000000" points="752.6608,-492.0009 742.1115,-491.0198 749.7465,-498.3654 752.6608,-492.0009"/>
<text text-anchor="middle" x="820.9418" y="-513.8" font-family="Times,serif" font-size="14.00" fill="#000000">FD</text>
</g>
<!-- #9 Identifier (x) &#45; (23) -->
<g id="node21" class="node">
<title>#9 Identifier (x) &#45; (23)</title>
<ellipse fill="none" stroke="#000000" cx="925.9418" cy="-474" rx="89.8845" ry="18"/>
<text text-anchor="middle" x="925.9418" y="-470.3" font-family="Times,serif" font-size="14.00" fill="#000000">#9 Identifier (x) &#45; (23)</text>
</g>
<!-- #8 Function (anon) &#45; (23)&#45;&gt;#9 Identifier (x) &#45; (23) -->
<g id="edge24" class="edge">
<title>#8 Function (anon) &#45; (23)&#45;&gt;#9 Identifier (x) &#45; (23)</title>
<path fill="none" stroke="#0000ff" d="M901.365,-542.9735C905.6046,-531.0751 911.2432,-515.2508 916.05,-501.7606"/>
<polygon fill="#0000ff" stroke="#0000ff" points="919.4671,-502.598 919.5268,-492.0034 912.8732,-500.2484 919.4671,-502.598"/>
<text text-anchor="middle" x="935.9418" y="-513.8" font-family="Times,serif" font-size="14.00" fill="#0000ff">param 1</text>
</g>
<!-- #16 BlockStatement (23) -->
<g id="node22" class="node">
<title>#16 BlockStatement (23)</title>
<ellipse fill="none" stroke="#000000" cx="990.9418" cy="-387" rx="100.1823" ry="18"/>
<text text-anchor="middle" x="990.9418" y="-383.3" font-family="Times,serif" font-size="14.00" fill="#000000">#16 BlockStatement (23)</text>
</g>
<!-- #8 Function (anon) &#45; (23)&#45;&gt;#16 BlockStatement (23) -->
<g id="edge25" class="edge">
<title>#8 Function (anon) &#45; (23)&#45;&gt;#16 BlockStatement (23)</title>
<path fill="none" stroke="#0000ff" d="M951.3167,-546.0419C978.6154,-535.6472 1008.8923,-518.7238 1024.9418,-492 1039.6817,-467.4568 1025.6338,-435.795 1011.3809,-413.6847"/>
<polygon fill="#0000ff" stroke="#0000ff" points="1014.0768,-411.4255 1005.5528,-405.1333 1008.2924,-415.3678 1014.0768,-411.4255"/>
<text text-anchor="middle" x="1046.4418" y="-470.3" font-family="Times,serif" font-size="14.00" fill="#0000ff">block</text>
</g>
<!-- #19 MemberExpression (23) -->
<g id="node23" class="node">
<title>#19 MemberExpression (23)</title>
<ellipse fill="none" stroke="#000000" cx="316.9418" cy="-387" rx="113.18" ry="18"/>
<text text-anchor="middle" x="316.9418" y="-383.3" font-family="Times,serif" font-size="14.00" fill="#000000">#19 MemberExpression (23)</text>
</g>
<!-- #18 AssignmentExpression (23)&#45;&gt;#19 MemberExpression (23) -->
<g id="edge27" class="edge">
<title>#18 AssignmentExpression (23)&#45;&gt;#19 MemberExpression (23)</title>
<path fill="none" stroke="#0000ff" d="M227.8769,-456.1843C244.6374,-443.165 267.5545,-425.3633 285.9447,-411.0781"/>
<polygon fill="#0000ff" stroke="#0000ff" points="288.287,-413.6905 294.0373,-404.7919 283.9929,-408.1624 288.287,-413.6905"/>
<text text-anchor="middle" x="277.4418" y="-426.8" font-family="Times,serif" font-size="14.00" fill="#0000ff">left</text>
</g>
<!-- #22 Identifier (f) &#45; (23) -->
<g id="node24" class="node">
<title>#22 Identifier (f) &#45; (23)</title>
<ellipse fill="none" stroke="#000000" cx="92.9418" cy="-387" rx="92.8835" ry="18"/>
<text text-anchor="middle" x="92.9418" y="-383.3" font-family="Times,serif" font-size="14.00" fill="#000000">#22 Identifier (f) &#45; (23)</text>
</g>
<!-- #18 AssignmentExpression (23)&#45;&gt;#22 Identifier (f) &#45; (23) -->
<g id="edge28" class="edge">
<title>#18 AssignmentExpression (23)&#45;&gt;#22 Identifier (f) &#45; (23)</title>
<path fill="none" stroke="#0000ff" d="M182.0066,-456.1843C165.1351,-443.0788 142.0252,-425.1274 123.5741,-410.7948"/>
<polygon fill="#0000ff" stroke="#0000ff" points="125.5079,-407.8651 115.4635,-404.4946 121.2137,-413.3932 125.5079,-407.8651"/>
<text text-anchor="middle" x="168.9418" y="-426.8" font-family="Times,serif" font-size="14.00" fill="#0000ff">right</text>
</g>
<!-- #12 Identifier (eval) &#45; (27) -->
<g id="node25" class="node">
<title>#12 Identifier (eval) &#45; (27)</title>
<ellipse fill="none" stroke="#000000" cx="684.9418" cy="-105" rx="104.7816" ry="18"/>
<text text-anchor="middle" x="684.9418" y="-101.3" font-family="Times,serif" font-size="14.00" fill="#000000">#12 Identifier (eval) &#45; (27)</text>
</g>
<!-- #11 CallExpression (27)&#45;&gt;#12 Identifier (eval) &#45; (27) -->
<g id="edge29" class="edge">
<title>#11 CallExpression (27)&#45;&gt;#12 Identifier (eval) &#45; (27)</title>
<path fill="none" stroke="#0000ff" d="M680.185,-173.9735C680.9975,-162.1918 682.0755,-146.5607 682.9998,-133.1581"/>
<polygon fill="#0000ff" stroke="#0000ff" points="686.5037,-133.2205 683.7001,-123.0034 679.5203,-132.7388 686.5037,-133.2205"/>
<text text-anchor="middle" x="698.9418" y="-144.8" font-family="Times,serif" font-size="14.00" fill="#0000ff">callee</text>
</g>
<!-- #13 Identifier (x) &#45; (27) -->
<g id="node26" class="node">
<title>#13 Identifier (x) &#45; (27)</title>
<ellipse fill="none" stroke="#000000" cx="467.9418" cy="-105" rx="94.4839" ry="18"/>
<text text-anchor="middle" x="467.9418" y="-101.3" font-family="Times,serif" font-size="14.00" fill="#000000">#13 Identifier (x) &#45; (27)</text>
</g>
<!-- #11 CallExpression (27)&#45;&gt;#13 Identifier (x) &#45; (27) -->
<g id="edge30" class="edge">
<title>#11 CallExpression (27)&#45;&gt;#13 Identifier (x) &#45; (27)</title>
<path fill="none" stroke="#0000ff" d="M638.7576,-175.4312C604.1828,-161.1752 554.1778,-140.5571 517.1995,-125.3101"/>
<polygon fill="#0000ff" stroke="#0000ff" points="518.1978,-121.9359 507.6186,-121.3596 515.5294,-128.4073 518.1978,-121.9359"/>
<text text-anchor="middle" x="600.9418" y="-144.8" font-family="Times,serif" font-size="14.00" fill="#0000ff">arg 1</text>
</g>
<!-- #15 Identifier (v1) &#45; (27) -->
<g id="node27" class="node">
<title>#15 Identifier (v1) &#45; (27)</title>
<ellipse fill="none" stroke="#000000" cx="733.9418" cy="-18" rx="98.5829" ry="18"/>
<text text-anchor="middle" x="733.9418" y="-14.3" font-family="Times,serif" font-size="14.00" fill="#000000">#15 Identifier (v1) &#45; (27)</text>
</g>
<!-- #14 ReturnStatement (27)&#45;&gt;#15 Identifier (v1) &#45; (27) -->
<g id="edge31" class="edge">
<title>#14 ReturnStatement (27)&#45;&gt;#15 Identifier (v1) &#45; (27)</title>
<path fill="none" stroke="#0000ff" d="M880.4183,-88.019C851.3559,-74.1265 810.086,-54.3986 778.7553,-39.4219"/>
<polygon fill="#0000ff" stroke="#0000ff" points="779.9073,-36.0933 769.3756,-34.9382 776.8883,-42.4088 779.9073,-36.0933"/>
<text text-anchor="middle" x="861.9418" y="-57.8" font-family="Times,serif" font-size="14.00" fill="#0000ff">argument</text>
</g>
<!-- #28 CFG_F_END 8_anon -->
<g id="node28" class="node">
<title>#28 CFG_F_END 8_anon</title>
<ellipse fill="none" stroke="#ff0000" cx="953.9418" cy="-18" rx="103.1819" ry="18"/>
<text text-anchor="middle" x="953.9418" y="-14.3" font-family="Times,serif" font-size="14.00" fill="#ff0000">#28 CFG_F_END 8_anon</text>
</g>
<!-- #14 ReturnStatement (27)&#45;&gt;#28 CFG_F_END 8_anon -->
<g id="edge32" class="edge">
<title>#14 ReturnStatement (27)&#45;&gt;#28 CFG_F_END 8_anon</title>
<path fill="none" stroke="#ff0000" d="M923.8154,-86.9735C929.0633,-74.9585 936.0599,-58.9401 941.9894,-45.3646"/>
<polygon fill="#ff0000" stroke="#ff0000" points="945.2829,-46.5683 946.0782,-36.0034 938.8681,-43.7664 945.2829,-46.5683"/>
</g>
<!-- #35 v1&#45;o7&#45;&gt;#14 ReturnStatement (27) -->
<g id="edge33" class="edge">
<title>#35 v1&#45;o7&#45;&gt;#14 ReturnStatement (27)</title>
<path fill="none" stroke="#006400" d="M842.9323,-173.9954C844.8491,-163.4947 848.6025,-150.4914 855.9418,-141 859.843,-135.9548 864.6675,-131.4648 869.8726,-127.5146"/>
<polygon fill="#006400" stroke="#006400" points="872.0161,-130.2887 878.2872,-121.7491 868.0595,-124.5141 872.0161,-130.2887"/>
<text text-anchor="middle" x="878.9418" y="-144.8" font-family="Times,serif" font-size="14.00" fill="#006400">VAR v1</text>
</g>
<!-- #31 x&#45;o3 -->
<g id="node29" class="node">
<title>#31 x&#45;o3</title>
<ellipse fill="none" stroke="#006400" cx="1374.9418" cy="-192" rx="42.4939" ry="18"/>
<text text-anchor="middle" x="1374.9418" y="-188.3" font-family="Times,serif" font-size="14.00" fill="#006400">#31 x&#45;o3</text>
</g>
<!-- #3 Identifier (x) &#45; (23)&#45;&gt;#31 x&#45;o3 -->
<g id="edge34" class="edge">
<title>#3 Identifier (x) &#45; (23)&#45;&gt;#31 x&#45;o3</title>
<path fill="none" stroke="#006400" d="M1388.2276,-281.6793C1385.73,-264.821 1381.9884,-239.5651 1379.1117,-220.147"/>
<polygon fill="#006400" stroke="#006400" points="1382.5436,-219.4292 1377.6159,-210.0502 1375.6192,-220.4551 1382.5436,-219.4292"/>
<text text-anchor="middle" x="1416.9418" y="-242.3" font-family="Times,serif" font-size="14.00" fill="#006400">CREATE x</text>
</g>
<!-- #6 BlockStatement (23)&#45;&gt;#4 ReturnStatement (25) -->
<g id="edge35" class="edge">
<title>#6 BlockStatement (23)&#45;&gt;#4 ReturnStatement (25)</title>
<path fill="none" stroke="#0000ff" d="M1276.5852,-227.8554C1277.4365,-203.8485 1278.9458,-161.2861 1279.9452,-133.1035"/>
<polygon fill="#0000ff" stroke="#0000ff" points="1283.4441,-133.1928 1280.3008,-123.075 1276.4485,-132.9446 1283.4441,-133.1928"/>
<text text-anchor="middle" x="1281.4418" y="-188.3" font-family="Times,serif" font-size="14.00" fill="#0000ff">1</text>
</g>
<!-- #34 x&#45;o6 -->
<g id="node30" class="node">
<title>#34 x&#45;o6</title>
<ellipse fill="none" stroke="#006400" cx="830.9418" cy="-387" rx="42.4939" ry="18"/>
<text text-anchor="middle" x="830.9418" y="-383.3" font-family="Times,serif" font-size="14.00" fill="#006400">#34 x&#45;o6</text>
</g>
<!-- #9 Identifier (x) &#45; (23)&#45;&gt;#34 x&#45;o6 -->
<g id="edge36" class="edge">
<title>#9 Identifier (x) &#45; (23)&#45;&gt;#34 x&#45;o6</title>
<path fill="none" stroke="#006400" d="M906.7171,-456.3943C892.1801,-443.0814 872.0878,-424.6811 856.2453,-410.1727"/>
<polygon fill="#006400" stroke="#006400" points="858.591,-407.575 848.8524,-403.4024 853.8634,-412.7373 858.591,-407.575"/>
<text text-anchor="middle" x="916.9418" y="-426.8" font-family="Times,serif" font-size="14.00" fill="#006400">CREATE x</text>
</g>
<!-- #16 BlockStatement (23)&#45;&gt;#10 Variable (v1) &#45; (27) -->
<g id="edge37" class="edge">
<title>#16 BlockStatement (23)&#45;&gt;#10 Variable (v1) &#45; (27)</title>
<path fill="none" stroke="#0000ff" d="M959.3309,-369.8116C934.1296,-356.1084 898.6662,-336.8252 871.3948,-321.9963"/>
<polygon fill="#0000ff" stroke="#0000ff" points="872.9442,-318.8549 862.4869,-317.1527 869.6002,-325.0046 872.9442,-318.8549"/>
<text text-anchor="middle" x="924.4418" y="-339.8" font-family="Times,serif" font-size="14.00" fill="#0000ff">1</text>
</g>
<!-- #16 BlockStatement (23)&#45;&gt;#14 ReturnStatement (27) -->
<g id="edge38" class="edge">
<title>#16 BlockStatement (23)&#45;&gt;#14 ReturnStatement (27)</title>
<path fill="none" stroke="#0000ff" d="M989.689,-368.6347C987.3664,-338.7776 981.4453,-278.015 968.9418,-228 958.9496,-188.0308 954.5001,-178.2705 936.9418,-141 935.5233,-137.989 933.9365,-134.8977 932.2877,-131.8522"/>
<polygon fill="#0000ff" stroke="#0000ff" points="935.2358,-129.9553 927.2617,-122.9792 929.145,-133.4054 935.2358,-129.9553"/>
<text text-anchor="middle" x="980.4418" y="-242.3" font-family="Times,serif" font-size="14.00" fill="#0000ff">2</text>
</g>
<!-- #20 Identifier (module) &#45; (23) -->
<g id="node31" class="node">
<title>#20 Identifier (module) &#45; (23)</title>
<ellipse fill="none" stroke="#000000" cx="191.9418" cy="-300" rx="116.1796" ry="18"/>
<text text-anchor="middle" x="191.9418" y="-296.3" font-family="Times,serif" font-size="14.00" fill="#000000">#20 Identifier (module) &#45; (23)</text>
</g>
<!-- #19 MemberExpression (23)&#45;&gt;#20 Identifier (module) &#45; (23) -->
<g id="edge39" class="edge">
<title>#19 MemberExpression (23)&#45;&gt;#20 Identifier (module) &#45; (23)</title>
<path fill="none" stroke="#0000ff" d="M291.6461,-369.3943C272.5854,-356.1279 246.266,-337.8097 225.4547,-323.325"/>
<polygon fill="#0000ff" stroke="#0000ff" points="227.4069,-320.4195 217.1997,-317.5796 223.4081,-326.1649 227.4069,-320.4195"/>
<text text-anchor="middle" x="278.9418" y="-339.8" font-family="Times,serif" font-size="14.00" fill="#0000ff">object</text>
</g>
<!-- #21 Identifier (exports) &#45; (23) -->
<g id="node32" class="node">
<title>#21 Identifier (exports) &#45; (23)</title>
<ellipse fill="none" stroke="#000000" cx="441.9418" cy="-300" rx="115.8798" ry="18"/>
<text text-anchor="middle" x="441.9418" y="-296.3" font-family="Times,serif" font-size="14.00" fill="#000000">#21 Identifier (exports) &#45; (23)</text>
</g>
<!-- #19 MemberExpression (23)&#45;&gt;#21 Identifier (exports) &#45; (23) -->
<g id="edge40" class="edge">
<title>#19 MemberExpression (23)&#45;&gt;#21 Identifier (exports) &#45; (23)</title>
<path fill="none" stroke="#0000ff" d="M342.2374,-369.3943C361.2982,-356.1279 387.6175,-337.8097 408.4288,-323.325"/>
<polygon fill="#0000ff" stroke="#0000ff" points="410.4754,-326.1649 416.6838,-317.5796 406.4766,-320.4195 410.4754,-326.1649"/>
<text text-anchor="middle" x="409.9418" y="-339.8" font-family="Times,serif" font-size="14.00" fill="#0000ff">property</text>
</g>
<!-- #31 x&#45;o3&#45;&gt;#4 ReturnStatement (25) -->
<g id="edge41" class="edge">
<title>#31 x&#45;o3&#45;&gt;#4 ReturnStatement (25)</title>
<path fill="none" stroke="#006400" d="M1357.2611,-175.636C1343.2757,-162.6921 1323.5237,-144.4109 1307.6179,-129.6896"/>
<polygon fill="#006400" stroke="#006400" points="1309.8772,-127.0116 1300.1607,-122.7878 1305.1224,-132.149 1309.8772,-127.0116"/>
<text text-anchor="middle" x="1352.9418" y="-144.8" font-family="Times,serif" font-size="14.00" fill="#006400">VAR x</text>
</g>
<!-- #34 x&#45;o6&#45;&gt;#10 Variable (v1) &#45; (27) -->
<g id="edge42" class="edge">
<title>#34 x&#45;o6&#45;&gt;#10 Variable (v1) &#45; (27)</title>
<path fill="none" stroke="#006400" d="M830.9418,-368.9735C830.9418,-357.1918 830.9418,-341.5607 830.9418,-328.1581"/>
<polygon fill="#006400" stroke="#006400" points="834.4419,-328.0033 830.9418,-318.0034 827.4419,-328.0034 834.4419,-328.0033"/>
<text text-anchor="middle" x="850.9418" y="-339.8" font-family="Times,serif" font-size="14.00" fill="#006400">VAR x</text>
</g>
</g>
</svg>
