<?xml version="1.0" encoding="UTF-8" standalone="no"?>
<!DOCTYPE svg PUBLIC "-//W3C//DTD SVG 1.1//EN"
 "http://www.w3.org/Graphics/SVG/1.1/DTD/svg11.dtd">
<!-- Generated by graphviz version 2.40.1 (20161225.0304)
 -->
<!-- Title: G Pages: 1 -->
<svg width="1639pt" height="1109pt"
 viewBox="0.00 0.00 1638.84 1109.00" xmlns="http://www.w3.org/2000/svg" xmlns:xlink="http://www.w3.org/1999/xlink">
<g id="graph0" class="graph" transform="scale(1 1) rotate(0) translate(4 1105)">
<title>G</title>
<polygon fill="#ffffff" stroke="transparent" points="-4,4 -4,-1105 1634.8356,-1105 1634.8356,4 -4,4"/>
<!-- #0 Program -->
<g id="node1" class="node">
<title>#0 Program</title>
<ellipse fill="none" stroke="#000000" cx="723.2416" cy="-1083" rx="52.7911" ry="18"/>
<text text-anchor="middle" x="723.2416" y="-1079.3" font-family="Times,serif" font-size="14.00" fill="#000000">#0 Program</text>
</g>
<!-- #1 Variable (f) -->
<g id="node2" class="node">
<title>#1 Variable (f)</title>
<ellipse fill="none" stroke="#000000" cx="946.2416" cy="-996" rx="63.8893" ry="18"/>
<text text-anchor="middle" x="946.2416" y="-992.3" font-family="Times,serif" font-size="14.00" fill="#000000">#1 Variable (f)</text>
</g>
<!-- #0 Program&#45;&gt;#1 Variable (f) -->
<g id="edge1" class="edge">
<title>#0 Program&#45;&gt;#1 Variable (f)</title>
<path fill="none" stroke="#0000ff" d="M758.0854,-1069.4063C796.0429,-1054.5977 856.9723,-1030.827 899.1657,-1014.3659"/>
<polygon fill="#0000ff" stroke="#0000ff" points="900.6209,-1017.5552 908.6649,-1010.66 898.0767,-1011.0339 900.6209,-1017.5552"/>
<text text-anchor="middle" x="851.7416" y="-1035.8" font-family="Times,serif" font-size="14.00" fill="#0000ff">1</text>
</g>
<!-- #23 ExpressionStatement -->
<g id="node3" class="node">
<title>#23 ExpressionStatement</title>
<ellipse fill="none" stroke="#000000" cx="648.2416" cy="-909" rx="100.9827" ry="18"/>
<text text-anchor="middle" x="648.2416" y="-905.3" font-family="Times,serif" font-size="14.00" fill="#000000">#23 ExpressionStatement</text>
</g>
<!-- #0 Program&#45;&gt;#23 ExpressionStatement -->
<g id="edge2" class="edge">
<title>#0 Program&#45;&gt;#23 ExpressionStatement</title>
<path fill="none" stroke="#0000ff" d="M715.4978,-1065.0343C702.3611,-1034.5572 675.6274,-972.5349 660.1133,-936.5423"/>
<polygon fill="#0000ff" stroke="#0000ff" points="663.2282,-934.9265 656.0557,-927.1286 656.7999,-937.6973 663.2282,-934.9265"/>
<text text-anchor="middle" x="696.7416" y="-992.3" font-family="Times,serif" font-size="14.00" fill="#0000ff">2</text>
</g>
<!-- #1 Variable (f)&#45;&gt;#23 ExpressionStatement -->
<g id="edge7" class="edge">
<title>#1 Variable (f)&#45;&gt;#23 ExpressionStatement</title>
<path fill="none" stroke="#ff0000" d="M901.628,-982.9752C850.9003,-968.1655 767.7324,-943.8849 710.6033,-927.2063"/>
<polygon fill="#ff0000" stroke="#ff0000" points="711.5413,-923.8341 700.9611,-924.3913 709.5795,-930.5536 711.5413,-923.8341"/>
</g>
<!-- #31 CFG_F_START 2_anon -->
<g id="node5" class="node">
<title>#31 CFG_F_START 2_anon</title>
<ellipse fill="none" stroke="#ff0000" cx="1069.2416" cy="-822" rx="113.18" ry="18"/>
<text text-anchor="middle" x="1069.2416" y="-818.3" font-family="Times,serif" font-size="14.00" fill="#ff0000">#31 CFG_F_START 2_anon</text>
</g>
<!-- #1 Variable (f)&#45;&gt;#31 CFG_F_START 2_anon -->
<g id="edge6" class="edge">
<title>#1 Variable (f)&#45;&gt;#31 CFG_F_START 2_anon</title>
<path fill="none" stroke="#000000" d="M942.6978,-977.5755C938.2632,-948.6884 934.3078,-892.4843 962.2416,-858 967.5012,-851.5071 981.1272,-845.3457 996.9629,-840.0153"/>
<polygon fill="#000000" stroke="#000000" points="998.031,-843.3484 1006.4956,-836.9766 995.905,-836.6791 998.031,-843.3484"/>
<text text-anchor="middle" x="954.2416" y="-905.3" font-family="Times,serif" font-size="14.00" fill="#000000">FD</text>
</g>
<!-- #2 Function (anon) -->
<g id="node7" class="node">
<title>#2 Function (anon)</title>
<ellipse fill="none" stroke="#000000" cx="1067.2416" cy="-909" rx="78.7863" ry="18"/>
<text text-anchor="middle" x="1067.2416" y="-905.3" font-family="Times,serif" font-size="14.00" fill="#000000">#2 Function (anon)</text>
</g>
<!-- #1 Variable (f)&#45;&gt;#2 Function (anon) -->
<g id="edge5" class="edge">
<title>#1 Variable (f)&#45;&gt;#2 Function (anon)</title>
<path fill="none" stroke="#0000ff" d="M969.5717,-979.2255C988.162,-965.8589 1014.3971,-946.9957 1034.9964,-932.1846"/>
<polygon fill="#0000ff" stroke="#0000ff" points="1037.0791,-934.998 1043.155,-926.3185 1032.9926,-929.3145 1037.0791,-934.998"/>
<text text-anchor="middle" x="1022.7416" y="-948.8" font-family="Times,serif" font-size="14.00" fill="#0000ff">init</text>
</g>
<!-- #24 AssignmentExpression -->
<g id="node8" class="node">
<title>#24 AssignmentExpression</title>
<ellipse fill="none" stroke="#000000" cx="402.2416" cy="-822" rx="107.781" ry="18"/>
<text text-anchor="middle" x="402.2416" y="-818.3" font-family="Times,serif" font-size="14.00" fill="#000000">#24 AssignmentExpression</text>
</g>
<!-- #23 ExpressionStatement&#45;&gt;#24 AssignmentExpression -->
<g id="edge8" class="edge">
<title>#23 ExpressionStatement&#45;&gt;#24 AssignmentExpression</title>
<path fill="none" stroke="#0000ff" d="M602.5474,-892.8399C561.7271,-878.4034 501.8035,-857.2109 458.1387,-841.7685"/>
<polygon fill="#0000ff" stroke="#0000ff" points="459.1207,-838.4034 448.5259,-838.3688 456.7867,-845.0028 459.1207,-838.4034"/>
<text text-anchor="middle" x="569.2416" y="-861.8" font-family="Times,serif" font-size="14.00" fill="#0000ff">expression</text>
</g>
<!-- #30 CFG_F_END __main__ -->
<g id="node9" class="node">
<title>#30 CFG_F_END __main__</title>
<ellipse fill="none" stroke="#ff0000" cx="641.2416" cy="-822" rx="113.18" ry="18"/>
<text text-anchor="middle" x="641.2416" y="-818.3" font-family="Times,serif" font-size="14.00" fill="#ff0000">#30 CFG_F_END __main__</text>
</g>
<!-- #23 ExpressionStatement&#45;&gt;#30 CFG_F_END __main__ -->
<g id="edge9" class="edge">
<title>#23 ExpressionStatement&#45;&gt;#30 CFG_F_END __main__</title>
<path fill="none" stroke="#ff0000" d="M646.7912,-890.9735C645.8433,-879.1918 644.5856,-863.5607 643.5072,-850.1581"/>
<polygon fill="#ff0000" stroke="#ff0000" points="646.981,-849.6904 642.6902,-840.0034 640.0036,-850.2519 646.981,-849.6904"/>
</g>
<!-- #29 CFG_F_START __main__ -->
<g id="node4" class="node">
<title>#29 CFG_F_START __main__</title>
<ellipse fill="none" stroke="#ff0000" cx="946.2416" cy="-1083" rx="122.6784" ry="18"/>
<text text-anchor="middle" x="946.2416" y="-1079.3" font-family="Times,serif" font-size="14.00" fill="#ff0000">#29 CFG_F_START __main__</text>
</g>
<!-- #29 CFG_F_START __main__&#45;&gt;#1 Variable (f) -->
<g id="edge3" class="edge">
<title>#29 CFG_F_START __main__&#45;&gt;#1 Variable (f)</title>
<path fill="none" stroke="#ff0000" d="M946.2416,-1064.9735C946.2416,-1053.1918 946.2416,-1037.5607 946.2416,-1024.1581"/>
<polygon fill="#ff0000" stroke="#ff0000" points="949.7417,-1024.0033 946.2416,-1014.0034 942.7417,-1024.0034 949.7417,-1024.0033"/>
</g>
<!-- #4 Variable (x) -->
<g id="node6" class="node">
<title>#4 Variable (x)</title>
<ellipse fill="none" stroke="#000000" cx="940.2416" cy="-714" rx="64.9885" ry="18"/>
<text text-anchor="middle" x="940.2416" y="-710.3" font-family="Times,serif" font-size="14.00" fill="#000000">#4 Variable (x)</text>
</g>
<!-- #31 CFG_F_START 2_anon&#45;&gt;#4 Variable (x) -->
<g id="edge4" class="edge">
<title>#31 CFG_F_START 2_anon&#45;&gt;#4 Variable (x)</title>
<path fill="none" stroke="#ff0000" d="M1047.9399,-804.166C1026.2086,-785.9724 992.3695,-757.6419 968.4296,-737.5992"/>
<polygon fill="#ff0000" stroke="#ff0000" points="970.6365,-734.8822 960.7222,-731.1465 966.143,-740.2495 970.6365,-734.8822"/>
</g>
<!-- #5 ObjectExpression -->
<g id="node10" class="node">
<title>#5 ObjectExpression</title>
<ellipse fill="none" stroke="#000000" cx="898.2416" cy="-627" rx="84.485" ry="18"/>
<text text-anchor="middle" x="898.2416" y="-623.3" font-family="Times,serif" font-size="14.00" fill="#000000">#5 ObjectExpression</text>
</g>
<!-- #4 Variable (x)&#45;&gt;#5 ObjectExpression -->
<g id="edge10" class="edge">
<title>#4 Variable (x)&#45;&gt;#5 ObjectExpression</title>
<path fill="none" stroke="#0000ff" d="M914.5548,-697.2324C908.4273,-691.8749 902.674,-685.388 899.2416,-678 896.0094,-671.0428 894.8501,-662.9544 894.7309,-655.297"/>
<polygon fill="#0000ff" stroke="#0000ff" points="898.2296,-655.3959 895.1162,-645.2689 891.2348,-655.1271 898.2296,-655.3959"/>
<text text-anchor="middle" x="908.7416" y="-666.8" font-family="Times,serif" font-size="14.00" fill="#0000ff">init</text>
</g>
<!-- #6 ExpressionStatement -->
<g id="node11" class="node">
<title>#6 ExpressionStatement</title>
<ellipse fill="none" stroke="#000000" cx="1200.2416" cy="-627" rx="96.6831" ry="18"/>
<text text-anchor="middle" x="1200.2416" y="-623.3" font-family="Times,serif" font-size="14.00" fill="#000000">#6 ExpressionStatement</text>
</g>
<!-- #4 Variable (x)&#45;&gt;#6 ExpressionStatement -->
<g id="edge11" class="edge">
<title>#4 Variable (x)&#45;&gt;#6 ExpressionStatement</title>
<path fill="none" stroke="#ff0000" d="M969.4409,-697.858C996.0669,-683.1582 1031.5271,-663.6394 1033.2416,-663 1059.1151,-653.3508 1088.2581,-645.9585 1114.8701,-640.4577"/>
<polygon fill="#ff0000" stroke="#ff0000" points="1115.8159,-643.8379 1124.9334,-638.4414 1114.4406,-636.9743 1115.8159,-643.8379"/>
</g>
<!-- #35 x&#45;o3 -->
<g id="node12" class="node">
<title>#35 x&#45;o3</title>
<ellipse fill="none" stroke="#006400" cx="1043.2416" cy="-627" rx="42.4939" ry="18"/>
<text text-anchor="middle" x="1043.2416" y="-623.3" font-family="Times,serif" font-size="14.00" fill="#006400">#35 x&#45;o3</text>
</g>
<!-- #4 Variable (x)&#45;&gt;#35 x&#45;o3 -->
<g id="edge12" class="edge">
<title>#4 Variable (x)&#45;&gt;#35 x&#45;o3</title>
<path fill="none" stroke="#006400" d="M935.8308,-695.88C934.3479,-685.3383 934.5005,-672.3326 941.2416,-663 941.7288,-662.3255 972.9638,-651.3555 1000.7384,-641.7011"/>
<polygon fill="#006400" stroke="#006400" points="1002.0631,-644.9461 1010.3622,-638.3601 999.7674,-638.3333 1002.0631,-644.9461"/>
<text text-anchor="middle" x="973.2416" y="-666.8" font-family="Times,serif" font-size="14.00" fill="#006400">CREATE x</text>
</g>
<!-- #2 Function (anon)&#45;&gt;#31 CFG_F_START 2_anon -->
<g id="edge15" class="edge">
<title>#2 Function (anon)&#45;&gt;#31 CFG_F_START 2_anon</title>
<path fill="none" stroke="#000000" d="M1067.656,-890.9735C1067.9269,-879.1918 1068.2862,-863.5607 1068.5943,-850.1581"/>
<polygon fill="#000000" stroke="#000000" points="1072.0969,-850.0812 1068.8278,-840.0034 1065.0988,-849.9202 1072.0969,-850.0812"/>
<text text-anchor="middle" x="1077.2416" y="-861.8" font-family="Times,serif" font-size="14.00" fill="#000000">FD</text>
</g>
<!-- #3 Identifier (y) -->
<g id="node13" class="node">
<title>#3 Identifier (y)</title>
<ellipse fill="none" stroke="#000000" cx="1300.2416" cy="-768" rx="67.6881" ry="18"/>
<text text-anchor="middle" x="1300.2416" y="-764.3" font-family="Times,serif" font-size="14.00" fill="#000000">#3 Identifier (y)</text>
</g>
<!-- #2 Function (anon)&#45;&gt;#3 Identifier (y) -->
<g id="edge13" class="edge">
<title>#2 Function (anon)&#45;&gt;#3 Identifier (y)</title>
<path fill="none" stroke="#0000ff" d="M1098.7033,-892.3491C1123.996,-878.7593 1160.2874,-858.7985 1191.2416,-840 1217.3087,-824.1695 1246.0662,-805.1035 1267.4951,-790.5692"/>
<polygon fill="#0000ff" stroke="#0000ff" points="1269.6131,-793.3614 1275.9088,-784.84 1265.6732,-787.5754 1269.6131,-793.3614"/>
<text text-anchor="middle" x="1182.2416" y="-861.8" font-family="Times,serif" font-size="14.00" fill="#0000ff">param 1</text>
</g>
<!-- #22 BlockStatement -->
<g id="node14" class="node">
<title>#22 BlockStatement</title>
<ellipse fill="none" stroke="#000000" cx="855.2416" cy="-822" rx="83.3857" ry="18"/>
<text text-anchor="middle" x="855.2416" y="-818.3" font-family="Times,serif" font-size="14.00" fill="#000000">#22 BlockStatement</text>
</g>
<!-- #2 Function (anon)&#45;&gt;#22 BlockStatement -->
<g id="edge14" class="edge">
<title>#2 Function (anon)&#45;&gt;#22 BlockStatement</title>
<path fill="none" stroke="#0000ff" d="M1028.85,-893.245C993.6502,-878.7997 941.3792,-857.3489 903.3943,-841.7608"/>
<polygon fill="#0000ff" stroke="#0000ff" points="904.6441,-838.4905 894.064,-837.9318 901.9865,-844.9664 904.6441,-838.4905"/>
<text text-anchor="middle" x="988.7416" y="-861.8" font-family="Times,serif" font-size="14.00" fill="#0000ff">block</text>
</g>
<!-- #25 MemberExpression -->
<g id="node15" class="node">
<title>#25 MemberExpression</title>
<ellipse fill="none" stroke="#000000" cx="218.2416" cy="-714" rx="96.3833" ry="18"/>
<text text-anchor="middle" x="218.2416" y="-710.3" font-family="Times,serif" font-size="14.00" fill="#000000">#25 MemberExpression</text>
</g>
<!-- #24 AssignmentExpression&#45;&gt;#25 MemberExpression -->
<g id="edge16" class="edge">
<title>#24 AssignmentExpression&#45;&gt;#25 MemberExpression</title>
<path fill="none" stroke="#0000ff" d="M372.6789,-804.6479C341.1591,-786.1472 291.126,-756.78 256.5932,-736.5107"/>
<polygon fill="#0000ff" stroke="#0000ff" points="258.1269,-733.3526 247.7311,-731.309 254.5835,-739.3895 258.1269,-733.3526"/>
<text text-anchor="middle" x="347.7416" y="-764.3" font-family="Times,serif" font-size="14.00" fill="#0000ff">left</text>
</g>
<!-- #28 Identifier (f) -->
<g id="node16" class="node">
<title>#28 Identifier (f)</title>
<ellipse fill="none" stroke="#000000" cx="402.2416" cy="-714" rx="70.3881" ry="18"/>
<text text-anchor="middle" x="402.2416" y="-710.3" font-family="Times,serif" font-size="14.00" fill="#000000">#28 Identifier (f)</text>
</g>
<!-- #24 AssignmentExpression&#45;&gt;#28 Identifier (f) -->
<g id="edge17" class="edge">
<title>#24 AssignmentExpression&#45;&gt;#28 Identifier (f)</title>
<path fill="none" stroke="#0000ff" d="M402.2416,-803.6793C402.2416,-786.821 402.2416,-761.5651 402.2416,-742.147"/>
<polygon fill="#0000ff" stroke="#0000ff" points="405.7417,-742.0501 402.2416,-732.0502 398.7417,-742.0502 405.7417,-742.0501"/>
<text text-anchor="middle" x="415.2416" y="-764.3" font-family="Times,serif" font-size="14.00" fill="#0000ff">right</text>
</g>
<!-- #7 AssignmentExpression -->
<g id="node17" class="node">
<title>#7 AssignmentExpression</title>
<ellipse fill="none" stroke="#000000" cx="1200.2416" cy="-540" rx="103.1819" ry="18"/>
<text text-anchor="middle" x="1200.2416" y="-536.3" font-family="Times,serif" font-size="14.00" fill="#000000">#7 AssignmentExpression</text>
</g>
<!-- #6 ExpressionStatement&#45;&gt;#7 AssignmentExpression -->
<g id="edge18" class="edge">
<title>#6 ExpressionStatement&#45;&gt;#7 AssignmentExpression</title>
<path fill="none" stroke="#0000ff" d="M1200.2416,-608.9735C1200.2416,-597.1918 1200.2416,-581.5607 1200.2416,-568.1581"/>
<polygon fill="#0000ff" stroke="#0000ff" points="1203.7417,-568.0033 1200.2416,-558.0034 1196.7417,-568.0034 1203.7417,-568.0033"/>
<text text-anchor="middle" x="1229.2416" y="-579.8" font-family="Times,serif" font-size="14.00" fill="#0000ff">expression</text>
</g>
<!-- #12 Variable (v1) -->
<g id="node18" class="node">
<title>#12 Variable (v1)</title>
<ellipse fill="none" stroke="#000000" cx="921.2416" cy="-453" rx="73.387" ry="18"/>
<text text-anchor="middle" x="921.2416" y="-449.3" font-family="Times,serif" font-size="14.00" fill="#000000">#12 Variable (v1)</text>
</g>
<!-- #6 ExpressionStatement&#45;&gt;#12 Variable (v1) -->
<g id="edge19" class="edge">
<title>#6 ExpressionStatement&#45;&gt;#12 Variable (v1)</title>
<path fill="none" stroke="#ff0000" d="M1129.7317,-614.564C1099.2087,-608.1634 1067.6446,-599.8532 1055.2416,-591 1011.2931,-559.6299 1029.0541,-525.4763 989.2416,-489 982.8705,-483.1627 975.3773,-477.9769 967.736,-473.4859"/>
<polygon fill="#ff0000" stroke="#ff0000" points="969.2033,-470.2982 958.756,-468.5357 965.8239,-476.4285 969.2033,-470.2982"/>
</g>
<!-- #36 x&#45;o4 -->
<g id="node19" class="node">
<title>#36 x&#45;o4</title>
<ellipse fill="none" stroke="#006400" cx="921.2416" cy="-540" rx="42.4939" ry="18"/>
<text text-anchor="middle" x="921.2416" y="-536.3" font-family="Times,serif" font-size="14.00" fill="#006400">#36 x&#45;o4</text>
</g>
<!-- #6 ExpressionStatement&#45;&gt;#36 x&#45;o4 -->
<g id="edge20" class="edge">
<title>#6 ExpressionStatement&#45;&gt;#36 x&#45;o4</title>
<path fill="none" stroke="#006400" d="M1129.3012,-614.6554C1117.5981,-612.7046 1105.5865,-610.7544 1094.2416,-609 1037.0328,-600.1533 1016.0772,-618.6921 965.2416,-591 954.2809,-585.0293 944.8113,-575.1719 937.4948,-565.7067"/>
<polygon fill="#006400" stroke="#006400" points="940.3293,-563.6535 931.636,-557.5973 934.6552,-567.7529 940.3293,-563.6535"/>
<text text-anchor="middle" x="991.2416" y="-579.8" font-family="Times,serif" font-size="14.00" fill="#006400">WRITE f</text>
</g>
<!-- #35 x&#45;o3&#45;&gt;#36 x&#45;o4 -->
<g id="edge21" class="edge">
<title>#35 x&#45;o3&#45;&gt;#36 x&#45;o4</title>
<path fill="none" stroke="#006400" d="M1011.6606,-614.843C1004.9947,-612.6243 997.9475,-610.5308 991.2416,-609 957.4353,-601.2829 859.3037,-616.8952 836.2416,-591 820.4233,-573.2384 846.458,-559.7904 873.7661,-551.1752"/>
<polygon fill="#006400" stroke="#006400" points="874.8105,-554.5163 883.4119,-548.3302 872.8302,-547.8022 874.8105,-554.5163"/>
<text text-anchor="middle" x="889.2416" y="-579.8" font-family="Times,serif" font-size="14.00" fill="#006400">NEW_VERSION f</text>
</g>
<!-- #33 y&#45;o2 -->
<g id="node20" class="node">
<title>#33 y&#45;o2</title>
<ellipse fill="none" stroke="#006400" cx="1040.2416" cy="-366" rx="42.4939" ry="18"/>
<text text-anchor="middle" x="1040.2416" y="-362.3" font-family="Times,serif" font-size="14.00" fill="#006400">#33 y&#45;o2</text>
</g>
<!-- #3 Identifier (y)&#45;&gt;#33 y&#45;o2 -->
<g id="edge22" class="edge">
<title>#3 Identifier (y)&#45;&gt;#33 y&#45;o2</title>
<path fill="none" stroke="#006400" d="M1309.7111,-749.8557C1318.8276,-730.6754 1331.2416,-699.2746 1331.2416,-670.5 1331.2416,-670.5 1331.2416,-670.5 1331.2416,-453 1331.2416,-403.5831 1175.2497,-379.8914 1091.6872,-370.7452"/>
<polygon fill="#006400" stroke="#006400" points="1091.9397,-367.2524 1081.6258,-369.6759 1091.1999,-374.2132 1091.9397,-367.2524"/>
<text text-anchor="middle" x="1363.2416" y="-579.8" font-family="Times,serif" font-size="14.00" fill="#006400">CREATE y</text>
</g>
<!-- #22 BlockStatement&#45;&gt;#4 Variable (x) -->
<g id="edge23" class="edge">
<title>#22 BlockStatement&#45;&gt;#4 Variable (x)</title>
<path fill="none" stroke="#0000ff" d="M869.2777,-804.166C883.0582,-786.6567 904.2278,-759.7587 919.8613,-739.895"/>
<polygon fill="#0000ff" stroke="#0000ff" points="922.7504,-741.8833 926.1848,-731.8605 917.2497,-737.554 922.7504,-741.8833"/>
<text text-anchor="middle" x="914.7416" y="-764.3" font-family="Times,serif" font-size="14.00" fill="#0000ff">1</text>
</g>
<!-- #22 BlockStatement&#45;&gt;#6 ExpressionStatement -->
<g id="edge24" class="edge">
<title>#22 BlockStatement&#45;&gt;#6 ExpressionStatement</title>
<path fill="none" stroke="#0000ff" d="M886.6937,-805.3215C897.9439,-799.2974 910.6935,-792.4035 922.2416,-786 1008.4278,-738.2097 1108.5346,-680.376 1161.9704,-649.3158"/>
<polygon fill="#0000ff" stroke="#0000ff" points="1163.8795,-652.2543 1170.764,-644.2011 1160.3601,-646.2034 1163.8795,-652.2543"/>
<text text-anchor="middle" x="1080.7416" y="-710.3" font-family="Times,serif" font-size="14.00" fill="#0000ff">2</text>
</g>
<!-- #22 BlockStatement&#45;&gt;#12 Variable (v1) -->
<g id="edge25" class="edge">
<title>#22 BlockStatement&#45;&gt;#12 Variable (v1)</title>
<path fill="none" stroke="#0000ff" d="M835.7964,-804.1433C816.3281,-784.2251 789.2416,-750.0373 789.2416,-714 789.2416,-714 789.2416,-714 789.2416,-540 789.2416,-503.7481 824.38,-481.7449 858.3978,-468.9374"/>
<polygon fill="#0000ff" stroke="#0000ff" points="859.6723,-472.1992 867.9327,-465.5647 857.3379,-465.5999 859.6723,-472.1992"/>
<text text-anchor="middle" x="792.7416" y="-623.3" font-family="Times,serif" font-size="14.00" fill="#0000ff">3</text>
</g>
<!-- #16 Variable (v2) -->
<g id="node21" class="node">
<title>#16 Variable (v2)</title>
<ellipse fill="none" stroke="#000000" cx="921.2416" cy="-279" rx="73.387" ry="18"/>
<text text-anchor="middle" x="921.2416" y="-275.3" font-family="Times,serif" font-size="14.00" fill="#000000">#16 Variable (v2)</text>
</g>
<!-- #22 BlockStatement&#45;&gt;#16 Variable (v2) -->
<g id="edge26" class="edge">
<title>#22 BlockStatement&#45;&gt;#16 Variable (v2)</title>
<path fill="none" stroke="#0000ff" d="M817.3993,-805.8126C808.9903,-800.6058 800.9043,-794.047 795.2416,-786 696.6403,-645.8814 685.5312,-555.699 761.2416,-402 784.9634,-353.8427 837.603,-319.2706 876.0484,-299.2724"/>
<polygon fill="#0000ff" stroke="#0000ff" points="877.6558,-302.3817 884.9988,-294.7443 874.4957,-296.1356 877.6558,-302.3817"/>
<text text-anchor="middle" x="720.7416" y="-536.3" font-family="Times,serif" font-size="14.00" fill="#0000ff">4</text>
</g>
<!-- #20 ReturnStatement -->
<g id="node22" class="node">
<title>#20 ReturnStatement</title>
<ellipse fill="none" stroke="#000000" cx="836.2416" cy="-105" rx="85.5853" ry="18"/>
<text text-anchor="middle" x="836.2416" y="-101.3" font-family="Times,serif" font-size="14.00" fill="#000000">#20 ReturnStatement</text>
</g>
<!-- #22 BlockStatement&#45;&gt;#20 ReturnStatement -->
<g id="edge27" class="edge">
<title>#22 BlockStatement&#45;&gt;#20 ReturnStatement</title>
<path fill="none" stroke="#0000ff" d="M794.215,-809.7659C692.7152,-788.5646 500.2416,-744.3584 500.2416,-714 500.2416,-714 500.2416,-714 500.2416,-192 500.2416,-141.5354 644.0805,-119.8635 743.5344,-110.9104"/>
<polygon fill="#0000ff" stroke="#0000ff" points="743.9579,-114.3869 753.6165,-110.0323 743.3505,-107.4133 743.9579,-114.3869"/>
<text text-anchor="middle" x="503.7416" y="-449.3" font-family="Times,serif" font-size="14.00" fill="#0000ff">5</text>
</g>
<!-- #26 Identifier (module) -->
<g id="node23" class="node">
<title>#26 Identifier (module)</title>
<ellipse fill="none" stroke="#000000" cx="94.2416" cy="-627" rx="94.4839" ry="18"/>
<text text-anchor="middle" x="94.2416" y="-623.3" font-family="Times,serif" font-size="14.00" fill="#000000">#26 Identifier (module)</text>
</g>
<!-- #25 MemberExpression&#45;&gt;#26 Identifier (module) -->
<g id="edge28" class="edge">
<title>#25 MemberExpression&#45;&gt;#26 Identifier (module)</title>
<path fill="none" stroke="#0000ff" d="M193.4464,-696.6033C174.5625,-683.3542 148.3715,-664.9782 127.6425,-650.4345"/>
<polygon fill="#0000ff" stroke="#0000ff" points="129.6153,-647.5431 119.4189,-644.6647 125.5948,-653.2734 129.6153,-647.5431"/>
<text text-anchor="middle" x="181.2416" y="-666.8" font-family="Times,serif" font-size="14.00" fill="#0000ff">object</text>
</g>
<!-- #27 Identifier (exports) -->
<g id="node24" class="node">
<title>#27 Identifier (exports)</title>
<ellipse fill="none" stroke="#000000" cx="299.2416" cy="-627" rx="92.8835" ry="18"/>
<text text-anchor="middle" x="299.2416" y="-623.3" font-family="Times,serif" font-size="14.00" fill="#000000">#27 Identifier (exports)</text>
</g>
<!-- #25 MemberExpression&#45;&gt;#27 Identifier (exports) -->
<g id="edge29" class="edge">
<title>#25 MemberExpression&#45;&gt;#27 Identifier (exports)</title>
<path fill="none" stroke="#0000ff" d="M235.0249,-695.9735C246.7544,-683.3752 262.5817,-666.3755 275.5882,-652.4055"/>
<polygon fill="#0000ff" stroke="#0000ff" points="278.2273,-654.7073 282.4799,-645.0034 273.104,-649.9374 278.2273,-654.7073"/>
<text text-anchor="middle" x="287.2416" y="-666.8" font-family="Times,serif" font-size="14.00" fill="#0000ff">property</text>
</g>
<!-- #8 MemberExpression -->
<g id="node25" class="node">
<title>#8 MemberExpression</title>
<ellipse fill="none" stroke="#000000" cx="1451.2416" cy="-453" rx="91.784" ry="18"/>
<text text-anchor="middle" x="1451.2416" y="-449.3" font-family="Times,serif" font-size="14.00" fill="#000000">#8 MemberExpression</text>
</g>
<!-- #7 AssignmentExpression&#45;&gt;#8 MemberExpression -->
<g id="edge30" class="edge">
<title>#7 AssignmentExpression&#45;&gt;#8 MemberExpression</title>
<path fill="none" stroke="#0000ff" d="M1246.8646,-523.8399C1289.1304,-509.19 1351.4685,-487.5827 1396.1736,-472.0873"/>
<polygon fill="#0000ff" stroke="#0000ff" points="1397.4124,-475.3623 1405.7147,-468.7803 1395.1199,-468.7483 1397.4124,-475.3623"/>
<text text-anchor="middle" x="1349.7416" y="-492.8" font-family="Times,serif" font-size="14.00" fill="#0000ff">left</text>
</g>
<!-- #11 Identifier (y) -->
<g id="node26" class="node">
<title>#11 Identifier (y)</title>
<ellipse fill="none" stroke="#000000" cx="1200.2416" cy="-453" rx="71.4873" ry="18"/>
<text text-anchor="middle" x="1200.2416" y="-449.3" font-family="Times,serif" font-size="14.00" fill="#000000">#11 Identifier (y)</text>
</g>
<!-- #7 AssignmentExpression&#45;&gt;#11 Identifier (y) -->
<g id="edge31" class="edge">
<title>#7 AssignmentExpression&#45;&gt;#11 Identifier (y)</title>
<path fill="none" stroke="#0000ff" d="M1200.2416,-521.9735C1200.2416,-510.1918 1200.2416,-494.5607 1200.2416,-481.1581"/>
<polygon fill="#0000ff" stroke="#0000ff" points="1203.7417,-481.0033 1200.2416,-471.0034 1196.7417,-481.0034 1203.7417,-481.0033"/>
<text text-anchor="middle" x="1213.2416" y="-492.8" font-family="Times,serif" font-size="14.00" fill="#0000ff">right</text>
</g>
<!-- #12 Variable (v1)&#45;&gt;#33 y&#45;o2 -->
<g id="edge34" class="edge">
<title>#12 Variable (v1)&#45;&gt;#33 y&#45;o2</title>
<path fill="none" stroke="#000000" d="M944.7522,-435.8116C963.5994,-422.0325 990.1637,-402.6116 1010.4908,-387.7506"/>
<polygon fill="#000000" stroke="#000000" points="1012.7729,-390.4178 1018.7799,-381.6905 1008.6416,-384.767 1012.7729,-390.4178"/>
<text text-anchor="middle" x="1008.7416" y="-405.8" font-family="Times,serif" font-size="14.00" fill="#000000">REF v1</text>
</g>
<!-- #12 Variable (v1)&#45;&gt;#16 Variable (v2) -->
<g id="edge33" class="edge">
<title>#12 Variable (v1)&#45;&gt;#16 Variable (v2)</title>
<path fill="none" stroke="#ff0000" d="M921.2416,-434.7078C921.2416,-404.3436 921.2416,-343.3226 921.2416,-307.3464"/>
<polygon fill="#ff0000" stroke="#ff0000" points="924.7417,-307.0471 921.2416,-297.0471 917.7417,-307.0471 924.7417,-307.0471"/>
</g>
<!-- #13 MemberExpression -->
<g id="node27" class="node">
<title>#13 MemberExpression</title>
<ellipse fill="none" stroke="#000000" cx="624.2416" cy="-366" rx="96.3833" ry="18"/>
<text text-anchor="middle" x="624.2416" y="-362.3" font-family="Times,serif" font-size="14.00" fill="#000000">#13 MemberExpression</text>
</g>
<!-- #12 Variable (v1)&#45;&gt;#13 MemberExpression -->
<g id="edge32" class="edge">
<title>#12 Variable (v1)&#45;&gt;#13 MemberExpression</title>
<path fill="none" stroke="#0000ff" d="M873.8527,-439.1184C822.9464,-424.2064 741.8506,-400.4511 685.9843,-384.0862"/>
<polygon fill="#0000ff" stroke="#0000ff" points="686.787,-380.6744 676.2063,-381.222 684.8191,-387.3921 686.787,-380.6744"/>
<text text-anchor="middle" x="800.7416" y="-405.8" font-family="Times,serif" font-size="14.00" fill="#0000ff">init</text>
</g>
<!-- #36 x&#45;o4&#45;&gt;#12 Variable (v1) -->
<g id="edge35" class="edge">
<title>#36 x&#45;o4&#45;&gt;#12 Variable (v1)</title>
<path fill="none" stroke="#006400" d="M921.2416,-521.9735C921.2416,-510.1918 921.2416,-494.5607 921.2416,-481.1581"/>
<polygon fill="#006400" stroke="#006400" points="924.7417,-481.0033 921.2416,-471.0034 917.7417,-481.0034 924.7417,-481.0033"/>
<text text-anchor="middle" x="953.2416" y="-492.8" font-family="Times,serif" font-size="14.00" fill="#006400">LOOKUP f</text>
</g>
<!-- #33 y&#45;o2&#45;&gt;#6 ExpressionStatement -->
<g id="edge36" class="edge">
<title>#33 y&#45;o2&#45;&gt;#6 ExpressionStatement</title>
<path fill="none" stroke="#006400" d="M1040.3698,-384.0194C1041.4969,-420.4061 1048.5692,-503.7947 1088.2416,-558 1103.5847,-578.9636 1127.4055,-594.9204 1149.1408,-606.1809"/>
<polygon fill="#006400" stroke="#006400" points="1147.7834,-609.4144 1158.2975,-610.7202 1150.8926,-603.1428 1147.7834,-609.4144"/>
<text text-anchor="middle" x="1080.2416" y="-492.8" font-family="Times,serif" font-size="14.00" fill="#006400">VAR y</text>
</g>
<!-- #33 y&#45;o2&#45;&gt;#16 Variable (v2) -->
<g id="edge37" class="edge">
<title>#33 y&#45;o2&#45;&gt;#16 Variable (v2)</title>
<path fill="none" stroke="#006400" d="M1018.9668,-350.4461C1000.6345,-337.0436 973.9068,-317.5031 953.0351,-302.2439"/>
<polygon fill="#006400" stroke="#006400" points="954.9172,-299.2844 944.7789,-296.2079 950.7859,-304.9352 954.9172,-299.2844"/>
<text text-anchor="middle" x="1010.2416" y="-318.8" font-family="Times,serif" font-size="14.00" fill="#006400">VAR v1</text>
</g>
<!-- #16 Variable (v2)&#45;&gt;#20 ReturnStatement -->
<g id="edge39" class="edge">
<title>#16 Variable (v2)&#45;&gt;#20 ReturnStatement</title>
<path fill="none" stroke="#ff0000" d="M920.535,-260.8574C918.6408,-232.844 911.6911,-178.3932 886.2416,-141 883.082,-136.3575 879.1155,-132.1052 874.8059,-128.2781"/>
<polygon fill="#ff0000" stroke="#ff0000" points="876.7736,-125.3701 866.7783,-121.8564 872.4008,-130.8363 876.7736,-125.3701"/>
</g>
<!-- #17 CallExpression -->
<g id="node28" class="node">
<title>#17 CallExpression</title>
<ellipse fill="none" stroke="#000000" cx="392.2416" cy="-192" rx="79.8859" ry="18"/>
<text text-anchor="middle" x="392.2416" y="-188.3" font-family="Times,serif" font-size="14.00" fill="#000000">#17 CallExpression</text>
</g>
<!-- #16 Variable (v2)&#45;&gt;#17 CallExpression -->
<g id="edge38" class="edge">
<title>#16 Variable (v2)&#45;&gt;#17 CallExpression</title>
<path fill="none" stroke="#0000ff" d="M866.8672,-266.7186C857.3463,-264.7082 847.5198,-262.7222 838.2416,-261 710.1006,-237.2151 560.1845,-215.2081 470.8908,-202.7103"/>
<polygon fill="#0000ff" stroke="#0000ff" points="471.2294,-199.2237 460.8416,-201.3081 470.262,-206.1566 471.2294,-199.2237"/>
<text text-anchor="middle" x="738.7416" y="-231.8" font-family="Times,serif" font-size="14.00" fill="#0000ff">init</text>
</g>
<!-- #37 v2&#45;o5 -->
<g id="node29" class="node">
<title>#37 v2&#45;o5</title>
<ellipse fill="none" stroke="#006400" cx="836.2416" cy="-192" rx="46.5926" ry="18"/>
<text text-anchor="middle" x="836.2416" y="-188.3" font-family="Times,serif" font-size="14.00" fill="#006400">#37 v2&#45;o5</text>
</g>
<!-- #16 Variable (v2)&#45;&gt;#37 v2&#45;o5 -->
<g id="edge40" class="edge">
<title>#16 Variable (v2)&#45;&gt;#37 v2&#45;o5</title>
<path fill="none" stroke="#006400" d="M867.6488,-266.6698C855.7402,-261.3623 844.5098,-253.7908 837.2416,-243 832.7697,-236.3607 831.3311,-228.0517 831.3413,-220.0798"/>
<polygon fill="#006400" stroke="#006400" points="834.8425,-220.1848 832.0558,-209.963 827.8599,-219.6915 834.8425,-220.1848"/>
<text text-anchor="middle" x="872.2416" y="-231.8" font-family="Times,serif" font-size="14.00" fill="#006400">CREATE v2</text>
</g>
<!-- #21 Identifier (v2) -->
<g id="node30" class="node">
<title>#21 Identifier (v2)</title>
<ellipse fill="none" stroke="#000000" cx="737.2416" cy="-18" rx="76.0865" ry="18"/>
<text text-anchor="middle" x="737.2416" y="-14.3" font-family="Times,serif" font-size="14.00" fill="#000000">#21 Identifier (v2)</text>
</g>
<!-- #20 ReturnStatement&#45;&gt;#21 Identifier (v2) -->
<g id="edge41" class="edge">
<title>#20 ReturnStatement&#45;&gt;#21 Identifier (v2)</title>
<path fill="none" stroke="#0000ff" d="M816.2075,-87.3943C801.4468,-74.4228 781.1901,-56.6213 764.8891,-42.2962"/>
<polygon fill="#0000ff" stroke="#0000ff" points="767.0681,-39.5517 757.246,-35.5796 762.4472,-44.8098 767.0681,-39.5517"/>
<text text-anchor="middle" x="819.2416" y="-57.8" font-family="Times,serif" font-size="14.00" fill="#0000ff">argument</text>
</g>
<!-- #32 CFG_F_END 2_anon -->
<g id="node31" class="node">
<title>#32 CFG_F_END 2_anon</title>
<ellipse fill="none" stroke="#ff0000" cx="934.2416" cy="-18" rx="103.1819" ry="18"/>
<text text-anchor="middle" x="934.2416" y="-14.3" font-family="Times,serif" font-size="14.00" fill="#ff0000">#32 CFG_F_END 2_anon</text>
</g>
<!-- #20 ReturnStatement&#45;&gt;#32 CFG_F_END 2_anon -->
<g id="edge42" class="edge">
<title>#20 ReturnStatement&#45;&gt;#32 CFG_F_END 2_anon</title>
<path fill="none" stroke="#ff0000" d="M856.0734,-87.3943C870.5888,-74.5081 890.4735,-56.8554 906.5545,-42.5794"/>
<polygon fill="#ff0000" stroke="#ff0000" points="908.9483,-45.1345 914.103,-35.8782 904.3011,-39.8997 908.9483,-45.1345"/>
</g>
<!-- #9 Identifier (x) -->
<g id="node32" class="node">
<title>#9 Identifier (x)</title>
<ellipse fill="none" stroke="#000000" cx="1563.2416" cy="-366" rx="67.6881" ry="18"/>
<text text-anchor="middle" x="1563.2416" y="-362.3" font-family="Times,serif" font-size="14.00" fill="#000000">#9 Identifier (x)</text>
</g>
<!-- #8 MemberExpression&#45;&gt;#9 Identifier (x) -->
<g id="edge43" class="edge">
<title>#8 MemberExpression&#45;&gt;#9 Identifier (x)</title>
<path fill="none" stroke="#0000ff" d="M1473.9065,-435.3943C1490.9445,-422.1594 1514.4554,-403.8964 1533.0815,-389.428"/>
<polygon fill="#0000ff" stroke="#0000ff" points="1535.2425,-392.1813 1540.9927,-383.2827 1530.9483,-386.6532 1535.2425,-392.1813"/>
<text text-anchor="middle" x="1530.2416" y="-405.8" font-family="Times,serif" font-size="14.00" fill="#0000ff">object</text>
</g>
<!-- #10 Identifier (f) -->
<g id="node33" class="node">
<title>#10 Identifier (f)</title>
<ellipse fill="none" stroke="#000000" cx="1407.2416" cy="-366" rx="70.3881" ry="18"/>
<text text-anchor="middle" x="1407.2416" y="-362.3" font-family="Times,serif" font-size="14.00" fill="#000000">#10 Identifier (f)</text>
</g>
<!-- #8 MemberExpression&#45;&gt;#10 Identifier (f) -->
<g id="edge44" class="edge">
<title>#8 MemberExpression&#45;&gt;#10 Identifier (f)</title>
<path fill="none" stroke="#0000ff" d="M1442.1248,-434.9735C1435.9892,-422.8418 1427.7895,-406.6287 1420.8816,-392.9698"/>
<polygon fill="#0000ff" stroke="#0000ff" points="1423.9832,-391.3474 1416.3468,-384.0034 1417.7367,-394.5066 1423.9832,-391.3474"/>
<text text-anchor="middle" x="1454.2416" y="-405.8" font-family="Times,serif" font-size="14.00" fill="#0000ff">property</text>
</g>
<!-- #14 Identifier (x) -->
<g id="node34" class="node">
<title>#14 Identifier (x)</title>
<ellipse fill="none" stroke="#000000" cx="599.2416" cy="-279" rx="71.4873" ry="18"/>
<text text-anchor="middle" x="599.2416" y="-275.3" font-family="Times,serif" font-size="14.00" fill="#000000">#14 Identifier (x)</text>
</g>
<!-- #13 MemberExpression&#45;&gt;#14 Identifier (x) -->
<g id="edge45" class="edge">
<title>#13 MemberExpression&#45;&gt;#14 Identifier (x)</title>
<path fill="none" stroke="#0000ff" d="M619.0616,-347.9735C615.6425,-336.0751 611.0953,-320.2508 607.2188,-306.7606"/>
<polygon fill="#0000ff" stroke="#0000ff" points="610.5408,-305.6478 604.415,-297.0034 603.813,-307.5811 610.5408,-305.6478"/>
<text text-anchor="middle" x="630.2416" y="-318.8" font-family="Times,serif" font-size="14.00" fill="#0000ff">object</text>
</g>
<!-- #15 Identifier (f) -->
<g id="node35" class="node">
<title>#15 Identifier (f)</title>
<ellipse fill="none" stroke="#000000" cx="759.2416" cy="-279" rx="70.3881" ry="18"/>
<text text-anchor="middle" x="759.2416" y="-275.3" font-family="Times,serif" font-size="14.00" fill="#000000">#15 Identifier (f)</text>
</g>
<!-- #13 MemberExpression&#45;&gt;#15 Identifier (f) -->
<g id="edge46" class="edge">
<title>#13 MemberExpression&#45;&gt;#15 Identifier (f)</title>
<path fill="none" stroke="#0000ff" d="M644.1986,-348.3528C656.4413,-337.9787 672.7024,-324.9832 688.2416,-315 696.7879,-309.5095 706.2794,-304.2042 715.4688,-299.4303"/>
<polygon fill="#0000ff" stroke="#0000ff" points="717.1745,-302.4897 724.5115,-294.8464 714.0095,-296.2461 717.1745,-302.4897"/>
<text text-anchor="middle" x="711.2416" y="-318.8" font-family="Times,serif" font-size="14.00" fill="#0000ff">property</text>
</g>
<!-- #18 Identifier (eval) -->
<g id="node36" class="node">
<title>#18 Identifier (eval)</title>
<ellipse fill="none" stroke="#000000" cx="423.2416" cy="-105" rx="81.7856" ry="18"/>
<text text-anchor="middle" x="423.2416" y="-101.3" font-family="Times,serif" font-size="14.00" fill="#000000">#18 Identifier (eval)</text>
</g>
<!-- #17 CallExpression&#45;&gt;#18 Identifier (eval) -->
<g id="edge47" class="edge">
<title>#17 CallExpression&#45;&gt;#18 Identifier (eval)</title>
<path fill="none" stroke="#0000ff" d="M398.6649,-173.9735C402.9045,-162.0751 408.5431,-146.2508 413.3499,-132.7606"/>
<polygon fill="#0000ff" stroke="#0000ff" points="416.767,-133.598 416.8266,-123.0034 410.1731,-131.2484 416.767,-133.598"/>
<text text-anchor="middle" x="426.2416" y="-144.8" font-family="Times,serif" font-size="14.00" fill="#0000ff">callee</text>
</g>
<!-- #19 Identifier (v1) -->
<g id="node37" class="node">
<title>#19 Identifier (v1)</title>
<ellipse fill="none" stroke="#000000" cx="247.2416" cy="-105" rx="76.0865" ry="18"/>
<text text-anchor="middle" x="247.2416" y="-101.3" font-family="Times,serif" font-size="14.00" fill="#000000">#19 Identifier (v1)</text>
</g>
<!-- #17 CallExpression&#45;&gt;#19 Identifier (v1) -->
<g id="edge48" class="edge">
<title>#17 CallExpression&#45;&gt;#19 Identifier (v1)</title>
<path fill="none" stroke="#0000ff" d="M363.94,-175.019C341.1851,-161.3661 309.0369,-142.0772 284.2428,-127.2007"/>
<polygon fill="#0000ff" stroke="#0000ff" points="285.8476,-124.082 275.4719,-121.9382 282.2461,-130.0844 285.8476,-124.082"/>
<text text-anchor="middle" x="343.2416" y="-144.8" font-family="Times,serif" font-size="14.00" fill="#0000ff">arg 1</text>
</g>
<!-- #37 v2&#45;o5&#45;&gt;#20 ReturnStatement -->
<g id="edge49" class="edge">
<title>#37 v2&#45;o5&#45;&gt;#20 ReturnStatement</title>
<path fill="none" stroke="#006400" d="M836.2416,-173.9735C836.2416,-162.1918 836.2416,-146.5607 836.2416,-133.1581"/>
<polygon fill="#006400" stroke="#006400" points="839.7417,-133.0033 836.2416,-123.0034 832.7417,-133.0034 839.7417,-133.0033"/>
<text text-anchor="middle" x="859.2416" y="-144.8" font-family="Times,serif" font-size="14.00" fill="#006400">VAR v2</text>
</g>
</g>
</svg>
