<?xml version="1.0" encoding="UTF-8" standalone="no"?>
<!DOCTYPE svg PUBLIC "-//W3C//DTD SVG 1.1//EN"
 "http://www.w3.org/Graphics/SVG/1.1/DTD/svg11.dtd">
<!-- Generated by graphviz version 2.40.1 (20161225.0304)
 -->
<!-- Title: G Pages: 1 -->
<svg width="692pt" height="305pt"
 viewBox="0.00 0.00 691.69 305.00" xmlns="http://www.w3.org/2000/svg" xmlns:xlink="http://www.w3.org/1999/xlink">
<g id="graph0" class="graph" transform="scale(1 1) rotate(0) translate(4 301)">
<title>G</title>
<polygon fill="#ffffff" stroke="transparent" points="-4,4 -4,-301 687.6863,-301 687.6863,4 -4,4"/>
<!-- #0 Program -->
<g id="node1" class="node">
<title>#0 Program</title>
<ellipse fill="none" stroke="#000000" cx="288.594" cy="-279" rx="52.7911" ry="18"/>
<text text-anchor="middle" x="288.594" y="-275.3" font-family="Times,serif" font-size="14.00" fill="#000000">#0 Program</text>
</g>
<!-- #1 ExpressionStatement -->
<g id="node2" class="node">
<title>#1 ExpressionStatement</title>
<ellipse fill="none" stroke="#000000" cx="382.594" cy="-192" rx="96.6831" ry="18"/>
<text text-anchor="middle" x="382.594" y="-188.3" font-family="Times,serif" font-size="14.00" fill="#000000">#1 ExpressionStatement</text>
</g>
<!-- #0 Program&#45;&gt;#1 ExpressionStatement -->
<g id="edge1" class="edge">
<title>#0 Program&#45;&gt;#1 ExpressionStatement</title>
<path fill="none" stroke="#0000ff" d="M307.1654,-261.8116C321.0164,-248.992 340.144,-231.2889 355.6713,-216.9179"/>
<polygon fill="#0000ff" stroke="#0000ff" points="358.4542,-219.1112 363.4159,-209.75 353.6994,-213.9739 358.4542,-219.1112"/>
<text text-anchor="middle" x="345.094" y="-231.8" font-family="Times,serif" font-size="14.00" fill="#0000ff">1</text>
</g>
<!-- #2 AssignmentExpression -->
<g id="node4" class="node">
<title>#2 AssignmentExpression</title>
<ellipse fill="none" stroke="#000000" cx="152.594" cy="-105" rx="103.1819" ry="18"/>
<text text-anchor="middle" x="152.594" y="-101.3" font-family="Times,serif" font-size="14.00" fill="#000000">#2 AssignmentExpression</text>
</g>
<!-- #1 ExpressionStatement&#45;&gt;#2 AssignmentExpression -->
<g id="edge3" class="edge">
<title>#1 ExpressionStatement&#45;&gt;#2 AssignmentExpression</title>
<path fill="none" stroke="#0000ff" d="M339.8718,-175.8399C301.8668,-161.4641 246.1508,-140.3889 205.3709,-124.9634"/>
<polygon fill="#0000ff" stroke="#0000ff" points="206.4594,-121.6332 195.8679,-121.3688 203.9828,-128.1805 206.4594,-121.6332"/>
<text text-anchor="middle" x="310.594" y="-144.8" font-family="Times,serif" font-size="14.00" fill="#0000ff">expression</text>
</g>
<!-- #6 CFG_F_END __main__ -->
<g id="node5" class="node">
<title>#6 CFG_F_END __main__</title>
<ellipse fill="none" stroke="#ff0000" cx="382.594" cy="-105" rx="108.5808" ry="18"/>
<text text-anchor="middle" x="382.594" y="-101.3" font-family="Times,serif" font-size="14.00" fill="#ff0000">#6 CFG_F_END __main__</text>
</g>
<!-- #1 ExpressionStatement&#45;&gt;#6 CFG_F_END __main__ -->
<g id="edge4" class="edge">
<title>#1 ExpressionStatement&#45;&gt;#6 CFG_F_END __main__</title>
<path fill="none" stroke="#ff0000" d="M382.594,-173.9735C382.594,-162.1918 382.594,-146.5607 382.594,-133.1581"/>
<polygon fill="#ff0000" stroke="#ff0000" points="386.0941,-133.0033 382.594,-123.0034 379.0941,-133.0034 386.0941,-133.0033"/>
</g>
<!-- #7 PDG_OBJECT o1 -->
<g id="node6" class="node">
<title>#7 PDG_OBJECT o1</title>
<ellipse fill="none" stroke="#006400" cx="596.594" cy="-105" rx="87.1846" ry="18"/>
<text text-anchor="middle" x="596.594" y="-101.3" font-family="Times,serif" font-size="14.00" fill="#006400">#7 PDG_OBJECT o1</text>
</g>
<!-- #1 ExpressionStatement&#45;&gt;#7 PDG_OBJECT o1 -->
<g id="edge5" class="edge">
<title>#1 ExpressionStatement&#45;&gt;#7 PDG_OBJECT o1</title>
<path fill="none" stroke="#006400" d="M423.0974,-175.5337C458.5084,-161.1376 510.0178,-140.1969 547.7125,-124.8724"/>
<polygon fill="#006400" stroke="#006400" points="549.0345,-128.1132 556.98,-121.1047 546.3982,-121.6286 549.0345,-128.1132"/>
<text text-anchor="middle" x="536.594" y="-144.8" font-family="Times,serif" font-size="14.00" fill="#006400">CREATE o1</text>
</g>
<!-- #5 CFG_F_START __main__ -->
<g id="node3" class="node">
<title>#5 CFG_F_START __main__</title>
<ellipse fill="none" stroke="#ff0000" cx="477.594" cy="-279" rx="118.0794" ry="18"/>
<text text-anchor="middle" x="477.594" y="-275.3" font-family="Times,serif" font-size="14.00" fill="#ff0000">#5 CFG_F_START __main__</text>
</g>
<!-- #5 CFG_F_START __main__&#45;&gt;#1 ExpressionStatement -->
<g id="edge2" class="edge">
<title>#5 CFG_F_START __main__&#45;&gt;#1 ExpressionStatement</title>
<path fill="none" stroke="#ff0000" d="M457.9099,-260.9735C443.9332,-248.1738 424.9954,-230.8308 409.6066,-216.7379"/>
<polygon fill="#ff0000" stroke="#ff0000" points="411.6664,-213.8783 401.9278,-209.7057 406.9388,-219.0406 411.6664,-213.8783"/>
</g>
<!-- #3 Identifier (x) -->
<g id="node7" class="node">
<title>#3 Identifier (x)</title>
<ellipse fill="none" stroke="#000000" cx="67.594" cy="-18" rx="67.6881" ry="18"/>
<text text-anchor="middle" x="67.594" y="-14.3" font-family="Times,serif" font-size="14.00" fill="#000000">#3 Identifier (x)</text>
</g>
<!-- #2 AssignmentExpression&#45;&gt;#3 Identifier (x) -->
<g id="edge6" class="edge">
<title>#2 AssignmentExpression&#45;&gt;#3 Identifier (x)</title>
<path fill="none" stroke="#0000ff" d="M134.9819,-86.9735C122.5912,-74.2912 105.8426,-57.1486 92.1429,-43.1265"/>
<polygon fill="#0000ff" stroke="#0000ff" points="94.3846,-40.4126 84.8927,-35.7057 89.3776,-45.3045 94.3846,-40.4126"/>
<text text-anchor="middle" x="125.094" y="-57.8" font-family="Times,serif" font-size="14.00" fill="#0000ff">left</text>
</g>
<!-- #4 ObjectExpression -->
<g id="node8" class="node">
<title>#4 ObjectExpression</title>
<ellipse fill="none" stroke="#000000" cx="237.594" cy="-18" rx="84.485" ry="18"/>
<text text-anchor="middle" x="237.594" y="-14.3" font-family="Times,serif" font-size="14.00" fill="#000000">#4 ObjectExpression</text>
</g>
<!-- #2 AssignmentExpression&#45;&gt;#4 ObjectExpression -->
<g id="edge7" class="edge">
<title>#2 AssignmentExpression&#45;&gt;#4 ObjectExpression</title>
<path fill="none" stroke="#0000ff" d="M170.2061,-86.9735C182.5968,-74.2912 199.3454,-57.1486 213.0451,-43.1265"/>
<polygon fill="#0000ff" stroke="#0000ff" points="215.8104,-45.3045 220.2953,-35.7057 210.8034,-40.4126 215.8104,-45.3045"/>
<text text-anchor="middle" x="213.594" y="-57.8" font-family="Times,serif" font-size="14.00" fill="#0000ff">right</text>
</g>
</g>
</svg>
