<?xml version="1.0" encoding="UTF-8" standalone="no"?>
<!DOCTYPE svg PUBLIC "-//W3C//DTD SVG 1.1//EN"
 "http://www.w3.org/Graphics/SVG/1.1/DTD/svg11.dtd">
<!-- Generated by graphviz version 2.40.1 (20161225.0304)
 -->
<!-- Title: G Pages: 1 -->
<svg width="1024pt" height="1126pt"
 viewBox="0.00 0.00 1024.39 1126.00" xmlns="http://www.w3.org/2000/svg" xmlns:xlink="http://www.w3.org/1999/xlink">
<g id="graph0" class="graph" transform="scale(1 1) rotate(0) translate(4 1122)">
<title>G</title>
<polygon fill="#ffffff" stroke="transparent" points="-4,4 -4,-1122 1020.3864,-1122 1020.3864,4 -4,4"/>
<!-- #39 CFG_F_START __main__ -->
<g id="node1" class="node">
<title>#39 CFG_F_START __main__</title>
<ellipse fill="none" stroke="#ff0000" cx="654.6419" cy="-1100" rx="122.6784" ry="18"/>
<text text-anchor="middle" x="654.6419" y="-1096.3" font-family="Times,serif" font-size="14.00" fill="#ff0000">#39 CFG_F_START __main__</text>
</g>
<!-- #1» f = Function (__2_anon__) &#45; (39) -->
<g id="node2" class="node">
<title>#1» f = Function (__2_anon__) &#45; (39)</title>
<ellipse fill="none" stroke="#000000" cx="654.6419" cy="-1027" rx="144.8743" ry="18"/>
<text text-anchor="middle" x="654.6419" y="-1023.3" font-family="Times,serif" font-size="14.00" fill="#000000">#1» f = Function (__2_anon__) &#45; (39)</text>
</g>
<!-- #39 CFG_F_START __main__&#45;&gt;#1» f = Function (__2_anon__) &#45; (39) -->
<g id="edge1" class="edge">
<title>#39 CFG_F_START __main__&#45;&gt;#1» f = Function (__2_anon__) &#45; (39)</title>
<path fill="none" stroke="#ff0000" d="M654.6419,-1081.9551C654.6419,-1073.8828 654.6419,-1064.1764 654.6419,-1055.1817"/>
<polygon fill="#ff0000" stroke="#ff0000" points="658.142,-1055.0903 654.6419,-1045.0904 651.142,-1055.0904 658.142,-1055.0903"/>
</g>
<!-- #41 CFG_F_START 2_anon -->
<g id="node3" class="node">
<title>#41 CFG_F_START 2_anon</title>
<ellipse fill="none" stroke="#ff0000" cx="495.6419" cy="-940" rx="113.18" ry="18"/>
<text text-anchor="middle" x="495.6419" y="-936.3" font-family="Times,serif" font-size="14.00" fill="#ff0000">#41 CFG_F_START 2_anon</text>
</g>
<!-- #1» f = Function (__2_anon__) &#45; (39)&#45;&gt;#41 CFG_F_START 2_anon -->
<g id="edge4" class="edge">
<title>#1» f = Function (__2_anon__) &#45; (39)&#45;&gt;#41 CFG_F_START 2_anon</title>
<path fill="none" stroke="#000000" d="M622.4658,-1009.3943C597.7083,-995.8477 563.3237,-977.0335 536.6022,-962.4122"/>
<polygon fill="#000000" stroke="#000000" points="537.951,-959.1606 527.4983,-957.4309 534.5909,-965.3015 537.951,-959.1606"/>
<text text-anchor="middle" x="594.6419" y="-979.8" font-family="Times,serif" font-size="14.00" fill="#000000">FD</text>
</g>
<!-- #45 41.x&#45;o2 -->
<g id="node6" class="node">
<title>#45 41.x&#45;o2</title>
<ellipse fill="none" stroke="#006400" cx="154.6419" cy="-474" rx="53.8905" ry="18"/>
<text text-anchor="middle" x="154.6419" y="-470.3" font-family="Times,serif" font-size="14.00" fill="#006400">#45 41.x&#45;o2</text>
</g>
<!-- #1» f = Function (__2_anon__) &#45; (39)&#45;&gt;#45 41.x&#45;o2 -->
<g id="edge7" class="edge">
<title>#1» f = Function (__2_anon__) &#45; (39)&#45;&gt;#45 41.x&#45;o2</title>
<path fill="none" stroke="#000000" stroke-dasharray="5,2" d="M541.1336,-1015.7412C409.879,-1001.1491 211.6419,-973.5559 211.6419,-940 211.6419,-940 211.6419,-940 211.6419,-561 211.6419,-536.9472 196.2098,-514.3708 181.4051,-498.2463"/>
<polygon fill="#000000" stroke="#000000" points="183.7305,-495.6166 174.258,-490.8707 178.7035,-500.4878 183.7305,-495.6166"/>
<text text-anchor="middle" x="234.6419" y="-746.8" font-family="Times,serif" font-size="14.00" fill="#000000">param 0</text>
</g>
<!-- #33» module.exports = f; &#45; (39) -->
<g id="node7" class="node">
<title>#33» module.exports = f; &#45; (39)</title>
<ellipse fill="none" stroke="#000000" cx="750.6419" cy="-940" rx="124.2781" ry="18"/>
<text text-anchor="middle" x="750.6419" y="-936.3" font-family="Times,serif" font-size="14.00" fill="#000000">#33» module.exports = f; &#45; (39)</text>
</g>
<!-- #1» f = Function (__2_anon__) &#45; (39)&#45;&gt;#33» module.exports = f; &#45; (39) -->
<g id="edge5" class="edge">
<title>#1» f = Function (__2_anon__) &#45; (39)&#45;&gt;#33» module.exports = f; &#45; (39)</title>
<path fill="none" stroke="#ff0000" d="M674.5331,-1008.9735C688.5635,-996.2586 707.5409,-979.0603 723.0355,-965.0183"/>
<polygon fill="#ff0000" stroke="#ff0000" points="725.7165,-967.3121 730.7761,-958.0034 721.0159,-962.1251 725.7165,-967.3121"/>
</g>
<!-- #44 41.this&#45;o1 -->
<g id="node8" class="node">
<title>#44 41.this&#45;o1</title>
<ellipse fill="none" stroke="#006400" cx="954.6419" cy="-940" rx="61.99" ry="18"/>
<text text-anchor="middle" x="954.6419" y="-936.3" font-family="Times,serif" font-size="14.00" fill="#006400">#44 41.this&#45;o1</text>
</g>
<!-- #1» f = Function (__2_anon__) &#45; (39)&#45;&gt;#44 41.this&#45;o1 -->
<g id="edge6" class="edge">
<title>#1» f = Function (__2_anon__) &#45; (39)&#45;&gt;#44 41.this&#45;o1</title>
<path fill="none" stroke="#000000" stroke-dasharray="5,2" d="M711.7757,-1010.4312C766.3504,-994.6045 847.9645,-970.9364 901.2567,-955.4817"/>
<polygon fill="#000000" stroke="#000000" points="902.2356,-958.8421 910.865,-952.6953 900.2859,-952.1191 902.2356,-958.8421"/>
</g>
<!-- #4» v1 = x.y -->
<g id="node4" class="node">
<title>#4» v1 = x.y</title>
<ellipse fill="none" stroke="#000000" cx="529.6419" cy="-867" rx="56.59" ry="18"/>
<text text-anchor="middle" x="529.6419" y="-863.3" font-family="Times,serif" font-size="14.00" fill="#000000">#4» v1 = x.y</text>
</g>
<!-- #41 CFG_F_START 2_anon&#45;&gt;#4» v1 = x.y -->
<g id="edge2" class="edge">
<title>#41 CFG_F_START 2_anon&#45;&gt;#4» v1 = x.y</title>
<path fill="none" stroke="#ff0000" d="M504.0464,-921.9551C507.9578,-913.5569 512.6931,-903.39 517.0218,-894.096"/>
<polygon fill="#ff0000" stroke="#ff0000" points="520.2847,-895.3801 521.334,-884.8374 513.9392,-892.4246 520.2847,-895.3801"/>
</g>
<!-- #8» v2 = &#39;(&#39; + v1 -->
<g id="node9" class="node">
<title>#8» v2 = &#39;(&#39; + v1</title>
<ellipse fill="none" stroke="#000000" cx="669.6419" cy="-794" rx="70.3881" ry="18"/>
<text text-anchor="middle" x="669.6419" y="-790.3" font-family="Times,serif" font-size="14.00" fill="#000000">#8» v2 = &#39;(&#39; + v1</text>
</g>
<!-- #4» v1 = x.y&#45;&gt;#8» v2 = &#39;(&#39; + v1 -->
<g id="edge8" class="edge">
<title>#4» v1 = x.y&#45;&gt;#8» v2 = &#39;(&#39; + v1</title>
<path fill="none" stroke="#ff0000" d="M559.3323,-851.5186C579.7905,-840.8511 607.217,-826.5501 629.6039,-814.8769"/>
<polygon fill="#ff0000" stroke="#ff0000" points="631.29,-817.9451 638.5387,-810.2181 628.0535,-811.7382 631.29,-817.9451"/>
</g>
<!-- #46 41.x&#45;o2.y&#45;o3 -->
<g id="node10" class="node">
<title>#46 41.x&#45;o2.y&#45;o3</title>
<ellipse fill="none" stroke="#006400" cx="522.6419" cy="-387" rx="72.2875" ry="18"/>
<text text-anchor="middle" x="522.6419" y="-383.3" font-family="Times,serif" font-size="14.00" fill="#006400">#46 41.x&#45;o2.y&#45;o3</text>
</g>
<!-- #4» v1 = x.y&#45;&gt;#46 41.x&#45;o2.y&#45;o3 -->
<g id="edge9" class="edge">
<title>#4» v1 = x.y&#45;&gt;#46 41.x&#45;o2.y&#45;o3</title>
<path fill="none" stroke="#000000" stroke-dasharray="5,2" d="M529.6419,-848.6997C529.6419,-833.9349 529.6419,-812.6302 529.6419,-794 529.6419,-794 529.6419,-794 529.6419,-474 529.6419,-454.4846 527.8702,-432.5859 526.1095,-415.6411"/>
<polygon fill="#000000" stroke="#000000" points="529.5442,-414.854 524.9728,-405.2962 522.5861,-415.6187 529.5442,-414.854"/>
</g>
<!-- #43 TAINT_SOURCE -->
<g id="node5" class="node">
<title>#43 TAINT_SOURCE</title>
<ellipse fill="none" stroke="#8b6914" cx="91.6419" cy="-561" rx="91.784" ry="18"/>
<text text-anchor="middle" x="91.6419" y="-557.3" font-family="Times,serif" font-size="14.00" fill="#8b6914">#43 TAINT_SOURCE</text>
</g>
<!-- #43 TAINT_SOURCE&#45;&gt;#45 41.x&#45;o2 -->
<g id="edge3" class="edge">
<title>#43 TAINT_SOURCE&#45;&gt;#45 41.x&#45;o2</title>
<path fill="none" stroke="#006400" d="M104.6955,-542.9735C113.7092,-530.5261 125.8342,-513.782 135.8804,-499.9087"/>
<polygon fill="#006400" stroke="#006400" points="138.7902,-501.8579 141.8205,-491.7057 133.1206,-497.7523 138.7902,-501.8579"/>
<text text-anchor="middle" x="148.1419" y="-513.8" font-family="Times,serif" font-size="14.00" fill="#006400">TAINT</text>
</g>
<!-- #45 41.x&#45;o2&#45;&gt;#46 41.x&#45;o2.y&#45;o3 -->
<g id="edge10" class="edge">
<title>#45 41.x&#45;o2&#45;&gt;#46 41.x&#45;o2.y&#45;o3</title>
<path fill="none" stroke="#006400" d="M198.6657,-463.5922C263.7144,-448.2138 385.8027,-419.3506 460.1125,-401.7828"/>
<polygon fill="#006400" stroke="#006400" points="461.3434,-405.0883 470.2699,-399.3814 459.7329,-398.2761 461.3434,-405.0883"/>
<text text-anchor="middle" x="378.6419" y="-426.8" font-family="Times,serif" font-size="14.00" fill="#006400">SO(y)</text>
</g>
<!-- #51 41.x&#45;o7 -->
<g id="node11" class="node">
<title>#51 41.x&#45;o7</title>
<ellipse fill="none" stroke="#006400" cx="163.6419" cy="-333" rx="53.8905" ry="18"/>
<text text-anchor="middle" x="163.6419" y="-329.3" font-family="Times,serif" font-size="14.00" fill="#006400">#51 41.x&#45;o7</text>
</g>
<!-- #45 41.x&#45;o2&#45;&gt;#51 41.x&#45;o7 -->
<g id="edge11" class="edge">
<title>#45 41.x&#45;o2&#45;&gt;#51 41.x&#45;o7</title>
<path fill="none" stroke="#006400" d="M155.8,-455.8554C157.3324,-431.8485 160.0491,-389.2861 161.848,-361.1035"/>
<polygon fill="#006400" stroke="#006400" points="165.3439,-361.2777 162.4881,-351.075 158.3582,-360.8317 165.3439,-361.2777"/>
<text text-anchor="middle" x="176.6419" y="-426.8" font-family="Times,serif" font-size="14.00" fill="#006400">NV(y)</text>
</g>
<!-- #40 CFG_F_END __main__ -->
<g id="node12" class="node">
<title>#40 CFG_F_END __main__</title>
<ellipse fill="none" stroke="#ff0000" cx="750.6419" cy="-867" rx="113.18" ry="18"/>
<text text-anchor="middle" x="750.6419" y="-863.3" font-family="Times,serif" font-size="14.00" fill="#ff0000">#40 CFG_F_END __main__</text>
</g>
<!-- #33» module.exports = f; &#45; (39)&#45;&gt;#40 CFG_F_END __main__ -->
<g id="edge12" class="edge">
<title>#33» module.exports = f; &#45; (39)&#45;&gt;#40 CFG_F_END __main__</title>
<path fill="none" stroke="#ff0000" d="M750.6419,-921.9551C750.6419,-913.8828 750.6419,-904.1764 750.6419,-895.1817"/>
<polygon fill="#ff0000" stroke="#ff0000" points="754.142,-895.0903 750.6419,-885.0904 747.142,-895.0904 754.142,-895.0903"/>
</g>
<!-- #12» v3 = v2 + &#39;)&#39; -->
<g id="node13" class="node">
<title>#12» v3 = v2 + &#39;)&#39;</title>
<ellipse fill="none" stroke="#000000" cx="669.6419" cy="-707" rx="74.9875" ry="18"/>
<text text-anchor="middle" x="669.6419" y="-703.3" font-family="Times,serif" font-size="14.00" fill="#000000">#12» v3 = v2 + &#39;)&#39;</text>
</g>
<!-- #8» v2 = &#39;(&#39; + v1&#45;&gt;#12» v3 = v2 + &#39;)&#39; -->
<g id="edge13" class="edge">
<title>#8» v2 = &#39;(&#39; + v1&#45;&gt;#12» v3 = v2 + &#39;)&#39;</title>
<path fill="none" stroke="#ff0000" d="M669.6419,-775.9735C669.6419,-764.1918 669.6419,-748.5607 669.6419,-735.1581"/>
<polygon fill="#ff0000" stroke="#ff0000" points="673.142,-735.0033 669.6419,-725.0034 666.142,-735.0034 673.142,-735.0033"/>
</g>
<!-- #47 41.v2&#45;o4 -->
<g id="node14" class="node">
<title>#47 41.v2&#45;o4</title>
<ellipse fill="none" stroke="#006400" cx="675.6419" cy="-279" rx="57.6901" ry="18"/>
<text text-anchor="middle" x="675.6419" y="-275.3" font-family="Times,serif" font-size="14.00" fill="#006400">#47 41.v2&#45;o4</text>
</g>
<!-- #8» v2 = &#39;(&#39; + v1&#45;&gt;#47 41.v2&#45;o4 -->
<g id="edge14" class="edge">
<title>#8» v2 = &#39;(&#39; + v1&#45;&gt;#47 41.v2&#45;o4</title>
<path fill="none" stroke="#000000" stroke-dasharray="5,2" d="M713.6542,-779.9089C745.3827,-766.6794 782.6419,-743.3956 782.6419,-707 782.6419,-707 782.6419,-707 782.6419,-597.5 782.6419,-501.4956 710.3511,-497.498 684.6419,-405 675.5976,-372.4602 674.1779,-333.4733 674.4823,-307.5714"/>
<polygon fill="#000000" stroke="#000000" points="677.9866,-307.4011 674.7011,-297.3286 670.9882,-307.2515 677.9866,-307.4011"/>
</g>
<!-- #46 41.x&#45;o2.y&#45;o3&#45;&gt;#47 41.v2&#45;o4 -->
<g id="edge15" class="edge">
<title>#46 41.x&#45;o2.y&#45;o3&#45;&gt;#47 41.v2&#45;o4</title>
<path fill="none" stroke="#006400" d="M537.9375,-369.2786C552.2033,-353.5385 574.68,-330.6653 597.6419,-315 607.4567,-308.304 618.7164,-302.2893 629.5712,-297.1802"/>
<polygon fill="#006400" stroke="#006400" points="631.2936,-300.2425 638.9596,-292.9292 628.4063,-293.8657 631.2936,-300.2425"/>
<text text-anchor="middle" x="622.1419" y="-329.3" font-family="Times,serif" font-size="14.00" fill="#006400">DEP(v1)</text>
</g>
<!-- #52 41.x&#45;o7.y&#45;o8 -->
<g id="node15" class="node">
<title>#52 41.x&#45;o7.y&#45;o8</title>
<ellipse fill="none" stroke="#006400" cx="234.6419" cy="-18" rx="72.2875" ry="18"/>
<text text-anchor="middle" x="234.6419" y="-14.3" font-family="Times,serif" font-size="14.00" fill="#006400">#52 41.x&#45;o7.y&#45;o8</text>
</g>
<!-- #51 41.x&#45;o7&#45;&gt;#52 41.x&#45;o7.y&#45;o8 -->
<g id="edge16" class="edge">
<title>#51 41.x&#45;o7&#45;&gt;#52 41.x&#45;o7.y&#45;o8</title>
<path fill="none" stroke="#006400" d="M165.4421,-314.6913C167.2094,-295.1122 169.6419,-263.1433 169.6419,-235.5 169.6419,-235.5 169.6419,-235.5 169.6419,-105 169.6419,-80.1478 186.8743,-57.8231 203.5935,-42.0118"/>
<polygon fill="#006400" stroke="#006400" points="206.0623,-44.4991 211.1754,-35.2197 201.3916,-39.2852 206.0623,-44.4991"/>
<text text-anchor="middle" x="186.6419" y="-188.3" font-family="Times,serif" font-size="14.00" fill="#006400">SO(y)</text>
</g>
<!-- #16» v4 = eval(v3) -->
<g id="node16" class="node">
<title>#16» v4 = eval(v3)</title>
<ellipse fill="none" stroke="#000000" cx="637.6419" cy="-634" rx="79.0865" ry="18"/>
<text text-anchor="middle" x="637.6419" y="-630.3" font-family="Times,serif" font-size="14.00" fill="#000000">#16» v4 = eval(v3)</text>
</g>
<!-- #12» v3 = v2 + &#39;)&#39;&#45;&gt;#16» v4 = eval(v3) -->
<g id="edge17" class="edge">
<title>#12» v3 = v2 + &#39;)&#39;&#45;&gt;#16» v4 = eval(v3)</title>
<path fill="none" stroke="#ff0000" d="M661.7318,-688.9551C658.0779,-680.6196 653.6601,-670.5416 649.6108,-661.3042"/>
<polygon fill="#ff0000" stroke="#ff0000" points="652.7923,-659.8439 645.5719,-652.0904 646.3812,-662.6542 652.7923,-659.8439"/>
</g>
<!-- #48 41.v3&#45;o5 -->
<g id="node17" class="node">
<title>#48 41.v3&#45;o5</title>
<ellipse fill="none" stroke="#006400" cx="694.6419" cy="-192" rx="57.6901" ry="18"/>
<text text-anchor="middle" x="694.6419" y="-188.3" font-family="Times,serif" font-size="14.00" fill="#006400">#48 41.v3&#45;o5</text>
</g>
<!-- #12» v3 = v2 + &#39;)&#39;&#45;&gt;#48 41.v3&#45;o5 -->
<g id="edge18" class="edge">
<title>#12» v3 = v2 + &#39;)&#39;&#45;&gt;#48 41.v3&#45;o5</title>
<path fill="none" stroke="#000000" stroke-dasharray="5,2" d="M692.7634,-689.7941C704.35,-679.9728 717.5921,-666.7018 725.6419,-652 787.0592,-539.8301 794.4259,-495.7772 777.6419,-369 769.1237,-304.6588 775.1912,-282.301 739.6419,-228 736.5594,-223.2915 732.6589,-218.9141 728.4487,-214.9497"/>
<polygon fill="#000000" stroke="#000000" points="730.5206,-212.1162 720.6457,-208.2772 725.9713,-217.4363 730.5206,-212.1162"/>
</g>
<!-- #47 41.v2&#45;o4&#45;&gt;#48 41.v3&#45;o5 -->
<g id="edge19" class="edge">
<title>#47 41.v2&#45;o4&#45;&gt;#48 41.v3&#45;o5</title>
<path fill="none" stroke="#006400" d="M679.5787,-260.9735C682.1517,-249.1918 685.5654,-233.5607 688.4924,-220.1581"/>
<polygon fill="#006400" stroke="#006400" points="691.9958,-220.5199 690.7101,-210.0034 685.157,-219.0263 691.9958,-220.5199"/>
<text text-anchor="middle" x="711.1419" y="-231.8" font-family="Times,serif" font-size="14.00" fill="#006400">DEP(v2)</text>
</g>
<!-- #20» x.y = v4; &#45; (41) -->
<g id="node18" class="node">
<title>#20» x.y = v4; &#45; (41)</title>
<ellipse fill="none" stroke="#000000" cx="415.6419" cy="-561" rx="85.5853" ry="18"/>
<text text-anchor="middle" x="415.6419" y="-557.3" font-family="Times,serif" font-size="14.00" fill="#000000">#20» x.y = v4; &#45; (41)</text>
</g>
<!-- #16» v4 = eval(v3)&#45;&gt;#20» x.y = v4; &#45; (41) -->
<g id="edge20" class="edge">
<title>#16» v4 = eval(v3)&#45;&gt;#20» x.y = v4; &#45; (41)</title>
<path fill="none" stroke="#ff0000" d="M592.4493,-619.1394C557.5362,-607.659 509.0292,-591.7084 471.6523,-579.4179"/>
<polygon fill="#ff0000" stroke="#ff0000" points="472.5094,-576.0154 461.9164,-576.2164 470.3227,-582.6651 472.5094,-576.0154"/>
</g>
<!-- #49 41.v4&#45;o6 -->
<g id="node19" class="node">
<title>#49 41.v4&#45;o6</title>
<ellipse fill="none" stroke="#006400" cx="534.6419" cy="-105" rx="57.6901" ry="18"/>
<text text-anchor="middle" x="534.6419" y="-101.3" font-family="Times,serif" font-size="14.00" fill="#006400">#49 41.v4&#45;o6</text>
</g>
<!-- #16» v4 = eval(v3)&#45;&gt;#49 41.v4&#45;o6 -->
<g id="edge21" class="edge">
<title>#16» v4 = eval(v3)&#45;&gt;#49 41.v4&#45;o6</title>
<path fill="none" stroke="#000000" stroke-dasharray="5,2" d="M631.7995,-615.9113C627.5878,-601.2663 622.6419,-580.0194 622.6419,-561 622.6419,-561 622.6419,-561 622.6419,-430.5 622.6419,-298.1255 598.0881,-265.3288 552.6419,-141 551.5728,-138.0754 550.3305,-135.0781 549.0077,-132.1221"/>
<polygon fill="#000000" stroke="#000000" points="552.0963,-130.4679 544.6213,-122.9596 545.7825,-133.4906 552.0963,-130.4679"/>
</g>
<!-- #50 TAINT_SINK (eval) -->
<g id="node20" class="node">
<title>#50 TAINT_SINK (eval)</title>
<ellipse fill="none" stroke="#8b6914" cx="762.6419" cy="-105" rx="100.9827" ry="18"/>
<text text-anchor="middle" x="762.6419" y="-101.3" font-family="Times,serif" font-size="14.00" fill="#8b6914">#50 TAINT_SINK (eval)</text>
</g>
<!-- #16» v4 = eval(v3)&#45;&gt;#50 TAINT_SINK (eval) -->
<g id="edge22" class="edge">
<title>#16» v4 = eval(v3)&#45;&gt;#50 TAINT_SINK (eval)</title>
<path fill="none" stroke="#000000" stroke-dasharray="5,2" d="M668.1071,-617.108C686.5913,-604.3987 706.6419,-585.0659 706.6419,-561 706.6419,-561 706.6419,-561 706.6419,-430.5 706.6419,-398.762 781.2095,-187.427 785.6419,-156 786.5729,-149.3987 787.5115,-147.3991 785.6419,-141 784.7553,-137.9655 783.5263,-134.9435 782.0935,-132.0139"/>
<polygon fill="#000000" stroke="#000000" points="784.9865,-130.0216 776.9922,-123.0688 778.9058,-133.4894 784.9865,-130.0216"/>
<text text-anchor="middle" x="755.1419" y="-383.3" font-family="Times,serif" font-size="14.00" fill="#000000">SINK (eval)</text>
</g>
<!-- #48 41.v3&#45;o5&#45;&gt;#49 41.v4&#45;o6 -->
<g id="edge23" class="edge">
<title>#48 41.v3&#45;o5&#45;&gt;#49 41.v4&#45;o6</title>
<path fill="none" stroke="#006400" d="M666.8821,-176.1586C648.9195,-165.9785 624.9872,-152.5464 603.6419,-141 594.0054,-135.7873 583.551,-130.2651 573.7636,-125.1523"/>
<polygon fill="#006400" stroke="#006400" points="575.119,-121.9121 564.6327,-120.3994 571.8869,-128.1213 575.119,-121.9121"/>
<text text-anchor="middle" x="654.1419" y="-144.8" font-family="Times,serif" font-size="14.00" fill="#006400">DEP(v3)</text>
</g>
<!-- #48 41.v3&#45;o5&#45;&gt;#50 TAINT_SINK (eval) -->
<g id="edge24" class="edge">
<title>#48 41.v3&#45;o5&#45;&gt;#50 TAINT_SINK (eval)</title>
<path fill="none" stroke="#006400" d="M708.4027,-174.3943C718.1084,-161.9767 731.2736,-145.1329 742.2029,-131.1498"/>
<polygon fill="#006400" stroke="#006400" points="745.2675,-132.9124 748.6681,-122.8782 739.7523,-128.6017 745.2675,-132.9124"/>
<text text-anchor="middle" x="758.1419" y="-144.8" font-family="Times,serif" font-size="14.00" fill="#006400">DEP(v3)</text>
</g>
<!-- #20» x.y = v4; &#45; (41)&#45;&gt;#52 41.x&#45;o7.y&#45;o8 -->
<g id="edge26" class="edge">
<title>#20» x.y = v4; &#45; (41)&#45;&gt;#52 41.x&#45;o7.y&#45;o8</title>
<path fill="none" stroke="#000000" stroke-dasharray="5,2" d="M387.7573,-543.8325C336.9853,-510.1835 234.6419,-430.2893 234.6419,-333 234.6419,-333 234.6419,-333 234.6419,-105 234.6419,-85.5475 234.6419,-63.6484 234.6419,-46.6877"/>
<polygon fill="#000000" stroke="#000000" points="238.142,-46.3305 234.6419,-36.3306 231.142,-46.3306 238.142,-46.3305"/>
</g>
<!-- #26» v5 = x.y -->
<g id="node21" class="node">
<title>#26» v5 = x.y</title>
<ellipse fill="none" stroke="#000000" cx="420.6419" cy="-474" rx="61.1893" ry="18"/>
<text text-anchor="middle" x="420.6419" y="-470.3" font-family="Times,serif" font-size="14.00" fill="#000000">#26» v5 = x.y</text>
</g>
<!-- #20» x.y = v4; &#45; (41)&#45;&gt;#26» v5 = x.y -->
<g id="edge25" class="edge">
<title>#20» x.y = v4; &#45; (41)&#45;&gt;#26» v5 = x.y</title>
<path fill="none" stroke="#ff0000" d="M416.6779,-542.9735C417.355,-531.1918 418.2533,-515.5607 419.0236,-502.1581"/>
<polygon fill="#ff0000" stroke="#ff0000" points="422.5276,-502.1877 419.6072,-492.0034 415.5391,-501.786 422.5276,-502.1877"/>
</g>
<!-- #49 41.v4&#45;o6&#45;&gt;#52 41.x&#45;o7.y&#45;o8 -->
<g id="edge27" class="edge">
<title>#49 41.v4&#45;o6&#45;&gt;#52 41.x&#45;o7.y&#45;o8</title>
<path fill="none" stroke="#006400" d="M492.2955,-92.7195C439.7731,-77.4881 350.0325,-51.4633 291.5377,-34.4998"/>
<polygon fill="#006400" stroke="#006400" points="292.2919,-31.0744 281.7127,-31.6505 290.3421,-37.7974 292.2919,-31.0744"/>
<text text-anchor="middle" x="427.1419" y="-57.8" font-family="Times,serif" font-size="14.00" fill="#006400">DEP(v4)</text>
</g>
<!-- #26» v5 = x.y&#45;&gt;#46 41.x&#45;o2.y&#45;o3 -->
<g id="edge29" class="edge">
<title>#26» v5 = x.y&#45;&gt;#46 41.x&#45;o2.y&#45;o3</title>
<path fill="none" stroke="#000000" stroke-dasharray="5,2" d="M457.5297,-459.6114C468.9733,-454.0012 481.0786,-446.78 490.6419,-438 497.9928,-431.2511 504.3114,-422.4432 509.3452,-414.0505"/>
<polygon fill="#000000" stroke="#000000" points="512.4563,-415.6584 514.2914,-405.2237 506.3497,-412.2365 512.4563,-415.6584"/>
</g>
<!-- #26» v5 = x.y&#45;&gt;#49 41.v4&#45;o6 -->
<g id="edge30" class="edge">
<title>#26» v5 = x.y&#45;&gt;#49 41.v4&#45;o6</title>
<path fill="none" stroke="#000000" stroke-dasharray="5,2" d="M421.0462,-455.8113C422.2341,-433.9547 426.5391,-396.761 441.6419,-369 463.5709,-328.6912 495.7292,-338.342 515.6419,-297 541.4174,-243.4859 540.6006,-171.9842 537.6644,-133.0914"/>
<polygon fill="#000000" stroke="#000000" points="541.1431,-132.6923 536.8003,-123.0284 534.1687,-133.2912 541.1431,-132.6923"/>
</g>
<!-- #30» return v5; -->
<g id="node22" class="node">
<title>#30» return v5;</title>
<ellipse fill="none" stroke="#000000" cx="328.6419" cy="-387" rx="65.7887" ry="18"/>
<text text-anchor="middle" x="328.6419" y="-383.3" font-family="Times,serif" font-size="14.00" fill="#000000">#30» return v5;</text>
</g>
<!-- #26» v5 = x.y&#45;&gt;#30» return v5; -->
<g id="edge28" class="edge">
<title>#26» v5 = x.y&#45;&gt;#30» return v5;</title>
<path fill="none" stroke="#ff0000" d="M402.4656,-456.8116C388.8201,-443.9077 369.9422,-426.0557 354.6923,-411.6346"/>
<polygon fill="#ff0000" stroke="#ff0000" points="356.7658,-408.7784 347.0952,-404.4505 351.9562,-413.8644 356.7658,-408.7784"/>
</g>
<!-- #30» return v5;&#45;&gt;#49 41.v4&#45;o6 -->
<g id="edge32" class="edge">
<title>#30» return v5;&#45;&gt;#49 41.v4&#45;o6</title>
<path fill="none" stroke="#000000" stroke-dasharray="5,2" d="M315.0114,-368.9548C297.6731,-343.6175 272.1845,-296.6129 291.6419,-261 332.2849,-186.6108 425.2487,-142.4334 483.6873,-121.0109"/>
<polygon fill="#000000" stroke="#000000" points="484.8721,-124.3043 493.1111,-117.6434 482.5165,-117.7125 484.8721,-124.3043"/>
</g>
<!-- #42 CFG_F_END 2_anon -->
<g id="node23" class="node">
<title>#42 CFG_F_END 2_anon</title>
<ellipse fill="none" stroke="#ff0000" cx="403.6419" cy="-279" rx="103.1819" ry="18"/>
<text text-anchor="middle" x="403.6419" y="-275.3" font-family="Times,serif" font-size="14.00" fill="#ff0000">#42 CFG_F_END 2_anon</text>
</g>
<!-- #30» return v5;&#45;&gt;#42 CFG_F_END 2_anon -->
<g id="edge31" class="edge">
<title>#30» return v5;&#45;&gt;#42 CFG_F_END 2_anon</title>
<path fill="none" stroke="#ff0000" d="M341.0266,-369.166C353.0591,-351.8392 371.4762,-325.3185 385.2262,-305.5185"/>
<polygon fill="#ff0000" stroke="#ff0000" points="388.1589,-307.4316 390.9881,-297.2215 382.4093,-303.4388 388.1589,-307.4316"/>
</g>
</g>
</svg>
