<?xml version="1.0" encoding="UTF-8" standalone="no"?>
<!DOCTYPE svg PUBLIC "-//W3C//DTD SVG 1.1//EN"
 "http://www.w3.org/Graphics/SVG/1.1/DTD/svg11.dtd">
<!-- Generated by graphviz version 2.40.1 (20161225.0304)
 -->
<!-- Title: G Pages: 1 -->
<svg width="1974pt" height="848pt"
 viewBox="0.00 0.00 1974.13 848.00" xmlns="http://www.w3.org/2000/svg" xmlns:xlink="http://www.w3.org/1999/xlink">
<g id="graph0" class="graph" transform="scale(1 1) rotate(0) translate(4 844)">
<title>G</title>
<polygon fill="#ffffff" stroke="transparent" points="-4,4 -4,-844 1970.1309,-844 1970.1309,4 -4,4"/>
<!-- #0 Program (0) -->
<g id="node1" class="node">
<title>#0 Program (0)</title>
<ellipse fill="none" stroke="#000000" cx="1077.3397" cy="-822" rx="65.7887" ry="18"/>
<text text-anchor="middle" x="1077.3397" y="-818.3" font-family="Times,serif" font-size="14.00" fill="#000000">#0 Program (0)</text>
</g>
<!-- #1 Variable (Cla) &#45; (27) -->
<g id="node2" class="node">
<title>#1 Variable (Cla) &#45; (27)</title>
<ellipse fill="none" stroke="#000000" cx="1298.3397" cy="-735" rx="94.7833" ry="18"/>
<text text-anchor="middle" x="1298.3397" y="-731.3" font-family="Times,serif" font-size="14.00" fill="#000000">#1 Variable (Cla) &#45; (27)</text>
</g>
<!-- #0 Program (0)&#45;&gt;#1 Variable (Cla) &#45; (27) -->
<g id="edge1" class="edge">
<title>#0 Program (0)&#45;&gt;#1 Variable (Cla) &#45; (27)</title>
<path fill="none" stroke="#0000ff" d="M1115.0798,-807.143C1151.602,-792.7655 1207.2139,-770.873 1247.5971,-754.9756"/>
<polygon fill="#0000ff" stroke="#0000ff" points="1248.9753,-758.1946 1256.9981,-751.2747 1246.4111,-751.6811 1248.9753,-758.1946"/>
<text text-anchor="middle" x="1204.8397" y="-774.8" font-family="Times,serif" font-size="14.00" fill="#0000ff">1</text>
</g>
<!-- #4 Variable (ev) &#45; (27) -->
<g id="node3" class="node">
<title>#4 Variable (ev) &#45; (27)</title>
<ellipse fill="none" stroke="#000000" cx="1178.3397" cy="-648" rx="90.9839" ry="18"/>
<text text-anchor="middle" x="1178.3397" y="-644.3" font-family="Times,serif" font-size="14.00" fill="#000000">#4 Variable (ev) &#45; (27)</text>
</g>
<!-- #0 Program (0)&#45;&gt;#4 Variable (ev) &#45; (27) -->
<g id="edge2" class="edge">
<title>#0 Program (0)&#45;&gt;#4 Variable (ev) &#45; (27)</title>
<path fill="none" stroke="#0000ff" d="M1087.768,-804.0343C1105.5344,-773.4269 1141.7683,-711.0042 1162.6195,-675.0823"/>
<polygon fill="#0000ff" stroke="#0000ff" points="1165.8235,-676.5343 1167.8167,-666.1286 1159.7695,-673.0202 1165.8235,-676.5343"/>
<text text-anchor="middle" x="1141.8397" y="-731.3" font-family="Times,serif" font-size="14.00" fill="#0000ff">2</text>
</g>
<!-- #14 ExpressionStatement (27) -->
<g id="node4" class="node">
<title>#14 ExpressionStatement (27)</title>
<ellipse fill="none" stroke="#000000" cx="1095.3397" cy="-453" rx="118.0794" ry="18"/>
<text text-anchor="middle" x="1095.3397" y="-449.3" font-family="Times,serif" font-size="14.00" fill="#000000">#14 ExpressionStatement (27)</text>
</g>
<!-- #0 Program (0)&#45;&gt;#14 ExpressionStatement (27) -->
<g id="edge3" class="edge">
<title>#0 Program (0)&#45;&gt;#14 ExpressionStatement (27)</title>
<path fill="none" stroke="#0000ff" d="M1072.0119,-803.8479C1067.3575,-786.3704 1061.3397,-759.1112 1061.3397,-735 1061.3397,-735 1061.3397,-735 1061.3397,-540 1061.3397,-518.9881 1070.0495,-496.9589 1078.6525,-480.3249"/>
<polygon fill="#0000ff" stroke="#0000ff" points="1081.9134,-481.6564 1083.6388,-471.203 1075.7712,-478.2988 1081.9134,-481.6564"/>
<text text-anchor="middle" x="1064.8397" y="-644.3" font-family="Times,serif" font-size="14.00" fill="#0000ff">3</text>
</g>
<!-- #20 ExpressionStatement (27) -->
<g id="node5" class="node">
<title>#20 ExpressionStatement (27)</title>
<ellipse fill="none" stroke="#000000" cx="829.3397" cy="-366" rx="118.0794" ry="18"/>
<text text-anchor="middle" x="829.3397" y="-362.3" font-family="Times,serif" font-size="14.00" fill="#000000">#20 ExpressionStatement (27)</text>
</g>
<!-- #0 Program (0)&#45;&gt;#20 ExpressionStatement (27) -->
<g id="edge4" class="edge">
<title>#0 Program (0)&#45;&gt;#20 ExpressionStatement (27)</title>
<path fill="none" stroke="#0000ff" d="M1028.41,-809.8544C972.1143,-794.4165 887.3397,-766.0192 887.3397,-735 887.3397,-735 887.3397,-735 887.3397,-453 887.3397,-429.2877 872.2389,-407.1228 857.4477,-391.0998"/>
<polygon fill="#0000ff" stroke="#0000ff" points="859.7661,-388.464 850.279,-383.7475 854.7542,-393.3508 859.7661,-388.464"/>
<text text-anchor="middle" x="890.8397" y="-590.3" font-family="Times,serif" font-size="14.00" fill="#0000ff">4</text>
</g>
<!-- #1 Variable (Cla) &#45; (27)&#45;&gt;#4 Variable (ev) &#45; (27) -->
<g id="edge10" class="edge">
<title>#1 Variable (Cla) &#45; (27)&#45;&gt;#4 Variable (ev) &#45; (27)</title>
<path fill="none" stroke="#ff0000" d="M1274.0559,-717.3943C1255.8389,-704.1869 1230.7154,-685.9724 1210.7788,-671.5184"/>
<polygon fill="#ff0000" stroke="#ff0000" points="1212.7379,-668.6156 1202.5874,-665.5796 1208.6291,-674.2829 1212.7379,-668.6156"/>
</g>
<!-- #29 CFG_F_START 2_Cla -->
<g id="node7" class="node">
<title>#29 CFG_F_START 2_Cla</title>
<ellipse fill="none" stroke="#ff0000" cx="1723.3397" cy="-540" rx="108.5808" ry="18"/>
<text text-anchor="middle" x="1723.3397" y="-536.3" font-family="Times,serif" font-size="14.00" fill="#ff0000">#29 CFG_F_START 2_Cla</text>
</g>
<!-- #1 Variable (Cla) &#45; (27)&#45;&gt;#29 CFG_F_START 2_Cla -->
<g id="edge9" class="edge">
<title>#1 Variable (Cla) &#45; (27)&#45;&gt;#29 CFG_F_START 2_Cla</title>
<path fill="none" stroke="#000000" d="M1335.4122,-718.4009C1348.9351,-712.324 1364.3405,-705.3756 1378.3397,-699 1485.601,-650.1506 1611.2349,-592.0184 1677.3183,-561.3696"/>
<polygon fill="#000000" stroke="#000000" points="1679.0283,-564.4346 1686.6269,-557.0514 1676.0826,-558.0846 1679.0283,-564.4346"/>
<text text-anchor="middle" x="1534.3397" y="-644.3" font-family="Times,serif" font-size="14.00" fill="#000000">FD</text>
</g>
<!-- #2 Function (Cla) &#45; (27) -->
<g id="node11" class="node">
<title>#2 Function (Cla) &#45; (27)</title>
<ellipse fill="none" stroke="#000000" cx="1723.3397" cy="-648" rx="96.3833" ry="18"/>
<text text-anchor="middle" x="1723.3397" y="-644.3" font-family="Times,serif" font-size="14.00" fill="#000000">#2 Function (Cla) &#45; (27)</text>
</g>
<!-- #1 Variable (Cla) &#45; (27)&#45;&gt;#2 Function (Cla) &#45; (27) -->
<g id="edge8" class="edge">
<title>#1 Variable (Cla) &#45; (27)&#45;&gt;#2 Function (Cla) &#45; (27)</title>
<path fill="none" stroke="#0000ff" d="M1382.2607,-726.5842C1432.7631,-720.6938 1498.1429,-711.6073 1555.3397,-699 1593.5105,-690.5864 1635.5946,-677.805 1668.0938,-667.1428"/>
<polygon fill="#0000ff" stroke="#0000ff" points="1669.4647,-670.3758 1677.8571,-663.9091 1667.2637,-663.7308 1669.4647,-670.3758"/>
<text text-anchor="middle" x="1620.8397" y="-687.8" font-family="Times,serif" font-size="14.00" fill="#0000ff">init</text>
</g>
<!-- #33 Cla&#45;o1 -->
<g id="node12" class="node">
<title>#33 Cla&#45;o1</title>
<ellipse fill="none" stroke="#006400" cx="1298.3397" cy="-594" rx="50.0912" ry="18"/>
<text text-anchor="middle" x="1298.3397" y="-590.3" font-family="Times,serif" font-size="14.00" fill="#006400">#33 Cla&#45;o1</text>
</g>
<!-- #1 Variable (Cla) &#45; (27)&#45;&gt;#33 Cla&#45;o1 -->
<g id="edge11" class="edge">
<title>#1 Variable (Cla) &#45; (27)&#45;&gt;#33 Cla&#45;o1</title>
<path fill="none" stroke="#006400" d="M1298.3397,-716.8554C1298.3397,-692.8485 1298.3397,-650.2861 1298.3397,-622.1035"/>
<polygon fill="#006400" stroke="#006400" points="1301.8398,-622.075 1298.3397,-612.075 1294.8398,-622.075 1301.8398,-622.075"/>
<text text-anchor="middle" x="1336.3397" y="-687.8" font-family="Times,serif" font-size="14.00" fill="#006400">CREATE Cla</text>
</g>
<!-- #4 Variable (ev) &#45; (27)&#45;&gt;#14 ExpressionStatement (27) -->
<g id="edge14" class="edge">
<title>#4 Variable (ev) &#45; (27)&#45;&gt;#14 ExpressionStatement (27)</title>
<path fill="none" stroke="#ff0000" d="M1163.5338,-630.2053C1149.8247,-612.8371 1129.8703,-585.1346 1118.3397,-558 1107.7881,-533.1694 1101.8189,-502.8965 1098.6216,-481.2476"/>
<polygon fill="#ff0000" stroke="#ff0000" points="1102.0539,-480.514 1097.2297,-471.0812 1095.1186,-481.4636 1102.0539,-480.514"/>
</g>
<!-- #31 CFG_F_START 5_ev -->
<g id="node9" class="node">
<title>#31 CFG_F_START 5_ev</title>
<ellipse fill="none" stroke="#ff0000" cx="1380.3397" cy="-453" rx="104.7816" ry="18"/>
<text text-anchor="middle" x="1380.3397" y="-449.3" font-family="Times,serif" font-size="14.00" fill="#ff0000">#31 CFG_F_START 5_ev</text>
</g>
<!-- #4 Variable (ev) &#45; (27)&#45;&gt;#31 CFG_F_START 5_ev -->
<g id="edge13" class="edge">
<title>#4 Variable (ev) &#45; (27)&#45;&gt;#31 CFG_F_START 5_ev</title>
<path fill="none" stroke="#000000" d="M1261.2573,-640.5404C1301.4098,-635.1648 1343.8288,-626.2725 1357.3397,-612 1374.6772,-593.6852 1378.9973,-521.9033 1380.0395,-481.3325"/>
<polygon fill="#000000" stroke="#000000" points="1383.5401,-481.3344 1380.2474,-471.2642 1376.5416,-481.1898 1383.5401,-481.3344"/>
<text text-anchor="middle" x="1386.3397" y="-536.3" font-family="Times,serif" font-size="14.00" fill="#000000">FD</text>
</g>
<!-- #5 Function (ev) &#45; (27) -->
<g id="node13" class="node">
<title>#5 Function (ev) &#45; (27)</title>
<ellipse fill="none" stroke="#000000" cx="1504.3397" cy="-540" rx="92.0841" ry="18"/>
<text text-anchor="middle" x="1504.3397" y="-536.3" font-family="Times,serif" font-size="14.00" fill="#000000">#5 Function (ev) &#45; (27)</text>
</g>
<!-- #4 Variable (ev) &#45; (27)&#45;&gt;#5 Function (ev) &#45; (27) -->
<g id="edge12" class="edge">
<title>#4 Variable (ev) &#45; (27)&#45;&gt;#5 Function (ev) &#45; (27)</title>
<path fill="none" stroke="#0000ff" d="M1263.1744,-641.3403C1302.7829,-636.2942 1349.9858,-627.4553 1390.3397,-612 1420.8311,-600.3219 1451.9389,-579.9948 1473.9394,-563.9106"/>
<polygon fill="#0000ff" stroke="#0000ff" points="1476.2677,-566.5406 1482.1964,-557.7599 1472.086,-560.9269 1476.2677,-566.5406"/>
<text text-anchor="middle" x="1463.8397" y="-590.3" font-family="Times,serif" font-size="14.00" fill="#0000ff">init</text>
</g>
<!-- #35 ev&#45;o3 -->
<g id="node14" class="node">
<title>#35 ev&#45;o3</title>
<ellipse fill="none" stroke="#006400" cx="1173.3397" cy="-540" rx="46.2923" ry="18"/>
<text text-anchor="middle" x="1173.3397" y="-536.3" font-family="Times,serif" font-size="14.00" fill="#006400">#35 ev&#45;o3</text>
</g>
<!-- #4 Variable (ev) &#45; (27)&#45;&gt;#35 ev&#45;o3 -->
<g id="edge15" class="edge">
<title>#4 Variable (ev) &#45; (27)&#45;&gt;#35 ev&#45;o3</title>
<path fill="none" stroke="#006400" d="M1172.8829,-629.8491C1171.4299,-624.1864 1170.0639,-617.8826 1169.3397,-612 1167.5654,-597.5874 1168.2201,-581.4541 1169.467,-568.1183"/>
<polygon fill="#006400" stroke="#006400" points="1172.9537,-568.4298 1170.5588,-558.1092 1165.995,-567.6707 1172.9537,-568.4298"/>
<text text-anchor="middle" x="1204.3397" y="-590.3" font-family="Times,serif" font-size="14.00" fill="#006400">CREATE ev</text>
</g>
<!-- #14 ExpressionStatement (27)&#45;&gt;#20 ExpressionStatement (27) -->
<g id="edge17" class="edge">
<title>#14 ExpressionStatement (27)&#45;&gt;#20 ExpressionStatement (27)</title>
<path fill="none" stroke="#ff0000" d="M1045.3071,-436.636C1001.0491,-422.1606 936.3827,-401.0103 889.3535,-385.6286"/>
<polygon fill="#ff0000" stroke="#ff0000" points="890.192,-382.2204 879.5994,-382.4383 888.0159,-388.8736 890.192,-382.2204"/>
</g>
<!-- #15 AssignmentExpression (27) -->
<g id="node15" class="node">
<title>#15 AssignmentExpression (27)</title>
<ellipse fill="none" stroke="#000000" cx="1090.3397" cy="-366" rx="124.5782" ry="18"/>
<text text-anchor="middle" x="1090.3397" y="-362.3" font-family="Times,serif" font-size="14.00" fill="#000000">#15 AssignmentExpression (27)</text>
</g>
<!-- #14 ExpressionStatement (27)&#45;&gt;#15 AssignmentExpression (27) -->
<g id="edge16" class="edge">
<title>#14 ExpressionStatement (27)&#45;&gt;#15 AssignmentExpression (27)</title>
<path fill="none" stroke="#0000ff" d="M1092.9818,-434.7143C1092.3387,-429.0462 1091.7162,-422.7731 1091.3397,-417 1090.8672,-409.7563 1090.5948,-401.9228 1090.4427,-394.6197"/>
<polygon fill="#0000ff" stroke="#0000ff" points="1093.9397,-394.3787 1090.2968,-384.4299 1086.9405,-394.479 1093.9397,-394.3787"/>
<text text-anchor="middle" x="1120.3397" y="-405.8" font-family="Times,serif" font-size="14.00" fill="#0000ff">expression</text>
</g>
<!-- #38 Cla&#45;o6 -->
<g id="node16" class="node">
<title>#38 Cla&#45;o6</title>
<ellipse fill="none" stroke="#006400" cx="1283.3397" cy="-366" rx="50.0912" ry="18"/>
<text text-anchor="middle" x="1283.3397" y="-362.3" font-family="Times,serif" font-size="14.00" fill="#006400">#38 Cla&#45;o6</text>
</g>
<!-- #14 ExpressionStatement (27)&#45;&gt;#38 Cla&#45;o6 -->
<g id="edge18" class="edge">
<title>#14 ExpressionStatement (27)&#45;&gt;#38 Cla&#45;o6</title>
<path fill="none" stroke="#006400" d="M1122.0331,-435.1991C1143.7245,-420.7527 1170.9586,-402.666 1172.3397,-402 1178.414,-399.0709 1208.1969,-389.4502 1235.383,-380.891"/>
<polygon fill="#006400" stroke="#006400" points="1236.7395,-384.1336 1245.2327,-377.7999 1234.6435,-377.4548 1236.7395,-384.1336"/>
<text text-anchor="middle" x="1202.8397" y="-405.8" font-family="Times,serif" font-size="14.00" fill="#006400">WRITE ev</text>
</g>
<!-- #21 AssignmentExpression (27) -->
<g id="node17" class="node">
<title>#21 AssignmentExpression (27)</title>
<ellipse fill="none" stroke="#000000" cx="573.3397" cy="-279" rx="124.5782" ry="18"/>
<text text-anchor="middle" x="573.3397" y="-275.3" font-family="Times,serif" font-size="14.00" fill="#000000">#21 AssignmentExpression (27)</text>
</g>
<!-- #20 ExpressionStatement (27)&#45;&gt;#21 AssignmentExpression (27) -->
<g id="edge19" class="edge">
<title>#20 ExpressionStatement (27)&#45;&gt;#21 AssignmentExpression (27)</title>
<path fill="none" stroke="#0000ff" d="M780.8871,-349.5337C738.6176,-335.1687 677.1734,-314.2872 632.107,-298.9717"/>
<polygon fill="#0000ff" stroke="#0000ff" points="633.0597,-295.5989 622.4653,-295.695 630.8073,-302.2267 633.0597,-295.5989"/>
<text text-anchor="middle" x="746.3397" y="-318.8" font-family="Times,serif" font-size="14.00" fill="#0000ff">expression</text>
</g>
<!-- #28 CFG_F_END __main__ -->
<g id="node18" class="node">
<title>#28 CFG_F_END __main__</title>
<ellipse fill="none" stroke="#ff0000" cx="829.3397" cy="-279" rx="113.18" ry="18"/>
<text text-anchor="middle" x="829.3397" y="-275.3" font-family="Times,serif" font-size="14.00" fill="#ff0000">#28 CFG_F_END __main__</text>
</g>
<!-- #20 ExpressionStatement (27)&#45;&gt;#28 CFG_F_END __main__ -->
<g id="edge20" class="edge">
<title>#20 ExpressionStatement (27)&#45;&gt;#28 CFG_F_END __main__</title>
<path fill="none" stroke="#ff0000" d="M829.3397,-347.9735C829.3397,-336.1918 829.3397,-320.5607 829.3397,-307.1581"/>
<polygon fill="#ff0000" stroke="#ff0000" points="832.8398,-307.0033 829.3397,-297.0034 825.8398,-307.0034 832.8398,-307.0033"/>
</g>
<!-- #27 CFG_F_START __main__ -->
<g id="node6" class="node">
<title>#27 CFG_F_START __main__</title>
<ellipse fill="none" stroke="#ff0000" cx="1298.3397" cy="-822" rx="122.6784" ry="18"/>
<text text-anchor="middle" x="1298.3397" y="-818.3" font-family="Times,serif" font-size="14.00" fill="#ff0000">#27 CFG_F_START __main__</text>
</g>
<!-- #27 CFG_F_START __main__&#45;&gt;#1 Variable (Cla) &#45; (27) -->
<g id="edge5" class="edge">
<title>#27 CFG_F_START __main__&#45;&gt;#1 Variable (Cla) &#45; (27)</title>
<path fill="none" stroke="#ff0000" d="M1298.3397,-803.9735C1298.3397,-792.1918 1298.3397,-776.5607 1298.3397,-763.1581"/>
<polygon fill="#ff0000" stroke="#ff0000" points="1301.8398,-763.0033 1298.3397,-753.0034 1294.8398,-763.0034 1301.8398,-763.0033"/>
</g>
<!-- #3 BlockStatement (27) -->
<g id="node8" class="node">
<title>#3 BlockStatement (27)</title>
<ellipse fill="none" stroke="#000000" cx="1867.3397" cy="-453" rx="95.5831" ry="18"/>
<text text-anchor="middle" x="1867.3397" y="-449.3" font-family="Times,serif" font-size="14.00" fill="#000000">#3 BlockStatement (27)</text>
</g>
<!-- #29 CFG_F_START 2_Cla&#45;&gt;#3 BlockStatement (27) -->
<g id="edge6" class="edge">
<title>#29 CFG_F_START 2_Cla&#45;&gt;#3 BlockStatement (27)</title>
<path fill="none" stroke="#ff0000" d="M1752.1341,-522.6033C1774.5024,-509.0892 1805.6991,-490.2412 1829.9882,-475.5665"/>
<polygon fill="#ff0000" stroke="#ff0000" points="1831.8459,-478.5334 1838.5951,-470.3665 1828.226,-472.542 1831.8459,-478.5334"/>
</g>
<!-- #30 CFG_F_END 2_Cla -->
<g id="node19" class="node">
<title>#30 CFG_F_END 2_Cla</title>
<ellipse fill="none" stroke="#ff0000" cx="1867.3397" cy="-366" rx="98.5829" ry="18"/>
<text text-anchor="middle" x="1867.3397" y="-362.3" font-family="Times,serif" font-size="14.00" fill="#ff0000">#30 CFG_F_END 2_Cla</text>
</g>
<!-- #3 BlockStatement (27)&#45;&gt;#30 CFG_F_END 2_Cla -->
<g id="edge21" class="edge">
<title>#3 BlockStatement (27)&#45;&gt;#30 CFG_F_END 2_Cla</title>
<path fill="none" stroke="#ff0000" d="M1867.3397,-434.9735C1867.3397,-423.1918 1867.3397,-407.5607 1867.3397,-394.1581"/>
<polygon fill="#ff0000" stroke="#ff0000" points="1870.8398,-394.0033 1867.3397,-384.0034 1863.8398,-394.0034 1870.8398,-394.0033"/>
</g>
<!-- #7 Variable (v1) &#45; (31) -->
<g id="node10" class="node">
<title>#7 Variable (v1) &#45; (31)</title>
<ellipse fill="none" stroke="#000000" cx="1510.3397" cy="-279" rx="91.784" ry="18"/>
<text text-anchor="middle" x="1510.3397" y="-275.3" font-family="Times,serif" font-size="14.00" fill="#000000">#7 Variable (v1) &#45; (31)</text>
</g>
<!-- #31 CFG_F_START 5_ev&#45;&gt;#7 Variable (v1) &#45; (31) -->
<g id="edge7" class="edge">
<title>#31 CFG_F_START 5_ev&#45;&gt;#7 Variable (v1) &#45; (31)</title>
<path fill="none" stroke="#ff0000" d="M1379.7945,-434.6259C1380.0168,-412.2491 1383.3398,-374.2022 1401.3397,-348 1415.8204,-326.9206 1439.0692,-310.918 1460.3832,-299.657"/>
<polygon fill="#ff0000" stroke="#ff0000" points="1462.0191,-302.7519 1469.3681,-295.1202 1458.8639,-296.5033 1462.0191,-302.7519"/>
</g>
<!-- #8 CallExpression (31) -->
<g id="node20" class="node">
<title>#8 CallExpression (31)</title>
<ellipse fill="none" stroke="#000000" cx="1372.3397" cy="-192" rx="92.8835" ry="18"/>
<text text-anchor="middle" x="1372.3397" y="-188.3" font-family="Times,serif" font-size="14.00" fill="#000000">#8 CallExpression (31)</text>
</g>
<!-- #7 Variable (v1) &#45; (31)&#45;&gt;#8 CallExpression (31) -->
<g id="edge22" class="edge">
<title>#7 Variable (v1) &#45; (31)&#45;&gt;#8 CallExpression (31)</title>
<path fill="none" stroke="#0000ff" d="M1483.0753,-261.8116C1461.762,-248.3749 1431.9386,-229.5733 1408.611,-214.8667"/>
<polygon fill="#0000ff" stroke="#0000ff" points="1410.3456,-211.8228 1400.0197,-209.4505 1406.6124,-217.7443 1410.3456,-211.8228"/>
<text text-anchor="middle" x="1458.8397" y="-231.8" font-family="Times,serif" font-size="14.00" fill="#0000ff">init</text>
</g>
<!-- #11 ReturnStatement (31) -->
<g id="node21" class="node">
<title>#11 ReturnStatement (31)</title>
<ellipse fill="none" stroke="#000000" cx="1587.3397" cy="-105" rx="102.8821" ry="18"/>
<text text-anchor="middle" x="1587.3397" y="-101.3" font-family="Times,serif" font-size="14.00" fill="#000000">#11 ReturnStatement (31)</text>
</g>
<!-- #7 Variable (v1) &#45; (31)&#45;&gt;#11 ReturnStatement (31) -->
<g id="edge23" class="edge">
<title>#7 Variable (v1) &#45; (31)&#45;&gt;#11 ReturnStatement (31)</title>
<path fill="none" stroke="#ff0000" d="M1508.7959,-260.9848C1507.6898,-239.2989 1508.2433,-202.2733 1521.3397,-174 1529.2607,-156.8996 1543.1627,-141.3795 1556.1714,-129.4085"/>
<polygon fill="#ff0000" stroke="#ff0000" points="1558.4942,-132.0267 1563.6755,-122.7853 1553.862,-126.7786 1558.4942,-132.0267"/>
</g>
<!-- #39 v1&#45;o7 -->
<g id="node22" class="node">
<title>#39 v1&#45;o7</title>
<ellipse fill="none" stroke="#006400" cx="1577.3397" cy="-192" rx="46.5926" ry="18"/>
<text text-anchor="middle" x="1577.3397" y="-188.3" font-family="Times,serif" font-size="14.00" fill="#006400">#39 v1&#45;o7</text>
</g>
<!-- #7 Variable (v1) &#45; (31)&#45;&gt;#39 v1&#45;o7 -->
<g id="edge24" class="edge">
<title>#7 Variable (v1) &#45; (31)&#45;&gt;#39 v1&#45;o7</title>
<path fill="none" stroke="#006400" d="M1524.2221,-260.9735C1533.8716,-248.4437 1546.8739,-231.56 1557.599,-217.6335"/>
<polygon fill="#006400" stroke="#006400" points="1560.6037,-219.4681 1563.9322,-209.4097 1555.0577,-215.197 1560.6037,-219.4681"/>
<text text-anchor="middle" x="1582.3397" y="-231.8" font-family="Times,serif" font-size="14.00" fill="#006400">CREATE v1</text>
</g>
<!-- #2 Function (Cla) &#45; (27)&#45;&gt;#29 CFG_F_START 2_Cla -->
<g id="edge26" class="edge">
<title>#2 Function (Cla) &#45; (27)&#45;&gt;#29 CFG_F_START 2_Cla</title>
<path fill="none" stroke="#000000" d="M1723.3397,-629.6793C1723.3397,-612.821 1723.3397,-587.5651 1723.3397,-568.147"/>
<polygon fill="#000000" stroke="#000000" points="1726.8398,-568.0501 1723.3397,-558.0502 1719.8398,-568.0502 1726.8398,-568.0501"/>
<text text-anchor="middle" x="1732.3397" y="-590.3" font-family="Times,serif" font-size="14.00" fill="#000000">FD</text>
</g>
<!-- #2 Function (Cla) &#45; (27)&#45;&gt;#3 BlockStatement (27) -->
<g id="edge25" class="edge">
<title>#2 Function (Cla) &#45; (27)&#45;&gt;#3 BlockStatement (27)</title>
<path fill="none" stroke="#0000ff" d="M1756.6381,-630.949C1783.5079,-615.4836 1820.1994,-590.1985 1841.3397,-558 1856.4862,-534.9305 1862.8108,-503.7472 1865.4507,-481.3671"/>
<polygon fill="#0000ff" stroke="#0000ff" points="1868.9588,-481.4609 1866.4732,-471.1617 1861.9937,-480.763 1868.9588,-481.4609"/>
<text text-anchor="middle" x="1871.8397" y="-536.3" font-family="Times,serif" font-size="14.00" fill="#0000ff">block</text>
</g>
<!-- #33 Cla&#45;o1&#45;&gt;#38 Cla&#45;o6 -->
<g id="edge27" class="edge">
<title>#33 Cla&#45;o1&#45;&gt;#38 Cla&#45;o6</title>
<path fill="none" stroke="#006400" d="M1288.2348,-576.0777C1278.8859,-558.3919 1265.6572,-530.265 1260.3397,-504 1252.6131,-465.8363 1263.5831,-421.3534 1272.8633,-393.4317"/>
<polygon fill="#006400" stroke="#006400" points="1276.1865,-394.5312 1276.1682,-383.9364 1269.5755,-392.2302 1276.1865,-394.5312"/>
<text text-anchor="middle" x="1317.3397" y="-492.8" font-family="Times,serif" font-size="14.00" fill="#006400">NEW_VERSION ev</text>
</g>
<!-- #5 Function (ev) &#45; (27)&#45;&gt;#31 CFG_F_START 5_ev -->
<g id="edge30" class="edge">
<title>#5 Function (ev) &#45; (27)&#45;&gt;#31 CFG_F_START 5_ev</title>
<path fill="none" stroke="#000000" d="M1479.5445,-522.6033C1460.6606,-509.3542 1434.4696,-490.9782 1413.7405,-476.4345"/>
<polygon fill="#000000" stroke="#000000" points="1415.7133,-473.5431 1405.517,-470.6647 1411.6929,-479.2734 1415.7133,-473.5431"/>
<text text-anchor="middle" x="1458.3397" y="-492.8" font-family="Times,serif" font-size="14.00" fill="#000000">FD</text>
</g>
<!-- #6 Identifier (x) &#45; (27) -->
<g id="node23" class="node">
<title>#6 Identifier (x) &#45; (27)</title>
<ellipse fill="none" stroke="#000000" cx="1663.3397" cy="-453" rx="89.8845" ry="18"/>
<text text-anchor="middle" x="1663.3397" y="-449.3" font-family="Times,serif" font-size="14.00" fill="#000000">#6 Identifier (x) &#45; (27)</text>
</g>
<!-- #5 Function (ev) &#45; (27)&#45;&gt;#6 Identifier (x) &#45; (27) -->
<g id="edge28" class="edge">
<title>#5 Function (ev) &#45; (27)&#45;&gt;#6 Identifier (x) &#45; (27)</title>
<path fill="none" stroke="#0000ff" d="M1535.3739,-523.019C1560.5447,-509.2463 1596.1972,-489.7383 1623.4795,-474.8103"/>
<polygon fill="#0000ff" stroke="#0000ff" points="1625.2911,-477.8088 1632.3837,-469.9382 1621.931,-471.6679 1625.2911,-477.8088"/>
<text text-anchor="middle" x="1616.3397" y="-492.8" font-family="Times,serif" font-size="14.00" fill="#0000ff">param 1</text>
</g>
<!-- #13 BlockStatement (27) -->
<g id="node24" class="node">
<title>#13 BlockStatement (27)</title>
<ellipse fill="none" stroke="#000000" cx="1510.3397" cy="-366" rx="100.1823" ry="18"/>
<text text-anchor="middle" x="1510.3397" y="-362.3" font-family="Times,serif" font-size="14.00" fill="#000000">#13 BlockStatement (27)</text>
</g>
<!-- #5 Function (ev) &#45; (27)&#45;&gt;#13 BlockStatement (27) -->
<g id="edge29" class="edge">
<title>#5 Function (ev) &#45; (27)&#45;&gt;#13 BlockStatement (27)</title>
<path fill="none" stroke="#0000ff" d="M1504.9704,-521.7078C1506.0175,-491.3436 1508.1217,-430.3226 1509.3622,-394.3464"/>
<polygon fill="#0000ff" stroke="#0000ff" points="1512.8706,-394.1618 1509.7174,-384.0471 1505.8747,-393.9205 1512.8706,-394.1618"/>
<text text-anchor="middle" x="1522.8397" y="-449.3" font-family="Times,serif" font-size="14.00" fill="#0000ff">block</text>
</g>
<!-- #35 ev&#45;o3&#45;&gt;#14 ExpressionStatement (27) -->
<g id="edge31" class="edge">
<title>#35 ev&#45;o3&#45;&gt;#14 ExpressionStatement (27)</title>
<path fill="none" stroke="#006400" d="M1157.9294,-522.8116C1146.6163,-510.1932 1131.0612,-492.8433 1118.2886,-478.5969"/>
<polygon fill="#006400" stroke="#006400" points="1120.805,-476.1605 1111.5235,-471.0512 1115.593,-480.8333 1120.805,-476.1605"/>
<text text-anchor="middle" x="1162.3397" y="-492.8" font-family="Times,serif" font-size="14.00" fill="#006400">VAR ev</text>
</g>
<!-- #16 MemberExpression (27) -->
<g id="node25" class="node">
<title>#16 MemberExpression (27)</title>
<ellipse fill="none" stroke="#000000" cx="1073.3397" cy="-279" rx="113.18" ry="18"/>
<text text-anchor="middle" x="1073.3397" y="-275.3" font-family="Times,serif" font-size="14.00" fill="#000000">#16 MemberExpression (27)</text>
</g>
<!-- #15 AssignmentExpression (27)&#45;&gt;#16 MemberExpression (27) -->
<g id="edge32" class="edge">
<title>#15 AssignmentExpression (27)&#45;&gt;#16 MemberExpression (27)</title>
<path fill="none" stroke="#0000ff" d="M1086.8173,-347.9735C1084.5151,-336.1918 1081.4607,-320.5607 1078.8418,-307.1581"/>
<polygon fill="#0000ff" stroke="#0000ff" points="1082.2104,-306.1465 1076.8576,-297.0034 1075.3404,-307.489 1082.2104,-306.1465"/>
<text text-anchor="middle" x="1092.8397" y="-318.8" font-family="Times,serif" font-size="14.00" fill="#0000ff">left</text>
</g>
<!-- #19 Identifier (ev) &#45; (27) -->
<g id="node26" class="node">
<title>#19 Identifier (ev) &#45; (27)</title>
<ellipse fill="none" stroke="#000000" cx="1302.3397" cy="-279" rx="98.2828" ry="18"/>
<text text-anchor="middle" x="1302.3397" y="-275.3" font-family="Times,serif" font-size="14.00" fill="#000000">#19 Identifier (ev) &#45; (27)</text>
</g>
<!-- #15 AssignmentExpression (27)&#45;&gt;#19 Identifier (ev) &#45; (27) -->
<g id="edge33" class="edge">
<title>#15 AssignmentExpression (27)&#45;&gt;#19 Identifier (ev) &#45; (27)</title>
<path fill="none" stroke="#0000ff" d="M1131.9711,-348.9154C1166.6184,-334.6969 1216.0319,-314.4187 1252.7275,-299.3597"/>
<polygon fill="#0000ff" stroke="#0000ff" points="1254.3182,-302.4903 1262.2407,-295.4557 1251.6606,-296.0143 1254.3182,-302.4903"/>
<text text-anchor="middle" x="1222.3397" y="-318.8" font-family="Times,serif" font-size="14.00" fill="#0000ff">right</text>
</g>
<!-- #22 MemberExpression (27) -->
<g id="node27" class="node">
<title>#22 MemberExpression (27)</title>
<ellipse fill="none" stroke="#000000" cx="366.3397" cy="-192" rx="113.18" ry="18"/>
<text text-anchor="middle" x="366.3397" y="-188.3" font-family="Times,serif" font-size="14.00" fill="#000000">#22 MemberExpression (27)</text>
</g>
<!-- #21 AssignmentExpression (27)&#45;&gt;#22 MemberExpression (27) -->
<g id="edge34" class="edge">
<title>#21 AssignmentExpression (27)&#45;&gt;#22 MemberExpression (27)</title>
<path fill="none" stroke="#0000ff" d="M532.4431,-261.8116C498.9138,-247.7196 451.3439,-227.7264 415.6987,-212.7451"/>
<polygon fill="#0000ff" stroke="#0000ff" points="417.0219,-209.5047 406.4469,-208.8567 414.3096,-215.9579 417.0219,-209.5047"/>
<text text-anchor="middle" x="491.8397" y="-231.8" font-family="Times,serif" font-size="14.00" fill="#0000ff">left</text>
</g>
<!-- #25 NewExpression (27) -->
<g id="node28" class="node">
<title>#25 NewExpression (27)</title>
<ellipse fill="none" stroke="#000000" cx="599.3397" cy="-192" rx="98.5829" ry="18"/>
<text text-anchor="middle" x="599.3397" y="-188.3" font-family="Times,serif" font-size="14.00" fill="#000000">#25 NewExpression (27)</text>
</g>
<!-- #21 AssignmentExpression (27)&#45;&gt;#25 NewExpression (27) -->
<g id="edge35" class="edge">
<title>#21 AssignmentExpression (27)&#45;&gt;#25 NewExpression (27)</title>
<path fill="none" stroke="#0000ff" d="M578.7269,-260.9735C582.2827,-249.0751 587.0119,-233.2508 591.0434,-219.7606"/>
<polygon fill="#0000ff" stroke="#0000ff" points="594.4494,-220.5869 593.9594,-210.0034 587.7425,-218.5825 594.4494,-220.5869"/>
<text text-anchor="middle" x="601.3397" y="-231.8" font-family="Times,serif" font-size="14.00" fill="#0000ff">right</text>
</g>
<!-- #9 Identifier (eval) &#45; (31) -->
<g id="node29" class="node">
<title>#9 Identifier (eval) &#45; (31)</title>
<ellipse fill="none" stroke="#000000" cx="1160.3397" cy="-105" rx="100.1823" ry="18"/>
<text text-anchor="middle" x="1160.3397" y="-101.3" font-family="Times,serif" font-size="14.00" fill="#000000">#9 Identifier (eval) &#45; (31)</text>
</g>
<!-- #8 CallExpression (31)&#45;&gt;#9 Identifier (eval) &#45; (31) -->
<g id="edge36" class="edge">
<title>#8 CallExpression (31)&#45;&gt;#9 Identifier (eval) &#45; (31)</title>
<path fill="none" stroke="#0000ff" d="M1332.4641,-175.636C1297.8912,-161.448 1247.6927,-140.8477 1210.4196,-125.5517"/>
<polygon fill="#0000ff" stroke="#0000ff" points="1211.3373,-122.1451 1200.7572,-121.5865 1208.6797,-128.621 1211.3373,-122.1451"/>
<text text-anchor="middle" x="1295.3397" y="-144.8" font-family="Times,serif" font-size="14.00" fill="#0000ff">callee</text>
</g>
<!-- #10 Identifier (x) &#45; (31) -->
<g id="node30" class="node">
<title>#10 Identifier (x) &#45; (31)</title>
<ellipse fill="none" stroke="#000000" cx="1372.3397" cy="-105" rx="94.4839" ry="18"/>
<text text-anchor="middle" x="1372.3397" y="-101.3" font-family="Times,serif" font-size="14.00" fill="#000000">#10 Identifier (x) &#45; (31)</text>
</g>
<!-- #8 CallExpression (31)&#45;&gt;#10 Identifier (x) &#45; (31) -->
<g id="edge37" class="edge">
<title>#8 CallExpression (31)&#45;&gt;#10 Identifier (x) &#45; (31)</title>
<path fill="none" stroke="#0000ff" d="M1372.3397,-173.9735C1372.3397,-162.1918 1372.3397,-146.5607 1372.3397,-133.1581"/>
<polygon fill="#0000ff" stroke="#0000ff" points="1375.8398,-133.0033 1372.3397,-123.0034 1368.8398,-133.0034 1375.8398,-133.0033"/>
<text text-anchor="middle" x="1386.3397" y="-144.8" font-family="Times,serif" font-size="14.00" fill="#0000ff">arg 1</text>
</g>
<!-- #12 Identifier (v1) &#45; (31) -->
<g id="node31" class="node">
<title>#12 Identifier (v1) &#45; (31)</title>
<ellipse fill="none" stroke="#000000" cx="1481.3397" cy="-18" rx="98.5829" ry="18"/>
<text text-anchor="middle" x="1481.3397" y="-14.3" font-family="Times,serif" font-size="14.00" fill="#000000">#12 Identifier (v1) &#45; (31)</text>
</g>
<!-- #11 ReturnStatement (31)&#45;&gt;#12 Identifier (v1) &#45; (31) -->
<g id="edge38" class="edge">
<title>#11 ReturnStatement (31)&#45;&gt;#12 Identifier (v1) &#45; (31)</title>
<path fill="none" stroke="#0000ff" d="M1565.889,-87.3943C1550.0846,-74.4228 1528.3956,-56.6213 1510.942,-42.2962"/>
<polygon fill="#0000ff" stroke="#0000ff" points="1512.7088,-39.2184 1502.7585,-35.5796 1508.2678,-44.6293 1512.7088,-39.2184"/>
<text text-anchor="middle" x="1566.3397" y="-57.8" font-family="Times,serif" font-size="14.00" fill="#0000ff">argument</text>
</g>
<!-- #32 CFG_F_END 5_ev -->
<g id="node32" class="node">
<title>#32 CFG_F_END 5_ev</title>
<ellipse fill="none" stroke="#ff0000" cx="1693.3397" cy="-18" rx="94.7833" ry="18"/>
<text text-anchor="middle" x="1693.3397" y="-14.3" font-family="Times,serif" font-size="14.00" fill="#ff0000">#32 CFG_F_END 5_ev</text>
</g>
<!-- #11 ReturnStatement (31)&#45;&gt;#32 CFG_F_END 5_ev -->
<g id="edge39" class="edge">
<title>#11 ReturnStatement (31)&#45;&gt;#32 CFG_F_END 5_ev</title>
<path fill="none" stroke="#ff0000" d="M1608.7904,-87.3943C1624.5947,-74.4228 1646.2838,-56.6213 1663.7374,-42.2962"/>
<polygon fill="#ff0000" stroke="#ff0000" points="1666.4116,-44.6293 1671.9209,-35.5796 1661.9705,-39.2184 1666.4116,-44.6293"/>
</g>
<!-- #39 v1&#45;o7&#45;&gt;#11 ReturnStatement (31) -->
<g id="edge40" class="edge">
<title>#39 v1&#45;o7&#45;&gt;#11 ReturnStatement (31)</title>
<path fill="none" stroke="#006400" d="M1579.4117,-173.9735C1580.7659,-162.1918 1582.5626,-146.5607 1584.1031,-133.1581"/>
<polygon fill="#006400" stroke="#006400" points="1587.6054,-133.3376 1585.2703,-123.0034 1580.6512,-132.5383 1587.6054,-133.3376"/>
<text text-anchor="middle" x="1605.3397" y="-144.8" font-family="Times,serif" font-size="14.00" fill="#006400">VAR v1</text>
</g>
<!-- #37 x&#45;o5 -->
<g id="node33" class="node">
<title>#37 x&#45;o5</title>
<ellipse fill="none" stroke="#006400" cx="1670.3397" cy="-366" rx="42.4939" ry="18"/>
<text text-anchor="middle" x="1670.3397" y="-362.3" font-family="Times,serif" font-size="14.00" fill="#006400">#37 x&#45;o5</text>
</g>
<!-- #6 Identifier (x) &#45; (27)&#45;&gt;#37 x&#45;o5 -->
<g id="edge41" class="edge">
<title>#6 Identifier (x) &#45; (27)&#45;&gt;#37 x&#45;o5</title>
<path fill="none" stroke="#006400" d="M1664.7901,-434.9735C1665.738,-423.1918 1666.9957,-407.5607 1668.0741,-394.1581"/>
<polygon fill="#006400" stroke="#006400" points="1671.5778,-394.2519 1668.8911,-384.0034 1664.6003,-393.6904 1671.5778,-394.2519"/>
<text text-anchor="middle" x="1698.3397" y="-405.8" font-family="Times,serif" font-size="14.00" fill="#006400">CREATE x</text>
</g>
<!-- #13 BlockStatement (27)&#45;&gt;#7 Variable (v1) &#45; (31) -->
<g id="edge42" class="edge">
<title>#13 BlockStatement (27)&#45;&gt;#7 Variable (v1) &#45; (31)</title>
<path fill="none" stroke="#0000ff" d="M1510.3397,-347.9735C1510.3397,-336.1918 1510.3397,-320.5607 1510.3397,-307.1581"/>
<polygon fill="#0000ff" stroke="#0000ff" points="1513.8398,-307.0033 1510.3397,-297.0034 1506.8398,-307.0034 1513.8398,-307.0033"/>
<text text-anchor="middle" x="1513.8397" y="-318.8" font-family="Times,serif" font-size="14.00" fill="#0000ff">1</text>
</g>
<!-- #13 BlockStatement (27)&#45;&gt;#11 ReturnStatement (31) -->
<g id="edge43" class="edge">
<title>#13 BlockStatement (27)&#45;&gt;#11 ReturnStatement (31)</title>
<path fill="none" stroke="#0000ff" d="M1582.7188,-353.5323C1607.5173,-347.6746 1630.917,-339.7983 1638.3397,-330 1650.1497,-314.4102 1765.3023,-405.8553 1632.3397,-141 1630.2636,-136.8646 1627.4689,-133.0484 1624.283,-129.5711"/>
<polygon fill="#0000ff" stroke="#0000ff" points="1626.4821,-126.8336 1616.8107,-122.5075 1621.6734,-131.9205 1626.4821,-126.8336"/>
<text text-anchor="middle" x="1680.8397" y="-231.8" font-family="Times,serif" font-size="14.00" fill="#0000ff">2</text>
</g>
<!-- #17 Identifier (Cla) &#45; (27) -->
<g id="node34" class="node">
<title>#17 Identifier (Cla) &#45; (27)</title>
<ellipse fill="none" stroke="#000000" cx="903.3397" cy="-192" rx="102.0819" ry="18"/>
<text text-anchor="middle" x="903.3397" y="-188.3" font-family="Times,serif" font-size="14.00" fill="#000000">#17 Identifier (Cla) &#45; (27)</text>
</g>
<!-- #16 MemberExpression (27)&#45;&gt;#17 Identifier (Cla) &#45; (27) -->
<g id="edge44" class="edge">
<title>#16 MemberExpression (27)&#45;&gt;#17 Identifier (Cla) &#45; (27)</title>
<path fill="none" stroke="#0000ff" d="M1039.7531,-261.8116C1012.8603,-248.0488 974.969,-228.6574 945.9436,-213.8032"/>
<polygon fill="#0000ff" stroke="#0000ff" points="947.353,-210.5928 936.8564,-209.1527 944.1639,-216.8242 947.353,-210.5928"/>
<text text-anchor="middle" x="1016.3397" y="-231.8" font-family="Times,serif" font-size="14.00" fill="#0000ff">object</text>
</g>
<!-- #18 Identifier (ev) &#45; (27) -->
<g id="node35" class="node">
<title>#18 Identifier (ev) &#45; (27)</title>
<ellipse fill="none" stroke="#000000" cx="1121.3397" cy="-192" rx="98.2828" ry="18"/>
<text text-anchor="middle" x="1121.3397" y="-188.3" font-family="Times,serif" font-size="14.00" fill="#000000">#18 Identifier (ev) &#45; (27)</text>
</g>
<!-- #16 MemberExpression (27)&#45;&gt;#18 Identifier (ev) &#45; (27) -->
<g id="edge45" class="edge">
<title>#16 MemberExpression (27)&#45;&gt;#18 Identifier (ev) &#45; (27)</title>
<path fill="none" stroke="#0000ff" d="M1083.2853,-260.9735C1089.9787,-248.8418 1098.9239,-232.6287 1106.4598,-218.9698"/>
<polygon fill="#0000ff" stroke="#0000ff" points="1109.6405,-220.4499 1111.4068,-210.0034 1103.5114,-217.0684 1109.6405,-220.4499"/>
<text text-anchor="middle" x="1123.3397" y="-231.8" font-family="Times,serif" font-size="14.00" fill="#0000ff">property</text>
</g>
<!-- #23 Identifier (module) &#45; (27) -->
<g id="node36" class="node">
<title>#23 Identifier (module) &#45; (27)</title>
<ellipse fill="none" stroke="#000000" cx="116.3397" cy="-105" rx="116.1796" ry="18"/>
<text text-anchor="middle" x="116.3397" y="-101.3" font-family="Times,serif" font-size="14.00" fill="#000000">#23 Identifier (module) &#45; (27)</text>
</g>
<!-- #22 MemberExpression (27)&#45;&gt;#23 Identifier (module) &#45; (27) -->
<g id="edge46" class="edge">
<title>#22 MemberExpression (27)&#45;&gt;#23 Identifier (module) &#45; (27)</title>
<path fill="none" stroke="#0000ff" d="M319.0227,-175.5337C277.6989,-161.153 217.6087,-140.2416 173.5856,-124.9216"/>
<polygon fill="#0000ff" stroke="#0000ff" points="174.4827,-121.5279 163.8879,-121.5468 172.182,-128.1391 174.4827,-121.5279"/>
<text text-anchor="middle" x="273.3397" y="-144.8" font-family="Times,serif" font-size="14.00" fill="#0000ff">object</text>
</g>
<!-- #24 Identifier (exports) &#45; (27) -->
<g id="node37" class="node">
<title>#24 Identifier (exports) &#45; (27)</title>
<ellipse fill="none" stroke="#000000" cx="366.3397" cy="-105" rx="115.8798" ry="18"/>
<text text-anchor="middle" x="366.3397" y="-101.3" font-family="Times,serif" font-size="14.00" fill="#000000">#24 Identifier (exports) &#45; (27)</text>
</g>
<!-- #22 MemberExpression (27)&#45;&gt;#24 Identifier (exports) &#45; (27) -->
<g id="edge47" class="edge">
<title>#22 MemberExpression (27)&#45;&gt;#24 Identifier (exports) &#45; (27)</title>
<path fill="none" stroke="#0000ff" d="M366.3397,-173.9735C366.3397,-162.1918 366.3397,-146.5607 366.3397,-133.1581"/>
<polygon fill="#0000ff" stroke="#0000ff" points="369.8398,-133.0033 366.3397,-123.0034 362.8398,-133.0034 369.8398,-133.0033"/>
<text text-anchor="middle" x="389.3397" y="-144.8" font-family="Times,serif" font-size="14.00" fill="#0000ff">property</text>
</g>
<!-- #26 Identifier (Cla) &#45; (27) -->
<g id="node38" class="node">
<title>#26 Identifier (Cla) &#45; (27)</title>
<ellipse fill="none" stroke="#000000" cx="602.3397" cy="-105" rx="102.0819" ry="18"/>
<text text-anchor="middle" x="602.3397" y="-101.3" font-family="Times,serif" font-size="14.00" fill="#000000">#26 Identifier (Cla) &#45; (27)</text>
</g>
<!-- #25 NewExpression (27)&#45;&gt;#26 Identifier (Cla) &#45; (27) -->
<g id="edge48" class="edge">
<title>#25 NewExpression (27)&#45;&gt;#26 Identifier (Cla) &#45; (27)</title>
<path fill="none" stroke="#0000ff" d="M599.9613,-173.9735C600.3675,-162.1918 600.9066,-146.5607 601.3687,-133.1581"/>
<polygon fill="#0000ff" stroke="#0000ff" points="604.8721,-133.1181 601.7189,-123.0034 597.8762,-132.8768 604.8721,-133.1181"/>
<text text-anchor="middle" x="617.3397" y="-144.8" font-family="Times,serif" font-size="14.00" fill="#0000ff">callee</text>
</g>
<!-- #37 x&#45;o5&#45;&gt;#7 Variable (v1) &#45; (31) -->
<g id="edge49" class="edge">
<title>#37 x&#45;o5&#45;&gt;#7 Variable (v1) &#45; (31)</title>
<path fill="none" stroke="#006400" d="M1644.2768,-351.8283C1618.9475,-338.0555 1580.1155,-316.9406 1550.7739,-300.9861"/>
<polygon fill="#006400" stroke="#006400" points="1552.0672,-297.7054 1541.61,-296.0032 1548.7233,-303.8551 1552.0672,-297.7054"/>
<text text-anchor="middle" x="1619.3397" y="-318.8" font-family="Times,serif" font-size="14.00" fill="#006400">VAR x</text>
</g>
</g>
</svg>
