<?xml version="1.0" encoding="UTF-8" standalone="no"?>
<!DOCTYPE svg PUBLIC "-//W3C//DTD SVG 1.1//EN"
 "http://www.w3.org/Graphics/SVG/1.1/DTD/svg11.dtd">
<!-- Generated by graphviz version 2.40.1 (20161225.0304)
 -->
<!-- Title: G Pages: 1 -->
<svg width="1202pt" height="935pt"
 viewBox="0.00 0.00 1202.39 935.00" xmlns="http://www.w3.org/2000/svg" xmlns:xlink="http://www.w3.org/1999/xlink">
<g id="graph0" class="graph" transform="scale(1 1) rotate(0) translate(4 931)">
<title>G</title>
<polygon fill="#ffffff" stroke="transparent" points="-4,4 -4,-931 1198.3852,-931 1198.3852,4 -4,4"/>
<!-- #0 Program (0) -->
<g id="node1" class="node">
<title>#0 Program (0)</title>
<ellipse fill="none" stroke="#000000" cx="681.2953" cy="-909" rx="65.7887" ry="18"/>
<text text-anchor="middle" x="681.2953" y="-905.3" font-family="Times,serif" font-size="14.00" fill="#000000">#0 Program (0)</text>
</g>
<!-- #1 Variable (read) &#45; (23) -->
<g id="node2" class="node">
<title>#1 Variable (read) &#45; (23)</title>
<ellipse fill="none" stroke="#000000" cx="423.2953" cy="-822" rx="98.2828" ry="18"/>
<text text-anchor="middle" x="423.2953" y="-818.3" font-family="Times,serif" font-size="14.00" fill="#000000">#1 Variable (read) &#45; (23)</text>
</g>
<!-- #0 Program (0)&#45;&gt;#1 Variable (read) &#45; (23) -->
<g id="edge1" class="edge">
<title>#0 Program (0)&#45;&gt;#1 Variable (read) &#45; (23)</title>
<path fill="none" stroke="#0000ff" d="M639.8431,-895.0219C596.533,-880.4174 528.2945,-857.4067 480.009,-841.1244"/>
<polygon fill="#0000ff" stroke="#0000ff" points="480.9223,-837.7388 470.3282,-837.8599 478.6855,-844.3718 480.9223,-837.7388"/>
<text text-anchor="middle" x="570.7953" y="-861.8" font-family="Times,serif" font-size="14.00" fill="#0000ff">1</text>
</g>
<!-- #5 Variable (f) &#45; (23) -->
<g id="node3" class="node">
<title>#5 Variable (f) &#45; (23)</title>
<ellipse fill="none" stroke="#000000" cx="567.2953" cy="-735" rx="85.5853" ry="18"/>
<text text-anchor="middle" x="567.2953" y="-731.3" font-family="Times,serif" font-size="14.00" fill="#000000">#5 Variable (f) &#45; (23)</text>
</g>
<!-- #0 Program (0)&#45;&gt;#5 Variable (f) &#45; (23) -->
<g id="edge2" class="edge">
<title>#0 Program (0)&#45;&gt;#5 Variable (f) &#45; (23)</title>
<path fill="none" stroke="#0000ff" d="M689.6747,-891.1336C701.7195,-862.5151 719.6418,-806.0596 692.2953,-771 685.429,-762.1971 665.2218,-754.8241 643.0026,-749.0895"/>
<polygon fill="#0000ff" stroke="#0000ff" points="643.5884,-745.6296 633.043,-746.652 641.9242,-752.429 643.5884,-745.6296"/>
<text text-anchor="middle" x="709.7953" y="-818.3" font-family="Times,serif" font-size="14.00" fill="#0000ff">2</text>
</g>
<!-- #17 ExpressionStatement (23) -->
<g id="node4" class="node">
<title>#17 ExpressionStatement (23)</title>
<ellipse fill="none" stroke="#000000" cx="824.2953" cy="-627" rx="118.0794" ry="18"/>
<text text-anchor="middle" x="824.2953" y="-623.3" font-family="Times,serif" font-size="14.00" fill="#000000">#17 ExpressionStatement (23)</text>
</g>
<!-- #0 Program (0)&#45;&gt;#17 ExpressionStatement (23) -->
<g id="edge3" class="edge">
<title>#0 Program (0)&#45;&gt;#17 ExpressionStatement (23)</title>
<path fill="none" stroke="#0000ff" d="M682.2121,-890.8739C683.8253,-869.4 688.2461,-832.8961 700.2953,-804 725.0553,-744.6209 772.2771,-685.3782 800.7628,-652.7285"/>
<polygon fill="#0000ff" stroke="#0000ff" points="803.578,-654.8283 807.5762,-645.0168 798.3321,-650.1935 803.578,-654.8283"/>
<text text-anchor="middle" x="718.7953" y="-774.8" font-family="Times,serif" font-size="14.00" fill="#0000ff">3</text>
</g>
<!-- #1 Variable (read) &#45; (23)&#45;&gt;#5 Variable (f) &#45; (23) -->
<g id="edge7" class="edge">
<title>#1 Variable (read) &#45; (23)&#45;&gt;#5 Variable (f) &#45; (23)</title>
<path fill="none" stroke="#ff0000" d="M452.0897,-804.6033C474.6042,-791.0009 506.0629,-771.9945 530.4192,-757.2793"/>
<polygon fill="#ff0000" stroke="#ff0000" points="532.2922,-760.2369 539.0415,-752.07 528.6724,-754.2455 532.2922,-760.2369"/>
</g>
<!-- #2 CallExpression (23) -->
<g id="node8" class="node">
<title>#2 CallExpression (23)</title>
<ellipse fill="none" stroke="#000000" cx="351.2953" cy="-735" rx="92.8835" ry="18"/>
<text text-anchor="middle" x="351.2953" y="-731.3" font-family="Times,serif" font-size="14.00" fill="#000000">#2 CallExpression (23)</text>
</g>
<!-- #1 Variable (read) &#45; (23)&#45;&gt;#2 CallExpression (23) -->
<g id="edge6" class="edge">
<title>#1 Variable (read) &#45; (23)&#45;&gt;#2 CallExpression (23)</title>
<path fill="none" stroke="#0000ff" d="M408.3768,-803.9735C398.0472,-791.4919 384.1421,-774.6899 372.6423,-760.7944"/>
<polygon fill="#0000ff" stroke="#0000ff" points="375.2667,-758.4758 366.1946,-753.0034 369.8739,-762.9388 375.2667,-758.4758"/>
<text text-anchor="middle" x="401.7953" y="-774.8" font-family="Times,serif" font-size="14.00" fill="#0000ff">init</text>
</g>
<!-- #27 read&#45;o1 -->
<g id="node9" class="node">
<title>#27 read&#45;o1</title>
<ellipse fill="none" stroke="#006400" cx="53.2953" cy="-681" rx="53.0913" ry="18"/>
<text text-anchor="middle" x="53.2953" y="-677.3" font-family="Times,serif" font-size="14.00" fill="#006400">#27 read&#45;o1</text>
</g>
<!-- #1 Variable (read) &#45; (23)&#45;&gt;#27 read&#45;o1 -->
<g id="edge8" class="edge">
<title>#1 Variable (read) &#45; (23)&#45;&gt;#27 read&#45;o1</title>
<path fill="none" stroke="#006400" d="M366.973,-807.2017C345.5959,-801.1805 321.1452,-793.8026 299.2953,-786 225.2937,-759.5739 141.6377,-722.2055 93.4246,-699.9072"/>
<polygon fill="#006400" stroke="#006400" points="94.8119,-696.6926 84.2679,-695.6562 91.8643,-703.0417 94.8119,-696.6926"/>
<text text-anchor="middle" x="339.2953" y="-774.8" font-family="Times,serif" font-size="14.00" fill="#006400">CREATE read</text>
</g>
<!-- #5 Variable (f) &#45; (23)&#45;&gt;#17 ExpressionStatement (23) -->
<g id="edge11" class="edge">
<title>#5 Variable (f) &#45; (23)&#45;&gt;#17 ExpressionStatement (23)</title>
<path fill="none" stroke="#ff0000" d="M586.8637,-717.2343C606.0144,-700.7844 636.6923,-676.8398 667.2953,-663 687.0711,-654.0567 709.2866,-647.2272 730.6447,-642.0518"/>
<polygon fill="#ff0000" stroke="#ff0000" points="731.4373,-645.461 740.3858,-639.7887 729.8531,-638.6426 731.4373,-645.461"/>
</g>
<!-- #25 CFG_F_START 6_anon -->
<g id="node6" class="node">
<title>#25 CFG_F_START 6_anon</title>
<ellipse fill="none" stroke="#ff0000" cx="351.2953" cy="-540" rx="113.18" ry="18"/>
<text text-anchor="middle" x="351.2953" y="-536.3" font-family="Times,serif" font-size="14.00" fill="#ff0000">#25 CFG_F_START 6_anon</text>
</g>
<!-- #5 Variable (f) &#45; (23)&#45;&gt;#25 CFG_F_START 6_anon -->
<g id="edge10" class="edge">
<title>#5 Variable (f) &#45; (23)&#45;&gt;#25 CFG_F_START 6_anon</title>
<path fill="none" stroke="#000000" d="M544.6427,-717.3329C522.2228,-699.6086 487.1678,-671.2471 458.2953,-645 441.5522,-629.7793 438.4091,-624.8853 422.2953,-609 407.4584,-594.3736 390.7545,-578.1292 377.2776,-565.0779"/>
<polygon fill="#000000" stroke="#000000" points="379.3747,-562.2368 369.7541,-557.7989 374.5073,-567.2676 379.3747,-562.2368"/>
<text text-anchor="middle" x="467.2953" y="-623.3" font-family="Times,serif" font-size="14.00" fill="#000000">FD</text>
</g>
<!-- #6 Function (anon) &#45; (23) -->
<g id="node10" class="node">
<title>#6 Function (anon) &#45; (23)</title>
<ellipse fill="none" stroke="#000000" cx="586.2953" cy="-627" rx="100.9827" ry="18"/>
<text text-anchor="middle" x="586.2953" y="-623.3" font-family="Times,serif" font-size="14.00" fill="#000000">#6 Function (anon) &#45; (23)</text>
</g>
<!-- #5 Variable (f) &#45; (23)&#45;&gt;#6 Function (anon) &#45; (23) -->
<g id="edge9" class="edge">
<title>#5 Variable (f) &#45; (23)&#45;&gt;#6 Function (anon) &#45; (23)</title>
<path fill="none" stroke="#0000ff" d="M570.5184,-716.6793C573.4842,-699.821 577.9273,-674.5651 581.3435,-655.147"/>
<polygon fill="#0000ff" stroke="#0000ff" points="584.8341,-655.5054 583.1198,-645.0502 577.94,-654.2925 584.8341,-655.5054"/>
<text text-anchor="middle" x="588.7953" y="-677.3" font-family="Times,serif" font-size="14.00" fill="#0000ff">init</text>
</g>
<!-- #18 AssignmentExpression (23) -->
<g id="node11" class="node">
<title>#18 AssignmentExpression (23)</title>
<ellipse fill="none" stroke="#000000" cx="825.2953" cy="-540" rx="124.5782" ry="18"/>
<text text-anchor="middle" x="825.2953" y="-536.3" font-family="Times,serif" font-size="14.00" fill="#000000">#18 AssignmentExpression (23)</text>
</g>
<!-- #17 ExpressionStatement (23)&#45;&gt;#18 AssignmentExpression (23) -->
<g id="edge12" class="edge">
<title>#17 ExpressionStatement (23)&#45;&gt;#18 AssignmentExpression (23)</title>
<path fill="none" stroke="#0000ff" d="M824.5025,-608.9735C824.6379,-597.1918 824.8176,-581.5607 824.9716,-568.1581"/>
<polygon fill="#0000ff" stroke="#0000ff" points="828.4731,-568.043 825.0883,-558.0034 821.4735,-567.9624 828.4731,-568.043"/>
<text text-anchor="middle" x="853.2953" y="-579.8" font-family="Times,serif" font-size="14.00" fill="#0000ff">expression</text>
</g>
<!-- #24 CFG_F_END __main__ -->
<g id="node12" class="node">
<title>#24 CFG_F_END __main__</title>
<ellipse fill="none" stroke="#ff0000" cx="1081.2953" cy="-540" rx="113.18" ry="18"/>
<text text-anchor="middle" x="1081.2953" y="-536.3" font-family="Times,serif" font-size="14.00" fill="#ff0000">#24 CFG_F_END __main__</text>
</g>
<!-- #17 ExpressionStatement (23)&#45;&gt;#24 CFG_F_END __main__ -->
<g id="edge13" class="edge">
<title>#17 ExpressionStatement (23)&#45;&gt;#24 CFG_F_END __main__</title>
<path fill="none" stroke="#ff0000" d="M872.9371,-610.5337C915.6429,-596.0769 977.845,-575.0201 1023.1636,-559.6788"/>
<polygon fill="#ff0000" stroke="#ff0000" points="1024.5026,-562.9207 1032.8523,-556.399 1022.2581,-556.2903 1024.5026,-562.9207"/>
</g>
<!-- #23 CFG_F_START __main__ -->
<g id="node5" class="node">
<title>#23 CFG_F_START __main__</title>
<ellipse fill="none" stroke="#ff0000" cx="423.2953" cy="-909" rx="122.6784" ry="18"/>
<text text-anchor="middle" x="423.2953" y="-905.3" font-family="Times,serif" font-size="14.00" fill="#ff0000">#23 CFG_F_START __main__</text>
</g>
<!-- #23 CFG_F_START __main__&#45;&gt;#1 Variable (read) &#45; (23) -->
<g id="edge4" class="edge">
<title>#23 CFG_F_START __main__&#45;&gt;#1 Variable (read) &#45; (23)</title>
<path fill="none" stroke="#ff0000" d="M423.2953,-890.9735C423.2953,-879.1918 423.2953,-863.5607 423.2953,-850.1581"/>
<polygon fill="#ff0000" stroke="#ff0000" points="426.7954,-850.0033 423.2953,-840.0034 419.7954,-850.0034 426.7954,-850.0033"/>
</g>
<!-- #7 Variable (s) &#45; (25) -->
<g id="node7" class="node">
<title>#7 Variable (s) &#45; (25)</title>
<ellipse fill="none" stroke="#000000" cx="351.2953" cy="-453" rx="86.3847" ry="18"/>
<text text-anchor="middle" x="351.2953" y="-449.3" font-family="Times,serif" font-size="14.00" fill="#000000">#7 Variable (s) &#45; (25)</text>
</g>
<!-- #25 CFG_F_START 6_anon&#45;&gt;#7 Variable (s) &#45; (25) -->
<g id="edge5" class="edge">
<title>#25 CFG_F_START 6_anon&#45;&gt;#7 Variable (s) &#45; (25)</title>
<path fill="none" stroke="#ff0000" d="M351.2953,-521.9735C351.2953,-510.1918 351.2953,-494.5607 351.2953,-481.1581"/>
<polygon fill="#ff0000" stroke="#ff0000" points="354.7954,-481.0033 351.2953,-471.0034 347.7954,-481.0034 354.7954,-481.0033"/>
</g>
<!-- #8 CallExpression (25) -->
<g id="node13" class="node">
<title>#8 CallExpression (25)</title>
<ellipse fill="none" stroke="#000000" cx="351.2953" cy="-366" rx="92.8835" ry="18"/>
<text text-anchor="middle" x="351.2953" y="-362.3" font-family="Times,serif" font-size="14.00" fill="#000000">#8 CallExpression (25)</text>
</g>
<!-- #7 Variable (s) &#45; (25)&#45;&gt;#8 CallExpression (25) -->
<g id="edge14" class="edge">
<title>#7 Variable (s) &#45; (25)&#45;&gt;#8 CallExpression (25)</title>
<path fill="none" stroke="#0000ff" d="M351.2953,-434.9735C351.2953,-423.1918 351.2953,-407.5607 351.2953,-394.1581"/>
<polygon fill="#0000ff" stroke="#0000ff" points="354.7954,-394.0033 351.2953,-384.0034 347.7954,-394.0034 354.7954,-394.0033"/>
<text text-anchor="middle" x="360.7953" y="-405.8" font-family="Times,serif" font-size="14.00" fill="#0000ff">init</text>
</g>
<!-- #10 Variable (v1) &#45; (25) -->
<g id="node14" class="node">
<title>#10 Variable (v1) &#45; (25)</title>
<ellipse fill="none" stroke="#000000" cx="504.2953" cy="-279" rx="96.3833" ry="18"/>
<text text-anchor="middle" x="504.2953" y="-275.3" font-family="Times,serif" font-size="14.00" fill="#000000">#10 Variable (v1) &#45; (25)</text>
</g>
<!-- #7 Variable (s) &#45; (25)&#45;&gt;#10 Variable (v1) &#45; (25) -->
<g id="edge15" class="edge">
<title>#7 Variable (s) &#45; (25)&#45;&gt;#10 Variable (v1) &#45; (25)</title>
<path fill="none" stroke="#ff0000" d="M314.1979,-436.5494C276.7454,-417.4789 227.3392,-384.0241 249.2953,-348 265.9509,-320.6726 283.0313,-325.4062 313.2953,-315 324.0572,-311.2995 376.5169,-301.502 423.7389,-293.061"/>
<polygon fill="#ff0000" stroke="#ff0000" points="424.488,-296.4828 433.7191,-291.2831 423.2602,-289.5913 424.488,-296.4828"/>
</g>
<!-- #30 s&#45;o4 -->
<g id="node15" class="node">
<title>#30 s&#45;o4</title>
<ellipse fill="none" stroke="#006400" cx="504.2953" cy="-366" rx="41.6928" ry="18"/>
<text text-anchor="middle" x="504.2953" y="-362.3" font-family="Times,serif" font-size="14.00" fill="#006400">#30 s&#45;o4</text>
</g>
<!-- #7 Variable (s) &#45; (25)&#45;&gt;#30 s&#45;o4 -->
<g id="edge16" class="edge">
<title>#7 Variable (s) &#45; (25)&#45;&gt;#30 s&#45;o4</title>
<path fill="none" stroke="#006400" d="M381.1584,-436.019C406.6743,-421.5099 443.3837,-400.636 470.0782,-385.4568"/>
<polygon fill="#006400" stroke="#006400" points="472.1051,-388.3305 479.0679,-380.3449 468.645,-382.2455 472.1051,-388.3305"/>
<text text-anchor="middle" x="468.2953" y="-405.8" font-family="Times,serif" font-size="14.00" fill="#006400">CREATE s</text>
</g>
<!-- #3 Identifier (require) &#45; (23) -->
<g id="node16" class="node">
<title>#3 Identifier (require) &#45; (23)</title>
<ellipse fill="none" stroke="#000000" cx="160.2953" cy="-627" rx="110.4804" ry="18"/>
<text text-anchor="middle" x="160.2953" y="-623.3" font-family="Times,serif" font-size="14.00" fill="#000000">#3 Identifier (require) &#45; (23)</text>
</g>
<!-- #2 CallExpression (23)&#45;&gt;#3 Identifier (require) &#45; (23) -->
<g id="edge17" class="edge">
<title>#2 CallExpression (23)&#45;&gt;#3 Identifier (require) &#45; (23)</title>
<path fill="none" stroke="#0000ff" d="M321.0308,-717.8871C288.2545,-699.3539 235.8404,-669.7166 199.8304,-649.3549"/>
<polygon fill="#0000ff" stroke="#0000ff" points="201.4782,-646.2659 191.0507,-644.3905 198.0327,-652.3593 201.4782,-646.2659"/>
<text text-anchor="middle" x="300.2953" y="-677.3" font-family="Times,serif" font-size="14.00" fill="#0000ff">callee</text>
</g>
<!-- #4 Literal (23) -->
<g id="node17" class="node">
<title>#4 Literal (23)</title>
<ellipse fill="none" stroke="#000000" cx="351.2953" cy="-627" rx="62.2891" ry="18"/>
<text text-anchor="middle" x="351.2953" y="-623.3" font-family="Times,serif" font-size="14.00" fill="#000000">#4 Literal (23)</text>
</g>
<!-- #2 CallExpression (23)&#45;&gt;#4 Literal (23) -->
<g id="edge18" class="edge">
<title>#2 CallExpression (23)&#45;&gt;#4 Literal (23)</title>
<path fill="none" stroke="#0000ff" d="M351.2953,-716.6793C351.2953,-699.821 351.2953,-674.5651 351.2953,-655.147"/>
<polygon fill="#0000ff" stroke="#0000ff" points="354.7954,-655.0501 351.2953,-645.0502 347.7954,-655.0502 354.7954,-655.0501"/>
<text text-anchor="middle" x="365.2953" y="-677.3" font-family="Times,serif" font-size="14.00" fill="#0000ff">arg 1</text>
</g>
<!-- #27 read&#45;o1&#45;&gt;#7 Variable (s) &#45; (25) -->
<g id="edge19" class="edge">
<title>#27 read&#45;o1&#45;&gt;#7 Variable (s) &#45; (25)</title>
<path fill="none" stroke="#006400" d="M43.9596,-663.1254C37.315,-647.7065 31.1897,-625.3983 41.2953,-609 92.2681,-526.2861 202.0313,-485.8778 276.2923,-467.2976"/>
<polygon fill="#006400" stroke="#006400" points="277.1787,-470.6842 286.0716,-464.9251 275.5283,-463.8815 277.1787,-470.6842"/>
<text text-anchor="middle" x="103.7953" y="-579.8" font-family="Times,serif" font-size="14.00" fill="#006400">CALLEE read</text>
</g>
<!-- #6 Function (anon) &#45; (23)&#45;&gt;#25 CFG_F_START 6_anon -->
<g id="edge21" class="edge">
<title>#6 Function (anon) &#45; (23)&#45;&gt;#25 CFG_F_START 6_anon</title>
<path fill="none" stroke="#000000" d="M548.1113,-610.218C523.9863,-599.8523 492.0469,-586.5613 463.2953,-576 447.4187,-570.1681 430.0938,-564.3421 413.9189,-559.1285"/>
<polygon fill="#000000" stroke="#000000" points="414.6105,-555.6752 404.0196,-555.9668 412.4807,-562.3434 414.6105,-555.6752"/>
<text text-anchor="middle" x="510.2953" y="-579.8" font-family="Times,serif" font-size="14.00" fill="#000000">FD</text>
</g>
<!-- #16 BlockStatement (23) -->
<g id="node18" class="node">
<title>#16 BlockStatement (23)</title>
<ellipse fill="none" stroke="#000000" cx="582.2953" cy="-540" rx="100.1823" ry="18"/>
<text text-anchor="middle" x="582.2953" y="-536.3" font-family="Times,serif" font-size="14.00" fill="#000000">#16 BlockStatement (23)</text>
</g>
<!-- #6 Function (anon) &#45; (23)&#45;&gt;#16 BlockStatement (23) -->
<g id="edge20" class="edge">
<title>#6 Function (anon) &#45; (23)&#45;&gt;#16 BlockStatement (23)</title>
<path fill="none" stroke="#0000ff" d="M585.4665,-608.9735C584.9248,-597.1918 584.2061,-581.5607 583.5899,-568.1581"/>
<polygon fill="#0000ff" stroke="#0000ff" points="587.0787,-567.832 583.123,-558.0034 580.0861,-568.1536 587.0787,-567.832"/>
<text text-anchor="middle" x="599.7953" y="-579.8" font-family="Times,serif" font-size="14.00" fill="#0000ff">block</text>
</g>
<!-- #19 MemberExpression (23) -->
<g id="node19" class="node">
<title>#19 MemberExpression (23)</title>
<ellipse fill="none" stroke="#000000" cx="818.2953" cy="-453" rx="113.18" ry="18"/>
<text text-anchor="middle" x="818.2953" y="-449.3" font-family="Times,serif" font-size="14.00" fill="#000000">#19 MemberExpression (23)</text>
</g>
<!-- #18 AssignmentExpression (23)&#45;&gt;#19 MemberExpression (23) -->
<g id="edge22" class="edge">
<title>#18 AssignmentExpression (23)&#45;&gt;#19 MemberExpression (23)</title>
<path fill="none" stroke="#0000ff" d="M823.8449,-521.9735C822.8969,-510.1918 821.6392,-494.5607 820.5609,-481.1581"/>
<polygon fill="#0000ff" stroke="#0000ff" points="824.0346,-480.6904 819.7438,-471.0034 817.0572,-481.2519 824.0346,-480.6904"/>
<text text-anchor="middle" x="830.7953" y="-492.8" font-family="Times,serif" font-size="14.00" fill="#0000ff">left</text>
</g>
<!-- #22 Identifier (f) &#45; (23) -->
<g id="node20" class="node">
<title>#22 Identifier (f) &#45; (23)</title>
<ellipse fill="none" stroke="#000000" cx="1042.2953" cy="-453" rx="92.8835" ry="18"/>
<text text-anchor="middle" x="1042.2953" y="-449.3" font-family="Times,serif" font-size="14.00" fill="#000000">#22 Identifier (f) &#45; (23)</text>
</g>
<!-- #18 AssignmentExpression (23)&#45;&gt;#22 Identifier (f) &#45; (23) -->
<g id="edge23" class="edge">
<title>#18 AssignmentExpression (23)&#45;&gt;#22 Identifier (f) &#45; (23)</title>
<path fill="none" stroke="#0000ff" d="M867.6502,-523.019C903.3538,-508.7047 954.5098,-488.1951 992.2333,-473.0709"/>
<polygon fill="#0000ff" stroke="#0000ff" points="993.5377,-476.3189 1001.5171,-469.3489 990.9328,-469.8216 993.5377,-476.3189"/>
<text text-anchor="middle" x="959.2953" y="-492.8" font-family="Times,serif" font-size="14.00" fill="#0000ff">right</text>
</g>
<!-- #9 Identifier (read) &#45; (25) -->
<g id="node21" class="node">
<title>#9 Identifier (read) &#45; (25)</title>
<ellipse fill="none" stroke="#000000" cx="289.2953" cy="-279" rx="100.9827" ry="18"/>
<text text-anchor="middle" x="289.2953" y="-275.3" font-family="Times,serif" font-size="14.00" fill="#000000">#9 Identifier (read) &#45; (25)</text>
</g>
<!-- #8 CallExpression (25)&#45;&gt;#9 Identifier (read) &#45; (25) -->
<g id="edge24" class="edge">
<title>#8 CallExpression (25)&#45;&gt;#9 Identifier (read) &#45; (25)</title>
<path fill="none" stroke="#0000ff" d="M338.4488,-347.9735C329.637,-335.6085 317.8036,-319.0036 307.9556,-305.1847"/>
<polygon fill="#0000ff" stroke="#0000ff" points="310.7791,-303.1158 302.1253,-297.0034 305.0785,-307.1783 310.7791,-303.1158"/>
<text text-anchor="middle" x="340.2953" y="-318.8" font-family="Times,serif" font-size="14.00" fill="#0000ff">callee</text>
</g>
<!-- #11 CallExpression (25) -->
<g id="node22" class="node">
<title>#11 CallExpression (25)</title>
<ellipse fill="none" stroke="#000000" cx="360.2953" cy="-192" rx="96.6831" ry="18"/>
<text text-anchor="middle" x="360.2953" y="-188.3" font-family="Times,serif" font-size="14.00" fill="#000000">#11 CallExpression (25)</text>
</g>
<!-- #10 Variable (v1) &#45; (25)&#45;&gt;#11 CallExpression (25) -->
<g id="edge25" class="edge">
<title>#10 Variable (v1) &#45; (25)&#45;&gt;#11 CallExpression (25)</title>
<path fill="none" stroke="#0000ff" d="M475.5008,-261.6033C453.1326,-248.0892 421.9358,-229.2412 397.6467,-214.5665"/>
<polygon fill="#0000ff" stroke="#0000ff" points="399.4089,-211.542 389.0398,-209.3665 395.7891,-217.5334 399.4089,-211.542"/>
<text text-anchor="middle" x="450.7953" y="-231.8" font-family="Times,serif" font-size="14.00" fill="#0000ff">init</text>
</g>
<!-- #14 ReturnStatement (25) -->
<g id="node23" class="node">
<title>#14 ReturnStatement (25)</title>
<ellipse fill="none" stroke="#000000" cx="574.2953" cy="-105" rx="102.8821" ry="18"/>
<text text-anchor="middle" x="574.2953" y="-101.3" font-family="Times,serif" font-size="14.00" fill="#000000">#14 ReturnStatement (25)</text>
</g>
<!-- #10 Variable (v1) &#45; (25)&#45;&gt;#14 ReturnStatement (25) -->
<g id="edge26" class="edge">
<title>#10 Variable (v1) &#45; (25)&#45;&gt;#14 ReturnStatement (25)</title>
<path fill="none" stroke="#ff0000" d="M500.175,-260.7088C496.2126,-239.0761 492.4035,-202.4196 504.2953,-174 511.7287,-156.2352 526.2114,-140.7241 540.0838,-128.932"/>
<polygon fill="#ff0000" stroke="#ff0000" points="542.549,-131.4397 548.1232,-122.4298 538.147,-125.997 542.549,-131.4397"/>
</g>
<!-- #31 v1&#45;o5 -->
<g id="node24" class="node">
<title>#31 v1&#45;o5</title>
<ellipse fill="none" stroke="#006400" cx="560.2953" cy="-192" rx="46.5926" ry="18"/>
<text text-anchor="middle" x="560.2953" y="-188.3" font-family="Times,serif" font-size="14.00" fill="#006400">#31 v1&#45;o5</text>
</g>
<!-- #10 Variable (v1) &#45; (25)&#45;&gt;#31 v1&#45;o5 -->
<g id="edge27" class="edge">
<title>#10 Variable (v1) &#45; (25)&#45;&gt;#31 v1&#45;o5</title>
<path fill="none" stroke="#006400" d="M515.8985,-260.9735C523.8351,-248.6435 534.4854,-232.0975 543.3652,-218.3021"/>
<polygon fill="#006400" stroke="#006400" points="546.429,-220.0087 548.8985,-209.7057 540.543,-216.22 546.429,-220.0087"/>
<text text-anchor="middle" x="571.2953" y="-231.8" font-family="Times,serif" font-size="14.00" fill="#006400">CREATE v1</text>
</g>
<!-- #30 s&#45;o4&#45;&gt;#10 Variable (v1) &#45; (25) -->
<g id="edge28" class="edge">
<title>#30 s&#45;o4&#45;&gt;#10 Variable (v1) &#45; (25)</title>
<path fill="none" stroke="#006400" d="M504.2953,-347.9735C504.2953,-336.1918 504.2953,-320.5607 504.2953,-307.1581"/>
<polygon fill="#006400" stroke="#006400" points="507.7954,-307.0033 504.2953,-297.0034 500.7954,-307.0034 507.7954,-307.0033"/>
<text text-anchor="middle" x="523.2953" y="-318.8" font-family="Times,serif" font-size="14.00" fill="#006400">VAR s</text>
</g>
<!-- #16 BlockStatement (23)&#45;&gt;#7 Variable (s) &#45; (25) -->
<g id="edge29" class="edge">
<title>#16 BlockStatement (23)&#45;&gt;#7 Variable (s) &#45; (25)</title>
<path fill="none" stroke="#0000ff" d="M539.1169,-523.738C500.5519,-509.2135 443.9868,-487.9098 403.0175,-472.4798"/>
<polygon fill="#0000ff" stroke="#0000ff" points="404.074,-469.1378 393.4821,-468.8886 401.6068,-475.6886 404.074,-469.1378"/>
<text text-anchor="middle" x="484.7953" y="-492.8" font-family="Times,serif" font-size="14.00" fill="#0000ff">1</text>
</g>
<!-- #16 BlockStatement (23)&#45;&gt;#10 Variable (v1) &#45; (25) -->
<g id="edge30" class="edge">
<title>#16 BlockStatement (23)&#45;&gt;#10 Variable (v1) &#45; (25)</title>
<path fill="none" stroke="#0000ff" d="M583.9757,-521.7038C586.7868,-481.0803 588.4982,-381.689 546.2953,-315 543.7339,-310.9525 540.5764,-307.1157 537.1523,-303.5611"/>
<polygon fill="#0000ff" stroke="#0000ff" points="539.5329,-300.9953 529.8548,-296.6841 534.732,-306.0896 539.5329,-300.9953"/>
<text text-anchor="middle" x="582.7953" y="-405.8" font-family="Times,serif" font-size="14.00" fill="#0000ff">2</text>
</g>
<!-- #16 BlockStatement (23)&#45;&gt;#14 ReturnStatement (25) -->
<g id="edge31" class="edge">
<title>#16 BlockStatement (23)&#45;&gt;#14 ReturnStatement (25)</title>
<path fill="none" stroke="#0000ff" d="M601.1303,-522.2235C616.364,-505.8505 635.2953,-480.0599 635.2953,-453 635.2953,-453 635.2953,-453 635.2953,-192 635.2953,-167.963 630.9969,-160.7495 617.2953,-141 614.5273,-137.0102 611.2057,-133.2087 607.6513,-129.6734"/>
<polygon fill="#0000ff" stroke="#0000ff" points="609.8786,-126.9677 600.1312,-122.8157 605.1619,-132.14 609.8786,-126.9677"/>
<text text-anchor="middle" x="638.7953" y="-318.8" font-family="Times,serif" font-size="14.00" fill="#0000ff">3</text>
</g>
<!-- #20 Identifier (module) &#45; (23) -->
<g id="node25" class="node">
<title>#20 Identifier (module) &#45; (23)</title>
<ellipse fill="none" stroke="#000000" cx="805.2953" cy="-366" rx="116.1796" ry="18"/>
<text text-anchor="middle" x="805.2953" y="-362.3" font-family="Times,serif" font-size="14.00" fill="#000000">#20 Identifier (module) &#45; (23)</text>
</g>
<!-- #19 MemberExpression (23)&#45;&gt;#20 Identifier (module) &#45; (23) -->
<g id="edge32" class="edge">
<title>#19 MemberExpression (23)&#45;&gt;#20 Identifier (module) &#45; (23)</title>
<path fill="none" stroke="#0000ff" d="M815.6017,-434.9735C813.8412,-423.1918 811.5055,-407.5607 809.5028,-394.1581"/>
<polygon fill="#0000ff" stroke="#0000ff" points="812.9249,-393.3763 807.9854,-384.0034 806.0018,-394.4108 812.9249,-393.3763"/>
<text text-anchor="middle" x="829.2953" y="-405.8" font-family="Times,serif" font-size="14.00" fill="#0000ff">object</text>
</g>
<!-- #21 Identifier (exports) &#45; (23) -->
<g id="node26" class="node">
<title>#21 Identifier (exports) &#45; (23)</title>
<ellipse fill="none" stroke="#000000" cx="1055.2953" cy="-366" rx="115.8798" ry="18"/>
<text text-anchor="middle" x="1055.2953" y="-362.3" font-family="Times,serif" font-size="14.00" fill="#000000">#21 Identifier (exports) &#45; (23)</text>
</g>
<!-- #19 MemberExpression (23)&#45;&gt;#21 Identifier (exports) &#45; (23) -->
<g id="edge33" class="edge">
<title>#19 MemberExpression (23)&#45;&gt;#21 Identifier (exports) &#45; (23)</title>
<path fill="none" stroke="#0000ff" d="M863.431,-436.4312C902.4302,-422.115 958.9075,-401.3829 1000.493,-386.1173"/>
<polygon fill="#0000ff" stroke="#0000ff" points="1001.7432,-389.3868 1009.9246,-382.6551 999.3309,-382.8156 1001.7432,-389.3868"/>
<text text-anchor="middle" x="973.2953" y="-405.8" font-family="Times,serif" font-size="14.00" fill="#0000ff">property</text>
</g>
<!-- #12 Identifier (eval) &#45; (25) -->
<g id="node27" class="node">
<title>#12 Identifier (eval) &#45; (25)</title>
<ellipse fill="none" stroke="#000000" cx="144.2953" cy="-105" rx="104.7816" ry="18"/>
<text text-anchor="middle" x="144.2953" y="-101.3" font-family="Times,serif" font-size="14.00" fill="#000000">#12 Identifier (eval) &#45; (25)</text>
</g>
<!-- #11 CallExpression (25)&#45;&gt;#12 Identifier (eval) &#45; (25) -->
<g id="edge34" class="edge">
<title>#11 CallExpression (25)&#45;&gt;#12 Identifier (eval) &#45; (25)</title>
<path fill="none" stroke="#0000ff" d="M319.6673,-175.636C284.2922,-161.3877 232.8609,-140.6723 194.836,-125.3567"/>
<polygon fill="#0000ff" stroke="#0000ff" points="196.059,-122.0761 185.4754,-121.5865 193.4436,-128.5692 196.059,-122.0761"/>
<text text-anchor="middle" x="281.2953" y="-144.8" font-family="Times,serif" font-size="14.00" fill="#0000ff">callee</text>
</g>
<!-- #13 Identifier (s) &#45; (25) -->
<g id="node28" class="node">
<title>#13 Identifier (s) &#45; (25)</title>
<ellipse fill="none" stroke="#000000" cx="360.2953" cy="-105" rx="92.8835" ry="18"/>
<text text-anchor="middle" x="360.2953" y="-101.3" font-family="Times,serif" font-size="14.00" fill="#000000">#13 Identifier (s) &#45; (25)</text>
</g>
<!-- #11 CallExpression (25)&#45;&gt;#13 Identifier (s) &#45; (25) -->
<g id="edge35" class="edge">
<title>#11 CallExpression (25)&#45;&gt;#13 Identifier (s) &#45; (25)</title>
<path fill="none" stroke="#0000ff" d="M360.2953,-173.9735C360.2953,-162.1918 360.2953,-146.5607 360.2953,-133.1581"/>
<polygon fill="#0000ff" stroke="#0000ff" points="363.7954,-133.0033 360.2953,-123.0034 356.7954,-133.0034 363.7954,-133.0033"/>
<text text-anchor="middle" x="374.2953" y="-144.8" font-family="Times,serif" font-size="14.00" fill="#0000ff">arg 1</text>
</g>
<!-- #15 Identifier (v1) &#45; (25) -->
<g id="node29" class="node">
<title>#15 Identifier (v1) &#45; (25)</title>
<ellipse fill="none" stroke="#000000" cx="464.2953" cy="-18" rx="98.5829" ry="18"/>
<text text-anchor="middle" x="464.2953" y="-14.3" font-family="Times,serif" font-size="14.00" fill="#000000">#15 Identifier (v1) &#45; (25)</text>
</g>
<!-- #14 ReturnStatement (25)&#45;&gt;#15 Identifier (v1) &#45; (25) -->
<g id="edge36" class="edge">
<title>#14 ReturnStatement (25)&#45;&gt;#15 Identifier (v1) &#45; (25)</title>
<path fill="none" stroke="#0000ff" d="M552.0351,-87.3943C535.4853,-74.3048 512.7171,-56.2973 494.5218,-41.9064"/>
<polygon fill="#0000ff" stroke="#0000ff" points="496.5369,-39.0378 486.5223,-35.5796 492.1945,-44.5282 496.5369,-39.0378"/>
<text text-anchor="middle" x="552.2953" y="-57.8" font-family="Times,serif" font-size="14.00" fill="#0000ff">argument</text>
</g>
<!-- #26 CFG_F_END 6_anon -->
<g id="node30" class="node">
<title>#26 CFG_F_END 6_anon</title>
<ellipse fill="none" stroke="#ff0000" cx="684.2953" cy="-18" rx="103.1819" ry="18"/>
<text text-anchor="middle" x="684.2953" y="-14.3" font-family="Times,serif" font-size="14.00" fill="#ff0000">#26 CFG_F_END 6_anon</text>
</g>
<!-- #14 ReturnStatement (25)&#45;&gt;#26 CFG_F_END 6_anon -->
<g id="edge37" class="edge">
<title>#14 ReturnStatement (25)&#45;&gt;#26 CFG_F_END 6_anon</title>
<path fill="none" stroke="#ff0000" d="M596.5554,-87.3943C613.1053,-74.3048 635.8734,-56.2973 654.0688,-41.9064"/>
<polygon fill="#ff0000" stroke="#ff0000" points="656.3961,-44.5282 662.0682,-35.5796 652.0537,-39.0378 656.3961,-44.5282"/>
</g>
<!-- #31 v1&#45;o5&#45;&gt;#14 ReturnStatement (25) -->
<g id="edge38" class="edge">
<title>#31 v1&#45;o5&#45;&gt;#14 ReturnStatement (25)</title>
<path fill="none" stroke="#006400" d="M563.1961,-173.9735C565.092,-162.1918 567.6073,-146.5607 569.7641,-133.1581"/>
<polygon fill="#006400" stroke="#006400" points="573.2649,-133.4324 571.3982,-123.0034 566.3538,-132.3203 573.2649,-133.4324"/>
<text text-anchor="middle" x="590.2953" y="-144.8" font-family="Times,serif" font-size="14.00" fill="#006400">VAR v1</text>
</g>
</g>
</svg>
