<?xml version="1.0" encoding="UTF-8" standalone="no"?>
<!DOCTYPE svg PUBLIC "-//W3C//DTD SVG 1.1//EN"
 "http://www.w3.org/Graphics/SVG/1.1/DTD/svg11.dtd">
<!-- Generated by graphviz version 2.40.1 (20161225.0304)
 -->
<!-- Title: G Pages: 1 -->
<svg width="701pt" height="1001pt"
 viewBox="0.00 0.00 701.13 1001.00" xmlns="http://www.w3.org/2000/svg" xmlns:xlink="http://www.w3.org/1999/xlink">
<g id="graph0" class="graph" transform="scale(1 1) rotate(0) translate(4 997)">
<title>G</title>
<polygon fill="#ffffff" stroke="transparent" points="-4,4 -4,-997 697.1332,-997 697.1332,4 -4,4"/>
<!-- #0 Program -->
<g id="node1" class="node">
<title>#0 Program</title>
<ellipse fill="none" stroke="#000000" cx="304.09" cy="-975" rx="52.7911" ry="18"/>
<text text-anchor="middle" x="304.09" y="-971.3" font-family="Times,serif" font-size="14.00" fill="#000000">#0 Program</text>
</g>
<!-- #1 Variable (x) -->
<g id="node2" class="node">
<title>#1 Variable (x)</title>
<ellipse fill="none" stroke="#000000" cx="476.09" cy="-888" rx="64.9885" ry="18"/>
<text text-anchor="middle" x="476.09" y="-884.3" font-family="Times,serif" font-size="14.00" fill="#000000">#1 Variable (x)</text>
</g>
<!-- #0 Program&#45;&gt;#1 Variable (x) -->
<g id="edge1" class="edge">
<title>#0 Program&#45;&gt;#1 Variable (x)</title>
<path fill="none" stroke="#0000ff" d="M333.6578,-960.0442C361.7733,-945.823 404.2959,-924.3144 435.5623,-908.4995"/>
<polygon fill="#0000ff" stroke="#0000ff" points="437.5322,-911.4254 444.8759,-903.7885 434.3726,-905.179 437.5322,-911.4254"/>
<text text-anchor="middle" x="404.59" y="-927.8" font-family="Times,serif" font-size="14.00" fill="#0000ff">1</text>
</g>
<!-- #3 Variable (v1) -->
<g id="node3" class="node">
<title>#3 Variable (v1)</title>
<ellipse fill="none" stroke="#000000" cx="406.09" cy="-714" rx="69.5877" ry="18"/>
<text text-anchor="middle" x="406.09" y="-710.3" font-family="Times,serif" font-size="14.00" fill="#000000">#3 Variable (v1)</text>
</g>
<!-- #0 Program&#45;&gt;#3 Variable (v1) -->
<g id="edge2" class="edge">
<title>#0 Program&#45;&gt;#3 Variable (v1)</title>
<path fill="none" stroke="#0000ff" d="M311.1008,-957.0604C328.6064,-912.2667 374.3294,-795.2696 395.2984,-741.6137"/>
<polygon fill="#0000ff" stroke="#0000ff" points="398.6499,-742.6531 399.03,-732.0651 392.1301,-740.1051 398.6499,-742.6531"/>
<text text-anchor="middle" x="361.59" y="-840.8" font-family="Times,serif" font-size="14.00" fill="#0000ff">2</text>
</g>
<!-- #7 WhileStatement -->
<g id="node4" class="node">
<title>#7 WhileStatement</title>
<ellipse fill="none" stroke="#000000" cx="237.09" cy="-627" rx="79.0865" ry="18"/>
<text text-anchor="middle" x="237.09" y="-623.3" font-family="Times,serif" font-size="14.00" fill="#000000">#7 WhileStatement</text>
</g>
<!-- #0 Program&#45;&gt;#7 WhileStatement -->
<g id="edge3" class="edge">
<title>#0 Program&#45;&gt;#7 WhileStatement</title>
<path fill="none" stroke="#0000ff" d="M291.902,-957.2188C281.4581,-940.2283 268.09,-913.5001 268.09,-888 268.09,-888 268.09,-888 268.09,-714 268.09,-693.0902 260.0458,-670.9078 252.1529,-654.1752"/>
<polygon fill="#0000ff" stroke="#0000ff" points="255.1763,-652.3948 247.5852,-645.0039 248.9104,-655.5155 255.1763,-652.3948"/>
<text text-anchor="middle" x="271.59" y="-797.3" font-family="Times,serif" font-size="14.00" fill="#0000ff">3</text>
</g>
<!-- #1 Variable (x)&#45;&gt;#3 Variable (v1) -->
<g id="edge6" class="edge">
<title>#1 Variable (x)&#45;&gt;#3 Variable (v1)</title>
<path fill="none" stroke="#ff0000" d="M459.5038,-870.4107C448.0445,-857.2551 433.4191,-838.2816 425.09,-819 414.4691,-794.4132 409.7846,-764.1087 407.7188,-742.3862"/>
<polygon fill="#ff0000" stroke="#ff0000" points="411.1874,-741.8596 406.88,-732.18 404.2109,-742.4331 411.1874,-741.8596"/>
</g>
<!-- #2 Literal -->
<g id="node6" class="node">
<title>#2 Literal</title>
<ellipse fill="none" stroke="#000000" cx="582.09" cy="-801" rx="45.4919" ry="18"/>
<text text-anchor="middle" x="582.09" y="-797.3" font-family="Times,serif" font-size="14.00" fill="#000000">#2 Literal</text>
</g>
<!-- #1 Variable (x)&#45;&gt;#2 Literal -->
<g id="edge5" class="edge">
<title>#1 Variable (x)&#45;&gt;#2 Literal</title>
<path fill="none" stroke="#0000ff" d="M511.8655,-872.8143C522.8563,-867.1965 534.5568,-860.172 544.09,-852 552.3893,-844.8856 559.9526,-835.6467 566.1079,-826.9903"/>
<polygon fill="#0000ff" stroke="#0000ff" points="569.0611,-828.8714 571.7691,-818.6284 563.2646,-824.947 569.0611,-828.8714"/>
<text text-anchor="middle" x="566.59" y="-840.8" font-family="Times,serif" font-size="14.00" fill="#0000ff">init</text>
</g>
<!-- #24 x&#45;o1 -->
<g id="node7" class="node">
<title>#24 x&#45;o1</title>
<ellipse fill="none" stroke="#006400" cx="476.09" cy="-801" rx="42.4939" ry="18"/>
<text text-anchor="middle" x="476.09" y="-797.3" font-family="Times,serif" font-size="14.00" fill="#006400">#24 x&#45;o1</text>
</g>
<!-- #1 Variable (x)&#45;&gt;#24 x&#45;o1 -->
<g id="edge7" class="edge">
<title>#1 Variable (x)&#45;&gt;#24 x&#45;o1</title>
<path fill="none" stroke="#006400" d="M476.09,-869.9735C476.09,-858.1918 476.09,-842.5607 476.09,-829.1581"/>
<polygon fill="#006400" stroke="#006400" points="479.5901,-829.0033 476.09,-819.0034 472.5901,-829.0034 479.5901,-829.0033"/>
<text text-anchor="middle" x="508.09" y="-840.8" font-family="Times,serif" font-size="14.00" fill="#006400">CREATE x</text>
</g>
<!-- #3 Variable (v1)&#45;&gt;#7 WhileStatement -->
<g id="edge9" class="edge">
<title>#3 Variable (v1)&#45;&gt;#7 WhileStatement</title>
<path fill="none" stroke="#ff0000" d="M374.6984,-697.8399C347.5661,-683.8724 308.1488,-663.5806 278.4486,-648.2911"/>
<polygon fill="#ff0000" stroke="#ff0000" points="279.668,-644.9824 269.175,-643.5171 276.464,-651.2061 279.668,-644.9824"/>
</g>
<!-- #4 BinaryExpression (&lt;) -->
<g id="node8" class="node">
<title>#4 BinaryExpression (&lt;)</title>
<ellipse fill="none" stroke="#000000" cx="433.09" cy="-627" rx="98.5829" ry="18"/>
<text text-anchor="middle" x="433.09" y="-623.3" font-family="Times,serif" font-size="14.00" fill="#000000">#4 BinaryExpression (&lt;)</text>
</g>
<!-- #3 Variable (v1)&#45;&gt;#4 BinaryExpression (&lt;) -->
<g id="edge8" class="edge">
<title>#3 Variable (v1)&#45;&gt;#4 BinaryExpression (&lt;)</title>
<path fill="none" stroke="#0000ff" d="M411.6844,-695.9735C415.377,-684.0751 420.288,-668.2508 424.4746,-654.7606"/>
<polygon fill="#0000ff" stroke="#0000ff" points="427.8814,-655.5914 427.5027,-645.0034 421.1959,-653.5166 427.8814,-655.5914"/>
<text text-anchor="middle" x="431.59" y="-666.8" font-family="Times,serif" font-size="14.00" fill="#0000ff">init</text>
</g>
<!-- #8 Identifier (v1) -->
<g id="node9" class="node">
<title>#8 Identifier (v1)</title>
<ellipse fill="none" stroke="#000000" cx="83.09" cy="-540" rx="71.4873" ry="18"/>
<text text-anchor="middle" x="83.09" y="-536.3" font-family="Times,serif" font-size="14.00" fill="#000000">#8 Identifier (v1)</text>
</g>
<!-- #7 WhileStatement&#45;&gt;#8 Identifier (v1) -->
<g id="edge10" class="edge">
<title>#7 WhileStatement&#45;&gt;#8 Identifier (v1)</title>
<path fill="none" stroke="#0000ff" d="M188.0865,-612.826C172.1894,-607.1935 154.857,-599.9048 140.09,-591 128.2461,-583.8579 116.6044,-574.0852 106.9608,-565.0047"/>
<polygon fill="#0000ff" stroke="#0000ff" points="109.2989,-562.3964 99.6896,-557.9342 104.4189,-567.4149 109.2989,-562.3964"/>
<text text-anchor="middle" x="149.59" y="-579.8" font-family="Times,serif" font-size="14.00" fill="#0000ff">test</text>
</g>
<!-- #7 WhileStatement&#45;&gt;#8 Identifier (v1) -->
<g id="edge12" class="edge">
<title>#7 WhileStatement&#45;&gt;#8 Identifier (v1)</title>
<path fill="none" stroke="#ff0000" d="M212.6861,-609.8066C197.5717,-599.4722 177.5803,-586.3603 159.09,-576 149.2409,-570.4814 138.4074,-565.0121 128.083,-560.0657"/>
<polygon fill="#ff0000" stroke="#ff0000" points="129.3252,-556.7819 118.7874,-555.6837 126.3403,-563.1137 129.3252,-556.7819"/>
<text text-anchor="middle" x="193.59" y="-579.8" font-family="Times,serif" font-size="14.00" fill="#ff0000">test</text>
</g>
<!-- #20 BlockStatement -->
<g id="node10" class="node">
<title>#20 BlockStatement</title>
<ellipse fill="none" stroke="#000000" cx="256.09" cy="-540" rx="83.3857" ry="18"/>
<text text-anchor="middle" x="256.09" y="-536.3" font-family="Times,serif" font-size="14.00" fill="#000000">#20 BlockStatement</text>
</g>
<!-- #7 WhileStatement&#45;&gt;#20 BlockStatement -->
<g id="edge11" class="edge">
<title>#7 WhileStatement&#45;&gt;#20 BlockStatement</title>
<path fill="none" stroke="#0000ff" d="M241.0268,-608.9735C243.5998,-597.1918 247.0135,-581.5607 249.9405,-568.1581"/>
<polygon fill="#0000ff" stroke="#0000ff" points="253.4439,-568.5199 252.1582,-558.0034 246.6051,-567.0263 253.4439,-568.5199"/>
<text text-anchor="middle" x="262.09" y="-579.8" font-family="Times,serif" font-size="14.00" fill="#0000ff">body</text>
</g>
<!-- #21 CFG_F_START __main__ -->
<g id="node5" class="node">
<title>#21 CFG_F_START __main__</title>
<ellipse fill="none" stroke="#ff0000" cx="497.09" cy="-975" rx="122.6784" ry="18"/>
<text text-anchor="middle" x="497.09" y="-971.3" font-family="Times,serif" font-size="14.00" fill="#ff0000">#21 CFG_F_START __main__</text>
</g>
<!-- #21 CFG_F_START __main__&#45;&gt;#1 Variable (x) -->
<g id="edge4" class="edge">
<title>#21 CFG_F_START __main__&#45;&gt;#1 Variable (x)</title>
<path fill="none" stroke="#ff0000" d="M492.7388,-956.9735C489.8667,-945.0751 486.047,-929.2508 482.7908,-915.7606"/>
<polygon fill="#ff0000" stroke="#ff0000" points="486.1844,-914.9029 480.4356,-906.0034 479.3798,-916.5455 486.1844,-914.9029"/>
</g>
<!-- #24 x&#45;o1&#45;&gt;#3 Variable (v1) -->
<g id="edge13" class="edge">
<title>#24 x&#45;o1&#45;&gt;#3 Variable (v1)</title>
<path fill="none" stroke="#006400" d="M462.2602,-783.8116C452.1349,-771.2272 438.2231,-753.9369 426.778,-739.7122"/>
<polygon fill="#006400" stroke="#006400" points="429.3673,-737.3471 420.3716,-731.75 423.9135,-741.7353 429.3673,-737.3471"/>
<text text-anchor="middle" x="466.09" y="-753.8" font-family="Times,serif" font-size="14.00" fill="#006400">VAR x</text>
</g>
<!-- #14 ExpressionStatement -->
<g id="node11" class="node">
<title>#14 ExpressionStatement</title>
<ellipse fill="none" stroke="#000000" cx="555.09" cy="-279" rx="100.9827" ry="18"/>
<text text-anchor="middle" x="555.09" y="-275.3" font-family="Times,serif" font-size="14.00" fill="#000000">#14 ExpressionStatement</text>
</g>
<!-- #24 x&#45;o1&#45;&gt;#14 ExpressionStatement -->
<g id="edge14" class="edge">
<title>#24 x&#45;o1&#45;&gt;#14 ExpressionStatement</title>
<path fill="none" stroke="#006400" d="M505.9955,-788.1921C552.5555,-767.7953 637.09,-728.7339 637.09,-714 637.09,-714 637.09,-714 637.09,-366 637.09,-339.1837 616.204,-317.2755 595.5138,-302.1516"/>
<polygon fill="#006400" stroke="#006400" points="597.2456,-299.094 587.0281,-296.2916 593.2679,-304.8541 597.2456,-299.094"/>
<text text-anchor="middle" x="657.09" y="-536.3" font-family="Times,serif" font-size="14.00" fill="#006400">VAR x</text>
</g>
<!-- #5 Identifier (x) -->
<g id="node12" class="node">
<title>#5 Identifier (x)</title>
<ellipse fill="none" stroke="#000000" cx="425.09" cy="-540" rx="67.6881" ry="18"/>
<text text-anchor="middle" x="425.09" y="-536.3" font-family="Times,serif" font-size="14.00" fill="#000000">#5 Identifier (x)</text>
</g>
<!-- #4 BinaryExpression (&lt;)&#45;&gt;#5 Identifier (x) -->
<g id="edge15" class="edge">
<title>#4 BinaryExpression (&lt;)&#45;&gt;#5 Identifier (x)</title>
<path fill="none" stroke="#0000ff" d="M431.4324,-608.9735C430.349,-597.1918 428.9116,-581.5607 427.6792,-568.1581"/>
<polygon fill="#0000ff" stroke="#0000ff" points="431.1465,-567.6408 426.7454,-558.0034 424.1759,-568.2819 431.1465,-567.6408"/>
<text text-anchor="middle" x="439.59" y="-579.8" font-family="Times,serif" font-size="14.00" fill="#0000ff">left</text>
</g>
<!-- #6 Literal -->
<g id="node13" class="node">
<title>#6 Literal</title>
<ellipse fill="none" stroke="#000000" cx="556.09" cy="-540" rx="45.4919" ry="18"/>
<text text-anchor="middle" x="556.09" y="-536.3" font-family="Times,serif" font-size="14.00" fill="#000000">#6 Literal</text>
</g>
<!-- #4 BinaryExpression (&lt;)&#45;&gt;#6 Literal -->
<g id="edge16" class="edge">
<title>#4 BinaryExpression (&lt;)&#45;&gt;#6 Literal</title>
<path fill="none" stroke="#0000ff" d="M457.9809,-609.3943C477.477,-595.6043 504.6906,-576.3556 525.5122,-561.6282"/>
<polygon fill="#0000ff" stroke="#0000ff" points="527.5745,-564.4566 533.7175,-555.8244 523.5322,-558.7416 527.5745,-564.4566"/>
<text text-anchor="middle" x="514.09" y="-579.8" font-family="Times,serif" font-size="14.00" fill="#0000ff">right</text>
</g>
<!-- #9 Variable (v2) -->
<g id="node14" class="node">
<title>#9 Variable (v2)</title>
<ellipse fill="none" stroke="#000000" cx="218.09" cy="-453" rx="69.5877" ry="18"/>
<text text-anchor="middle" x="218.09" y="-449.3" font-family="Times,serif" font-size="14.00" fill="#000000">#9 Variable (v2)</text>
</g>
<!-- #8 Identifier (v1)&#45;&gt;#9 Variable (v2) -->
<g id="edge17" class="edge">
<title>#8 Identifier (v1)&#45;&gt;#9 Variable (v2)</title>
<path fill="none" stroke="#ff0000" d="M109.1193,-523.2255C130.3167,-509.565 160.4227,-490.1633 183.6208,-475.2135"/>
<polygon fill="#ff0000" stroke="#ff0000" points="185.6308,-478.082 192.1405,-469.723 181.8388,-472.198 185.6308,-478.082"/>
<text text-anchor="middle" x="177.09" y="-492.8" font-family="Times,serif" font-size="14.00" fill="#ff0000">TRUE</text>
</g>
<!-- #23 CFG_WHILE_END -->
<g id="node15" class="node">
<title>#23 CFG_WHILE_END</title>
<ellipse fill="none" stroke="#ff0000" cx="113.09" cy="-192" rx="98.5829" ry="18"/>
<text text-anchor="middle" x="113.09" y="-188.3" font-family="Times,serif" font-size="14.00" fill="#ff0000">#23 CFG_WHILE_END</text>
</g>
<!-- #8 Identifier (v1)&#45;&gt;#23 CFG_WHILE_END -->
<g id="edge18" class="edge">
<title>#8 Identifier (v1)&#45;&gt;#23 CFG_WHILE_END</title>
<path fill="none" stroke="#ff0000" d="M62.478,-522.5703C45.8072,-506.4252 25.09,-480.774 25.09,-453 25.09,-453 25.09,-453 25.09,-279 25.09,-251.1871 47.595,-229.2552 69.8432,-214.3691"/>
<polygon fill="#ff0000" stroke="#ff0000" points="71.7314,-217.3162 78.31,-209.0112 67.9882,-211.401 71.7314,-217.3162"/>
<text text-anchor="middle" x="46.09" y="-362.3" font-family="Times,serif" font-size="14.00" fill="#ff0000">FALSE</text>
</g>
<!-- #20 BlockStatement&#45;&gt;#14 ExpressionStatement -->
<g id="edge21" class="edge">
<title>#20 BlockStatement&#45;&gt;#14 ExpressionStatement</title>
<path fill="none" stroke="#0000ff" d="M307.3355,-525.7748C370.9455,-505.3386 477.8868,-461.3415 534.09,-384 550.317,-361.6698 554.785,-329.9193 555.6756,-307.1887"/>
<polygon fill="#0000ff" stroke="#0000ff" points="559.1759,-307.2043 555.8622,-297.1411 552.1771,-307.0744 559.1759,-307.2043"/>
<text text-anchor="middle" x="520.59" y="-405.8" font-family="Times,serif" font-size="14.00" fill="#0000ff">3</text>
</g>
<!-- #20 BlockStatement&#45;&gt;#9 Variable (v2) -->
<g id="edge19" class="edge">
<title>#20 BlockStatement&#45;&gt;#9 Variable (v2)</title>
<path fill="none" stroke="#0000ff" d="M248.2163,-521.9735C242.9684,-509.9585 235.9718,-493.9401 230.0423,-480.3646"/>
<polygon fill="#0000ff" stroke="#0000ff" points="233.1636,-478.7664 225.9535,-471.0034 226.7488,-481.5683 233.1636,-478.7664"/>
<text text-anchor="middle" x="243.59" y="-492.8" font-family="Times,serif" font-size="14.00" fill="#0000ff">1</text>
</g>
<!-- #12 ExpressionStatement -->
<g id="node16" class="node">
<title>#12 ExpressionStatement</title>
<ellipse fill="none" stroke="#000000" cx="424.09" cy="-366" rx="100.9827" ry="18"/>
<text text-anchor="middle" x="424.09" y="-362.3" font-family="Times,serif" font-size="14.00" fill="#000000">#12 ExpressionStatement</text>
</g>
<!-- #20 BlockStatement&#45;&gt;#12 ExpressionStatement -->
<g id="edge20" class="edge">
<title>#20 BlockStatement&#45;&gt;#12 ExpressionStatement</title>
<path fill="none" stroke="#0000ff" d="M273.1232,-522.3584C302.9813,-491.4339 364.8726,-427.3322 399.4174,-391.5537"/>
<polygon fill="#0000ff" stroke="#0000ff" points="402.3323,-393.5737 406.7603,-383.9485 397.2965,-388.7115 402.3323,-393.5737"/>
<text text-anchor="middle" x="360.59" y="-449.3" font-family="Times,serif" font-size="14.00" fill="#0000ff">2</text>
</g>
<!-- #14 ExpressionStatement&#45;&gt;#23 CFG_WHILE_END -->
<g id="edge23" class="edge">
<title>#14 ExpressionStatement&#45;&gt;#23 CFG_WHILE_END</title>
<path fill="none" stroke="#ff0000" d="M486.9961,-265.5969C406.948,-249.8408 274.4045,-223.752 190.5179,-207.2403"/>
<polygon fill="#ff0000" stroke="#ff0000" points="191.0236,-203.7728 180.5359,-205.2755 189.6716,-210.641 191.0236,-203.7728"/>
</g>
<!-- #15 AssignmentExpression -->
<g id="node17" class="node">
<title>#15 AssignmentExpression</title>
<ellipse fill="none" stroke="#000000" cx="555.09" cy="-192" rx="107.781" ry="18"/>
<text text-anchor="middle" x="555.09" y="-188.3" font-family="Times,serif" font-size="14.00" fill="#000000">#15 AssignmentExpression</text>
</g>
<!-- #14 ExpressionStatement&#45;&gt;#15 AssignmentExpression -->
<g id="edge22" class="edge">
<title>#14 ExpressionStatement&#45;&gt;#15 AssignmentExpression</title>
<path fill="none" stroke="#0000ff" d="M555.09,-260.9735C555.09,-249.1918 555.09,-233.5607 555.09,-220.1581"/>
<polygon fill="#0000ff" stroke="#0000ff" points="558.5901,-220.0033 555.09,-210.0034 551.5901,-220.0034 558.5901,-220.0033"/>
<text text-anchor="middle" x="584.09" y="-231.8" font-family="Times,serif" font-size="14.00" fill="#0000ff">expression</text>
</g>
<!-- #9 Variable (v2)&#45;&gt;#12 ExpressionStatement -->
<g id="edge25" class="edge">
<title>#9 Variable (v2)&#45;&gt;#12 ExpressionStatement</title>
<path fill="none" stroke="#ff0000" d="M254.4444,-437.6464C287.9499,-423.4961 337.9441,-402.382 374.9884,-386.7371"/>
<polygon fill="#ff0000" stroke="#ff0000" points="376.7378,-389.7977 384.5882,-382.6828 374.0143,-383.3492 376.7378,-389.7977"/>
</g>
<!-- #10 UpdateExpression (++) -->
<g id="node18" class="node">
<title>#10 UpdateExpression (++)</title>
<ellipse fill="none" stroke="#000000" cx="195.09" cy="-366" rx="109.6807" ry="18"/>
<text text-anchor="middle" x="195.09" y="-362.3" font-family="Times,serif" font-size="14.00" fill="#000000">#10 UpdateExpression (++)</text>
</g>
<!-- #9 Variable (v2)&#45;&gt;#10 UpdateExpression (++) -->
<g id="edge24" class="edge">
<title>#9 Variable (v2)&#45;&gt;#10 UpdateExpression (++)</title>
<path fill="none" stroke="#0000ff" d="M213.3244,-434.9735C210.1788,-423.0751 205.9953,-407.2508 202.429,-393.7606"/>
<polygon fill="#0000ff" stroke="#0000ff" points="205.7892,-392.7766 199.8495,-384.0034 199.0217,-394.5658 205.7892,-392.7766"/>
<text text-anchor="middle" x="217.59" y="-405.8" font-family="Times,serif" font-size="14.00" fill="#0000ff">init</text>
</g>
<!-- #22 CFG_F_END __main__ -->
<g id="node19" class="node">
<title>#22 CFG_F_END __main__</title>
<ellipse fill="none" stroke="#ff0000" cx="113.09" cy="-105" rx="113.18" ry="18"/>
<text text-anchor="middle" x="113.09" y="-101.3" font-family="Times,serif" font-size="14.00" fill="#ff0000">#22 CFG_F_END __main__</text>
</g>
<!-- #23 CFG_WHILE_END&#45;&gt;#22 CFG_F_END __main__ -->
<g id="edge26" class="edge">
<title>#23 CFG_WHILE_END&#45;&gt;#22 CFG_F_END __main__</title>
<path fill="none" stroke="#ff0000" d="M113.09,-173.9735C113.09,-162.1918 113.09,-146.5607 113.09,-133.1581"/>
<polygon fill="#ff0000" stroke="#ff0000" points="116.5901,-133.0033 113.09,-123.0034 109.5901,-133.0034 116.5901,-133.0033"/>
</g>
<!-- #12 ExpressionStatement&#45;&gt;#14 ExpressionStatement -->
<g id="edge28" class="edge">
<title>#12 ExpressionStatement&#45;&gt;#14 ExpressionStatement</title>
<path fill="none" stroke="#ff0000" d="M450.2849,-348.6033C470.3235,-335.2953 498.1504,-316.8148 520.0952,-302.2408"/>
<polygon fill="#ff0000" stroke="#ff0000" points="522.0974,-305.1127 528.4914,-296.6647 518.2248,-299.2815 522.0974,-305.1127"/>
</g>
<!-- #13 Identifier (v2) -->
<g id="node20" class="node">
<title>#13 Identifier (v2)</title>
<ellipse fill="none" stroke="#000000" cx="360.09" cy="-279" rx="76.0865" ry="18"/>
<text text-anchor="middle" x="360.09" y="-275.3" font-family="Times,serif" font-size="14.00" fill="#000000">#13 Identifier (v2)</text>
</g>
<!-- #12 ExpressionStatement&#45;&gt;#13 Identifier (v2) -->
<g id="edge27" class="edge">
<title>#12 ExpressionStatement&#45;&gt;#13 Identifier (v2)</title>
<path fill="none" stroke="#0000ff" d="M410.8291,-347.9735C401.733,-335.6085 389.5179,-319.0036 379.3523,-305.1847"/>
<polygon fill="#0000ff" stroke="#0000ff" points="382.0789,-302.9846 373.3338,-297.0034 376.4402,-307.1326 382.0789,-302.9846"/>
<text text-anchor="middle" x="425.09" y="-318.8" font-family="Times,serif" font-size="14.00" fill="#0000ff">expression</text>
</g>
<!-- #16 Identifier (v1) -->
<g id="node21" class="node">
<title>#16 Identifier (v1)</title>
<ellipse fill="none" stroke="#000000" cx="617.09" cy="-105" rx="76.0865" ry="18"/>
<text text-anchor="middle" x="617.09" y="-101.3" font-family="Times,serif" font-size="14.00" fill="#000000">#16 Identifier (v1)</text>
</g>
<!-- #15 AssignmentExpression&#45;&gt;#16 Identifier (v1) -->
<g id="edge29" class="edge">
<title>#15 AssignmentExpression&#45;&gt;#16 Identifier (v1)</title>
<path fill="none" stroke="#0000ff" d="M567.9364,-173.9735C576.7483,-161.6085 588.5817,-145.0036 598.4296,-131.1847"/>
<polygon fill="#0000ff" stroke="#0000ff" points="601.3067,-133.1783 604.26,-123.0034 595.6061,-129.1158 601.3067,-133.1783"/>
<text text-anchor="middle" x="598.59" y="-144.8" font-family="Times,serif" font-size="14.00" fill="#0000ff">left</text>
</g>
<!-- #17 BinaryExpression (&lt;) -->
<g id="node22" class="node">
<title>#17 BinaryExpression (&lt;)</title>
<ellipse fill="none" stroke="#000000" cx="420.09" cy="-105" rx="102.8821" ry="18"/>
<text text-anchor="middle" x="420.09" y="-101.3" font-family="Times,serif" font-size="14.00" fill="#000000">#17 BinaryExpression (&lt;)</text>
</g>
<!-- #15 AssignmentExpression&#45;&gt;#17 BinaryExpression (&lt;) -->
<g id="edge30" class="edge">
<title>#15 AssignmentExpression&#45;&gt;#17 BinaryExpression (&lt;)</title>
<path fill="none" stroke="#0000ff" d="M527.7707,-174.3943C507.0936,-161.069 478.5074,-142.6468 455.9846,-128.1321"/>
<polygon fill="#0000ff" stroke="#0000ff" points="457.6703,-125.0546 447.3686,-122.5796 453.8784,-130.9386 457.6703,-125.0546"/>
<text text-anchor="middle" x="509.09" y="-144.8" font-family="Times,serif" font-size="14.00" fill="#0000ff">right</text>
</g>
<!-- #11 Identifier (x) -->
<g id="node23" class="node">
<title>#11 Identifier (x)</title>
<ellipse fill="none" stroke="#000000" cx="194.09" cy="-279" rx="71.4873" ry="18"/>
<text text-anchor="middle" x="194.09" y="-275.3" font-family="Times,serif" font-size="14.00" fill="#000000">#11 Identifier (x)</text>
</g>
<!-- #10 UpdateExpression (++)&#45;&gt;#11 Identifier (x) -->
<g id="edge31" class="edge">
<title>#10 UpdateExpression (++)&#45;&gt;#11 Identifier (x)</title>
<path fill="none" stroke="#0000ff" d="M194.8828,-347.9735C194.7473,-336.1918 194.5677,-320.5607 194.4136,-307.1581"/>
<polygon fill="#0000ff" stroke="#0000ff" points="197.9117,-306.9624 194.2969,-297.0034 190.9122,-307.043 197.9117,-306.9624"/>
<text text-anchor="middle" x="221.09" y="-318.8" font-family="Times,serif" font-size="14.00" fill="#0000ff">argument</text>
</g>
<!-- #18 Identifier (x) -->
<g id="node24" class="node">
<title>#18 Identifier (x)</title>
<ellipse fill="none" stroke="#000000" cx="350.09" cy="-18" rx="71.4873" ry="18"/>
<text text-anchor="middle" x="350.09" y="-14.3" font-family="Times,serif" font-size="14.00" fill="#000000">#18 Identifier (x)</text>
</g>
<!-- #17 BinaryExpression (&lt;)&#45;&gt;#18 Identifier (x) -->
<g id="edge32" class="edge">
<title>#17 BinaryExpression (&lt;)&#45;&gt;#18 Identifier (x)</title>
<path fill="none" stroke="#0000ff" d="M405.5859,-86.9735C395.4762,-74.4087 381.844,-57.4657 370.6208,-43.5168"/>
<polygon fill="#0000ff" stroke="#0000ff" points="373.3317,-41.3028 364.3359,-35.7057 367.8778,-45.691 373.3317,-41.3028"/>
<text text-anchor="middle" x="399.59" y="-57.8" font-family="Times,serif" font-size="14.00" fill="#0000ff">left</text>
</g>
<!-- #19 Literal -->
<g id="node25" class="node">
<title>#19 Literal</title>
<ellipse fill="none" stroke="#000000" cx="490.09" cy="-18" rx="50.0912" ry="18"/>
<text text-anchor="middle" x="490.09" y="-14.3" font-family="Times,serif" font-size="14.00" fill="#000000">#19 Literal</text>
</g>
<!-- #17 BinaryExpression (&lt;)&#45;&gt;#19 Literal -->
<g id="edge33" class="edge">
<title>#17 BinaryExpression (&lt;)&#45;&gt;#19 Literal</title>
<path fill="none" stroke="#0000ff" d="M434.594,-86.9735C444.7706,-74.3254 458.5167,-57.2411 469.7818,-43.2401"/>
<polygon fill="#0000ff" stroke="#0000ff" points="472.5403,-45.395 476.0822,-35.4097 467.0864,-41.0068 472.5403,-45.395"/>
<text text-anchor="middle" x="473.09" y="-57.8" font-family="Times,serif" font-size="14.00" fill="#0000ff">right</text>
</g>
</g>
</svg>
