<?xml version="1.0" encoding="UTF-8" standalone="no"?>
<!DOCTYPE svg PUBLIC "-//W3C//DTD SVG 1.1//EN"
 "http://www.w3.org/Graphics/SVG/1.1/DTD/svg11.dtd">
<!-- Generated by graphviz version 2.40.1 (20161225.0304)
 -->
<!-- Title: G Pages: 1 -->
<svg width="1559pt" height="740pt"
 viewBox="0.00 0.00 1559.03 740.00" xmlns="http://www.w3.org/2000/svg" xmlns:xlink="http://www.w3.org/1999/xlink">
<g id="graph0" class="graph" transform="scale(1 1) rotate(0) translate(4 736)">
<title>G</title>
<polygon fill="#ffffff" stroke="transparent" points="-4,4 -4,-736 1555.0329,-736 1555.0329,4 -4,4"/>
<!-- #0 Program (0) -->
<g id="node1" class="node">
<title>#0 Program (0)</title>
<ellipse fill="none" stroke="#000000" cx="860.2416" cy="-714" rx="65.7887" ry="18"/>
<text text-anchor="middle" x="860.2416" y="-710.3" font-family="Times,serif" font-size="14.00" fill="#000000">#0 Program (0)</text>
</g>
<!-- #1 Variable (v1) &#45; (23) -->
<g id="node2" class="node">
<title>#1 Variable (v1) &#45; (23)</title>
<ellipse fill="none" stroke="#000000" cx="980.2416" cy="-627" rx="91.784" ry="18"/>
<text text-anchor="middle" x="980.2416" y="-623.3" font-family="Times,serif" font-size="14.00" fill="#000000">#1 Variable (v1) &#45; (23)</text>
</g>
<!-- #0 Program (0)&#45;&gt;#1 Variable (v1) &#45; (23) -->
<g id="edge1" class="edge">
<title>#0 Program (0)&#45;&gt;#1 Variable (v1) &#45; (23)</title>
<path fill="none" stroke="#0000ff" d="M883.6637,-697.019C901.9262,-683.7787 927.4998,-665.2379 947.7433,-650.5613"/>
<polygon fill="#0000ff" stroke="#0000ff" points="950.0143,-653.238 956.056,-644.5346 945.9055,-647.5707 950.0143,-653.238"/>
<text text-anchor="middle" x="931.7416" y="-666.8" font-family="Times,serif" font-size="14.00" fill="#0000ff">1</text>
</g>
<!-- #3 ExpressionStatement (23) -->
<g id="node3" class="node">
<title>#3 ExpressionStatement (23)</title>
<ellipse fill="none" stroke="#000000" cx="710.2416" cy="-540" rx="113.9803" ry="18"/>
<text text-anchor="middle" x="710.2416" y="-536.3" font-family="Times,serif" font-size="14.00" fill="#000000">#3 ExpressionStatement (23)</text>
</g>
<!-- #0 Program (0)&#45;&gt;#3 ExpressionStatement (23) -->
<g id="edge2" class="edge">
<title>#0 Program (0)&#45;&gt;#3 ExpressionStatement (23)</title>
<path fill="none" stroke="#0000ff" d="M845.0334,-696.3584C818.3743,-665.4339 763.1143,-601.3322 732.2707,-565.5537"/>
<polygon fill="#0000ff" stroke="#0000ff" points="734.8949,-563.2374 725.7145,-557.9485 729.593,-567.808 734.8949,-563.2374"/>
<text text-anchor="middle" x="803.7416" y="-623.3" font-family="Times,serif" font-size="14.00" fill="#0000ff">2</text>
</g>
<!-- #9 Variable (customer) &#45; (23) -->
<g id="node4" class="node">
<title>#9 Variable (customer) &#45; (23)</title>
<ellipse fill="none" stroke="#000000" cx="605.2416" cy="-453" rx="115.8798" ry="18"/>
<text text-anchor="middle" x="605.2416" y="-449.3" font-family="Times,serif" font-size="14.00" fill="#000000">#9 Variable (customer) &#45; (23)</text>
</g>
<!-- #0 Program (0)&#45;&gt;#9 Variable (customer) &#45; (23) -->
<g id="edge3" class="edge">
<title>#0 Program (0)&#45;&gt;#9 Variable (customer) &#45; (23)</title>
<path fill="none" stroke="#0000ff" d="M812.4297,-701.567C749.0919,-682.3468 639.3216,-638.8973 587.2416,-558 570.5981,-532.1471 573.6186,-518.5132 582.2416,-489 583.1282,-485.9655 584.3572,-482.9435 585.79,-480.0139"/>
<polygon fill="#0000ff" stroke="#0000ff" points="588.9777,-481.4894 590.8914,-471.0688 582.897,-478.0216 588.9777,-481.4894"/>
<text text-anchor="middle" x="617.7416" y="-579.8" font-family="Times,serif" font-size="14.00" fill="#0000ff">3</text>
</g>
<!-- #11 ExpressionStatement (23) -->
<g id="node5" class="node">
<title>#11 ExpressionStatement (23)</title>
<ellipse fill="none" stroke="#000000" cx="895.2416" cy="-366" rx="118.0794" ry="18"/>
<text text-anchor="middle" x="895.2416" y="-362.3" font-family="Times,serif" font-size="14.00" fill="#000000">#11 ExpressionStatement (23)</text>
</g>
<!-- #0 Program (0)&#45;&gt;#11 ExpressionStatement (23) -->
<g id="edge4" class="edge">
<title>#0 Program (0)&#45;&gt;#11 ExpressionStatement (23)</title>
<path fill="none" stroke="#0000ff" d="M860.2416,-695.6694C860.2416,-678.0629 860.2416,-650.7135 860.2416,-627 860.2416,-627 860.2416,-627 860.2416,-453 860.2416,-431.9052 869.2076,-409.877 878.0637,-393.2642"/>
<polygon fill="#0000ff" stroke="#0000ff" points="881.3358,-394.5868 883.1966,-384.1566 875.2376,-391.1499 881.3358,-394.5868"/>
<text text-anchor="middle" x="863.7416" y="-536.3" font-family="Times,serif" font-size="14.00" fill="#0000ff">4</text>
</g>
<!-- #17 ExpressionStatement (23) -->
<g id="node6" class="node">
<title>#17 ExpressionStatement (23)</title>
<ellipse fill="none" stroke="#000000" cx="895.2416" cy="-279" rx="118.0794" ry="18"/>
<text text-anchor="middle" x="895.2416" y="-275.3" font-family="Times,serif" font-size="14.00" fill="#000000">#17 ExpressionStatement (23)</text>
</g>
<!-- #0 Program (0)&#45;&gt;#17 ExpressionStatement (23) -->
<g id="edge5" class="edge">
<title>#0 Program (0)&#45;&gt;#17 ExpressionStatement (23)</title>
<path fill="none" stroke="#0000ff" d="M925.431,-711.811C1030.8921,-706.4745 1227.2416,-688.3067 1227.2416,-627 1227.2416,-627 1227.2416,-627 1227.2416,-366 1227.2416,-320.3209 1108.1508,-298.1507 1012.6213,-287.7148"/>
<polygon fill="#0000ff" stroke="#0000ff" points="1012.8871,-284.2235 1002.574,-286.6504 1012.1496,-291.1845 1012.8871,-284.2235"/>
<text text-anchor="middle" x="1230.7416" y="-492.8" font-family="Times,serif" font-size="14.00" fill="#0000ff">5</text>
</g>
<!-- #1 Variable (v1) &#45; (23)&#45;&gt;#3 ExpressionStatement (23) -->
<g id="edge8" class="edge">
<title>#1 Variable (v1) &#45; (23)&#45;&gt;#3 ExpressionStatement (23)</title>
<path fill="none" stroke="#ff0000" d="M932.2822,-611.5464C887.0574,-596.974 819.1142,-575.0811 770.3028,-559.353"/>
<polygon fill="#ff0000" stroke="#ff0000" points="771.092,-555.9302 760.5005,-556.1945 768.9451,-562.5929 771.092,-555.9302"/>
</g>
<!-- #2 ObjectExpression (23) -->
<g id="node8" class="node">
<title>#2 ObjectExpression (23)</title>
<ellipse fill="none" stroke="#000000" cx="1098.2416" cy="-540" rx="101.2821" ry="18"/>
<text text-anchor="middle" x="1098.2416" y="-536.3" font-family="Times,serif" font-size="14.00" fill="#000000">#2 ObjectExpression (23)</text>
</g>
<!-- #1 Variable (v1) &#45; (23)&#45;&gt;#2 ObjectExpression (23) -->
<g id="edge7" class="edge">
<title>#1 Variable (v1) &#45; (23)&#45;&gt;#2 ObjectExpression (23)</title>
<path fill="none" stroke="#0000ff" d="M1006.6383,-609.5902C1015.2107,-603.7987 1024.7092,-597.2339 1033.2416,-591 1044.9628,-582.4364 1057.575,-572.6732 1068.5418,-563.9973"/>
<polygon fill="#0000ff" stroke="#0000ff" points="1070.9199,-566.5779 1076.5655,-557.6125 1066.5613,-561.1004 1070.9199,-566.5779"/>
<text text-anchor="middle" x="1061.7416" y="-579.8" font-family="Times,serif" font-size="14.00" fill="#0000ff">init</text>
</g>
<!-- #25 v1&#45;o1 -->
<g id="node9" class="node">
<title>#25 v1&#45;o1</title>
<ellipse fill="none" stroke="#006400" cx="932.2416" cy="-540" rx="46.5926" ry="18"/>
<text text-anchor="middle" x="932.2416" y="-536.3" font-family="Times,serif" font-size="14.00" fill="#006400">#25 v1&#45;o1</text>
</g>
<!-- #1 Variable (v1) &#45; (23)&#45;&gt;#25 v1&#45;o1 -->
<g id="edge9" class="edge">
<title>#1 Variable (v1) &#45; (23)&#45;&gt;#25 v1&#45;o1</title>
<path fill="none" stroke="#006400" d="M970.296,-608.9735C963.558,-596.7609 954.5381,-580.4123 946.971,-566.697"/>
<polygon fill="#006400" stroke="#006400" points="949.9056,-564.7707 942.0103,-557.7057 943.7766,-568.1523 949.9056,-564.7707"/>
<text text-anchor="middle" x="994.2416" y="-579.8" font-family="Times,serif" font-size="14.00" fill="#006400">CREATE v1</text>
</g>
<!-- #3 ExpressionStatement (23)&#45;&gt;#9 Variable (customer) &#45; (23) -->
<g id="edge11" class="edge">
<title>#3 ExpressionStatement (23)&#45;&gt;#9 Variable (customer) &#45; (23)</title>
<path fill="none" stroke="#ff0000" d="M696.0525,-521.8073C687.4895,-511.493 675.9895,-498.743 664.2416,-489 658.6537,-484.3657 652.4118,-479.9112 646.137,-475.8103"/>
<polygon fill="#ff0000" stroke="#ff0000" points="647.9471,-472.8141 637.6185,-470.4538 644.2208,-478.7399 647.9471,-472.8141"/>
</g>
<!-- #4 AssignmentExpression (23) -->
<g id="node10" class="node">
<title>#4 AssignmentExpression (23)</title>
<ellipse fill="none" stroke="#000000" cx="261.2416" cy="-453" rx="120.4791" ry="18"/>
<text text-anchor="middle" x="261.2416" y="-449.3" font-family="Times,serif" font-size="14.00" fill="#000000">#4 AssignmentExpression (23)</text>
</g>
<!-- #3 ExpressionStatement (23)&#45;&gt;#4 AssignmentExpression (23) -->
<g id="edge10" class="edge">
<title>#3 ExpressionStatement (23)&#45;&gt;#4 AssignmentExpression (23)</title>
<path fill="none" stroke="#0000ff" d="M638.102,-526.0219C558.1822,-510.5364 429.4873,-485.5999 345.1299,-469.2545"/>
<polygon fill="#0000ff" stroke="#0000ff" points="345.5517,-465.7712 335.0685,-467.305 344.2201,-472.6434 345.5517,-465.7712"/>
<text text-anchor="middle" x="542.2416" y="-492.8" font-family="Times,serif" font-size="14.00" fill="#0000ff">expression</text>
</g>
<!-- #27 v1&#45;o2 -->
<g id="node11" class="node">
<title>#27 v1&#45;o2</title>
<ellipse fill="none" stroke="#006400" cx="785.2416" cy="-453" rx="46.5926" ry="18"/>
<text text-anchor="middle" x="785.2416" y="-449.3" font-family="Times,serif" font-size="14.00" fill="#006400">#27 v1&#45;o2</text>
</g>
<!-- #3 ExpressionStatement (23)&#45;&gt;#27 v1&#45;o2 -->
<g id="edge12" class="edge">
<title>#3 ExpressionStatement (23)&#45;&gt;#27 v1&#45;o2</title>
<path fill="none" stroke="#006400" d="M725.7817,-521.9735C736.757,-509.2422 751.6071,-492.0161 763.7208,-477.9642"/>
<polygon fill="#006400" stroke="#006400" points="766.6085,-479.9748 770.487,-470.1154 761.3066,-475.4042 766.6085,-479.9748"/>
<text text-anchor="middle" x="787.2416" y="-492.8" font-family="Times,serif" font-size="14.00" fill="#006400">WRITE first</text>
</g>
<!-- #9 Variable (customer) &#45; (23)&#45;&gt;#11 ExpressionStatement (23) -->
<g id="edge14" class="edge">
<title>#9 Variable (customer) &#45; (23)&#45;&gt;#11 ExpressionStatement (23)</title>
<path fill="none" stroke="#ff0000" d="M658.7701,-436.9415C707.6628,-422.2737 780.0077,-400.5702 831.7906,-385.0353"/>
<polygon fill="#ff0000" stroke="#ff0000" points="832.9622,-388.338 841.5347,-382.1121 830.9507,-381.6332 832.9622,-388.338"/>
</g>
<!-- #10 ObjectExpression (23) -->
<g id="node12" class="node">
<title>#10 ObjectExpression (23)</title>
<ellipse fill="none" stroke="#000000" cx="653.2416" cy="-366" rx="105.8812" ry="18"/>
<text text-anchor="middle" x="653.2416" y="-362.3" font-family="Times,serif" font-size="14.00" fill="#000000">#10 ObjectExpression (23)</text>
</g>
<!-- #9 Variable (customer) &#45; (23)&#45;&gt;#10 ObjectExpression (23) -->
<g id="edge13" class="edge">
<title>#9 Variable (customer) &#45; (23)&#45;&gt;#10 ObjectExpression (23)</title>
<path fill="none" stroke="#0000ff" d="M615.1873,-434.9735C621.8806,-422.8418 630.8258,-406.6287 638.3617,-392.9698"/>
<polygon fill="#0000ff" stroke="#0000ff" points="641.5425,-394.4499 643.3087,-384.0034 635.4134,-391.0684 641.5425,-394.4499"/>
<text text-anchor="middle" x="641.7416" y="-405.8" font-family="Times,serif" font-size="14.00" fill="#0000ff">init</text>
</g>
<!-- #28 customer&#45;o4 -->
<g id="node13" class="node">
<title>#28 customer&#45;o4</title>
<ellipse fill="none" stroke="#006400" cx="458.2416" cy="-366" rx="70.6878" ry="18"/>
<text text-anchor="middle" x="458.2416" y="-362.3" font-family="Times,serif" font-size="14.00" fill="#006400">#28 customer&#45;o4</text>
</g>
<!-- #9 Variable (customer) &#45; (23)&#45;&gt;#28 customer&#45;o4 -->
<g id="edge15" class="edge">
<title>#9 Variable (customer) &#45; (23)&#45;&gt;#28 customer&#45;o4</title>
<path fill="none" stroke="#006400" d="M556.2267,-436.6023C542.8144,-431.2109 528.5825,-424.6142 516.2416,-417 504.356,-409.6667 492.5409,-399.8583 482.7065,-390.8028"/>
<polygon fill="#006400" stroke="#006400" points="484.9459,-388.1031 475.2805,-383.7636 480.1302,-393.1834 484.9459,-388.1031"/>
<text text-anchor="middle" x="569.7416" y="-405.8" font-family="Times,serif" font-size="14.00" fill="#006400">CREATE customer</text>
</g>
<!-- #11 ExpressionStatement (23)&#45;&gt;#17 ExpressionStatement (23) -->
<g id="edge17" class="edge">
<title>#11 ExpressionStatement (23)&#45;&gt;#17 ExpressionStatement (23)</title>
<path fill="none" stroke="#ff0000" d="M895.2416,-347.9735C895.2416,-336.1918 895.2416,-320.5607 895.2416,-307.1581"/>
<polygon fill="#ff0000" stroke="#ff0000" points="898.7417,-307.0033 895.2416,-297.0034 891.7417,-307.0034 898.7417,-307.0033"/>
</g>
<!-- #12 AssignmentExpression (23) -->
<g id="node14" class="node">
<title>#12 AssignmentExpression (23)</title>
<ellipse fill="none" stroke="#000000" cx="1222.2416" cy="-279" rx="124.5782" ry="18"/>
<text text-anchor="middle" x="1222.2416" y="-275.3" font-family="Times,serif" font-size="14.00" fill="#000000">#12 AssignmentExpression (23)</text>
</g>
<!-- #11 ExpressionStatement (23)&#45;&gt;#12 AssignmentExpression (23) -->
<g id="edge16" class="edge">
<title>#11 ExpressionStatement (23)&#45;&gt;#12 AssignmentExpression (23)</title>
<path fill="none" stroke="#0000ff" d="M954.0803,-350.3457C1009.7902,-335.5238 1093.4677,-313.261 1152.506,-297.5535"/>
<polygon fill="#0000ff" stroke="#0000ff" points="1153.7308,-300.8495 1162.4947,-294.896 1151.931,-294.0848 1153.7308,-300.8495"/>
<text text-anchor="middle" x="1108.2416" y="-318.8" font-family="Times,serif" font-size="14.00" fill="#0000ff">expression</text>
</g>
<!-- #29 customer&#45;o5 -->
<g id="node15" class="node">
<title>#29 customer&#45;o5</title>
<ellipse fill="none" stroke="#006400" cx="508.2416" cy="-279" rx="70.6878" ry="18"/>
<text text-anchor="middle" x="508.2416" y="-275.3" font-family="Times,serif" font-size="14.00" fill="#006400">#29 customer&#45;o5</text>
</g>
<!-- #11 ExpressionStatement (23)&#45;&gt;#29 customer&#45;o5 -->
<g id="edge18" class="edge">
<title>#11 ExpressionStatement (23)&#45;&gt;#29 customer&#45;o5</title>
<path fill="none" stroke="#006400" d="M828.714,-351.0442C756.6206,-334.8371 642.4259,-309.1655 571.5971,-293.2427"/>
<polygon fill="#006400" stroke="#006400" points="571.996,-289.7451 561.4718,-290.9665 570.4606,-296.5746 571.996,-289.7451"/>
<text text-anchor="middle" x="764.2416" y="-318.8" font-family="Times,serif" font-size="14.00" fill="#006400">WRITE name</text>
</g>
<!-- #18 AssignmentExpression (23) -->
<g id="node16" class="node">
<title>#18 AssignmentExpression (23)</title>
<ellipse fill="none" stroke="#000000" cx="722.2416" cy="-192" rx="124.5782" ry="18"/>
<text text-anchor="middle" x="722.2416" y="-188.3" font-family="Times,serif" font-size="14.00" fill="#000000">#18 AssignmentExpression (23)</text>
</g>
<!-- #17 ExpressionStatement (23)&#45;&gt;#18 AssignmentExpression (23) -->
<g id="edge19" class="edge">
<title>#17 ExpressionStatement (23)&#45;&gt;#18 AssignmentExpression (23)</title>
<path fill="none" stroke="#0000ff" d="M860.6483,-261.6033C833.4217,-247.9114 795.3077,-228.7442 765.9678,-213.9894"/>
<polygon fill="#0000ff" stroke="#0000ff" points="767.2814,-210.7325 756.775,-209.3665 764.1365,-216.9862 767.2814,-210.7325"/>
<text text-anchor="middle" x="848.2416" y="-231.8" font-family="Times,serif" font-size="14.00" fill="#0000ff">expression</text>
</g>
<!-- #24 CFG_F_END __main__ -->
<g id="node17" class="node">
<title>#24 CFG_F_END __main__</title>
<ellipse fill="none" stroke="#ff0000" cx="978.2416" cy="-192" rx="113.18" ry="18"/>
<text text-anchor="middle" x="978.2416" y="-188.3" font-family="Times,serif" font-size="14.00" fill="#ff0000">#24 CFG_F_END __main__</text>
</g>
<!-- #17 ExpressionStatement (23)&#45;&gt;#24 CFG_F_END __main__ -->
<g id="edge20" class="edge">
<title>#17 ExpressionStatement (23)&#45;&gt;#24 CFG_F_END __main__</title>
<path fill="none" stroke="#ff0000" d="M912.4393,-260.9735C924.4584,-248.3752 940.6765,-231.3755 954.0042,-217.4055"/>
<polygon fill="#ff0000" stroke="#ff0000" points="956.6956,-219.6548 961.066,-210.0034 951.6308,-214.8228 956.6956,-219.6548"/>
</g>
<!-- #31 customer&#45;o6 -->
<g id="node18" class="node">
<title>#31 customer&#45;o6</title>
<ellipse fill="none" stroke="#006400" cx="508.2416" cy="-192" rx="70.6878" ry="18"/>
<text text-anchor="middle" x="508.2416" y="-188.3" font-family="Times,serif" font-size="14.00" fill="#006400">#31 customer&#45;o6</text>
</g>
<!-- #17 ExpressionStatement (23)&#45;&gt;#31 customer&#45;o6 -->
<g id="edge21" class="edge">
<title>#17 ExpressionStatement (23)&#45;&gt;#31 customer&#45;o6</title>
<path fill="none" stroke="#006400" d="M825.2833,-264.4242C794.8272,-257.9943 758.7386,-250.2617 726.2416,-243 673.4532,-231.204 613.6379,-217.1622 570.0339,-206.8019"/>
<polygon fill="#006400" stroke="#006400" points="570.689,-203.3602 560.1505,-204.4507 569.0689,-210.1701 570.689,-203.3602"/>
<text text-anchor="middle" x="760.7416" y="-231.8" font-family="Times,serif" font-size="14.00" fill="#006400">WRITE role</text>
</g>
<!-- #23 CFG_F_START __main__ -->
<g id="node7" class="node">
<title>#23 CFG_F_START __main__</title>
<ellipse fill="none" stroke="#ff0000" cx="1252.2416" cy="-714" rx="122.6784" ry="18"/>
<text text-anchor="middle" x="1252.2416" y="-710.3" font-family="Times,serif" font-size="14.00" fill="#ff0000">#23 CFG_F_START __main__</text>
</g>
<!-- #23 CFG_F_START __main__&#45;&gt;#1 Variable (v1) &#45; (23) -->
<g id="edge6" class="edge">
<title>#23 CFG_F_START __main__&#45;&gt;#1 Variable (v1) &#45; (23)</title>
<path fill="none" stroke="#ff0000" d="M1200.7607,-697.5337C1154.3644,-682.6937 1086.2251,-660.8991 1037.9903,-645.4711"/>
<polygon fill="#ff0000" stroke="#ff0000" points="1038.9091,-642.0903 1028.3181,-642.3774 1036.7765,-648.7576 1038.9091,-642.0903"/>
</g>
<!-- #25 v1&#45;o1&#45;&gt;#11 ExpressionStatement (23) -->
<g id="edge23" class="edge">
<title>#25 v1&#45;o1&#45;&gt;#11 ExpressionStatement (23)</title>
<path fill="none" stroke="#006400" d="M967.532,-527.9897C978.3605,-522.4558 989.0452,-514.6776 995.2416,-504 998.5878,-498.2339 997.4731,-495.2821 995.2416,-489 981.1938,-449.4524 948.3978,-413.375 924.1746,-390.6668"/>
<polygon fill="#006400" stroke="#006400" points="926.3856,-387.9458 916.6457,-383.7763 921.6596,-393.1096 926.3856,-387.9458"/>
<text text-anchor="middle" x="1010.2416" y="-449.3" font-family="Times,serif" font-size="14.00" fill="#006400">VAR v1</text>
</g>
<!-- #25 v1&#45;o1&#45;&gt;#27 v1&#45;o2 -->
<g id="edge22" class="edge">
<title>#25 v1&#45;o1&#45;&gt;#27 v1&#45;o2</title>
<path fill="none" stroke="#006400" d="M906.6362,-524.8458C882.5434,-510.5867 846.2897,-489.1305 819.6726,-473.3775"/>
<polygon fill="#006400" stroke="#006400" points="821.4353,-470.3537 811.0469,-468.2725 817.87,-476.3778 821.4353,-470.3537"/>
<text text-anchor="middle" x="929.7416" y="-492.8" font-family="Times,serif" font-size="14.00" fill="#006400">NEW_VERSION first</text>
</g>
<!-- #5 MemberExpression (23) -->
<g id="node19" class="node">
<title>#5 MemberExpression (23)</title>
<ellipse fill="none" stroke="#000000" cx="261.2416" cy="-366" rx="108.5808" ry="18"/>
<text text-anchor="middle" x="261.2416" y="-362.3" font-family="Times,serif" font-size="14.00" fill="#000000">#5 MemberExpression (23)</text>
</g>
<!-- #4 AssignmentExpression (23)&#45;&gt;#5 MemberExpression (23) -->
<g id="edge24" class="edge">
<title>#4 AssignmentExpression (23)&#45;&gt;#5 MemberExpression (23)</title>
<path fill="none" stroke="#0000ff" d="M261.2416,-434.9735C261.2416,-423.1918 261.2416,-407.5607 261.2416,-394.1581"/>
<polygon fill="#0000ff" stroke="#0000ff" points="264.7417,-394.0033 261.2416,-384.0034 257.7417,-394.0034 264.7417,-394.0033"/>
<text text-anchor="middle" x="270.7416" y="-405.8" font-family="Times,serif" font-size="14.00" fill="#0000ff">left</text>
</g>
<!-- #8 Literal (23) -->
<g id="node20" class="node">
<title>#8 Literal (23)</title>
<ellipse fill="none" stroke="#000000" cx="72.2416" cy="-366" rx="62.2891" ry="18"/>
<text text-anchor="middle" x="72.2416" y="-362.3" font-family="Times,serif" font-size="14.00" fill="#000000">#8 Literal (23)</text>
</g>
<!-- #4 AssignmentExpression (23)&#45;&gt;#8 Literal (23) -->
<g id="edge25" class="edge">
<title>#4 AssignmentExpression (23)&#45;&gt;#8 Literal (23)</title>
<path fill="none" stroke="#0000ff" d="M223.9013,-435.8116C192.4711,-421.3437 147.5282,-400.6557 114.7281,-385.5573"/>
<polygon fill="#0000ff" stroke="#0000ff" points="115.9418,-382.263 105.3944,-381.2608 113.0147,-388.6216 115.9418,-382.263"/>
<text text-anchor="middle" x="191.2416" y="-405.8" font-family="Times,serif" font-size="14.00" fill="#0000ff">right</text>
</g>
<!-- #27 v1&#45;o2&#45;&gt;#11 ExpressionStatement (23) -->
<g id="edge26" class="edge">
<title>#27 v1&#45;o2&#45;&gt;#11 ExpressionStatement (23)</title>
<path fill="none" stroke="#006400" d="M786.5622,-434.9847C788.2323,-424.2162 791.9616,-410.9361 800.2416,-402 806.2514,-395.5141 813.5506,-390.1878 821.4038,-385.8158"/>
<polygon fill="#006400" stroke="#006400" points="823.0943,-388.8836 830.4664,-381.2742 819.9581,-382.6255 823.0943,-388.8836"/>
<text text-anchor="middle" x="823.2416" y="-405.8" font-family="Times,serif" font-size="14.00" fill="#006400">VAR v1</text>
</g>
<!-- #28 customer&#45;o4&#45;&gt;#29 customer&#45;o5 -->
<g id="edge27" class="edge">
<title>#28 customer&#45;o4&#45;&gt;#29 customer&#45;o5</title>
<path fill="none" stroke="#006400" d="M468.6017,-347.9735C475.5739,-335.8418 484.8918,-319.6287 492.7417,-305.9698"/>
<polygon fill="#006400" stroke="#006400" points="495.9465,-307.4175 497.8949,-297.0034 489.8774,-303.9295 495.9465,-307.4175"/>
<text text-anchor="middle" x="551.7416" y="-318.8" font-family="Times,serif" font-size="14.00" fill="#006400">NEW_VERSION name</text>
</g>
<!-- #13 MemberExpression (23) -->
<g id="node21" class="node">
<title>#13 MemberExpression (23)</title>
<ellipse fill="none" stroke="#000000" cx="1222.2416" cy="-192" rx="113.18" ry="18"/>
<text text-anchor="middle" x="1222.2416" y="-188.3" font-family="Times,serif" font-size="14.00" fill="#000000">#13 MemberExpression (23)</text>
</g>
<!-- #12 AssignmentExpression (23)&#45;&gt;#13 MemberExpression (23) -->
<g id="edge28" class="edge">
<title>#12 AssignmentExpression (23)&#45;&gt;#13 MemberExpression (23)</title>
<path fill="none" stroke="#0000ff" d="M1222.2416,-260.9735C1222.2416,-249.1918 1222.2416,-233.5607 1222.2416,-220.1581"/>
<polygon fill="#0000ff" stroke="#0000ff" points="1225.7417,-220.0033 1222.2416,-210.0034 1218.7417,-220.0034 1225.7417,-220.0033"/>
<text text-anchor="middle" x="1231.7416" y="-231.8" font-family="Times,serif" font-size="14.00" fill="#0000ff">left</text>
</g>
<!-- #16 Identifier (v1) &#45; (23) -->
<g id="node22" class="node">
<title>#16 Identifier (v1) &#45; (23)</title>
<ellipse fill="none" stroke="#000000" cx="1452.2416" cy="-192" rx="98.5829" ry="18"/>
<text text-anchor="middle" x="1452.2416" y="-188.3" font-family="Times,serif" font-size="14.00" fill="#000000">#16 Identifier (v1) &#45; (23)</text>
</g>
<!-- #12 AssignmentExpression (23)&#45;&gt;#16 Identifier (v1) &#45; (23) -->
<g id="edge29" class="edge">
<title>#12 AssignmentExpression (23)&#45;&gt;#16 Identifier (v1) &#45; (23)</title>
<path fill="none" stroke="#0000ff" d="M1266.8607,-262.1224C1304.9567,-247.7121 1359.7958,-226.9687 1399.9463,-211.7813"/>
<polygon fill="#0000ff" stroke="#0000ff" points="1401.1884,-215.0535 1409.3034,-208.2419 1398.7118,-208.5063 1401.1884,-215.0535"/>
<text text-anchor="middle" x="1363.2416" y="-231.8" font-family="Times,serif" font-size="14.00" fill="#0000ff">right</text>
</g>
<!-- #29 customer&#45;o5&#45;&gt;#31 customer&#45;o6 -->
<g id="edge30" class="edge">
<title>#29 customer&#45;o5&#45;&gt;#31 customer&#45;o6</title>
<path fill="none" stroke="#006400" d="M508.2416,-260.9735C508.2416,-249.1918 508.2416,-233.5607 508.2416,-220.1581"/>
<polygon fill="#006400" stroke="#006400" points="511.7417,-220.0033 508.2416,-210.0034 504.7417,-220.0034 511.7417,-220.0033"/>
<text text-anchor="middle" x="569.2416" y="-231.8" font-family="Times,serif" font-size="14.00" fill="#006400">NEW_VERSION role</text>
</g>
<!-- #19 MemberExpression (23) -->
<g id="node23" class="node">
<title>#19 MemberExpression (23)</title>
<ellipse fill="none" stroke="#000000" cx="606.2416" cy="-105" rx="113.18" ry="18"/>
<text text-anchor="middle" x="606.2416" y="-101.3" font-family="Times,serif" font-size="14.00" fill="#000000">#19 MemberExpression (23)</text>
</g>
<!-- #18 AssignmentExpression (23)&#45;&gt;#19 MemberExpression (23) -->
<g id="edge31" class="edge">
<title>#18 AssignmentExpression (23)&#45;&gt;#19 MemberExpression (23)</title>
<path fill="none" stroke="#0000ff" d="M698.4874,-174.1843C681.0501,-161.1063 657.1788,-143.2029 638.0887,-128.8853"/>
<polygon fill="#0000ff" stroke="#0000ff" points="640.0642,-125.9919 629.9641,-122.7919 635.8641,-131.5919 640.0642,-125.9919"/>
<text text-anchor="middle" x="680.7416" y="-144.8" font-family="Times,serif" font-size="14.00" fill="#0000ff">left</text>
</g>
<!-- #22 Literal (23) -->
<g id="node24" class="node">
<title>#22 Literal (23)</title>
<ellipse fill="none" stroke="#000000" cx="804.2416" cy="-105" rx="66.8882" ry="18"/>
<text text-anchor="middle" x="804.2416" y="-101.3" font-family="Times,serif" font-size="14.00" fill="#000000">#22 Literal (23)</text>
</g>
<!-- #18 AssignmentExpression (23)&#45;&gt;#22 Literal (23) -->
<g id="edge32" class="edge">
<title>#18 AssignmentExpression (23)&#45;&gt;#22 Literal (23)</title>
<path fill="none" stroke="#0000ff" d="M739.2321,-173.9735C751.1855,-161.2912 767.3429,-144.1486 780.5591,-130.1265"/>
<polygon fill="#0000ff" stroke="#0000ff" points="783.2416,-132.3834 787.5535,-122.7057 778.1476,-127.5822 783.2416,-132.3834"/>
<text text-anchor="middle" x="781.2416" y="-144.8" font-family="Times,serif" font-size="14.00" fill="#0000ff">right</text>
</g>
<!-- #6 Identifier (v1) &#45; (23) -->
<g id="node25" class="node">
<title>#6 Identifier (v1) &#45; (23)</title>
<ellipse fill="none" stroke="#000000" cx="94.2416" cy="-279" rx="94.4839" ry="18"/>
<text text-anchor="middle" x="94.2416" y="-275.3" font-family="Times,serif" font-size="14.00" fill="#000000">#6 Identifier (v1) &#45; (23)</text>
</g>
<!-- #5 MemberExpression (23)&#45;&gt;#6 Identifier (v1) &#45; (23) -->
<g id="edge33" class="edge">
<title>#5 MemberExpression (23)&#45;&gt;#6 Identifier (v1) &#45; (23)</title>
<path fill="none" stroke="#0000ff" d="M228.2478,-348.8116C201.7438,-335.0041 164.3651,-315.5314 135.8163,-300.6586"/>
<polygon fill="#0000ff" stroke="#0000ff" points="137.3682,-297.5207 126.8824,-296.0045 134.134,-303.7288 137.3682,-297.5207"/>
<text text-anchor="middle" x="205.2416" y="-318.8" font-family="Times,serif" font-size="14.00" fill="#0000ff">object</text>
</g>
<!-- #7 Identifier (first) &#45; (23) -->
<g id="node26" class="node">
<title>#7 Identifier (first) &#45; (23)</title>
<ellipse fill="none" stroke="#000000" cx="306.2416" cy="-279" rx="99.3824" ry="18"/>
<text text-anchor="middle" x="306.2416" y="-275.3" font-family="Times,serif" font-size="14.00" fill="#000000">#7 Identifier (first) &#45; (23)</text>
</g>
<!-- #5 MemberExpression (23)&#45;&gt;#7 Identifier (first) &#45; (23) -->
<g id="edge34" class="edge">
<title>#5 MemberExpression (23)&#45;&gt;#7 Identifier (first) &#45; (23)</title>
<path fill="none" stroke="#0000ff" d="M270.5657,-347.9735C276.8407,-335.8418 285.2268,-319.6287 292.2917,-305.9698"/>
<polygon fill="#0000ff" stroke="#0000ff" points="295.444,-307.4935 296.9296,-297.0034 289.2265,-304.2776 295.444,-307.4935"/>
<text text-anchor="middle" x="310.2416" y="-318.8" font-family="Times,serif" font-size="14.00" fill="#0000ff">property</text>
</g>
<!-- #14 Identifier (customer) &#45; (23) -->
<g id="node27" class="node">
<title>#14 Identifier (customer) &#45; (23)</title>
<ellipse fill="none" stroke="#000000" cx="1012.2416" cy="-105" rx="122.3786" ry="18"/>
<text text-anchor="middle" x="1012.2416" y="-101.3" font-family="Times,serif" font-size="14.00" fill="#000000">#14 Identifier (customer) &#45; (23)</text>
</g>
<!-- #13 MemberExpression (23)&#45;&gt;#14 Identifier (customer) &#45; (23) -->
<g id="edge35" class="edge">
<title>#13 MemberExpression (23)&#45;&gt;#14 Identifier (customer) &#45; (23)</title>
<path fill="none" stroke="#0000ff" d="M1181.5025,-175.1224C1147.5602,-161.0605 1099.061,-140.968 1062.6717,-125.8924"/>
<polygon fill="#0000ff" stroke="#0000ff" points="1063.8036,-122.573 1053.2254,-121.979 1061.1243,-129.0399 1063.8036,-122.573"/>
<text text-anchor="middle" x="1147.2416" y="-144.8" font-family="Times,serif" font-size="14.00" fill="#0000ff">object</text>
</g>
<!-- #15 Identifier (name) &#45; (23) -->
<g id="node28" class="node">
<title>#15 Identifier (name) &#45; (23)</title>
<ellipse fill="none" stroke="#000000" cx="1261.2416" cy="-105" rx="109.381" ry="18"/>
<text text-anchor="middle" x="1261.2416" y="-101.3" font-family="Times,serif" font-size="14.00" fill="#000000">#15 Identifier (name) &#45; (23)</text>
</g>
<!-- #13 MemberExpression (23)&#45;&gt;#15 Identifier (name) &#45; (23) -->
<g id="edge36" class="edge">
<title>#13 MemberExpression (23)&#45;&gt;#15 Identifier (name) &#45; (23)</title>
<path fill="none" stroke="#0000ff" d="M1230.3225,-173.9735C1235.7085,-161.9585 1242.8892,-145.9401 1248.9748,-132.3646"/>
<polygon fill="#0000ff" stroke="#0000ff" points="1252.2743,-133.5602 1253.1712,-123.0034 1245.8868,-130.6967 1252.2743,-133.5602"/>
<text text-anchor="middle" x="1267.2416" y="-144.8" font-family="Times,serif" font-size="14.00" fill="#0000ff">property</text>
</g>
<!-- #20 Identifier (customer) &#45; (23) -->
<g id="node29" class="node">
<title>#20 Identifier (customer) &#45; (23)</title>
<ellipse fill="none" stroke="#000000" cx="484.2416" cy="-18" rx="122.3786" ry="18"/>
<text text-anchor="middle" x="484.2416" y="-14.3" font-family="Times,serif" font-size="14.00" fill="#000000">#20 Identifier (customer) &#45; (23)</text>
</g>
<!-- #19 MemberExpression (23)&#45;&gt;#20 Identifier (customer) &#45; (23) -->
<g id="edge37" class="edge">
<title>#19 MemberExpression (23)&#45;&gt;#20 Identifier (customer) &#45; (23)</title>
<path fill="none" stroke="#0000ff" d="M581.5531,-87.3943C563.1543,-74.2738 537.8261,-56.2119 517.6221,-41.8041"/>
<polygon fill="#0000ff" stroke="#0000ff" points="519.4862,-38.8346 509.3122,-35.8782 515.4219,-44.5339 519.4862,-38.8346"/>
<text text-anchor="middle" x="570.2416" y="-57.8" font-family="Times,serif" font-size="14.00" fill="#0000ff">object</text>
</g>
<!-- #21 Identifier (role) &#45; (23) -->
<g id="node30" class="node">
<title>#21 Identifier (role) &#45; (23)</title>
<ellipse fill="none" stroke="#000000" cx="728.2416" cy="-18" rx="103.1819" ry="18"/>
<text text-anchor="middle" x="728.2416" y="-14.3" font-family="Times,serif" font-size="14.00" fill="#000000">#21 Identifier (role) &#45; (23)</text>
</g>
<!-- #19 MemberExpression (23)&#45;&gt;#21 Identifier (role) &#45; (23) -->
<g id="edge38" class="edge">
<title>#19 MemberExpression (23)&#45;&gt;#21 Identifier (role) &#45; (23)</title>
<path fill="none" stroke="#0000ff" d="M630.9302,-87.3943C649.4508,-74.1869 674.9929,-55.9724 695.2619,-41.5184"/>
<polygon fill="#0000ff" stroke="#0000ff" points="697.4801,-44.2353 703.5898,-35.5796 693.4158,-38.536 697.4801,-44.2353"/>
<text text-anchor="middle" x="698.2416" y="-57.8" font-family="Times,serif" font-size="14.00" fill="#0000ff">property</text>
</g>
</g>
</svg>
