<?xml version="1.0" encoding="UTF-8" standalone="no"?>
<!DOCTYPE svg PUBLIC "-//W3C//DTD SVG 1.1//EN"
 "http://www.w3.org/Graphics/SVG/1.1/DTD/svg11.dtd">
<!-- Generated by graphviz version 2.40.1 (20161225.0304)
 -->
<!-- Title: G Pages: 1 -->
<svg width="780pt" height="827pt"
 viewBox="0.00 0.00 779.78 827.00" xmlns="http://www.w3.org/2000/svg" xmlns:xlink="http://www.w3.org/1999/xlink">
<g id="graph0" class="graph" transform="scale(1 1) rotate(0) translate(4 823)">
<title>G</title>
<polygon fill="#ffffff" stroke="transparent" points="-4,4 -4,-823 775.782,-823 775.782,4 -4,4"/>
<!-- #0 Program (0) -->
<g id="node1" class="node">
<title>#0 Program (0)</title>
<ellipse fill="none" stroke="#000000" cx="323.692" cy="-801" rx="65.7887" ry="18"/>
<text text-anchor="middle" x="323.692" y="-797.3" font-family="Times,serif" font-size="14.00" fill="#000000">#0 Program (0)</text>
</g>
<!-- #1 Variable (f) &#45; (13) -->
<g id="node2" class="node">
<title>#1 Variable (f) &#45; (13)</title>
<ellipse fill="none" stroke="#000000" cx="426.692" cy="-714" rx="85.5853" ry="18"/>
<text text-anchor="middle" x="426.692" y="-710.3" font-family="Times,serif" font-size="14.00" fill="#000000">#1 Variable (f) &#45; (13)</text>
</g>
<!-- #0 Program (0)&#45;&gt;#1 Variable (f) &#45; (13) -->
<g id="edge1" class="edge">
<title>#0 Program (0)&#45;&gt;#1 Variable (f) &#45; (13)</title>
<path fill="none" stroke="#0000ff" d="M344.0415,-783.8116C359.358,-770.8744 380.5627,-752.9636 397.6589,-738.5232"/>
<polygon fill="#0000ff" stroke="#0000ff" points="400.2967,-740.8766 405.6777,-731.75 395.7797,-735.529 400.2967,-740.8766"/>
<text text-anchor="middle" x="385.192" y="-753.8" font-family="Times,serif" font-size="14.00" fill="#0000ff">1</text>
</g>
<!-- #15 CFG_F_START 2_anon -->
<g id="node4" class="node">
<title>#15 CFG_F_START 2_anon</title>
<ellipse fill="none" stroke="#ff0000" cx="257.692" cy="-540" rx="113.18" ry="18"/>
<text text-anchor="middle" x="257.692" y="-536.3" font-family="Times,serif" font-size="14.00" fill="#ff0000">#15 CFG_F_START 2_anon</text>
</g>
<!-- #1 Variable (f) &#45; (13)&#45;&gt;#15 CFG_F_START 2_anon -->
<g id="edge5" class="edge">
<title>#1 Variable (f) &#45; (13)&#45;&gt;#15 CFG_F_START 2_anon</title>
<path fill="none" stroke="#000000" d="M381.2333,-698.6833C354.1147,-687.5227 320.7735,-669.9577 298.692,-645 279.3503,-623.1389 268.6288,-591.1077 263.0485,-568.1786"/>
<polygon fill="#000000" stroke="#000000" points="266.4472,-567.339 260.8339,-558.3534 259.6185,-568.8783 266.4472,-567.339"/>
<text text-anchor="middle" x="307.692" y="-623.3" font-family="Times,serif" font-size="14.00" fill="#000000">FD</text>
</g>
<!-- #2 Function (anon) &#45; (13) -->
<g id="node6" class="node">
<title>#2 Function (anon) &#45; (13)</title>
<ellipse fill="none" stroke="#000000" cx="426.692" cy="-627" rx="100.9827" ry="18"/>
<text text-anchor="middle" x="426.692" y="-623.3" font-family="Times,serif" font-size="14.00" fill="#000000">#2 Function (anon) &#45; (13)</text>
</g>
<!-- #1 Variable (f) &#45; (13)&#45;&gt;#2 Function (anon) &#45; (13) -->
<g id="edge4" class="edge">
<title>#1 Variable (f) &#45; (13)&#45;&gt;#2 Function (anon) &#45; (13)</title>
<path fill="none" stroke="#0000ff" d="M426.692,-695.9735C426.692,-684.1918 426.692,-668.5607 426.692,-655.1581"/>
<polygon fill="#0000ff" stroke="#0000ff" points="430.1921,-655.0033 426.692,-645.0034 423.1921,-655.0034 430.1921,-655.0033"/>
<text text-anchor="middle" x="436.192" y="-666.8" font-family="Times,serif" font-size="14.00" fill="#0000ff">init</text>
</g>
<!-- #14 CFG_F_END __main__ -->
<g id="node7" class="node">
<title>#14 CFG_F_END __main__</title>
<ellipse fill="none" stroke="#ff0000" cx="658.692" cy="-627" rx="113.18" ry="18"/>
<text text-anchor="middle" x="658.692" y="-623.3" font-family="Times,serif" font-size="14.00" fill="#ff0000">#14 CFG_F_END __main__</text>
</g>
<!-- #1 Variable (f) &#45; (13)&#45;&gt;#14 CFG_F_END __main__ -->
<g id="edge6" class="edge">
<title>#1 Variable (f) &#45; (13)&#45;&gt;#14 CFG_F_END __main__</title>
<path fill="none" stroke="#ff0000" d="M468.7055,-698.245C506.8652,-683.9351 563.3581,-662.7502 604.8243,-647.2004"/>
<polygon fill="#ff0000" stroke="#ff0000" points="606.0906,-650.4636 614.225,-643.6752 603.6327,-643.9093 606.0906,-650.4636"/>
</g>
<!-- #13 CFG_F_START __main__ -->
<g id="node3" class="node">
<title>#13 CFG_F_START __main__</title>
<ellipse fill="none" stroke="#ff0000" cx="529.692" cy="-801" rx="122.6784" ry="18"/>
<text text-anchor="middle" x="529.692" y="-797.3" font-family="Times,serif" font-size="14.00" fill="#ff0000">#13 CFG_F_START __main__</text>
</g>
<!-- #13 CFG_F_START __main__&#45;&gt;#1 Variable (f) &#45; (13) -->
<g id="edge2" class="edge">
<title>#13 CFG_F_START __main__&#45;&gt;#1 Variable (f) &#45; (13)</title>
<path fill="none" stroke="#ff0000" d="M508.3504,-782.9735C493.0576,-770.0564 472.2869,-752.5122 455.5211,-738.3508"/>
<polygon fill="#ff0000" stroke="#ff0000" points="457.5519,-735.4847 447.654,-731.7057 453.035,-740.8323 457.5519,-735.4847"/>
</g>
<!-- #4 Variable (v1) &#45; (15) -->
<g id="node5" class="node">
<title>#4 Variable (v1) &#45; (15)</title>
<ellipse fill="none" stroke="#000000" cx="442.692" cy="-366" rx="91.784" ry="18"/>
<text text-anchor="middle" x="442.692" y="-362.3" font-family="Times,serif" font-size="14.00" fill="#000000">#4 Variable (v1) &#45; (15)</text>
</g>
<!-- #15 CFG_F_START 2_anon&#45;&gt;#4 Variable (v1) &#45; (15) -->
<g id="edge3" class="edge">
<title>#15 CFG_F_START 2_anon&#45;&gt;#4 Variable (v1) &#45; (15)</title>
<path fill="none" stroke="#ff0000" d="M276.7935,-522.0343C309.9759,-490.8249 378.3288,-426.5362 416.1182,-390.9938"/>
<polygon fill="#ff0000" stroke="#ff0000" points="418.8081,-393.2687 423.6945,-383.868 414.0122,-388.1697 418.8081,-393.2687"/>
</g>
<!-- #5 MemberExpression (15) -->
<g id="node8" class="node">
<title>#5 MemberExpression (15)</title>
<ellipse fill="none" stroke="#000000" cx="272.692" cy="-279" rx="108.5808" ry="18"/>
<text text-anchor="middle" x="272.692" y="-275.3" font-family="Times,serif" font-size="14.00" fill="#000000">#5 MemberExpression (15)</text>
</g>
<!-- #4 Variable (v1) &#45; (15)&#45;&gt;#5 MemberExpression (15) -->
<g id="edge7" class="edge">
<title>#4 Variable (v1) &#45; (15)&#45;&gt;#5 MemberExpression (15)</title>
<path fill="none" stroke="#0000ff" d="M409.5108,-349.019C382.656,-335.2757 344.6421,-315.8215 315.4965,-300.9058"/>
<polygon fill="#0000ff" stroke="#0000ff" points="316.8671,-297.6756 306.3706,-296.2355 313.6781,-303.907 316.8671,-297.6756"/>
<text text-anchor="middle" x="378.192" y="-318.8" font-family="Times,serif" font-size="14.00" fill="#0000ff">init</text>
</g>
<!-- #8 Variable (y) &#45; (15) -->
<g id="node9" class="node">
<title>#8 Variable (y) &#45; (15)</title>
<ellipse fill="none" stroke="#000000" cx="507.692" cy="-192" rx="87.1846" ry="18"/>
<text text-anchor="middle" x="507.692" y="-188.3" font-family="Times,serif" font-size="14.00" fill="#000000">#8 Variable (y) &#45; (15)</text>
</g>
<!-- #4 Variable (v1) &#45; (15)&#45;&gt;#8 Variable (y) &#45; (15) -->
<g id="edge8" class="edge">
<title>#4 Variable (v1) &#45; (15)&#45;&gt;#8 Variable (y) &#45; (15)</title>
<path fill="none" stroke="#ff0000" d="M438.4459,-347.7852C437.3157,-342.12 436.2537,-335.8307 435.692,-330 432.6919,-298.8526 435.344,-288.8082 449.692,-261 457.9327,-245.0286 470.4522,-229.5008 481.753,-217.2328"/>
<polygon fill="#ff0000" stroke="#ff0000" points="484.5905,-219.328 488.9461,-209.6699 479.5183,-214.5039 484.5905,-219.328"/>
</g>
<!-- #20 x.z&#45;o4 -->
<g id="node10" class="node">
<title>#20 x.z&#45;o4</title>
<ellipse fill="none" stroke="#006400" cx="507.692" cy="-279" rx="48.9926" ry="18"/>
<text text-anchor="middle" x="507.692" y="-275.3" font-family="Times,serif" font-size="14.00" fill="#006400">#20 x.z&#45;o4</text>
</g>
<!-- #4 Variable (v1) &#45; (15)&#45;&gt;#20 x.z&#45;o4 -->
<g id="edge9" class="edge">
<title>#4 Variable (v1) &#45; (15)&#45;&gt;#20 x.z&#45;o4</title>
<path fill="none" stroke="#006400" d="M438.8283,-347.7963C437.6237,-337.4784 437.8737,-324.7284 443.692,-315 448.2541,-307.3722 455.0781,-301.229 462.5936,-296.3276"/>
<polygon fill="#006400" stroke="#006400" points="464.713,-299.1464 471.6398,-291.1295 461.2254,-293.0771 464.713,-299.1464"/>
<text text-anchor="middle" x="480.192" y="-318.8" font-family="Times,serif" font-size="14.00" fill="#006400">CREATE x.z</text>
</g>
<!-- #4 Variable (v1) &#45; (15)&#45;&gt;#20 x.z&#45;o4 -->
<g id="edge10" class="edge">
<title>#4 Variable (v1) &#45; (15)&#45;&gt;#20 x.z&#45;o4</title>
<path fill="none" stroke="#000000" d="M493.2152,-350.8756C502.5364,-345.7523 511.0851,-338.963 516.692,-330 521.0506,-323.0327 521.1493,-314.5389 519.4744,-306.4969"/>
<polygon fill="#000000" stroke="#000000" points="522.7724,-305.3061 516.5916,-296.701 516.0572,-307.2824 522.7724,-305.3061"/>
<text text-anchor="middle" x="541.192" y="-318.8" font-family="Times,serif" font-size="14.00" fill="#000000">REF v1</text>
</g>
<!-- #2 Function (anon) &#45; (13)&#45;&gt;#15 CFG_F_START 2_anon -->
<g id="edge13" class="edge">
<title>#2 Function (anon) &#45; (13)&#45;&gt;#15 CFG_F_START 2_anon</title>
<path fill="none" stroke="#000000" d="M393.3031,-609.8116C366.6552,-596.0935 329.1445,-576.7832 300.3267,-561.948"/>
<polygon fill="#000000" stroke="#000000" points="301.7935,-558.7666 291.3004,-557.3014 298.5895,-564.9903 301.7935,-558.7666"/>
<text text-anchor="middle" x="361.692" y="-579.8" font-family="Times,serif" font-size="14.00" fill="#000000">FD</text>
</g>
<!-- #3 Identifier (x) &#45; (13) -->
<g id="node11" class="node">
<title>#3 Identifier (x) &#45; (13)</title>
<ellipse fill="none" stroke="#000000" cx="478.692" cy="-540" rx="89.8845" ry="18"/>
<text text-anchor="middle" x="478.692" y="-536.3" font-family="Times,serif" font-size="14.00" fill="#000000">#3 Identifier (x) &#45; (13)</text>
</g>
<!-- #2 Function (anon) &#45; (13)&#45;&gt;#3 Identifier (x) &#45; (13) -->
<g id="edge11" class="edge">
<title>#2 Function (anon) &#45; (13)&#45;&gt;#3 Identifier (x) &#45; (13)</title>
<path fill="none" stroke="#0000ff" d="M437.4665,-608.9735C444.7176,-596.8418 454.4082,-580.6287 462.5721,-566.9698"/>
<polygon fill="#0000ff" stroke="#0000ff" points="465.8052,-568.3827 467.9314,-558.0034 459.7967,-564.7913 465.8052,-568.3827"/>
<text text-anchor="middle" x="479.692" y="-579.8" font-family="Times,serif" font-size="14.00" fill="#0000ff">param 1</text>
</g>
<!-- #12 BlockStatement (13) -->
<g id="node12" class="node">
<title>#12 BlockStatement (13)</title>
<ellipse fill="none" stroke="#000000" cx="604.692" cy="-453" rx="100.1823" ry="18"/>
<text text-anchor="middle" x="604.692" y="-449.3" font-family="Times,serif" font-size="14.00" fill="#000000">#12 BlockStatement (13)</text>
</g>
<!-- #2 Function (anon) &#45; (13)&#45;&gt;#12 BlockStatement (13) -->
<g id="edge12" class="edge">
<title>#2 Function (anon) &#45; (13)&#45;&gt;#12 BlockStatement (13)</title>
<path fill="none" stroke="#0000ff" d="M487.8809,-612.6769C518.99,-602.3898 554.9325,-585.3691 577.692,-558 595.6655,-536.3863 601.8572,-504.2549 603.8967,-481.2338"/>
<polygon fill="#0000ff" stroke="#0000ff" points="607.4019,-481.2727 604.5835,-471.0596 600.4178,-480.8012 607.4019,-481.2727"/>
<text text-anchor="middle" x="611.192" y="-536.3" font-family="Times,serif" font-size="14.00" fill="#0000ff">block</text>
</g>
<!-- #6 Identifier (x) &#45; (15) -->
<g id="node13" class="node">
<title>#6 Identifier (x) &#45; (15)</title>
<ellipse fill="none" stroke="#000000" cx="89.692" cy="-192" rx="89.8845" ry="18"/>
<text text-anchor="middle" x="89.692" y="-188.3" font-family="Times,serif" font-size="14.00" fill="#000000">#6 Identifier (x) &#45; (15)</text>
</g>
<!-- #5 MemberExpression (15)&#45;&gt;#6 Identifier (x) &#45; (15) -->
<g id="edge14" class="edge">
<title>#5 MemberExpression (15)&#45;&gt;#6 Identifier (x) &#45; (15)</title>
<path fill="none" stroke="#0000ff" d="M236.5371,-261.8116C207.1793,-247.8546 165.6454,-228.109 134.2369,-213.1771"/>
<polygon fill="#0000ff" stroke="#0000ff" points="135.3733,-209.842 124.8392,-208.7093 132.3678,-216.1639 135.3733,-209.842"/>
<text text-anchor="middle" x="209.692" y="-231.8" font-family="Times,serif" font-size="14.00" fill="#0000ff">object</text>
</g>
<!-- #7 Identifier (z) &#45; (15) -->
<g id="node14" class="node">
<title>#7 Identifier (z) &#45; (15)</title>
<ellipse fill="none" stroke="#000000" cx="286.692" cy="-192" rx="89.0842" ry="18"/>
<text text-anchor="middle" x="286.692" y="-188.3" font-family="Times,serif" font-size="14.00" fill="#000000">#7 Identifier (z) &#45; (15)</text>
</g>
<!-- #5 MemberExpression (15)&#45;&gt;#7 Identifier (z) &#45; (15) -->
<g id="edge15" class="edge">
<title>#5 MemberExpression (15)&#45;&gt;#7 Identifier (z) &#45; (15)</title>
<path fill="none" stroke="#0000ff" d="M275.5929,-260.9735C277.4888,-249.1918 280.0041,-233.5607 282.1609,-220.1581"/>
<polygon fill="#0000ff" stroke="#0000ff" points="285.6617,-220.4324 283.7949,-210.0034 278.7506,-219.3203 285.6617,-220.4324"/>
<text text-anchor="middle" x="303.692" y="-231.8" font-family="Times,serif" font-size="14.00" fill="#0000ff">property</text>
</g>
<!-- #9 MemberExpression (15) -->
<g id="node15" class="node">
<title>#9 MemberExpression (15)</title>
<ellipse fill="none" stroke="#000000" cx="251.692" cy="-105" rx="108.5808" ry="18"/>
<text text-anchor="middle" x="251.692" y="-101.3" font-family="Times,serif" font-size="14.00" fill="#000000">#9 MemberExpression (15)</text>
</g>
<!-- #8 Variable (y) &#45; (15)&#45;&gt;#9 MemberExpression (15) -->
<g id="edge16" class="edge">
<title>#8 Variable (y) &#45; (15)&#45;&gt;#9 MemberExpression (15)</title>
<path fill="none" stroke="#0000ff" d="M462.2194,-176.5464C419.4291,-162.0044 355.1882,-140.1725 308.929,-124.4516"/>
<polygon fill="#0000ff" stroke="#0000ff" points="309.9393,-121.0984 299.3449,-121.1945 307.6869,-127.7262 309.9393,-121.0984"/>
<text text-anchor="middle" x="405.192" y="-144.8" font-family="Times,serif" font-size="14.00" fill="#0000ff">init</text>
</g>
<!-- #16 CFG_F_END 2_anon -->
<g id="node16" class="node">
<title>#16 CFG_F_END 2_anon</title>
<ellipse fill="none" stroke="#ff0000" cx="481.692" cy="-105" rx="103.1819" ry="18"/>
<text text-anchor="middle" x="481.692" y="-101.3" font-family="Times,serif" font-size="14.00" fill="#ff0000">#16 CFG_F_END 2_anon</text>
</g>
<!-- #8 Variable (y) &#45; (15)&#45;&gt;#16 CFG_F_END 2_anon -->
<g id="edge17" class="edge">
<title>#8 Variable (y) &#45; (15)&#45;&gt;#16 CFG_F_END 2_anon</title>
<path fill="none" stroke="#ff0000" d="M502.3048,-173.9735C498.749,-162.0751 494.0199,-146.2508 489.9883,-132.7606"/>
<polygon fill="#ff0000" stroke="#ff0000" points="493.2893,-131.5825 487.0724,-123.0034 486.5823,-133.5869 493.2893,-131.5825"/>
</g>
<!-- #21 v1.w&#45;o5 -->
<g id="node17" class="node">
<title>#21 v1.w&#45;o5</title>
<ellipse fill="none" stroke="#006400" cx="658.692" cy="-105" rx="55.7903" ry="18"/>
<text text-anchor="middle" x="658.692" y="-101.3" font-family="Times,serif" font-size="14.00" fill="#006400">#21 v1.w&#45;o5</text>
</g>
<!-- #8 Variable (y) &#45; (15)&#45;&gt;#21 v1.w&#45;o5 -->
<g id="edge18" class="edge">
<title>#8 Variable (y) &#45; (15)&#45;&gt;#21 v1.w&#45;o5</title>
<path fill="none" stroke="#006400" d="M516.3404,-173.6142C522.3324,-162.7063 531.2812,-149.4098 542.692,-141 548.2153,-136.9294 578.1067,-127.6924 606.1603,-119.5945"/>
<polygon fill="#006400" stroke="#006400" points="607.3131,-122.9052 615.9636,-116.7881 605.3865,-116.1755 607.3131,-122.9052"/>
<text text-anchor="middle" x="584.692" y="-144.8" font-family="Times,serif" font-size="14.00" fill="#006400">CREATE v1.w</text>
</g>
<!-- #8 Variable (y) &#45; (15)&#45;&gt;#21 v1.w&#45;o5 -->
<g id="edge19" class="edge">
<title>#8 Variable (y) &#45; (15)&#45;&gt;#21 v1.w&#45;o5</title>
<path fill="none" stroke="#000000" d="M575.2886,-180.5465C593.2422,-175.2039 611.7668,-167.3959 626.692,-156 634.9546,-149.6913 641.6269,-140.5873 646.6975,-131.8119"/>
<polygon fill="#000000" stroke="#000000" points="649.8205,-133.3932 651.4013,-122.9169 643.6324,-130.1208 649.8205,-133.3932"/>
<text text-anchor="middle" x="657.692" y="-144.8" font-family="Times,serif" font-size="14.00" fill="#000000">REF y</text>
</g>
<!-- #20 x.z&#45;o4&#45;&gt;#8 Variable (y) &#45; (15) -->
<g id="edge20" class="edge">
<title>#20 x.z&#45;o4&#45;&gt;#8 Variable (y) &#45; (15)</title>
<path fill="none" stroke="#006400" d="M507.692,-260.9735C507.692,-249.1918 507.692,-233.5607 507.692,-220.1581"/>
<polygon fill="#006400" stroke="#006400" points="511.1921,-220.0033 507.692,-210.0034 504.1921,-220.0034 511.1921,-220.0033"/>
<text text-anchor="middle" x="542.192" y="-231.8" font-family="Times,serif" font-size="14.00" fill="#006400">LOOKUP w</text>
</g>
<!-- #19 x&#45;o3 -->
<g id="node18" class="node">
<title>#19 x&#45;o3</title>
<ellipse fill="none" stroke="#006400" cx="444.692" cy="-453" rx="42.4939" ry="18"/>
<text text-anchor="middle" x="444.692" y="-449.3" font-family="Times,serif" font-size="14.00" fill="#006400">#19 x&#45;o3</text>
</g>
<!-- #3 Identifier (x) &#45; (13)&#45;&gt;#19 x&#45;o3 -->
<g id="edge21" class="edge">
<title>#3 Identifier (x) &#45; (13)&#45;&gt;#19 x&#45;o3</title>
<path fill="none" stroke="#006400" d="M471.6472,-521.9735C466.9517,-509.9585 460.6916,-493.9401 455.3862,-480.3646"/>
<polygon fill="#006400" stroke="#006400" points="458.6278,-479.0434 451.7278,-471.0034 452.108,-481.5914 458.6278,-479.0434"/>
<text text-anchor="middle" x="496.692" y="-492.8" font-family="Times,serif" font-size="14.00" fill="#006400">CREATE x</text>
</g>
<!-- #12 BlockStatement (13)&#45;&gt;#4 Variable (v1) &#45; (15) -->
<g id="edge22" class="edge">
<title>#12 BlockStatement (13)&#45;&gt;#4 Variable (v1) &#45; (15)</title>
<path fill="none" stroke="#0000ff" d="M574.532,-435.683C556.8954,-425.6607 534.1454,-412.9107 513.692,-402 504.6381,-397.1702 494.8634,-392.1137 485.5478,-387.3682"/>
<polygon fill="#0000ff" stroke="#0000ff" points="486.9309,-384.1454 476.4288,-382.7463 483.7662,-390.3892 486.9309,-384.1454"/>
<text text-anchor="middle" x="542.192" y="-405.8" font-family="Times,serif" font-size="14.00" fill="#0000ff">1</text>
</g>
<!-- #12 BlockStatement (13)&#45;&gt;#8 Variable (y) &#45; (15) -->
<g id="edge23" class="edge">
<title>#12 BlockStatement (13)&#45;&gt;#8 Variable (y) &#45; (15)</title>
<path fill="none" stroke="#0000ff" d="M608.1544,-434.9662C614.963,-394.0198 625.7785,-292.5839 580.692,-228 576.41,-221.8662 570.7774,-216.7298 564.5358,-212.4406"/>
<polygon fill="#0000ff" stroke="#0000ff" points="566.0841,-209.2866 555.7168,-207.1027 562.4594,-215.2751 566.0841,-209.2866"/>
<text text-anchor="middle" x="616.192" y="-318.8" font-family="Times,serif" font-size="14.00" fill="#0000ff">2</text>
</g>
<!-- #10 Identifier (v1) &#45; (15) -->
<g id="node19" class="node">
<title>#10 Identifier (v1) &#45; (15)</title>
<ellipse fill="none" stroke="#000000" cx="145.692" cy="-18" rx="98.5829" ry="18"/>
<text text-anchor="middle" x="145.692" y="-14.3" font-family="Times,serif" font-size="14.00" fill="#000000">#10 Identifier (v1) &#45; (15)</text>
</g>
<!-- #9 MemberExpression (15)&#45;&gt;#10 Identifier (v1) &#45; (15) -->
<g id="edge24" class="edge">
<title>#9 MemberExpression (15)&#45;&gt;#10 Identifier (v1) &#45; (15)</title>
<path fill="none" stroke="#0000ff" d="M229.9856,-87.1843C214.2658,-74.2823 192.8239,-56.6837 175.5,-42.465"/>
<polygon fill="#0000ff" stroke="#0000ff" points="177.3198,-39.4307 167.3695,-35.7919 172.8788,-44.8416 177.3198,-39.4307"/>
<text text-anchor="middle" x="222.692" y="-57.8" font-family="Times,serif" font-size="14.00" fill="#0000ff">object</text>
</g>
<!-- #11 Identifier (w) &#45; (15) -->
<g id="node20" class="node">
<title>#11 Identifier (w) &#45; (15)</title>
<ellipse fill="none" stroke="#000000" cx="358.692" cy="-18" rx="96.3833" ry="18"/>
<text text-anchor="middle" x="358.692" y="-14.3" font-family="Times,serif" font-size="14.00" fill="#000000">#11 Identifier (w) &#45; (15)</text>
</g>
<!-- #9 MemberExpression (15)&#45;&gt;#11 Identifier (w) &#45; (15) -->
<g id="edge25" class="edge">
<title>#9 MemberExpression (15)&#45;&gt;#11 Identifier (w) &#45; (15)</title>
<path fill="none" stroke="#0000ff" d="M273.6033,-87.1843C289.4713,-74.2823 311.1155,-56.6837 328.6029,-42.465"/>
<polygon fill="#0000ff" stroke="#0000ff" points="331.2592,-44.8162 336.8101,-35.7919 326.8431,-39.3849 331.2592,-44.8162"/>
<text text-anchor="middle" x="334.692" y="-57.8" font-family="Times,serif" font-size="14.00" fill="#0000ff">property</text>
</g>
<!-- #19 x&#45;o3&#45;&gt;#4 Variable (v1) &#45; (15) -->
<g id="edge26" class="edge">
<title>#19 x&#45;o3&#45;&gt;#4 Variable (v1) &#45; (15)</title>
<path fill="none" stroke="#006400" d="M444.2776,-434.9735C444.0068,-423.1918 443.6475,-407.5607 443.3394,-394.1581"/>
<polygon fill="#006400" stroke="#006400" points="446.8349,-393.9202 443.1059,-384.0034 439.8368,-394.0812 446.8349,-393.9202"/>
<text text-anchor="middle" x="477.192" y="-405.8" font-family="Times,serif" font-size="14.00" fill="#006400">LOOKUP z</text>
</g>
</g>
</svg>
