<?xml version="1.0" encoding="UTF-8" standalone="no"?>
<!DOCTYPE svg PUBLIC "-//W3C//DTD SVG 1.1//EN"
 "http://www.w3.org/Graphics/SVG/1.1/DTD/svg11.dtd">
<!-- Generated by graphviz version 2.40.1 (20161225.0304)
 -->
<!-- Title: G Pages: 1 -->
<svg width="581pt" height="451pt"
 viewBox="0.00 0.00 581.08 451.00" xmlns="http://www.w3.org/2000/svg" xmlns:xlink="http://www.w3.org/1999/xlink">
<g id="graph0" class="graph" transform="scale(1 1) rotate(0) translate(4 447)">
<title>G</title>
<polygon fill="#ffffff" stroke="transparent" points="-4,4 -4,-447 577.0807,-447 577.0807,4 -4,4"/>
<!-- #0 Program (0) -->
<g id="node1" class="node">
<title>#0 Program (0)</title>
<ellipse fill="none" stroke="#000000" cx="140.5404" cy="-425" rx="65.7887" ry="18"/>
<text text-anchor="middle" x="140.5404" y="-421.3" font-family="Times,serif" font-size="14.00" fill="#000000">#0 Program (0)</text>
</g>
<!-- #1 Variable (f) &#45; (4) -->
<g id="node2" class="node">
<title>#1 Variable (f) &#45; (4)</title>
<ellipse fill="none" stroke="#000000" cx="241.5404" cy="-338" rx="81.4863" ry="18"/>
<text text-anchor="middle" x="241.5404" y="-334.3" font-family="Times,serif" font-size="14.00" fill="#000000">#1 Variable (f) &#45; (4)</text>
</g>
<!-- #0 Program (0)&#45;&gt;#1 Variable (f) &#45; (4) -->
<g id="edge1" class="edge">
<title>#0 Program (0)&#45;&gt;#1 Variable (f) &#45; (4)</title>
<path fill="none" stroke="#0000ff" d="M160.4947,-407.8116C175.6126,-394.7893 196.5806,-376.7277 213.4013,-362.2386"/>
<polygon fill="#0000ff" stroke="#0000ff" points="215.9893,-364.6288 221.2818,-355.4505 211.4208,-359.3251 215.9893,-364.6288"/>
<text text-anchor="middle" x="201.0404" y="-377.8" font-family="Times,serif" font-size="14.00" fill="#0000ff">1</text>
</g>
<!-- #6 CFG_F_START 2_anon -->
<g id="node4" class="node">
<title>#6 CFG_F_START 2_anon</title>
<ellipse fill="none" stroke="#ff0000" cx="108.5404" cy="-164" rx="108.5808" ry="18"/>
<text text-anchor="middle" x="108.5404" y="-160.3" font-family="Times,serif" font-size="14.00" fill="#ff0000">#6 CFG_F_START 2_anon</text>
</g>
<!-- #1 Variable (f) &#45; (4)&#45;&gt;#6 CFG_F_START 2_anon -->
<g id="edge5" class="edge">
<title>#1 Variable (f) &#45; (4)&#45;&gt;#6 CFG_F_START 2_anon</title>
<path fill="none" stroke="#000000" d="M192.7007,-323.4814C165.9127,-312.8608 134.7372,-295.5796 117.5404,-269 102.8689,-246.3236 102.1252,-214.8851 104.1251,-192.3301"/>
<polygon fill="#000000" stroke="#000000" points="107.6078,-192.6787 105.2372,-182.3525 100.6509,-191.9032 107.6078,-192.6787"/>
<text text-anchor="middle" x="126.5404" y="-247.3" font-family="Times,serif" font-size="14.00" fill="#000000">FD</text>
</g>
<!-- #2 Function (anon) &#45; (4) -->
<g id="node6" class="node">
<title>#2 Function (anon) &#45; (4)</title>
<ellipse fill="none" stroke="#000000" cx="241.5404" cy="-251" rx="96.6831" ry="18"/>
<text text-anchor="middle" x="241.5404" y="-247.3" font-family="Times,serif" font-size="14.00" fill="#000000">#2 Function (anon) &#45; (4)</text>
</g>
<!-- #1 Variable (f) &#45; (4)&#45;&gt;#2 Function (anon) &#45; (4) -->
<g id="edge4" class="edge">
<title>#1 Variable (f) &#45; (4)&#45;&gt;#2 Function (anon) &#45; (4)</title>
<path fill="none" stroke="#0000ff" d="M241.5404,-319.9735C241.5404,-308.1918 241.5404,-292.5607 241.5404,-279.1581"/>
<polygon fill="#0000ff" stroke="#0000ff" points="245.0405,-279.0033 241.5404,-269.0034 238.0405,-279.0034 245.0405,-279.0033"/>
<text text-anchor="middle" x="251.0404" y="-290.8" font-family="Times,serif" font-size="14.00" fill="#0000ff">init</text>
</g>
<!-- #5 CFG_F_END __main__ -->
<g id="node7" class="node">
<title>#5 CFG_F_END __main__</title>
<ellipse fill="none" stroke="#ff0000" cx="464.5404" cy="-251" rx="108.5808" ry="18"/>
<text text-anchor="middle" x="464.5404" y="-247.3" font-family="Times,serif" font-size="14.00" fill="#ff0000">#5 CFG_F_END __main__</text>
</g>
<!-- #1 Variable (f) &#45; (4)&#45;&gt;#5 CFG_F_END __main__ -->
<g id="edge6" class="edge">
<title>#1 Variable (f) &#45; (4)&#45;&gt;#5 CFG_F_END __main__</title>
<path fill="none" stroke="#ff0000" d="M281.6659,-322.3457C318.157,-308.1092 372.2439,-287.008 412.1365,-271.4446"/>
<polygon fill="#ff0000" stroke="#ff0000" points="413.6528,-274.61 421.6969,-267.7147 411.1086,-268.0887 413.6528,-274.61"/>
</g>
<!-- #4 CFG_F_START __main__ -->
<g id="node3" class="node">
<title>#4 CFG_F_START __main__</title>
<ellipse fill="none" stroke="#ff0000" cx="342.5404" cy="-425" rx="118.0794" ry="18"/>
<text text-anchor="middle" x="342.5404" y="-421.3" font-family="Times,serif" font-size="14.00" fill="#ff0000">#4 CFG_F_START __main__</text>
</g>
<!-- #4 CFG_F_START __main__&#45;&gt;#1 Variable (f) &#45; (4) -->
<g id="edge2" class="edge">
<title>#4 CFG_F_START __main__&#45;&gt;#1 Variable (f) &#45; (4)</title>
<path fill="none" stroke="#ff0000" d="M321.6131,-406.9735C306.6173,-394.0564 286.2499,-376.5122 269.8097,-362.3508"/>
<polygon fill="#ff0000" stroke="#ff0000" points="271.9562,-359.5803 262.0953,-355.7057 267.3877,-364.884 271.9562,-359.5803"/>
</g>
<!-- #3 BlockStatement (4) -->
<g id="node5" class="node">
<title>#3 BlockStatement (4)</title>
<ellipse fill="none" stroke="#000000" cx="180.5404" cy="-91" rx="90.9839" ry="18"/>
<text text-anchor="middle" x="180.5404" y="-87.3" font-family="Times,serif" font-size="14.00" fill="#000000">#3 BlockStatement (4)</text>
</g>
<!-- #6 CFG_F_START 2_anon&#45;&gt;#3 BlockStatement (4) -->
<g id="edge3" class="edge">
<title>#6 CFG_F_START 2_anon&#45;&gt;#3 BlockStatement (4)</title>
<path fill="none" stroke="#ff0000" d="M126.3381,-145.9551C135.2315,-136.9381 146.1361,-125.8821 155.8268,-116.0568"/>
<polygon fill="#ff0000" stroke="#ff0000" points="158.4171,-118.4148 162.9473,-108.8374 153.4333,-113.4993 158.4171,-118.4148"/>
</g>
<!-- #7 CFG_F_END 2_anon -->
<g id="node8" class="node">
<title>#7 CFG_F_END 2_anon</title>
<ellipse fill="none" stroke="#ff0000" cx="180.5404" cy="-18" rx="98.5829" ry="18"/>
<text text-anchor="middle" x="180.5404" y="-14.3" font-family="Times,serif" font-size="14.00" fill="#ff0000">#7 CFG_F_END 2_anon</text>
</g>
<!-- #3 BlockStatement (4)&#45;&gt;#7 CFG_F_END 2_anon -->
<g id="edge7" class="edge">
<title>#3 BlockStatement (4)&#45;&gt;#7 CFG_F_END 2_anon</title>
<path fill="none" stroke="#ff0000" d="M180.5404,-72.9551C180.5404,-64.8828 180.5404,-55.1764 180.5404,-46.1817"/>
<polygon fill="#ff0000" stroke="#ff0000" points="184.0405,-46.0903 180.5404,-36.0904 177.0405,-46.0904 184.0405,-46.0903"/>
</g>
<!-- #2 Function (anon) &#45; (4)&#45;&gt;#6 CFG_F_START 2_anon -->
<g id="edge9" class="edge">
<title>#2 Function (anon) &#45; (4)&#45;&gt;#6 CFG_F_START 2_anon</title>
<path fill="none" stroke="#000000" d="M214.9455,-233.6033C194.601,-220.2953 166.3492,-201.8148 144.0694,-187.2408"/>
<polygon fill="#000000" stroke="#000000" points="145.8296,-184.2099 135.545,-181.6647 141.9977,-190.068 145.8296,-184.2099"/>
<text text-anchor="middle" x="192.5404" y="-203.8" font-family="Times,serif" font-size="14.00" fill="#000000">FD</text>
</g>
<!-- #2 Function (anon) &#45; (4)&#45;&gt;#3 BlockStatement (4) -->
<g id="edge8" class="edge">
<title>#2 Function (anon) &#45; (4)&#45;&gt;#3 BlockStatement (4)</title>
<path fill="none" stroke="#0000ff" d="M241.9096,-232.7108C241.6871,-211.08 239.2075,-174.4254 226.5404,-146 221.8076,-135.3795 214.4046,-125.1871 206.91,-116.5243"/>
<polygon fill="#0000ff" stroke="#0000ff" points="209.4,-114.0605 200.0754,-109.0303 204.2279,-118.7774 209.4,-114.0605"/>
<text text-anchor="middle" x="253.0404" y="-160.3" font-family="Times,serif" font-size="14.00" fill="#0000ff">block</text>
</g>
</g>
</svg>
