<?xml version="1.0" encoding="UTF-8" standalone="no"?>
<!DOCTYPE svg PUBLIC "-//W3C//DTD SVG 1.1//EN"
 "http://www.w3.org/Graphics/SVG/1.1/DTD/svg11.dtd">
<!-- Generated by graphviz version 2.40.1 (20161225.0304)
 -->
<!-- Title: G Pages: 1 -->
<svg width="769pt" height="510pt"
 viewBox="0.00 0.00 768.58 510.00" xmlns="http://www.w3.org/2000/svg" xmlns:xlink="http://www.w3.org/1999/xlink">
<g id="graph0" class="graph" transform="scale(1 1) rotate(0) translate(4 506)">
<title>G</title>
<polygon fill="#ffffff" stroke="transparent" points="-4,4 -4,-506 764.5836,-506 764.5836,4 -4,4"/>
<!-- #22 CFG_F_START __main__ -->
<g id="node1" class="node">
<title>#22 CFG_F_START __main__</title>
<ellipse fill="none" stroke="#ff0000" cx="400.09" cy="-484" rx="122.6784" ry="18"/>
<text text-anchor="middle" x="400.09" y="-480.3" font-family="Times,serif" font-size="14.00" fill="#ff0000">#22 CFG_F_START __main__</text>
</g>
<!-- #1» f = Function (__2_anon__) &#45; (22) -->
<g id="node2" class="node">
<title>#1» f = Function (__2_anon__) &#45; (22)</title>
<ellipse fill="none" stroke="#000000" cx="400.09" cy="-411" rx="144.8743" ry="18"/>
<text text-anchor="middle" x="400.09" y="-407.3" font-family="Times,serif" font-size="14.00" fill="#000000">#1» f = Function (__2_anon__) &#45; (22)</text>
</g>
<!-- #22 CFG_F_START __main__&#45;&gt;#1» f = Function (__2_anon__) &#45; (22) -->
<g id="edge1" class="edge">
<title>#22 CFG_F_START __main__&#45;&gt;#1» f = Function (__2_anon__) &#45; (22)</title>
<path fill="none" stroke="#ff0000" d="M400.09,-465.9551C400.09,-457.8828 400.09,-448.1764 400.09,-439.1817"/>
<polygon fill="#ff0000" stroke="#ff0000" points="403.5901,-439.0903 400.09,-429.0904 396.5901,-439.0904 403.5901,-439.0903"/>
</g>
<!-- #24 CFG_F_START 2_anon -->
<g id="node3" class="node">
<title>#24 CFG_F_START 2_anon</title>
<ellipse fill="none" stroke="#ff0000" cx="113.09" cy="-324" rx="113.18" ry="18"/>
<text text-anchor="middle" x="113.09" y="-320.3" font-family="Times,serif" font-size="14.00" fill="#ff0000">#24 CFG_F_START 2_anon</text>
</g>
<!-- #1» f = Function (__2_anon__) &#45; (22)&#45;&gt;#24 CFG_F_START 2_anon -->
<g id="edge5" class="edge">
<title>#1» f = Function (__2_anon__) &#45; (22)&#45;&gt;#24 CFG_F_START 2_anon</title>
<path fill="none" stroke="#000000" d="M345.0931,-394.3285C296.7216,-379.6653 226.3385,-358.3297 175.794,-343.0078"/>
<polygon fill="#000000" stroke="#000000" points="176.5474,-339.579 165.962,-340.0274 174.5166,-346.278 176.5474,-339.579"/>
<text text-anchor="middle" x="283.09" y="-363.8" font-family="Times,serif" font-size="14.00" fill="#000000">FD</text>
</g>
<!-- #27 24.c&#45;o1 -->
<g id="node6" class="node">
<title>#27 24.c&#45;o1</title>
<ellipse fill="none" stroke="#006400" cx="689.09" cy="-324" rx="53.0913" ry="18"/>
<text text-anchor="middle" x="689.09" y="-320.3" font-family="Times,serif" font-size="14.00" fill="#006400">#27 24.c&#45;o1</text>
</g>
<!-- #1» f = Function (__2_anon__) &#45; (22)&#45;&gt;#27 24.c&#45;o1 -->
<g id="edge7" class="edge">
<title>#1» f = Function (__2_anon__) &#45; (22)&#45;&gt;#27 24.c&#45;o1</title>
<path fill="none" stroke="#000000" stroke-dasharray="5,2" d="M455.4701,-394.3285C508.6347,-378.3239 588.2051,-354.3702 639.3836,-338.9635"/>
<polygon fill="#000000" stroke="#000000" points="640.658,-342.2351 649.2246,-336.001 638.6401,-335.5322 640.658,-342.2351"/>
</g>
<!-- #28 24.p&#45;o2 -->
<g id="node7" class="node">
<title>#28 24.p&#45;o2</title>
<ellipse fill="none" stroke="#006400" cx="564.09" cy="-324" rx="53.8905" ry="18"/>
<text text-anchor="middle" x="564.09" y="-320.3" font-family="Times,serif" font-size="14.00" fill="#006400">#28 24.p&#45;o2</text>
</g>
<!-- #1» f = Function (__2_anon__) &#45; (22)&#45;&gt;#28 24.p&#45;o2 -->
<g id="edge8" class="edge">
<title>#1» f = Function (__2_anon__) &#45; (22)&#45;&gt;#28 24.p&#45;o2</title>
<path fill="none" stroke="#000000" stroke-dasharray="5,2" d="M433.2778,-393.3943C460.1867,-379.1194 498.1219,-358.9953 526.2156,-344.0919"/>
<polygon fill="#000000" stroke="#000000" points="528.1419,-347.032 535.3357,-339.2538 524.8615,-340.8483 528.1419,-347.032"/>
</g>
<!-- #16» module.exports = f; &#45; (22) -->
<g id="node8" class="node">
<title>#16» module.exports = f; &#45; (22)</title>
<ellipse fill="none" stroke="#000000" cx="368.09" cy="-324" rx="124.2781" ry="18"/>
<text text-anchor="middle" x="368.09" y="-320.3" font-family="Times,serif" font-size="14.00" fill="#000000">#16» module.exports = f; &#45; (22)</text>
</g>
<!-- #1» f = Function (__2_anon__) &#45; (22)&#45;&gt;#16» module.exports = f; &#45; (22) -->
<g id="edge6" class="edge">
<title>#1» f = Function (__2_anon__) &#45; (22)&#45;&gt;#16» module.exports = f; &#45; (22)</title>
<path fill="none" stroke="#ff0000" d="M393.4595,-392.9735C389.0831,-381.0751 383.2627,-365.2508 378.3008,-351.7606"/>
<polygon fill="#ff0000" stroke="#ff0000" points="381.4489,-350.1804 374.7119,-342.0034 374.8792,-352.5969 381.4489,-350.1804"/>
</g>
<!-- #5» x = c[p] -->
<g id="node4" class="node">
<title>#5» x = c[p]</title>
<ellipse fill="none" stroke="#000000" cx="113.09" cy="-237" rx="55.4913" ry="18"/>
<text text-anchor="middle" x="113.09" y="-233.3" font-family="Times,serif" font-size="14.00" fill="#000000">#5» x = c[p]</text>
</g>
<!-- #24 CFG_F_START 2_anon&#45;&gt;#5» x = c[p] -->
<g id="edge2" class="edge">
<title>#24 CFG_F_START 2_anon&#45;&gt;#5» x = c[p]</title>
<path fill="none" stroke="#ff0000" d="M113.09,-305.9735C113.09,-294.1918 113.09,-278.5607 113.09,-265.1581"/>
<polygon fill="#ff0000" stroke="#ff0000" points="116.5901,-265.0033 113.09,-255.0034 109.5901,-265.0034 116.5901,-265.0033"/>
</g>
<!-- #9» v1 = eval(x) -->
<g id="node9" class="node">
<title>#9» v1 = eval(x)</title>
<ellipse fill="none" stroke="#000000" cx="113.09" cy="-164" rx="70.3881" ry="18"/>
<text text-anchor="middle" x="113.09" y="-160.3" font-family="Times,serif" font-size="14.00" fill="#000000">#9» v1 = eval(x)</text>
</g>
<!-- #5» x = c[p]&#45;&gt;#9» v1 = eval(x) -->
<g id="edge9" class="edge">
<title>#5» x = c[p]&#45;&gt;#9» v1 = eval(x)</title>
<path fill="none" stroke="#ff0000" d="M113.09,-218.9551C113.09,-210.8828 113.09,-201.1764 113.09,-192.1817"/>
<polygon fill="#ff0000" stroke="#ff0000" points="116.5901,-192.0903 113.09,-182.0904 109.5901,-192.0904 116.5901,-192.0903"/>
</g>
<!-- #26 TAINT_SOURCE -->
<g id="node5" class="node">
<title>#26 TAINT_SOURCE</title>
<ellipse fill="none" stroke="#8b6914" cx="657.09" cy="-411" rx="91.784" ry="18"/>
<text text-anchor="middle" x="657.09" y="-407.3" font-family="Times,serif" font-size="14.00" fill="#8b6914">#26 TAINT_SOURCE</text>
</g>
<!-- #26 TAINT_SOURCE&#45;&gt;#27 24.c&#45;o1 -->
<g id="edge3" class="edge">
<title>#26 TAINT_SOURCE&#45;&gt;#27 24.c&#45;o1</title>
<path fill="none" stroke="#006400" d="M663.7204,-392.9735C668.0968,-381.0751 673.9173,-365.2508 678.8792,-351.7606"/>
<polygon fill="#006400" stroke="#006400" points="682.3008,-352.5969 682.468,-342.0034 675.7311,-350.1804 682.3008,-352.5969"/>
<text text-anchor="middle" x="694.59" y="-363.8" font-family="Times,serif" font-size="14.00" fill="#006400">TAINT</text>
</g>
<!-- #26 TAINT_SOURCE&#45;&gt;#28 24.p&#45;o2 -->
<g id="edge4" class="edge">
<title>#26 TAINT_SOURCE&#45;&gt;#28 24.p&#45;o2</title>
<path fill="none" stroke="#006400" d="M637.8203,-392.9735C623.9566,-380.0043 605.1068,-362.3706 589.9371,-348.1796"/>
<polygon fill="#006400" stroke="#006400" points="592.0795,-345.391 582.3857,-341.1154 587.2974,-350.503 592.0795,-345.391"/>
<text text-anchor="middle" x="636.59" y="-363.8" font-family="Times,serif" font-size="14.00" fill="#006400">TAINT</text>
</g>
<!-- #29 24.c&#45;o1.*&#45;o3 -->
<g id="node10" class="node">
<title>#29 24.c&#45;o1.*&#45;o3</title>
<ellipse fill="none" stroke="#006400" cx="689.09" cy="-237" rx="71.4873" ry="18"/>
<text text-anchor="middle" x="689.09" y="-233.3" font-family="Times,serif" font-size="14.00" fill="#006400">#29 24.c&#45;o1.*&#45;o3</text>
</g>
<!-- #27 24.c&#45;o1&#45;&gt;#29 24.c&#45;o1.*&#45;o3 -->
<g id="edge10" class="edge">
<title>#27 24.c&#45;o1&#45;&gt;#29 24.c&#45;o1.*&#45;o3</title>
<path fill="none" stroke="#006400" d="M689.09,-305.9735C689.09,-294.1918 689.09,-278.5607 689.09,-265.1581"/>
<polygon fill="#006400" stroke="#006400" points="692.5901,-265.0033 689.09,-255.0034 685.5901,-265.0034 692.5901,-265.0033"/>
<text text-anchor="middle" x="706.09" y="-276.8" font-family="Times,serif" font-size="14.00" fill="#006400">SO(*)</text>
</g>
<!-- #23 CFG_F_END __main__ -->
<g id="node11" class="node">
<title>#23 CFG_F_END __main__</title>
<ellipse fill="none" stroke="#ff0000" cx="368.09" cy="-237" rx="113.18" ry="18"/>
<text text-anchor="middle" x="368.09" y="-233.3" font-family="Times,serif" font-size="14.00" fill="#ff0000">#23 CFG_F_END __main__</text>
</g>
<!-- #16» module.exports = f; &#45; (22)&#45;&gt;#23 CFG_F_END __main__ -->
<g id="edge11" class="edge">
<title>#16» module.exports = f; &#45; (22)&#45;&gt;#23 CFG_F_END __main__</title>
<path fill="none" stroke="#ff0000" d="M368.09,-305.9735C368.09,-294.1918 368.09,-278.5607 368.09,-265.1581"/>
<polygon fill="#ff0000" stroke="#ff0000" points="371.5901,-265.0033 368.09,-255.0034 364.5901,-265.0034 371.5901,-265.0033"/>
</g>
<!-- #13» return v1; -->
<g id="node12" class="node">
<title>#13» return v1;</title>
<ellipse fill="none" stroke="#000000" cx="195.09" cy="-91" rx="65.7887" ry="18"/>
<text text-anchor="middle" x="195.09" y="-87.3" font-family="Times,serif" font-size="14.00" fill="#000000">#13» return v1;</text>
</g>
<!-- #9» v1 = eval(x)&#45;&gt;#13» return v1; -->
<g id="edge12" class="edge">
<title>#9» v1 = eval(x)&#45;&gt;#13» return v1;</title>
<path fill="none" stroke="#ff0000" d="M132.5228,-146.7C143.0664,-137.3136 156.2702,-125.5591 167.8273,-115.2704"/>
<polygon fill="#ff0000" stroke="#ff0000" points="170.3706,-117.6923 175.5124,-108.4288 165.7161,-112.4639 170.3706,-117.6923"/>
</g>
<!-- #30 24.v1&#45;o4 -->
<g id="node13" class="node">
<title>#30 24.v1&#45;o4</title>
<ellipse fill="none" stroke="#006400" cx="101.09" cy="-18" rx="57.6901" ry="18"/>
<text text-anchor="middle" x="101.09" y="-14.3" font-family="Times,serif" font-size="14.00" fill="#006400">#30 24.v1&#45;o4</text>
</g>
<!-- #9» v1 = eval(x)&#45;&gt;#30 24.v1&#45;o4 -->
<g id="edge13" class="edge">
<title>#9» v1 = eval(x)&#45;&gt;#30 24.v1&#45;o4</title>
<path fill="none" stroke="#000000" stroke-dasharray="5,2" d="M111.5944,-145.8042C109.5464,-120.8868 105.8484,-75.8938 103.4314,-46.4877"/>
<polygon fill="#000000" stroke="#000000" points="106.9118,-46.1048 102.6044,-36.4251 99.9354,-46.6782 106.9118,-46.1048"/>
</g>
<!-- #13» return v1;&#45;&gt;#30 24.v1&#45;o4 -->
<g id="edge15" class="edge">
<title>#13» return v1;&#45;&gt;#30 24.v1&#45;o4</title>
<path fill="none" stroke="#000000" stroke-dasharray="5,2" d="M172.8133,-73.7C160.3144,-63.9935 144.5546,-51.7544 130.9933,-41.2228"/>
<polygon fill="#000000" stroke="#000000" points="132.9273,-38.2933 122.8825,-34.924 128.6338,-43.8219 132.9273,-38.2933"/>
</g>
<!-- #25 CFG_F_END 2_anon -->
<g id="node14" class="node">
<title>#25 CFG_F_END 2_anon</title>
<ellipse fill="none" stroke="#ff0000" cx="280.09" cy="-18" rx="103.1819" ry="18"/>
<text text-anchor="middle" x="280.09" y="-14.3" font-family="Times,serif" font-size="14.00" fill="#ff0000">#25 CFG_F_END 2_anon</text>
</g>
<!-- #13» return v1;&#45;&gt;#25 CFG_F_END 2_anon -->
<g id="edge14" class="edge">
<title>#13» return v1;&#45;&gt;#25 CFG_F_END 2_anon</title>
<path fill="none" stroke="#ff0000" d="M215.2338,-73.7C226.1877,-64.2926 239.9114,-52.5063 251.9106,-42.2011"/>
<polygon fill="#ff0000" stroke="#ff0000" points="254.1943,-44.8534 259.5003,-35.6829 249.6336,-39.543 254.1943,-44.8534"/>
</g>
</g>
</svg>
