<?xml version="1.0" encoding="UTF-8" standalone="no"?>
<!DOCTYPE svg PUBLIC "-//W3C//DTD SVG 1.1//EN"
 "http://www.w3.org/Graphics/SVG/1.1/DTD/svg11.dtd">
<!-- Generated by graphviz version 2.40.1 (20161225.0304)
 -->
<!-- Title: G Pages: 1 -->
<svg width="1342pt" height="935pt"
 viewBox="0.00 0.00 1341.83 935.00" xmlns="http://www.w3.org/2000/svg" xmlns:xlink="http://www.w3.org/1999/xlink">
<g id="graph0" class="graph" transform="scale(1 1) rotate(0) translate(4 931)">
<title>G</title>
<polygon fill="#ffffff" stroke="transparent" points="-4,4 -4,-931 1337.8299,-931 1337.8299,4 -4,4"/>
<!-- #0 Program (0) -->
<g id="node1" class="node">
<title>#0 Program (0)</title>
<ellipse fill="none" stroke="#000000" cx="659.9908" cy="-909" rx="65.7887" ry="18"/>
<text text-anchor="middle" x="659.9908" y="-905.3" font-family="Times,serif" font-size="14.00" fill="#000000">#0 Program (0)</text>
</g>
<!-- #1 Variable (src) &#45; (21) -->
<g id="node2" class="node">
<title>#1 Variable (src) &#45; (21)</title>
<ellipse fill="none" stroke="#000000" cx="749.9908" cy="-822" rx="92.8835" ry="18"/>
<text text-anchor="middle" x="749.9908" y="-818.3" font-family="Times,serif" font-size="14.00" fill="#000000">#1 Variable (src) &#45; (21)</text>
</g>
<!-- #0 Program (0)&#45;&gt;#1 Variable (src) &#45; (21) -->
<g id="edge1" class="edge">
<title>#0 Program (0)&#45;&gt;#1 Variable (src) &#45; (21)</title>
<path fill="none" stroke="#0000ff" d="M678.2036,-891.3943C691.4129,-878.6252 709.4639,-861.1759 724.1602,-846.9696"/>
<polygon fill="#0000ff" stroke="#0000ff" points="726.7388,-849.3449 731.4961,-839.8782 721.8736,-844.312 726.7388,-849.3449"/>
<text text-anchor="middle" x="714.4908" y="-861.8" font-family="Times,serif" font-size="14.00" fill="#0000ff">1</text>
</g>
<!-- #6 Variable (dest) &#45; (21) -->
<g id="node3" class="node">
<title>#6 Variable (dest) &#45; (21)</title>
<ellipse fill="none" stroke="#000000" cx="503.9908" cy="-735" rx="96.6831" ry="18"/>
<text text-anchor="middle" x="503.9908" y="-731.3" font-family="Times,serif" font-size="14.00" fill="#000000">#6 Variable (dest) &#45; (21)</text>
</g>
<!-- #0 Program (0)&#45;&gt;#6 Variable (dest) &#45; (21) -->
<g id="edge2" class="edge">
<title>#0 Program (0)&#45;&gt;#6 Variable (dest) &#45; (21)</title>
<path fill="none" stroke="#0000ff" d="M636.7364,-891.9753C629.4856,-886.2591 621.6496,-879.6412 614.9908,-873 579.0838,-837.1879 543.3689,-790.2378 522.5037,-761.3676"/>
<polygon fill="#0000ff" stroke="#0000ff" points="525.1916,-759.1097 516.5213,-753.0206 519.5021,-763.1875 525.1916,-759.1097"/>
<text text-anchor="middle" x="587.4908" y="-818.3" font-family="Times,serif" font-size="14.00" fill="#0000ff">2</text>
</g>
<!-- #8 Variable (p) &#45; (21) -->
<g id="node4" class="node">
<title>#8 Variable (p) &#45; (21)</title>
<ellipse fill="none" stroke="#000000" cx="604.9908" cy="-648" rx="87.1846" ry="18"/>
<text text-anchor="middle" x="604.9908" y="-644.3" font-family="Times,serif" font-size="14.00" fill="#000000">#8 Variable (p) &#45; (21)</text>
</g>
<!-- #0 Program (0)&#45;&gt;#8 Variable (p) &#45; (21) -->
<g id="edge3" class="edge">
<title>#0 Program (0)&#45;&gt;#8 Variable (p) &#45; (21)</title>
<path fill="none" stroke="#0000ff" d="M656.1233,-890.647C646.633,-845.6115 622.1478,-729.4178 610.8552,-675.8295"/>
<polygon fill="#0000ff" stroke="#0000ff" points="614.2678,-675.0496 608.781,-665.9862 607.4183,-676.493 614.2678,-675.0496"/>
<text text-anchor="middle" x="637.4908" y="-774.8" font-family="Times,serif" font-size="14.00" fill="#0000ff">3</text>
</g>
<!-- #9 ForInStatement (21) -->
<g id="node5" class="node">
<title>#9 ForInStatement (21)</title>
<ellipse fill="none" stroke="#000000" cx="719.9908" cy="-453" rx="94.4839" ry="18"/>
<text text-anchor="middle" x="719.9908" y="-449.3" font-family="Times,serif" font-size="14.00" fill="#000000">#9 ForInStatement (21)</text>
</g>
<!-- #0 Program (0)&#45;&gt;#9 ForInStatement (21) -->
<g id="edge4" class="edge">
<title>#0 Program (0)&#45;&gt;#9 ForInStatement (21)</title>
<path fill="none" stroke="#0000ff" d="M724.2256,-904.9938C864.5444,-895.3819 1185.9908,-868.309 1185.9908,-822 1185.9908,-822 1185.9908,-822 1185.9908,-540 1185.9908,-502.7147 952.4866,-474.6217 816.0601,-461.39"/>
<polygon fill="#0000ff" stroke="#0000ff" points="816.2942,-457.8965 806.0054,-460.4246 815.6251,-464.8644 816.2942,-457.8965"/>
<text text-anchor="middle" x="1189.4908" y="-687.8" font-family="Times,serif" font-size="14.00" fill="#0000ff">4</text>
</g>
<!-- #1 Variable (src) &#45; (21)&#45;&gt;#6 Variable (dest) &#45; (21) -->
<g id="edge7" class="edge">
<title>#1 Variable (src) &#45; (21)&#45;&gt;#6 Variable (dest) &#45; (21)</title>
<path fill="none" stroke="#ff0000" d="M717.412,-805.0569C695.848,-794.3045 666.7197,-780.6495 639.9908,-771 619.4644,-763.5897 596.6993,-756.9667 575.7587,-751.4842"/>
<polygon fill="#ff0000" stroke="#ff0000" points="576.5194,-748.066 565.963,-748.9666 574.7769,-754.8457 576.5194,-748.066"/>
</g>
<!-- #2 ArrayExpression (21) -->
<g id="node7" class="node">
<title>#2 ArrayExpression (21)</title>
<ellipse fill="none" stroke="#000000" cx="899.9908" cy="-735" rx="98.5829" ry="18"/>
<text text-anchor="middle" x="899.9908" y="-731.3" font-family="Times,serif" font-size="14.00" fill="#000000">#2 ArrayExpression (21)</text>
</g>
<!-- #1 Variable (src) &#45; (21)&#45;&gt;#2 ArrayExpression (21) -->
<g id="edge6" class="edge">
<title>#1 Variable (src) &#45; (21)&#45;&gt;#2 ArrayExpression (21)</title>
<path fill="none" stroke="#0000ff" d="M779.6259,-804.8116C803.0731,-791.2122 835.9956,-772.1172 861.4833,-757.3343"/>
<polygon fill="#0000ff" stroke="#0000ff" points="863.2665,-760.3462 870.1608,-752.3014 859.7545,-754.291 863.2665,-760.3462"/>
<text text-anchor="middle" x="843.4908" y="-774.8" font-family="Times,serif" font-size="14.00" fill="#0000ff">init</text>
</g>
<!-- #24 src&#45;o1 -->
<g id="node8" class="node">
<title>#24 src&#45;o1</title>
<ellipse fill="none" stroke="#006400" cx="719.9908" cy="-540" rx="48.1917" ry="18"/>
<text text-anchor="middle" x="719.9908" y="-536.3" font-family="Times,serif" font-size="14.00" fill="#006400">#24 src&#45;o1</text>
</g>
<!-- #1 Variable (src) &#45; (21)&#45;&gt;#24 src&#45;o1 -->
<g id="edge8" class="edge">
<title>#1 Variable (src) &#45; (21)&#45;&gt;#24 src&#45;o1</title>
<path fill="none" stroke="#006400" d="M748.0685,-803.9306C742.9901,-756.1938 729.185,-626.4254 723.0268,-568.5391"/>
<polygon fill="#006400" stroke="#006400" points="726.4742,-567.8574 721.9359,-558.2838 719.5134,-568.598 726.4742,-567.8574"/>
<text text-anchor="middle" x="773.4908" y="-687.8" font-family="Times,serif" font-size="14.00" fill="#006400">CREATE src</text>
</g>
<!-- #6 Variable (dest) &#45; (21)&#45;&gt;#8 Variable (p) &#45; (21) -->
<g id="edge10" class="edge">
<title>#6 Variable (dest) &#45; (21)&#45;&gt;#8 Variable (p) &#45; (21)</title>
<path fill="none" stroke="#ff0000" d="M524.4296,-717.3943C539.4885,-704.4228 560.1545,-686.6213 576.7848,-672.2962"/>
<polygon fill="#ff0000" stroke="#ff0000" points="579.2899,-674.7579 584.5823,-665.5796 574.7214,-669.4542 579.2899,-674.7579"/>
</g>
<!-- #7 ArrayExpression (21) -->
<g id="node9" class="node">
<title>#7 ArrayExpression (21)</title>
<ellipse fill="none" stroke="#000000" cx="400.9908" cy="-648" rx="98.5829" ry="18"/>
<text text-anchor="middle" x="400.9908" y="-644.3" font-family="Times,serif" font-size="14.00" fill="#000000">#7 ArrayExpression (21)</text>
</g>
<!-- #6 Variable (dest) &#45; (21)&#45;&gt;#7 ArrayExpression (21) -->
<g id="edge9" class="edge">
<title>#6 Variable (dest) &#45; (21)&#45;&gt;#7 ArrayExpression (21)</title>
<path fill="none" stroke="#0000ff" d="M483.1472,-717.3943C467.8912,-704.5081 446.992,-686.8554 430.0905,-672.5794"/>
<polygon fill="#0000ff" stroke="#0000ff" points="432.0549,-669.6571 422.1569,-665.8782 427.5379,-675.0048 432.0549,-669.6571"/>
<text text-anchor="middle" x="468.4908" y="-687.8" font-family="Times,serif" font-size="14.00" fill="#0000ff">init</text>
</g>
<!-- #28 dest&#45;o5 -->
<g id="node10" class="node">
<title>#28 dest&#45;o5</title>
<ellipse fill="none" stroke="#006400" cx="275.9908" cy="-594" rx="51.9908" ry="18"/>
<text text-anchor="middle" x="275.9908" y="-590.3" font-family="Times,serif" font-size="14.00" fill="#006400">#28 dest&#45;o5</text>
</g>
<!-- #6 Variable (dest) &#45; (21)&#45;&gt;#28 dest&#45;o5 -->
<g id="edge11" class="edge">
<title>#6 Variable (dest) &#45; (21)&#45;&gt;#28 dest&#45;o5</title>
<path fill="none" stroke="#006400" d="M438.5872,-721.7011C383.8159,-709.1696 311.6776,-688.9301 292.9908,-666 283.0013,-653.7422 278.6883,-636.6216 276.9023,-622.1508"/>
<polygon fill="#006400" stroke="#006400" points="280.388,-621.8344 276.0034,-612.1894 273.4164,-622.4636 280.388,-621.8344"/>
<text text-anchor="middle" x="392.4908" y="-687.8" font-family="Times,serif" font-size="14.00" fill="#006400">CREATE dest</text>
</g>
<!-- #8 Variable (p) &#45; (21)&#45;&gt;#9 ForInStatement (21) -->
<g id="edge12" class="edge">
<title>#8 Variable (p) &#45; (21)&#45;&gt;#9 ForInStatement (21)</title>
<path fill="none" stroke="#ff0000" d="M618.9105,-629.8853C622.8058,-624.3304 626.8331,-618.0769 629.9908,-612 649.6348,-574.195 641.7867,-558.9526 662.9908,-522 671.9354,-506.4122 684.4331,-490.8246 695.4473,-478.4191"/>
<polygon fill="#ff0000" stroke="#ff0000" points="698.2768,-480.51 702.4188,-470.7583 693.0996,-475.7986 698.2768,-480.51"/>
</g>
<!-- #29 p&#45;o6 -->
<g id="node11" class="node">
<title>#29 p&#45;o6</title>
<ellipse fill="none" stroke="#006400" cx="510.9908" cy="-540" rx="42.4939" ry="18"/>
<text text-anchor="middle" x="510.9908" y="-536.3" font-family="Times,serif" font-size="14.00" fill="#006400">#29 p&#45;o6</text>
</g>
<!-- #8 Variable (p) &#45; (21)&#45;&gt;#29 p&#45;o6 -->
<g id="edge13" class="edge">
<title>#8 Variable (p) &#45; (21)&#45;&gt;#29 p&#45;o6</title>
<path fill="none" stroke="#006400" d="M584.51,-630.3221C578.3423,-624.6787 571.6998,-618.2668 565.9908,-612 552.7445,-597.4594 539.316,-579.9449 529.0439,-565.8312"/>
<polygon fill="#006400" stroke="#006400" points="531.7636,-563.6182 523.0857,-557.5398 526.079,-567.7031 531.7636,-563.6182"/>
<text text-anchor="middle" x="597.9908" y="-590.3" font-family="Times,serif" font-size="14.00" fill="#006400">CREATE p</text>
</g>
<!-- #10 Identifier (p) &#45; (21) -->
<g id="node12" class="node">
<title>#10 Identifier (p) &#45; (21)</title>
<ellipse fill="none" stroke="#000000" cx="664.9908" cy="-366" rx="94.4839" ry="18"/>
<text text-anchor="middle" x="664.9908" y="-362.3" font-family="Times,serif" font-size="14.00" fill="#000000">#10 Identifier (p) &#45; (21)</text>
</g>
<!-- #9 ForInStatement (21)&#45;&gt;#10 Identifier (p) &#45; (21) -->
<g id="edge14" class="edge">
<title>#9 ForInStatement (21)&#45;&gt;#10 Identifier (p) &#45; (21)</title>
<path fill="none" stroke="#0000ff" d="M708.5947,-434.9735C700.8515,-422.7252 690.4782,-406.3165 681.792,-392.5766"/>
<polygon fill="#0000ff" stroke="#0000ff" points="684.6742,-390.5857 676.3722,-384.0034 678.7574,-394.3262 684.6742,-390.5857"/>
<text text-anchor="middle" x="705.4908" y="-405.8" font-family="Times,serif" font-size="14.00" fill="#0000ff">left</text>
</g>
<!-- #9 ForInStatement (21)&#45;&gt;#10 Identifier (p) &#45; (21) -->
<g id="edge17" class="edge">
<title>#9 ForInStatement (21)&#45;&gt;#10 Identifier (p) &#45; (21)</title>
<path fill="none" stroke="#ff0000" d="M700.5865,-435.0464C695.3976,-429.5934 690.0969,-423.3539 685.9908,-417 681.3864,-409.8751 677.4539,-401.5736 674.2796,-393.7633"/>
<polygon fill="#ff0000" stroke="#ff0000" points="677.4925,-392.3649 670.6709,-384.2583 670.9483,-394.8495 677.4925,-392.3649"/>
</g>
<!-- #11 Identifier (src) &#45; (21) -->
<g id="node13" class="node">
<title>#11 Identifier (src) &#45; (21)</title>
<ellipse fill="none" stroke="#000000" cx="1004.9908" cy="-192" rx="100.1823" ry="18"/>
<text text-anchor="middle" x="1004.9908" y="-188.3" font-family="Times,serif" font-size="14.00" fill="#000000">#11 Identifier (src) &#45; (21)</text>
</g>
<!-- #9 ForInStatement (21)&#45;&gt;#11 Identifier (src) &#45; (21) -->
<g id="edge15" class="edge">
<title>#9 ForInStatement (21)&#45;&gt;#11 Identifier (src) &#45; (21)</title>
<path fill="none" stroke="#0000ff" d="M810.694,-448.0828C893.5513,-442.639 1005.2229,-432.525 1018.9908,-417 1067.8417,-361.9146 1037.3375,-266.2893 1017.7258,-219.4504"/>
<polygon fill="#0000ff" stroke="#0000ff" points="1020.9198,-218.0181 1013.7387,-210.2282 1014.4945,-220.796 1020.9198,-218.0181"/>
<text text-anchor="middle" x="1058.9908" y="-318.8" font-family="Times,serif" font-size="14.00" fill="#0000ff">right</text>
</g>
<!-- #20 BlockStatement (21) -->
<g id="node14" class="node">
<title>#20 BlockStatement (21)</title>
<ellipse fill="none" stroke="#000000" cx="876.9908" cy="-366" rx="100.1823" ry="18"/>
<text text-anchor="middle" x="876.9908" y="-362.3" font-family="Times,serif" font-size="14.00" fill="#000000">#20 BlockStatement (21)</text>
</g>
<!-- #9 ForInStatement (21)&#45;&gt;#20 BlockStatement (21) -->
<g id="edge16" class="edge">
<title>#9 ForInStatement (21)&#45;&gt;#20 BlockStatement (21)</title>
<path fill="none" stroke="#0000ff" d="M751.0089,-435.8116C775.6302,-422.1679 810.2338,-402.9927 836.9467,-388.19"/>
<polygon fill="#0000ff" stroke="#0000ff" points="838.9867,-391.0611 846.0371,-383.1527 835.5938,-384.9383 838.9867,-391.0611"/>
<text text-anchor="middle" x="821.9908" y="-405.8" font-family="Times,serif" font-size="14.00" fill="#0000ff">body</text>
</g>
<!-- #21 CFG_F_START __main__ -->
<g id="node6" class="node">
<title>#21 CFG_F_START __main__</title>
<ellipse fill="none" stroke="#ff0000" cx="1210.9908" cy="-909" rx="122.6784" ry="18"/>
<text text-anchor="middle" x="1210.9908" y="-905.3" font-family="Times,serif" font-size="14.00" fill="#ff0000">#21 CFG_F_START __main__</text>
</g>
<!-- #21 CFG_F_START __main__&#45;&gt;#1 Variable (src) &#45; (21) -->
<g id="edge5" class="edge">
<title>#21 CFG_F_START __main__&#45;&gt;#1 Variable (src) &#45; (21)</title>
<path fill="none" stroke="#ff0000" d="M1135.6398,-894.7798C1050.4288,-878.6987 912.4178,-852.6533 826.6648,-836.4699"/>
<polygon fill="#ff0000" stroke="#ff0000" points="827.2068,-833.0105 816.7312,-834.5953 825.9086,-839.8891 827.2068,-833.0105"/>
</g>
<!-- #3 Literal (21) -->
<g id="node15" class="node">
<title>#3 Literal (21)</title>
<ellipse fill="none" stroke="#000000" cx="809.9908" cy="-648" rx="62.2891" ry="18"/>
<text text-anchor="middle" x="809.9908" y="-644.3" font-family="Times,serif" font-size="14.00" fill="#000000">#3 Literal (21)</text>
</g>
<!-- #2 ArrayExpression (21)&#45;&gt;#3 Literal (21) -->
<g id="edge18" class="edge">
<title>#2 ArrayExpression (21)&#45;&gt;#3 Literal (21)</title>
<path fill="none" stroke="#0000ff" d="M881.3427,-716.9735C868.0139,-704.089 849.9227,-686.6009 835.2925,-672.4583"/>
<polygon fill="#0000ff" stroke="#0000ff" points="837.6233,-669.8435 828.0008,-665.4097 832.7581,-674.8764 837.6233,-669.8435"/>
<text text-anchor="middle" x="864.4908" y="-687.8" font-family="Times,serif" font-size="14.00" fill="#0000ff">0</text>
</g>
<!-- #4 Literal (21) -->
<g id="node16" class="node">
<title>#4 Literal (21)</title>
<ellipse fill="none" stroke="#000000" cx="952.9908" cy="-648" rx="62.2891" ry="18"/>
<text text-anchor="middle" x="952.9908" y="-644.3" font-family="Times,serif" font-size="14.00" fill="#000000">#4 Literal (21)</text>
</g>
<!-- #2 ArrayExpression (21)&#45;&gt;#4 Literal (21) -->
<g id="edge19" class="edge">
<title>#2 ArrayExpression (21)&#45;&gt;#4 Literal (21)</title>
<path fill="none" stroke="#0000ff" d="M910.9724,-716.9735C918.4341,-704.7252 928.4301,-688.3165 936.8005,-674.5766"/>
<polygon fill="#0000ff" stroke="#0000ff" points="939.8096,-676.3644 942.0232,-666.0034 933.8315,-672.7225 939.8096,-676.3644"/>
<text text-anchor="middle" x="933.4908" y="-687.8" font-family="Times,serif" font-size="14.00" fill="#0000ff">1</text>
</g>
<!-- #5 Literal (21) -->
<g id="node17" class="node">
<title>#5 Literal (21)</title>
<ellipse fill="none" stroke="#000000" cx="1095.9908" cy="-648" rx="62.2891" ry="18"/>
<text text-anchor="middle" x="1095.9908" y="-644.3" font-family="Times,serif" font-size="14.00" fill="#000000">#5 Literal (21)</text>
</g>
<!-- #2 ArrayExpression (21)&#45;&gt;#5 Literal (21) -->
<g id="edge20" class="edge">
<title>#2 ArrayExpression (21)&#45;&gt;#5 Literal (21)</title>
<path fill="none" stroke="#0000ff" d="M937.7815,-718.2255C970.6245,-703.6473 1018.1977,-682.5306 1052.5919,-667.2638"/>
<polygon fill="#0000ff" stroke="#0000ff" points="1054.2001,-670.3793 1061.9202,-663.1232 1051.3601,-663.9813 1054.2001,-670.3793"/>
<text text-anchor="middle" x="1013.4908" y="-687.8" font-family="Times,serif" font-size="14.00" fill="#0000ff">2</text>
</g>
<!-- #24 src&#45;o1&#45;&gt;#9 ForInStatement (21) -->
<g id="edge21" class="edge">
<title>#24 src&#45;o1&#45;&gt;#9 ForInStatement (21)</title>
<path fill="none" stroke="#006400" d="M719.9908,-521.9735C719.9908,-510.1918 719.9908,-494.5607 719.9908,-481.1581"/>
<polygon fill="#006400" stroke="#006400" points="723.4909,-481.0033 719.9908,-471.0034 716.4909,-481.0034 723.4909,-481.0033"/>
<text text-anchor="middle" x="744.4908" y="-492.8" font-family="Times,serif" font-size="14.00" fill="#006400">VAR src</text>
</g>
<!-- #12 ExpressionStatement (21) -->
<g id="node18" class="node">
<title>#12 ExpressionStatement (21)</title>
<ellipse fill="none" stroke="#000000" cx="542.9908" cy="-279" rx="118.0794" ry="18"/>
<text text-anchor="middle" x="542.9908" y="-275.3" font-family="Times,serif" font-size="14.00" fill="#000000">#12 ExpressionStatement (21)</text>
</g>
<!-- #24 src&#45;o1&#45;&gt;#12 ExpressionStatement (21) -->
<g id="edge22" class="edge">
<title>#24 src&#45;o1&#45;&gt;#12 ExpressionStatement (21)</title>
<path fill="none" stroke="#006400" d="M673.6791,-534.6916C634.8643,-529.2376 583.6572,-519.3531 569.9908,-504 544.6618,-475.5449 542.2035,-361.383 542.5082,-307.4685"/>
<polygon fill="#006400" stroke="#006400" points="546.0102,-307.2633 542.604,-297.231 539.0105,-307.1978 546.0102,-307.2633"/>
<text text-anchor="middle" x="583.4908" y="-405.8" font-family="Times,serif" font-size="14.00" fill="#006400">UNKNOWN</text>
</g>
<!-- #31 dest&#45;o7 -->
<g id="node19" class="node">
<title>#31 dest&#45;o7</title>
<ellipse fill="none" stroke="#006400" cx="336.9908" cy="-192" rx="51.9908" ry="18"/>
<text text-anchor="middle" x="336.9908" y="-188.3" font-family="Times,serif" font-size="14.00" fill="#006400">#31 dest&#45;o7</text>
</g>
<!-- #28 dest&#45;o5&#45;&gt;#31 dest&#45;o7 -->
<g id="edge23" class="edge">
<title>#28 dest&#45;o5&#45;&gt;#31 dest&#45;o7</title>
<path fill="none" stroke="#006400" d="M276.8909,-575.6758C277.7745,-556.0837 278.9908,-524.1042 278.9908,-496.5 278.9908,-496.5 278.9908,-496.5 278.9908,-279 278.9908,-254.8197 294.6936,-232.2484 309.758,-216.1583"/>
<polygon fill="#006400" stroke="#006400" points="312.4894,-218.3738 317.0305,-208.8014 307.5112,-213.4527 312.4894,-218.3738"/>
<text text-anchor="middle" x="342.4908" y="-405.8" font-family="Times,serif" font-size="14.00" fill="#006400">NEW_VERSION * (p)</text>
</g>
<!-- #29 p&#45;o6&#45;&gt;#9 ForInStatement (21) -->
<g id="edge24" class="edge">
<title>#29 p&#45;o6&#45;&gt;#9 ForInStatement (21)</title>
<path fill="none" stroke="#006400" d="M531.7796,-524.0752C547.1566,-512.9362 568.9891,-498.4217 589.9908,-489 607.9133,-480.9596 628.0474,-474.3233 647.0197,-469.0342"/>
<polygon fill="#006400" stroke="#006400" points="648.0742,-472.3749 656.8173,-466.3908 646.2508,-465.6166 648.0742,-472.3749"/>
<text text-anchor="middle" x="609.9908" y="-492.8" font-family="Times,serif" font-size="14.00" fill="#006400">VAR p</text>
</g>
<!-- #29 p&#45;o6&#45;&gt;#12 ExpressionStatement (21) -->
<g id="edge25" class="edge">
<title>#29 p&#45;o6&#45;&gt;#12 ExpressionStatement (21)</title>
<path fill="none" stroke="#006400" d="M491.1955,-523.905C463.6568,-499.4268 418.4887,-450.5402 430.9908,-402 442.0056,-359.2344 447.8927,-346.3549 478.9908,-315 483.8764,-310.0741 489.5771,-305.6155 495.5255,-301.6484"/>
<polygon fill="#006400" stroke="#006400" points="497.6876,-304.4266 504.3519,-296.1903 494.0059,-298.473 497.6876,-304.4266"/>
<text text-anchor="middle" x="450.9908" y="-405.8" font-family="Times,serif" font-size="14.00" fill="#006400">VAR p</text>
</g>
<!-- #29 p&#45;o6&#45;&gt;#12 ExpressionStatement (21) -->
<g id="edge26" class="edge">
<title>#29 p&#45;o6&#45;&gt;#12 ExpressionStatement (21)</title>
<path fill="none" stroke="#006400" d="M505.2208,-522.0166C497.5343,-495.562 485.8038,-444.6727 493.9908,-402 500.6054,-367.5227 516.7676,-330.405 528.7311,-306.0685"/>
<polygon fill="#006400" stroke="#006400" points="531.8806,-307.5958 533.2413,-297.0887 525.6253,-304.454 531.8806,-307.5958"/>
<text text-anchor="middle" x="513.9908" y="-405.8" font-family="Times,serif" font-size="14.00" fill="#006400">VAR p</text>
</g>
<!-- #10 Identifier (p) &#45; (21)&#45;&gt;#12 ExpressionStatement (21) -->
<g id="edge27" class="edge">
<title>#10 Identifier (p) &#45; (21)&#45;&gt;#12 ExpressionStatement (21)</title>
<path fill="none" stroke="#ff0000" d="M640.5955,-348.6033C622.0988,-335.4131 596.4765,-317.1415 576.1251,-302.6286"/>
<polygon fill="#ff0000" stroke="#ff0000" points="577.936,-299.6212 567.762,-296.6647 573.8717,-305.3205 577.936,-299.6212"/>
</g>
<!-- #11 Identifier (src) &#45; (21)&#45;&gt;#9 ForInStatement (21) -->
<g id="edge28" class="edge">
<title>#11 Identifier (src) &#45; (21)&#45;&gt;#9 ForInStatement (21)</title>
<path fill="none" stroke="#ff0000" d="M1009.324,-210.1898C1017.0779,-247.6318 1028.7852,-333.991 985.9908,-384 962.7821,-411.1213 875.8192,-430.1118 807.5649,-441.2103"/>
<polygon fill="#ff0000" stroke="#ff0000" points="806.9654,-437.7615 797.6402,-442.7905 808.0662,-444.6745 806.9654,-437.7615"/>
</g>
<!-- #23 FOR_END (21) -->
<g id="node20" class="node">
<title>#23 FOR_END (21)</title>
<ellipse fill="none" stroke="#ff0000" cx="1004.9908" cy="-105" rx="83.3857" ry="18"/>
<text text-anchor="middle" x="1004.9908" y="-101.3" font-family="Times,serif" font-size="14.00" fill="#ff0000">#23 FOR_END (21)</text>
</g>
<!-- #11 Identifier (src) &#45; (21)&#45;&gt;#23 FOR_END (21) -->
<g id="edge29" class="edge">
<title>#11 Identifier (src) &#45; (21)&#45;&gt;#23 FOR_END (21)</title>
<path fill="none" stroke="#ff0000" d="M1004.9908,-173.9735C1004.9908,-162.1918 1004.9908,-146.5607 1004.9908,-133.1581"/>
<polygon fill="#ff0000" stroke="#ff0000" points="1008.4909,-133.0033 1004.9908,-123.0034 1001.4909,-133.0034 1008.4909,-133.0033"/>
</g>
<!-- #20 BlockStatement (21)&#45;&gt;#12 ExpressionStatement (21) -->
<g id="edge30" class="edge">
<title>#20 BlockStatement (21)&#45;&gt;#12 ExpressionStatement (21)</title>
<path fill="none" stroke="#0000ff" d="M819.9536,-351.143C762.682,-336.225 674.3498,-313.2163 612.8955,-297.2087"/>
<polygon fill="#0000ff" stroke="#0000ff" points="613.4513,-293.7368 602.8919,-294.603 611.6867,-300.5107 613.4513,-293.7368"/>
<text text-anchor="middle" x="733.4908" y="-318.8" font-family="Times,serif" font-size="14.00" fill="#0000ff">1</text>
</g>
<!-- #12 ExpressionStatement (21)&#45;&gt;#11 Identifier (src) &#45; (21) -->
<g id="edge32" class="edge">
<title>#12 ExpressionStatement (21)&#45;&gt;#11 Identifier (src) &#45; (21)</title>
<path fill="none" stroke="#ff0000" d="M617.4756,-264.9736C701.9301,-249.0699 839.0806,-223.2428 925.5383,-206.9618"/>
<polygon fill="#ff0000" stroke="#ff0000" points="926.3835,-210.3643 935.563,-205.0741 925.088,-203.4852 926.3835,-210.3643"/>
</g>
<!-- #12 ExpressionStatement (21)&#45;&gt;#31 dest&#45;o7 -->
<g id="edge33" class="edge">
<title>#12 ExpressionStatement (21)&#45;&gt;#31 dest&#45;o7</title>
<path fill="none" stroke="#006400" d="M502.7829,-262.019C467.2055,-246.9936 415.4655,-225.1422 379.2762,-209.8584"/>
<polygon fill="#006400" stroke="#006400" points="380.5434,-206.5943 369.9695,-205.9279 377.8199,-213.0428 380.5434,-206.5943"/>
<text text-anchor="middle" x="489.9908" y="-231.8" font-family="Times,serif" font-size="14.00" fill="#006400">WRITE * (p)</text>
</g>
<!-- #13 AssignmentExpression (21) -->
<g id="node21" class="node">
<title>#13 AssignmentExpression (21)</title>
<ellipse fill="none" stroke="#000000" cx="542.9908" cy="-192" rx="124.5782" ry="18"/>
<text text-anchor="middle" x="542.9908" y="-188.3" font-family="Times,serif" font-size="14.00" fill="#000000">#13 AssignmentExpression (21)</text>
</g>
<!-- #12 ExpressionStatement (21)&#45;&gt;#13 AssignmentExpression (21) -->
<g id="edge31" class="edge">
<title>#12 ExpressionStatement (21)&#45;&gt;#13 AssignmentExpression (21)</title>
<path fill="none" stroke="#0000ff" d="M542.9908,-260.9735C542.9908,-249.1918 542.9908,-233.5607 542.9908,-220.1581"/>
<polygon fill="#0000ff" stroke="#0000ff" points="546.4909,-220.0033 542.9908,-210.0034 539.4909,-220.0034 546.4909,-220.0033"/>
<text text-anchor="middle" x="571.9908" y="-231.8" font-family="Times,serif" font-size="14.00" fill="#0000ff">expression</text>
</g>
<!-- #22 CFG_F_END __main__ -->
<g id="node22" class="node">
<title>#22 CFG_F_END __main__</title>
<ellipse fill="none" stroke="#ff0000" cx="1004.9908" cy="-18" rx="113.18" ry="18"/>
<text text-anchor="middle" x="1004.9908" y="-14.3" font-family="Times,serif" font-size="14.00" fill="#ff0000">#22 CFG_F_END __main__</text>
</g>
<!-- #23 FOR_END (21)&#45;&gt;#22 CFG_F_END __main__ -->
<g id="edge34" class="edge">
<title>#23 FOR_END (21)&#45;&gt;#22 CFG_F_END __main__</title>
<path fill="none" stroke="#ff0000" d="M1004.9908,-86.9735C1004.9908,-75.1918 1004.9908,-59.5607 1004.9908,-46.1581"/>
<polygon fill="#ff0000" stroke="#ff0000" points="1008.4909,-46.0033 1004.9908,-36.0034 1001.4909,-46.0034 1008.4909,-46.0033"/>
</g>
<!-- #14 MemberExpression (21) -->
<g id="node23" class="node">
<title>#14 MemberExpression (21)</title>
<ellipse fill="none" stroke="#000000" cx="314.9908" cy="-105" rx="113.18" ry="18"/>
<text text-anchor="middle" x="314.9908" y="-101.3" font-family="Times,serif" font-size="14.00" fill="#000000">#14 MemberExpression (21)</text>
</g>
<!-- #13 AssignmentExpression (21)&#45;&gt;#14 MemberExpression (21) -->
<g id="edge35" class="edge">
<title>#13 AssignmentExpression (21)&#45;&gt;#14 MemberExpression (21)</title>
<path fill="none" stroke="#0000ff" d="M498.7597,-175.1224C461.4336,-160.8795 407.8932,-140.4496 368.2239,-125.3126"/>
<polygon fill="#0000ff" stroke="#0000ff" points="369.3019,-121.9779 358.7112,-121.6828 366.8063,-128.5179 369.3019,-121.9779"/>
<text text-anchor="middle" x="452.4908" y="-144.8" font-family="Times,serif" font-size="14.00" fill="#0000ff">left</text>
</g>
<!-- #17 MemberExpression (21) -->
<g id="node24" class="node">
<title>#17 MemberExpression (21)</title>
<ellipse fill="none" stroke="#000000" cx="558.9908" cy="-105" rx="113.18" ry="18"/>
<text text-anchor="middle" x="558.9908" y="-101.3" font-family="Times,serif" font-size="14.00" fill="#000000">#17 MemberExpression (21)</text>
</g>
<!-- #13 AssignmentExpression (21)&#45;&gt;#17 MemberExpression (21) -->
<g id="edge36" class="edge">
<title>#13 AssignmentExpression (21)&#45;&gt;#17 MemberExpression (21)</title>
<path fill="none" stroke="#0000ff" d="M546.306,-173.9735C548.4727,-162.1918 551.3474,-146.5607 553.8123,-133.1581"/>
<polygon fill="#0000ff" stroke="#0000ff" points="557.3133,-133.4715 555.6798,-123.0034 550.4287,-132.2053 557.3133,-133.4715"/>
<text text-anchor="middle" x="564.9908" y="-144.8" font-family="Times,serif" font-size="14.00" fill="#0000ff">right</text>
</g>
<!-- #15 Identifier (dest) &#45; (21) -->
<g id="node25" class="node">
<title>#15 Identifier (dest) &#45; (21)</title>
<ellipse fill="none" stroke="#000000" cx="103.9908" cy="-18" rx="103.9815" ry="18"/>
<text text-anchor="middle" x="103.9908" y="-14.3" font-family="Times,serif" font-size="14.00" fill="#000000">#15 Identifier (dest) &#45; (21)</text>
</g>
<!-- #14 MemberExpression (21)&#45;&gt;#15 Identifier (dest) &#45; (21) -->
<g id="edge37" class="edge">
<title>#14 MemberExpression (21)&#45;&gt;#15 Identifier (dest) &#45; (21)</title>
<path fill="none" stroke="#0000ff" d="M274.0577,-88.1224C239.7337,-73.9698 190.5942,-53.7085 153.9548,-38.6013"/>
<polygon fill="#0000ff" stroke="#0000ff" points="155.0305,-35.259 144.4513,-34.6828 152.3621,-41.7305 155.0305,-35.259"/>
<text text-anchor="middle" x="239.9908" y="-57.8" font-family="Times,serif" font-size="14.00" fill="#0000ff">object</text>
</g>
<!-- #16 Identifier (p) &#45; (21) -->
<g id="node26" class="node">
<title>#16 Identifier (p) &#45; (21)</title>
<ellipse fill="none" stroke="#000000" cx="319.9908" cy="-18" rx="94.4839" ry="18"/>
<text text-anchor="middle" x="319.9908" y="-14.3" font-family="Times,serif" font-size="14.00" fill="#000000">#16 Identifier (p) &#45; (21)</text>
</g>
<!-- #14 MemberExpression (21)&#45;&gt;#16 Identifier (p) &#45; (21) -->
<g id="edge38" class="edge">
<title>#14 MemberExpression (21)&#45;&gt;#16 Identifier (p) &#45; (21)</title>
<path fill="none" stroke="#0000ff" d="M316.0268,-86.9735C316.7039,-75.1918 317.6022,-59.5607 318.3725,-46.1581"/>
<polygon fill="#0000ff" stroke="#0000ff" points="321.8765,-46.1877 318.9561,-36.0034 314.888,-45.786 321.8765,-46.1877"/>
<text text-anchor="middle" x="340.9908" y="-57.8" font-family="Times,serif" font-size="14.00" fill="#0000ff">property</text>
</g>
<!-- #18 Identifier (src) &#45; (21) -->
<g id="node27" class="node">
<title>#18 Identifier (src) &#45; (21)</title>
<ellipse fill="none" stroke="#000000" cx="547.9908" cy="-18" rx="100.1823" ry="18"/>
<text text-anchor="middle" x="547.9908" y="-14.3" font-family="Times,serif" font-size="14.00" fill="#000000">#18 Identifier (src) &#45; (21)</text>
</g>
<!-- #17 MemberExpression (21)&#45;&gt;#18 Identifier (src) &#45; (21) -->
<g id="edge39" class="edge">
<title>#17 MemberExpression (21)&#45;&gt;#18 Identifier (src) &#45; (21)</title>
<path fill="none" stroke="#0000ff" d="M556.7116,-86.9735C555.2219,-75.1918 553.2456,-59.5607 551.551,-46.1581"/>
<polygon fill="#0000ff" stroke="#0000ff" points="554.9939,-45.4853 550.2671,-36.0034 548.0492,-46.3634 554.9939,-45.4853"/>
<text text-anchor="middle" x="571.9908" y="-57.8" font-family="Times,serif" font-size="14.00" fill="#0000ff">object</text>
</g>
<!-- #19 Identifier (p) &#45; (21) -->
<g id="node28" class="node">
<title>#19 Identifier (p) &#45; (21)</title>
<ellipse fill="none" stroke="#000000" cx="759.9908" cy="-18" rx="94.4839" ry="18"/>
<text text-anchor="middle" x="759.9908" y="-14.3" font-family="Times,serif" font-size="14.00" fill="#000000">#19 Identifier (p) &#45; (21)</text>
</g>
<!-- #17 MemberExpression (21)&#45;&gt;#19 Identifier (p) &#45; (21) -->
<g id="edge40" class="edge">
<title>#17 MemberExpression (21)&#45;&gt;#19 Identifier (p) &#45; (21)</title>
<path fill="none" stroke="#0000ff" d="M598.2228,-88.019C630.9091,-73.8712 677.5776,-53.6714 712.3957,-38.6009"/>
<polygon fill="#0000ff" stroke="#0000ff" points="714.0935,-41.6798 721.8804,-34.4955 711.3129,-35.2558 714.0935,-41.6798"/>
<text text-anchor="middle" x="694.9908" y="-57.8" font-family="Times,serif" font-size="14.00" fill="#0000ff">property</text>
</g>
</g>
</svg>
