<?xml version="1.0" encoding="UTF-8" standalone="no"?>
<!DOCTYPE svg PUBLIC "-//W3C//DTD SVG 1.1//EN"
 "http://www.w3.org/Graphics/SVG/1.1/DTD/svg11.dtd">
<!-- Generated by graphviz version 2.40.1 (20161225.0304)
 -->
<!-- Title: G Pages: 1 -->
<svg width="824pt" height="566pt"
 viewBox="0.00 0.00 823.89 566.00" xmlns="http://www.w3.org/2000/svg" xmlns:xlink="http://www.w3.org/1999/xlink">
<g id="graph0" class="graph" transform="scale(1 1) rotate(0) translate(4 562)">
<title>G</title>
<polygon fill="#ffffff" stroke="transparent" points="-4,4 -4,-562 819.8916,-562 819.8916,4 -4,4"/>
<!-- #0 Program -->
<g id="node1" class="node">
<title>#0 Program</title>
<ellipse fill="none" stroke="#000000" cx="566.3956" cy="-540" rx="52.7911" ry="18"/>
<text text-anchor="middle" x="566.3956" y="-536.3" font-family="Times,serif" font-size="14.00" fill="#000000">#0 Program</text>
</g>
<!-- #1 Variable (x) -->
<g id="node2" class="node">
<title>#1 Variable (x)</title>
<ellipse fill="none" stroke="#000000" cx="340.3956" cy="-453" rx="64.9885" ry="18"/>
<text text-anchor="middle" x="340.3956" y="-449.3" font-family="Times,serif" font-size="14.00" fill="#000000">#1 Variable (x)</text>
</g>
<!-- #0 Program&#45;&gt;#1 Variable (x) -->
<g id="edge1" class="edge">
<title>#0 Program&#45;&gt;#1 Variable (x)</title>
<path fill="none" stroke="#0000ff" d="M531.0831,-526.4063C492.534,-511.5665 430.6058,-487.7269 387.835,-471.2621"/>
<polygon fill="#0000ff" stroke="#0000ff" points="389.0677,-467.9863 378.4779,-467.66 386.5529,-474.5189 389.0677,-467.9863"/>
<text text-anchor="middle" x="470.8956" y="-492.8" font-family="Times,serif" font-size="14.00" fill="#0000ff">1</text>
</g>
<!-- #5 Variable (a) -->
<g id="node3" class="node">
<title>#5 Variable (a)</title>
<ellipse fill="none" stroke="#000000" cx="562.3956" cy="-279" rx="64.189" ry="18"/>
<text text-anchor="middle" x="562.3956" y="-275.3" font-family="Times,serif" font-size="14.00" fill="#000000">#5 Variable (a)</text>
</g>
<!-- #0 Program&#45;&gt;#5 Variable (a) -->
<g id="edge2" class="edge">
<title>#0 Program&#45;&gt;#5 Variable (a)</title>
<path fill="none" stroke="#0000ff" d="M566.1143,-521.647C565.4272,-476.8139 563.6594,-361.4607 562.8333,-307.5557"/>
<polygon fill="#0000ff" stroke="#0000ff" points="566.3295,-307.2779 562.6766,-297.3327 559.3303,-307.3852 566.3295,-307.2779"/>
<text text-anchor="middle" x="567.8956" y="-405.8" font-family="Times,serif" font-size="14.00" fill="#0000ff">2</text>
</g>
<!-- #9 Variable (b) -->
<g id="node4" class="node">
<title>#9 Variable (b)</title>
<ellipse fill="none" stroke="#000000" cx="427.3956" cy="-192" rx="64.9885" ry="18"/>
<text text-anchor="middle" x="427.3956" y="-188.3" font-family="Times,serif" font-size="14.00" fill="#000000">#9 Variable (b)</text>
</g>
<!-- #0 Program&#45;&gt;#9 Variable (b) -->
<g id="edge3" class="edge">
<title>#0 Program&#45;&gt;#9 Variable (b)</title>
<path fill="none" stroke="#0000ff" d="M597.1737,-525.3285C622.5504,-510.8478 654.3956,-486.0848 654.3956,-453 654.3956,-453 654.3956,-453 654.3956,-279 654.3956,-253.5577 648.8288,-243.1589 628.3956,-228 625.6048,-225.9296 550.7948,-212.8846 493.2555,-203.0888"/>
<polygon fill="#0000ff" stroke="#0000ff" points="493.5424,-199.5874 483.0973,-201.3625 492.3696,-206.4885 493.5424,-199.5874"/>
<text text-anchor="middle" x="657.8956" y="-362.3" font-family="Times,serif" font-size="14.00" fill="#0000ff">3</text>
</g>
<!-- #1 Variable (x)&#45;&gt;#5 Variable (a) -->
<g id="edge6" class="edge">
<title>#1 Variable (x)&#45;&gt;#5 Variable (a)</title>
<path fill="none" stroke="#ff0000" d="M396.3942,-443.7847C417.4883,-438.4095 440.8414,-430.0147 459.3956,-417 500.6514,-388.0614 532.2336,-337.4016 548.9948,-306.1715"/>
<polygon fill="#ff0000" stroke="#ff0000" points="552.1807,-307.632 553.715,-297.1488 545.9782,-304.3871 552.1807,-307.632"/>
</g>
<!-- #2 ArrayExpression -->
<g id="node6" class="node">
<title>#2 ArrayExpression</title>
<ellipse fill="none" stroke="#000000" cx="290.3956" cy="-366" rx="81.4863" ry="18"/>
<text text-anchor="middle" x="290.3956" y="-362.3" font-family="Times,serif" font-size="14.00" fill="#000000">#2 ArrayExpression</text>
</g>
<!-- #1 Variable (x)&#45;&gt;#2 ArrayExpression -->
<g id="edge5" class="edge">
<title>#1 Variable (x)&#45;&gt;#2 ArrayExpression</title>
<path fill="none" stroke="#0000ff" d="M330.0356,-434.9735C323.0633,-422.8418 313.7454,-406.6287 305.8955,-392.9698"/>
<polygon fill="#0000ff" stroke="#0000ff" points="308.7598,-390.9295 300.7424,-384.0034 302.6907,-394.4175 308.7598,-390.9295"/>
<text text-anchor="middle" x="327.8956" y="-405.8" font-family="Times,serif" font-size="14.00" fill="#0000ff">init</text>
</g>
<!-- #15 x.1&#45;o3 -->
<g id="node7" class="node">
<title>#15 x.1&#45;o3</title>
<ellipse fill="none" stroke="#006400" cx="49.3956" cy="-105" rx="49.2915" ry="18"/>
<text text-anchor="middle" x="49.3956" y="-101.3" font-family="Times,serif" font-size="14.00" fill="#006400">#15 x.1&#45;o3</text>
</g>
<!-- #1 Variable (x)&#45;&gt;#15 x.1&#45;o3 -->
<g id="edge7" class="edge">
<title>#1 Variable (x)&#45;&gt;#15 x.1&#45;o3</title>
<path fill="none" stroke="#006400" d="M278.682,-447.0975C193.2616,-437.1893 49.3956,-413.4573 49.3956,-366 49.3956,-366 49.3956,-366 49.3956,-192 49.3956,-172.5475 49.3956,-150.6484 49.3956,-133.6877"/>
<polygon fill="#006400" stroke="#006400" points="52.8957,-133.3305 49.3956,-123.3306 45.8957,-133.3306 52.8957,-133.3305"/>
<text text-anchor="middle" x="86.3956" y="-275.3" font-family="Times,serif" font-size="14.00" fill="#006400">CREATE x.1</text>
</g>
<!-- #16 x.0&#45;o2 -->
<g id="node8" class="node">
<title>#16 x.0&#45;o2</title>
<ellipse fill="none" stroke="#006400" cx="230.3956" cy="-192" rx="49.2915" ry="18"/>
<text text-anchor="middle" x="230.3956" y="-188.3" font-family="Times,serif" font-size="14.00" fill="#006400">#16 x.0&#45;o2</text>
</g>
<!-- #1 Variable (x)&#45;&gt;#16 x.0&#45;o2 -->
<g id="edge8" class="edge">
<title>#1 Variable (x)&#45;&gt;#16 x.0&#45;o2</title>
<path fill="none" stroke="#006400" d="M295.4251,-439.8368C265.2457,-429.0354 226.4012,-411.0589 200.3956,-384 182.1966,-365.0639 184.1329,-355.098 176.3956,-330 167.3271,-300.5837 159.6131,-289.8322 170.3956,-261 176.8885,-243.6381 189.9409,-227.7594 202.2182,-215.6229"/>
<polygon fill="#006400" stroke="#006400" points="204.823,-217.9773 209.6968,-208.57 200.0203,-212.8847 204.823,-217.9773"/>
<text text-anchor="middle" x="213.3956" y="-318.8" font-family="Times,serif" font-size="14.00" fill="#006400">CREATE x.0</text>
</g>
<!-- #17 x&#45;o1 -->
<g id="node9" class="node">
<title>#17 x&#45;o1</title>
<ellipse fill="none" stroke="#006400" cx="431.3956" cy="-366" rx="42.4939" ry="18"/>
<text text-anchor="middle" x="431.3956" y="-362.3" font-family="Times,serif" font-size="14.00" fill="#006400">#17 x&#45;o1</text>
</g>
<!-- #1 Variable (x)&#45;&gt;#17 x&#45;o1 -->
<g id="edge9" class="edge">
<title>#1 Variable (x)&#45;&gt;#17 x&#45;o1</title>
<path fill="none" stroke="#006400" d="M358.8108,-435.3943C372.5207,-422.287 391.3889,-404.2482 406.4516,-389.8476"/>
<polygon fill="#006400" stroke="#006400" points="409.1245,-392.1343 413.934,-382.694 404.2872,-387.0746 409.1245,-392.1343"/>
<text text-anchor="middle" x="423.3956" y="-405.8" font-family="Times,serif" font-size="14.00" fill="#006400">CREATE x</text>
</g>
<!-- #5 Variable (a)&#45;&gt;#9 Variable (b) -->
<g id="edge11" class="edge">
<title>#5 Variable (a)&#45;&gt;#9 Variable (b)</title>
<path fill="none" stroke="#ff0000" d="M548.8182,-261.111C539.9545,-250.39 527.6056,-237.1156 514.3956,-228 503.8858,-220.7477 491.6891,-214.5693 479.8137,-209.4847"/>
<polygon fill="#ff0000" stroke="#ff0000" points="480.9782,-206.1798 470.3971,-205.6419 478.3333,-212.6609 480.9782,-206.1798"/>
</g>
<!-- #5 Variable (a)&#45;&gt;#16 x.0&#45;o2 -->
<g id="edge12" class="edge">
<title>#5 Variable (a)&#45;&gt;#16 x.0&#45;o2</title>
<path fill="none" stroke="#000000" d="M515.1807,-266.6274C452.9859,-250.3294 344.0739,-221.7892 280.4797,-205.1244"/>
<polygon fill="#000000" stroke="#000000" points="281.237,-201.7048 270.6764,-202.5555 279.4625,-208.4762 281.237,-201.7048"/>
<text text-anchor="middle" x="433.8956" y="-231.8" font-family="Times,serif" font-size="14.00" fill="#000000">REF a</text>
</g>
<!-- #6 MemberExpression -->
<g id="node10" class="node">
<title>#6 MemberExpression</title>
<ellipse fill="none" stroke="#000000" cx="639.3956" cy="-192" rx="91.784" ry="18"/>
<text text-anchor="middle" x="639.3956" y="-188.3" font-family="Times,serif" font-size="14.00" fill="#000000">#6 MemberExpression</text>
</g>
<!-- #5 Variable (a)&#45;&gt;#6 MemberExpression -->
<g id="edge10" class="edge">
<title>#5 Variable (a)&#45;&gt;#6 MemberExpression</title>
<path fill="none" stroke="#0000ff" d="M577.9777,-261.3943C589.0717,-248.8595 604.1573,-231.8147 616.6011,-217.7548"/>
<polygon fill="#0000ff" stroke="#0000ff" points="619.5657,-219.6862 623.5724,-209.8782 614.3239,-215.0468 619.5657,-219.6862"/>
<text text-anchor="middle" x="614.8956" y="-231.8" font-family="Times,serif" font-size="14.00" fill="#0000ff">init</text>
</g>
<!-- #9 Variable (b)&#45;&gt;#15 x.1&#45;o3 -->
<g id="edge15" class="edge">
<title>#9 Variable (b)&#45;&gt;#15 x.1&#45;o3</title>
<path fill="none" stroke="#000000" d="M373.7366,-181.8095C310.0836,-169.3951 200.9324,-147.0792 108.3956,-123 104.5415,-121.9971 100.5621,-120.9058 96.5752,-119.7728"/>
<polygon fill="#000000" stroke="#000000" points="97.2963,-116.3374 86.7163,-116.8976 95.3364,-123.0574 97.2963,-116.3374"/>
<text text-anchor="middle" x="266.3956" y="-144.8" font-family="Times,serif" font-size="14.00" fill="#000000">REF b</text>
</g>
<!-- #10 MemberExpression -->
<g id="node11" class="node">
<title>#10 MemberExpression</title>
<ellipse fill="none" stroke="#000000" cx="213.3956" cy="-105" rx="96.3833" ry="18"/>
<text text-anchor="middle" x="213.3956" y="-101.3" font-family="Times,serif" font-size="14.00" fill="#000000">#10 MemberExpression</text>
</g>
<!-- #9 Variable (b)&#45;&gt;#10 MemberExpression -->
<g id="edge13" class="edge">
<title>#9 Variable (b)&#45;&gt;#10 MemberExpression</title>
<path fill="none" stroke="#0000ff" d="M390.6077,-177.0442C355.4644,-162.7569 302.229,-141.1145 263.2785,-125.2795"/>
<polygon fill="#0000ff" stroke="#0000ff" points="264.2852,-121.9106 253.7034,-121.3868 261.6489,-128.3952 264.2852,-121.9106"/>
<text text-anchor="middle" x="342.8956" y="-144.8" font-family="Times,serif" font-size="14.00" fill="#0000ff">init</text>
</g>
<!-- #14 CFG_F_END __main__ -->
<g id="node12" class="node">
<title>#14 CFG_F_END __main__</title>
<ellipse fill="none" stroke="#ff0000" cx="440.3956" cy="-105" rx="113.18" ry="18"/>
<text text-anchor="middle" x="440.3956" y="-101.3" font-family="Times,serif" font-size="14.00" fill="#ff0000">#14 CFG_F_END __main__</text>
</g>
<!-- #9 Variable (b)&#45;&gt;#14 CFG_F_END __main__ -->
<g id="edge14" class="edge">
<title>#9 Variable (b)&#45;&gt;#14 CFG_F_END __main__</title>
<path fill="none" stroke="#ff0000" d="M430.0892,-173.9735C431.8497,-162.1918 434.1854,-146.5607 436.1881,-133.1581"/>
<polygon fill="#ff0000" stroke="#ff0000" points="439.6891,-133.4108 437.7055,-123.0034 432.766,-132.3763 439.6891,-133.4108"/>
</g>
<!-- #13 CFG_F_START __main__ -->
<g id="node5" class="node">
<title>#13 CFG_F_START __main__</title>
<ellipse fill="none" stroke="#ff0000" cx="340.3956" cy="-540" rx="122.6784" ry="18"/>
<text text-anchor="middle" x="340.3956" y="-536.3" font-family="Times,serif" font-size="14.00" fill="#ff0000">#13 CFG_F_START __main__</text>
</g>
<!-- #13 CFG_F_START __main__&#45;&gt;#1 Variable (x) -->
<g id="edge4" class="edge">
<title>#13 CFG_F_START __main__&#45;&gt;#1 Variable (x)</title>
<path fill="none" stroke="#ff0000" d="M340.3956,-521.9735C340.3956,-510.1918 340.3956,-494.5607 340.3956,-481.1581"/>
<polygon fill="#ff0000" stroke="#ff0000" points="343.8957,-481.0033 340.3956,-471.0034 336.8957,-481.0034 343.8957,-481.0033"/>
</g>
<!-- #3 Literal -->
<g id="node13" class="node">
<title>#3 Literal</title>
<ellipse fill="none" stroke="#000000" cx="333.3956" cy="-279" rx="45.4919" ry="18"/>
<text text-anchor="middle" x="333.3956" y="-275.3" font-family="Times,serif" font-size="14.00" fill="#000000">#3 Literal</text>
</g>
<!-- #2 ArrayExpression&#45;&gt;#3 Literal -->
<g id="edge16" class="edge">
<title>#2 ArrayExpression&#45;&gt;#3 Literal</title>
<path fill="none" stroke="#0000ff" d="M299.3052,-347.9735C305.3414,-335.7609 313.4217,-319.4123 320.2005,-305.697"/>
<polygon fill="#0000ff" stroke="#0000ff" points="323.3513,-307.2213 324.6445,-296.7057 317.0759,-304.1197 323.3513,-307.2213"/>
<text text-anchor="middle" x="318.8956" y="-318.8" font-family="Times,serif" font-size="14.00" fill="#0000ff">0</text>
</g>
<!-- #4 Literal -->
<g id="node14" class="node">
<title>#4 Literal</title>
<ellipse fill="none" stroke="#000000" cx="224.3956" cy="-279" rx="45.4919" ry="18"/>
<text text-anchor="middle" x="224.3956" y="-275.3" font-family="Times,serif" font-size="14.00" fill="#000000">#4 Literal</text>
</g>
<!-- #2 ArrayExpression&#45;&gt;#4 Literal -->
<g id="edge17" class="edge">
<title>#2 ArrayExpression&#45;&gt;#4 Literal</title>
<path fill="none" stroke="#0000ff" d="M276.7204,-347.9735C267.2149,-335.4437 254.4067,-318.56 243.8417,-304.6335"/>
<polygon fill="#0000ff" stroke="#0000ff" points="246.4353,-302.2613 237.603,-296.4097 240.8584,-306.492 246.4353,-302.2613"/>
<text text-anchor="middle" x="264.8956" y="-318.8" font-family="Times,serif" font-size="14.00" fill="#0000ff">1</text>
</g>
<!-- #17 x&#45;o1&#45;&gt;#5 Variable (a) -->
<g id="edge18" class="edge">
<title>#17 x&#45;o1&#45;&gt;#5 Variable (a)</title>
<path fill="none" stroke="#006400" d="M433.3173,-347.7776C435.37,-336.9312 439.6154,-323.6419 448.3956,-315 456.6144,-306.9106 479.1787,-299.0607 502.0855,-292.7667"/>
<polygon fill="#006400" stroke="#006400" points="503.1143,-296.115 511.8829,-290.1684 501.3198,-289.3489 503.1143,-296.115"/>
<text text-anchor="middle" x="481.3956" y="-318.8" font-family="Times,serif" font-size="14.00" fill="#006400">LOOKUP 0</text>
</g>
<!-- #17 x&#45;o1&#45;&gt;#9 Variable (b) -->
<g id="edge19" class="edge">
<title>#17 x&#45;o1&#45;&gt;#9 Variable (b)</title>
<path fill="none" stroke="#006400" d="M428.7169,-347.8901C426.8033,-334.0016 424.3973,-314.3366 423.3956,-297 421.8992,-271.1005 423.2997,-241.5737 424.8404,-220.442"/>
<polygon fill="#006400" stroke="#006400" points="428.3494,-220.464 425.6442,-210.2204 421.3709,-219.9152 428.3494,-220.464"/>
<text text-anchor="middle" x="456.3956" y="-275.3" font-family="Times,serif" font-size="14.00" fill="#006400">LOOKUP 1</text>
</g>
<!-- #7 Identifier (x) -->
<g id="node15" class="node">
<title>#7 Identifier (x)</title>
<ellipse fill="none" stroke="#000000" cx="639.3956" cy="-105" rx="67.6881" ry="18"/>
<text text-anchor="middle" x="639.3956" y="-101.3" font-family="Times,serif" font-size="14.00" fill="#000000">#7 Identifier (x)</text>
</g>
<!-- #6 MemberExpression&#45;&gt;#7 Identifier (x) -->
<g id="edge20" class="edge">
<title>#6 MemberExpression&#45;&gt;#7 Identifier (x)</title>
<path fill="none" stroke="#0000ff" d="M639.3956,-173.9735C639.3956,-162.1918 639.3956,-146.5607 639.3956,-133.1581"/>
<polygon fill="#0000ff" stroke="#0000ff" points="642.8957,-133.0033 639.3956,-123.0034 635.8957,-133.0034 642.8957,-133.0033"/>
<text text-anchor="middle" x="656.3956" y="-144.8" font-family="Times,serif" font-size="14.00" fill="#0000ff">object</text>
</g>
<!-- #8 Literal -->
<g id="node16" class="node">
<title>#8 Literal</title>
<ellipse fill="none" stroke="#000000" cx="770.3956" cy="-105" rx="45.4919" ry="18"/>
<text text-anchor="middle" x="770.3956" y="-101.3" font-family="Times,serif" font-size="14.00" fill="#000000">#8 Literal</text>
</g>
<!-- #6 MemberExpression&#45;&gt;#8 Literal -->
<g id="edge21" class="edge">
<title>#6 MemberExpression&#45;&gt;#8 Literal</title>
<path fill="none" stroke="#0000ff" d="M665.5906,-174.6033C686.552,-160.6824 716.0356,-141.1017 738.394,-126.253"/>
<polygon fill="#0000ff" stroke="#0000ff" points="740.4905,-129.0622 746.8845,-120.6143 736.6179,-123.231 740.4905,-129.0622"/>
<text text-anchor="middle" x="735.3956" y="-144.8" font-family="Times,serif" font-size="14.00" fill="#0000ff">property</text>
</g>
<!-- #11 Identifier (x) -->
<g id="node17" class="node">
<title>#11 Identifier (x)</title>
<ellipse fill="none" stroke="#000000" cx="143.3956" cy="-18" rx="71.4873" ry="18"/>
<text text-anchor="middle" x="143.3956" y="-14.3" font-family="Times,serif" font-size="14.00" fill="#000000">#11 Identifier (x)</text>
</g>
<!-- #10 MemberExpression&#45;&gt;#11 Identifier (x) -->
<g id="edge22" class="edge">
<title>#10 MemberExpression&#45;&gt;#11 Identifier (x)</title>
<path fill="none" stroke="#0000ff" d="M198.8916,-86.9735C188.7819,-74.4087 175.1496,-57.4657 163.9264,-43.5168"/>
<polygon fill="#0000ff" stroke="#0000ff" points="166.6373,-41.3028 157.6416,-35.7057 161.1835,-45.691 166.6373,-41.3028"/>
<text text-anchor="middle" x="200.3956" y="-57.8" font-family="Times,serif" font-size="14.00" fill="#0000ff">object</text>
</g>
<!-- #12 Literal -->
<g id="node18" class="node">
<title>#12 Literal</title>
<ellipse fill="none" stroke="#000000" cx="283.3956" cy="-18" rx="50.0912" ry="18"/>
<text text-anchor="middle" x="283.3956" y="-14.3" font-family="Times,serif" font-size="14.00" fill="#000000">#12 Literal</text>
</g>
<!-- #10 MemberExpression&#45;&gt;#12 Literal -->
<g id="edge23" class="edge">
<title>#10 MemberExpression&#45;&gt;#12 Literal</title>
<path fill="none" stroke="#0000ff" d="M227.8997,-86.9735C238.0763,-74.3254 251.8223,-57.2411 263.0875,-43.2401"/>
<polygon fill="#0000ff" stroke="#0000ff" points="265.8459,-45.395 269.3878,-35.4097 260.3921,-41.0068 265.8459,-45.395"/>
<text text-anchor="middle" x="276.3956" y="-57.8" font-family="Times,serif" font-size="14.00" fill="#0000ff">property</text>
</g>
</g>
</svg>
