<?xml version="1.0" encoding="UTF-8" standalone="no"?>
<!DOCTYPE svg PUBLIC "-//W3C//DTD SVG 1.1//EN"
 "http://www.w3.org/Graphics/SVG/1.1/DTD/svg11.dtd">
<!-- Generated by graphviz version 2.40.1 (20161225.0304)
 -->
<!-- Title: G Pages: 1 -->
<svg width="872pt" height="1206pt"
 viewBox="0.00 0.00 872.48 1206.00" xmlns="http://www.w3.org/2000/svg" xmlns:xlink="http://www.w3.org/1999/xlink">
<g id="graph0" class="graph" transform="scale(1 1) rotate(0) translate(4 1202)">
<title>G</title>
<polygon fill="#ffffff" stroke="transparent" points="-4,4 -4,-1202 868.4798,-1202 868.4798,4 -4,4"/>
<!-- #46 CFG_F_START __main__ -->
<g id="node1" class="node">
<title>#46 CFG_F_START __main__</title>
<ellipse fill="none" stroke="#ff0000" cx="386.3408" cy="-1180" rx="122.6784" ry="18"/>
<text text-anchor="middle" x="386.3408" y="-1176.3" font-family="Times,serif" font-size="14.00" fill="#ff0000">#46 CFG_F_START __main__</text>
</g>
<!-- #1» f = Function (__2_anon__) &#45; (46) -->
<g id="node2" class="node">
<title>#1» f = Function (__2_anon__) &#45; (46)</title>
<ellipse fill="none" stroke="#000000" cx="386.3408" cy="-1107" rx="144.8743" ry="18"/>
<text text-anchor="middle" x="386.3408" y="-1103.3" font-family="Times,serif" font-size="14.00" fill="#000000">#1» f = Function (__2_anon__) &#45; (46)</text>
</g>
<!-- #46 CFG_F_START __main__&#45;&gt;#1» f = Function (__2_anon__) &#45; (46) -->
<g id="edge1" class="edge">
<title>#46 CFG_F_START __main__&#45;&gt;#1» f = Function (__2_anon__) &#45; (46)</title>
<path fill="none" stroke="#ff0000" d="M386.3408,-1161.9551C386.3408,-1153.8828 386.3408,-1144.1764 386.3408,-1135.1817"/>
<polygon fill="#ff0000" stroke="#ff0000" points="389.8409,-1135.0903 386.3408,-1125.0904 382.8409,-1135.0904 389.8409,-1135.0903"/>
</g>
<!-- #48 CFG_F_START 2_anon -->
<g id="node3" class="node">
<title>#48 CFG_F_START 2_anon</title>
<ellipse fill="none" stroke="#ff0000" cx="245.3408" cy="-1020" rx="113.18" ry="18"/>
<text text-anchor="middle" x="245.3408" y="-1016.3" font-family="Times,serif" font-size="14.00" fill="#ff0000">#48 CFG_F_START 2_anon</text>
</g>
<!-- #1» f = Function (__2_anon__) &#45; (46)&#45;&gt;#48 CFG_F_START 2_anon -->
<g id="edge4" class="edge">
<title>#1» f = Function (__2_anon__) &#45; (46)&#45;&gt;#48 CFG_F_START 2_anon</title>
<path fill="none" stroke="#000000" d="M357.4671,-1089.1843C335.7487,-1075.7836 305.8189,-1057.3163 282.3443,-1042.8319"/>
<polygon fill="#000000" stroke="#000000" points="284.0423,-1039.767 273.6941,-1037.4946 280.3666,-1045.7243 284.0423,-1039.767"/>
<text text-anchor="middle" x="333.3408" y="-1059.8" font-family="Times,serif" font-size="14.00" fill="#000000">FD</text>
</g>
<!-- #52 48.o&#45;o1 -->
<g id="node6" class="node">
<title>#52 48.o&#45;o1</title>
<ellipse fill="none" stroke="#006400" cx="414.3408" cy="-933" rx="53.8905" ry="18"/>
<text text-anchor="middle" x="414.3408" y="-929.3" font-family="Times,serif" font-size="14.00" fill="#006400">#52 48.o&#45;o1</text>
</g>
<!-- #1» f = Function (__2_anon__) &#45; (46)&#45;&gt;#52 48.o&#45;o1 -->
<g id="edge6" class="edge">
<title>#1» f = Function (__2_anon__) &#45; (46)&#45;&gt;#52 48.o&#45;o1</title>
<path fill="none" stroke="#000000" stroke-dasharray="5,2" d="M389.2844,-1088.7078C394.1706,-1058.3436 403.9901,-997.3226 409.7793,-961.3464"/>
<polygon fill="#000000" stroke="#000000" points="413.3034,-961.4762 411.4367,-951.0471 406.3923,-960.364 413.3034,-961.4762"/>
</g>
<!-- #40» module.exports = f; &#45; (46) -->
<g id="node7" class="node">
<title>#40» module.exports = f; &#45; (46)</title>
<ellipse fill="none" stroke="#000000" cx="740.3408" cy="-1020" rx="124.2781" ry="18"/>
<text text-anchor="middle" x="740.3408" y="-1016.3" font-family="Times,serif" font-size="14.00" fill="#000000">#40» module.exports = f; &#45; (46)</text>
</g>
<!-- #1» f = Function (__2_anon__) &#45; (46)&#45;&gt;#40» module.exports = f; &#45; (46) -->
<g id="edge5" class="edge">
<title>#1» f = Function (__2_anon__) &#45; (46)&#45;&gt;#40» module.exports = f; &#45; (46)</title>
<path fill="none" stroke="#ff0000" d="M452.0959,-1090.8399C513.1152,-1075.8436 603.7982,-1053.5571 667.105,-1037.9986"/>
<polygon fill="#ff0000" stroke="#ff0000" points="668.1459,-1041.347 677.0216,-1035.5615 666.4752,-1034.5493 668.1459,-1041.347"/>
</g>
<!-- #4» v1 = o.z -->
<g id="node4" class="node">
<title>#4» v1 = o.z</title>
<ellipse fill="none" stroke="#000000" cx="245.3408" cy="-933" rx="55.7903" ry="18"/>
<text text-anchor="middle" x="245.3408" y="-929.3" font-family="Times,serif" font-size="14.00" fill="#000000">#4» v1 = o.z</text>
</g>
<!-- #48 CFG_F_START 2_anon&#45;&gt;#4» v1 = o.z -->
<g id="edge2" class="edge">
<title>#48 CFG_F_START 2_anon&#45;&gt;#4» v1 = o.z</title>
<path fill="none" stroke="#ff0000" d="M245.3408,-1001.9735C245.3408,-990.1918 245.3408,-974.5607 245.3408,-961.1581"/>
<polygon fill="#ff0000" stroke="#ff0000" points="248.8409,-961.0033 245.3408,-951.0034 241.8409,-961.0034 248.8409,-961.0033"/>
</g>
<!-- #8» v2 = v1 &gt; 0 -->
<g id="node8" class="node">
<title>#8» v2 = v1 &gt; 0</title>
<ellipse fill="none" stroke="#000000" cx="208.3408" cy="-846" rx="68.7879" ry="18"/>
<text text-anchor="middle" x="208.3408" y="-842.3" font-family="Times,serif" font-size="14.00" fill="#000000">#8» v2 = v1 &gt; 0</text>
</g>
<!-- #4» v1 = o.z&#45;&gt;#8» v2 = v1 &gt; 0 -->
<g id="edge7" class="edge">
<title>#4» v1 = o.z&#45;&gt;#8» v2 = v1 &gt; 0</title>
<path fill="none" stroke="#ff0000" d="M237.6744,-914.9735C232.5645,-902.9585 225.7521,-886.9401 219.9786,-873.3646"/>
<polygon fill="#ff0000" stroke="#ff0000" points="223.132,-871.8359 215.9974,-864.0034 216.6903,-874.5755 223.132,-871.8359"/>
</g>
<!-- #53 48.o&#45;o1.z&#45;o2 -->
<g id="node9" class="node">
<title>#53 48.o&#45;o1.z&#45;o2</title>
<ellipse fill="none" stroke="#006400" cx="366.3408" cy="-846" rx="71.4873" ry="18"/>
<text text-anchor="middle" x="366.3408" y="-842.3" font-family="Times,serif" font-size="14.00" fill="#006400">#53 48.o&#45;o1.z&#45;o2</text>
</g>
<!-- #4» v1 = o.z&#45;&gt;#53 48.o&#45;o1.z&#45;o2 -->
<g id="edge8" class="edge">
<title>#4» v1 = o.z&#45;&gt;#53 48.o&#45;o1.z&#45;o2</title>
<path fill="none" stroke="#000000" stroke-dasharray="5,2" d="M268.3848,-916.4312C287.067,-902.9985 313.6053,-883.9173 334.348,-869.0031"/>
<polygon fill="#000000" stroke="#000000" points="336.4799,-871.7811 342.5558,-863.1016 332.3934,-866.0977 336.4799,-871.7811"/>
</g>
<!-- #51 TAINT_SOURCE -->
<g id="node5" class="node">
<title>#51 TAINT_SOURCE</title>
<ellipse fill="none" stroke="#8b6914" cx="506.3408" cy="-1020" rx="91.784" ry="18"/>
<text text-anchor="middle" x="506.3408" y="-1016.3" font-family="Times,serif" font-size="14.00" fill="#8b6914">#51 TAINT_SOURCE</text>
</g>
<!-- #51 TAINT_SOURCE&#45;&gt;#52 48.o&#45;o1 -->
<g id="edge3" class="edge">
<title>#51 TAINT_SOURCE&#45;&gt;#52 48.o&#45;o1</title>
<path fill="none" stroke="#006400" d="M487.2784,-1001.9735C473.5637,-989.0043 454.9166,-971.3706 439.9101,-957.1796"/>
<polygon fill="#006400" stroke="#006400" points="442.1105,-954.4433 432.4399,-950.1154 437.3008,-959.5293 442.1105,-954.4433"/>
<text text-anchor="middle" x="486.8408" y="-972.8" font-family="Times,serif" font-size="14.00" fill="#006400">TAINT</text>
</g>
<!-- #52 48.o&#45;o1&#45;&gt;#53 48.o&#45;o1.z&#45;o2 -->
<g id="edge9" class="edge">
<title>#52 48.o&#45;o1&#45;&gt;#53 48.o&#45;o1.z&#45;o2</title>
<path fill="none" stroke="#006400" d="M404.3952,-914.9735C397.7018,-902.8418 388.7567,-886.6287 381.2207,-872.9698"/>
<polygon fill="#006400" stroke="#006400" points="384.1691,-871.0684 376.2737,-864.0034 378.04,-874.4499 384.1691,-871.0684"/>
<text text-anchor="middle" x="409.8408" y="-885.8" font-family="Times,serif" font-size="14.00" fill="#006400">SO(z)</text>
</g>
<!-- #55 48.o&#45;o4 -->
<g id="node10" class="node">
<title>#55 48.o&#45;o4</title>
<ellipse fill="none" stroke="#006400" cx="465.3408" cy="-512" rx="53.8905" ry="18"/>
<text text-anchor="middle" x="465.3408" y="-508.3" font-family="Times,serif" font-size="14.00" fill="#006400">#55 48.o&#45;o4</text>
</g>
<!-- #52 48.o&#45;o1&#45;&gt;#55 48.o&#45;o4 -->
<g id="edge10" class="edge">
<title>#52 48.o&#45;o1&#45;&gt;#55 48.o&#45;o4</title>
<path fill="none" stroke="#006400" d="M431.8921,-915.7318C446.6446,-899.3067 465.3408,-873.1375 465.3408,-846 465.3408,-846 465.3408,-846 465.3408,-585 465.3408,-570.2996 465.3408,-553.934 465.3408,-540.4302"/>
<polygon fill="#006400" stroke="#006400" points="468.8409,-540.3003 465.3408,-530.3003 461.8409,-540.3004 468.8409,-540.3003"/>
<text text-anchor="middle" x="483.3408" y="-711.8" font-family="Times,serif" font-size="14.00" fill="#006400">NV(y)</text>
</g>
<!-- #47 CFG_F_END __main__ -->
<g id="node11" class="node">
<title>#47 CFG_F_END __main__</title>
<ellipse fill="none" stroke="#ff0000" cx="740.3408" cy="-933" rx="113.18" ry="18"/>
<text text-anchor="middle" x="740.3408" y="-929.3" font-family="Times,serif" font-size="14.00" fill="#ff0000">#47 CFG_F_END __main__</text>
</g>
<!-- #40» module.exports = f; &#45; (46)&#45;&gt;#47 CFG_F_END __main__ -->
<g id="edge11" class="edge">
<title>#40» module.exports = f; &#45; (46)&#45;&gt;#47 CFG_F_END __main__</title>
<path fill="none" stroke="#ff0000" d="M740.3408,-1001.9735C740.3408,-990.1918 740.3408,-974.5607 740.3408,-961.1581"/>
<polygon fill="#ff0000" stroke="#ff0000" points="743.8409,-961.0033 740.3408,-951.0034 736.8409,-961.0034 743.8409,-961.0033"/>
</g>
<!-- #12 IfStatement (48) -->
<g id="node12" class="node">
<title>#12 IfStatement (48)</title>
<ellipse fill="none" stroke="#000000" cx="205.3408" cy="-759" rx="85.2851" ry="18"/>
<text text-anchor="middle" x="205.3408" y="-755.3" font-family="Times,serif" font-size="14.00" fill="#000000">#12 IfStatement (48)</text>
</g>
<!-- #8» v2 = v1 &gt; 0&#45;&gt;#12 IfStatement (48) -->
<g id="edge12" class="edge">
<title>#8» v2 = v1 &gt; 0&#45;&gt;#12 IfStatement (48)</title>
<path fill="none" stroke="#ff0000" d="M207.7192,-827.9735C207.313,-816.1918 206.774,-800.5607 206.3118,-787.1581"/>
<polygon fill="#ff0000" stroke="#ff0000" points="209.8043,-786.8768 205.9616,-777.0034 202.8084,-787.1181 209.8043,-786.8768"/>
</g>
<!-- #54 48.v2&#45;o3 -->
<g id="node13" class="node">
<title>#54 48.v2&#45;o3</title>
<ellipse fill="none" stroke="#006400" cx="366.3408" cy="-759" rx="57.6901" ry="18"/>
<text text-anchor="middle" x="366.3408" y="-755.3" font-family="Times,serif" font-size="14.00" fill="#006400">#54 48.v2&#45;o3</text>
</g>
<!-- #8» v2 = v1 &gt; 0&#45;&gt;#54 48.v2&#45;o3 -->
<g id="edge13" class="edge">
<title>#8» v2 = v1 &gt; 0&#45;&gt;#54 48.v2&#45;o3</title>
<path fill="none" stroke="#000000" stroke-dasharray="5,2" d="M238.0594,-829.636C263.7596,-815.4846 301.0455,-794.9537 328.8024,-779.6699"/>
<polygon fill="#000000" stroke="#000000" points="330.7481,-782.5941 337.8197,-774.7047 327.3717,-776.4622 330.7481,-782.5941"/>
</g>
<!-- #53 48.o&#45;o1.z&#45;o2&#45;&gt;#54 48.v2&#45;o3 -->
<g id="edge14" class="edge">
<title>#53 48.o&#45;o1.z&#45;o2&#45;&gt;#54 48.v2&#45;o3</title>
<path fill="none" stroke="#006400" d="M366.3408,-827.9735C366.3408,-816.1918 366.3408,-800.5607 366.3408,-787.1581"/>
<polygon fill="#006400" stroke="#006400" points="369.8409,-787.0033 366.3408,-777.0034 362.8409,-787.0034 369.8409,-787.0033"/>
<text text-anchor="middle" x="390.8408" y="-798.8" font-family="Times,serif" font-size="14.00" fill="#006400">DEP(v1)</text>
</g>
<!-- #56 48.o&#45;o4.y&#45;o5 -->
<g id="node14" class="node">
<title>#56 48.o&#45;o4.y&#45;o5</title>
<ellipse fill="none" stroke="#006400" cx="396.3408" cy="-425" rx="72.2875" ry="18"/>
<text text-anchor="middle" x="396.3408" y="-421.3" font-family="Times,serif" font-size="14.00" fill="#006400">#56 48.o&#45;o4.y&#45;o5</text>
</g>
<!-- #55 48.o&#45;o4&#45;&gt;#56 48.o&#45;o4.y&#45;o5 -->
<g id="edge15" class="edge">
<title>#55 48.o&#45;o4&#45;&gt;#56 48.o&#45;o4.y&#45;o5</title>
<path fill="none" stroke="#006400" d="M451.3777,-494.3943C441.4363,-481.8595 427.918,-464.8147 416.7671,-450.7548"/>
<polygon fill="#006400" stroke="#006400" points="419.4763,-448.5383 410.5201,-442.8782 413.9918,-452.8881 419.4763,-448.5383"/>
<text text-anchor="middle" x="452.3408" y="-464.8" font-family="Times,serif" font-size="14.00" fill="#006400">SO(y)</text>
</g>
<!-- #57 48.o&#45;o4.w&#45;o6 -->
<g id="node15" class="node">
<title>#57 48.o&#45;o4.w&#45;o6</title>
<ellipse fill="none" stroke="#006400" cx="369.3408" cy="-338" rx="74.187" ry="18"/>
<text text-anchor="middle" x="369.3408" y="-334.3" font-family="Times,serif" font-size="14.00" fill="#006400">#57 48.o&#45;o4.w&#45;o6</text>
</g>
<!-- #55 48.o&#45;o4&#45;&gt;#57 48.o&#45;o4.w&#45;o6 -->
<g id="edge16" class="edge">
<title>#55 48.o&#45;o4&#45;&gt;#57 48.o&#45;o4.w&#45;o6</title>
<path fill="none" stroke="#006400" d="M473.4163,-494.0607C481.9962,-472.1221 492.414,-434.5169 477.3408,-407 465.0413,-384.5466 441.9804,-368.338 420.3164,-357.2965"/>
<polygon fill="#006400" stroke="#006400" points="421.6805,-354.0686 411.1528,-352.8777 418.64,-360.3739 421.6805,-354.0686"/>
<text text-anchor="middle" x="503.8408" y="-421.3" font-family="Times,serif" font-size="14.00" fill="#006400">SO(w)</text>
</g>
<!-- #13 Identifier (v2) &#45; (48) -->
<g id="node16" class="node">
<title>#13 Identifier (v2) &#45; (48)</title>
<ellipse fill="none" stroke="#000000" cx="205.3408" cy="-672" rx="98.5829" ry="18"/>
<text text-anchor="middle" x="205.3408" y="-668.3" font-family="Times,serif" font-size="14.00" fill="#000000">#13 Identifier (v2) &#45; (48)</text>
</g>
<!-- #12 IfStatement (48)&#45;&gt;#13 Identifier (v2) &#45; (48) -->
<g id="edge17" class="edge">
<title>#12 IfStatement (48)&#45;&gt;#13 Identifier (v2) &#45; (48)</title>
<path fill="none" stroke="#ff0000" d="M205.3408,-740.9735C205.3408,-729.1918 205.3408,-713.5607 205.3408,-700.1581"/>
<polygon fill="#ff0000" stroke="#ff0000" points="208.8409,-700.0033 205.3408,-690.0034 201.8409,-700.0034 208.8409,-700.0033"/>
<text text-anchor="middle" x="214.8408" y="-711.8" font-family="Times,serif" font-size="14.00" fill="#ff0000">test</text>
</g>
<!-- #58 48.v5&#45;o7 -->
<g id="node17" class="node">
<title>#58 48.v5&#45;o7</title>
<ellipse fill="none" stroke="#006400" cx="369.3408" cy="-251" rx="57.6901" ry="18"/>
<text text-anchor="middle" x="369.3408" y="-247.3" font-family="Times,serif" font-size="14.00" fill="#006400">#58 48.v5&#45;o7</text>
</g>
<!-- #56 48.o&#45;o4.y&#45;o5&#45;&gt;#58 48.v5&#45;o7 -->
<g id="edge18" class="edge">
<title>#56 48.o&#45;o4.y&#45;o5&#45;&gt;#58 48.v5&#45;o7</title>
<path fill="none" stroke="#006400" d="M416.2477,-407.6011C429.2778,-394.8163 445.1713,-376.2109 452.3408,-356 457.69,-340.9207 458.1104,-334.9235 452.3408,-320 444.4577,-299.6094 426.5221,-283.4737 409.3335,-271.9495"/>
<polygon fill="#006400" stroke="#006400" points="410.7929,-268.7313 400.4702,-266.3453 407.0519,-274.6478 410.7929,-268.7313"/>
<text text-anchor="middle" x="481.8408" y="-334.3" font-family="Times,serif" font-size="14.00" fill="#006400">DEP(v3)</text>
</g>
<!-- #57 48.o&#45;o4.w&#45;o6&#45;&gt;#58 48.v5&#45;o7 -->
<g id="edge19" class="edge">
<title>#57 48.o&#45;o4.w&#45;o6&#45;&gt;#58 48.v5&#45;o7</title>
<path fill="none" stroke="#006400" d="M369.3408,-319.9735C369.3408,-308.1918 369.3408,-292.5607 369.3408,-279.1581"/>
<polygon fill="#006400" stroke="#006400" points="372.8409,-279.0033 369.3408,-269.0034 365.8409,-279.0034 372.8409,-279.0033"/>
<text text-anchor="middle" x="393.8408" y="-290.8" font-family="Times,serif" font-size="14.00" fill="#006400">DEP(v4)</text>
</g>
<!-- #14» o.y = &#39;2&#39;; &#45; (48) -->
<g id="node18" class="node">
<title>#14» o.y = &#39;2&#39;; &#45; (48)</title>
<ellipse fill="none" stroke="#000000" cx="279.3408" cy="-585" rx="84.485" ry="18"/>
<text text-anchor="middle" x="279.3408" y="-581.3" font-family="Times,serif" font-size="14.00" fill="#000000">#14» o.y = &#39;2&#39;; &#45; (48)</text>
</g>
<!-- #13 Identifier (v2) &#45; (48)&#45;&gt;#14» o.y = &#39;2&#39;; &#45; (48) -->
<g id="edge20" class="edge">
<title>#13 Identifier (v2) &#45; (48)&#45;&gt;#14» o.y = &#39;2&#39;; &#45; (48)</title>
<path fill="none" stroke="#ff0000" d="M220.6737,-653.9735C231.2903,-641.4919 245.5816,-624.6899 257.4008,-610.7944"/>
<polygon fill="#ff0000" stroke="#ff0000" points="260.2146,-612.8883 264.0276,-603.0034 254.8825,-608.3529 260.2146,-612.8883"/>
<text text-anchor="middle" x="265.3408" y="-624.8" font-family="Times,serif" font-size="14.00" fill="#ff0000">TRUE</text>
</g>
<!-- #50 CFG_IF_END (48) -->
<g id="node19" class="node">
<title>#50 CFG_IF_END (48)</title>
<ellipse fill="none" stroke="#ff0000" cx="103.3408" cy="-91" rx="94.7833" ry="18"/>
<text text-anchor="middle" x="103.3408" y="-87.3" font-family="Times,serif" font-size="14.00" fill="#ff0000">#50 CFG_IF_END (48)</text>
</g>
<!-- #13 Identifier (v2) &#45; (48)&#45;&gt;#50 CFG_IF_END (48) -->
<g id="edge21" class="edge">
<title>#13 Identifier (v2) &#45; (48)&#45;&gt;#50 CFG_IF_END (48)</title>
<path fill="none" stroke="#ff0000" d="M158.2668,-656.0044C128.0138,-642.4095 94.3408,-619.5234 94.3408,-585 94.3408,-585 94.3408,-585 94.3408,-164 94.3408,-149.1883 96.1885,-132.8123 98.2095,-119.3303"/>
<polygon fill="#ff0000" stroke="#ff0000" points="101.7025,-119.6526 99.8354,-109.2236 94.7914,-118.5407 101.7025,-119.6526"/>
<text text-anchor="middle" x="115.3408" y="-377.8" font-family="Times,serif" font-size="14.00" fill="#ff0000">FALSE</text>
</g>
<!-- #59 48.v6&#45;o8 -->
<g id="node20" class="node">
<title>#59 48.v6&#45;o8</title>
<ellipse fill="none" stroke="#006400" cx="282.3408" cy="-91" rx="57.6901" ry="18"/>
<text text-anchor="middle" x="282.3408" y="-87.3" font-family="Times,serif" font-size="14.00" fill="#006400">#59 48.v6&#45;o8</text>
</g>
<!-- #58 48.v5&#45;o7&#45;&gt;#59 48.v6&#45;o8 -->
<g id="edge22" class="edge">
<title>#58 48.v5&#45;o7&#45;&gt;#59 48.v6&#45;o8</title>
<path fill="none" stroke="#006400" d="M359.5299,-232.957C344.3221,-204.9886 314.9595,-150.9884 297.1583,-118.2504"/>
<polygon fill="#006400" stroke="#006400" points="300.1012,-116.3359 292.2493,-109.2226 293.9515,-119.6798 300.1012,-116.3359"/>
<text text-anchor="middle" x="356.8408" y="-160.3" font-family="Times,serif" font-size="14.00" fill="#006400">DEP(v5)</text>
</g>
<!-- #60 TAINT_SINK (eval) -->
<g id="node21" class="node">
<title>#60 TAINT_SINK (eval)</title>
<ellipse fill="none" stroke="#8b6914" cx="496.3408" cy="-164" rx="100.9827" ry="18"/>
<text text-anchor="middle" x="496.3408" y="-160.3" font-family="Times,serif" font-size="14.00" fill="#8b6914">#60 TAINT_SINK (eval)</text>
</g>
<!-- #58 48.v5&#45;o7&#45;&gt;#60 TAINT_SINK (eval) -->
<g id="edge23" class="edge">
<title>#58 48.v5&#45;o7&#45;&gt;#60 TAINT_SINK (eval)</title>
<path fill="none" stroke="#006400" d="M393.5275,-234.4312C412.9691,-221.1129 440.5165,-202.2418 462.204,-187.3851"/>
<polygon fill="#006400" stroke="#006400" points="464.2263,-190.2422 470.4982,-181.7032 460.2702,-184.4673 464.2263,-190.2422"/>
<text text-anchor="middle" x="465.8408" y="-203.8" font-family="Times,serif" font-size="14.00" fill="#006400">DEP(v5)</text>
</g>
<!-- #14» o.y = &#39;2&#39;; &#45; (48)&#45;&gt;#56 48.o&#45;o4.y&#45;o5 -->
<g id="edge25" class="edge">
<title>#14» o.y = &#39;2&#39;; &#45; (48)&#45;&gt;#56 48.o&#45;o4.y&#45;o5</title>
<path fill="none" stroke="#000000" stroke-dasharray="5,2" d="M307.2628,-567.7843C321.2961,-558.0505 337.7378,-544.8627 349.3408,-530 367.5657,-506.6551 380.4471,-475.1243 388.0604,-452.724"/>
<polygon fill="#000000" stroke="#000000" points="391.4139,-453.7291 391.1879,-443.1367 384.7591,-451.5581 391.4139,-453.7291"/>
</g>
<!-- #20» v3 = o.y -->
<g id="node22" class="node">
<title>#20» v3 = o.y</title>
<ellipse fill="none" stroke="#000000" cx="279.3408" cy="-512" rx="61.1893" ry="18"/>
<text text-anchor="middle" x="279.3408" y="-508.3" font-family="Times,serif" font-size="14.00" fill="#000000">#20» v3 = o.y</text>
</g>
<!-- #14» o.y = &#39;2&#39;; &#45; (48)&#45;&gt;#20» v3 = o.y -->
<g id="edge24" class="edge">
<title>#14» o.y = &#39;2&#39;; &#45; (48)&#45;&gt;#20» v3 = o.y</title>
<path fill="none" stroke="#ff0000" d="M279.3408,-566.9551C279.3408,-558.8828 279.3408,-549.1764 279.3408,-540.1817"/>
<polygon fill="#ff0000" stroke="#ff0000" points="282.8409,-540.0903 279.3408,-530.0904 275.8409,-540.0904 282.8409,-540.0903"/>
</g>
<!-- #49 CFG_F_END 2_anon -->
<g id="node23" class="node">
<title>#49 CFG_F_END 2_anon</title>
<ellipse fill="none" stroke="#ff0000" cx="103.3408" cy="-18" rx="103.1819" ry="18"/>
<text text-anchor="middle" x="103.3408" y="-14.3" font-family="Times,serif" font-size="14.00" fill="#ff0000">#49 CFG_F_END 2_anon</text>
</g>
<!-- #50 CFG_IF_END (48)&#45;&gt;#49 CFG_F_END 2_anon -->
<g id="edge26" class="edge">
<title>#50 CFG_IF_END (48)&#45;&gt;#49 CFG_F_END 2_anon</title>
<path fill="none" stroke="#ff0000" d="M103.3408,-72.9551C103.3408,-64.8828 103.3408,-55.1764 103.3408,-46.1817"/>
<polygon fill="#ff0000" stroke="#ff0000" points="106.8409,-46.0903 103.3408,-36.0904 99.8409,-46.0904 106.8409,-46.0903"/>
</g>
<!-- #20» v3 = o.y&#45;&gt;#56 48.o&#45;o4.y&#45;o5 -->
<g id="edge28" class="edge">
<title>#20» v3 = o.y&#45;&gt;#56 48.o&#45;o4.y&#45;o5</title>
<path fill="none" stroke="#000000" stroke-dasharray="5,2" d="M301.8996,-495.2255C319.7955,-481.9183 345.0179,-463.1632 364.8956,-448.3823"/>
<polygon fill="#000000" stroke="#000000" points="367.1143,-451.0941 373.0505,-442.3185 362.9374,-445.4769 367.1143,-451.0941"/>
</g>
<!-- #24» v4 = o.w -->
<g id="node24" class="node">
<title>#24» v4 = o.w</title>
<ellipse fill="none" stroke="#000000" cx="243.3408" cy="-425" rx="63.0888" ry="18"/>
<text text-anchor="middle" x="243.3408" y="-421.3" font-family="Times,serif" font-size="14.00" fill="#000000">#24» v4 = o.w</text>
</g>
<!-- #20» v3 = o.y&#45;&gt;#24» v4 = o.w -->
<g id="edge27" class="edge">
<title>#20» v3 = o.y&#45;&gt;#24» v4 = o.w</title>
<path fill="none" stroke="#ff0000" d="M271.8816,-493.9735C266.9099,-481.9585 260.2816,-465.9401 254.6641,-452.3646"/>
<polygon fill="#ff0000" stroke="#ff0000" points="257.8481,-450.9053 250.7905,-443.0034 251.38,-453.5818 257.8481,-450.9053"/>
</g>
<!-- #24» v4 = o.w&#45;&gt;#57 48.o&#45;o4.w&#45;o6 -->
<g id="edge30" class="edge">
<title>#24» v4 = o.w&#45;&gt;#57 48.o&#45;o4.w&#45;o6</title>
<path fill="none" stroke="#000000" stroke-dasharray="5,2" d="M267.6349,-408.2255C287.1191,-394.7721 314.6678,-375.7505 336.1802,-360.8966"/>
<polygon fill="#000000" stroke="#000000" points="338.4511,-363.5819 344.6914,-355.0198 334.4738,-357.8216 338.4511,-363.5819"/>
</g>
<!-- #28» v5 = v3 + v4 -->
<g id="node25" class="node">
<title>#28» v5 = v3 + v4</title>
<ellipse fill="none" stroke="#000000" cx="200.3408" cy="-338" rx="77.1866" ry="18"/>
<text text-anchor="middle" x="200.3408" y="-334.3" font-family="Times,serif" font-size="14.00" fill="#000000">#28» v5 = v3 + v4</text>
</g>
<!-- #24» v4 = o.w&#45;&gt;#28» v5 = v3 + v4 -->
<g id="edge29" class="edge">
<title>#24» v4 = o.w&#45;&gt;#28» v5 = v3 + v4</title>
<path fill="none" stroke="#ff0000" d="M234.4312,-406.9735C228.4351,-394.8418 220.4217,-378.6287 213.6708,-364.9698"/>
<polygon fill="#ff0000" stroke="#ff0000" points="216.8076,-363.4173 209.239,-356.0034 210.5323,-366.519 216.8076,-363.4173"/>
</g>
<!-- #28» v5 = v3 + v4&#45;&gt;#58 48.v5&#45;o7 -->
<g id="edge32" class="edge">
<title>#28» v5 = v3 + v4&#45;&gt;#58 48.v5&#45;o7</title>
<path fill="none" stroke="#000000" stroke-dasharray="5,2" d="M232.5262,-321.4312C260.266,-307.151 300.4066,-286.4868 330.0391,-271.2323"/>
<polygon fill="#000000" stroke="#000000" points="331.9726,-274.1735 339.2617,-266.4845 328.7687,-267.9497 331.9726,-274.1735"/>
</g>
<!-- #32» v6 = eval(v5) -->
<g id="node26" class="node">
<title>#32» v6 = eval(v5)</title>
<ellipse fill="none" stroke="#000000" cx="201.3408" cy="-251" rx="79.0865" ry="18"/>
<text text-anchor="middle" x="201.3408" y="-247.3" font-family="Times,serif" font-size="14.00" fill="#000000">#32» v6 = eval(v5)</text>
</g>
<!-- #28» v5 = v3 + v4&#45;&gt;#32» v6 = eval(v5) -->
<g id="edge31" class="edge">
<title>#28» v5 = v3 + v4&#45;&gt;#32» v6 = eval(v5)</title>
<path fill="none" stroke="#ff0000" d="M200.548,-319.9735C200.6835,-308.1918 200.8631,-292.5607 201.0172,-279.1581"/>
<polygon fill="#ff0000" stroke="#ff0000" points="204.5186,-279.043 201.1339,-269.0034 197.5191,-278.9624 204.5186,-279.043"/>
</g>
<!-- #32» v6 = eval(v5)&#45;&gt;#59 48.v6&#45;o8 -->
<g id="edge34" class="edge">
<title>#32» v6 = eval(v5)&#45;&gt;#59 48.v6&#45;o8</title>
<path fill="none" stroke="#000000" stroke-dasharray="5,2" d="M222.0152,-233.4496C235.8151,-220.5953 253.2242,-201.9691 263.3408,-182 273.3256,-162.2911 278.0649,-137.6391 280.3135,-118.9663"/>
<polygon fill="#000000" stroke="#000000" points="283.7955,-119.3199 281.3472,-109.0118 276.8329,-118.5968 283.7955,-119.3199"/>
</g>
<!-- #36» return v6; -->
<g id="node27" class="node">
<title>#36» return v6;</title>
<ellipse fill="none" stroke="#000000" cx="188.3408" cy="-164" rx="65.7887" ry="18"/>
<text text-anchor="middle" x="188.3408" y="-160.3" font-family="Times,serif" font-size="14.00" fill="#000000">#36» return v6;</text>
</g>
<!-- #32» v6 = eval(v5)&#45;&gt;#36» return v6; -->
<g id="edge33" class="edge">
<title>#32» v6 = eval(v5)&#45;&gt;#36» return v6;</title>
<path fill="none" stroke="#ff0000" d="M198.6472,-232.9735C196.8867,-221.1918 194.551,-205.5607 192.5484,-192.1581"/>
<polygon fill="#ff0000" stroke="#ff0000" points="195.9705,-191.3763 191.031,-182.0034 189.0473,-192.4108 195.9705,-191.3763"/>
</g>
<!-- #36» return v6;&#45;&gt;#50 CFG_IF_END (48) -->
<g id="edge35" class="edge">
<title>#36» return v6;&#45;&gt;#50 CFG_IF_END (48)</title>
<path fill="none" stroke="#ff0000" d="M168.197,-146.7C157.2431,-137.2926 143.5194,-125.5063 131.5202,-115.2011"/>
<polygon fill="#ff0000" stroke="#ff0000" points="133.7972,-112.543 123.9305,-108.6829 129.2364,-117.8534 133.7972,-112.543"/>
</g>
<!-- #36» return v6;&#45;&gt;#59 48.v6&#45;o8 -->
<g id="edge36" class="edge">
<title>#36» return v6;&#45;&gt;#59 48.v6&#45;o8</title>
<path fill="none" stroke="#000000" stroke-dasharray="5,2" d="M210.6175,-146.7C223.1164,-136.9935 238.8762,-124.7544 252.4375,-114.2228"/>
<polygon fill="#000000" stroke="#000000" points="254.797,-116.8219 260.5483,-107.924 250.5035,-111.2933 254.797,-116.8219"/>
</g>
</g>
</svg>
