<?xml version="1.0" encoding="UTF-8" standalone="no"?>
<!DOCTYPE svg PUBLIC "-//W3C//DTD SVG 1.1//EN"
 "http://www.w3.org/Graphics/SVG/1.1/DTD/svg11.dtd">
<!-- Generated by graphviz version 2.40.1 (20161225.0304)
 -->
<!-- Title: G Pages: 1 -->
<svg width="1262pt" height="914pt"
 viewBox="0.00 0.00 1261.58 914.00" xmlns="http://www.w3.org/2000/svg" xmlns:xlink="http://www.w3.org/1999/xlink">
<g id="graph0" class="graph" transform="scale(1 1) rotate(0) translate(4 910)">
<title>G</title>
<polygon fill="#ffffff" stroke="transparent" points="-4,4 -4,-910 1257.5825,-910 1257.5825,4 -4,4"/>
<!-- #0 Program -->
<g id="node1" class="node">
<title>#0 Program</title>
<ellipse fill="none" stroke="#000000" cx="624.2416" cy="-888" rx="52.7911" ry="18"/>
<text text-anchor="middle" x="624.2416" y="-884.3" font-family="Times,serif" font-size="14.00" fill="#000000">#0 Program</text>
</g>
<!-- #1 Variable (read) -->
<g id="node2" class="node">
<title>#1 Variable (read)</title>
<ellipse fill="none" stroke="#000000" cx="801.2416" cy="-801" rx="75.2868" ry="18"/>
<text text-anchor="middle" x="801.2416" y="-797.3" font-family="Times,serif" font-size="14.00" fill="#000000">#1 Variable (read)</text>
</g>
<!-- #0 Program&#45;&gt;#1 Variable (read) -->
<g id="edge1" class="edge">
<title>#0 Program&#45;&gt;#1 Variable (read)</title>
<path fill="none" stroke="#0000ff" d="M654.669,-873.0442C683.4566,-858.8943 726.9218,-837.5301 759.0506,-821.738"/>
<polygon fill="#0000ff" stroke="#0000ff" points="760.7782,-824.7888 768.2088,-817.2365 757.6903,-818.5067 760.7782,-824.7888"/>
<text text-anchor="middle" x="727.7416" y="-840.8" font-family="Times,serif" font-size="14.00" fill="#0000ff">1</text>
</g>
<!-- #5 Variable (f) -->
<g id="node3" class="node">
<title>#5 Variable (f)</title>
<ellipse fill="none" stroke="#000000" cx="733.2416" cy="-714" rx="63.8893" ry="18"/>
<text text-anchor="middle" x="733.2416" y="-710.3" font-family="Times,serif" font-size="14.00" fill="#000000">#5 Variable (f)</text>
</g>
<!-- #0 Program&#45;&gt;#5 Variable (f) -->
<g id="edge2" class="edge">
<title>#0 Program&#45;&gt;#5 Variable (f)</title>
<path fill="none" stroke="#0000ff" d="M635.293,-870.3584C654.5024,-839.6938 694.1474,-776.4072 716.6651,-740.4617"/>
<polygon fill="#0000ff" stroke="#0000ff" points="719.6553,-742.2811 721.998,-731.9485 713.7231,-738.565 719.6553,-742.2811"/>
<text text-anchor="middle" x="693.7416" y="-797.3" font-family="Times,serif" font-size="14.00" fill="#0000ff">2</text>
</g>
<!-- #17 ExpressionStatement -->
<g id="node4" class="node">
<title>#17 ExpressionStatement</title>
<ellipse fill="none" stroke="#000000" cx="573.2416" cy="-627" rx="100.9827" ry="18"/>
<text text-anchor="middle" x="573.2416" y="-623.3" font-family="Times,serif" font-size="14.00" fill="#000000">#17 ExpressionStatement</text>
</g>
<!-- #0 Program&#45;&gt;#17 ExpressionStatement -->
<g id="edge3" class="edge">
<title>#0 Program&#45;&gt;#17 ExpressionStatement</title>
<path fill="none" stroke="#0000ff" d="M620.6554,-869.647C611.8766,-824.7203 589.2605,-708.9788 578.7557,-655.2189"/>
<polygon fill="#0000ff" stroke="#0000ff" points="582.1768,-654.4759 576.8239,-645.3327 575.3067,-655.8184 582.1768,-654.4759"/>
<text text-anchor="middle" x="603.7416" y="-753.8" font-family="Times,serif" font-size="14.00" fill="#0000ff">3</text>
</g>
<!-- #1 Variable (read)&#45;&gt;#5 Variable (f) -->
<g id="edge7" class="edge">
<title>#1 Variable (read)&#45;&gt;#5 Variable (f)</title>
<path fill="none" stroke="#ff0000" d="M787.152,-782.9735C777.4229,-770.5261 764.3356,-753.782 753.4921,-739.9087"/>
<polygon fill="#ff0000" stroke="#ff0000" points="755.9964,-737.4292 747.0806,-731.7057 750.4812,-741.74 755.9964,-737.4292"/>
</g>
<!-- #2 CallExpression -->
<g id="node8" class="node">
<title>#2 CallExpression</title>
<ellipse fill="none" stroke="#000000" cx="954.2416" cy="-714" rx="75.2868" ry="18"/>
<text text-anchor="middle" x="954.2416" y="-710.3" font-family="Times,serif" font-size="14.00" fill="#000000">#2 CallExpression</text>
</g>
<!-- #1 Variable (read)&#45;&gt;#2 CallExpression -->
<g id="edge6" class="edge">
<title>#1 Variable (read)&#45;&gt;#2 CallExpression</title>
<path fill="none" stroke="#0000ff" d="M830.7416,-784.2255C854.977,-770.4446 889.4874,-750.821 915.8697,-735.8193"/>
<polygon fill="#0000ff" stroke="#0000ff" points="917.8694,-738.7086 924.8323,-730.723 914.4093,-732.6235 917.8694,-738.7086"/>
<text text-anchor="middle" x="895.7416" y="-753.8" font-family="Times,serif" font-size="14.00" fill="#0000ff">init</text>
</g>
<!-- #5 Variable (f)&#45;&gt;#17 ExpressionStatement -->
<g id="edge9" class="edge">
<title>#5 Variable (f)&#45;&gt;#17 ExpressionStatement</title>
<path fill="none" stroke="#ff0000" d="M703.5218,-697.8399C678.2704,-684.1094 641.7797,-664.2676 613.8373,-649.0739"/>
<polygon fill="#ff0000" stroke="#ff0000" points="615.1747,-645.8172 604.7175,-644.115 611.8308,-651.9669 615.1747,-645.8172"/>
</g>
<!-- #6 Function (anon) -->
<g id="node9" class="node">
<title>#6 Function (anon)</title>
<ellipse fill="none" stroke="#000000" cx="770.2416" cy="-627" rx="78.7863" ry="18"/>
<text text-anchor="middle" x="770.2416" y="-623.3" font-family="Times,serif" font-size="14.00" fill="#000000">#6 Function (anon)</text>
</g>
<!-- #5 Variable (f)&#45;&gt;#6 Function (anon) -->
<g id="edge8" class="edge">
<title>#5 Variable (f)&#45;&gt;#6 Function (anon)</title>
<path fill="none" stroke="#0000ff" d="M740.9081,-695.9735C746.0179,-683.9585 752.8303,-667.9401 758.6038,-654.3646"/>
<polygon fill="#0000ff" stroke="#0000ff" points="761.8922,-655.5755 762.585,-645.0034 755.4505,-652.8359 761.8922,-655.5755"/>
<text text-anchor="middle" x="763.7416" y="-666.8" font-family="Times,serif" font-size="14.00" fill="#0000ff">init</text>
</g>
<!-- #18 AssignmentExpression -->
<g id="node10" class="node">
<title>#18 AssignmentExpression</title>
<ellipse fill="none" stroke="#000000" cx="334.2416" cy="-540" rx="107.781" ry="18"/>
<text text-anchor="middle" x="334.2416" y="-536.3" font-family="Times,serif" font-size="14.00" fill="#000000">#18 AssignmentExpression</text>
</g>
<!-- #17 ExpressionStatement&#45;&gt;#18 AssignmentExpression -->
<g id="edge10" class="edge">
<title>#17 ExpressionStatement&#45;&gt;#18 AssignmentExpression</title>
<path fill="none" stroke="#0000ff" d="M528.8477,-610.8399C489.2723,-596.4337 431.215,-575.2999 388.8157,-559.8659"/>
<polygon fill="#0000ff" stroke="#0000ff" points="389.8029,-556.5006 379.2089,-556.3688 387.4084,-563.0784 389.8029,-556.5006"/>
<text text-anchor="middle" x="497.2416" y="-579.8" font-family="Times,serif" font-size="14.00" fill="#0000ff">expression</text>
</g>
<!-- #24 CFG_F_END __main__ -->
<g id="node11" class="node">
<title>#24 CFG_F_END __main__</title>
<ellipse fill="none" stroke="#ff0000" cx="573.2416" cy="-540" rx="113.18" ry="18"/>
<text text-anchor="middle" x="573.2416" y="-536.3" font-family="Times,serif" font-size="14.00" fill="#ff0000">#24 CFG_F_END __main__</text>
</g>
<!-- #17 ExpressionStatement&#45;&gt;#24 CFG_F_END __main__ -->
<g id="edge11" class="edge">
<title>#17 ExpressionStatement&#45;&gt;#24 CFG_F_END __main__</title>
<path fill="none" stroke="#ff0000" d="M573.2416,-608.9735C573.2416,-597.1918 573.2416,-581.5607 573.2416,-568.1581"/>
<polygon fill="#ff0000" stroke="#ff0000" points="576.7417,-568.0033 573.2416,-558.0034 569.7417,-568.0034 576.7417,-568.0033"/>
</g>
<!-- #23 CFG_F_START __main__ -->
<g id="node5" class="node">
<title>#23 CFG_F_START __main__</title>
<ellipse fill="none" stroke="#ff0000" cx="817.2416" cy="-888" rx="122.6784" ry="18"/>
<text text-anchor="middle" x="817.2416" y="-884.3" font-family="Times,serif" font-size="14.00" fill="#ff0000">#23 CFG_F_START __main__</text>
</g>
<!-- #23 CFG_F_START __main__&#45;&gt;#1 Variable (read) -->
<g id="edge4" class="edge">
<title>#23 CFG_F_START __main__&#45;&gt;#1 Variable (read)</title>
<path fill="none" stroke="#ff0000" d="M813.9264,-869.9735C811.7597,-858.1918 808.885,-842.5607 806.4201,-829.1581"/>
<polygon fill="#ff0000" stroke="#ff0000" points="809.8037,-828.2053 804.5526,-819.0034 802.9192,-829.4715 809.8037,-828.2053"/>
</g>
<!-- #25 CFG_F_START 6_anon -->
<g id="node6" class="node">
<title>#25 CFG_F_START 6_anon</title>
<ellipse fill="none" stroke="#ff0000" cx="817.2416" cy="-540" rx="113.18" ry="18"/>
<text text-anchor="middle" x="817.2416" y="-536.3" font-family="Times,serif" font-size="14.00" fill="#ff0000">#25 CFG_F_START 6_anon</text>
</g>
<!-- #7 Variable (s) -->
<g id="node7" class="node">
<title>#7 Variable (s)</title>
<ellipse fill="none" stroke="#000000" cx="872.2416" cy="-453" rx="63.8893" ry="18"/>
<text text-anchor="middle" x="872.2416" y="-449.3" font-family="Times,serif" font-size="14.00" fill="#000000">#7 Variable (s)</text>
</g>
<!-- #25 CFG_F_START 6_anon&#45;&gt;#7 Variable (s) -->
<g id="edge5" class="edge">
<title>#25 CFG_F_START 6_anon&#45;&gt;#7 Variable (s)</title>
<path fill="none" stroke="#ff0000" d="M828.6377,-521.9735C836.3809,-509.7252 846.7542,-493.3165 855.4404,-479.5766"/>
<polygon fill="#ff0000" stroke="#ff0000" points="858.475,-481.3262 860.8602,-471.0034 852.5582,-477.5857 858.475,-481.3262"/>
</g>
<!-- #8 CallExpression -->
<g id="node12" class="node">
<title>#8 CallExpression</title>
<ellipse fill="none" stroke="#000000" cx="769.2416" cy="-366" rx="75.2868" ry="18"/>
<text text-anchor="middle" x="769.2416" y="-362.3" font-family="Times,serif" font-size="14.00" fill="#000000">#8 CallExpression</text>
</g>
<!-- #7 Variable (s)&#45;&gt;#8 CallExpression -->
<g id="edge12" class="edge">
<title>#7 Variable (s)&#45;&gt;#8 CallExpression</title>
<path fill="none" stroke="#0000ff" d="M851.8922,-435.8116C836.4749,-422.7893 815.0917,-404.7277 797.9379,-390.2386"/>
<polygon fill="#0000ff" stroke="#0000ff" points="799.7994,-387.2295 789.9014,-383.4505 795.2824,-392.5771 799.7994,-387.2295"/>
<text text-anchor="middle" x="835.7416" y="-405.8" font-family="Times,serif" font-size="14.00" fill="#0000ff">init</text>
</g>
<!-- #10 Variable (v1) -->
<g id="node13" class="node">
<title>#10 Variable (v1)</title>
<ellipse fill="none" stroke="#000000" cx="947.2416" cy="-279" rx="73.387" ry="18"/>
<text text-anchor="middle" x="947.2416" y="-275.3" font-family="Times,serif" font-size="14.00" fill="#000000">#10 Variable (v1)</text>
</g>
<!-- #7 Variable (s)&#45;&gt;#10 Variable (v1) -->
<g id="edge13" class="edge">
<title>#7 Variable (s)&#45;&gt;#10 Variable (v1)</title>
<path fill="none" stroke="#ff0000" d="M872.8074,-434.7202C874.083,-413.0984 878.1792,-376.4524 891.2416,-348 898.6341,-331.8978 910.6639,-316.3566 921.6826,-304.1135"/>
<polygon fill="#ff0000" stroke="#ff0000" points="924.4562,-306.2713 928.7186,-296.5716 919.3377,-301.4962 924.4562,-306.2713"/>
</g>
<!-- #29 s&#45;o3 -->
<g id="node14" class="node">
<title>#29 s&#45;o3</title>
<ellipse fill="none" stroke="#006400" cx="942.2416" cy="-366" rx="41.6928" ry="18"/>
<text text-anchor="middle" x="942.2416" y="-362.3" font-family="Times,serif" font-size="14.00" fill="#006400">#29 s&#45;o3</text>
</g>
<!-- #7 Variable (s)&#45;&gt;#29 s&#45;o3 -->
<g id="edge14" class="edge">
<title>#7 Variable (s)&#45;&gt;#29 s&#45;o3</title>
<path fill="none" stroke="#006400" d="M886.4072,-435.3943C896.6262,-422.6935 910.5708,-405.3624 921.9676,-391.1977"/>
<polygon fill="#006400" stroke="#006400" points="924.7942,-393.2679 928.3361,-383.2827 919.3403,-388.8798 924.7942,-393.2679"/>
<text text-anchor="middle" x="942.2416" y="-405.8" font-family="Times,serif" font-size="14.00" fill="#006400">CREATE s</text>
</g>
<!-- #3 Identifier (require) -->
<g id="node15" class="node">
<title>#3 Identifier (require)</title>
<ellipse fill="none" stroke="#000000" cx="954.2416" cy="-627" rx="87.9851" ry="18"/>
<text text-anchor="middle" x="954.2416" y="-623.3" font-family="Times,serif" font-size="14.00" fill="#000000">#3 Identifier (require)</text>
</g>
<!-- #2 CallExpression&#45;&gt;#3 Identifier (require) -->
<g id="edge15" class="edge">
<title>#2 CallExpression&#45;&gt;#3 Identifier (require)</title>
<path fill="none" stroke="#0000ff" d="M954.2416,-695.9735C954.2416,-684.1918 954.2416,-668.5607 954.2416,-655.1581"/>
<polygon fill="#0000ff" stroke="#0000ff" points="957.7417,-655.0033 954.2416,-645.0034 950.7417,-655.0034 957.7417,-655.0033"/>
<text text-anchor="middle" x="970.2416" y="-666.8" font-family="Times,serif" font-size="14.00" fill="#0000ff">callee</text>
</g>
<!-- #4 Literal -->
<g id="node16" class="node">
<title>#4 Literal</title>
<ellipse fill="none" stroke="#000000" cx="1105.2416" cy="-627" rx="45.4919" ry="18"/>
<text text-anchor="middle" x="1105.2416" y="-623.3" font-family="Times,serif" font-size="14.00" fill="#000000">#4 Literal</text>
</g>
<!-- #2 CallExpression&#45;&gt;#4 Literal -->
<g id="edge16" class="edge">
<title>#2 CallExpression&#45;&gt;#4 Literal</title>
<path fill="none" stroke="#0000ff" d="M983.356,-697.2255C1008.1945,-682.9146 1043.9688,-662.3029 1070.339,-647.1095"/>
<polygon fill="#0000ff" stroke="#0000ff" points="1072.3234,-650.0055 1079.2409,-641.9806 1068.8288,-643.9402 1072.3234,-650.0055"/>
<text text-anchor="middle" x="1052.2416" y="-666.8" font-family="Times,serif" font-size="14.00" fill="#0000ff">arg 1</text>
</g>
<!-- #16 BlockStatement -->
<g id="node17" class="node">
<title>#16 BlockStatement</title>
<ellipse fill="none" stroke="#000000" cx="1031.2416" cy="-540" rx="83.3857" ry="18"/>
<text text-anchor="middle" x="1031.2416" y="-536.3" font-family="Times,serif" font-size="14.00" fill="#000000">#16 BlockStatement</text>
</g>
<!-- #6 Function (anon)&#45;&gt;#16 BlockStatement -->
<g id="edge17" class="edge">
<title>#6 Function (anon)&#45;&gt;#16 BlockStatement</title>
<path fill="none" stroke="#0000ff" d="M814.8126,-612.143C859.3536,-597.296 927.9359,-574.4352 975.928,-558.4379"/>
<polygon fill="#0000ff" stroke="#0000ff" points="977.1592,-561.7169 985.5392,-555.2341 974.9456,-555.0761 977.1592,-561.7169"/>
<text text-anchor="middle" x="931.7416" y="-579.8" font-family="Times,serif" font-size="14.00" fill="#0000ff">block</text>
</g>
<!-- #19 MemberExpression -->
<g id="node18" class="node">
<title>#19 MemberExpression</title>
<ellipse fill="none" stroke="#000000" cx="196.2416" cy="-453" rx="96.3833" ry="18"/>
<text text-anchor="middle" x="196.2416" y="-449.3" font-family="Times,serif" font-size="14.00" fill="#000000">#19 MemberExpression</text>
</g>
<!-- #18 AssignmentExpression&#45;&gt;#19 MemberExpression -->
<g id="edge18" class="edge">
<title>#18 AssignmentExpression&#45;&gt;#19 MemberExpression</title>
<path fill="none" stroke="#0000ff" d="M306.3153,-522.3943C284.9455,-508.922 255.3114,-490.2397 232.1742,-475.6531"/>
<polygon fill="#0000ff" stroke="#0000ff" points="233.9814,-472.655 223.6555,-470.2827 230.2482,-478.5765 233.9814,-472.655"/>
<text text-anchor="middle" x="283.7416" y="-492.8" font-family="Times,serif" font-size="14.00" fill="#0000ff">left</text>
</g>
<!-- #22 Identifier (f) -->
<g id="node19" class="node">
<title>#22 Identifier (f)</title>
<ellipse fill="none" stroke="#000000" cx="380.2416" cy="-453" rx="70.3881" ry="18"/>
<text text-anchor="middle" x="380.2416" y="-449.3" font-family="Times,serif" font-size="14.00" fill="#000000">#22 Identifier (f)</text>
</g>
<!-- #18 AssignmentExpression&#45;&gt;#22 Identifier (f) -->
<g id="edge19" class="edge">
<title>#18 AssignmentExpression&#45;&gt;#22 Identifier (f)</title>
<path fill="none" stroke="#0000ff" d="M343.7729,-521.9735C350.1873,-509.8418 358.7598,-493.6287 365.9817,-479.9698"/>
<polygon fill="#0000ff" stroke="#0000ff" points="369.1425,-481.4797 370.7226,-471.0034 362.9542,-478.2077 369.1425,-481.4797"/>
<text text-anchor="middle" x="373.2416" y="-492.8" font-family="Times,serif" font-size="14.00" fill="#0000ff">right</text>
</g>
<!-- #9 Identifier (read) -->
<g id="node20" class="node">
<title>#9 Identifier (read)</title>
<ellipse fill="none" stroke="#000000" cx="769.2416" cy="-279" rx="77.9862" ry="18"/>
<text text-anchor="middle" x="769.2416" y="-275.3" font-family="Times,serif" font-size="14.00" fill="#000000">#9 Identifier (read)</text>
</g>
<!-- #8 CallExpression&#45;&gt;#9 Identifier (read) -->
<g id="edge20" class="edge">
<title>#8 CallExpression&#45;&gt;#9 Identifier (read)</title>
<path fill="none" stroke="#0000ff" d="M769.2416,-347.9735C769.2416,-336.1918 769.2416,-320.5607 769.2416,-307.1581"/>
<polygon fill="#0000ff" stroke="#0000ff" points="772.7417,-307.0033 769.2416,-297.0034 765.7417,-307.0034 772.7417,-307.0033"/>
<text text-anchor="middle" x="785.2416" y="-318.8" font-family="Times,serif" font-size="14.00" fill="#0000ff">callee</text>
</g>
<!-- #11 CallExpression -->
<g id="node21" class="node">
<title>#11 CallExpression</title>
<ellipse fill="none" stroke="#000000" cx="877.2416" cy="-192" rx="79.8859" ry="18"/>
<text text-anchor="middle" x="877.2416" y="-188.3" font-family="Times,serif" font-size="14.00" fill="#000000">#11 CallExpression</text>
</g>
<!-- #10 Variable (v1)&#45;&gt;#11 CallExpression -->
<g id="edge21" class="edge">
<title>#10 Variable (v1)&#45;&gt;#11 CallExpression</title>
<path fill="none" stroke="#0000ff" d="M932.7376,-260.9735C922.7887,-248.6085 909.4284,-232.0036 898.3098,-218.1847"/>
<polygon fill="#0000ff" stroke="#0000ff" points="900.7228,-215.6005 891.7271,-210.0034 895.269,-219.9886 900.7228,-215.6005"/>
<text text-anchor="middle" x="925.7416" y="-231.8" font-family="Times,serif" font-size="14.00" fill="#0000ff">init</text>
</g>
<!-- #14 ReturnStatement -->
<g id="node22" class="node">
<title>#14 ReturnStatement</title>
<ellipse fill="none" stroke="#000000" cx="1052.2416" cy="-105" rx="85.5853" ry="18"/>
<text text-anchor="middle" x="1052.2416" y="-101.3" font-family="Times,serif" font-size="14.00" fill="#000000">#14 ReturnStatement</text>
</g>
<!-- #10 Variable (v1)&#45;&gt;#14 ReturnStatement -->
<g id="edge22" class="edge">
<title>#10 Variable (v1)&#45;&gt;#14 ReturnStatement</title>
<path fill="none" stroke="#ff0000" d="M958.083,-261.0343C976.6011,-230.3472 1014.4182,-167.6789 1036.0679,-131.8022"/>
<polygon fill="#ff0000" stroke="#ff0000" points="1039.2892,-133.2382 1041.4592,-122.868 1033.2959,-129.6215 1039.2892,-133.2382"/>
</g>
<!-- #30 v1&#45;o4 -->
<g id="node23" class="node">
<title>#30 v1&#45;o4</title>
<ellipse fill="none" stroke="#006400" cx="1125.2416" cy="-192" rx="46.5926" ry="18"/>
<text text-anchor="middle" x="1125.2416" y="-188.3" font-family="Times,serif" font-size="14.00" fill="#006400">#30 v1&#45;o4</text>
</g>
<!-- #10 Variable (v1)&#45;&gt;#30 v1&#45;o4 -->
<g id="edge23" class="edge">
<title>#10 Variable (v1)&#45;&gt;#30 v1&#45;o4</title>
<path fill="none" stroke="#006400" d="M980.3049,-262.8399C1010.5936,-248.0358 1055.418,-226.1273 1087.1859,-210.6003"/>
<polygon fill="#006400" stroke="#006400" points="1088.738,-213.7374 1096.1854,-206.2016 1085.6642,-207.4484 1088.738,-213.7374"/>
<text text-anchor="middle" x="1081.2416" y="-231.8" font-family="Times,serif" font-size="14.00" fill="#006400">CREATE v1</text>
</g>
<!-- #29 s&#45;o3&#45;&gt;#10 Variable (v1) -->
<g id="edge24" class="edge">
<title>#29 s&#45;o3&#45;&gt;#10 Variable (v1)</title>
<path fill="none" stroke="#006400" d="M943.2776,-347.9735C943.9548,-336.1918 944.8531,-320.5607 945.6234,-307.1581"/>
<polygon fill="#006400" stroke="#006400" points="949.1273,-307.1877 946.207,-297.0034 942.1389,-306.786 949.1273,-307.1877"/>
<text text-anchor="middle" x="963.2416" y="-318.8" font-family="Times,serif" font-size="14.00" fill="#006400">VAR s</text>
</g>
<!-- #16 BlockStatement&#45;&gt;#7 Variable (s) -->
<g id="edge25" class="edge">
<title>#16 BlockStatement&#45;&gt;#7 Variable (s)</title>
<path fill="none" stroke="#0000ff" d="M1000.5848,-523.2255C974.9648,-509.207 938.2952,-489.1425 910.7077,-474.0475"/>
<polygon fill="#0000ff" stroke="#0000ff" points="912.1819,-470.8645 901.7292,-469.1347 908.8218,-477.0053 912.1819,-470.8645"/>
<text text-anchor="middle" x="964.7416" y="-492.8" font-family="Times,serif" font-size="14.00" fill="#0000ff">1</text>
</g>
<!-- #16 BlockStatement&#45;&gt;#10 Variable (v1) -->
<g id="edge26" class="edge">
<title>#16 BlockStatement&#45;&gt;#10 Variable (v1)</title>
<path fill="none" stroke="#0000ff" d="M1031.372,-521.7517C1030.8883,-481.6437 1025.4384,-383.9054 986.2416,-315 983.9764,-311.0179 981.12,-307.2246 977.9875,-303.6971"/>
<polygon fill="#0000ff" stroke="#0000ff" points="980.3278,-301.0858 970.8113,-296.429 975.3467,-306.004 980.3278,-301.0858"/>
<text text-anchor="middle" x="1023.7416" y="-405.8" font-family="Times,serif" font-size="14.00" fill="#0000ff">2</text>
</g>
<!-- #16 BlockStatement&#45;&gt;#14 ReturnStatement -->
<g id="edge27" class="edge">
<title>#16 BlockStatement&#45;&gt;#14 ReturnStatement</title>
<path fill="none" stroke="#0000ff" d="M1037.5684,-521.9202C1043.0955,-504.4951 1050.2416,-477.2725 1050.2416,-453 1050.2416,-453 1050.2416,-453 1050.2416,-192 1050.2416,-172.5423 1050.7478,-150.6433 1051.2509,-133.6839"/>
<polygon fill="#0000ff" stroke="#0000ff" points="1054.7604,-133.4326 1051.5757,-123.3277 1047.7638,-133.2131 1054.7604,-133.4326"/>
<text text-anchor="middle" x="1053.7416" y="-318.8" font-family="Times,serif" font-size="14.00" fill="#0000ff">3</text>
</g>
<!-- #20 Identifier (module) -->
<g id="node24" class="node">
<title>#20 Identifier (module)</title>
<ellipse fill="none" stroke="#000000" cx="94.2416" cy="-366" rx="94.4839" ry="18"/>
<text text-anchor="middle" x="94.2416" y="-362.3" font-family="Times,serif" font-size="14.00" fill="#000000">#20 Identifier (module)</text>
</g>
<!-- #19 MemberExpression&#45;&gt;#20 Identifier (module) -->
<g id="edge28" class="edge">
<title>#19 MemberExpression&#45;&gt;#20 Identifier (module)</title>
<path fill="none" stroke="#0000ff" d="M175.6004,-435.3943C160.3925,-422.4228 139.5218,-404.6213 122.7269,-390.2962"/>
<polygon fill="#0000ff" stroke="#0000ff" points="124.7318,-387.4061 114.8522,-383.5796 120.1892,-392.732 124.7318,-387.4061"/>
<text text-anchor="middle" x="169.2416" y="-405.8" font-family="Times,serif" font-size="14.00" fill="#0000ff">object</text>
</g>
<!-- #21 Identifier (exports) -->
<g id="node25" class="node">
<title>#21 Identifier (exports)</title>
<ellipse fill="none" stroke="#000000" cx="299.2416" cy="-366" rx="92.8835" ry="18"/>
<text text-anchor="middle" x="299.2416" y="-362.3" font-family="Times,serif" font-size="14.00" fill="#000000">#21 Identifier (exports)</text>
</g>
<!-- #19 MemberExpression&#45;&gt;#21 Identifier (exports) -->
<g id="edge29" class="edge">
<title>#19 MemberExpression&#45;&gt;#21 Identifier (exports)</title>
<path fill="none" stroke="#0000ff" d="M217.0852,-435.3943C232.4423,-422.4228 253.5175,-404.6213 270.4771,-390.2962"/>
<polygon fill="#0000ff" stroke="#0000ff" points="273.048,-392.7062 278.429,-383.5796 268.5311,-387.3585 273.048,-392.7062"/>
<text text-anchor="middle" x="277.2416" y="-405.8" font-family="Times,serif" font-size="14.00" fill="#0000ff">property</text>
</g>
<!-- #12 Identifier (eval) -->
<g id="node26" class="node">
<title>#12 Identifier (eval)</title>
<ellipse fill="none" stroke="#000000" cx="706.2416" cy="-105" rx="81.7856" ry="18"/>
<text text-anchor="middle" x="706.2416" y="-101.3" font-family="Times,serif" font-size="14.00" fill="#000000">#12 Identifier (eval)</text>
</g>
<!-- #11 CallExpression&#45;&gt;#12 Identifier (eval) -->
<g id="edge30" class="edge">
<title>#11 CallExpression&#45;&gt;#12 Identifier (eval)</title>
<path fill="none" stroke="#0000ff" d="M844.6753,-175.4312C817.3068,-161.5068 778.0083,-141.5129 748.2697,-126.3827"/>
<polygon fill="#0000ff" stroke="#0000ff" points="749.4774,-123.0702 738.9775,-121.6551 746.3031,-129.3092 749.4774,-123.0702"/>
<text text-anchor="middle" x="818.2416" y="-144.8" font-family="Times,serif" font-size="14.00" fill="#0000ff">callee</text>
</g>
<!-- #13 Identifier (s) -->
<g id="node27" class="node">
<title>#13 Identifier (s)</title>
<ellipse fill="none" stroke="#000000" cx="877.2416" cy="-105" rx="70.6878" ry="18"/>
<text text-anchor="middle" x="877.2416" y="-101.3" font-family="Times,serif" font-size="14.00" fill="#000000">#13 Identifier (s)</text>
</g>
<!-- #11 CallExpression&#45;&gt;#13 Identifier (s) -->
<g id="edge31" class="edge">
<title>#11 CallExpression&#45;&gt;#13 Identifier (s)</title>
<path fill="none" stroke="#0000ff" d="M877.2416,-173.9735C877.2416,-162.1918 877.2416,-146.5607 877.2416,-133.1581"/>
<polygon fill="#0000ff" stroke="#0000ff" points="880.7417,-133.0033 877.2416,-123.0034 873.7417,-133.0034 880.7417,-133.0033"/>
<text text-anchor="middle" x="891.2416" y="-144.8" font-family="Times,serif" font-size="14.00" fill="#0000ff">arg 1</text>
</g>
<!-- #15 Identifier (v1) -->
<g id="node28" class="node">
<title>#15 Identifier (v1)</title>
<ellipse fill="none" stroke="#000000" cx="953.2416" cy="-18" rx="76.0865" ry="18"/>
<text text-anchor="middle" x="953.2416" y="-14.3" font-family="Times,serif" font-size="14.00" fill="#000000">#15 Identifier (v1)</text>
</g>
<!-- #14 ReturnStatement&#45;&gt;#15 Identifier (v1) -->
<g id="edge32" class="edge">
<title>#14 ReturnStatement&#45;&gt;#15 Identifier (v1)</title>
<path fill="none" stroke="#0000ff" d="M1032.2075,-87.3943C1017.4468,-74.4228 997.1901,-56.6213 980.8891,-42.2962"/>
<polygon fill="#0000ff" stroke="#0000ff" points="983.0681,-39.5517 973.246,-35.5796 978.4472,-44.8098 983.0681,-39.5517"/>
<text text-anchor="middle" x="1034.2416" y="-57.8" font-family="Times,serif" font-size="14.00" fill="#0000ff">argument</text>
</g>
<!-- #26 CFG_F_END 6_anon -->
<g id="node29" class="node">
<title>#26 CFG_F_END 6_anon</title>
<ellipse fill="none" stroke="#ff0000" cx="1150.2416" cy="-18" rx="103.1819" ry="18"/>
<text text-anchor="middle" x="1150.2416" y="-14.3" font-family="Times,serif" font-size="14.00" fill="#ff0000">#26 CFG_F_END 6_anon</text>
</g>
<!-- #14 ReturnStatement&#45;&gt;#26 CFG_F_END 6_anon -->
<g id="edge33" class="edge">
<title>#14 ReturnStatement&#45;&gt;#26 CFG_F_END 6_anon</title>
<path fill="none" stroke="#ff0000" d="M1072.0734,-87.3943C1086.5888,-74.5081 1106.4735,-56.8554 1122.5545,-42.5794"/>
<polygon fill="#ff0000" stroke="#ff0000" points="1124.9483,-45.1345 1130.103,-35.8782 1120.3011,-39.8997 1124.9483,-45.1345"/>
</g>
<!-- #30 v1&#45;o4&#45;&gt;#14 ReturnStatement -->
<g id="edge34" class="edge">
<title>#30 v1&#45;o4&#45;&gt;#14 ReturnStatement</title>
<path fill="none" stroke="#006400" d="M1110.8192,-174.8116C1100.2599,-162.2272 1085.7519,-144.9369 1073.8163,-130.7122"/>
<polygon fill="#006400" stroke="#006400" points="1076.2443,-128.1608 1067.1353,-122.75 1070.8819,-132.6603 1076.2443,-128.1608"/>
<text text-anchor="middle" x="1115.2416" y="-144.8" font-family="Times,serif" font-size="14.00" fill="#006400">VAR v1</text>
</g>
</g>
</svg>
