<?xml version="1.0" encoding="UTF-8" standalone="no"?>
<!DOCTYPE svg PUBLIC "-//W3C//DTD SVG 1.1//EN"
 "http://www.w3.org/Graphics/SVG/1.1/DTD/svg11.dtd">
<!-- Generated by graphviz version 2.40.1 (20161225.0304)
 -->
<!-- Title: G Pages: 1 -->
<svg width="815pt" height="1192pt"
 viewBox="0.00 0.00 814.63 1192.00" xmlns="http://www.w3.org/2000/svg" xmlns:xlink="http://www.w3.org/1999/xlink">
<g id="graph0" class="graph" transform="scale(1 1) rotate(0) translate(4 1188)">
<title>G</title>
<polygon fill="#ffffff" stroke="transparent" points="-4,4 -4,-1188 810.6303,-1188 810.6303,4 -4,4"/>
<!-- #46 CFG_F_START __main__ -->
<g id="node1" class="node">
<title>#46 CFG_F_START __main__</title>
<ellipse fill="none" stroke="#ff0000" cx="340.3408" cy="-1166" rx="122.6784" ry="18"/>
<text text-anchor="middle" x="340.3408" y="-1162.3" font-family="Times,serif" font-size="14.00" fill="#ff0000">#46 CFG_F_START __main__</text>
</g>
<!-- #1 Variable (f) &#45; (46) -->
<g id="node2" class="node">
<title>#1 Variable (f) &#45; (46)</title>
<ellipse fill="none" stroke="#000000" cx="340.3408" cy="-1093" rx="85.5853" ry="18"/>
<text text-anchor="middle" x="340.3408" y="-1089.3" font-family="Times,serif" font-size="14.00" fill="#000000">#1 Variable (f) &#45; (46)</text>
</g>
<!-- #46 CFG_F_START __main__&#45;&gt;#1 Variable (f) &#45; (46) -->
<g id="edge1" class="edge">
<title>#46 CFG_F_START __main__&#45;&gt;#1 Variable (f) &#45; (46)</title>
<path fill="none" stroke="#ff0000" d="M340.3408,-1147.9551C340.3408,-1139.8828 340.3408,-1130.1764 340.3408,-1121.1817"/>
<polygon fill="#ff0000" stroke="#ff0000" points="343.8409,-1121.0903 340.3408,-1111.0904 336.8409,-1121.0904 343.8409,-1121.0903"/>
</g>
<!-- #48 CFG_F_START 2_anon -->
<g id="node3" class="node">
<title>#48 CFG_F_START 2_anon</title>
<ellipse fill="none" stroke="#ff0000" cx="199.3408" cy="-1006" rx="113.18" ry="18"/>
<text text-anchor="middle" x="199.3408" y="-1002.3" font-family="Times,serif" font-size="14.00" fill="#ff0000">#48 CFG_F_START 2_anon</text>
</g>
<!-- #1 Variable (f) &#45; (46)&#45;&gt;#48 CFG_F_START 2_anon -->
<g id="edge4" class="edge">
<title>#1 Variable (f) &#45; (46)&#45;&gt;#48 CFG_F_START 2_anon</title>
<path fill="none" stroke="#000000" d="M312.4838,-1075.8116C290.7071,-1062.3749 260.2354,-1043.5733 236.4006,-1028.8667"/>
<polygon fill="#000000" stroke="#000000" points="237.9709,-1025.723 227.6226,-1023.4505 234.2951,-1031.6802 237.9709,-1025.723"/>
<text text-anchor="middle" x="287.3408" y="-1045.8" font-family="Times,serif" font-size="14.00" fill="#000000">FD</text>
</g>
<!-- #52 48.o&#45;o1 -->
<g id="node6" class="node">
<title>#52 48.o&#45;o1</title>
<ellipse fill="none" stroke="#006400" cx="434.3408" cy="-919" rx="53.8905" ry="18"/>
<text text-anchor="middle" x="434.3408" y="-915.3" font-family="Times,serif" font-size="14.00" fill="#006400">#52 48.o&#45;o1</text>
</g>
<!-- #1 Variable (f) &#45; (46)&#45;&gt;#52 48.o&#45;o1 -->
<g id="edge6" class="edge">
<title>#1 Variable (f) &#45; (46)&#45;&gt;#52 48.o&#45;o1</title>
<path fill="none" stroke="#000000" stroke-dasharray="5,2" d="M340.1928,-1074.754C340.7618,-1052.841 344.1587,-1015.5917 359.3408,-988 369.4163,-969.6891 386.1621,-953.5854 401.2773,-941.5506"/>
<polygon fill="#000000" stroke="#000000" points="403.6385,-944.151 409.4542,-935.295 399.3852,-938.5914 403.6385,-944.151"/>
</g>
<!-- #40 ExpressionStatement (46) -->
<g id="node7" class="node">
<title>#40 ExpressionStatement (46)</title>
<ellipse fill="none" stroke="#000000" cx="688.3408" cy="-1006" rx="118.0794" ry="18"/>
<text text-anchor="middle" x="688.3408" y="-1002.3" font-family="Times,serif" font-size="14.00" fill="#000000">#40 ExpressionStatement (46)</text>
</g>
<!-- #1 Variable (f) &#45; (46)&#45;&gt;#40 ExpressionStatement (46) -->
<g id="edge5" class="edge">
<title>#1 Variable (f) &#45; (46)&#45;&gt;#40 ExpressionStatement (46)</title>
<path fill="none" stroke="#ff0000" d="M395.8673,-1079.1184C455.7353,-1064.1514 551.2384,-1040.2756 616.7196,-1023.9053"/>
<polygon fill="#ff0000" stroke="#ff0000" points="617.7052,-1027.2667 626.5577,-1021.4458 616.0074,-1020.4757 617.7052,-1027.2667"/>
</g>
<!-- #4 Variable (v1) &#45; (48) -->
<g id="node4" class="node">
<title>#4 Variable (v1) &#45; (48)</title>
<ellipse fill="none" stroke="#000000" cx="199.3408" cy="-919" rx="91.784" ry="18"/>
<text text-anchor="middle" x="199.3408" y="-915.3" font-family="Times,serif" font-size="14.00" fill="#000000">#4 Variable (v1) &#45; (48)</text>
</g>
<!-- #48 CFG_F_START 2_anon&#45;&gt;#4 Variable (v1) &#45; (48) -->
<g id="edge2" class="edge">
<title>#48 CFG_F_START 2_anon&#45;&gt;#4 Variable (v1) &#45; (48)</title>
<path fill="none" stroke="#ff0000" d="M199.3408,-987.9735C199.3408,-976.1918 199.3408,-960.5607 199.3408,-947.1581"/>
<polygon fill="#ff0000" stroke="#ff0000" points="202.8409,-947.0033 199.3408,-937.0034 195.8409,-947.0034 202.8409,-947.0033"/>
</g>
<!-- #8 Variable (v2) &#45; (48) -->
<g id="node8" class="node">
<title>#8 Variable (v2) &#45; (48)</title>
<ellipse fill="none" stroke="#000000" cx="185.3408" cy="-832" rx="91.784" ry="18"/>
<text text-anchor="middle" x="185.3408" y="-828.3" font-family="Times,serif" font-size="14.00" fill="#000000">#8 Variable (v2) &#45; (48)</text>
</g>
<!-- #4 Variable (v1) &#45; (48)&#45;&gt;#8 Variable (v2) &#45; (48) -->
<g id="edge7" class="edge">
<title>#4 Variable (v1) &#45; (48)&#45;&gt;#8 Variable (v2) &#45; (48)</title>
<path fill="none" stroke="#ff0000" d="M196.44,-900.9735C194.5441,-889.1918 192.0288,-873.5607 189.872,-860.1581"/>
<polygon fill="#ff0000" stroke="#ff0000" points="193.2823,-859.3203 188.2379,-850.0034 186.3712,-860.4324 193.2823,-859.3203"/>
</g>
<!-- #53 48.o&#45;o1.z&#45;o2 -->
<g id="node9" class="node">
<title>#53 48.o&#45;o1.z&#45;o2</title>
<ellipse fill="none" stroke="#006400" cx="366.3408" cy="-832" rx="71.4873" ry="18"/>
<text text-anchor="middle" x="366.3408" y="-828.3" font-family="Times,serif" font-size="14.00" fill="#006400">#53 48.o&#45;o1.z&#45;o2</text>
</g>
<!-- #4 Variable (v1) &#45; (48)&#45;&gt;#53 48.o&#45;o1.z&#45;o2 -->
<g id="edge8" class="edge">
<title>#4 Variable (v1) &#45; (48)&#45;&gt;#53 48.o&#45;o1.z&#45;o2</title>
<path fill="none" stroke="#000000" stroke-dasharray="5,2" d="M231.9366,-902.019C258.8314,-888.0079 297.1196,-868.0614 325.955,-853.0393"/>
<polygon fill="#000000" stroke="#000000" points="327.7069,-856.0732 334.9585,-848.3489 324.4727,-849.8651 327.7069,-856.0732"/>
</g>
<!-- #51 TAINT_SOURCE -->
<g id="node5" class="node">
<title>#51 TAINT_SOURCE</title>
<ellipse fill="none" stroke="#8b6914" cx="460.3408" cy="-1006" rx="91.784" ry="18"/>
<text text-anchor="middle" x="460.3408" y="-1002.3" font-family="Times,serif" font-size="14.00" fill="#8b6914">#51 TAINT_SOURCE</text>
</g>
<!-- #51 TAINT_SOURCE&#45;&gt;#52 48.o&#45;o1 -->
<g id="edge3" class="edge">
<title>#51 TAINT_SOURCE&#45;&gt;#52 48.o&#45;o1</title>
<path fill="none" stroke="#006400" d="M454.9536,-987.9735C451.3978,-976.0751 446.6686,-960.2508 442.6371,-946.7606"/>
<polygon fill="#006400" stroke="#006400" points="445.938,-945.5825 439.7211,-937.0034 439.2311,-947.5869 445.938,-945.5825"/>
<text text-anchor="middle" x="469.8408" y="-958.8" font-family="Times,serif" font-size="14.00" fill="#006400">TAINT</text>
</g>
<!-- #52 48.o&#45;o1&#45;&gt;#53 48.o&#45;o1.z&#45;o2 -->
<g id="edge9" class="edge">
<title>#52 48.o&#45;o1&#45;&gt;#53 48.o&#45;o1.z&#45;o2</title>
<path fill="none" stroke="#006400" d="M420.58,-901.3943C410.8743,-888.9767 397.7091,-872.1329 386.7798,-858.1498"/>
<polygon fill="#006400" stroke="#006400" points="389.2304,-855.6017 380.3146,-849.8782 383.7152,-859.9124 389.2304,-855.6017"/>
<text text-anchor="middle" x="421.8408" y="-871.8" font-family="Times,serif" font-size="14.00" fill="#006400">SO(z)</text>
</g>
<!-- #55 48.o&#45;o4 -->
<g id="node10" class="node">
<title>#55 48.o&#45;o4</title>
<ellipse fill="none" stroke="#006400" cx="465.3408" cy="-498" rx="53.8905" ry="18"/>
<text text-anchor="middle" x="465.3408" y="-494.3" font-family="Times,serif" font-size="14.00" fill="#006400">#55 48.o&#45;o4</text>
</g>
<!-- #52 48.o&#45;o1&#45;&gt;#55 48.o&#45;o4 -->
<g id="edge10" class="edge">
<title>#52 48.o&#45;o1&#45;&gt;#55 48.o&#45;o4</title>
<path fill="none" stroke="#006400" d="M444.6634,-901.3247C453.6813,-884.1924 465.3408,-857.174 465.3408,-832 465.3408,-832 465.3408,-832 465.3408,-571 465.3408,-556.2996 465.3408,-539.934 465.3408,-526.4302"/>
<polygon fill="#006400" stroke="#006400" points="468.8409,-526.3003 465.3408,-516.3003 461.8409,-526.3004 468.8409,-526.3003"/>
<text text-anchor="middle" x="483.3408" y="-697.8" font-family="Times,serif" font-size="14.00" fill="#006400">NV(y)</text>
</g>
<!-- #47 CFG_F_END __main__ -->
<g id="node11" class="node">
<title>#47 CFG_F_END __main__</title>
<ellipse fill="none" stroke="#ff0000" cx="688.3408" cy="-919" rx="113.18" ry="18"/>
<text text-anchor="middle" x="688.3408" y="-915.3" font-family="Times,serif" font-size="14.00" fill="#ff0000">#47 CFG_F_END __main__</text>
</g>
<!-- #40 ExpressionStatement (46)&#45;&gt;#47 CFG_F_END __main__ -->
<g id="edge11" class="edge">
<title>#40 ExpressionStatement (46)&#45;&gt;#47 CFG_F_END __main__</title>
<path fill="none" stroke="#ff0000" d="M688.3408,-987.9735C688.3408,-976.1918 688.3408,-960.5607 688.3408,-947.1581"/>
<polygon fill="#ff0000" stroke="#ff0000" points="691.8409,-947.0033 688.3408,-937.0034 684.8409,-947.0034 691.8409,-947.0033"/>
</g>
<!-- #12 IfStatement (48) -->
<g id="node12" class="node">
<title>#12 IfStatement (48)</title>
<ellipse fill="none" stroke="#000000" cx="185.3408" cy="-745" rx="85.2851" ry="18"/>
<text text-anchor="middle" x="185.3408" y="-741.3" font-family="Times,serif" font-size="14.00" fill="#000000">#12 IfStatement (48)</text>
</g>
<!-- #8 Variable (v2) &#45; (48)&#45;&gt;#12 IfStatement (48) -->
<g id="edge12" class="edge">
<title>#8 Variable (v2) &#45; (48)&#45;&gt;#12 IfStatement (48)</title>
<path fill="none" stroke="#ff0000" d="M185.3408,-813.9735C185.3408,-802.1918 185.3408,-786.5607 185.3408,-773.1581"/>
<polygon fill="#ff0000" stroke="#ff0000" points="188.8409,-773.0033 185.3408,-763.0034 181.8409,-773.0034 188.8409,-773.0033"/>
</g>
<!-- #54 48.v2&#45;o3 -->
<g id="node13" class="node">
<title>#54 48.v2&#45;o3</title>
<ellipse fill="none" stroke="#006400" cx="351.3408" cy="-745" rx="57.6901" ry="18"/>
<text text-anchor="middle" x="351.3408" y="-741.3" font-family="Times,serif" font-size="14.00" fill="#006400">#54 48.v2&#45;o3</text>
</g>
<!-- #8 Variable (v2) &#45; (48)&#45;&gt;#54 48.v2&#45;o3 -->
<g id="edge13" class="edge">
<title>#8 Variable (v2) &#45; (48)&#45;&gt;#54 48.v2&#45;o3</title>
<path fill="none" stroke="#000000" stroke-dasharray="5,2" d="M217.7414,-815.019C244.986,-800.7402 283.9927,-780.2969 312.8294,-765.1837"/>
<polygon fill="#000000" stroke="#000000" points="314.5743,-768.2208 321.8069,-760.4786 311.3248,-762.0207 314.5743,-768.2208"/>
</g>
<!-- #53 48.o&#45;o1.z&#45;o2&#45;&gt;#54 48.v2&#45;o3 -->
<g id="edge14" class="edge">
<title>#53 48.o&#45;o1.z&#45;o2&#45;&gt;#54 48.v2&#45;o3</title>
<path fill="none" stroke="#006400" d="M363.2328,-813.9735C361.2015,-802.1918 358.5065,-786.5607 356.1957,-773.1581"/>
<polygon fill="#006400" stroke="#006400" points="359.5931,-772.2633 354.4449,-763.0034 352.6949,-773.4527 359.5931,-772.2633"/>
<text text-anchor="middle" x="384.8408" y="-784.8" font-family="Times,serif" font-size="14.00" fill="#006400">DEP(v1)</text>
</g>
<!-- #56 48.o&#45;o4.y&#45;o5 -->
<g id="node14" class="node">
<title>#56 48.o&#45;o4.y&#45;o5</title>
<ellipse fill="none" stroke="#006400" cx="396.3408" cy="-411" rx="72.2875" ry="18"/>
<text text-anchor="middle" x="396.3408" y="-407.3" font-family="Times,serif" font-size="14.00" fill="#006400">#56 48.o&#45;o4.y&#45;o5</text>
</g>
<!-- #55 48.o&#45;o4&#45;&gt;#56 48.o&#45;o4.y&#45;o5 -->
<g id="edge15" class="edge">
<title>#55 48.o&#45;o4&#45;&gt;#56 48.o&#45;o4.y&#45;o5</title>
<path fill="none" stroke="#006400" d="M451.3777,-480.3943C441.4363,-467.8595 427.918,-450.8147 416.7671,-436.7548"/>
<polygon fill="#006400" stroke="#006400" points="419.4763,-434.5383 410.5201,-428.8782 413.9918,-438.8881 419.4763,-434.5383"/>
<text text-anchor="middle" x="452.3408" y="-450.8" font-family="Times,serif" font-size="14.00" fill="#006400">SO(y)</text>
</g>
<!-- #57 48.o&#45;o4.w&#45;o6 -->
<g id="node15" class="node">
<title>#57 48.o&#45;o4.w&#45;o6</title>
<ellipse fill="none" stroke="#006400" cx="369.3408" cy="-324" rx="74.187" ry="18"/>
<text text-anchor="middle" x="369.3408" y="-320.3" font-family="Times,serif" font-size="14.00" fill="#006400">#57 48.o&#45;o4.w&#45;o6</text>
</g>
<!-- #55 48.o&#45;o4&#45;&gt;#57 48.o&#45;o4.w&#45;o6 -->
<g id="edge16" class="edge">
<title>#55 48.o&#45;o4&#45;&gt;#57 48.o&#45;o4.w&#45;o6</title>
<path fill="none" stroke="#006400" d="M473.4163,-480.0607C481.9962,-458.1221 492.414,-420.5169 477.3408,-393 465.0413,-370.5466 441.9804,-354.338 420.3164,-343.2965"/>
<polygon fill="#006400" stroke="#006400" points="421.6805,-340.0686 411.1528,-338.8777 418.64,-346.3739 421.6805,-340.0686"/>
<text text-anchor="middle" x="503.8408" y="-407.3" font-family="Times,serif" font-size="14.00" fill="#006400">SO(w)</text>
</g>
<!-- #13 Identifier (v2) &#45; (48) -->
<g id="node16" class="node">
<title>#13 Identifier (v2) &#45; (48)</title>
<ellipse fill="none" stroke="#000000" cx="185.3408" cy="-658" rx="98.5829" ry="18"/>
<text text-anchor="middle" x="185.3408" y="-654.3" font-family="Times,serif" font-size="14.00" fill="#000000">#13 Identifier (v2) &#45; (48)</text>
</g>
<!-- #12 IfStatement (48)&#45;&gt;#13 Identifier (v2) &#45; (48) -->
<g id="edge17" class="edge">
<title>#12 IfStatement (48)&#45;&gt;#13 Identifier (v2) &#45; (48)</title>
<path fill="none" stroke="#ff0000" d="M185.3408,-726.9735C185.3408,-715.1918 185.3408,-699.5607 185.3408,-686.1581"/>
<polygon fill="#ff0000" stroke="#ff0000" points="188.8409,-686.0033 185.3408,-676.0034 181.8409,-686.0034 188.8409,-686.0033"/>
<text text-anchor="middle" x="194.8408" y="-697.8" font-family="Times,serif" font-size="14.00" fill="#ff0000">test</text>
</g>
<!-- #58 48.v5&#45;o7 -->
<g id="node17" class="node">
<title>#58 48.v5&#45;o7</title>
<ellipse fill="none" stroke="#006400" cx="367.3408" cy="-237" rx="57.6901" ry="18"/>
<text text-anchor="middle" x="367.3408" y="-233.3" font-family="Times,serif" font-size="14.00" fill="#006400">#58 48.v5&#45;o7</text>
</g>
<!-- #56 48.o&#45;o4.y&#45;o5&#45;&gt;#58 48.v5&#45;o7 -->
<g id="edge18" class="edge">
<title>#56 48.o&#45;o4.y&#45;o5&#45;&gt;#58 48.v5&#45;o7</title>
<path fill="none" stroke="#006400" d="M416.2477,-393.6011C429.2778,-380.8163 445.1713,-362.2109 452.3408,-342 457.69,-326.9207 458.1104,-320.9235 452.3408,-306 444.2715,-285.1277 425.6461,-268.8597 407.8809,-257.3756"/>
<polygon fill="#006400" stroke="#006400" points="409.6377,-254.3474 399.279,-252.1231 405.9896,-260.3217 409.6377,-254.3474"/>
<text text-anchor="middle" x="481.8408" y="-320.3" font-family="Times,serif" font-size="14.00" fill="#006400">DEP(v3)</text>
</g>
<!-- #57 48.o&#45;o4.w&#45;o6&#45;&gt;#58 48.v5&#45;o7 -->
<g id="edge19" class="edge">
<title>#57 48.o&#45;o4.w&#45;o6&#45;&gt;#58 48.v5&#45;o7</title>
<path fill="none" stroke="#006400" d="M368.9264,-305.9735C368.6556,-294.1918 368.2962,-278.5607 367.9881,-265.1581"/>
<polygon fill="#006400" stroke="#006400" points="371.4837,-264.9202 367.7547,-255.0034 364.4855,-265.0812 371.4837,-264.9202"/>
<text text-anchor="middle" x="393.8408" y="-276.8" font-family="Times,serif" font-size="14.00" fill="#006400">DEP(v4)</text>
</g>
<!-- #14 ExpressionStatement (48) -->
<g id="node18" class="node">
<title>#14 ExpressionStatement (48)</title>
<ellipse fill="none" stroke="#000000" cx="234.3408" cy="-571" rx="118.0794" ry="18"/>
<text text-anchor="middle" x="234.3408" y="-567.3" font-family="Times,serif" font-size="14.00" fill="#000000">#14 ExpressionStatement (48)</text>
</g>
<!-- #13 Identifier (v2) &#45; (48)&#45;&gt;#14 ExpressionStatement (48) -->
<g id="edge20" class="edge">
<title>#13 Identifier (v2) &#45; (48)&#45;&gt;#14 ExpressionStatement (48)</title>
<path fill="none" stroke="#ff0000" d="M195.4937,-639.9735C202.3265,-627.8418 211.458,-611.6287 219.1509,-597.9698"/>
<polygon fill="#ff0000" stroke="#ff0000" points="222.3432,-599.4341 224.201,-589.0034 216.244,-595.9989 222.3432,-599.4341"/>
<text text-anchor="middle" x="231.3408" y="-610.8" font-family="Times,serif" font-size="14.00" fill="#ff0000">TRUE</text>
</g>
<!-- #50 CFG_IF_END (48) -->
<g id="node19" class="node">
<title>#50 CFG_IF_END (48)</title>
<ellipse fill="none" stroke="#ff0000" cx="103.3408" cy="-91" rx="94.7833" ry="18"/>
<text text-anchor="middle" x="103.3408" y="-87.3" font-family="Times,serif" font-size="14.00" fill="#ff0000">#50 CFG_IF_END (48)</text>
</g>
<!-- #13 Identifier (v2) &#45; (48)&#45;&gt;#50 CFG_IF_END (48) -->
<g id="edge21" class="edge">
<title>#13 Identifier (v2) &#45; (48)&#45;&gt;#50 CFG_IF_END (48)</title>
<path fill="none" stroke="#ff0000" d="M128.8256,-643.2215C94.5361,-630.4641 57.3408,-608.0797 57.3408,-571 57.3408,-571 57.3408,-571 57.3408,-164 57.3408,-146.3845 67.047,-129.5492 77.5422,-116.4942"/>
<polygon fill="#ff0000" stroke="#ff0000" points="80.2253,-118.7422 84.0992,-108.881 74.9213,-114.174 80.2253,-118.7422"/>
<text text-anchor="middle" x="78.3408" y="-363.8" font-family="Times,serif" font-size="14.00" fill="#ff0000">FALSE</text>
</g>
<!-- #59 48.v6&#45;o8 -->
<g id="node20" class="node">
<title>#59 48.v6&#45;o8</title>
<ellipse fill="none" stroke="#006400" cx="319.3408" cy="-91" rx="57.6901" ry="18"/>
<text text-anchor="middle" x="319.3408" y="-87.3" font-family="Times,serif" font-size="14.00" fill="#006400">#59 48.v6&#45;o8</text>
</g>
<!-- #58 48.v5&#45;o7&#45;&gt;#59 48.v6&#45;o8 -->
<g id="edge22" class="edge">
<title>#58 48.v5&#45;o7&#45;&gt;#59 48.v6&#45;o8</title>
<path fill="none" stroke="#006400" d="M362.1937,-218.9626C355.8474,-197.0668 344.5234,-159.088 333.3408,-127 332.3891,-124.2691 331.3608,-121.4367 330.3086,-118.6145"/>
<polygon fill="#006400" stroke="#006400" points="333.5574,-117.3109 326.7164,-109.2207 327.0191,-119.8112 333.5574,-117.3109"/>
<text text-anchor="middle" x="375.8408" y="-160.3" font-family="Times,serif" font-size="14.00" fill="#006400">DEP(v5)</text>
</g>
<!-- #14 ExpressionStatement (48)&#45;&gt;#56 48.o&#45;o4.y&#45;o5 -->
<g id="edge24" class="edge">
<title>#14 ExpressionStatement (48)&#45;&gt;#56 48.o&#45;o4.y&#45;o5</title>
<path fill="none" stroke="#000000" stroke-dasharray="5,2" d="M279.7321,-554.3226C299.7815,-545.2839 322.5566,-532.5372 339.3408,-516 361.6069,-494.0617 377.4105,-461.5665 386.6443,-438.5456"/>
<polygon fill="#000000" stroke="#000000" points="389.9876,-439.6029 390.3117,-429.013 383.4544,-437.0894 389.9876,-439.6029"/>
</g>
<!-- #20 Variable (v3) &#45; (48) -->
<g id="node21" class="node">
<title>#20 Variable (v3) &#45; (48)</title>
<ellipse fill="none" stroke="#000000" cx="234.3408" cy="-498" rx="96.3833" ry="18"/>
<text text-anchor="middle" x="234.3408" y="-494.3" font-family="Times,serif" font-size="14.00" fill="#000000">#20 Variable (v3) &#45; (48)</text>
</g>
<!-- #14 ExpressionStatement (48)&#45;&gt;#20 Variable (v3) &#45; (48) -->
<g id="edge23" class="edge">
<title>#14 ExpressionStatement (48)&#45;&gt;#20 Variable (v3) &#45; (48)</title>
<path fill="none" stroke="#ff0000" d="M234.3408,-552.9551C234.3408,-544.8828 234.3408,-535.1764 234.3408,-526.1817"/>
<polygon fill="#ff0000" stroke="#ff0000" points="237.8409,-526.0903 234.3408,-516.0904 230.8409,-526.0904 237.8409,-526.0903"/>
</g>
<!-- #49 CFG_F_END 2_anon -->
<g id="node22" class="node">
<title>#49 CFG_F_END 2_anon</title>
<ellipse fill="none" stroke="#ff0000" cx="103.3408" cy="-18" rx="103.1819" ry="18"/>
<text text-anchor="middle" x="103.3408" y="-14.3" font-family="Times,serif" font-size="14.00" fill="#ff0000">#49 CFG_F_END 2_anon</text>
</g>
<!-- #50 CFG_IF_END (48)&#45;&gt;#49 CFG_F_END 2_anon -->
<g id="edge25" class="edge">
<title>#50 CFG_IF_END (48)&#45;&gt;#49 CFG_F_END 2_anon</title>
<path fill="none" stroke="#ff0000" d="M103.3408,-72.9551C103.3408,-64.8828 103.3408,-55.1764 103.3408,-46.1817"/>
<polygon fill="#ff0000" stroke="#ff0000" points="106.8409,-46.0903 103.3408,-36.0904 99.8409,-46.0904 106.8409,-46.0903"/>
</g>
<!-- #20 Variable (v3) &#45; (48)&#45;&gt;#56 48.o&#45;o4.y&#45;o5 -->
<g id="edge27" class="edge">
<title>#20 Variable (v3) &#45; (48)&#45;&gt;#56 48.o&#45;o4.y&#45;o5</title>
<path fill="none" stroke="#000000" stroke-dasharray="5,2" d="M266.3468,-480.8116C292.2774,-466.8859 328.9384,-447.1976 356.7202,-432.2777"/>
<polygon fill="#000000" stroke="#000000" points="358.6192,-435.2307 365.7732,-427.4159 355.3073,-429.0638 358.6192,-435.2307"/>
</g>
<!-- #24 Variable (v4) &#45; (48) -->
<g id="node23" class="node">
<title>#24 Variable (v4) &#45; (48)</title>
<ellipse fill="none" stroke="#000000" cx="210.3408" cy="-411" rx="96.3833" ry="18"/>
<text text-anchor="middle" x="210.3408" y="-407.3" font-family="Times,serif" font-size="14.00" fill="#000000">#24 Variable (v4) &#45; (48)</text>
</g>
<!-- #20 Variable (v3) &#45; (48)&#45;&gt;#24 Variable (v4) &#45; (48) -->
<g id="edge26" class="edge">
<title>#20 Variable (v3) &#45; (48)&#45;&gt;#24 Variable (v4) &#45; (48)</title>
<path fill="none" stroke="#ff0000" d="M229.368,-479.9735C226.0857,-468.0751 221.7203,-452.2508 217.9989,-438.7606"/>
<polygon fill="#ff0000" stroke="#ff0000" points="221.3406,-437.7125 215.3073,-429.0034 214.5927,-439.5741 221.3406,-437.7125"/>
</g>
<!-- #24 Variable (v4) &#45; (48)&#45;&gt;#57 48.o&#45;o4.w&#45;o6 -->
<g id="edge29" class="edge">
<title>#24 Variable (v4) &#45; (48)&#45;&gt;#57 48.o&#45;o4.w&#45;o6</title>
<path fill="none" stroke="#000000" stroke-dasharray="5,2" d="M241.7541,-393.8116C267.1232,-379.9304 302.9567,-360.3234 330.1923,-345.4209"/>
<polygon fill="#000000" stroke="#000000" points="331.979,-348.433 339.0716,-340.5624 328.6189,-342.2921 331.979,-348.433"/>
</g>
<!-- #28 Variable (v5) &#45; (48) -->
<g id="node24" class="node">
<title>#28 Variable (v5) &#45; (48)</title>
<ellipse fill="none" stroke="#000000" cx="181.3408" cy="-324" rx="96.3833" ry="18"/>
<text text-anchor="middle" x="181.3408" y="-320.3" font-family="Times,serif" font-size="14.00" fill="#000000">#28 Variable (v5) &#45; (48)</text>
</g>
<!-- #24 Variable (v4) &#45; (48)&#45;&gt;#28 Variable (v5) &#45; (48) -->
<g id="edge28" class="edge">
<title>#24 Variable (v4) &#45; (48)&#45;&gt;#28 Variable (v5) &#45; (48)</title>
<path fill="none" stroke="#ff0000" d="M204.332,-392.9735C200.3659,-381.0751 195.0911,-365.2508 190.5944,-351.7606"/>
<polygon fill="#ff0000" stroke="#ff0000" points="193.8247,-350.3834 187.342,-342.0034 187.1839,-352.597 193.8247,-350.3834"/>
</g>
<!-- #28 Variable (v5) &#45; (48)&#45;&gt;#58 48.v5&#45;o7 -->
<g id="edge31" class="edge">
<title>#28 Variable (v5) &#45; (48)&#45;&gt;#58 48.v5&#45;o7</title>
<path fill="none" stroke="#000000" stroke-dasharray="5,2" d="M217.2035,-307.2255C248.2376,-292.7096 293.1312,-271.711 325.737,-256.4598"/>
<polygon fill="#000000" stroke="#000000" points="327.4333,-259.5304 335.0085,-252.1232 324.4675,-253.1898 327.4333,-259.5304"/>
</g>
<!-- #32 Variable (v6) &#45; (48) -->
<g id="node25" class="node">
<title>#32 Variable (v6) &#45; (48)</title>
<ellipse fill="none" stroke="#000000" cx="188.3408" cy="-237" rx="96.3833" ry="18"/>
<text text-anchor="middle" x="188.3408" y="-233.3" font-family="Times,serif" font-size="14.00" fill="#000000">#32 Variable (v6) &#45; (48)</text>
</g>
<!-- #28 Variable (v5) &#45; (48)&#45;&gt;#32 Variable (v6) &#45; (48) -->
<g id="edge30" class="edge">
<title>#28 Variable (v5) &#45; (48)&#45;&gt;#32 Variable (v6) &#45; (48)</title>
<path fill="none" stroke="#ff0000" d="M182.7912,-305.9735C183.7392,-294.1918 184.9969,-278.5607 186.0752,-265.1581"/>
<polygon fill="#ff0000" stroke="#ff0000" points="189.5789,-265.2519 186.8923,-255.0034 182.6015,-264.6904 189.5789,-265.2519"/>
</g>
<!-- #32 Variable (v6) &#45; (48)&#45;&gt;#59 48.v6&#45;o8 -->
<g id="edge33" class="edge">
<title>#32 Variable (v6) &#45; (48)&#45;&gt;#59 48.v6&#45;o8</title>
<path fill="none" stroke="#000000" stroke-dasharray="5,2" d="M242.1072,-221.9888C263.2027,-213.5087 285.796,-200.7378 300.3408,-182 314.1183,-164.2508 318.5298,-138.8937 319.6877,-119.4527"/>
<polygon fill="#000000" stroke="#000000" points="323.1894,-119.4611 320.0351,-109.3467 316.1935,-119.2206 323.1894,-119.4611"/>
</g>
<!-- #36 ReturnStatement (48) -->
<g id="node26" class="node">
<title>#36 ReturnStatement (48)</title>
<ellipse fill="none" stroke="#000000" cx="188.3408" cy="-164" rx="102.8821" ry="18"/>
<text text-anchor="middle" x="188.3408" y="-160.3" font-family="Times,serif" font-size="14.00" fill="#000000">#36 ReturnStatement (48)</text>
</g>
<!-- #32 Variable (v6) &#45; (48)&#45;&gt;#36 ReturnStatement (48) -->
<g id="edge32" class="edge">
<title>#32 Variable (v6) &#45; (48)&#45;&gt;#36 ReturnStatement (48)</title>
<path fill="none" stroke="#ff0000" d="M188.3408,-218.9551C188.3408,-210.8828 188.3408,-201.1764 188.3408,-192.1817"/>
<polygon fill="#ff0000" stroke="#ff0000" points="191.8409,-192.0903 188.3408,-182.0904 184.8409,-192.0904 191.8409,-192.0903"/>
</g>
<!-- #36 ReturnStatement (48)&#45;&gt;#50 CFG_IF_END (48) -->
<g id="edge34" class="edge">
<title>#36 ReturnStatement (48)&#45;&gt;#50 CFG_IF_END (48)</title>
<path fill="none" stroke="#ff0000" d="M167.7647,-146.3287C156.9862,-137.0719 143.617,-125.5901 131.8559,-115.4894"/>
<polygon fill="#ff0000" stroke="#ff0000" points="133.8887,-112.6216 124.0221,-108.7615 129.328,-117.932 133.8887,-112.6216"/>
</g>
<!-- #36 ReturnStatement (48)&#45;&gt;#59 48.v6&#45;o8 -->
<g id="edge35" class="edge">
<title>#36 ReturnStatement (48)&#45;&gt;#59 48.v6&#45;o8</title>
<path fill="none" stroke="#000000" stroke-dasharray="5,2" d="M219.386,-146.7C238.1511,-136.2431 262.1907,-122.847 281.9915,-111.813"/>
<polygon fill="#000000" stroke="#000000" points="283.7252,-114.8537 290.7567,-106.9285 280.3177,-108.739 283.7252,-114.8537"/>
</g>
</g>
</svg>
