<?xml version="1.0" encoding="UTF-8" standalone="no"?>
<!DOCTYPE svg PUBLIC "-//W3C//DTD SVG 1.1//EN"
 "http://www.w3.org/Graphics/SVG/1.1/DTD/svg11.dtd">
<!-- Generated by graphviz version 2.40.1 (20161225.0304)
 -->
<!-- Title: G Pages: 1 -->
<svg width="1580pt" height="914pt"
 viewBox="0.00 0.00 1579.99 914.00" xmlns="http://www.w3.org/2000/svg" xmlns:xlink="http://www.w3.org/1999/xlink">
<g id="graph0" class="graph" transform="scale(1 1) rotate(0) translate(4 910)">
<title>G</title>
<polygon fill="#ffffff" stroke="transparent" points="-4,4 -4,-910 1575.9862,-910 1575.9862,4 -4,4"/>
<!-- #0 Program -->
<g id="node1" class="node">
<title>#0 Program</title>
<ellipse fill="none" stroke="#000000" cx="572.4937" cy="-888" rx="52.7911" ry="18"/>
<text text-anchor="middle" x="572.4937" y="-884.3" font-family="Times,serif" font-size="14.00" fill="#000000">#0 Program</text>
</g>
<!-- #1 ExpressionStatement -->
<g id="node2" class="node">
<title>#1 ExpressionStatement</title>
<ellipse fill="none" stroke="#000000" cx="830.4937" cy="-801" rx="96.6831" ry="18"/>
<text text-anchor="middle" x="830.4937" y="-797.3" font-family="Times,serif" font-size="14.00" fill="#000000">#1 ExpressionStatement</text>
</g>
<!-- #0 Program&#45;&gt;#1 ExpressionStatement -->
<g id="edge1" class="edge">
<title>#0 Program&#45;&gt;#1 ExpressionStatement</title>
<path fill="none" stroke="#0000ff" d="M610.0091,-875.3495C652.9844,-860.8578 723.8685,-836.955 773.6368,-820.1726"/>
<polygon fill="#0000ff" stroke="#0000ff" points="774.9371,-823.4279 783.2944,-816.916 772.7003,-816.7949 774.9371,-823.4279"/>
<text text-anchor="middle" x="720.9937" y="-840.8" font-family="Times,serif" font-size="14.00" fill="#0000ff">1</text>
</g>
<!-- #5 ExpressionStatement -->
<g id="node3" class="node">
<title>#5 ExpressionStatement</title>
<ellipse fill="none" stroke="#000000" cx="663.4937" cy="-714" rx="96.6831" ry="18"/>
<text text-anchor="middle" x="663.4937" y="-710.3" font-family="Times,serif" font-size="14.00" fill="#000000">#5 ExpressionStatement</text>
</g>
<!-- #0 Program&#45;&gt;#5 ExpressionStatement -->
<g id="edge2" class="edge">
<title>#0 Program&#45;&gt;#5 ExpressionStatement</title>
<path fill="none" stroke="#0000ff" d="M581.8895,-870.0343C597.8968,-839.4269 630.5432,-777.0042 649.3299,-741.0823"/>
<polygon fill="#0000ff" stroke="#0000ff" points="652.4796,-742.612 654.0126,-732.1286 646.2767,-739.3679 652.4796,-742.612"/>
<text text-anchor="middle" x="630.9937" y="-797.3" font-family="Times,serif" font-size="14.00" fill="#0000ff">2</text>
</g>
<!-- #11 ExpressionStatement -->
<g id="node4" class="node">
<title>#11 ExpressionStatement</title>
<ellipse fill="none" stroke="#000000" cx="739.4937" cy="-540" rx="100.9827" ry="18"/>
<text text-anchor="middle" x="739.4937" y="-536.3" font-family="Times,serif" font-size="14.00" fill="#000000">#11 ExpressionStatement</text>
</g>
<!-- #0 Program&#45;&gt;#11 ExpressionStatement -->
<g id="edge3" class="edge">
<title>#0 Program&#45;&gt;#11 ExpressionStatement</title>
<path fill="none" stroke="#0000ff" d="M562.1711,-870.3247C553.1532,-853.1924 541.4937,-826.174 541.4937,-801 541.4937,-801 541.4937,-801 541.4937,-627 541.4937,-598.3389 611.9112,-572.9214 668.7581,-557.0719"/>
<polygon fill="#0000ff" stroke="#0000ff" points="669.7473,-560.43 678.4715,-554.4184 667.9026,-553.6774 669.7473,-560.43"/>
<text text-anchor="middle" x="544.9937" y="-710.3" font-family="Times,serif" font-size="14.00" fill="#0000ff">3</text>
</g>
<!-- #17 ExpressionStatement -->
<g id="node5" class="node">
<title>#17 ExpressionStatement</title>
<ellipse fill="none" stroke="#000000" cx="780.4937" cy="-453" rx="100.9827" ry="18"/>
<text text-anchor="middle" x="780.4937" y="-449.3" font-family="Times,serif" font-size="14.00" fill="#000000">#17 ExpressionStatement</text>
</g>
<!-- #0 Program&#45;&gt;#17 ExpressionStatement -->
<g id="edge4" class="edge">
<title>#0 Program&#45;&gt;#17 ExpressionStatement</title>
<path fill="none" stroke="#0000ff" d="M620.0071,-880.2461C715.8532,-864.4333 924.3217,-829.1032 936.4937,-819 990.471,-774.1968 988.3068,-727.3997 960.4937,-663 926.4918,-584.2707 852.3273,-513.1846 810.5859,-477.3942"/>
<polygon fill="#0000ff" stroke="#0000ff" points="812.5864,-474.502 802.6915,-470.7149 808.065,-479.846 812.5864,-474.502"/>
<text text-anchor="middle" x="968.9937" y="-666.8" font-family="Times,serif" font-size="14.00" fill="#0000ff">4</text>
</g>
<!-- #23 ExpressionStatement -->
<g id="node6" class="node">
<title>#23 ExpressionStatement</title>
<ellipse fill="none" stroke="#000000" cx="582.4937" cy="-366" rx="100.9827" ry="18"/>
<text text-anchor="middle" x="582.4937" y="-362.3" font-family="Times,serif" font-size="14.00" fill="#000000">#23 ExpressionStatement</text>
</g>
<!-- #0 Program&#45;&gt;#23 ExpressionStatement -->
<g id="edge5" class="edge">
<title>#0 Program&#45;&gt;#23 ExpressionStatement</title>
<path fill="none" stroke="#0000ff" d="M545.5628,-872.3652C523.3582,-857.2361 495.4937,-832.0623 495.4937,-801 495.4937,-801 495.4937,-801 495.4937,-453 495.4937,-425.4683 517.5474,-403.6061 539.4477,-388.6836"/>
<polygon fill="#0000ff" stroke="#0000ff" points="541.5931,-391.4651 548.109,-383.1108 537.8055,-385.5783 541.5931,-391.4651"/>
<text text-anchor="middle" x="498.9937" y="-623.3" font-family="Times,serif" font-size="14.00" fill="#0000ff">5</text>
</g>
<!-- #29 ExpressionStatement -->
<g id="node7" class="node">
<title>#29 ExpressionStatement</title>
<ellipse fill="none" stroke="#000000" cx="390.4937" cy="-279" rx="100.9827" ry="18"/>
<text text-anchor="middle" x="390.4937" y="-275.3" font-family="Times,serif" font-size="14.00" fill="#000000">#29 ExpressionStatement</text>
</g>
<!-- #0 Program&#45;&gt;#29 ExpressionStatement -->
<g id="edge6" class="edge">
<title>#0 Program&#45;&gt;#29 ExpressionStatement</title>
<path fill="none" stroke="#0000ff" d="M528.143,-878.0422C490.1389,-866.5803 441.4937,-843.5906 441.4937,-801 441.4937,-801 441.4937,-801 441.4937,-366 441.4937,-343.1889 428.2836,-321.062 415.3097,-304.8314"/>
<polygon fill="#0000ff" stroke="#0000ff" points="417.7446,-302.2899 408.6179,-296.9089 412.3969,-306.8069 417.7446,-302.2899"/>
<text text-anchor="middle" x="444.9937" y="-579.8" font-family="Times,serif" font-size="14.00" fill="#0000ff">6</text>
</g>
<!-- #1 ExpressionStatement&#45;&gt;#5 ExpressionStatement -->
<g id="edge9" class="edge">
<title>#1 ExpressionStatement&#45;&gt;#5 ExpressionStatement</title>
<path fill="none" stroke="#ff0000" d="M797.8979,-784.019C771.4314,-770.231 733.9314,-750.6951 705.2641,-735.7607"/>
<polygon fill="#ff0000" stroke="#ff0000" points="706.7779,-732.6028 696.2921,-731.0866 703.5437,-738.8109 706.7779,-732.6028"/>
</g>
<!-- #2 AssignmentExpression -->
<g id="node9" class="node">
<title>#2 AssignmentExpression</title>
<ellipse fill="none" stroke="#000000" cx="1317.4937" cy="-714" rx="103.1819" ry="18"/>
<text text-anchor="middle" x="1317.4937" y="-710.3" font-family="Times,serif" font-size="14.00" fill="#000000">#2 AssignmentExpression</text>
</g>
<!-- #1 ExpressionStatement&#45;&gt;#2 AssignmentExpression -->
<g id="edge8" class="edge">
<title>#1 ExpressionStatement&#45;&gt;#2 AssignmentExpression</title>
<path fill="none" stroke="#0000ff" d="M900.528,-788.4887C989.0314,-772.6781 1141.1257,-745.5072 1235.1147,-728.7166"/>
<polygon fill="#0000ff" stroke="#0000ff" points="1235.9229,-732.1277 1245.1515,-726.9236 1234.6918,-725.2368 1235.9229,-732.1277"/>
<text text-anchor="middle" x="1131.4937" y="-753.8" font-family="Times,serif" font-size="14.00" fill="#0000ff">expression</text>
</g>
<!-- #37 PDG_OBJECT o1 -->
<g id="node10" class="node">
<title>#37 PDG_OBJECT o1</title>
<ellipse fill="none" stroke="#006400" cx="869.4937" cy="-714" rx="91.784" ry="18"/>
<text text-anchor="middle" x="869.4937" y="-710.3" font-family="Times,serif" font-size="14.00" fill="#006400">#37 PDG_OBJECT o1</text>
</g>
<!-- #1 ExpressionStatement&#45;&gt;#37 PDG_OBJECT o1 -->
<g id="edge10" class="edge">
<title>#1 ExpressionStatement&#45;&gt;#37 PDG_OBJECT o1</title>
<path fill="none" stroke="#006400" d="M838.5745,-782.9735C843.9605,-770.9585 851.1412,-754.9401 857.2268,-741.3646"/>
<polygon fill="#006400" stroke="#006400" points="860.5264,-742.5602 861.4232,-732.0034 854.1388,-739.6967 860.5264,-742.5602"/>
<text text-anchor="middle" x="883.4937" y="-753.8" font-family="Times,serif" font-size="14.00" fill="#006400">CREATE x</text>
</g>
<!-- #5 ExpressionStatement&#45;&gt;#11 ExpressionStatement -->
<g id="edge12" class="edge">
<title>#5 ExpressionStatement&#45;&gt;#11 ExpressionStatement</title>
<path fill="none" stroke="#ff0000" d="M671.3407,-696.0343C684.6526,-665.5572 711.7428,-603.5349 727.4637,-567.5423"/>
<polygon fill="#ff0000" stroke="#ff0000" points="730.7801,-568.6936 731.5754,-558.1286 724.3653,-565.8917 730.7801,-568.6936"/>
</g>
<!-- #6 AssignmentExpression -->
<g id="node11" class="node">
<title>#6 AssignmentExpression</title>
<ellipse fill="none" stroke="#000000" cx="1128.4937" cy="-627" rx="103.1819" ry="18"/>
<text text-anchor="middle" x="1128.4937" y="-623.3" font-family="Times,serif" font-size="14.00" fill="#000000">#6 AssignmentExpression</text>
</g>
<!-- #5 ExpressionStatement&#45;&gt;#6 AssignmentExpression -->
<g id="edge11" class="edge">
<title>#5 ExpressionStatement&#45;&gt;#6 AssignmentExpression</title>
<path fill="none" stroke="#0000ff" d="M732.2664,-701.2852C744.3124,-699.323 756.7478,-697.4653 768.4937,-696 869.8001,-683.3619 897.9719,-700.7624 997.4937,-678 1027.2395,-671.1966 1059.1768,-658.8739 1084.0699,-648.0458"/>
<polygon fill="#0000ff" stroke="#0000ff" points="1085.519,-651.2321 1093.2463,-643.9837 1082.6854,-644.8312 1085.519,-651.2321"/>
<text text-anchor="middle" x="1073.4937" y="-666.8" font-family="Times,serif" font-size="14.00" fill="#0000ff">expression</text>
</g>
<!-- #38 PDG_OBJECT o2 -->
<g id="node12" class="node">
<title>#38 PDG_OBJECT o2</title>
<ellipse fill="none" stroke="#006400" cx="828.4937" cy="-627" rx="91.784" ry="18"/>
<text text-anchor="middle" x="828.4937" y="-623.3" font-family="Times,serif" font-size="14.00" fill="#006400">#38 PDG_OBJECT o2</text>
</g>
<!-- #5 ExpressionStatement&#45;&gt;#38 PDG_OBJECT o2 -->
<g id="edge13" class="edge">
<title>#5 ExpressionStatement&#45;&gt;#38 PDG_OBJECT o2</title>
<path fill="none" stroke="#006400" d="M695.699,-697.019C721.9332,-683.1864 759.1394,-663.5686 787.4982,-648.6158"/>
<polygon fill="#006400" stroke="#006400" points="789.1563,-651.6983 796.3695,-643.9382 785.8914,-645.5063 789.1563,-651.6983"/>
<text text-anchor="middle" x="782.4937" y="-666.8" font-family="Times,serif" font-size="14.00" fill="#006400">WRITE f</text>
</g>
<!-- #11 ExpressionStatement&#45;&gt;#17 ExpressionStatement -->
<g id="edge15" class="edge">
<title>#11 ExpressionStatement&#45;&gt;#17 ExpressionStatement</title>
<path fill="none" stroke="#ff0000" d="M747.9889,-521.9735C753.6512,-509.9585 761.2001,-493.9401 767.5977,-480.3646"/>
<polygon fill="#ff0000" stroke="#ff0000" points="770.9123,-481.5413 772.0093,-471.0034 764.5802,-478.5571 770.9123,-481.5413"/>
</g>
<!-- #11 ExpressionStatement&#45;&gt;#23 ExpressionStatement -->
<g id="edge16" class="edge">
<title>#11 ExpressionStatement&#45;&gt;#23 ExpressionStatement</title>
<path fill="none" stroke="#006400" d="M689.9663,-524.1948C663.1351,-513.2495 631.477,-496.0721 611.4937,-471 593.9914,-449.0408 587.0362,-417.231 584.2812,-394.385"/>
<polygon fill="#006400" stroke="#006400" points="587.748,-393.8786 583.2631,-384.2799 580.7832,-394.5804 587.748,-393.8786"/>
<text text-anchor="middle" x="640.9937" y="-449.3" font-family="Times,serif" font-size="14.00" fill="#006400">VAR aux1</text>
</g>
<!-- #12 AssignmentExpression -->
<g id="node13" class="node">
<title>#12 AssignmentExpression</title>
<ellipse fill="none" stroke="#000000" cx="1015.4937" cy="-453" rx="107.781" ry="18"/>
<text text-anchor="middle" x="1015.4937" y="-449.3" font-family="Times,serif" font-size="14.00" fill="#000000">#12 AssignmentExpression</text>
</g>
<!-- #11 ExpressionStatement&#45;&gt;#12 AssignmentExpression -->
<g id="edge14" class="edge">
<title>#11 ExpressionStatement&#45;&gt;#12 AssignmentExpression</title>
<path fill="none" stroke="#0000ff" d="M789.4752,-524.245C836.0781,-509.5549 905.6655,-487.6197 955.3026,-471.9733"/>
<polygon fill="#0000ff" stroke="#0000ff" points="956.4662,-475.2763 964.9513,-468.9318 954.3617,-468.6002 956.4662,-475.2763"/>
<text text-anchor="middle" x="922.4937" y="-492.8" font-family="Times,serif" font-size="14.00" fill="#0000ff">expression</text>
</g>
<!-- #17 ExpressionStatement&#45;&gt;#23 ExpressionStatement -->
<g id="edge18" class="edge">
<title>#17 ExpressionStatement&#45;&gt;#23 ExpressionStatement</title>
<path fill="none" stroke="#ff0000" d="M732.9266,-437.0833C716.4592,-431.2105 697.9988,-424.2175 681.4937,-417 661.7324,-408.3586 640.3946,-397.5641 622.6068,-388.1339"/>
<polygon fill="#ff0000" stroke="#ff0000" points="624.1242,-384.9763 613.6556,-383.3455 620.8223,-391.1487 624.1242,-384.9763"/>
</g>
<!-- #17 ExpressionStatement&#45;&gt;#23 ExpressionStatement -->
<g id="edge19" class="edge">
<title>#17 ExpressionStatement&#45;&gt;#23 ExpressionStatement</title>
<path fill="none" stroke="#006400" d="M748.9849,-435.7058C729.5264,-425.3345 703.8891,-412.2193 680.4937,-402 667.3951,-396.2784 653.067,-390.6658 639.5099,-385.6378"/>
<polygon fill="#006400" stroke="#006400" points="640.3969,-382.2355 629.8031,-382.0869 637.992,-388.8094 640.3969,-382.2355"/>
<text text-anchor="middle" x="740.9937" y="-405.8" font-family="Times,serif" font-size="14.00" fill="#006400">VAR aux2</text>
</g>
<!-- #18 AssignmentExpression -->
<g id="node14" class="node">
<title>#18 AssignmentExpression</title>
<ellipse fill="none" stroke="#000000" cx="809.4937" cy="-366" rx="107.781" ry="18"/>
<text text-anchor="middle" x="809.4937" y="-362.3" font-family="Times,serif" font-size="14.00" fill="#000000">#18 AssignmentExpression</text>
</g>
<!-- #17 ExpressionStatement&#45;&gt;#18 AssignmentExpression -->
<g id="edge17" class="edge">
<title>#17 ExpressionStatement&#45;&gt;#18 AssignmentExpression</title>
<path fill="none" stroke="#0000ff" d="M786.5025,-434.9735C790.4686,-423.0751 795.7434,-407.2508 800.2401,-393.7606"/>
<polygon fill="#0000ff" stroke="#0000ff" points="803.6506,-394.597 803.4925,-384.0034 797.0098,-392.3834 803.6506,-394.597"/>
<text text-anchor="middle" x="826.4937" y="-405.8" font-family="Times,serif" font-size="14.00" fill="#0000ff">expression</text>
</g>
<!-- #23 ExpressionStatement&#45;&gt;#29 ExpressionStatement -->
<g id="edge21" class="edge">
<title>#23 ExpressionStatement&#45;&gt;#29 ExpressionStatement</title>
<path fill="none" stroke="#ff0000" d="M540.6168,-349.5419C525.9388,-343.5959 509.4009,-336.6951 494.4937,-330 474.0926,-320.8375 451.7899,-310.011 433.0879,-300.6954"/>
<polygon fill="#ff0000" stroke="#ff0000" points="434.4527,-297.4646 423.9437,-296.1185 431.3195,-303.7243 434.4527,-297.4646"/>
</g>
<!-- #23 ExpressionStatement&#45;&gt;#29 ExpressionStatement -->
<g id="edge22" class="edge">
<title>#23 ExpressionStatement&#45;&gt;#29 ExpressionStatement</title>
<path fill="none" stroke="#006400" d="M555.1301,-348.5667C537.8716,-338.0173 514.8775,-324.7631 493.4937,-315 479.9129,-308.7995 464.932,-303.0048 450.7001,-297.9537"/>
<polygon fill="#006400" stroke="#006400" points="451.5882,-294.557 440.9933,-294.5797 449.2898,-301.169 451.5882,-294.557"/>
<text text-anchor="middle" x="547.4937" y="-318.8" font-family="Times,serif" font-size="14.00" fill="#006400">VAR aux</text>
</g>
<!-- #24 AssignmentExpression -->
<g id="node15" class="node">
<title>#24 AssignmentExpression</title>
<ellipse fill="none" stroke="#000000" cx="617.4937" cy="-279" rx="107.781" ry="18"/>
<text text-anchor="middle" x="617.4937" y="-275.3" font-family="Times,serif" font-size="14.00" fill="#000000">#24 AssignmentExpression</text>
</g>
<!-- #23 ExpressionStatement&#45;&gt;#24 AssignmentExpression -->
<g id="edge20" class="edge">
<title>#23 ExpressionStatement&#45;&gt;#24 AssignmentExpression</title>
<path fill="none" stroke="#0000ff" d="M589.7457,-347.9735C594.5793,-335.9585 601.0235,-319.9401 606.4849,-306.3646"/>
<polygon fill="#0000ff" stroke="#0000ff" points="609.7657,-307.5871 610.2509,-297.0034 603.2715,-304.9744 609.7657,-307.5871"/>
<text text-anchor="middle" x="631.4937" y="-318.8" font-family="Times,serif" font-size="14.00" fill="#0000ff">expression</text>
</g>
<!-- #30 AssignmentExpression -->
<g id="node16" class="node">
<title>#30 AssignmentExpression</title>
<ellipse fill="none" stroke="#000000" cx="155.4937" cy="-192" rx="107.781" ry="18"/>
<text text-anchor="middle" x="155.4937" y="-188.3" font-family="Times,serif" font-size="14.00" fill="#000000">#30 AssignmentExpression</text>
</g>
<!-- #29 ExpressionStatement&#45;&gt;#30 AssignmentExpression -->
<g id="edge23" class="edge">
<title>#29 ExpressionStatement&#45;&gt;#30 AssignmentExpression</title>
<path fill="none" stroke="#0000ff" d="M346.5676,-262.738C307.745,-248.3654 250.9916,-227.3546 209.424,-211.9657"/>
<polygon fill="#0000ff" stroke="#0000ff" points="210.5956,-208.6673 200.0024,-208.4777 208.1652,-215.2319 210.5956,-208.6673"/>
<text text-anchor="middle" x="316.4937" y="-231.8" font-family="Times,serif" font-size="14.00" fill="#0000ff">expression</text>
</g>
<!-- #36 CFG_F_END __main__ -->
<g id="node17" class="node">
<title>#36 CFG_F_END __main__</title>
<ellipse fill="none" stroke="#ff0000" cx="394.4937" cy="-192" rx="113.18" ry="18"/>
<text text-anchor="middle" x="394.4937" y="-188.3" font-family="Times,serif" font-size="14.00" fill="#ff0000">#36 CFG_F_END __main__</text>
</g>
<!-- #29 ExpressionStatement&#45;&gt;#36 CFG_F_END __main__ -->
<g id="edge24" class="edge">
<title>#29 ExpressionStatement&#45;&gt;#36 CFG_F_END __main__</title>
<path fill="none" stroke="#ff0000" d="M391.3225,-260.9735C391.8641,-249.1918 392.5828,-233.5607 393.199,-220.1581"/>
<polygon fill="#ff0000" stroke="#ff0000" points="396.7028,-220.1536 393.6659,-210.0034 389.7102,-219.832 396.7028,-220.1536"/>
</g>
<!-- #35 CFG_F_START __main__ -->
<g id="node8" class="node">
<title>#35 CFG_F_START __main__</title>
<ellipse fill="none" stroke="#ff0000" cx="830.4937" cy="-888" rx="122.6784" ry="18"/>
<text text-anchor="middle" x="830.4937" y="-884.3" font-family="Times,serif" font-size="14.00" fill="#ff0000">#35 CFG_F_START __main__</text>
</g>
<!-- #35 CFG_F_START __main__&#45;&gt;#1 ExpressionStatement -->
<g id="edge7" class="edge">
<title>#35 CFG_F_START __main__&#45;&gt;#1 ExpressionStatement</title>
<path fill="none" stroke="#ff0000" d="M830.4937,-869.9735C830.4937,-858.1918 830.4937,-842.5607 830.4937,-829.1581"/>
<polygon fill="#ff0000" stroke="#ff0000" points="833.9938,-829.0033 830.4937,-819.0034 826.9938,-829.0034 833.9938,-829.0033"/>
</g>
<!-- #3 Identifier (x) -->
<g id="node18" class="node">
<title>#3 Identifier (x)</title>
<ellipse fill="none" stroke="#000000" cx="1317.4937" cy="-627" rx="67.6881" ry="18"/>
<text text-anchor="middle" x="1317.4937" y="-623.3" font-family="Times,serif" font-size="14.00" fill="#000000">#3 Identifier (x)</text>
</g>
<!-- #2 AssignmentExpression&#45;&gt;#3 Identifier (x) -->
<g id="edge25" class="edge">
<title>#2 AssignmentExpression&#45;&gt;#3 Identifier (x)</title>
<path fill="none" stroke="#0000ff" d="M1317.4937,-695.9735C1317.4937,-684.1918 1317.4937,-668.5607 1317.4937,-655.1581"/>
<polygon fill="#0000ff" stroke="#0000ff" points="1320.9938,-655.0033 1317.4937,-645.0034 1313.9938,-655.0034 1320.9938,-655.0033"/>
<text text-anchor="middle" x="1326.9937" y="-666.8" font-family="Times,serif" font-size="14.00" fill="#0000ff">left</text>
</g>
<!-- #4 ObjectExpression -->
<g id="node19" class="node">
<title>#4 ObjectExpression</title>
<ellipse fill="none" stroke="#000000" cx="1487.4937" cy="-627" rx="84.485" ry="18"/>
<text text-anchor="middle" x="1487.4937" y="-623.3" font-family="Times,serif" font-size="14.00" fill="#000000">#4 ObjectExpression</text>
</g>
<!-- #2 AssignmentExpression&#45;&gt;#4 ObjectExpression -->
<g id="edge26" class="edge">
<title>#2 AssignmentExpression&#45;&gt;#4 ObjectExpression</title>
<path fill="none" stroke="#0000ff" d="M1351.0802,-696.8116C1378.235,-682.9147 1416.6035,-663.2791 1445.7354,-648.3704"/>
<polygon fill="#0000ff" stroke="#0000ff" points="1447.5358,-651.3808 1454.8433,-643.7093 1444.3468,-645.1494 1447.5358,-651.3808"/>
<text text-anchor="middle" x="1425.4937" y="-666.8" font-family="Times,serif" font-size="14.00" fill="#0000ff">right</text>
</g>
<!-- #37 PDG_OBJECT o1&#45;&gt;#38 PDG_OBJECT o2 -->
<g id="edge27" class="edge">
<title>#37 PDG_OBJECT o1&#45;&gt;#38 PDG_OBJECT o2</title>
<path fill="none" stroke="#006400" d="M860.9984,-695.9735C855.3362,-683.9585 847.7873,-667.9401 841.3896,-654.3646"/>
<polygon fill="#006400" stroke="#006400" points="844.4071,-652.5571 836.978,-645.0034 838.075,-655.5413 844.4071,-652.5571"/>
<text text-anchor="middle" x="903.4937" y="-666.8" font-family="Times,serif" font-size="14.00" fill="#006400">NEW_VERSION f</text>
</g>
<!-- #7 MemberExpression -->
<g id="node20" class="node">
<title>#7 MemberExpression</title>
<ellipse fill="none" stroke="#000000" cx="1183.4937" cy="-540" rx="91.784" ry="18"/>
<text text-anchor="middle" x="1183.4937" y="-536.3" font-family="Times,serif" font-size="14.00" fill="#000000">#7 MemberExpression</text>
</g>
<!-- #6 AssignmentExpression&#45;&gt;#7 MemberExpression -->
<g id="edge28" class="edge">
<title>#6 AssignmentExpression&#45;&gt;#7 MemberExpression</title>
<path fill="none" stroke="#0000ff" d="M1139.8897,-608.9735C1147.6329,-596.7252 1158.0062,-580.3165 1166.6924,-566.5766"/>
<polygon fill="#0000ff" stroke="#0000ff" points="1169.727,-568.3262 1172.1122,-558.0034 1163.8102,-564.5857 1169.727,-568.3262"/>
<text text-anchor="middle" x="1167.9937" y="-579.8" font-family="Times,serif" font-size="14.00" fill="#0000ff">left</text>
</g>
<!-- #10 Literal -->
<g id="node21" class="node">
<title>#10 Literal</title>
<ellipse fill="none" stroke="#000000" cx="1343.4937" cy="-540" rx="50.0912" ry="18"/>
<text text-anchor="middle" x="1343.4937" y="-536.3" font-family="Times,serif" font-size="14.00" fill="#000000">#10 Literal</text>
</g>
<!-- #6 AssignmentExpression&#45;&gt;#10 Literal -->
<g id="edge29" class="edge">
<title>#6 AssignmentExpression&#45;&gt;#10 Literal</title>
<path fill="none" stroke="#0000ff" d="M1169.4396,-610.4312C1207.0661,-595.2056 1262.6269,-572.7228 1300.7973,-557.2771"/>
<polygon fill="#0000ff" stroke="#0000ff" points="1302.1485,-560.5061 1310.1054,-553.5106 1299.5227,-554.0173 1302.1485,-560.5061"/>
<text text-anchor="middle" x="1261.4937" y="-579.8" font-family="Times,serif" font-size="14.00" fill="#0000ff">right</text>
</g>
<!-- #38 PDG_OBJECT o2&#45;&gt;#11 ExpressionStatement -->
<g id="edge30" class="edge">
<title>#38 PDG_OBJECT o2&#45;&gt;#11 ExpressionStatement</title>
<path fill="none" stroke="#006400" d="M810.0528,-608.9735C797.0455,-596.2586 779.4519,-579.0603 765.0871,-565.0183"/>
<polygon fill="#006400" stroke="#006400" points="767.5085,-562.4908 757.9109,-558.0034 762.6153,-567.4965 767.5085,-562.4908"/>
<text text-anchor="middle" x="821.4937" y="-579.8" font-family="Times,serif" font-size="14.00" fill="#006400">LOOKUP f</text>
</g>
<!-- #38 PDG_OBJECT o2&#45;&gt;#17 ExpressionStatement -->
<g id="edge31" class="edge">
<title>#38 PDG_OBJECT o2&#45;&gt;#17 ExpressionStatement</title>
<path fill="none" stroke="#006400" d="M862.7611,-610.1973C910.4386,-584.6121 987.037,-534.0923 950.4937,-489 944.7152,-481.8697 906.0187,-473.3839 867.0045,-466.4423"/>
<polygon fill="#006400" stroke="#006400" points="867.5517,-462.9849 857.0987,-464.7125 866.3475,-469.8806 867.5517,-462.9849"/>
<text text-anchor="middle" x="991.4937" y="-536.3" font-family="Times,serif" font-size="14.00" fill="#006400">LOOKUP g</text>
</g>
<!-- #13 Identifier (aux1) -->
<g id="node22" class="node">
<title>#13 Identifier (aux1)</title>
<ellipse fill="none" stroke="#000000" cx="1019.4937" cy="-366" rx="84.485" ry="18"/>
<text text-anchor="middle" x="1019.4937" y="-362.3" font-family="Times,serif" font-size="14.00" fill="#000000">#13 Identifier (aux1)</text>
</g>
<!-- #12 AssignmentExpression&#45;&gt;#13 Identifier (aux1) -->
<g id="edge32" class="edge">
<title>#12 AssignmentExpression&#45;&gt;#13 Identifier (aux1)</title>
<path fill="none" stroke="#0000ff" d="M1016.3225,-434.9735C1016.8641,-423.1918 1017.5828,-407.5607 1018.199,-394.1581"/>
<polygon fill="#0000ff" stroke="#0000ff" points="1021.7028,-394.1536 1018.6659,-384.0034 1014.7102,-393.832 1021.7028,-394.1536"/>
<text text-anchor="middle" x="1026.9937" y="-405.8" font-family="Times,serif" font-size="14.00" fill="#0000ff">left</text>
</g>
<!-- #14 MemberExpression -->
<g id="node23" class="node">
<title>#14 MemberExpression</title>
<ellipse fill="none" stroke="#000000" cx="1218.4937" cy="-366" rx="96.3833" ry="18"/>
<text text-anchor="middle" x="1218.4937" y="-362.3" font-family="Times,serif" font-size="14.00" fill="#000000">#14 MemberExpression</text>
</g>
<!-- #12 AssignmentExpression&#45;&gt;#14 MemberExpression -->
<g id="edge33" class="edge">
<title>#12 AssignmentExpression&#45;&gt;#14 MemberExpression</title>
<path fill="none" stroke="#0000ff" d="M1054.6341,-436.2255C1087.5969,-422.0986 1134.8859,-401.8319 1170.1978,-386.6982"/>
<polygon fill="#0000ff" stroke="#0000ff" points="1172.0054,-389.7315 1179.8181,-382.5752 1169.2479,-383.2975 1172.0054,-389.7315"/>
<text text-anchor="middle" x="1141.4937" y="-405.8" font-family="Times,serif" font-size="14.00" fill="#0000ff">right</text>
</g>
<!-- #19 Identifier (aux2) -->
<g id="node24" class="node">
<title>#19 Identifier (aux2)</title>
<ellipse fill="none" stroke="#000000" cx="827.4937" cy="-279" rx="84.485" ry="18"/>
<text text-anchor="middle" x="827.4937" y="-275.3" font-family="Times,serif" font-size="14.00" fill="#000000">#19 Identifier (aux2)</text>
</g>
<!-- #18 AssignmentExpression&#45;&gt;#19 Identifier (aux2) -->
<g id="edge34" class="edge">
<title>#18 AssignmentExpression&#45;&gt;#19 Identifier (aux2)</title>
<path fill="none" stroke="#0000ff" d="M813.2233,-347.9735C815.6609,-336.1918 818.8949,-320.5607 821.6678,-307.1581"/>
<polygon fill="#0000ff" stroke="#0000ff" points="825.1701,-307.5051 823.7688,-297.0034 818.3153,-306.0868 825.1701,-307.5051"/>
<text text-anchor="middle" x="829.9937" y="-318.8" font-family="Times,serif" font-size="14.00" fill="#0000ff">left</text>
</g>
<!-- #20 MemberExpression -->
<g id="node25" class="node">
<title>#20 MemberExpression</title>
<ellipse fill="none" stroke="#000000" cx="1026.4937" cy="-279" rx="96.3833" ry="18"/>
<text text-anchor="middle" x="1026.4937" y="-275.3" font-family="Times,serif" font-size="14.00" fill="#000000">#20 MemberExpression</text>
</g>
<!-- #18 AssignmentExpression&#45;&gt;#20 MemberExpression -->
<g id="edge35" class="edge">
<title>#18 AssignmentExpression&#45;&gt;#20 MemberExpression</title>
<path fill="none" stroke="#0000ff" d="M851.0767,-349.3285C886.8138,-335.0007 938.4412,-314.3021 976.438,-299.0684"/>
<polygon fill="#0000ff" stroke="#0000ff" points="977.8072,-302.2903 985.7866,-295.3204 975.2023,-295.7931 977.8072,-302.2903"/>
<text text-anchor="middle" x="943.4937" y="-318.8" font-family="Times,serif" font-size="14.00" fill="#0000ff">right</text>
</g>
<!-- #25 Identifier (aux) -->
<g id="node26" class="node">
<title>#25 Identifier (aux)</title>
<ellipse fill="none" stroke="#000000" cx="613.4937" cy="-192" rx="79.8859" ry="18"/>
<text text-anchor="middle" x="613.4937" y="-188.3" font-family="Times,serif" font-size="14.00" fill="#000000">#25 Identifier (aux)</text>
</g>
<!-- #24 AssignmentExpression&#45;&gt;#25 Identifier (aux) -->
<g id="edge36" class="edge">
<title>#24 AssignmentExpression&#45;&gt;#25 Identifier (aux)</title>
<path fill="none" stroke="#0000ff" d="M616.6649,-260.9735C616.1232,-249.1918 615.4045,-233.5607 614.7883,-220.1581"/>
<polygon fill="#0000ff" stroke="#0000ff" points="618.2771,-219.832 614.3214,-210.0034 611.2845,-220.1536 618.2771,-219.832"/>
<text text-anchor="middle" x="625.9937" y="-231.8" font-family="Times,serif" font-size="14.00" fill="#0000ff">left</text>
</g>
<!-- #26 BinaryExpression (+) -->
<g id="node27" class="node">
<title>#26 BinaryExpression (+)</title>
<ellipse fill="none" stroke="#000000" cx="814.4937" cy="-192" rx="102.8821" ry="18"/>
<text text-anchor="middle" x="814.4937" y="-188.3" font-family="Times,serif" font-size="14.00" fill="#000000">#26 BinaryExpression (+)</text>
</g>
<!-- #24 AssignmentExpression&#45;&gt;#26 BinaryExpression (+) -->
<g id="edge37" class="edge">
<title>#24 AssignmentExpression&#45;&gt;#26 BinaryExpression (+)</title>
<path fill="none" stroke="#0000ff" d="M655.9449,-262.019C687.7761,-247.9616 733.1365,-227.9293 767.1901,-212.8904"/>
<polygon fill="#0000ff" stroke="#0000ff" points="768.7408,-216.0318 776.4745,-208.7902 765.9129,-209.6284 768.7408,-216.0318"/>
<text text-anchor="middle" x="741.4937" y="-231.8" font-family="Times,serif" font-size="14.00" fill="#0000ff">right</text>
</g>
<!-- #31 Identifier (y) -->
<g id="node28" class="node">
<title>#31 Identifier (y)</title>
<ellipse fill="none" stroke="#000000" cx="71.4937" cy="-105" rx="71.4873" ry="18"/>
<text text-anchor="middle" x="71.4937" y="-101.3" font-family="Times,serif" font-size="14.00" fill="#000000">#31 Identifier (y)</text>
</g>
<!-- #30 AssignmentExpression&#45;&gt;#31 Identifier (y) -->
<g id="edge38" class="edge">
<title>#30 AssignmentExpression&#45;&gt;#31 Identifier (y)</title>
<path fill="none" stroke="#0000ff" d="M138.0888,-173.9735C125.8438,-161.2912 109.2923,-144.1486 95.7538,-130.1265"/>
<polygon fill="#0000ff" stroke="#0000ff" points="98.0527,-127.4686 88.5888,-122.7057 93.0169,-132.3308 98.0527,-127.4686"/>
<text text-anchor="middle" x="128.9937" y="-144.8" font-family="Times,serif" font-size="14.00" fill="#0000ff">left</text>
</g>
<!-- #32 CallExpression -->
<g id="node29" class="node">
<title>#32 CallExpression</title>
<ellipse fill="none" stroke="#000000" cx="240.4937" cy="-105" rx="79.8859" ry="18"/>
<text text-anchor="middle" x="240.4937" y="-101.3" font-family="Times,serif" font-size="14.00" fill="#000000">#32 CallExpression</text>
</g>
<!-- #30 AssignmentExpression&#45;&gt;#32 CallExpression -->
<g id="edge39" class="edge">
<title>#30 AssignmentExpression&#45;&gt;#32 CallExpression</title>
<path fill="none" stroke="#0000ff" d="M173.1057,-173.9735C185.4965,-161.2912 202.245,-144.1486 215.9447,-130.1265"/>
<polygon fill="#0000ff" stroke="#0000ff" points="218.7101,-132.3045 223.195,-122.7057 213.7031,-127.4126 218.7101,-132.3045"/>
<text text-anchor="middle" x="216.4937" y="-144.8" font-family="Times,serif" font-size="14.00" fill="#0000ff">right</text>
</g>
<!-- #8 Identifier (x) -->
<g id="node30" class="node">
<title>#8 Identifier (x)</title>
<ellipse fill="none" stroke="#000000" cx="1208.4937" cy="-453" rx="67.6881" ry="18"/>
<text text-anchor="middle" x="1208.4937" y="-449.3" font-family="Times,serif" font-size="14.00" fill="#000000">#8 Identifier (x)</text>
</g>
<!-- #7 MemberExpression&#45;&gt;#8 Identifier (x) -->
<g id="edge40" class="edge">
<title>#7 MemberExpression&#45;&gt;#8 Identifier (x)</title>
<path fill="none" stroke="#0000ff" d="M1188.6737,-521.9735C1192.0928,-510.0751 1196.64,-494.2508 1200.5165,-480.7606"/>
<polygon fill="#0000ff" stroke="#0000ff" points="1203.9223,-481.5811 1203.3203,-471.0034 1197.1945,-479.6478 1203.9223,-481.5811"/>
<text text-anchor="middle" x="1213.4937" y="-492.8" font-family="Times,serif" font-size="14.00" fill="#0000ff">object</text>
</g>
<!-- #9 Identifier (f) -->
<g id="node31" class="node">
<title>#9 Identifier (f)</title>
<ellipse fill="none" stroke="#000000" cx="1359.4937" cy="-453" rx="65.7887" ry="18"/>
<text text-anchor="middle" x="1359.4937" y="-449.3" font-family="Times,serif" font-size="14.00" fill="#000000">#9 Identifier (f)</text>
</g>
<!-- #7 MemberExpression&#45;&gt;#9 Identifier (f) -->
<g id="edge41" class="edge">
<title>#7 MemberExpression&#45;&gt;#9 Identifier (f)</title>
<path fill="none" stroke="#0000ff" d="M1217.4282,-523.2255C1246.2152,-508.9956 1287.6047,-488.536 1318.2894,-473.368"/>
<polygon fill="#0000ff" stroke="#0000ff" points="1320.0292,-476.4123 1327.4427,-468.8433 1316.9272,-470.1371 1320.0292,-476.4123"/>
<text text-anchor="middle" x="1304.4937" y="-492.8" font-family="Times,serif" font-size="14.00" fill="#0000ff">property</text>
</g>
<!-- #15 Identifier (x) -->
<g id="node32" class="node">
<title>#15 Identifier (x)</title>
<ellipse fill="none" stroke="#000000" cx="1216.4937" cy="-279" rx="71.4873" ry="18"/>
<text text-anchor="middle" x="1216.4937" y="-275.3" font-family="Times,serif" font-size="14.00" fill="#000000">#15 Identifier (x)</text>
</g>
<!-- #14 MemberExpression&#45;&gt;#15 Identifier (x) -->
<g id="edge42" class="edge">
<title>#14 MemberExpression&#45;&gt;#15 Identifier (x)</title>
<path fill="none" stroke="#0000ff" d="M1218.0793,-347.9735C1217.8084,-336.1918 1217.4491,-320.5607 1217.141,-307.1581"/>
<polygon fill="#0000ff" stroke="#0000ff" points="1220.6365,-306.9202 1216.9075,-297.0034 1213.6384,-307.0812 1220.6365,-306.9202"/>
<text text-anchor="middle" x="1234.4937" y="-318.8" font-family="Times,serif" font-size="14.00" fill="#0000ff">object</text>
</g>
<!-- #16 Identifier (f) -->
<g id="node33" class="node">
<title>#16 Identifier (f)</title>
<ellipse fill="none" stroke="#000000" cx="1376.4937" cy="-279" rx="70.3881" ry="18"/>
<text text-anchor="middle" x="1376.4937" y="-275.3" font-family="Times,serif" font-size="14.00" fill="#000000">#16 Identifier (f)</text>
</g>
<!-- #14 MemberExpression&#45;&gt;#16 Identifier (f) -->
<g id="edge43" class="edge">
<title>#14 MemberExpression&#45;&gt;#16 Identifier (f)</title>
<path fill="none" stroke="#0000ff" d="M1249.7094,-348.8116C1274.9997,-334.8859 1310.7554,-315.1976 1337.8514,-300.2777"/>
<polygon fill="#0000ff" stroke="#0000ff" points="1339.6092,-303.3054 1346.6808,-295.4159 1336.2327,-297.1735 1339.6092,-303.3054"/>
<text text-anchor="middle" x="1329.4937" y="-318.8" font-family="Times,serif" font-size="14.00" fill="#0000ff">property</text>
</g>
<!-- #21 Identifier (x) -->
<g id="node34" class="node">
<title>#21 Identifier (x)</title>
<ellipse fill="none" stroke="#000000" cx="1014.4937" cy="-192" rx="71.4873" ry="18"/>
<text text-anchor="middle" x="1014.4937" y="-188.3" font-family="Times,serif" font-size="14.00" fill="#000000">#21 Identifier (x)</text>
</g>
<!-- #20 MemberExpression&#45;&gt;#21 Identifier (x) -->
<g id="edge44" class="edge">
<title>#20 MemberExpression&#45;&gt;#21 Identifier (x)</title>
<path fill="none" stroke="#0000ff" d="M1024.0072,-260.9735C1022.3822,-249.1918 1020.2262,-233.5607 1018.3775,-220.1581"/>
<polygon fill="#0000ff" stroke="#0000ff" points="1021.8105,-219.4313 1016.9769,-210.0034 1014.8762,-220.3878 1021.8105,-219.4313"/>
<text text-anchor="middle" x="1037.4937" y="-231.8" font-family="Times,serif" font-size="14.00" fill="#0000ff">object</text>
</g>
<!-- #22 Identifier (g) -->
<g id="node35" class="node">
<title>#22 Identifier (g)</title>
<ellipse fill="none" stroke="#000000" cx="1175.4937" cy="-192" rx="71.4873" ry="18"/>
<text text-anchor="middle" x="1175.4937" y="-188.3" font-family="Times,serif" font-size="14.00" fill="#000000">#22 Identifier (g)</text>
</g>
<!-- #20 MemberExpression&#45;&gt;#22 Identifier (g) -->
<g id="edge45" class="edge">
<title>#20 MemberExpression&#45;&gt;#22 Identifier (g)</title>
<path fill="none" stroke="#0000ff" d="M1055.9313,-261.8116C1079.6014,-247.9908 1112.9929,-228.4938 1138.474,-213.6155"/>
<polygon fill="#0000ff" stroke="#0000ff" points="1140.2573,-216.6273 1147.1282,-208.5624 1136.7276,-210.5823 1140.2573,-216.6273"/>
<text text-anchor="middle" x="1132.4937" y="-231.8" font-family="Times,serif" font-size="14.00" fill="#0000ff">property</text>
</g>
<!-- #27 Identifier (aux1) -->
<g id="node36" class="node">
<title>#27 Identifier (aux1)</title>
<ellipse fill="none" stroke="#000000" cx="720.4937" cy="-105" rx="84.485" ry="18"/>
<text text-anchor="middle" x="720.4937" y="-101.3" font-family="Times,serif" font-size="14.00" fill="#000000">#27 Identifier (aux1)</text>
</g>
<!-- #26 BinaryExpression (+)&#45;&gt;#27 Identifier (aux1) -->
<g id="edge46" class="edge">
<title>#26 BinaryExpression (+)&#45;&gt;#27 Identifier (aux1)</title>
<path fill="none" stroke="#0000ff" d="M795.0168,-173.9735C781.1872,-161.1738 762.4487,-143.8308 747.2219,-129.7379"/>
<polygon fill="#0000ff" stroke="#0000ff" points="749.3404,-126.9296 739.6239,-122.7057 744.5856,-132.0669 749.3404,-126.9296"/>
<text text-anchor="middle" x="782.9937" y="-144.8" font-family="Times,serif" font-size="14.00" fill="#0000ff">left</text>
</g>
<!-- #28 Identifier (aux2) -->
<g id="node37" class="node">
<title>#28 Identifier (aux2)</title>
<ellipse fill="none" stroke="#000000" cx="907.4937" cy="-105" rx="84.485" ry="18"/>
<text text-anchor="middle" x="907.4937" y="-101.3" font-family="Times,serif" font-size="14.00" fill="#000000">#28 Identifier (aux2)</text>
</g>
<!-- #26 BinaryExpression (+)&#45;&gt;#28 Identifier (aux2) -->
<g id="edge47" class="edge">
<title>#26 BinaryExpression (+)&#45;&gt;#28 Identifier (aux2)</title>
<path fill="none" stroke="#0000ff" d="M833.7633,-173.9735C847.4458,-161.1738 865.9849,-143.8308 881.0497,-129.7379"/>
<polygon fill="#0000ff" stroke="#0000ff" points="883.6552,-132.0933 888.5669,-122.7057 878.8731,-126.9813 883.6552,-132.0933"/>
<text text-anchor="middle" x="879.4937" y="-144.8" font-family="Times,serif" font-size="14.00" fill="#0000ff">right</text>
</g>
<!-- #33 Identifier (eval) -->
<g id="node38" class="node">
<title>#33 Identifier (eval)</title>
<ellipse fill="none" stroke="#000000" cx="150.4937" cy="-18" rx="81.7856" ry="18"/>
<text text-anchor="middle" x="150.4937" y="-14.3" font-family="Times,serif" font-size="14.00" fill="#000000">#33 Identifier (eval)</text>
</g>
<!-- #32 CallExpression&#45;&gt;#33 Identifier (eval) -->
<g id="edge48" class="edge">
<title>#32 CallExpression&#45;&gt;#33 Identifier (eval)</title>
<path fill="none" stroke="#0000ff" d="M222.2808,-87.3943C208.984,-74.5407 190.7812,-56.9446 176.0327,-42.6878"/>
<polygon fill="#0000ff" stroke="#0000ff" points="178.3019,-40.0133 168.6794,-35.5796 173.4367,-45.0463 178.3019,-40.0133"/>
<text text-anchor="middle" x="217.4937" y="-57.8" font-family="Times,serif" font-size="14.00" fill="#0000ff">callee</text>
</g>
<!-- #34 Identifier (aux) -->
<g id="node39" class="node">
<title>#34 Identifier (aux)</title>
<ellipse fill="none" stroke="#000000" cx="330.4937" cy="-18" rx="79.8859" ry="18"/>
<text text-anchor="middle" x="330.4937" y="-14.3" font-family="Times,serif" font-size="14.00" fill="#000000">#34 Identifier (aux)</text>
</g>
<!-- #32 CallExpression&#45;&gt;#34 Identifier (aux) -->
<g id="edge49" class="edge">
<title>#32 CallExpression&#45;&gt;#34 Identifier (aux)</title>
<path fill="none" stroke="#0000ff" d="M258.7065,-87.3943C272.0033,-74.5407 290.2061,-56.9446 304.9546,-42.6878"/>
<polygon fill="#0000ff" stroke="#0000ff" points="307.5506,-45.0463 312.3079,-35.5796 302.6854,-40.0133 307.5506,-45.0463"/>
<text text-anchor="middle" x="305.4937" y="-57.8" font-family="Times,serif" font-size="14.00" fill="#0000ff">arg 1</text>
</g>
</g>
</svg>
