<?xml version="1.0" encoding="UTF-8" standalone="no"?>
<!DOCTYPE svg PUBLIC "-//W3C//DTD SVG 1.1//EN"
 "http://www.w3.org/Graphics/SVG/1.1/DTD/svg11.dtd">
<!-- Generated by graphviz version 2.40.1 (20161225.0304)
 -->
<!-- Title: G Pages: 1 -->
<svg width="1553pt" height="566pt"
 viewBox="0.00 0.00 1552.88 566.00" xmlns="http://www.w3.org/2000/svg" xmlns:xlink="http://www.w3.org/1999/xlink">
<g id="graph0" class="graph" transform="scale(1 1) rotate(0) translate(4 562)">
<title>G</title>
<polygon fill="#ffffff" stroke="transparent" points="-4,4 -4,-562 1548.8835,-562 1548.8835,4 -4,4"/>
<!-- #0 Program -->
<g id="node1" class="node">
<title>#0 Program</title>
<ellipse fill="none" stroke="#000000" cx="573.2416" cy="-540" rx="52.7911" ry="18"/>
<text text-anchor="middle" x="573.2416" y="-536.3" font-family="Times,serif" font-size="14.00" fill="#000000">#0 Program</text>
</g>
<!-- #1 Variable (f) -->
<g id="node2" class="node">
<title>#1 Variable (f)</title>
<ellipse fill="none" stroke="#000000" cx="721.2416" cy="-453" rx="63.8893" ry="18"/>
<text text-anchor="middle" x="721.2416" y="-449.3" font-family="Times,serif" font-size="14.00" fill="#000000">#1 Variable (f)</text>
</g>
<!-- #0 Program&#45;&gt;#1 Variable (f) -->
<g id="edge1" class="edge">
<title>#0 Program&#45;&gt;#1 Variable (f)</title>
<path fill="none" stroke="#0000ff" d="M600.0433,-524.245C623.7389,-510.3158 658.5157,-489.8727 684.7463,-474.4533"/>
<polygon fill="#0000ff" stroke="#0000ff" points="686.7887,-477.3127 693.6358,-469.2277 683.2413,-471.2781 686.7887,-477.3127"/>
<text text-anchor="middle" x="659.7416" y="-492.8" font-family="Times,serif" font-size="14.00" fill="#0000ff">1</text>
</g>
<!-- #11 ExpressionStatement -->
<g id="node3" class="node">
<title>#11 ExpressionStatement</title>
<ellipse fill="none" stroke="#000000" cx="573.2416" cy="-366" rx="100.9827" ry="18"/>
<text text-anchor="middle" x="573.2416" y="-362.3" font-family="Times,serif" font-size="14.00" fill="#000000">#11 ExpressionStatement</text>
</g>
<!-- #0 Program&#45;&gt;#11 ExpressionStatement -->
<g id="edge2" class="edge">
<title>#0 Program&#45;&gt;#11 ExpressionStatement</title>
<path fill="none" stroke="#0000ff" d="M573.2416,-521.7078C573.2416,-491.3436 573.2416,-430.3226 573.2416,-394.3464"/>
<polygon fill="#0000ff" stroke="#0000ff" points="576.7417,-394.0471 573.2416,-384.0471 569.7417,-394.0471 576.7417,-394.0471"/>
<text text-anchor="middle" x="576.7416" y="-449.3" font-family="Times,serif" font-size="14.00" fill="#0000ff">2</text>
</g>
<!-- #1 Variable (f)&#45;&gt;#11 ExpressionStatement -->
<g id="edge6" class="edge">
<title>#1 Variable (f)&#45;&gt;#11 ExpressionStatement</title>
<path fill="none" stroke="#ff0000" d="M693.404,-436.636C670.2589,-423.0304 637.0826,-403.5281 611.4517,-388.4613"/>
<polygon fill="#ff0000" stroke="#ff0000" points="613.1238,-385.3843 602.7292,-383.3339 609.5764,-391.4189 613.1238,-385.3843"/>
</g>
<!-- #2 Function (anon) -->
<g id="node7" class="node">
<title>#2 Function (anon)</title>
<ellipse fill="none" stroke="#000000" cx="1107.2416" cy="-366" rx="78.7863" ry="18"/>
<text text-anchor="middle" x="1107.2416" y="-362.3" font-family="Times,serif" font-size="14.00" fill="#000000">#2 Function (anon)</text>
</g>
<!-- #1 Variable (f)&#45;&gt;#2 Function (anon) -->
<g id="edge5" class="edge">
<title>#1 Variable (f)&#45;&gt;#2 Function (anon)</title>
<path fill="none" stroke="#0000ff" d="M771.3087,-441.7155C840.2225,-426.1831 964.45,-398.1836 1040.9929,-380.9317"/>
<polygon fill="#0000ff" stroke="#0000ff" points="1042.0193,-384.2882 1051.005,-378.6751 1040.4802,-377.4595 1042.0193,-384.2882"/>
<text text-anchor="middle" x="946.7416" y="-405.8" font-family="Times,serif" font-size="14.00" fill="#0000ff">init</text>
</g>
<!-- #12 AssignmentExpression -->
<g id="node8" class="node">
<title>#12 AssignmentExpression</title>
<ellipse fill="none" stroke="#000000" cx="334.2416" cy="-279" rx="107.781" ry="18"/>
<text text-anchor="middle" x="334.2416" y="-275.3" font-family="Times,serif" font-size="14.00" fill="#000000">#12 AssignmentExpression</text>
</g>
<!-- #11 ExpressionStatement&#45;&gt;#12 AssignmentExpression -->
<g id="edge7" class="edge">
<title>#11 ExpressionStatement&#45;&gt;#12 AssignmentExpression</title>
<path fill="none" stroke="#0000ff" d="M528.8477,-349.8399C489.2723,-335.4337 431.215,-314.2999 388.8157,-298.8659"/>
<polygon fill="#0000ff" stroke="#0000ff" points="389.8029,-295.5006 379.2089,-295.3688 387.4084,-302.0784 389.8029,-295.5006"/>
<text text-anchor="middle" x="497.2416" y="-318.8" font-family="Times,serif" font-size="14.00" fill="#0000ff">expression</text>
</g>
<!-- #18 CFG_F_END __main__ -->
<g id="node9" class="node">
<title>#18 CFG_F_END __main__</title>
<ellipse fill="none" stroke="#ff0000" cx="573.2416" cy="-279" rx="113.18" ry="18"/>
<text text-anchor="middle" x="573.2416" y="-275.3" font-family="Times,serif" font-size="14.00" fill="#ff0000">#18 CFG_F_END __main__</text>
</g>
<!-- #11 ExpressionStatement&#45;&gt;#18 CFG_F_END __main__ -->
<g id="edge8" class="edge">
<title>#11 ExpressionStatement&#45;&gt;#18 CFG_F_END __main__</title>
<path fill="none" stroke="#ff0000" d="M573.2416,-347.9735C573.2416,-336.1918 573.2416,-320.5607 573.2416,-307.1581"/>
<polygon fill="#ff0000" stroke="#ff0000" points="576.7417,-307.0033 573.2416,-297.0034 569.7417,-307.0034 576.7417,-307.0033"/>
</g>
<!-- #17 CFG_F_START __main__ -->
<g id="node4" class="node">
<title>#17 CFG_F_START __main__</title>
<ellipse fill="none" stroke="#ff0000" cx="766.2416" cy="-540" rx="122.6784" ry="18"/>
<text text-anchor="middle" x="766.2416" y="-536.3" font-family="Times,serif" font-size="14.00" fill="#ff0000">#17 CFG_F_START __main__</text>
</g>
<!-- #17 CFG_F_START __main__&#45;&gt;#1 Variable (f) -->
<g id="edge3" class="edge">
<title>#17 CFG_F_START __main__&#45;&gt;#1 Variable (f)</title>
<path fill="none" stroke="#ff0000" d="M756.9176,-521.9735C750.6426,-509.8418 742.2565,-493.6287 735.1916,-479.9698"/>
<polygon fill="#ff0000" stroke="#ff0000" points="738.2568,-478.2776 730.5537,-471.0034 732.0392,-481.4935 738.2568,-478.2776"/>
</g>
<!-- #19 CFG_F_START 2_anon -->
<g id="node5" class="node">
<title>#19 CFG_F_START 2_anon</title>
<ellipse fill="none" stroke="#ff0000" cx="817.2416" cy="-279" rx="113.18" ry="18"/>
<text text-anchor="middle" x="817.2416" y="-275.3" font-family="Times,serif" font-size="14.00" fill="#ff0000">#19 CFG_F_START 2_anon</text>
</g>
<!-- #4 Variable (v1) -->
<g id="node6" class="node">
<title>#4 Variable (v1)</title>
<ellipse fill="none" stroke="#000000" cx="975.2416" cy="-192" rx="69.5877" ry="18"/>
<text text-anchor="middle" x="975.2416" y="-188.3" font-family="Times,serif" font-size="14.00" fill="#000000">#4 Variable (v1)</text>
</g>
<!-- #19 CFG_F_START 2_anon&#45;&gt;#4 Variable (v1) -->
<g id="edge4" class="edge">
<title>#19 CFG_F_START 2_anon&#45;&gt;#4 Variable (v1)</title>
<path fill="none" stroke="#ff0000" d="M848.8356,-261.6033C874.1601,-247.6588 909.7984,-228.0352 936.7815,-213.1774"/>
<polygon fill="#ff0000" stroke="#ff0000" points="938.5014,-216.2259 945.573,-208.3365 935.125,-210.0941 938.5014,-216.2259"/>
</g>
<!-- #5 CallExpression -->
<g id="node10" class="node">
<title>#5 CallExpression</title>
<ellipse fill="none" stroke="#000000" cx="890.2416" cy="-105" rx="75.2868" ry="18"/>
<text text-anchor="middle" x="890.2416" y="-101.3" font-family="Times,serif" font-size="14.00" fill="#000000">#5 CallExpression</text>
</g>
<!-- #4 Variable (v1)&#45;&gt;#5 CallExpression -->
<g id="edge9" class="edge">
<title>#4 Variable (v1)&#45;&gt;#5 CallExpression</title>
<path fill="none" stroke="#0000ff" d="M958.0406,-174.3943C945.5977,-161.6586 928.606,-144.2671 914.7461,-130.081"/>
<polygon fill="#0000ff" stroke="#0000ff" points="916.909,-127.2865 907.4171,-122.5796 911.902,-132.1783 916.909,-127.2865"/>
<text text-anchor="middle" x="946.7416" y="-144.8" font-family="Times,serif" font-size="14.00" fill="#0000ff">init</text>
</g>
<!-- #8 ReturnStatement -->
<g id="node11" class="node">
<title>#8 ReturnStatement</title>
<ellipse fill="none" stroke="#000000" cx="1065.2416" cy="-105" rx="81.4863" ry="18"/>
<text text-anchor="middle" x="1065.2416" y="-101.3" font-family="Times,serif" font-size="14.00" fill="#000000">#8 ReturnStatement</text>
</g>
<!-- #4 Variable (v1)&#45;&gt;#8 ReturnStatement -->
<g id="edge10" class="edge">
<title>#4 Variable (v1)&#45;&gt;#8 ReturnStatement</title>
<path fill="none" stroke="#ff0000" d="M984.6752,-174.1471C990.7649,-163.7001 999.3785,-150.7001 1009.2416,-141 1014.1692,-136.1539 1019.8501,-131.6076 1025.6637,-127.4853"/>
<polygon fill="#ff0000" stroke="#ff0000" points="1027.844,-130.2375 1034.2038,-121.7637 1023.9478,-124.422 1027.844,-130.2375"/>
</g>
<!-- #4 Variable (v1)&#45;&gt;#8 ReturnStatement -->
<g id="edge11" class="edge">
<title>#4 Variable (v1)&#45;&gt;#8 ReturnStatement</title>
<path fill="none" stroke="#006400" d="M993.4545,-174.3943C1006.7513,-161.5407 1024.9541,-143.9446 1039.7026,-129.6878"/>
<polygon fill="#006400" stroke="#006400" points="1042.2986,-132.0463 1047.0559,-122.5796 1037.4334,-127.0133 1042.2986,-132.0463"/>
<text text-anchor="middle" x="1048.2416" y="-144.8" font-family="Times,serif" font-size="14.00" fill="#006400">VAR v1</text>
</g>
<!-- #2 Function (anon)&#45;&gt;#4 Variable (v1) -->
<g id="edge15" class="edge">
<title>#2 Function (anon)&#45;&gt;#4 Variable (v1)</title>
<path fill="none" stroke="#006400" d="M1053.7652,-352.6141C1025.131,-342.4265 992.3216,-325.2009 975.2416,-297 961.3009,-273.9824 963.4379,-242.5962 967.7459,-220.1467"/>
<polygon fill="#006400" stroke="#006400" points="971.1992,-220.7367 969.9008,-210.2218 964.3586,-219.2514 971.1992,-220.7367"/>
<text text-anchor="middle" x="995.2416" y="-275.3" font-family="Times,serif" font-size="14.00" fill="#006400">VAR x</text>
</g>
<!-- #3 Identifier (x) -->
<g id="node12" class="node">
<title>#3 Identifier (x)</title>
<ellipse fill="none" stroke="#000000" cx="1276.2416" cy="-279" rx="67.6881" ry="18"/>
<text text-anchor="middle" x="1276.2416" y="-275.3" font-family="Times,serif" font-size="14.00" fill="#000000">#3 Identifier (x)</text>
</g>
<!-- #2 Function (anon)&#45;&gt;#3 Identifier (x) -->
<g id="edge12" class="edge">
<title>#2 Function (anon)&#45;&gt;#3 Identifier (x)</title>
<path fill="none" stroke="#0000ff" d="M1139.427,-349.4312C1166.8211,-335.3289 1206.309,-315.0008 1235.8273,-299.805"/>
<polygon fill="#0000ff" stroke="#0000ff" points="1237.7438,-302.755 1245.0329,-295.0661 1234.5398,-296.5313 1237.7438,-302.755"/>
<text text-anchor="middle" x="1224.2416" y="-318.8" font-family="Times,serif" font-size="14.00" fill="#0000ff">param 1</text>
</g>
<!-- #10 BlockStatement -->
<g id="node13" class="node">
<title>#10 BlockStatement</title>
<ellipse fill="none" stroke="#000000" cx="1107.2416" cy="-279" rx="83.3857" ry="18"/>
<text text-anchor="middle" x="1107.2416" y="-275.3" font-family="Times,serif" font-size="14.00" fill="#000000">#10 BlockStatement</text>
</g>
<!-- #2 Function (anon)&#45;&gt;#10 BlockStatement -->
<g id="edge13" class="edge">
<title>#2 Function (anon)&#45;&gt;#10 BlockStatement</title>
<path fill="none" stroke="#0000ff" d="M1107.2416,-347.9735C1107.2416,-336.1918 1107.2416,-320.5607 1107.2416,-307.1581"/>
<polygon fill="#0000ff" stroke="#0000ff" points="1110.7417,-307.0033 1107.2416,-297.0034 1103.7417,-307.0034 1110.7417,-307.0033"/>
<text text-anchor="middle" x="1122.7416" y="-318.8" font-family="Times,serif" font-size="14.00" fill="#0000ff">block</text>
</g>
<!-- #21 PDG_OBJECT o1 -->
<g id="node14" class="node">
<title>#21 PDG_OBJECT o1</title>
<ellipse fill="none" stroke="#006400" cx="1453.2416" cy="-279" rx="91.784" ry="18"/>
<text text-anchor="middle" x="1453.2416" y="-275.3" font-family="Times,serif" font-size="14.00" fill="#006400">#21 PDG_OBJECT o1</text>
</g>
<!-- #2 Function (anon)&#45;&gt;#21 PDG_OBJECT o1 -->
<g id="edge14" class="edge">
<title>#2 Function (anon)&#45;&gt;#21 PDG_OBJECT o1</title>
<path fill="none" stroke="#006400" d="M1160.5899,-352.6944C1187.7353,-345.916 1221.2504,-337.5349 1251.2416,-330 1296.5164,-318.6253 1347.4825,-305.7572 1386.8939,-295.7925"/>
<polygon fill="#006400" stroke="#006400" points="1387.8175,-299.1692 1396.6543,-293.3244 1386.1014,-292.3828 1387.8175,-299.1692"/>
<text text-anchor="middle" x="1338.2416" y="-318.8" font-family="Times,serif" font-size="14.00" fill="#006400">CREATE x</text>
</g>
<!-- #13 MemberExpression -->
<g id="node15" class="node">
<title>#13 MemberExpression</title>
<ellipse fill="none" stroke="#000000" cx="196.2416" cy="-192" rx="96.3833" ry="18"/>
<text text-anchor="middle" x="196.2416" y="-188.3" font-family="Times,serif" font-size="14.00" fill="#000000">#13 MemberExpression</text>
</g>
<!-- #12 AssignmentExpression&#45;&gt;#13 MemberExpression -->
<g id="edge16" class="edge">
<title>#12 AssignmentExpression&#45;&gt;#13 MemberExpression</title>
<path fill="none" stroke="#0000ff" d="M306.3153,-261.3943C284.9455,-247.922 255.3114,-229.2397 232.1742,-214.6531"/>
<polygon fill="#0000ff" stroke="#0000ff" points="233.9814,-211.655 223.6555,-209.2827 230.2482,-217.5765 233.9814,-211.655"/>
<text text-anchor="middle" x="283.7416" y="-231.8" font-family="Times,serif" font-size="14.00" fill="#0000ff">left</text>
</g>
<!-- #16 Identifier (f) -->
<g id="node16" class="node">
<title>#16 Identifier (f)</title>
<ellipse fill="none" stroke="#000000" cx="380.2416" cy="-192" rx="70.3881" ry="18"/>
<text text-anchor="middle" x="380.2416" y="-188.3" font-family="Times,serif" font-size="14.00" fill="#000000">#16 Identifier (f)</text>
</g>
<!-- #12 AssignmentExpression&#45;&gt;#16 Identifier (f) -->
<g id="edge17" class="edge">
<title>#12 AssignmentExpression&#45;&gt;#16 Identifier (f)</title>
<path fill="none" stroke="#0000ff" d="M343.7729,-260.9735C350.1873,-248.8418 358.7598,-232.6287 365.9817,-218.9698"/>
<polygon fill="#0000ff" stroke="#0000ff" points="369.1425,-220.4797 370.7226,-210.0034 362.9542,-217.2077 369.1425,-220.4797"/>
<text text-anchor="middle" x="373.2416" y="-231.8" font-family="Times,serif" font-size="14.00" fill="#0000ff">right</text>
</g>
<!-- #6 Identifier (eval) -->
<g id="node17" class="node">
<title>#6 Identifier (eval)</title>
<ellipse fill="none" stroke="#000000" cx="731.2416" cy="-18" rx="77.1866" ry="18"/>
<text text-anchor="middle" x="731.2416" y="-14.3" font-family="Times,serif" font-size="14.00" fill="#000000">#6 Identifier (eval)</text>
</g>
<!-- #5 CallExpression&#45;&gt;#6 Identifier (eval) -->
<g id="edge18" class="edge">
<title>#5 CallExpression&#45;&gt;#6 Identifier (eval)</title>
<path fill="none" stroke="#0000ff" d="M859.9607,-88.4312C834.6229,-74.5671 798.2882,-54.6859 770.68,-39.5795"/>
<polygon fill="#0000ff" stroke="#0000ff" points="772.1329,-36.3848 761.6802,-34.6551 768.7728,-42.5257 772.1329,-36.3848"/>
<text text-anchor="middle" x="836.2416" y="-57.8" font-family="Times,serif" font-size="14.00" fill="#0000ff">callee</text>
</g>
<!-- #7 Identifier (x) -->
<g id="node18" class="node">
<title>#7 Identifier (x)</title>
<ellipse fill="none" stroke="#000000" cx="894.2416" cy="-18" rx="67.6881" ry="18"/>
<text text-anchor="middle" x="894.2416" y="-14.3" font-family="Times,serif" font-size="14.00" fill="#000000">#7 Identifier (x)</text>
</g>
<!-- #5 CallExpression&#45;&gt;#7 Identifier (x) -->
<g id="edge19" class="edge">
<title>#5 CallExpression&#45;&gt;#7 Identifier (x)</title>
<path fill="none" stroke="#0000ff" d="M891.0704,-86.9735C891.6121,-75.1918 892.3308,-59.5607 892.947,-46.1581"/>
<polygon fill="#0000ff" stroke="#0000ff" points="896.4508,-46.1536 893.4139,-36.0034 889.4582,-45.832 896.4508,-46.1536"/>
<text text-anchor="middle" x="906.2416" y="-57.8" font-family="Times,serif" font-size="14.00" fill="#0000ff">arg 1</text>
</g>
<!-- #9 Identifier (v1) -->
<g id="node19" class="node">
<title>#9 Identifier (v1)</title>
<ellipse fill="none" stroke="#000000" cx="1060.2416" cy="-18" rx="71.4873" ry="18"/>
<text text-anchor="middle" x="1060.2416" y="-14.3" font-family="Times,serif" font-size="14.00" fill="#000000">#9 Identifier (v1)</text>
</g>
<!-- #8 ReturnStatement&#45;&gt;#9 Identifier (v1) -->
<g id="edge20" class="edge">
<title>#8 ReturnStatement&#45;&gt;#9 Identifier (v1)</title>
<path fill="none" stroke="#0000ff" d="M1064.2056,-86.9735C1063.5285,-75.1918 1062.6302,-59.5607 1061.8599,-46.1581"/>
<polygon fill="#0000ff" stroke="#0000ff" points="1065.3444,-45.786 1061.2763,-36.0034 1058.3559,-46.1877 1065.3444,-45.786"/>
<text text-anchor="middle" x="1088.2416" y="-57.8" font-family="Times,serif" font-size="14.00" fill="#0000ff">argument</text>
</g>
<!-- #20 CFG_F_END 2_anon -->
<g id="node20" class="node">
<title>#20 CFG_F_END 2_anon</title>
<ellipse fill="none" stroke="#ff0000" cx="1253.2416" cy="-18" rx="103.1819" ry="18"/>
<text text-anchor="middle" x="1253.2416" y="-14.3" font-family="Times,serif" font-size="14.00" fill="#ff0000">#20 CFG_F_END 2_anon</text>
</g>
<!-- #8 ReturnStatement&#45;&gt;#20 CFG_F_END 2_anon -->
<g id="edge21" class="edge">
<title>#8 ReturnStatement&#45;&gt;#20 CFG_F_END 2_anon</title>
<path fill="none" stroke="#ff0000" d="M1100.603,-88.636C1130.8074,-74.6584 1174.4607,-54.4571 1207.3535,-39.2354"/>
<polygon fill="#ff0000" stroke="#ff0000" points="1209.1511,-42.2603 1216.7565,-34.8841 1206.2112,-35.9075 1209.1511,-42.2603"/>
</g>
<!-- #10 BlockStatement&#45;&gt;#4 Variable (v1) -->
<g id="edge22" class="edge">
<title>#10 BlockStatement&#45;&gt;#4 Variable (v1)</title>
<path fill="none" stroke="#0000ff" d="M1081.1627,-261.8116C1060.6005,-248.2592 1031.7576,-229.2491 1009.361,-214.4878"/>
<polygon fill="#0000ff" stroke="#0000ff" points="1011.093,-211.4375 1000.8173,-208.8567 1007.2407,-217.2822 1011.093,-211.4375"/>
<text text-anchor="middle" x="1051.7416" y="-231.8" font-family="Times,serif" font-size="14.00" fill="#0000ff">1</text>
</g>
<!-- #10 BlockStatement&#45;&gt;#8 ReturnStatement -->
<g id="edge23" class="edge">
<title>#10 BlockStatement&#45;&gt;#8 ReturnStatement</title>
<path fill="none" stroke="#0000ff" d="M1103.2472,-260.6347C1097.4233,-234.1325 1086.1077,-183.6612 1075.2416,-141 1074.5742,-138.3795 1073.859,-135.6579 1073.1292,-132.9375"/>
<polygon fill="#0000ff" stroke="#0000ff" points="1076.4996,-131.9934 1070.4819,-123.2734 1069.7483,-133.8428 1076.4996,-131.9934"/>
<text text-anchor="middle" x="1094.7416" y="-188.3" font-family="Times,serif" font-size="14.00" fill="#0000ff">2</text>
</g>
<!-- #14 Identifier (module) -->
<g id="node21" class="node">
<title>#14 Identifier (module)</title>
<ellipse fill="none" stroke="#000000" cx="94.2416" cy="-105" rx="94.4839" ry="18"/>
<text text-anchor="middle" x="94.2416" y="-101.3" font-family="Times,serif" font-size="14.00" fill="#000000">#14 Identifier (module)</text>
</g>
<!-- #13 MemberExpression&#45;&gt;#14 Identifier (module) -->
<g id="edge24" class="edge">
<title>#13 MemberExpression&#45;&gt;#14 Identifier (module)</title>
<path fill="none" stroke="#0000ff" d="M175.6004,-174.3943C160.3925,-161.4228 139.5218,-143.6213 122.7269,-129.2962"/>
<polygon fill="#0000ff" stroke="#0000ff" points="124.7318,-126.4061 114.8522,-122.5796 120.1892,-131.732 124.7318,-126.4061"/>
<text text-anchor="middle" x="169.2416" y="-144.8" font-family="Times,serif" font-size="14.00" fill="#0000ff">object</text>
</g>
<!-- #15 Identifier (exports) -->
<g id="node22" class="node">
<title>#15 Identifier (exports)</title>
<ellipse fill="none" stroke="#000000" cx="299.2416" cy="-105" rx="92.8835" ry="18"/>
<text text-anchor="middle" x="299.2416" y="-101.3" font-family="Times,serif" font-size="14.00" fill="#000000">#15 Identifier (exports)</text>
</g>
<!-- #13 MemberExpression&#45;&gt;#15 Identifier (exports) -->
<g id="edge25" class="edge">
<title>#13 MemberExpression&#45;&gt;#15 Identifier (exports)</title>
<path fill="none" stroke="#0000ff" d="M217.0852,-174.3943C232.4423,-161.4228 253.5175,-143.6213 270.4771,-129.2962"/>
<polygon fill="#0000ff" stroke="#0000ff" points="273.048,-131.7062 278.429,-122.5796 268.5311,-126.3585 273.048,-131.7062"/>
<text text-anchor="middle" x="277.2416" y="-144.8" font-family="Times,serif" font-size="14.00" fill="#0000ff">property</text>
</g>
</g>
</svg>
