<?xml version="1.0" encoding="UTF-8" standalone="no"?>
<!DOCTYPE svg PUBLIC "-//W3C//DTD SVG 1.1//EN"
 "http://www.w3.org/Graphics/SVG/1.1/DTD/svg11.dtd">
<!-- Generated by graphviz version 2.40.1 (20161225.0304)
 -->
<!-- Title: G Pages: 1 -->
<svg width="702pt" height="1035pt"
 viewBox="0.00 0.00 701.93 1035.00" xmlns="http://www.w3.org/2000/svg" xmlns:xlink="http://www.w3.org/1999/xlink">
<g id="graph0" class="graph" transform="scale(1 1) rotate(0) translate(4 1031)">
<title>G</title>
<polygon fill="#ffffff" stroke="transparent" points="-4,4 -4,-1031 697.9314,-1031 697.9314,4 -4,4"/>
<!-- #44 CFG_F_START __main__ -->
<g id="node1" class="node">
<title>#44 CFG_F_START __main__</title>
<ellipse fill="none" stroke="#ff0000" cx="240.6419" cy="-1009" rx="122.6784" ry="18"/>
<text text-anchor="middle" x="240.6419" y="-1005.3" font-family="Times,serif" font-size="14.00" fill="#ff0000">#44 CFG_F_START __main__</text>
</g>
<!-- #1 Function (search) -->
<g id="node2" class="node">
<title>#1 Function (search)</title>
<ellipse fill="none" stroke="#000000" cx="240.6419" cy="-936" rx="83.6854" ry="18"/>
<text text-anchor="middle" x="240.6419" y="-932.3" font-family="Times,serif" font-size="14.00" fill="#000000">#1 Function (search)</text>
</g>
<!-- #44 CFG_F_START __main__&#45;&gt;#1 Function (search) -->
<g id="edge1" class="edge">
<title>#44 CFG_F_START __main__&#45;&gt;#1 Function (search)</title>
<path fill="none" stroke="#ff0000" d="M240.6419,-990.9551C240.6419,-982.8828 240.6419,-973.1764 240.6419,-964.1817"/>
<polygon fill="#ff0000" stroke="#ff0000" points="244.142,-964.0903 240.6419,-954.0904 237.142,-964.0904 244.142,-964.0903"/>
</g>
<!-- #49 PDG_OBJECT o1 -->
<g id="node5" class="node">
<title>#49 PDG_OBJECT o1</title>
<ellipse fill="none" stroke="#006400" cx="91.6419" cy="-849" rx="91.784" ry="18"/>
<text text-anchor="middle" x="91.6419" y="-845.3" font-family="Times,serif" font-size="14.00" fill="#006400">#49 PDG_OBJECT o1</text>
</g>
<!-- #1 Function (search)&#45;&gt;#49 PDG_OBJECT o1 -->
<g id="edge4" class="edge">
<title>#1 Function (search)&#45;&gt;#49 PDG_OBJECT o1</title>
<path fill="none" stroke="#000000" d="M211.5595,-919.019C188.15,-905.3504 155.0661,-886.0329 129.5762,-871.1496"/>
<polygon fill="#000000" stroke="#000000" points="131.3057,-868.1065 120.9052,-866.0866 127.776,-874.1515 131.3057,-868.1065"/>
<text text-anchor="middle" x="215.1419" y="-888.8" font-family="Times,serif" font-size="14.00" fill="#000000">CREATE opts</text>
</g>
<!-- #45 CFG_F_END __main__ -->
<g id="node6" class="node">
<title>#45 CFG_F_END __main__</title>
<ellipse fill="none" stroke="#ff0000" cx="314.6419" cy="-849" rx="113.18" ry="18"/>
<text text-anchor="middle" x="314.6419" y="-845.3" font-family="Times,serif" font-size="14.00" fill="#ff0000">#45 CFG_F_END __main__</text>
</g>
<!-- #1 Function (search)&#45;&gt;#45 CFG_F_END __main__ -->
<g id="edge3" class="edge">
<title>#1 Function (search)&#45;&gt;#45 CFG_F_END __main__</title>
<path fill="none" stroke="#ff0000" d="M255.9747,-917.9735C266.5913,-905.4919 280.8826,-888.6899 292.7018,-874.7944"/>
<polygon fill="#ff0000" stroke="#ff0000" points="295.5156,-876.8883 299.3287,-867.0034 290.1836,-872.3529 295.5156,-876.8883"/>
</g>
<!-- #46 CFG_F_START 1_search -->
<g id="node3" class="node">
<title>#46 CFG_F_START 1_search</title>
<ellipse fill="none" stroke="#ff0000" cx="575.6419" cy="-1009" rx="118.0794" ry="18"/>
<text text-anchor="middle" x="575.6419" y="-1005.3" font-family="Times,serif" font-size="14.00" fill="#ff0000">#46 CFG_F_START 1_search</text>
</g>
<!-- #3» v1 = opts.filter -->
<g id="node4" class="node">
<title>#3» v1 = opts.filter</title>
<ellipse fill="none" stroke="#000000" cx="575.6419" cy="-936" rx="79.0865" ry="18"/>
<text text-anchor="middle" x="575.6419" y="-932.3" font-family="Times,serif" font-size="14.00" fill="#000000">#3» v1 = opts.filter</text>
</g>
<!-- #46 CFG_F_START 1_search&#45;&gt;#3» v1 = opts.filter -->
<g id="edge2" class="edge">
<title>#46 CFG_F_START 1_search&#45;&gt;#3» v1 = opts.filter</title>
<path fill="none" stroke="#ff0000" d="M575.6419,-990.9551C575.6419,-982.8828 575.6419,-973.1764 575.6419,-964.1817"/>
<polygon fill="#ff0000" stroke="#ff0000" points="579.142,-964.0903 575.6419,-954.0904 572.142,-964.0904 579.142,-964.0903"/>
</g>
<!-- #7» v2 = !v1 -->
<g id="node7" class="node">
<title>#7» v2 = !v1</title>
<ellipse fill="none" stroke="#000000" cx="575.6419" cy="-849" rx="57.3905" ry="18"/>
<text text-anchor="middle" x="575.6419" y="-845.3" font-family="Times,serif" font-size="14.00" fill="#000000">#7» v2 = !v1</text>
</g>
<!-- #3» v1 = opts.filter&#45;&gt;#7» v2 = !v1 -->
<g id="edge5" class="edge">
<title>#3» v1 = opts.filter&#45;&gt;#7» v2 = !v1</title>
<path fill="none" stroke="#ff0000" d="M575.6419,-917.9735C575.6419,-906.1918 575.6419,-890.5607 575.6419,-877.1581"/>
<polygon fill="#ff0000" stroke="#ff0000" points="579.142,-877.0033 575.6419,-867.0034 572.142,-877.0034 579.142,-877.0033"/>
</g>
<!-- #10» v3 = opts.collection -->
<g id="node8" class="node">
<title>#10» v3 = opts.collection</title>
<ellipse fill="none" stroke="#000000" cx="575.6419" cy="-776" rx="101.2821" ry="18"/>
<text text-anchor="middle" x="575.6419" y="-772.3" font-family="Times,serif" font-size="14.00" fill="#000000">#10» v3 = opts.collection</text>
</g>
<!-- #7» v2 = !v1&#45;&gt;#10» v3 = opts.collection -->
<g id="edge6" class="edge">
<title>#7» v2 = !v1&#45;&gt;#10» v3 = opts.collection</title>
<path fill="none" stroke="#ff0000" d="M575.6419,-830.9551C575.6419,-822.8828 575.6419,-813.1764 575.6419,-804.1817"/>
<polygon fill="#ff0000" stroke="#ff0000" points="579.142,-804.0903 575.6419,-794.0904 572.142,-804.0904 579.142,-804.0903"/>
</g>
<!-- #14» v4 = v2 &amp;&amp; v3 -->
<g id="node9" class="node">
<title>#14» v4 = v2 &amp;&amp; v3</title>
<ellipse fill="none" stroke="#000000" cx="575.6419" cy="-703" rx="87.1846" ry="18"/>
<text text-anchor="middle" x="575.6419" y="-699.3" font-family="Times,serif" font-size="14.00" fill="#000000">#14» v4 = v2 &amp;&amp; v3</text>
</g>
<!-- #10» v3 = opts.collection&#45;&gt;#14» v4 = v2 &amp;&amp; v3 -->
<g id="edge7" class="edge">
<title>#10» v3 = opts.collection&#45;&gt;#14» v4 = v2 &amp;&amp; v3</title>
<path fill="none" stroke="#ff0000" d="M575.6419,-757.9551C575.6419,-749.8828 575.6419,-740.1764 575.6419,-731.1817"/>
<polygon fill="#ff0000" stroke="#ff0000" points="579.142,-731.0903 575.6419,-721.0904 572.142,-731.0904 579.142,-731.0903"/>
</g>
<!-- #18 IfStatement -->
<g id="node10" class="node">
<title>#18 IfStatement</title>
<ellipse fill="none" stroke="#000000" cx="575.6419" cy="-630" rx="67.6881" ry="18"/>
<text text-anchor="middle" x="575.6419" y="-626.3" font-family="Times,serif" font-size="14.00" fill="#000000">#18 IfStatement</text>
</g>
<!-- #14» v4 = v2 &amp;&amp; v3&#45;&gt;#18 IfStatement -->
<g id="edge8" class="edge">
<title>#14» v4 = v2 &amp;&amp; v3&#45;&gt;#18 IfStatement</title>
<path fill="none" stroke="#ff0000" d="M575.6419,-684.9551C575.6419,-676.8828 575.6419,-667.1764 575.6419,-658.1817"/>
<polygon fill="#ff0000" stroke="#ff0000" points="579.142,-658.0903 575.6419,-648.0904 572.142,-658.0904 579.142,-658.0903"/>
</g>
<!-- #19 Identifier (v4) -->
<g id="node11" class="node">
<title>#19 Identifier (v4)</title>
<ellipse fill="none" stroke="#000000" cx="575.6419" cy="-543" rx="76.0865" ry="18"/>
<text text-anchor="middle" x="575.6419" y="-539.3" font-family="Times,serif" font-size="14.00" fill="#000000">#19 Identifier (v4)</text>
</g>
<!-- #18 IfStatement&#45;&gt;#19 Identifier (v4) -->
<g id="edge9" class="edge">
<title>#18 IfStatement&#45;&gt;#19 Identifier (v4)</title>
<path fill="none" stroke="#ff0000" d="M575.6419,-611.9735C575.6419,-600.1918 575.6419,-584.5607 575.6419,-571.1581"/>
<polygon fill="#ff0000" stroke="#ff0000" points="579.142,-571.0033 575.6419,-561.0034 572.142,-571.0034 579.142,-571.0033"/>
<text text-anchor="middle" x="585.1419" y="-582.8" font-family="Times,serif" font-size="14.00" fill="#ff0000">test</text>
</g>
<!-- #20» v5 = opts.collection -->
<g id="node12" class="node">
<title>#20» v5 = opts.collection</title>
<ellipse fill="none" stroke="#000000" cx="511.6419" cy="-456" rx="101.2821" ry="18"/>
<text text-anchor="middle" x="511.6419" y="-452.3" font-family="Times,serif" font-size="14.00" fill="#000000">#20» v5 = opts.collection</text>
</g>
<!-- #19 Identifier (v4)&#45;&gt;#20» v5 = opts.collection -->
<g id="edge10" class="edge">
<title>#19 Identifier (v4)&#45;&gt;#20» v5 = opts.collection</title>
<path fill="none" stroke="#ff0000" d="M562.381,-524.9735C553.2849,-512.6085 541.0698,-496.0036 530.9042,-482.1847"/>
<polygon fill="#ff0000" stroke="#ff0000" points="533.6308,-479.9846 524.8857,-474.0034 527.9921,-484.1326 533.6308,-479.9846"/>
<text text-anchor="middle" x="565.6419" y="-495.8" font-family="Times,serif" font-size="14.00" fill="#ff0000">TRUE</text>
</g>
<!-- #48 CFG_IF_END -->
<g id="node13" class="node">
<title>#48 CFG_IF_END</title>
<ellipse fill="none" stroke="#ff0000" cx="582.6419" cy="-237" rx="77.9862" ry="18"/>
<text text-anchor="middle" x="582.6419" y="-233.3" font-family="Times,serif" font-size="14.00" fill="#ff0000">#48 CFG_IF_END</text>
</g>
<!-- #19 Identifier (v4)&#45;&gt;#48 CFG_IF_END -->
<g id="edge11" class="edge">
<title>#19 Identifier (v4)&#45;&gt;#48 CFG_IF_END</title>
<path fill="none" stroke="#ff0000" d="M599.1084,-525.7803C617.7268,-509.9558 640.6419,-484.6584 640.6419,-456 640.6419,-456 640.6419,-456 640.6419,-310 640.6419,-290.7427 628.1158,-273.6184 614.706,-260.8036"/>
<polygon fill="#ff0000" stroke="#ff0000" points="617.031,-258.1874 607.2391,-254.1414 612.3707,-263.4106 617.031,-258.1874"/>
<text text-anchor="middle" x="661.6419" y="-379.3" font-family="Times,serif" font-size="14.00" fill="#ff0000">FALSE</text>
</g>
<!-- #24» v6 = &#39;...&#39; + v5 -->
<g id="node14" class="node">
<title>#24» v6 = &#39;...&#39; + v5</title>
<ellipse fill="none" stroke="#000000" cx="522.6419" cy="-383" rx="79.0865" ry="18"/>
<text text-anchor="middle" x="522.6419" y="-379.3" font-family="Times,serif" font-size="14.00" fill="#000000">#24» v6 = &#39;...&#39; + v5</text>
</g>
<!-- #20» v5 = opts.collection&#45;&gt;#24» v6 = &#39;...&#39; + v5 -->
<g id="edge12" class="edge">
<title>#20» v5 = opts.collection&#45;&gt;#24» v6 = &#39;...&#39; + v5</title>
<path fill="none" stroke="#ff0000" d="M514.361,-437.9551C515.5773,-429.8828 517.0399,-420.1764 518.3953,-411.1817"/>
<polygon fill="#ff0000" stroke="#ff0000" points="521.8867,-411.5003 519.9159,-401.0904 514.9649,-410.4572 521.8867,-411.5003"/>
</g>
<!-- #35» v7 = opts.filter -->
<g id="node15" class="node">
<title>#35» v7 = opts.filter</title>
<ellipse fill="none" stroke="#000000" cx="582.6419" cy="-164" rx="83.6854" ry="18"/>
<text text-anchor="middle" x="582.6419" y="-160.3" font-family="Times,serif" font-size="14.00" fill="#000000">#35» v7 = opts.filter</text>
</g>
<!-- #48 CFG_IF_END&#45;&gt;#35» v7 = opts.filter -->
<g id="edge13" class="edge">
<title>#48 CFG_IF_END&#45;&gt;#35» v7 = opts.filter</title>
<path fill="none" stroke="#ff0000" d="M582.6419,-218.9551C582.6419,-210.8828 582.6419,-201.1764 582.6419,-192.1817"/>
<polygon fill="#ff0000" stroke="#ff0000" points="586.142,-192.0903 582.6419,-182.0904 579.142,-192.0904 586.142,-192.0903"/>
</g>
<!-- #28» opts.filter = v6; -->
<g id="node16" class="node">
<title>#28» opts.filter = v6;</title>
<ellipse fill="none" stroke="#000000" cx="524.6419" cy="-310" rx="86.3847" ry="18"/>
<text text-anchor="middle" x="524.6419" y="-306.3" font-family="Times,serif" font-size="14.00" fill="#000000">#28» opts.filter = v6;</text>
</g>
<!-- #24» v6 = &#39;...&#39; + v5&#45;&gt;#28» opts.filter = v6; -->
<g id="edge14" class="edge">
<title>#24» v6 = &#39;...&#39; + v5&#45;&gt;#28» opts.filter = v6;</title>
<path fill="none" stroke="#ff0000" d="M523.1363,-364.9551C523.3574,-356.8828 523.6233,-347.1764 523.8698,-338.1817"/>
<polygon fill="#ff0000" stroke="#ff0000" points="527.371,-338.1825 524.1462,-328.0904 520.3736,-337.9907 527.371,-338.1825"/>
</g>
<!-- #39» eval(v7); -->
<g id="node17" class="node">
<title>#39» eval(v7);</title>
<ellipse fill="none" stroke="#000000" cx="582.6419" cy="-91" rx="62.2891" ry="18"/>
<text text-anchor="middle" x="582.6419" y="-87.3" font-family="Times,serif" font-size="14.00" fill="#000000">#39» eval(v7);</text>
</g>
<!-- #35» v7 = opts.filter&#45;&gt;#39» eval(v7); -->
<g id="edge15" class="edge">
<title>#35» v7 = opts.filter&#45;&gt;#39» eval(v7);</title>
<path fill="none" stroke="#ff0000" d="M582.6419,-145.9551C582.6419,-137.8828 582.6419,-128.1764 582.6419,-119.1817"/>
<polygon fill="#ff0000" stroke="#ff0000" points="586.142,-119.0903 582.6419,-109.0904 579.142,-119.0904 586.142,-119.0903"/>
</g>
<!-- #28» opts.filter = v6;&#45;&gt;#48 CFG_IF_END -->
<g id="edge16" class="edge">
<title>#28» opts.filter = v6;&#45;&gt;#48 CFG_IF_END</title>
<path fill="none" stroke="#ff0000" d="M538.979,-291.9551C545.9324,-283.2033 554.412,-272.5307 562.0425,-262.9268"/>
<polygon fill="#ff0000" stroke="#ff0000" points="564.9893,-264.8442 568.4697,-254.8374 559.5086,-260.4897 564.9893,-264.8442"/>
</g>
<!-- #47 CFG_F_END 1_search -->
<g id="node18" class="node">
<title>#47 CFG_F_END 1_search</title>
<ellipse fill="none" stroke="#ff0000" cx="582.6419" cy="-18" rx="108.5808" ry="18"/>
<text text-anchor="middle" x="582.6419" y="-14.3" font-family="Times,serif" font-size="14.00" fill="#ff0000">#47 CFG_F_END 1_search</text>
</g>
<!-- #39» eval(v7);&#45;&gt;#47 CFG_F_END 1_search -->
<g id="edge17" class="edge">
<title>#39» eval(v7);&#45;&gt;#47 CFG_F_END 1_search</title>
<path fill="none" stroke="#ff0000" d="M582.6419,-72.9551C582.6419,-64.8828 582.6419,-55.1764 582.6419,-46.1817"/>
<polygon fill="#ff0000" stroke="#ff0000" points="586.142,-46.0903 582.6419,-36.0904 579.142,-46.0904 586.142,-46.0903"/>
</g>
</g>
</svg>
