<?xml version="1.0" encoding="UTF-8" standalone="no"?>
<!DOCTYPE svg PUBLIC "-//W3C//DTD SVG 1.1//EN"
 "http://www.w3.org/Graphics/SVG/1.1/DTD/svg11.dtd">
<!-- Generated by graphviz version 2.40.1 (20161225.0304)
 -->
<!-- Title: G Pages: 1 -->
<svg width="1112pt" height="1321pt"
 viewBox="0.00 0.00 1111.75 1321.00" xmlns="http://www.w3.org/2000/svg" xmlns:xlink="http://www.w3.org/1999/xlink">
<g id="graph0" class="graph" transform="scale(1 1) rotate(0) translate(4 1317)">
<title>G</title>
<polygon fill="#ffffff" stroke="transparent" points="-4,4 -4,-1317 1107.7464,-1317 1107.7464,4 -4,4"/>
<!-- #0 Program (0) -->
<g id="node1" class="node">
<title>#0 Program (0)</title>
<ellipse fill="none" stroke="#000000" cx="253.6553" cy="-1295" rx="65.7887" ry="18"/>
<text text-anchor="middle" x="253.6553" y="-1291.3" font-family="Times,serif" font-size="14.00" fill="#000000">#0 Program (0)</text>
</g>
<!-- #1» f = Function (__2_anon__) &#45; (46) -->
<g id="node2" class="node">
<title>#1» f = Function (__2_anon__) &#45; (46)</title>
<ellipse fill="none" stroke="#000000" cx="441.6553" cy="-1208" rx="144.8743" ry="18"/>
<text text-anchor="middle" x="441.6553" y="-1204.3" font-family="Times,serif" font-size="14.00" fill="#000000">#1» f = Function (__2_anon__) &#45; (46)</text>
</g>
<!-- #0 Program (0)&#45;&gt;#1» f = Function (__2_anon__) &#45; (46) -->
<g id="edge1" class="edge">
<title>#0 Program (0)&#45;&gt;#1» f = Function (__2_anon__) &#45; (46)</title>
<path fill="none" stroke="#0000ff" d="M287.2659,-1279.4461C317.1932,-1265.5968 361.283,-1245.1936 394.6927,-1229.7327"/>
<polygon fill="#0000ff" stroke="#0000ff" points="396.2067,-1232.8887 403.8121,-1225.5125 393.2668,-1226.536 396.2067,-1232.8887"/>
<text text-anchor="middle" x="363.1553" y="-1247.8" font-family="Times,serif" font-size="14.00" fill="#0000ff">1</text>
</g>
<!-- #40» module.exports = f; &#45; (46) -->
<g id="node3" class="node">
<title>#40» module.exports = f; &#45; (46)</title>
<ellipse fill="none" stroke="#000000" cx="253.6553" cy="-1121" rx="124.2781" ry="18"/>
<text text-anchor="middle" x="253.6553" y="-1117.3" font-family="Times,serif" font-size="14.00" fill="#000000">#40» module.exports = f; &#45; (46)</text>
</g>
<!-- #0 Program (0)&#45;&gt;#40» module.exports = f; &#45; (46) -->
<g id="edge2" class="edge">
<title>#0 Program (0)&#45;&gt;#40» module.exports = f; &#45; (46)</title>
<path fill="none" stroke="#0000ff" d="M253.6553,-1276.7078C253.6553,-1246.3436 253.6553,-1185.3226 253.6553,-1149.3464"/>
<polygon fill="#0000ff" stroke="#0000ff" points="257.1554,-1149.0471 253.6553,-1139.0471 250.1554,-1149.0471 257.1554,-1149.0471"/>
<text text-anchor="middle" x="257.1553" y="-1204.3" font-family="Times,serif" font-size="14.00" fill="#0000ff">2</text>
</g>
<!-- #1» f = Function (__2_anon__) &#45; (46)&#45;&gt;#40» module.exports = f; &#45; (46) -->
<g id="edge8" class="edge">
<title>#1» f = Function (__2_anon__) &#45; (46)&#45;&gt;#40» module.exports = f; &#45; (46)</title>
<path fill="none" stroke="#ff0000" d="M404.0625,-1190.6033C374.1216,-1176.7477 332.0646,-1157.2852 300.0333,-1142.4622"/>
<polygon fill="#ff0000" stroke="#ff0000" points="301.4074,-1139.2415 290.8621,-1138.218 298.4675,-1145.5942 301.4074,-1139.2415"/>
</g>
<!-- #48 CFG_F_START 2_anon -->
<g id="node5" class="node">
<title>#48 CFG_F_START 2_anon</title>
<ellipse fill="none" stroke="#ff0000" cx="574.6553" cy="-1034" rx="113.18" ry="18"/>
<text text-anchor="middle" x="574.6553" y="-1030.3" font-family="Times,serif" font-size="14.00" fill="#ff0000">#48 CFG_F_START 2_anon</text>
</g>
<!-- #1» f = Function (__2_anon__) &#45; (46)&#45;&gt;#48 CFG_F_START 2_anon -->
<g id="edge7" class="edge">
<title>#1» f = Function (__2_anon__) &#45; (46)&#45;&gt;#48 CFG_F_START 2_anon</title>
<path fill="none" stroke="#000000" d="M455.3877,-1190.0343C478.9821,-1159.1664 527.3108,-1095.9394 554.651,-1060.1709"/>
<polygon fill="#000000" stroke="#000000" points="557.5062,-1062.199 560.7983,-1052.1286 551.9448,-1057.948 557.5062,-1062.199"/>
<text text-anchor="middle" x="529.6553" y="-1117.3" font-family="Times,serif" font-size="14.00" fill="#000000">FD</text>
</g>
<!-- #52 48.o&#45;o1 -->
<g id="node8" class="node">
<title>#52 48.o&#45;o1</title>
<ellipse fill="none" stroke="#006400" cx="351.6553" cy="-947" rx="53.8905" ry="18"/>
<text text-anchor="middle" x="351.6553" y="-943.3" font-family="Times,serif" font-size="14.00" fill="#006400">#52 48.o&#45;o1</text>
</g>
<!-- #1» f = Function (__2_anon__) &#45; (46)&#45;&gt;#52 48.o&#45;o1 -->
<g id="edge9" class="edge">
<title>#1» f = Function (__2_anon__) &#45; (46)&#45;&gt;#52 48.o&#45;o1</title>
<path fill="none" stroke="#000000" stroke-dasharray="5,2" d="M330.4812,-1196.3451C266.8576,-1186.7179 186.7916,-1169.4757 120.6553,-1139 62.7697,-1112.3262 34.9199,-1109.1256 6.6553,-1052 -.4402,-1037.6594 -3.4886,-1028.3735 6.6553,-1016 41.5664,-973.4153 198.4357,-956.5887 288.1552,-950.3611"/>
<polygon fill="#000000" stroke="#000000" points="288.4745,-953.8476 298.2184,-949.6874 288.0069,-946.8632 288.4745,-953.8476"/>
</g>
<!-- #2 Function (anon) &#45; (46) -->
<g id="node9" class="node">
<title>#2 Function (anon) &#45; (46)</title>
<ellipse fill="none" stroke="#000000" cx="764.6553" cy="-1121" rx="100.9827" ry="18"/>
<text text-anchor="middle" x="764.6553" y="-1117.3" font-family="Times,serif" font-size="14.00" fill="#000000">#2 Function (anon) &#45; (46)</text>
</g>
<!-- #1» f = Function (__2_anon__) &#45; (46)&#45;&gt;#2 Function (anon) &#45; (46) -->
<g id="edge6" class="edge">
<title>#1» f = Function (__2_anon__) &#45; (46)&#45;&gt;#2 Function (anon) &#45; (46)</title>
<path fill="none" stroke="#0000ff" d="M502.4091,-1191.636C558.4667,-1176.5369 641.4875,-1154.1752 699.0405,-1138.6733"/>
<polygon fill="#0000ff" stroke="#0000ff" points="700.0176,-1142.035 708.7631,-1136.0545 698.197,-1135.2759 700.0176,-1142.035"/>
<text text-anchor="middle" x="631.1553" y="-1160.8" font-family="Times,serif" font-size="14.00" fill="#0000ff">init</text>
</g>
<!-- #47 CFG_F_END __main__ -->
<g id="node10" class="node">
<title>#47 CFG_F_END __main__</title>
<ellipse fill="none" stroke="#ff0000" cx="128.6553" cy="-1034" rx="113.18" ry="18"/>
<text text-anchor="middle" x="128.6553" y="-1030.3" font-family="Times,serif" font-size="14.00" fill="#ff0000">#47 CFG_F_END __main__</text>
</g>
<!-- #40» module.exports = f; &#45; (46)&#45;&gt;#47 CFG_F_END __main__ -->
<g id="edge10" class="edge">
<title>#40» module.exports = f; &#45; (46)&#45;&gt;#47 CFG_F_END __main__</title>
<path fill="none" stroke="#ff0000" d="M228.058,-1103.1843C209.1835,-1090.0477 183.3136,-1072.0422 162.6967,-1057.6929"/>
<polygon fill="#ff0000" stroke="#ff0000" points="164.4254,-1054.6318 154.2183,-1051.7919 160.4266,-1060.3772 164.4254,-1054.6318"/>
</g>
<!-- #46 CFG_F_START __main__ -->
<g id="node4" class="node">
<title>#46 CFG_F_START __main__</title>
<ellipse fill="none" stroke="#ff0000" cx="459.6553" cy="-1295" rx="122.6784" ry="18"/>
<text text-anchor="middle" x="459.6553" y="-1291.3" font-family="Times,serif" font-size="14.00" fill="#ff0000">#46 CFG_F_START __main__</text>
</g>
<!-- #46 CFG_F_START __main__&#45;&gt;#1» f = Function (__2_anon__) &#45; (46) -->
<g id="edge3" class="edge">
<title>#46 CFG_F_START __main__&#45;&gt;#1» f = Function (__2_anon__) &#45; (46)</title>
<path fill="none" stroke="#ff0000" d="M455.9256,-1276.9735C453.488,-1265.1918 450.254,-1249.5607 447.4811,-1236.1581"/>
<polygon fill="#ff0000" stroke="#ff0000" points="450.8336,-1235.0868 445.3801,-1226.0034 443.9788,-1236.5051 450.8336,-1235.0868"/>
</g>
<!-- #4» v1 = o.z -->
<g id="node6" class="node">
<title>#4» v1 = o.z</title>
<ellipse fill="none" stroke="#000000" cx="799.6553" cy="-947" rx="55.7903" ry="18"/>
<text text-anchor="middle" x="799.6553" y="-943.3" font-family="Times,serif" font-size="14.00" fill="#000000">#4» v1 = o.z</text>
</g>
<!-- #48 CFG_F_START 2_anon&#45;&gt;#4» v1 = o.z -->
<g id="edge4" class="edge">
<title>#48 CFG_F_START 2_anon&#45;&gt;#4» v1 = o.z</title>
<path fill="none" stroke="#ff0000" d="M617.7713,-1017.3285C656.9084,-1002.1954 714.4257,-979.9554 754.2575,-964.5538"/>
<polygon fill="#ff0000" stroke="#ff0000" points="755.6645,-967.7624 763.7292,-960.8914 753.1399,-961.2334 755.6645,-967.7624"/>
</g>
<!-- #8» v2 = v1 &gt; 0 -->
<g id="node11" class="node">
<title>#8» v2 = v1 &gt; 0</title>
<ellipse fill="none" stroke="#000000" cx="906.6553" cy="-860" rx="68.7879" ry="18"/>
<text text-anchor="middle" x="906.6553" y="-856.3" font-family="Times,serif" font-size="14.00" fill="#000000">#8» v2 = v1 &gt; 0</text>
</g>
<!-- #4» v1 = o.z&#45;&gt;#8» v2 = v1 &gt; 0 -->
<g id="edge11" class="edge">
<title>#4» v1 = o.z&#45;&gt;#8» v2 = v1 &gt; 0</title>
<path fill="none" stroke="#ff0000" d="M820.2859,-930.2255C836.5061,-917.0372 859.3075,-898.4977 877.4096,-883.7792"/>
<polygon fill="#ff0000" stroke="#ff0000" points="879.8046,-886.3428 885.3555,-877.3185 875.3886,-880.9115 879.8046,-886.3428"/>
</g>
<!-- #53 48.o&#45;o1.z&#45;o2 -->
<g id="node12" class="node">
<title>#53 48.o&#45;o1.z&#45;o2</title>
<ellipse fill="none" stroke="#006400" cx="748.6553" cy="-860" rx="71.4873" ry="18"/>
<text text-anchor="middle" x="748.6553" y="-856.3" font-family="Times,serif" font-size="14.00" fill="#006400">#53 48.o&#45;o1.z&#45;o2</text>
</g>
<!-- #4» v1 = o.z&#45;&gt;#53 48.o&#45;o1.z&#45;o2 -->
<g id="edge12" class="edge">
<title>#4» v1 = o.z&#45;&gt;#53 48.o&#45;o1.z&#45;o2</title>
<path fill="none" stroke="#000000" stroke-dasharray="5,2" d="M789.088,-928.9735C781.9763,-916.8418 772.4721,-900.6287 764.4652,-886.9698"/>
<polygon fill="#000000" stroke="#000000" points="767.2856,-884.8603 759.209,-878.0034 761.2467,-888.4004 767.2856,-884.8603"/>
</g>
<!-- #51 TAINT_SOURCE -->
<g id="node7" class="node">
<title>#51 TAINT_SOURCE</title>
<ellipse fill="none" stroke="#8b6914" cx="351.6553" cy="-1034" rx="91.784" ry="18"/>
<text text-anchor="middle" x="351.6553" y="-1030.3" font-family="Times,serif" font-size="14.00" fill="#8b6914">#51 TAINT_SOURCE</text>
</g>
<!-- #51 TAINT_SOURCE&#45;&gt;#52 48.o&#45;o1 -->
<g id="edge5" class="edge">
<title>#51 TAINT_SOURCE&#45;&gt;#52 48.o&#45;o1</title>
<path fill="none" stroke="#006400" d="M351.6553,-1015.9735C351.6553,-1004.1918 351.6553,-988.5607 351.6553,-975.1581"/>
<polygon fill="#006400" stroke="#006400" points="355.1554,-975.0033 351.6553,-965.0034 348.1554,-975.0034 355.1554,-975.0033"/>
<text text-anchor="middle" x="372.1553" y="-986.8" font-family="Times,serif" font-size="14.00" fill="#006400">TAINT</text>
</g>
<!-- #52 48.o&#45;o1&#45;&gt;#53 48.o&#45;o1.z&#45;o2 -->
<g id="edge13" class="edge">
<title>#52 48.o&#45;o1&#45;&gt;#53 48.o&#45;o1.z&#45;o2</title>
<path fill="none" stroke="#006400" d="M396.8097,-937.1047C467.3612,-921.6438 603.9934,-891.7017 684.6621,-874.0237"/>
<polygon fill="#006400" stroke="#006400" points="685.6771,-877.3844 694.6961,-871.8248 684.1786,-870.5467 685.6771,-877.3844"/>
<text text-anchor="middle" x="590.1553" y="-899.8" font-family="Times,serif" font-size="14.00" fill="#006400">SO(z)</text>
</g>
<!-- #55 48.o&#45;o4 -->
<g id="node13" class="node">
<title>#55 48.o&#45;o4</title>
<ellipse fill="none" stroke="#006400" cx="354.6553" cy="-512" rx="53.8905" ry="18"/>
<text text-anchor="middle" x="354.6553" y="-508.3" font-family="Times,serif" font-size="14.00" fill="#006400">#55 48.o&#45;o4</text>
</g>
<!-- #52 48.o&#45;o1&#45;&gt;#55 48.o&#45;o4 -->
<g id="edge14" class="edge">
<title>#52 48.o&#45;o1&#45;&gt;#55 48.o&#45;o4</title>
<path fill="none" stroke="#006400" d="M351.9882,-928.6701C352.2791,-911.0641 352.6553,-883.7151 352.6553,-860 352.6553,-860 352.6553,-860 352.6553,-599 352.6553,-579.5423 353.1614,-557.6433 353.6645,-540.6839"/>
<polygon fill="#006400" stroke="#006400" points="357.174,-540.4326 353.9893,-530.3277 350.1775,-540.2131 357.174,-540.4326"/>
<text text-anchor="middle" x="370.6553" y="-725.8" font-family="Times,serif" font-size="14.00" fill="#006400">NV(y)</text>
</g>
<!-- #2 Function (anon) &#45; (46)&#45;&gt;#48 CFG_F_START 2_anon -->
<g id="edge17" class="edge">
<title>#2 Function (anon) &#45; (46)&#45;&gt;#48 CFG_F_START 2_anon</title>
<path fill="none" stroke="#000000" d="M728.0213,-1104.2255C697.5957,-1090.2938 654.1293,-1070.3908 621.2346,-1055.3284"/>
<polygon fill="#000000" stroke="#000000" points="622.3743,-1052.0009 611.825,-1051.0198 619.46,-1058.3654 622.3743,-1052.0009"/>
<text text-anchor="middle" x="689.6553" y="-1073.8" font-family="Times,serif" font-size="14.00" fill="#000000">FD</text>
</g>
<!-- #3 Identifier (o) &#45; (46) -->
<g id="node14" class="node">
<title>#3 Identifier (o) &#45; (46)</title>
<ellipse fill="none" stroke="#000000" cx="795.6553" cy="-1034" rx="89.8845" ry="18"/>
<text text-anchor="middle" x="795.6553" y="-1030.3" font-family="Times,serif" font-size="14.00" fill="#000000">#3 Identifier (o) &#45; (46)</text>
</g>
<!-- #2 Function (anon) &#45; (46)&#45;&gt;#3 Identifier (o) &#45; (46) -->
<g id="edge15" class="edge">
<title>#2 Function (anon) &#45; (46)&#45;&gt;#3 Identifier (o) &#45; (46)</title>
<path fill="none" stroke="#0000ff" d="M771.0785,-1102.9735C775.3181,-1091.0751 780.9567,-1075.2508 785.7635,-1061.7606"/>
<polygon fill="#0000ff" stroke="#0000ff" points="789.1807,-1062.598 789.2403,-1052.0034 782.5867,-1060.2484 789.1807,-1062.598"/>
<text text-anchor="middle" x="804.6553" y="-1073.8" font-family="Times,serif" font-size="14.00" fill="#0000ff">param 1</text>
</g>
<!-- #39 BlockStatement (46) -->
<g id="node15" class="node">
<title>#39 BlockStatement (46)</title>
<ellipse fill="none" stroke="#000000" cx="1003.6553" cy="-1034" rx="100.1823" ry="18"/>
<text text-anchor="middle" x="1003.6553" y="-1030.3" font-family="Times,serif" font-size="14.00" fill="#000000">#39 BlockStatement (46)</text>
</g>
<!-- #2 Function (anon) &#45; (46)&#45;&gt;#39 BlockStatement (46) -->
<g id="edge16" class="edge">
<title>#2 Function (anon) &#45; (46)&#45;&gt;#39 BlockStatement (46)</title>
<path fill="none" stroke="#0000ff" d="M809.0492,-1104.8399C848.7499,-1090.3881 907.0496,-1069.1661 949.4832,-1053.7195"/>
<polygon fill="#0000ff" stroke="#0000ff" points="950.8946,-1056.9305 959.0942,-1050.221 948.5002,-1050.3528 950.8946,-1056.9305"/>
<text text-anchor="middle" x="913.1553" y="-1073.8" font-family="Times,serif" font-size="14.00" fill="#0000ff">block</text>
</g>
<!-- #12 IfStatement (48) -->
<g id="node16" class="node">
<title>#12 IfStatement (48)</title>
<ellipse fill="none" stroke="#000000" cx="909.6553" cy="-773" rx="85.2851" ry="18"/>
<text text-anchor="middle" x="909.6553" y="-769.3" font-family="Times,serif" font-size="14.00" fill="#000000">#12 IfStatement (48)</text>
</g>
<!-- #8» v2 = v1 &gt; 0&#45;&gt;#12 IfStatement (48) -->
<g id="edge18" class="edge">
<title>#8» v2 = v1 &gt; 0&#45;&gt;#12 IfStatement (48)</title>
<path fill="none" stroke="#ff0000" d="M907.2769,-841.9735C907.6831,-830.1918 908.2221,-814.5607 908.6843,-801.1581"/>
<polygon fill="#ff0000" stroke="#ff0000" points="912.1877,-801.1181 909.0345,-791.0034 905.1918,-800.8768 912.1877,-801.1181"/>
</g>
<!-- #54 48.v2&#45;o3 -->
<g id="node17" class="node">
<title>#54 48.v2&#45;o3</title>
<ellipse fill="none" stroke="#006400" cx="748.6553" cy="-773" rx="57.6901" ry="18"/>
<text text-anchor="middle" x="748.6553" y="-769.3" font-family="Times,serif" font-size="14.00" fill="#006400">#54 48.v2&#45;o3</text>
</g>
<!-- #8» v2 = v1 &gt; 0&#45;&gt;#54 48.v2&#45;o3 -->
<g id="edge19" class="edge">
<title>#8» v2 = v1 &gt; 0&#45;&gt;#54 48.v2&#45;o3</title>
<path fill="none" stroke="#000000" stroke-dasharray="5,2" d="M876.9367,-843.636C851.2364,-829.4846 813.9506,-808.9537 786.1937,-793.6699"/>
<polygon fill="#000000" stroke="#000000" points="787.6244,-790.4622 777.1764,-788.7047 784.248,-796.5941 787.6244,-790.4622"/>
</g>
<!-- #53 48.o&#45;o1.z&#45;o2&#45;&gt;#54 48.v2&#45;o3 -->
<g id="edge20" class="edge">
<title>#53 48.o&#45;o1.z&#45;o2&#45;&gt;#54 48.v2&#45;o3</title>
<path fill="none" stroke="#006400" d="M748.6553,-841.9735C748.6553,-830.1918 748.6553,-814.5607 748.6553,-801.1581"/>
<polygon fill="#006400" stroke="#006400" points="752.1554,-801.0033 748.6553,-791.0034 745.1554,-801.0034 752.1554,-801.0033"/>
<text text-anchor="middle" x="773.1553" y="-812.8" font-family="Times,serif" font-size="14.00" fill="#006400">DEP(v1)</text>
</g>
<!-- #56 48.o&#45;o4.y&#45;o5 -->
<g id="node18" class="node">
<title>#56 48.o&#45;o4.y&#45;o5</title>
<ellipse fill="none" stroke="#006400" cx="625.6553" cy="-425" rx="72.2875" ry="18"/>
<text text-anchor="middle" x="625.6553" y="-421.3" font-family="Times,serif" font-size="14.00" fill="#006400">#56 48.o&#45;o4.y&#45;o5</text>
</g>
<!-- #55 48.o&#45;o4&#45;&gt;#56 48.o&#45;o4.y&#45;o5 -->
<g id="edge21" class="edge">
<title>#55 48.o&#45;o4&#45;&gt;#56 48.o&#45;o4.y&#45;o5</title>
<path fill="none" stroke="#006400" d="M393.7716,-499.4424C440.4531,-484.456 518.779,-459.3108 571.3207,-442.4432"/>
<polygon fill="#006400" stroke="#006400" points="572.6913,-445.6792 581.1429,-439.29 570.5516,-439.0142 572.6913,-445.6792"/>
<text text-anchor="middle" x="522.6553" y="-464.8" font-family="Times,serif" font-size="14.00" fill="#006400">SO(y)</text>
</g>
<!-- #57 48.o&#45;o4.w&#45;o6 -->
<g id="node19" class="node">
<title>#57 48.o&#45;o4.w&#45;o6</title>
<ellipse fill="none" stroke="#006400" cx="441.6553" cy="-338" rx="74.187" ry="18"/>
<text text-anchor="middle" x="441.6553" y="-334.3" font-family="Times,serif" font-size="14.00" fill="#006400">#57 48.o&#45;o4.w&#45;o6</text>
</g>
<!-- #55 48.o&#45;o4&#45;&gt;#57 48.o&#45;o4.w&#45;o6 -->
<g id="edge22" class="edge">
<title>#55 48.o&#45;o4&#45;&gt;#57 48.o&#45;o4.w&#45;o6</title>
<path fill="none" stroke="#006400" d="M352.2882,-493.8199C350.2964,-471.9718 349.6794,-434.7864 363.6553,-407 372.9775,-388.4659 389.6143,-372.6838 405.1353,-360.9104"/>
<polygon fill="#006400" stroke="#006400" points="407.5419,-363.4891 413.5897,-354.7901 403.4371,-357.8189 407.5419,-363.4891"/>
<text text-anchor="middle" x="382.1553" y="-421.3" font-family="Times,serif" font-size="14.00" fill="#006400">SO(w)</text>
</g>
<!-- #39 BlockStatement (46)&#45;&gt;#4» v1 = o.z -->
<g id="edge23" class="edge">
<title>#39 BlockStatement (46)&#45;&gt;#4» v1 = o.z</title>
<path fill="none" stroke="#0000ff" d="M964.322,-1017.2255C929.461,-1002.3583 878.6548,-980.691 842.7134,-965.363"/>
<polygon fill="#0000ff" stroke="#0000ff" points="844.0276,-962.1185 833.4561,-961.4151 841.2816,-968.5575 844.0276,-962.1185"/>
<text text-anchor="middle" x="917.1553" y="-986.8" font-family="Times,serif" font-size="14.00" fill="#0000ff">1</text>
</g>
<!-- #39 BlockStatement (46)&#45;&gt;#8» v2 = v1 &gt; 0 -->
<g id="edge24" class="edge">
<title>#39 BlockStatement (46)&#45;&gt;#8» v2 = v1 &gt; 0</title>
<path fill="none" stroke="#0000ff" d="M993.6399,-1016.0343C976.5327,-985.3472 941.5969,-922.6789 921.5967,-886.8022"/>
<polygon fill="#0000ff" stroke="#0000ff" points="924.5425,-884.8982 916.6161,-877.868 918.4283,-888.3067 924.5425,-884.8982"/>
<text text-anchor="middle" x="968.1553" y="-943.3" font-family="Times,serif" font-size="14.00" fill="#0000ff">2</text>
</g>
<!-- #39 BlockStatement (46)&#45;&gt;#12 IfStatement (48) -->
<g id="edge25" class="edge">
<title>#39 BlockStatement (46)&#45;&gt;#12 IfStatement (48)</title>
<path fill="none" stroke="#0000ff" d="M1005.9572,-1015.9013C1009.6203,-980.426 1013.6693,-900.1456 984.6553,-842 975.6569,-823.9669 959.8179,-808.3209 945.007,-796.5079"/>
<polygon fill="#0000ff" stroke="#0000ff" points="947.0078,-793.632 936.9346,-790.3486 942.7616,-799.1971 947.0078,-793.632"/>
<text text-anchor="middle" x="1007.1553" y="-899.8" font-family="Times,serif" font-size="14.00" fill="#0000ff">3</text>
</g>
<!-- #13 Identifier (v2) &#45; (48) -->
<g id="node20" class="node">
<title>#13 Identifier (v2) &#45; (48)</title>
<ellipse fill="none" stroke="#000000" cx="950.6553" cy="-686" rx="98.5829" ry="18"/>
<text text-anchor="middle" x="950.6553" y="-682.3" font-family="Times,serif" font-size="14.00" fill="#000000">#13 Identifier (v2) &#45; (48)</text>
</g>
<!-- #12 IfStatement (48)&#45;&gt;#13 Identifier (v2) &#45; (48) -->
<g id="edge26" class="edge">
<title>#12 IfStatement (48)&#45;&gt;#13 Identifier (v2) &#45; (48)</title>
<path fill="none" stroke="#0000ff" d="M919.6012,-754.8268C922.6047,-749.1633 925.8481,-742.8645 928.6553,-737 932.2852,-729.4166 935.9944,-721.0831 939.3079,-713.39"/>
<polygon fill="#0000ff" stroke="#0000ff" points="942.5689,-714.665 943.2575,-704.0926 936.1261,-711.928 942.5689,-714.665"/>
<text text-anchor="middle" x="944.1553" y="-725.8" font-family="Times,serif" font-size="14.00" fill="#0000ff">test</text>
</g>
<!-- #12 IfStatement (48)&#45;&gt;#13 Identifier (v2) &#45; (48) -->
<g id="edge28" class="edge">
<title>#12 IfStatement (48)&#45;&gt;#13 Identifier (v2) &#45; (48)</title>
<path fill="none" stroke="#ff0000" d="M903.8582,-754.7052C901.7009,-744.5983 900.8077,-732.086 905.6553,-722 907.6597,-717.8294 910.4087,-713.9908 913.5678,-710.5003"/>
<polygon fill="#ff0000" stroke="#ff0000" points="916.176,-712.8497 921.0087,-703.4212 911.3511,-707.7782 916.176,-712.8497"/>
<text text-anchor="middle" x="915.1553" y="-725.8" font-family="Times,serif" font-size="14.00" fill="#ff0000">test</text>
</g>
<!-- #38 BlockStatement (48) -->
<g id="node21" class="node">
<title>#38 BlockStatement (48)</title>
<ellipse fill="none" stroke="#000000" cx="733.6553" cy="-686" rx="100.1823" ry="18"/>
<text text-anchor="middle" x="733.6553" y="-682.3" font-family="Times,serif" font-size="14.00" fill="#000000">#38 BlockStatement (48)</text>
</g>
<!-- #12 IfStatement (48)&#45;&gt;#38 BlockStatement (48) -->
<g id="edge27" class="edge">
<title>#12 IfStatement (48)&#45;&gt;#38 BlockStatement (48)</title>
<path fill="none" stroke="#0000ff" d="M876.1367,-756.4312C848.0268,-742.5359 807.6893,-722.5964 777.1041,-707.4776"/>
<polygon fill="#0000ff" stroke="#0000ff" points="778.4651,-704.2461 767.9496,-702.9523 775.3632,-710.5213 778.4651,-704.2461"/>
<text text-anchor="middle" x="843.6553" y="-725.8" font-family="Times,serif" font-size="14.00" fill="#0000ff">then</text>
</g>
<!-- #58 48.v5&#45;o7 -->
<g id="node22" class="node">
<title>#58 48.v5&#45;o7</title>
<ellipse fill="none" stroke="#006400" cx="559.6553" cy="-251" rx="57.6901" ry="18"/>
<text text-anchor="middle" x="559.6553" y="-247.3" font-family="Times,serif" font-size="14.00" fill="#006400">#58 48.v5&#45;o7</text>
</g>
<!-- #56 48.o&#45;o4.y&#45;o5&#45;&gt;#58 48.v5&#45;o7 -->
<g id="edge29" class="edge">
<title>#56 48.o&#45;o4.y&#45;o5&#45;&gt;#58 48.v5&#45;o7</title>
<path fill="none" stroke="#006400" d="M602.033,-407.6918C587.0951,-395.2073 569.0714,-376.9169 560.6553,-356 550.7723,-331.4375 551.7811,-300.95 554.5043,-279.1658"/>
<polygon fill="#006400" stroke="#006400" points="557.9731,-279.6327 555.9386,-269.235 551.045,-278.6319 557.9731,-279.6327"/>
<text text-anchor="middle" x="585.1553" y="-334.3" font-family="Times,serif" font-size="14.00" fill="#006400">DEP(v3)</text>
</g>
<!-- #57 48.o&#45;o4.w&#45;o6&#45;&gt;#58 48.v5&#45;o7 -->
<g id="edge30" class="edge">
<title>#57 48.o&#45;o4.w&#45;o6&#45;&gt;#58 48.v5&#45;o7</title>
<path fill="none" stroke="#006400" d="M455.5329,-319.9614C464.2478,-309.4485 476.1728,-296.4446 488.6553,-287 496.9211,-280.7458 506.4377,-275.0663 515.7626,-270.1615"/>
<polygon fill="#006400" stroke="#006400" points="517.6146,-273.1477 524.9703,-265.5224 514.4649,-266.8963 517.6146,-273.1477"/>
<text text-anchor="middle" x="513.1553" y="-290.8" font-family="Times,serif" font-size="14.00" fill="#006400">DEP(v4)</text>
</g>
<!-- #14» o.y = &#39;2&#39;; &#45; (48) -->
<g id="node23" class="node">
<title>#14» o.y = &#39;2&#39;; &#45; (48)</title>
<ellipse fill="none" stroke="#000000" cx="650.6553" cy="-599" rx="84.485" ry="18"/>
<text text-anchor="middle" x="650.6553" y="-595.3" font-family="Times,serif" font-size="14.00" fill="#000000">#14» o.y = &#39;2&#39;; &#45; (48)</text>
</g>
<!-- #13 Identifier (v2) &#45; (48)&#45;&gt;#14» o.y = &#39;2&#39;; &#45; (48) -->
<g id="edge31" class="edge">
<title>#13 Identifier (v2) &#45; (48)&#45;&gt;#14» o.y = &#39;2&#39;; &#45; (48)</title>
<path fill="none" stroke="#ff0000" d="M898.056,-670.7462C845.6924,-655.5608 765.4292,-632.2844 710.6214,-616.3902"/>
<polygon fill="#ff0000" stroke="#ff0000" points="711.2755,-612.9357 700.6963,-613.5119 709.3258,-619.6587 711.2755,-612.9357"/>
<text text-anchor="middle" x="835.6553" y="-638.8" font-family="Times,serif" font-size="14.00" fill="#ff0000">TRUE</text>
</g>
<!-- #50 CFG_IF_END (48) -->
<g id="node24" class="node">
<title>#50 CFG_IF_END (48)</title>
<ellipse fill="none" stroke="#ff0000" cx="950.6553" cy="-91" rx="94.7833" ry="18"/>
<text text-anchor="middle" x="950.6553" y="-87.3" font-family="Times,serif" font-size="14.00" fill="#ff0000">#50 CFG_IF_END (48)</text>
</g>
<!-- #13 Identifier (v2) &#45; (48)&#45;&gt;#50 CFG_IF_END (48) -->
<g id="edge32" class="edge">
<title>#13 Identifier (v2) &#45; (48)&#45;&gt;#50 CFG_IF_END (48)</title>
<path fill="none" stroke="#ff0000" d="M950.6553,-667.6694C950.6553,-650.0629 950.6553,-622.7135 950.6553,-599 950.6553,-599 950.6553,-599 950.6553,-178 950.6553,-158.5475 950.6553,-136.6484 950.6553,-119.6877"/>
<polygon fill="#ff0000" stroke="#ff0000" points="954.1554,-119.3305 950.6553,-109.3306 947.1554,-119.3306 954.1554,-119.3305"/>
<text text-anchor="middle" x="971.6553" y="-377.8" font-family="Times,serif" font-size="14.00" fill="#ff0000">FALSE</text>
</g>
<!-- #38 BlockStatement (48)&#45;&gt;#14» o.y = &#39;2&#39;; &#45; (48) -->
<g id="edge33" class="edge">
<title>#38 BlockStatement (48)&#45;&gt;#14» o.y = &#39;2&#39;; &#45; (48)</title>
<path fill="none" stroke="#0000ff" d="M716.4576,-667.9735C704.3584,-655.2912 688.0039,-638.1486 674.6266,-624.1265"/>
<polygon fill="#0000ff" stroke="#0000ff" points="676.9821,-621.5252 667.5469,-616.7057 671.9173,-626.3571 676.9821,-621.5252"/>
<text text-anchor="middle" x="700.1553" y="-638.8" font-family="Times,serif" font-size="14.00" fill="#0000ff">1</text>
</g>
<!-- #20» v3 = o.y -->
<g id="node25" class="node">
<title>#20» v3 = o.y</title>
<ellipse fill="none" stroke="#000000" cx="561.6553" cy="-512" rx="61.1893" ry="18"/>
<text text-anchor="middle" x="561.6553" y="-508.3" font-family="Times,serif" font-size="14.00" fill="#000000">#20» v3 = o.y</text>
</g>
<!-- #38 BlockStatement (48)&#45;&gt;#20» v3 = o.y -->
<g id="edge34" class="edge">
<title>#38 BlockStatement (48)&#45;&gt;#20» v3 = o.y</title>
<path fill="none" stroke="#0000ff" d="M674.3843,-671.4685C626.6911,-658.4351 565.2864,-638.1533 550.6553,-617 535.0334,-594.4143 541.4653,-562.2996 549.4874,-539.5463"/>
<polygon fill="#0000ff" stroke="#0000ff" points="552.7888,-540.7119 553.087,-530.1213 546.2494,-538.2144 552.7888,-540.7119"/>
<text text-anchor="middle" x="554.1553" y="-595.3" font-family="Times,serif" font-size="14.00" fill="#0000ff">2</text>
</g>
<!-- #24» v4 = o.w -->
<g id="node26" class="node">
<title>#24» v4 = o.w</title>
<ellipse fill="none" stroke="#000000" cx="472.6553" cy="-425" rx="63.0888" ry="18"/>
<text text-anchor="middle" x="472.6553" y="-421.3" font-family="Times,serif" font-size="14.00" fill="#000000">#24» v4 = o.w</text>
</g>
<!-- #38 BlockStatement (48)&#45;&gt;#24» v4 = o.w -->
<g id="edge35" class="edge">
<title>#38 BlockStatement (48)&#45;&gt;#24» v4 = o.w</title>
<path fill="none" stroke="#0000ff" d="M648.8424,-676.4271C622.6876,-671.1108 594.5135,-662.8461 570.6553,-650 552.1137,-640.0166 549.2115,-633.9055 536.6553,-617 510.6984,-582.0522 505.6868,-571.2095 491.6553,-530 483.0737,-504.7967 478.1393,-474.7987 475.4617,-453.3329"/>
<polygon fill="#0000ff" stroke="#0000ff" points="478.9208,-452.7776 474.291,-443.2479 471.9675,-453.5848 478.9208,-452.7776"/>
<text text-anchor="middle" x="507.1553" y="-551.8" font-family="Times,serif" font-size="14.00" fill="#0000ff">3</text>
</g>
<!-- #28» v5 = v3 + v4 -->
<g id="node27" class="node">
<title>#28» v5 = v3 + v4</title>
<ellipse fill="none" stroke="#000000" cx="695.6553" cy="-338" rx="77.1866" ry="18"/>
<text text-anchor="middle" x="695.6553" y="-334.3" font-family="Times,serif" font-size="14.00" fill="#000000">#28» v5 = v3 + v4</text>
</g>
<!-- #38 BlockStatement (48)&#45;&gt;#28» v5 = v3 + v4 -->
<g id="edge36" class="edge">
<title>#38 BlockStatement (48)&#45;&gt;#28» v5 = v3 + v4</title>
<path fill="none" stroke="#0000ff" d="M743.4733,-667.9153C751.8865,-650.7103 762.6553,-623.8371 762.6553,-599 762.6553,-599 762.6553,-599 762.6553,-425 762.6553,-400.0365 745.1255,-377.8485 727.9992,-362.1279"/>
<polygon fill="#0000ff" stroke="#0000ff" points="730.0679,-359.2889 720.2231,-355.3734 725.4774,-364.5735 730.0679,-359.2889"/>
<text text-anchor="middle" x="766.1553" y="-508.3" font-family="Times,serif" font-size="14.00" fill="#0000ff">4</text>
</g>
<!-- #32» v6 = eval(v5) -->
<g id="node28" class="node">
<title>#32» v6 = eval(v5)</title>
<ellipse fill="none" stroke="#000000" cx="722.6553" cy="-251" rx="79.0865" ry="18"/>
<text text-anchor="middle" x="722.6553" y="-247.3" font-family="Times,serif" font-size="14.00" fill="#000000">#32» v6 = eval(v5)</text>
</g>
<!-- #38 BlockStatement (48)&#45;&gt;#32» v6 = eval(v5) -->
<g id="edge37" class="edge">
<title>#38 BlockStatement (48)&#45;&gt;#32» v6 = eval(v5)</title>
<path fill="none" stroke="#0000ff" d="M758.6036,-668.3126C777.6526,-652.5502 800.6553,-627.5961 800.6553,-599 800.6553,-599 800.6553,-599 800.6553,-338 800.6553,-311.4344 780.2439,-289.2815 760.304,-273.9786"/>
<polygon fill="#0000ff" stroke="#0000ff" points="762.2912,-271.0961 752.1437,-268.0498 758.1767,-276.7592 762.2912,-271.0961"/>
<text text-anchor="middle" x="804.1553" y="-464.8" font-family="Times,serif" font-size="14.00" fill="#0000ff">5</text>
</g>
<!-- #36» return v6; -->
<g id="node29" class="node">
<title>#36» return v6;</title>
<ellipse fill="none" stroke="#000000" cx="738.6553" cy="-178" rx="65.7887" ry="18"/>
<text text-anchor="middle" x="738.6553" y="-174.3" font-family="Times,serif" font-size="14.00" fill="#000000">#36» return v6;</text>
</g>
<!-- #38 BlockStatement (48)&#45;&gt;#36» return v6; -->
<g id="edge38" class="edge">
<title>#38 BlockStatement (48)&#45;&gt;#36» return v6;</title>
<path fill="none" stroke="#0000ff" d="M797.9785,-672.165C822.9683,-665.8061 847.9196,-657.9249 857.6553,-650 877.5457,-633.809 884.6553,-624.6472 884.6553,-599 884.6553,-599 884.6553,-599 884.6553,-251 884.6553,-214.1897 847.0679,-195.9403 810.0363,-186.8932"/>
<polygon fill="#0000ff" stroke="#0000ff" points="810.6721,-183.449 800.1493,-184.6815 809.144,-190.2801 810.6721,-183.449"/>
<text text-anchor="middle" x="888.1553" y="-421.3" font-family="Times,serif" font-size="14.00" fill="#0000ff">6</text>
</g>
<!-- #59 48.v6&#45;o8 -->
<g id="node30" class="node">
<title>#59 48.v6&#45;o8</title>
<ellipse fill="none" stroke="#006400" cx="563.6553" cy="-91" rx="57.6901" ry="18"/>
<text text-anchor="middle" x="563.6553" y="-87.3" font-family="Times,serif" font-size="14.00" fill="#006400">#59 48.v6&#45;o8</text>
</g>
<!-- #58 48.v5&#45;o7&#45;&gt;#59 48.v6&#45;o8 -->
<g id="edge39" class="edge">
<title>#58 48.v5&#45;o7&#45;&gt;#59 48.v6&#45;o8</title>
<path fill="none" stroke="#006400" d="M560.1063,-232.957C560.7965,-205.3487 562.1209,-152.3746 562.9421,-119.5255"/>
<polygon fill="#006400" stroke="#006400" points="566.4486,-119.3069 563.1997,-109.2226 559.4508,-119.1319 566.4486,-119.3069"/>
<text text-anchor="middle" x="586.1553" y="-174.3" font-family="Times,serif" font-size="14.00" fill="#006400">DEP(v5)</text>
</g>
<!-- #14» o.y = &#39;2&#39;; &#45; (48)&#45;&gt;#56 48.o&#45;o4.y&#45;o5 -->
<g id="edge41" class="edge">
<title>#14» o.y = &#39;2&#39;; &#45; (48)&#45;&gt;#56 48.o&#45;o4.y&#45;o5</title>
<path fill="none" stroke="#000000" stroke-dasharray="5,2" d="M648.0271,-580.7078C643.6644,-550.3436 634.897,-489.3226 629.728,-453.3464"/>
<polygon fill="#000000" stroke="#000000" points="633.1349,-452.4477 628.2482,-443.0471 626.2061,-453.4432 633.1349,-452.4477"/>
</g>
<!-- #14» o.y = &#39;2&#39;; &#45; (48)&#45;&gt;#20» v3 = o.y -->
<g id="edge40" class="edge">
<title>#14» o.y = &#39;2&#39;; &#45; (48)&#45;&gt;#20» v3 = o.y</title>
<path fill="none" stroke="#ff0000" d="M632.6448,-581.3943C619.4092,-568.4561 601.2581,-550.7129 586.6232,-536.4068"/>
<polygon fill="#ff0000" stroke="#ff0000" points="588.9328,-533.7701 579.3352,-529.2827 584.0396,-538.7758 588.9328,-533.7701"/>
</g>
<!-- #49 CFG_F_END 2_anon -->
<g id="node31" class="node">
<title>#49 CFG_F_END 2_anon</title>
<ellipse fill="none" stroke="#ff0000" cx="950.6553" cy="-18" rx="103.1819" ry="18"/>
<text text-anchor="middle" x="950.6553" y="-14.3" font-family="Times,serif" font-size="14.00" fill="#ff0000">#49 CFG_F_END 2_anon</text>
</g>
<!-- #50 CFG_IF_END (48)&#45;&gt;#49 CFG_F_END 2_anon -->
<g id="edge42" class="edge">
<title>#50 CFG_IF_END (48)&#45;&gt;#49 CFG_F_END 2_anon</title>
<path fill="none" stroke="#ff0000" d="M950.6553,-72.9551C950.6553,-64.8828 950.6553,-55.1764 950.6553,-46.1817"/>
<polygon fill="#ff0000" stroke="#ff0000" points="954.1554,-46.0903 950.6553,-36.0904 947.1554,-46.0904 954.1554,-46.0903"/>
</g>
<!-- #20» v3 = o.y&#45;&gt;#56 48.o&#45;o4.y&#45;o5 -->
<g id="edge44" class="edge">
<title>#20» v3 = o.y&#45;&gt;#56 48.o&#45;o4.y&#45;o5</title>
<path fill="none" stroke="#000000" stroke-dasharray="5,2" d="M574.6066,-494.3943C583.7414,-481.9767 596.1322,-465.1329 606.4186,-451.1498"/>
<polygon fill="#000000" stroke="#000000" points="609.3971,-453.0074 612.5035,-442.8782 603.7585,-448.8594 609.3971,-453.0074"/>
</g>
<!-- #20» v3 = o.y&#45;&gt;#24» v4 = o.w -->
<g id="edge43" class="edge">
<title>#20» v3 = o.y&#45;&gt;#24» v4 = o.w</title>
<path fill="none" stroke="#ff0000" d="M543.6448,-494.3943C530.4092,-481.4561 512.2581,-463.7129 497.6232,-449.4068"/>
<polygon fill="#ff0000" stroke="#ff0000" points="499.9328,-446.7701 490.3352,-442.2827 495.0396,-451.7758 499.9328,-446.7701"/>
</g>
<!-- #24» v4 = o.w&#45;&gt;#57 48.o&#45;o4.w&#45;o6 -->
<g id="edge46" class="edge">
<title>#24» v4 = o.w&#45;&gt;#57 48.o&#45;o4.w&#45;o6</title>
<path fill="none" stroke="#000000" stroke-dasharray="5,2" d="M466.232,-406.9735C461.9924,-395.0751 456.3538,-379.2508 451.547,-365.7606"/>
<polygon fill="#000000" stroke="#000000" points="454.7238,-364.2484 448.0703,-356.0034 448.1299,-366.598 454.7238,-364.2484"/>
</g>
<!-- #24» v4 = o.w&#45;&gt;#28» v5 = v3 + v4 -->
<g id="edge45" class="edge">
<title>#24» v4 = o.w&#45;&gt;#28» v5 = v3 + v4</title>
<path fill="none" stroke="#ff0000" d="M509.9804,-410.4382C547.4011,-395.8391 605.2212,-373.2814 646.3891,-357.2204"/>
<polygon fill="#ff0000" stroke="#ff0000" points="647.906,-360.3856 655.95,-353.4904 645.3618,-353.8643 647.906,-360.3856"/>
</g>
<!-- #28» v5 = v3 + v4&#45;&gt;#58 48.v5&#45;o7 -->
<g id="edge48" class="edge">
<title>#28» v5 = v3 + v4&#45;&gt;#58 48.v5&#45;o7</title>
<path fill="none" stroke="#000000" stroke-dasharray="5,2" d="M669.1102,-321.019C647.5871,-307.2505 617.1041,-287.7504 593.7711,-272.8241"/>
<polygon fill="#000000" stroke="#000000" points="595.5221,-269.7893 585.2121,-267.3489 591.7499,-275.686 595.5221,-269.7893"/>
</g>
<!-- #28» v5 = v3 + v4&#45;&gt;#32» v6 = eval(v5) -->
<g id="edge47" class="edge">
<title>#28» v5 = v3 + v4&#45;&gt;#32» v6 = eval(v5)</title>
<path fill="none" stroke="#ff0000" d="M701.2497,-319.9735C704.9423,-308.0751 709.8533,-292.2508 714.0399,-278.7606"/>
<polygon fill="#ff0000" stroke="#ff0000" points="717.4467,-279.5914 717.068,-269.0034 710.7612,-277.5166 717.4467,-279.5914"/>
</g>
<!-- #32» v6 = eval(v5)&#45;&gt;#36» return v6; -->
<g id="edge49" class="edge">
<title>#32» v6 = eval(v5)&#45;&gt;#36» return v6;</title>
<path fill="none" stroke="#ff0000" d="M726.6103,-232.9551C728.3988,-224.7951 730.5533,-214.9652 732.5427,-205.8887"/>
<polygon fill="#ff0000" stroke="#ff0000" points="735.9681,-206.6079 734.6902,-196.0904 729.1304,-205.1091 735.9681,-206.6079"/>
</g>
<!-- #32» v6 = eval(v5)&#45;&gt;#59 48.v6&#45;o8 -->
<g id="edge50" class="edge">
<title>#32» v6 = eval(v5)&#45;&gt;#59 48.v6&#45;o8</title>
<path fill="none" stroke="#000000" stroke-dasharray="5,2" d="M703.2515,-233.4494C691.6087,-222.7865 676.5964,-208.8035 663.6553,-196 636.5607,-169.1934 606.5362,-137.3674 586.5249,-115.8358"/>
<polygon fill="#000000" stroke="#000000" points="588.9945,-113.3515 579.6293,-108.3973 583.8609,-118.1104 588.9945,-113.3515"/>
</g>
<!-- #36» return v6;&#45;&gt;#50 CFG_IF_END (48) -->
<g id="edge52" class="edge">
<title>#36» return v6;&#45;&gt;#50 CFG_IF_END (48)</title>
<path fill="none" stroke="#ff0000" d="M775.5828,-162.8458C810.3605,-148.5738 862.708,-127.0915 901.1041,-111.3347"/>
<polygon fill="#ff0000" stroke="#ff0000" points="902.6235,-114.4945 910.546,-107.4599 899.9659,-108.0185 902.6235,-114.4945"/>
</g>
<!-- #36» return v6;&#45;&gt;#59 48.v6&#45;o8 -->
<g id="edge53" class="edge">
<title>#36» return v6;&#45;&gt;#59 48.v6&#45;o8</title>
<path fill="none" stroke="#000000" stroke-dasharray="5,2" d="M713.5552,-161.2232C697.1835,-150.67 675.1283,-137.1735 654.6553,-127 641.0569,-120.2427 625.8619,-113.8157 611.8425,-108.3121"/>
<polygon fill="#000000" stroke="#000000" points="612.9484,-104.9874 602.3587,-104.6566 610.4308,-111.519 612.9484,-104.9874"/>
</g>
<!-- #37 Identifier (v6) &#45; (48) -->
<g id="node32" class="node">
<title>#37 Identifier (v6) &#45; (48)</title>
<ellipse fill="none" stroke="#000000" cx="738.6553" cy="-91" rx="98.5829" ry="18"/>
<text text-anchor="middle" x="738.6553" y="-87.3" font-family="Times,serif" font-size="14.00" fill="#000000">#37 Identifier (v6) &#45; (48)</text>
</g>
<!-- #36» return v6;&#45;&gt;#37 Identifier (v6) &#45; (48) -->
<g id="edge51" class="edge">
<title>#36» return v6;&#45;&gt;#37 Identifier (v6) &#45; (48)</title>
<path fill="none" stroke="#0000ff" d="M738.6553,-159.9735C738.6553,-148.1918 738.6553,-132.5607 738.6553,-119.1581"/>
<polygon fill="#0000ff" stroke="#0000ff" points="742.1554,-119.0033 738.6553,-109.0034 735.1554,-119.0034 742.1554,-119.0033"/>
<text text-anchor="middle" x="764.6553" y="-130.8" font-family="Times,serif" font-size="14.00" fill="#0000ff">argument</text>
</g>
</g>
</svg>
