<?xml version="1.0" encoding="UTF-8" standalone="no"?>
<!DOCTYPE svg PUBLIC "-//W3C//DTD SVG 1.1//EN"
 "http://www.w3.org/Graphics/SVG/1.1/DTD/svg11.dtd">
<!-- Generated by graphviz version 2.40.1 (20161225.0304)
 -->
<!-- Title: G Pages: 1 -->
<svg width="245pt" height="188pt"
 viewBox="0.00 0.00 244.58 188.00" xmlns="http://www.w3.org/2000/svg" xmlns:xlink="http://www.w3.org/1999/xlink">
<g id="graph0" class="graph" transform="scale(1 1) rotate(0) translate(4 184)">
<title>G</title>
<polygon fill="#ffffff" stroke="transparent" points="-4,4 -4,-184 240.579,-184 240.579,4 -4,4"/>
<!-- #5 CFG_F_START __main__ -->
<g id="node1" class="node">
<title>#5 CFG_F_START __main__</title>
<ellipse fill="none" stroke="#ff0000" cx="118.2895" cy="-162" rx="118.0794" ry="18"/>
<text text-anchor="middle" x="118.2895" y="-158.3" font-family="Times,serif" font-size="14.00" fill="#ff0000">#5 CFG_F_START __main__</text>
</g>
<!-- #1» v = o; -->
<g id="node2" class="node">
<title>#1» v = o;</title>
<ellipse fill="none" stroke="#000000" cx="118.2895" cy="-90" rx="48.1917" ry="18"/>
<text text-anchor="middle" x="118.2895" y="-86.3" font-family="Times,serif" font-size="14.00" fill="#000000">#1» v = o;</text>
</g>
<!-- #5 CFG_F_START __main__&#45;&gt;#1» v = o; -->
<g id="edge1" class="edge">
<title>#5 CFG_F_START __main__&#45;&gt;#1» v = o;</title>
<path fill="none" stroke="#ff0000" d="M118.2895,-143.8314C118.2895,-136.131 118.2895,-126.9743 118.2895,-118.4166"/>
<polygon fill="#ff0000" stroke="#ff0000" points="121.7896,-118.4132 118.2895,-108.4133 114.7896,-118.4133 121.7896,-118.4132"/>
</g>
<!-- #6 CFG_F_END __main__ -->
<g id="node3" class="node">
<title>#6 CFG_F_END __main__</title>
<ellipse fill="none" stroke="#ff0000" cx="118.2895" cy="-18" rx="108.5808" ry="18"/>
<text text-anchor="middle" x="118.2895" y="-14.3" font-family="Times,serif" font-size="14.00" fill="#ff0000">#6 CFG_F_END __main__</text>
</g>
<!-- #1» v = o;&#45;&gt;#6 CFG_F_END __main__ -->
<g id="edge2" class="edge">
<title>#1» v = o;&#45;&gt;#6 CFG_F_END __main__</title>
<path fill="none" stroke="#ff0000" d="M118.2895,-71.8314C118.2895,-64.131 118.2895,-54.9743 118.2895,-46.4166"/>
<polygon fill="#ff0000" stroke="#ff0000" points="121.7896,-46.4132 118.2895,-36.4133 114.7896,-46.4133 121.7896,-46.4132"/>
</g>
</g>
</svg>
