<?xml version="1.0" encoding="UTF-8" standalone="no"?>
<!DOCTYPE svg PUBLIC "-//W3C//DTD SVG 1.1//EN"
 "http://www.w3.org/Graphics/SVG/1.1/DTD/svg11.dtd">
<!-- Generated by graphviz version 2.40.1 (20161225.0304)
 -->
<!-- Title: G Pages: 1 -->
<svg width="731pt" height="566pt"
 viewBox="0.00 0.00 731.14 566.00" xmlns="http://www.w3.org/2000/svg" xmlns:xlink="http://www.w3.org/1999/xlink">
<g id="graph0" class="graph" transform="scale(1 1) rotate(0) translate(4 562)">
<title>G</title>
<polygon fill="#ffffff" stroke="transparent" points="-4,4 -4,-562 727.1355,-562 727.1355,4 -4,4"/>
<!-- #0 Program -->
<g id="node1" class="node">
<title>#0 Program</title>
<ellipse fill="none" stroke="#000000" cx="318.4937" cy="-540" rx="52.7911" ry="18"/>
<text text-anchor="middle" x="318.4937" y="-536.3" font-family="Times,serif" font-size="14.00" fill="#000000">#0 Program</text>
</g>
<!-- #1 Variable (p) -->
<g id="node2" class="node">
<title>#1 Variable (p)</title>
<ellipse fill="none" stroke="#000000" cx="476.4937" cy="-453" rx="64.9885" ry="18"/>
<text text-anchor="middle" x="476.4937" y="-449.3" font-family="Times,serif" font-size="14.00" fill="#000000">#1 Variable (p)</text>
</g>
<!-- #0 Program&#45;&gt;#1 Variable (p) -->
<g id="edge1" class="edge">
<title>#0 Program&#45;&gt;#1 Variable (p)</title>
<path fill="none" stroke="#0000ff" d="M346.3772,-524.6464C371.9579,-510.5608 410.0697,-489.5752 438.4423,-473.9523"/>
<polygon fill="#0000ff" stroke="#0000ff" points="440.2122,-476.9733 447.2838,-469.0839 436.8357,-470.8415 440.2122,-476.9733"/>
<text text-anchor="middle" x="410.9937" y="-492.8" font-family="Times,serif" font-size="14.00" fill="#0000ff">1</text>
</g>
<!-- #3 Variable (x) -->
<g id="node3" class="node">
<title>#3 Variable (x)</title>
<ellipse fill="none" stroke="#000000" cx="411.4937" cy="-279" rx="64.9885" ry="18"/>
<text text-anchor="middle" x="411.4937" y="-275.3" font-family="Times,serif" font-size="14.00" fill="#000000">#3 Variable (x)</text>
</g>
<!-- #0 Program&#45;&gt;#3 Variable (x) -->
<g id="edge2" class="edge">
<title>#0 Program&#45;&gt;#3 Variable (x)</title>
<path fill="none" stroke="#0000ff" d="M325.59,-522.0994C327.8384,-516.3363 330.3068,-509.9121 332.4937,-504 358.6322,-433.333 387.5328,-349.4275 402.0578,-306.8215"/>
<polygon fill="#0000ff" stroke="#0000ff" points="405.439,-307.7499 405.3479,-297.1554 398.8123,-305.4943 405.439,-307.7499"/>
<text text-anchor="middle" x="372.9937" y="-405.8" font-family="Times,serif" font-size="14.00" fill="#0000ff">2</text>
</g>
<!-- #5 ExpressionStatement -->
<g id="node4" class="node">
<title>#5 ExpressionStatement</title>
<ellipse fill="none" stroke="#000000" cx="353.4937" cy="-192" rx="96.6831" ry="18"/>
<text text-anchor="middle" x="353.4937" y="-188.3" font-family="Times,serif" font-size="14.00" fill="#000000">#5 ExpressionStatement</text>
</g>
<!-- #0 Program&#45;&gt;#5 ExpressionStatement -->
<g id="edge3" class="edge">
<title>#0 Program&#45;&gt;#5 ExpressionStatement</title>
<path fill="none" stroke="#0000ff" d="M318.4937,-521.6694C318.4937,-504.0629 318.4937,-476.7135 318.4937,-453 318.4937,-453 318.4937,-453 318.4937,-279 318.4937,-257.9052 327.4597,-235.877 336.3157,-219.2642"/>
<polygon fill="#0000ff" stroke="#0000ff" points="339.5879,-220.5868 341.4486,-210.1566 333.4897,-217.1499 339.5879,-220.5868"/>
<text text-anchor="middle" x="321.9937" y="-362.3" font-family="Times,serif" font-size="14.00" fill="#0000ff">3</text>
</g>
<!-- #9 Variable (w) -->
<g id="node5" class="node">
<title>#9 Variable (w)</title>
<ellipse fill="none" stroke="#000000" cx="274.4937" cy="-105" rx="66.8882" ry="18"/>
<text text-anchor="middle" x="274.4937" y="-101.3" font-family="Times,serif" font-size="14.00" fill="#000000">#9 Variable (w)</text>
</g>
<!-- #0 Program&#45;&gt;#9 Variable (w) -->
<g id="edge4" class="edge">
<title>#0 Program&#45;&gt;#9 Variable (w)</title>
<path fill="none" stroke="#0000ff" d="M287.016,-525.5106C261.0626,-511.1525 228.4937,-486.4672 228.4937,-453 228.4937,-453 228.4937,-453 228.4937,-192 228.4937,-169.4485 240.7222,-147.024 252.5693,-130.5905"/>
<polygon fill="#0000ff" stroke="#0000ff" points="255.3978,-132.6532 258.6631,-122.5741 249.8251,-128.4171 255.3978,-132.6532"/>
<text text-anchor="middle" x="231.9937" y="-318.8" font-family="Times,serif" font-size="14.00" fill="#0000ff">4</text>
</g>
<!-- #1 Variable (p)&#45;&gt;#3 Variable (x) -->
<g id="edge7" class="edge">
<title>#1 Variable (p)&#45;&gt;#3 Variable (x)</title>
<path fill="none" stroke="#ff0000" d="M458.1963,-435.4987C445.8776,-422.5286 430.4761,-403.7435 422.4937,-384 412.5611,-359.433 410.3389,-329.126 410.2862,-307.3974"/>
<polygon fill="#ff0000" stroke="#ff0000" points="413.7886,-307.2325 410.4186,-297.188 406.7891,-307.1417 413.7886,-307.2325"/>
</g>
<!-- #2 Literal -->
<g id="node7" class="node">
<title>#2 Literal</title>
<ellipse fill="none" stroke="#000000" cx="476.4937" cy="-366" rx="45.4919" ry="18"/>
<text text-anchor="middle" x="476.4937" y="-362.3" font-family="Times,serif" font-size="14.00" fill="#000000">#2 Literal</text>
</g>
<!-- #1 Variable (p)&#45;&gt;#2 Literal -->
<g id="edge6" class="edge">
<title>#1 Variable (p)&#45;&gt;#2 Literal</title>
<path fill="none" stroke="#0000ff" d="M476.4937,-434.9735C476.4937,-423.1918 476.4937,-407.5607 476.4937,-394.1581"/>
<polygon fill="#0000ff" stroke="#0000ff" points="479.9938,-394.0033 476.4937,-384.0034 472.9938,-394.0034 479.9938,-394.0033"/>
<text text-anchor="middle" x="485.9937" y="-405.8" font-family="Times,serif" font-size="14.00" fill="#0000ff">init</text>
</g>
<!-- #13 PDG_OBJECT o1 -->
<g id="node8" class="node">
<title>#13 PDG_OBJECT o1</title>
<ellipse fill="none" stroke="#006400" cx="631.4937" cy="-366" rx="91.784" ry="18"/>
<text text-anchor="middle" x="631.4937" y="-362.3" font-family="Times,serif" font-size="14.00" fill="#006400">#13 PDG_OBJECT o1</text>
</g>
<!-- #1 Variable (p)&#45;&gt;#13 PDG_OBJECT o1 -->
<g id="edge8" class="edge">
<title>#1 Variable (p)&#45;&gt;#13 PDG_OBJECT o1</title>
<path fill="none" stroke="#006400" d="M505.2847,-436.8399C529.747,-423.1094 565.0974,-403.2676 592.1666,-388.0739"/>
<polygon fill="#006400" stroke="#006400" points="593.9943,-391.0617 601.0014,-383.115 590.568,-384.9575 593.9943,-391.0617"/>
<text text-anchor="middle" x="594.4937" y="-405.8" font-family="Times,serif" font-size="14.00" fill="#006400">CREATE p</text>
</g>
<!-- #3 Variable (x)&#45;&gt;#5 ExpressionStatement -->
<g id="edge10" class="edge">
<title>#3 Variable (x)&#45;&gt;#5 ExpressionStatement</title>
<path fill="none" stroke="#ff0000" d="M399.476,-260.9735C391.3104,-248.7252 380.3713,-232.3165 371.2114,-218.5766"/>
<polygon fill="#ff0000" stroke="#ff0000" points="373.9551,-216.3824 365.4959,-210.0034 368.1308,-220.2653 373.9551,-216.3824"/>
</g>
<!-- #4 Identifier (p) -->
<g id="node9" class="node">
<title>#4 Identifier (p)</title>
<ellipse fill="none" stroke="#000000" cx="535.4937" cy="-192" rx="67.6881" ry="18"/>
<text text-anchor="middle" x="535.4937" y="-188.3" font-family="Times,serif" font-size="14.00" fill="#000000">#4 Identifier (p)</text>
</g>
<!-- #3 Variable (x)&#45;&gt;#4 Identifier (p) -->
<g id="edge9" class="edge">
<title>#3 Variable (x)&#45;&gt;#4 Identifier (p)</title>
<path fill="none" stroke="#0000ff" d="M435.4021,-262.2255C454.5771,-248.7721 481.6884,-229.7505 502.8594,-214.8966"/>
<polygon fill="#0000ff" stroke="#0000ff" points="505.0596,-217.6285 511.2355,-209.0198 501.0391,-211.8982 505.0596,-217.6285"/>
<text text-anchor="middle" x="490.9937" y="-231.8" font-family="Times,serif" font-size="14.00" fill="#0000ff">init</text>
</g>
<!-- #5 ExpressionStatement&#45;&gt;#9 Variable (w) -->
<g id="edge12" class="edge">
<title>#5 ExpressionStatement&#45;&gt;#9 Variable (w)</title>
<path fill="none" stroke="#ff0000" d="M337.1248,-173.9735C325.6087,-161.2912 310.0424,-144.1486 297.3097,-130.1265"/>
<polygon fill="#ff0000" stroke="#ff0000" points="299.8849,-127.7561 290.5712,-122.7057 294.7026,-132.4619 299.8849,-127.7561"/>
</g>
<!-- #6 AssignmentExpression -->
<g id="node10" class="node">
<title>#6 AssignmentExpression</title>
<ellipse fill="none" stroke="#000000" cx="473.4937" cy="-105" rx="103.1819" ry="18"/>
<text text-anchor="middle" x="473.4937" y="-101.3" font-family="Times,serif" font-size="14.00" fill="#000000">#6 AssignmentExpression</text>
</g>
<!-- #5 ExpressionStatement&#45;&gt;#6 AssignmentExpression -->
<g id="edge11" class="edge">
<title>#5 ExpressionStatement&#45;&gt;#6 AssignmentExpression</title>
<path fill="none" stroke="#0000ff" d="M377.7774,-174.3943C395.9945,-161.1869 421.1179,-142.9724 441.0545,-128.5184"/>
<polygon fill="#0000ff" stroke="#0000ff" points="443.2043,-131.2829 449.246,-122.5796 439.0955,-125.6156 443.2043,-131.2829"/>
<text text-anchor="middle" x="450.4937" y="-144.8" font-family="Times,serif" font-size="14.00" fill="#0000ff">expression</text>
</g>
<!-- #10 Identifier (p) -->
<g id="node11" class="node">
<title>#10 Identifier (p)</title>
<ellipse fill="none" stroke="#000000" cx="71.4937" cy="-18" rx="71.4873" ry="18"/>
<text text-anchor="middle" x="71.4937" y="-14.3" font-family="Times,serif" font-size="14.00" fill="#000000">#10 Identifier (p)</text>
</g>
<!-- #9 Variable (w)&#45;&gt;#10 Identifier (p) -->
<g id="edge13" class="edge">
<title>#9 Variable (w)&#45;&gt;#10 Identifier (p)</title>
<path fill="none" stroke="#0000ff" d="M238.6686,-89.6464C204.9197,-75.1826 154.1944,-53.4432 117.4733,-37.7056"/>
<polygon fill="#0000ff" stroke="#0000ff" points="118.5567,-34.362 107.9865,-33.6398 115.7992,-40.7961 118.5567,-34.362"/>
<text text-anchor="middle" x="194.9937" y="-57.8" font-family="Times,serif" font-size="14.00" fill="#0000ff">init</text>
</g>
<!-- #12 CFG_F_END __main__ -->
<g id="node12" class="node">
<title>#12 CFG_F_END __main__</title>
<ellipse fill="none" stroke="#ff0000" cx="274.4937" cy="-18" rx="113.18" ry="18"/>
<text text-anchor="middle" x="274.4937" y="-14.3" font-family="Times,serif" font-size="14.00" fill="#ff0000">#12 CFG_F_END __main__</text>
</g>
<!-- #9 Variable (w)&#45;&gt;#12 CFG_F_END __main__ -->
<g id="edge14" class="edge">
<title>#9 Variable (w)&#45;&gt;#12 CFG_F_END __main__</title>
<path fill="none" stroke="#ff0000" d="M274.4937,-86.9735C274.4937,-75.1918 274.4937,-59.5607 274.4937,-46.1581"/>
<polygon fill="#ff0000" stroke="#ff0000" points="277.9938,-46.0033 274.4937,-36.0034 270.9938,-46.0034 277.9938,-46.0033"/>
</g>
<!-- #11 CFG_F_START __main__ -->
<g id="node6" class="node">
<title>#11 CFG_F_START __main__</title>
<ellipse fill="none" stroke="#ff0000" cx="511.4937" cy="-540" rx="122.6784" ry="18"/>
<text text-anchor="middle" x="511.4937" y="-536.3" font-family="Times,serif" font-size="14.00" fill="#ff0000">#11 CFG_F_START __main__</text>
</g>
<!-- #11 CFG_F_START __main__&#45;&gt;#1 Variable (p) -->
<g id="edge5" class="edge">
<title>#11 CFG_F_START __main__&#45;&gt;#1 Variable (p)</title>
<path fill="none" stroke="#ff0000" d="M504.2416,-521.9735C499.408,-509.9585 492.9638,-493.9401 487.5024,-480.3646"/>
<polygon fill="#ff0000" stroke="#ff0000" points="490.7158,-478.9744 483.7364,-471.0034 484.2216,-481.5871 490.7158,-478.9744"/>
</g>
<!-- #13 PDG_OBJECT o1&#45;&gt;#3 Variable (x) -->
<g id="edge15" class="edge">
<title>#13 PDG_OBJECT o1&#45;&gt;#3 Variable (x)</title>
<path fill="none" stroke="#006400" d="M590.6289,-349.8399C553.1696,-335.0264 497.7221,-313.0994 458.454,-297.5707"/>
<polygon fill="#006400" stroke="#006400" points="459.4263,-294.1915 448.8399,-293.7688 456.8521,-300.701 459.4263,-294.1915"/>
<text text-anchor="middle" x="554.4937" y="-318.8" font-family="Times,serif" font-size="14.00" fill="#006400">VAR p</text>
</g>
<!-- #13 PDG_OBJECT o1&#45;&gt;#9 Variable (w) -->
<g id="edge16" class="edge">
<title>#13 PDG_OBJECT o1&#45;&gt;#9 Variable (w)</title>
<path fill="none" stroke="#006400" d="M635.8405,-347.7986C643.6198,-310.3347 655.3721,-223.937 612.4937,-174 538.3357,-87.6344 473.5851,-142.8478 361.4937,-123 353.5034,-121.5852 345.1231,-119.9917 336.8504,-118.3527"/>
<polygon fill="#006400" stroke="#006400" points="337.3402,-114.8812 326.8463,-116.3399 335.9594,-121.7437 337.3402,-114.8812"/>
<text text-anchor="middle" x="660.4937" y="-231.8" font-family="Times,serif" font-size="14.00" fill="#006400">VAR p</text>
</g>
<!-- #7 Identifier (p) -->
<g id="node13" class="node">
<title>#7 Identifier (p)</title>
<ellipse fill="none" stroke="#000000" cx="473.4937" cy="-18" rx="67.6881" ry="18"/>
<text text-anchor="middle" x="473.4937" y="-14.3" font-family="Times,serif" font-size="14.00" fill="#000000">#7 Identifier (p)</text>
</g>
<!-- #6 AssignmentExpression&#45;&gt;#7 Identifier (p) -->
<g id="edge17" class="edge">
<title>#6 AssignmentExpression&#45;&gt;#7 Identifier (p)</title>
<path fill="none" stroke="#0000ff" d="M473.4937,-86.9735C473.4937,-75.1918 473.4937,-59.5607 473.4937,-46.1581"/>
<polygon fill="#0000ff" stroke="#0000ff" points="476.9938,-46.0033 473.4937,-36.0034 469.9938,-46.0034 476.9938,-46.0033"/>
<text text-anchor="middle" x="482.9937" y="-57.8" font-family="Times,serif" font-size="14.00" fill="#0000ff">left</text>
</g>
<!-- #8 Literal -->
<g id="node14" class="node">
<title>#8 Literal</title>
<ellipse fill="none" stroke="#000000" cx="604.4937" cy="-18" rx="45.4919" ry="18"/>
<text text-anchor="middle" x="604.4937" y="-14.3" font-family="Times,serif" font-size="14.00" fill="#000000">#8 Literal</text>
</g>
<!-- #6 AssignmentExpression&#45;&gt;#8 Literal -->
<g id="edge18" class="edge">
<title>#6 AssignmentExpression&#45;&gt;#8 Literal</title>
<path fill="none" stroke="#0000ff" d="M500.0035,-87.3943C520.992,-73.4553 550.3783,-53.9392 572.6433,-39.1525"/>
<polygon fill="#0000ff" stroke="#0000ff" points="574.7031,-41.9861 581.0971,-33.5382 570.8305,-36.1549 574.7031,-41.9861"/>
<text text-anchor="middle" x="559.4937" y="-57.8" font-family="Times,serif" font-size="14.00" fill="#0000ff">right</text>
</g>
</g>
</svg>
