<?xml version="1.0" encoding="UTF-8" standalone="no"?>
<!DOCTYPE svg PUBLIC "-//W3C//DTD SVG 1.1//EN"
 "http://www.w3.org/Graphics/SVG/1.1/DTD/svg11.dtd">
<!-- Generated by graphviz version 2.40.1 (20161225.0304)
 -->
<!-- Title: G Pages: 1 -->
<svg width="1059pt" height="1116pt"
 viewBox="0.00 0.00 1059.23 1116.17" xmlns="http://www.w3.org/2000/svg" xmlns:xlink="http://www.w3.org/1999/xlink">
<g id="graph0" class="graph" transform="scale(1 1) rotate(0) translate(4 1112.1665)">
<title>G</title>
<polygon fill="#ffffff" stroke="transparent" points="-4,4 -4,-1112.1665 1055.2278,-1112.1665 1055.2278,4 -4,4"/>
<!-- #49 CFG_F_START __main__ -->
<g id="node1" class="node">
<title>#49 CFG_F_START __main__</title>
<ellipse fill="none" stroke="#ff0000" cx="167.0352" cy="-1090.1665" rx="122.6784" ry="18"/>
<text text-anchor="middle" x="167.0352" y="-1086.4665" font-family="Times,serif" font-size="14.00" fill="#ff0000">#49 CFG_F_START __main__</text>
</g>
<!-- #1» child_process = require(&#39;child_process&#39;) -->
<g id="node2" class="node">
<title>#1» child_process = require(&#39;child_process&#39;)</title>
<ellipse fill="none" stroke="#000000" cx="167.0352" cy="-1017.1665" rx="167.0704" ry="18"/>
<text text-anchor="middle" x="167.0352" y="-1013.4665" font-family="Times,serif" font-size="14.00" fill="#000000">#1» child_process = require(&#39;child_process&#39;)</text>
</g>
<!-- #49 CFG_F_START __main__&#45;&gt;#1» child_process = require(&#39;child_process&#39;) -->
<g id="edge1" class="edge">
<title>#49 CFG_F_START __main__&#45;&gt;#1» child_process = require(&#39;child_process&#39;)</title>
<path fill="none" stroke="#ff0000" d="M167.0352,-1072.1216C167.0352,-1064.0494 167.0352,-1054.3429 167.0352,-1045.3483"/>
<polygon fill="#ff0000" stroke="#ff0000" points="170.5353,-1045.2568 167.0352,-1035.2569 163.5353,-1045.2569 170.5353,-1045.2568"/>
</g>
<!-- #5» f = Function (__6_anon__) &#45; (49) -->
<g id="node7" class="node">
<title>#5» f = Function (__6_anon__) &#45; (49)</title>
<ellipse fill="none" stroke="#000000" cx="530.0352" cy="-944.1665" rx="144.8743" ry="18"/>
<text text-anchor="middle" x="530.0352" y="-940.4665" font-family="Times,serif" font-size="14.00" fill="#000000">#5» f = Function (__6_anon__) &#45; (49)</text>
</g>
<!-- #1» child_process = require(&#39;child_process&#39;)&#45;&gt;#5» f = Function (__6_anon__) &#45; (49) -->
<g id="edge4" class="edge">
<title>#1» child_process = require(&#39;child_process&#39;)&#45;&gt;#5» f = Function (__6_anon__) &#45; (49)</title>
<path fill="none" stroke="#ff0000" d="M246.2485,-1001.2366C304.6423,-989.4935 384.0092,-973.5326 443.9631,-961.4758"/>
<polygon fill="#ff0000" stroke="#ff0000" points="444.6749,-964.9028 453.7886,-959.4999 443.2948,-958.0402 444.6749,-964.9028"/>
</g>
<!-- #54 49.child_process&#45;o1 -->
<g id="node8" class="node">
<title>#54 49.child_process&#45;o1</title>
<ellipse fill="none" stroke="#006400" cx="155.0352" cy="-890.1665" rx="97.4827" ry="18"/>
<text text-anchor="middle" x="155.0352" y="-886.4665" font-family="Times,serif" font-size="14.00" fill="#006400">#54 49.child_process&#45;o1</text>
</g>
<!-- #1» child_process = require(&#39;child_process&#39;)&#45;&gt;#54 49.child_process&#45;o1 -->
<g id="edge5" class="edge">
<title>#1» child_process = require(&#39;child_process&#39;)&#45;&gt;#54 49.child_process&#45;o1</title>
<path fill="none" stroke="#000000" stroke-dasharray="5,2" d="M165.3159,-998.9705C163.3287,-977.94 160.0345,-943.0759 157.7114,-918.4901"/>
<polygon fill="#000000" stroke="#000000" points="161.1766,-917.9552 156.7513,-908.3288 154.2076,-918.6137 161.1766,-917.9552"/>
</g>
<!-- #51 CFG_F_START 6_anon -->
<g id="node3" class="node">
<title>#51 CFG_F_START 6_anon</title>
<ellipse fill="none" stroke="#ff0000" cx="868.0352" cy="-836.1665" rx="113.18" ry="18"/>
<text text-anchor="middle" x="868.0352" y="-832.4665" font-family="Times,serif" font-size="14.00" fill="#ff0000">#51 CFG_F_START 6_anon</text>
</g>
<!-- #8» cmd = [
 &#160;&#160;&#160;&#39;cat&#39;,
 &#160;&#160;&#160;&#39;&#45;n&#39;
]; &#45; (51) -->
<g id="node4" class="node">
<title>#8» cmd = [
 &#160;&#160;&#160;&#39;cat&#39;,
 &#160;&#160;&#160;&#39;&#45;n&#39;
]; &#45; (51)</title>
<ellipse fill="none" stroke="#000000" cx="825.0352" cy="-733.0833" rx="60.2083" ry="48.1667"/>
<text text-anchor="middle" x="825.0352" y="-751.8833" font-family="Times,serif" font-size="14.00" fill="#000000">#8» cmd = [</text>
<text text-anchor="middle" x="825.0352" y="-736.8833" font-family="Times,serif" font-size="14.00" fill="#000000"> &#160;&#160;&#160;&#39;cat&#39;,</text>
<text text-anchor="middle" x="825.0352" y="-721.8833" font-family="Times,serif" font-size="14.00" fill="#000000"> &#160;&#160;&#160;&#39;&#45;n&#39;</text>
<text text-anchor="middle" x="825.0352" y="-706.8833" font-family="Times,serif" font-size="14.00" fill="#000000">]; &#45; (51)</text>
</g>
<!-- #51 CFG_F_START 6_anon&#45;&gt;#8» cmd = [
 &#160;&#160;&#160;&#39;cat&#39;,
 &#160;&#160;&#160;&#39;&#45;n&#39;
]; &#45; (51) -->
<g id="edge2" class="edge">
<title>#51 CFG_F_START 6_anon&#45;&gt;#8» cmd = [
 &#160;&#160;&#160;&#39;cat&#39;,
 &#160;&#160;&#160;&#39;&#45;n&#39;
]; &#45; (51)</title>
<path fill="none" stroke="#ff0000" d="M860.3476,-817.7373C856.8351,-809.3167 852.4695,-798.8512 848.0188,-788.1816"/>
<polygon fill="#ff0000" stroke="#ff0000" points="851.1851,-786.6806 844.1049,-778.7989 844.7246,-789.3756 851.1851,-786.6806"/>
</g>
<!-- #14» v1 = cmd.push -->
<g id="node9" class="node">
<title>#14» v1 = cmd.push</title>
<ellipse fill="none" stroke="#000000" cx="547.0352" cy="-630" rx="84.485" ry="18"/>
<text text-anchor="middle" x="547.0352" y="-626.3" font-family="Times,serif" font-size="14.00" fill="#000000">#14» v1 = cmd.push</text>
</g>
<!-- #8» cmd = [
 &#160;&#160;&#160;&#39;cat&#39;,
 &#160;&#160;&#160;&#39;&#45;n&#39;
]; &#45; (51)&#45;&gt;#14» v1 = cmd.push -->
<g id="edge6" class="edge">
<title>#8» cmd = [
 &#160;&#160;&#160;&#39;cat&#39;,
 &#160;&#160;&#160;&#39;&#45;n&#39;
]; &#45; (51)&#45;&gt;#14» v1 = cmd.push</title>
<path fill="none" stroke="#ff0000" d="M776.6439,-704.132C763.4765,-697.1212 748.9897,-690.1678 735.0352,-685 700.4523,-672.1928 689.5197,-677.0424 654.0352,-667 635.6838,-661.8064 615.8719,-655.2343 598.3431,-649.0749"/>
<polygon fill="#ff0000" stroke="#ff0000" points="599.4582,-645.7568 588.8635,-645.7068 597.1146,-652.3528 599.4582,-645.7568"/>
</g>
<!-- #57 51.cmd&#45;o4 -->
<g id="node10" class="node">
<title>#57 51.cmd&#45;o4</title>
<ellipse fill="none" stroke="#006400" cx="825.0352" cy="-630" rx="64.9885" ry="18"/>
<text text-anchor="middle" x="825.0352" y="-626.3" font-family="Times,serif" font-size="14.00" fill="#006400">#57 51.cmd&#45;o4</text>
</g>
<!-- #8» cmd = [
 &#160;&#160;&#160;&#39;cat&#39;,
 &#160;&#160;&#160;&#39;&#45;n&#39;
]; &#45; (51)&#45;&gt;#57 51.cmd&#45;o4 -->
<g id="edge7" class="edge">
<title>#8» cmd = [
 &#160;&#160;&#160;&#39;cat&#39;,
 &#160;&#160;&#160;&#39;&#45;n&#39;
]; &#45; (51)&#45;&gt;#57 51.cmd&#45;o4</title>
<path fill="none" stroke="#000000" stroke-dasharray="5,2" d="M825.0352,-684.8616C825.0352,-675.826 825.0352,-666.6537 825.0352,-658.4617"/>
<polygon fill="#000000" stroke="#000000" points="828.5353,-658.3512 825.0352,-648.3512 821.5353,-658.3513 828.5353,-658.3512"/>
</g>
<!-- #58 51.cmd&#45;o4.0&#45;o5 -->
<g id="node11" class="node">
<title>#58 51.cmd&#45;o4.0&#45;o5</title>
<ellipse fill="none" stroke="#006400" cx="658.0352" cy="-543" rx="83.3857" ry="18"/>
<text text-anchor="middle" x="658.0352" y="-539.3" font-family="Times,serif" font-size="14.00" fill="#006400">#58 51.cmd&#45;o4.0&#45;o5</text>
</g>
<!-- #8» cmd = [
 &#160;&#160;&#160;&#39;cat&#39;,
 &#160;&#160;&#160;&#39;&#45;n&#39;
]; &#45; (51)&#45;&gt;#58 51.cmd&#45;o4.0&#45;o5 -->
<g id="edge8" class="edge">
<title>#8» cmd = [
 &#160;&#160;&#160;&#39;cat&#39;,
 &#160;&#160;&#160;&#39;&#45;n&#39;
]; &#45; (51)&#45;&gt;#58 51.cmd&#45;o4.0&#45;o5</title>
<path fill="none" stroke="#000000" stroke-dasharray="5,2" d="M789.914,-693.6295C765.2403,-665.8487 731.5112,-627.7448 702.0352,-594 694.8807,-585.8093 687.1175,-576.8391 680.1322,-568.7366"/>
<polygon fill="#000000" stroke="#000000" points="682.6346,-566.2787 673.4574,-560.9843 677.3299,-570.8461 682.6346,-566.2787"/>
</g>
<!-- #59 51.cmd&#45;o4.1&#45;o6 -->
<g id="node12" class="node">
<title>#59 51.cmd&#45;o4.1&#45;o6</title>
<ellipse fill="none" stroke="#006400" cx="968.0352" cy="-543" rx="83.3857" ry="18"/>
<text text-anchor="middle" x="968.0352" y="-539.3" font-family="Times,serif" font-size="14.00" fill="#006400">#59 51.cmd&#45;o4.1&#45;o6</text>
</g>
<!-- #8» cmd = [
 &#160;&#160;&#160;&#39;cat&#39;,
 &#160;&#160;&#160;&#39;&#45;n&#39;
]; &#45; (51)&#45;&gt;#59 51.cmd&#45;o4.1&#45;o6 -->
<g id="edge9" class="edge">
<title>#8» cmd = [
 &#160;&#160;&#160;&#39;cat&#39;,
 &#160;&#160;&#160;&#39;&#45;n&#39;
]; &#45; (51)&#45;&gt;#59 51.cmd&#45;o4.1&#45;o6</title>
<path fill="none" stroke="#000000" stroke-dasharray="5,2" d="M862.1107,-695.128C887.0155,-668.3375 919.4633,-630.7963 943.0352,-594 947.7999,-586.5622 952.2911,-578.0851 956.1168,-570.2068"/>
<polygon fill="#000000" stroke="#000000" points="959.3551,-571.5445 960.427,-561.004 953.016,-568.5755 959.3551,-571.5445"/>
</g>
<!-- #53 TAINT_SOURCE -->
<g id="node5" class="node">
<title>#53 TAINT_SOURCE</title>
<ellipse fill="none" stroke="#8b6914" cx="275.0352" cy="-944.1665" rx="91.784" ry="18"/>
<text text-anchor="middle" x="275.0352" y="-940.4665" font-family="Times,serif" font-size="14.00" fill="#8b6914">#53 TAINT_SOURCE</text>
</g>
<!-- #56 51.x&#45;o3 -->
<g id="node6" class="node">
<title>#56 51.x&#45;o3</title>
<ellipse fill="none" stroke="#006400" cx="275.0352" cy="-836.1665" rx="53.8905" ry="18"/>
<text text-anchor="middle" x="275.0352" y="-832.4665" font-family="Times,serif" font-size="14.00" fill="#006400">#56 51.x&#45;o3</text>
</g>
<!-- #53 TAINT_SOURCE&#45;&gt;#56 51.x&#45;o3 -->
<g id="edge3" class="edge">
<title>#53 TAINT_SOURCE&#45;&gt;#56 51.x&#45;o3</title>
<path fill="none" stroke="#006400" d="M275.0352,-925.8458C275.0352,-908.9875 275.0352,-883.7316 275.0352,-864.3135"/>
<polygon fill="#006400" stroke="#006400" points="278.5353,-864.2166 275.0352,-854.2167 271.5353,-864.2167 278.5353,-864.2166"/>
<text text-anchor="middle" x="295.5352" y="-886.4665" font-family="Times,serif" font-size="14.00" fill="#006400">TAINT</text>
</g>
<!-- #61 51.v2&#45;o8 -->
<g id="node13" class="node">
<title>#61 51.v2&#45;o8</title>
<ellipse fill="none" stroke="#006400" cx="310.0352" cy="-470" rx="57.6901" ry="18"/>
<text text-anchor="middle" x="310.0352" y="-466.3" font-family="Times,serif" font-size="14.00" fill="#006400">#61 51.v2&#45;o8</text>
</g>
<!-- #56 51.x&#45;o3&#45;&gt;#61 51.v2&#45;o8 -->
<g id="edge10" class="edge">
<title>#56 51.x&#45;o3&#45;&gt;#61 51.v2&#45;o8</title>
<path fill="none" stroke="#006400" d="M278.1579,-817.9807C281.41,-797.4338 286.0352,-762.9599 286.0352,-733.0833 286.0352,-733.0833 286.0352,-733.0833 286.0352,-543 286.0352,-527.2191 291.1593,-510.4359 296.6722,-496.9461"/>
<polygon fill="#006400" stroke="#006400" points="299.8864,-498.3313 300.6874,-487.7668 293.4731,-495.5259 299.8864,-498.3313"/>
<text text-anchor="middle" x="307.0352" y="-626.3" font-family="Times,serif" font-size="14.00" fill="#006400">DEP(x)</text>
</g>
<!-- #5» f = Function (__6_anon__) &#45; (49)&#45;&gt;#51 CFG_F_START 6_anon -->
<g id="edge11" class="edge">
<title>#5» f = Function (__6_anon__) &#45; (49)&#45;&gt;#51 CFG_F_START 6_anon</title>
<path fill="none" stroke="#000000" d="M582.8477,-927.2915C643.864,-907.7952 744.0441,-875.785 807.9756,-855.3572"/>
<polygon fill="#000000" stroke="#000000" points="809.0643,-858.6837 817.5245,-852.306 806.9336,-852.0158 809.0643,-858.6837"/>
<text text-anchor="middle" x="758.0352" y="-886.4665" font-family="Times,serif" font-size="14.00" fill="#000000">FD</text>
</g>
<!-- #5» f = Function (__6_anon__) &#45; (49)&#45;&gt;#56 51.x&#45;o3 -->
<g id="edge14" class="edge">
<title>#5» f = Function (__6_anon__) &#45; (49)&#45;&gt;#56 51.x&#45;o3</title>
<path fill="none" stroke="#000000" stroke-dasharray="5,2" d="M461.013,-928.2845C441.2996,-922.847 420.0232,-916.0972 401.0352,-908.1665 367.9065,-894.3296 332.6184,-873.588 307.8398,-857.9159"/>
<polygon fill="#000000" stroke="#000000" points="309.5194,-854.8354 299.2098,-852.3935 305.7464,-860.7316 309.5194,-854.8354"/>
<text text-anchor="middle" x="424.0352" y="-886.4665" font-family="Times,serif" font-size="14.00" fill="#000000">param 0</text>
</g>
<!-- #43» module.exports = f; &#45; (49) -->
<g id="node14" class="node">
<title>#43» module.exports = f; &#45; (49)</title>
<ellipse fill="none" stroke="#000000" cx="613.0352" cy="-836.1665" rx="124.2781" ry="18"/>
<text text-anchor="middle" x="613.0352" y="-832.4665" font-family="Times,serif" font-size="14.00" fill="#000000">#43» module.exports = f; &#45; (49)</text>
</g>
<!-- #5» f = Function (__6_anon__) &#45; (49)&#45;&gt;#43» module.exports = f; &#45; (49) -->
<g id="edge12" class="edge">
<title>#5» f = Function (__6_anon__) &#45; (49)&#45;&gt;#43» module.exports = f; &#45; (49)</title>
<path fill="none" stroke="#ff0000" d="M544.115,-925.8458C557.5508,-908.3631 577.9271,-881.8493 593.0428,-862.1807"/>
<polygon fill="#ff0000" stroke="#ff0000" points="595.8448,-864.2784 599.1633,-854.2167 590.2946,-860.0129 595.8448,-864.2784"/>
</g>
<!-- #55 51.this&#45;o2 -->
<g id="node15" class="node">
<title>#55 51.this&#45;o2</title>
<ellipse fill="none" stroke="#006400" cx="409.0352" cy="-836.1665" rx="61.99" ry="18"/>
<text text-anchor="middle" x="409.0352" y="-832.4665" font-family="Times,serif" font-size="14.00" fill="#006400">#55 51.this&#45;o2</text>
</g>
<!-- #5» f = Function (__6_anon__) &#45; (49)&#45;&gt;#55 51.this&#45;o2 -->
<g id="edge13" class="edge">
<title>#5» f = Function (__6_anon__) &#45; (49)&#45;&gt;#55 51.this&#45;o2</title>
<path fill="none" stroke="#000000" stroke-dasharray="5,2" d="M510.0545,-926.3325C489.7595,-908.218 458.2061,-880.0546 435.7685,-860.0276"/>
<polygon fill="#000000" stroke="#000000" points="438.0367,-857.3608 428.2456,-853.313 433.3754,-862.5831 438.0367,-857.3608"/>
</g>
<!-- #62 49.child_process&#45;o1.execSync&#45;o9 -->
<g id="node16" class="node">
<title>#62 49.child_process&#45;o1.execSync&#45;o9</title>
<ellipse fill="none" stroke="#006400" cx="198.0352" cy="-91" rx="145.6742" ry="18"/>
<text text-anchor="middle" x="198.0352" y="-87.3" font-family="Times,serif" font-size="14.00" fill="#006400">#62 49.child_process&#45;o1.execSync&#45;o9</text>
</g>
<!-- #54 49.child_process&#45;o1&#45;&gt;#62 49.child_process&#45;o1.execSync&#45;o9 -->
<g id="edge15" class="edge">
<title>#54 49.child_process&#45;o1&#45;&gt;#62 49.child_process&#45;o1.execSync&#45;o9</title>
<path fill="none" stroke="#006400" d="M155.0352,-872.1372C155.0352,-853.8723 155.0352,-824.8054 155.0352,-799.6665 155.0352,-799.6665 155.0352,-799.6665 155.0352,-178 155.0352,-156.1077 166.1131,-134.0256 177.0233,-117.5865"/>
<polygon fill="#006400" stroke="#006400" points="180.119,-119.268 182.9959,-109.0712 174.3881,-115.2484 180.119,-119.268"/>
<text text-anchor="middle" x="194.5352" y="-466.3" font-family="Times,serif" font-size="14.00" fill="#006400">SO(execSync)</text>
</g>
<!-- #18» v2 = v1(x) -->
<g id="node17" class="node">
<title>#18» v2 = v1(x)</title>
<ellipse fill="none" stroke="#000000" cx="450.0352" cy="-543" rx="68.7879" ry="18"/>
<text text-anchor="middle" x="450.0352" y="-539.3" font-family="Times,serif" font-size="14.00" fill="#000000">#18» v2 = v1(x)</text>
</g>
<!-- #14» v1 = cmd.push&#45;&gt;#18» v2 = v1(x) -->
<g id="edge16" class="edge">
<title>#14» v1 = cmd.push&#45;&gt;#18» v2 = v1(x)</title>
<path fill="none" stroke="#ff0000" d="M527.4058,-612.3943C512.8482,-599.3374 492.8344,-581.3869 476.8094,-567.014"/>
<polygon fill="#ff0000" stroke="#ff0000" points="479.0857,-564.3541 469.3043,-560.2827 474.4118,-569.5651 479.0857,-564.3541"/>
</g>
<!-- #60 51.cmd&#45;o4.push&#45;o7 -->
<g id="node18" class="node">
<title>#60 51.cmd&#45;o4.push&#45;o7</title>
<ellipse fill="none" stroke="#006400" cx="628.0352" cy="-470" rx="95.5831" ry="18"/>
<text text-anchor="middle" x="628.0352" y="-466.3" font-family="Times,serif" font-size="14.00" fill="#006400">#60 51.cmd&#45;o4.push&#45;o7</text>
</g>
<!-- #14» v1 = cmd.push&#45;&gt;#60 51.cmd&#45;o4.push&#45;o7 -->
<g id="edge17" class="edge">
<title>#14» v1 = cmd.push&#45;&gt;#60 51.cmd&#45;o4.push&#45;o7</title>
<path fill="none" stroke="#000000" stroke-dasharray="5,2" d="M546.8027,-611.7071C547.2886,-589.7478 550.6038,-552.4531 566.0352,-525 572.7772,-513.0057 583.1332,-502.2979 593.4626,-493.5891"/>
<polygon fill="#000000" stroke="#000000" points="595.6679,-496.3071 601.2961,-487.3308 591.2986,-490.8381 595.6679,-496.3071"/>
</g>
<!-- #57 51.cmd&#45;o4&#45;&gt;#58 51.cmd&#45;o4.0&#45;o5 -->
<g id="edge18" class="edge">
<title>#57 51.cmd&#45;o4&#45;&gt;#58 51.cmd&#45;o4.0&#45;o5</title>
<path fill="none" stroke="#006400" d="M781.4414,-616.3959C764.6304,-610.4491 745.5186,-602.8098 729.0352,-594 714.571,-586.2694 699.6669,-575.9778 687.2716,-566.6649"/>
<polygon fill="#006400" stroke="#006400" points="689.192,-563.7268 679.1273,-560.4173 684.9314,-569.2809 689.192,-563.7268"/>
<text text-anchor="middle" x="746.0352" y="-582.8" font-family="Times,serif" font-size="14.00" fill="#006400">SO(0)</text>
</g>
<!-- #57 51.cmd&#45;o4&#45;&gt;#59 51.cmd&#45;o4.1&#45;o6 -->
<g id="edge19" class="edge">
<title>#57 51.cmd&#45;o4&#45;&gt;#59 51.cmd&#45;o4.1&#45;o6</title>
<path fill="none" stroke="#006400" d="M852.269,-613.4312C874.6424,-599.8194 906.5494,-580.4074 931.2023,-565.4088"/>
<polygon fill="#006400" stroke="#006400" points="933.2016,-568.2893 939.9256,-560.1016 929.5633,-562.3091 933.2016,-568.2893"/>
<text text-anchor="middle" x="922.0352" y="-582.8" font-family="Times,serif" font-size="14.00" fill="#006400">SO(1)</text>
</g>
<!-- #57 51.cmd&#45;o4&#45;&gt;#60 51.cmd&#45;o4.push&#45;o7 -->
<g id="edge20" class="edge">
<title>#57 51.cmd&#45;o4&#45;&gt;#60 51.cmd&#45;o4.push&#45;o7</title>
<path fill="none" stroke="#006400" d="M815.9447,-611.7965C803.7151,-588.8904 779.9979,-549.5806 750.0352,-525 731.4936,-509.789 708.0691,-497.9025 686.7141,-489.1326"/>
<polygon fill="#006400" stroke="#006400" points="687.9784,-485.8688 677.3921,-485.4433 685.4024,-492.3776 687.9784,-485.8688"/>
<text text-anchor="middle" x="809.0352" y="-539.3" font-family="Times,serif" font-size="14.00" fill="#006400">SO(push)</text>
</g>
<!-- #63 51.cmd&#45;o4.join&#45;o10 -->
<g id="node19" class="node">
<title>#63 51.cmd&#45;o4.join&#45;o10</title>
<ellipse fill="none" stroke="#006400" cx="840.0352" cy="-178" rx="96.6831" ry="18"/>
<text text-anchor="middle" x="840.0352" y="-174.3" font-family="Times,serif" font-size="14.00" fill="#006400">#63 51.cmd&#45;o4.join&#45;o10</text>
</g>
<!-- #57 51.cmd&#45;o4&#45;&gt;#63 51.cmd&#45;o4.join&#45;o10 -->
<g id="edge21" class="edge">
<title>#57 51.cmd&#45;o4&#45;&gt;#63 51.cmd&#45;o4.join&#45;o10</title>
<path fill="none" stroke="#006400" d="M835.8689,-612.0383C845.1524,-594.9203 857.0352,-568.1058 857.0352,-543 857.0352,-543 857.0352,-543 857.0352,-251 857.0352,-235.7568 853.4757,-219.1789 849.6143,-205.6793"/>
<polygon fill="#006400" stroke="#006400" points="852.9334,-204.5645 846.6565,-196.0292 846.2407,-206.6159 852.9334,-204.5645"/>
<text text-anchor="middle" x="881.0352" y="-393.3" font-family="Times,serif" font-size="14.00" fill="#006400">SO(join)</text>
</g>
<!-- #50 CFG_F_END __main__ -->
<g id="node20" class="node">
<title>#50 CFG_F_END __main__</title>
<ellipse fill="none" stroke="#ff0000" cx="613.0352" cy="-733.0833" rx="113.18" ry="18"/>
<text text-anchor="middle" x="613.0352" y="-729.3833" font-family="Times,serif" font-size="14.00" fill="#ff0000">#50 CFG_F_END __main__</text>
</g>
<!-- #43» module.exports = f; &#45; (49)&#45;&gt;#50 CFG_F_END __main__ -->
<g id="edge22" class="edge">
<title>#43» module.exports = f; &#45; (49)&#45;&gt;#50 CFG_F_END __main__</title>
<path fill="none" stroke="#ff0000" d="M613.0352,-817.7373C613.0352,-802.1258 613.0352,-779.4858 613.0352,-761.5464"/>
<polygon fill="#ff0000" stroke="#ff0000" points="616.5353,-761.3529 613.0352,-751.3529 609.5353,-761.353 616.5353,-761.3529"/>
</g>
<!-- #18» v2 = v1(x)&#45;&gt;#61 51.v2&#45;o8 -->
<g id="edge24" class="edge">
<title>#18» v2 = v1(x)&#45;&gt;#61 51.v2&#45;o8</title>
<path fill="none" stroke="#000000" stroke-dasharray="5,2" d="M418.9646,-526.7989C398.3824,-516.0667 371.2161,-501.9015 349.1624,-490.4021"/>
<polygon fill="#000000" stroke="#000000" points="350.5432,-487.1748 340.0579,-485.6547 347.3067,-493.3817 350.5432,-487.1748"/>
</g>
<!-- #18» v2 = v1(x)&#45;&gt;#60 51.cmd&#45;o4.push&#45;o7 -->
<g id="edge25" class="edge">
<title>#18» v2 = v1(x)&#45;&gt;#60 51.cmd&#45;o4.push&#45;o7</title>
<path fill="none" stroke="#000000" stroke-dasharray="5,2" d="M484.1703,-527.2562C499.0885,-520.5127 516.8433,-512.6706 533.0352,-506 546.2891,-500.5397 560.7026,-494.918 574.2034,-489.7877"/>
<polygon fill="#000000" stroke="#000000" points="575.724,-492.9548 583.8432,-486.1482 573.2515,-486.406 575.724,-492.9548"/>
</g>
<!-- #22» v2; &#45; (51) -->
<g id="node21" class="node">
<title>#22» v2; &#45; (51)</title>
<ellipse fill="none" stroke="#000000" cx="450.0352" cy="-470" rx="64.189" ry="18"/>
<text text-anchor="middle" x="450.0352" y="-466.3" font-family="Times,serif" font-size="14.00" fill="#000000">#22» v2; &#45; (51)</text>
</g>
<!-- #18» v2 = v1(x)&#45;&gt;#22» v2; &#45; (51) -->
<g id="edge23" class="edge">
<title>#18» v2 = v1(x)&#45;&gt;#22» v2; &#45; (51)</title>
<path fill="none" stroke="#ff0000" d="M450.0352,-524.9551C450.0352,-516.8828 450.0352,-507.1764 450.0352,-498.1817"/>
<polygon fill="#ff0000" stroke="#ff0000" points="453.5353,-498.0903 450.0352,-488.0904 446.5353,-498.0904 453.5353,-498.0903"/>
</g>
<!-- #24» v5 = child_process.execSync -->
<g id="node22" class="node">
<title>#24» v5 = child_process.execSync</title>
<ellipse fill="none" stroke="#000000" cx="450.0352" cy="-397" rx="133.7763" ry="18"/>
<text text-anchor="middle" x="450.0352" y="-393.3" font-family="Times,serif" font-size="14.00" fill="#000000">#24» v5 = child_process.execSync</text>
</g>
<!-- #22» v2; &#45; (51)&#45;&gt;#24» v5 = child_process.execSync -->
<g id="edge26" class="edge">
<title>#22» v2; &#45; (51)&#45;&gt;#24» v5 = child_process.execSync</title>
<path fill="none" stroke="#ff0000" d="M450.0352,-451.9551C450.0352,-443.8828 450.0352,-434.1764 450.0352,-425.1817"/>
<polygon fill="#ff0000" stroke="#ff0000" points="453.5353,-425.0903 450.0352,-415.0904 446.5353,-425.0904 453.5353,-425.0903"/>
</g>
<!-- #24» v5 = child_process.execSync&#45;&gt;#62 49.child_process&#45;o1.execSync&#45;o9 -->
<g id="edge28" class="edge">
<title>#24» v5 = child_process.execSync&#45;&gt;#62 49.child_process&#45;o1.execSync&#45;o9</title>
<path fill="none" stroke="#000000" stroke-dasharray="5,2" d="M390.5514,-380.7376C346.8406,-366.9706 295.0352,-346.0112 295.0352,-324 295.0352,-324 295.0352,-324 295.0352,-178 295.0352,-149.4916 271.5283,-127.968 247.6585,-113.4608"/>
<polygon fill="#000000" stroke="#000000" points="249.3069,-110.3715 238.8908,-108.4336 245.825,-116.4441 249.3069,-110.3715"/>
</g>
<!-- #28» v3 = cmd.join -->
<g id="node23" class="node">
<title>#28» v3 = cmd.join</title>
<ellipse fill="none" stroke="#000000" cx="663.0352" cy="-324" rx="81.4863" ry="18"/>
<text text-anchor="middle" x="663.0352" y="-320.3" font-family="Times,serif" font-size="14.00" fill="#000000">#28» v3 = cmd.join</text>
</g>
<!-- #24» v5 = child_process.execSync&#45;&gt;#28» v3 = cmd.join -->
<g id="edge27" class="edge">
<title>#24» v5 = child_process.execSync&#45;&gt;#28» v3 = cmd.join</title>
<path fill="none" stroke="#ff0000" d="M499.1691,-380.1607C532.0446,-368.8935 575.3152,-354.0636 609.1358,-342.4726"/>
<polygon fill="#ff0000" stroke="#ff0000" points="610.5309,-345.6943 618.856,-339.1412 608.2614,-339.0724 610.5309,-345.6943"/>
</g>
<!-- #28» v3 = cmd.join&#45;&gt;#63 51.cmd&#45;o4.join&#45;o10 -->
<g id="edge30" class="edge">
<title>#28» v3 = cmd.join&#45;&gt;#63 51.cmd&#45;o4.join&#45;o10</title>
<path fill="none" stroke="#000000" stroke-dasharray="5,2" d="M689.6784,-306.8094C705.3201,-296.3867 725.2487,-282.5267 742.0352,-269 768.0502,-248.0368 795.783,-221.8882 815.0828,-203.0072"/>
<polygon fill="#000000" stroke="#000000" points="817.6293,-205.4117 822.299,-195.9015 812.7179,-200.4239 817.6293,-205.4117"/>
</g>
<!-- #32» v4 = v3(&#39; &#39;) -->
<g id="node24" class="node">
<title>#32» v4 = v3(&#39; &#39;)</title>
<ellipse fill="none" stroke="#000000" cx="663.0352" cy="-251" rx="69.5877" ry="18"/>
<text text-anchor="middle" x="663.0352" y="-247.3" font-family="Times,serif" font-size="14.00" fill="#000000">#32» v4 = v3(&#39; &#39;)</text>
</g>
<!-- #28» v3 = cmd.join&#45;&gt;#32» v4 = v3(&#39; &#39;) -->
<g id="edge29" class="edge">
<title>#28» v3 = cmd.join&#45;&gt;#32» v4 = v3(&#39; &#39;)</title>
<path fill="none" stroke="#ff0000" d="M663.0352,-305.9551C663.0352,-297.8828 663.0352,-288.1764 663.0352,-279.1817"/>
<polygon fill="#ff0000" stroke="#ff0000" points="666.5353,-279.0903 663.0352,-269.0904 659.5353,-279.0904 666.5353,-279.0903"/>
</g>
<!-- #32» v4 = v3(&#39; &#39;)&#45;&gt;#63 51.cmd&#45;o4.join&#45;o10 -->
<g id="edge33" class="edge">
<title>#32» v4 = v3(&#39; &#39;)&#45;&gt;#63 51.cmd&#45;o4.join&#45;o10</title>
<path fill="none" stroke="#000000" stroke-dasharray="5,2" d="M700.1402,-235.6968C726.4611,-224.8413 762.0637,-210.1577 790.7649,-198.3205"/>
<polygon fill="#000000" stroke="#000000" points="792.3002,-201.4733 800.2104,-194.4249 789.6313,-195.0021 792.3002,-201.4733"/>
</g>
<!-- #36» v6 = v5(v4) -->
<g id="node25" class="node">
<title>#36» v6 = v5(v4)</title>
<ellipse fill="none" stroke="#000000" cx="509.0352" cy="-178" rx="73.387" ry="18"/>
<text text-anchor="middle" x="509.0352" y="-174.3" font-family="Times,serif" font-size="14.00" fill="#000000">#36» v6 = v5(v4)</text>
</g>
<!-- #32» v4 = v3(&#39; &#39;)&#45;&gt;#36» v6 = v5(v4) -->
<g id="edge31" class="edge">
<title>#32» v4 = v3(&#39; &#39;)&#45;&gt;#36» v6 = v5(v4)</title>
<path fill="none" stroke="#ff0000" d="M629.6195,-235.1601C606.8716,-224.377 576.5565,-210.0068 552.0134,-198.3728"/>
<polygon fill="#ff0000" stroke="#ff0000" points="553.4529,-195.1819 542.9175,-194.0611 550.4545,-201.5072 553.4529,-195.1819"/>
</g>
<!-- #64 51.v4&#45;o11 -->
<g id="node26" class="node">
<title>#64 51.v4&#45;o11</title>
<ellipse fill="none" stroke="#006400" cx="663.0352" cy="-178" rx="62.2891" ry="18"/>
<text text-anchor="middle" x="663.0352" y="-174.3" font-family="Times,serif" font-size="14.00" fill="#006400">#64 51.v4&#45;o11</text>
</g>
<!-- #32» v4 = v3(&#39; &#39;)&#45;&gt;#64 51.v4&#45;o11 -->
<g id="edge32" class="edge">
<title>#32» v4 = v3(&#39; &#39;)&#45;&gt;#64 51.v4&#45;o11</title>
<path fill="none" stroke="#000000" stroke-dasharray="5,2" d="M663.0352,-232.9551C663.0352,-224.8828 663.0352,-215.1764 663.0352,-206.1817"/>
<polygon fill="#000000" stroke="#000000" points="666.5353,-206.0903 663.0352,-196.0904 659.5353,-206.0904 666.5353,-206.0903"/>
</g>
<!-- #36» v6 = v5(v4)&#45;&gt;#62 49.child_process&#45;o1.execSync&#45;o9 -->
<g id="edge36" class="edge">
<title>#36» v6 = v5(v4)&#45;&gt;#62 49.child_process&#45;o1.execSync&#45;o9</title>
<path fill="none" stroke="#000000" stroke-dasharray="5,2" d="M460.4414,-164.4063C408.4401,-149.8593 325.5234,-126.6639 266.8301,-110.2449"/>
<polygon fill="#000000" stroke="#000000" points="267.4707,-106.7898 256.8975,-107.4663 265.5849,-113.531 267.4707,-106.7898"/>
</g>
<!-- #40» v6; &#45; (51) -->
<g id="node27" class="node">
<title>#40» v6; &#45; (51)</title>
<ellipse fill="none" stroke="#000000" cx="426.0352" cy="-91" rx="64.189" ry="18"/>
<text text-anchor="middle" x="426.0352" y="-87.3" font-family="Times,serif" font-size="14.00" fill="#000000">#40» v6; &#45; (51)</text>
</g>
<!-- #36» v6 = v5(v4)&#45;&gt;#40» v6; &#45; (51) -->
<g id="edge34" class="edge">
<title>#36» v6 = v5(v4)&#45;&gt;#40» v6; &#45; (51)</title>
<path fill="none" stroke="#ff0000" d="M492.2389,-160.3943C480.0888,-147.6586 463.4969,-130.2671 449.963,-116.081"/>
<polygon fill="#ff0000" stroke="#ff0000" points="452.2417,-113.3991 442.8065,-108.5796 447.1769,-118.231 452.2417,-113.3991"/>
</g>
<!-- #65 51.v6&#45;o12 -->
<g id="node28" class="node">
<title>#65 51.v6&#45;o12</title>
<ellipse fill="none" stroke="#006400" cx="828.0352" cy="-91" rx="62.2891" ry="18"/>
<text text-anchor="middle" x="828.0352" y="-87.3" font-family="Times,serif" font-size="14.00" fill="#006400">#65 51.v6&#45;o12</text>
</g>
<!-- #36» v6 = v5(v4)&#45;&gt;#65 51.v6&#45;o12 -->
<g id="edge35" class="edge">
<title>#36» v6 = v5(v4)&#45;&gt;#65 51.v6&#45;o12</title>
<path fill="none" stroke="#000000" stroke-dasharray="5,2" d="M554.4924,-163.811C572.6373,-157.7097 593.5657,-150.116 612.0352,-142 624.96,-136.3205 626.6441,-131.4708 640.0352,-127 689.9391,-110.3388 705.477,-119.4766 757.0352,-109 762.0471,-107.9816 767.2367,-106.8389 772.4243,-105.6361"/>
<polygon fill="#000000" stroke="#000000" points="773.4372,-108.9927 782.3509,-103.2659 771.8115,-102.1841 773.4372,-108.9927"/>
</g>
<!-- #66 TAINT_SINK (execSync) -->
<g id="node29" class="node">
<title>#66 TAINT_SINK (execSync)</title>
<ellipse fill="none" stroke="#8b6914" cx="628.0352" cy="-91" rx="119.6788" ry="18"/>
<text text-anchor="middle" x="628.0352" y="-87.3" font-family="Times,serif" font-size="14.00" fill="#8b6914">#66 TAINT_SINK (execSync)</text>
</g>
<!-- #36» v6 = v5(v4)&#45;&gt;#66 TAINT_SINK (execSync) -->
<g id="edge37" class="edge">
<title>#36» v6 = v5(v4)&#45;&gt;#66 TAINT_SINK (execSync)</title>
<path fill="none" stroke="#000000" stroke-dasharray="5,2" d="M506.6051,-159.5951C506.2281,-148.9523 507.6601,-135.9405 515.0352,-127 520.5114,-120.3614 534.4601,-114.2197 550.7642,-108.9583"/>
<polygon fill="#000000" stroke="#000000" points="552.0437,-112.2274 560.5897,-105.9651 550.0038,-105.5312 552.0437,-112.2274"/>
<text text-anchor="middle" x="563.5352" y="-130.8" font-family="Times,serif" font-size="14.00" fill="#000000">SINK (execSync)</text>
</g>
<!-- #64 51.v4&#45;o11&#45;&gt;#65 51.v6&#45;o12 -->
<g id="edge38" class="edge">
<title>#64 51.v4&#45;o11&#45;&gt;#65 51.v6&#45;o12</title>
<path fill="none" stroke="#006400" d="M693.2987,-162.0429C720.1627,-147.8782 759.5798,-127.0947 788.8467,-111.663"/>
<polygon fill="#006400" stroke="#006400" points="790.7502,-114.6161 797.9635,-106.856 787.4853,-108.4241 790.7502,-114.6161"/>
<text text-anchor="middle" x="779.5352" y="-130.8" font-family="Times,serif" font-size="14.00" fill="#006400">DEP(v4)</text>
</g>
<!-- #64 51.v4&#45;o11&#45;&gt;#66 TAINT_SINK (execSync) -->
<g id="edge39" class="edge">
<title>#64 51.v4&#45;o11&#45;&gt;#66 TAINT_SINK (execSync)</title>
<path fill="none" stroke="#006400" d="M655.7832,-159.9735C650.9495,-147.9585 644.5053,-131.9401 639.0439,-118.3646"/>
<polygon fill="#006400" stroke="#006400" points="642.2573,-116.9744 635.2779,-109.0034 635.7632,-119.5871 642.2573,-116.9744"/>
<text text-anchor="middle" x="671.5352" y="-130.8" font-family="Times,serif" font-size="14.00" fill="#006400">DEP(v4)</text>
</g>
<!-- #52 CFG_F_END 6_anon -->
<g id="node30" class="node">
<title>#52 CFG_F_END 6_anon</title>
<ellipse fill="none" stroke="#ff0000" cx="426.0352" cy="-18" rx="103.1819" ry="18"/>
<text text-anchor="middle" x="426.0352" y="-14.3" font-family="Times,serif" font-size="14.00" fill="#ff0000">#52 CFG_F_END 6_anon</text>
</g>
<!-- #40» v6; &#45; (51)&#45;&gt;#52 CFG_F_END 6_anon -->
<g id="edge40" class="edge">
<title>#40» v6; &#45; (51)&#45;&gt;#52 CFG_F_END 6_anon</title>
<path fill="none" stroke="#ff0000" d="M426.0352,-72.9551C426.0352,-64.8828 426.0352,-55.1764 426.0352,-46.1817"/>
<polygon fill="#ff0000" stroke="#ff0000" points="429.5353,-46.0903 426.0352,-36.0904 422.5353,-46.0904 429.5353,-46.0903"/>
</g>
</g>
</svg>
