<?xml version="1.0" encoding="UTF-8" standalone="no"?>
<!DOCTYPE svg PUBLIC "-//W3C//DTD SVG 1.1//EN"
 "http://www.w3.org/Graphics/SVG/1.1/DTD/svg11.dtd">
<!-- Generated by graphviz version 2.40.1 (20161225.0304)
 -->
<!-- Title: G Pages: 1 -->
<svg width="1160pt" height="740pt"
 viewBox="0.00 0.00 1159.58 740.00" xmlns="http://www.w3.org/2000/svg" xmlns:xlink="http://www.w3.org/1999/xlink">
<g id="graph0" class="graph" transform="scale(1 1) rotate(0) translate(4 736)">
<title>G</title>
<polygon fill="#ffffff" stroke="transparent" points="-4,4 -4,-736 1155.5848,-736 1155.5848,4 -4,4"/>
<!-- #0 Program -->
<g id="node1" class="node">
<title>#0 Program</title>
<ellipse fill="none" stroke="#000000" cx="561.2416" cy="-714" rx="52.7911" ry="18"/>
<text text-anchor="middle" x="561.2416" y="-710.3" font-family="Times,serif" font-size="14.00" fill="#000000">#0 Program</text>
</g>
<!-- #1 Variable (f) -->
<g id="node2" class="node">
<title>#1 Variable (f)</title>
<ellipse fill="none" stroke="#000000" cx="719.2416" cy="-627" rx="63.8893" ry="18"/>
<text text-anchor="middle" x="719.2416" y="-623.3" font-family="Times,serif" font-size="14.00" fill="#000000">#1 Variable (f)</text>
</g>
<!-- #0 Program&#45;&gt;#1 Variable (f) -->
<g id="edge1" class="edge">
<title>#0 Program&#45;&gt;#1 Variable (f)</title>
<path fill="none" stroke="#0000ff" d="M589.1252,-698.6464C614.7059,-684.5608 652.8177,-663.5752 681.1903,-647.9523"/>
<polygon fill="#0000ff" stroke="#0000ff" points="682.9602,-650.9733 690.0318,-643.0839 679.5837,-644.8415 682.9602,-650.9733"/>
<text text-anchor="middle" x="653.7416" y="-666.8" font-family="Times,serif" font-size="14.00" fill="#0000ff">1</text>
</g>
<!-- #11 ExpressionStatement -->
<g id="node3" class="node">
<title>#11 ExpressionStatement</title>
<ellipse fill="none" stroke="#000000" cx="561.2416" cy="-540" rx="100.9827" ry="18"/>
<text text-anchor="middle" x="561.2416" y="-536.3" font-family="Times,serif" font-size="14.00" fill="#000000">#11 ExpressionStatement</text>
</g>
<!-- #0 Program&#45;&gt;#11 ExpressionStatement -->
<g id="edge2" class="edge">
<title>#0 Program&#45;&gt;#11 ExpressionStatement</title>
<path fill="none" stroke="#0000ff" d="M561.2416,-695.7078C561.2416,-665.3436 561.2416,-604.3226 561.2416,-568.3464"/>
<polygon fill="#0000ff" stroke="#0000ff" points="564.7417,-568.0471 561.2416,-558.0471 557.7417,-568.0471 564.7417,-568.0471"/>
<text text-anchor="middle" x="564.7416" y="-623.3" font-family="Times,serif" font-size="14.00" fill="#0000ff">2</text>
</g>
<!-- #1 Variable (f)&#45;&gt;#11 ExpressionStatement -->
<g id="edge6" class="edge">
<title>#1 Variable (f)&#45;&gt;#11 ExpressionStatement</title>
<path fill="none" stroke="#ff0000" d="M689.8933,-610.8399C665.0378,-597.1536 629.1546,-577.3951 601.5963,-562.2206"/>
<polygon fill="#ff0000" stroke="#ff0000" points="603.0456,-559.0231 592.5975,-557.2656 599.6691,-565.155 603.0456,-559.0231"/>
</g>
<!-- #2 Function (anon) -->
<g id="node7" class="node">
<title>#2 Function (anon)</title>
<ellipse fill="none" stroke="#000000" cx="758.2416" cy="-540" rx="78.7863" ry="18"/>
<text text-anchor="middle" x="758.2416" y="-536.3" font-family="Times,serif" font-size="14.00" fill="#000000">#2 Function (anon)</text>
</g>
<!-- #1 Variable (f)&#45;&gt;#2 Function (anon) -->
<g id="edge5" class="edge">
<title>#1 Variable (f)&#45;&gt;#2 Function (anon)</title>
<path fill="none" stroke="#0000ff" d="M727.3225,-608.9735C732.7085,-596.9585 739.8892,-580.9401 745.9748,-567.3646"/>
<polygon fill="#0000ff" stroke="#0000ff" points="749.2743,-568.5602 750.1712,-558.0034 742.8868,-565.6967 749.2743,-568.5602"/>
<text text-anchor="middle" x="750.7416" y="-579.8" font-family="Times,serif" font-size="14.00" fill="#0000ff">init</text>
</g>
<!-- #12 AssignmentExpression -->
<g id="node8" class="node">
<title>#12 AssignmentExpression</title>
<ellipse fill="none" stroke="#000000" cx="334.2416" cy="-453" rx="107.781" ry="18"/>
<text text-anchor="middle" x="334.2416" y="-449.3" font-family="Times,serif" font-size="14.00" fill="#000000">#12 AssignmentExpression</text>
</g>
<!-- #11 ExpressionStatement&#45;&gt;#12 AssignmentExpression -->
<g id="edge7" class="edge">
<title>#11 ExpressionStatement&#45;&gt;#12 AssignmentExpression</title>
<path fill="none" stroke="#0000ff" d="M518.5447,-523.636C481.2893,-509.3575 427.0884,-488.5844 387.1024,-473.2594"/>
<polygon fill="#0000ff" stroke="#0000ff" points="388.1092,-469.8971 377.5189,-469.5865 385.604,-476.4335 388.1092,-469.8971"/>
<text text-anchor="middle" x="491.2416" y="-492.8" font-family="Times,serif" font-size="14.00" fill="#0000ff">expression</text>
</g>
<!-- #18 CFG_F_END __main__ -->
<g id="node9" class="node">
<title>#18 CFG_F_END __main__</title>
<ellipse fill="none" stroke="#ff0000" cx="573.2416" cy="-453" rx="113.18" ry="18"/>
<text text-anchor="middle" x="573.2416" y="-449.3" font-family="Times,serif" font-size="14.00" fill="#ff0000">#18 CFG_F_END __main__</text>
</g>
<!-- #11 ExpressionStatement&#45;&gt;#18 CFG_F_END __main__ -->
<g id="edge8" class="edge">
<title>#11 ExpressionStatement&#45;&gt;#18 CFG_F_END __main__</title>
<path fill="none" stroke="#ff0000" d="M563.728,-521.9735C565.3531,-510.1918 567.5091,-494.5607 569.3578,-481.1581"/>
<polygon fill="#ff0000" stroke="#ff0000" points="572.8591,-481.3878 570.7584,-471.0034 565.9248,-480.4313 572.8591,-481.3878"/>
</g>
<!-- #17 CFG_F_START __main__ -->
<g id="node4" class="node">
<title>#17 CFG_F_START __main__</title>
<ellipse fill="none" stroke="#ff0000" cx="754.2416" cy="-714" rx="122.6784" ry="18"/>
<text text-anchor="middle" x="754.2416" y="-710.3" font-family="Times,serif" font-size="14.00" fill="#ff0000">#17 CFG_F_START __main__</text>
</g>
<!-- #17 CFG_F_START __main__&#45;&gt;#1 Variable (f) -->
<g id="edge3" class="edge">
<title>#17 CFG_F_START __main__&#45;&gt;#1 Variable (f)</title>
<path fill="none" stroke="#ff0000" d="M746.9896,-695.9735C742.156,-683.9585 735.7118,-667.9401 730.2504,-654.3646"/>
<polygon fill="#ff0000" stroke="#ff0000" points="733.4638,-652.9744 726.4844,-645.0034 726.9696,-655.5871 733.4638,-652.9744"/>
</g>
<!-- #19 CFG_F_START 2_anon -->
<g id="node5" class="node">
<title>#19 CFG_F_START 2_anon</title>
<ellipse fill="none" stroke="#ff0000" cx="850.2416" cy="-366" rx="113.18" ry="18"/>
<text text-anchor="middle" x="850.2416" y="-362.3" font-family="Times,serif" font-size="14.00" fill="#ff0000">#19 CFG_F_START 2_anon</text>
</g>
<!-- #4 Variable (v1) -->
<g id="node6" class="node">
<title>#4 Variable (v1)</title>
<ellipse fill="none" stroke="#000000" cx="838.2416" cy="-279" rx="69.5877" ry="18"/>
<text text-anchor="middle" x="838.2416" y="-275.3" font-family="Times,serif" font-size="14.00" fill="#000000">#4 Variable (v1)</text>
</g>
<!-- #19 CFG_F_START 2_anon&#45;&gt;#4 Variable (v1) -->
<g id="edge4" class="edge">
<title>#19 CFG_F_START 2_anon&#45;&gt;#4 Variable (v1)</title>
<path fill="none" stroke="#ff0000" d="M847.7552,-347.9735C846.1302,-336.1918 843.9741,-320.5607 842.1255,-307.1581"/>
<polygon fill="#ff0000" stroke="#ff0000" points="845.5585,-306.4313 840.7249,-297.0034 838.6241,-307.3878 845.5585,-306.4313"/>
</g>
<!-- #5 CallExpression -->
<g id="node10" class="node">
<title>#5 CallExpression</title>
<ellipse fill="none" stroke="#000000" cx="922.2416" cy="-192" rx="75.2868" ry="18"/>
<text text-anchor="middle" x="922.2416" y="-188.3" font-family="Times,serif" font-size="14.00" fill="#000000">#5 CallExpression</text>
</g>
<!-- #4 Variable (v1)&#45;&gt;#5 CallExpression -->
<g id="edge9" class="edge">
<title>#4 Variable (v1)&#45;&gt;#5 CallExpression</title>
<path fill="none" stroke="#0000ff" d="M855.2403,-261.3943C867.5368,-248.6586 884.3286,-231.2671 898.0255,-217.081"/>
<polygon fill="#0000ff" stroke="#0000ff" points="900.8402,-219.2047 905.2683,-209.5796 895.8044,-214.3425 900.8402,-219.2047"/>
<text text-anchor="middle" x="894.7416" y="-231.8" font-family="Times,serif" font-size="14.00" fill="#0000ff">init</text>
</g>
<!-- #8 ReturnStatement -->
<g id="node11" class="node">
<title>#8 ReturnStatement</title>
<ellipse fill="none" stroke="#000000" cx="734.2416" cy="-105" rx="81.4863" ry="18"/>
<text text-anchor="middle" x="734.2416" y="-101.3" font-family="Times,serif" font-size="14.00" fill="#000000">#8 ReturnStatement</text>
</g>
<!-- #4 Variable (v1)&#45;&gt;#8 ReturnStatement -->
<g id="edge10" class="edge">
<title>#4 Variable (v1)&#45;&gt;#8 ReturnStatement</title>
<path fill="none" stroke="#ff0000" d="M834.6136,-260.8096C828.2959,-232.7321 813.1033,-178.197 784.2416,-141 780.629,-136.3441 776.2556,-132.0248 771.6161,-128.1129"/>
<polygon fill="#ff0000" stroke="#ff0000" points="773.6905,-125.2924 763.6445,-121.9266 769.3989,-130.8225 773.6905,-125.2924"/>
</g>
<!-- #23 v1&#45;o3 -->
<g id="node12" class="node">
<title>#23 v1&#45;o3</title>
<ellipse fill="none" stroke="#006400" cx="734.2416" cy="-192" rx="46.5926" ry="18"/>
<text text-anchor="middle" x="734.2416" y="-188.3" font-family="Times,serif" font-size="14.00" fill="#006400">#23 v1&#45;o3</text>
</g>
<!-- #4 Variable (v1)&#45;&gt;#23 v1&#45;o3 -->
<g id="edge11" class="edge">
<title>#4 Variable (v1)&#45;&gt;#23 v1&#45;o3</title>
<path fill="none" stroke="#006400" d="M786.7185,-266.8653C764.3858,-260.4764 741.8274,-252.0882 735.2416,-243 730.5445,-236.5181 729.0397,-228.2553 729.0585,-220.2774"/>
<polygon fill="#006400" stroke="#006400" points="732.562,-220.3614 729.8205,-210.1275 725.5816,-219.8374 732.562,-220.3614"/>
<text text-anchor="middle" x="770.2416" y="-231.8" font-family="Times,serif" font-size="14.00" fill="#006400">CREATE v1</text>
</g>
<!-- #3 Identifier (x) -->
<g id="node13" class="node">
<title>#3 Identifier (x)</title>
<ellipse fill="none" stroke="#000000" cx="943.2416" cy="-453" rx="67.6881" ry="18"/>
<text text-anchor="middle" x="943.2416" y="-449.3" font-family="Times,serif" font-size="14.00" fill="#000000">#3 Identifier (x)</text>
</g>
<!-- #2 Function (anon)&#45;&gt;#3 Identifier (x) -->
<g id="edge12" class="edge">
<title>#2 Function (anon)&#45;&gt;#3 Identifier (x)</title>
<path fill="none" stroke="#0000ff" d="M793.0387,-523.636C823.5233,-509.3 867.9295,-488.4171 900.5544,-473.0746"/>
<polygon fill="#0000ff" stroke="#0000ff" points="902.2868,-476.1276 909.8467,-468.7047 899.3079,-469.7931 902.2868,-476.1276"/>
<text text-anchor="middle" x="884.2416" y="-492.8" font-family="Times,serif" font-size="14.00" fill="#0000ff">param 1</text>
</g>
<!-- #10 BlockStatement -->
<g id="node14" class="node">
<title>#10 BlockStatement</title>
<ellipse fill="none" stroke="#000000" cx="636.2416" cy="-366" rx="83.3857" ry="18"/>
<text text-anchor="middle" x="636.2416" y="-362.3" font-family="Times,serif" font-size="14.00" fill="#000000">#10 BlockStatement</text>
</g>
<!-- #2 Function (anon)&#45;&gt;#10 BlockStatement -->
<g id="edge13" class="edge">
<title>#2 Function (anon)&#45;&gt;#10 BlockStatement</title>
<path fill="none" stroke="#0000ff" d="M748.6313,-521.9647C736.9638,-500.5781 716.2312,-464.1582 695.2416,-435 684.3371,-419.8517 670.896,-403.9532 659.5985,-391.2401"/>
<polygon fill="#0000ff" stroke="#0000ff" points="662.1718,-388.8672 652.8831,-383.7711 656.9664,-393.5475 662.1718,-388.8672"/>
<text text-anchor="middle" x="734.7416" y="-449.3" font-family="Times,serif" font-size="14.00" fill="#0000ff">block</text>
</g>
<!-- #13 MemberExpression -->
<g id="node15" class="node">
<title>#13 MemberExpression</title>
<ellipse fill="none" stroke="#000000" cx="196.2416" cy="-366" rx="96.3833" ry="18"/>
<text text-anchor="middle" x="196.2416" y="-362.3" font-family="Times,serif" font-size="14.00" fill="#000000">#13 MemberExpression</text>
</g>
<!-- #12 AssignmentExpression&#45;&gt;#13 MemberExpression -->
<g id="edge14" class="edge">
<title>#12 AssignmentExpression&#45;&gt;#13 MemberExpression</title>
<path fill="none" stroke="#0000ff" d="M306.3153,-435.3943C284.9455,-421.922 255.3114,-403.2397 232.1742,-388.6531"/>
<polygon fill="#0000ff" stroke="#0000ff" points="233.9814,-385.655 223.6555,-383.2827 230.2482,-391.5765 233.9814,-385.655"/>
<text text-anchor="middle" x="283.7416" y="-405.8" font-family="Times,serif" font-size="14.00" fill="#0000ff">left</text>
</g>
<!-- #16 Identifier (f) -->
<g id="node16" class="node">
<title>#16 Identifier (f)</title>
<ellipse fill="none" stroke="#000000" cx="380.2416" cy="-366" rx="70.3881" ry="18"/>
<text text-anchor="middle" x="380.2416" y="-362.3" font-family="Times,serif" font-size="14.00" fill="#000000">#16 Identifier (f)</text>
</g>
<!-- #12 AssignmentExpression&#45;&gt;#16 Identifier (f) -->
<g id="edge15" class="edge">
<title>#12 AssignmentExpression&#45;&gt;#16 Identifier (f)</title>
<path fill="none" stroke="#0000ff" d="M343.7729,-434.9735C350.1873,-422.8418 358.7598,-406.6287 365.9817,-392.9698"/>
<polygon fill="#0000ff" stroke="#0000ff" points="369.1425,-394.4797 370.7226,-384.0034 362.9542,-391.2077 369.1425,-394.4797"/>
<text text-anchor="middle" x="373.2416" y="-405.8" font-family="Times,serif" font-size="14.00" fill="#0000ff">right</text>
</g>
<!-- #6 Identifier (eval) -->
<g id="node17" class="node">
<title>#6 Identifier (eval)</title>
<ellipse fill="none" stroke="#000000" cx="1074.2416" cy="-105" rx="77.1866" ry="18"/>
<text text-anchor="middle" x="1074.2416" y="-101.3" font-family="Times,serif" font-size="14.00" fill="#000000">#6 Identifier (eval)</text>
</g>
<!-- #5 CallExpression&#45;&gt;#6 Identifier (eval) -->
<g id="edge16" class="edge">
<title>#5 CallExpression&#45;&gt;#6 Identifier (eval)</title>
<path fill="none" stroke="#0000ff" d="M951.5488,-175.2255C975.6257,-161.4446 1009.9107,-141.821 1036.1205,-126.8193"/>
<polygon fill="#0000ff" stroke="#0000ff" points="1038.0842,-129.7282 1045.0245,-121.723 1034.6069,-123.6529 1038.0842,-129.7282"/>
<text text-anchor="middle" x="1023.2416" y="-144.8" font-family="Times,serif" font-size="14.00" fill="#0000ff">callee</text>
</g>
<!-- #7 Identifier (x) -->
<g id="node18" class="node">
<title>#7 Identifier (x)</title>
<ellipse fill="none" stroke="#000000" cx="911.2416" cy="-105" rx="67.6881" ry="18"/>
<text text-anchor="middle" x="911.2416" y="-101.3" font-family="Times,serif" font-size="14.00" fill="#000000">#7 Identifier (x)</text>
</g>
<!-- #5 CallExpression&#45;&gt;#7 Identifier (x) -->
<g id="edge17" class="edge">
<title>#5 CallExpression&#45;&gt;#7 Identifier (x)</title>
<path fill="none" stroke="#0000ff" d="M919.9624,-173.9735C918.4728,-162.1918 916.4964,-146.5607 914.8019,-133.1581"/>
<polygon fill="#0000ff" stroke="#0000ff" points="918.2447,-132.4853 913.5179,-123.0034 911.3,-133.3634 918.2447,-132.4853"/>
<text text-anchor="middle" x="931.2416" y="-144.8" font-family="Times,serif" font-size="14.00" fill="#0000ff">arg 1</text>
</g>
<!-- #9 Identifier (v1) -->
<g id="node19" class="node">
<title>#9 Identifier (v1)</title>
<ellipse fill="none" stroke="#000000" cx="638.2416" cy="-18" rx="71.4873" ry="18"/>
<text text-anchor="middle" x="638.2416" y="-14.3" font-family="Times,serif" font-size="14.00" fill="#000000">#9 Identifier (v1)</text>
</g>
<!-- #8 ReturnStatement&#45;&gt;#9 Identifier (v1) -->
<g id="edge18" class="edge">
<title>#8 ReturnStatement&#45;&gt;#9 Identifier (v1)</title>
<path fill="none" stroke="#0000ff" d="M714.8146,-87.3943C700.5012,-74.4228 680.8583,-56.6213 665.0513,-42.2962"/>
<polygon fill="#0000ff" stroke="#0000ff" points="667.4,-39.7013 657.6398,-35.5796 662.6993,-44.8883 667.4,-39.7013"/>
<text text-anchor="middle" x="718.2416" y="-57.8" font-family="Times,serif" font-size="14.00" fill="#0000ff">argument</text>
</g>
<!-- #20 CFG_F_END 2_anon -->
<g id="node20" class="node">
<title>#20 CFG_F_END 2_anon</title>
<ellipse fill="none" stroke="#ff0000" cx="831.2416" cy="-18" rx="103.1819" ry="18"/>
<text text-anchor="middle" x="831.2416" y="-14.3" font-family="Times,serif" font-size="14.00" fill="#ff0000">#20 CFG_F_END 2_anon</text>
</g>
<!-- #8 ReturnStatement&#45;&gt;#20 CFG_F_END 2_anon -->
<g id="edge19" class="edge">
<title>#8 ReturnStatement&#45;&gt;#20 CFG_F_END 2_anon</title>
<path fill="none" stroke="#ff0000" d="M753.871,-87.3943C768.2384,-74.5081 787.9201,-56.8554 803.837,-42.5794"/>
<polygon fill="#ff0000" stroke="#ff0000" points="806.201,-45.1607 811.3085,-35.8782 801.5272,-39.9496 806.201,-45.1607"/>
</g>
<!-- #23 v1&#45;o3&#45;&gt;#8 ReturnStatement -->
<g id="edge20" class="edge">
<title>#23 v1&#45;o3&#45;&gt;#8 ReturnStatement</title>
<path fill="none" stroke="#006400" d="M734.2416,-173.9735C734.2416,-162.1918 734.2416,-146.5607 734.2416,-133.1581"/>
<polygon fill="#006400" stroke="#006400" points="737.7417,-133.0033 734.2416,-123.0034 730.7417,-133.0034 737.7417,-133.0033"/>
<text text-anchor="middle" x="757.2416" y="-144.8" font-family="Times,serif" font-size="14.00" fill="#006400">VAR v1</text>
</g>
<!-- #21 x&#45;o2 -->
<g id="node21" class="node">
<title>#21 x&#45;o2</title>
<ellipse fill="none" stroke="#006400" cx="1023.2416" cy="-366" rx="42.4939" ry="18"/>
<text text-anchor="middle" x="1023.2416" y="-362.3" font-family="Times,serif" font-size="14.00" fill="#006400">#21 x&#45;o2</text>
</g>
<!-- #3 Identifier (x)&#45;&gt;#21 x&#45;o2 -->
<g id="edge21" class="edge">
<title>#3 Identifier (x)&#45;&gt;#21 x&#45;o2</title>
<path fill="none" stroke="#006400" d="M959.4308,-435.3943C971.2959,-422.491 987.5556,-404.8086 1000.692,-390.5227"/>
<polygon fill="#006400" stroke="#006400" points="1003.4286,-392.7176 1007.621,-382.9875 998.2759,-387.9794 1003.4286,-392.7176"/>
<text text-anchor="middle" x="1019.2416" y="-405.8" font-family="Times,serif" font-size="14.00" fill="#006400">CREATE x</text>
</g>
<!-- #10 BlockStatement&#45;&gt;#4 Variable (v1) -->
<g id="edge22" class="edge">
<title>#10 BlockStatement&#45;&gt;#4 Variable (v1)</title>
<path fill="none" stroke="#0000ff" d="M673.7629,-349.8399C707.4879,-335.3147 757.0927,-313.9503 793.0016,-298.4846"/>
<polygon fill="#0000ff" stroke="#0000ff" points="794.4792,-301.6591 802.2791,-294.4888 791.7102,-295.23 794.4792,-301.6591"/>
<text text-anchor="middle" x="753.7416" y="-318.8" font-family="Times,serif" font-size="14.00" fill="#0000ff">1</text>
</g>
<!-- #10 BlockStatement&#45;&gt;#8 ReturnStatement -->
<g id="edge23" class="edge">
<title>#10 BlockStatement&#45;&gt;#8 ReturnStatement</title>
<path fill="none" stroke="#0000ff" d="M637.4094,-347.8939C640.265,-312.7436 649.6084,-233.4934 678.2416,-174 685.9255,-158.0348 697.9852,-142.5076 708.9483,-130.2385"/>
<polygon fill="#0000ff" stroke="#0000ff" points="711.7216,-132.3945 715.9373,-122.6745 706.5802,-127.644 711.7216,-132.3945"/>
<text text-anchor="middle" x="661.7416" y="-231.8" font-family="Times,serif" font-size="14.00" fill="#0000ff">2</text>
</g>
<!-- #14 Identifier (module) -->
<g id="node22" class="node">
<title>#14 Identifier (module)</title>
<ellipse fill="none" stroke="#000000" cx="94.2416" cy="-279" rx="94.4839" ry="18"/>
<text text-anchor="middle" x="94.2416" y="-275.3" font-family="Times,serif" font-size="14.00" fill="#000000">#14 Identifier (module)</text>
</g>
<!-- #13 MemberExpression&#45;&gt;#14 Identifier (module) -->
<g id="edge24" class="edge">
<title>#13 MemberExpression&#45;&gt;#14 Identifier (module)</title>
<path fill="none" stroke="#0000ff" d="M175.6004,-348.3943C160.3925,-335.4228 139.5218,-317.6213 122.7269,-303.2962"/>
<polygon fill="#0000ff" stroke="#0000ff" points="124.7318,-300.4061 114.8522,-296.5796 120.1892,-305.732 124.7318,-300.4061"/>
<text text-anchor="middle" x="169.2416" y="-318.8" font-family="Times,serif" font-size="14.00" fill="#0000ff">object</text>
</g>
<!-- #15 Identifier (exports) -->
<g id="node23" class="node">
<title>#15 Identifier (exports)</title>
<ellipse fill="none" stroke="#000000" cx="299.2416" cy="-279" rx="92.8835" ry="18"/>
<text text-anchor="middle" x="299.2416" y="-275.3" font-family="Times,serif" font-size="14.00" fill="#000000">#15 Identifier (exports)</text>
</g>
<!-- #13 MemberExpression&#45;&gt;#15 Identifier (exports) -->
<g id="edge25" class="edge">
<title>#13 MemberExpression&#45;&gt;#15 Identifier (exports)</title>
<path fill="none" stroke="#0000ff" d="M217.0852,-348.3943C232.4423,-335.4228 253.5175,-317.6213 270.4771,-303.2962"/>
<polygon fill="#0000ff" stroke="#0000ff" points="273.048,-305.7062 278.429,-296.5796 268.5311,-300.3585 273.048,-305.7062"/>
<text text-anchor="middle" x="277.2416" y="-318.8" font-family="Times,serif" font-size="14.00" fill="#0000ff">property</text>
</g>
<!-- #21 x&#45;o2&#45;&gt;#4 Variable (v1) -->
<g id="edge26" class="edge">
<title>#21 x&#45;o2&#45;&gt;#4 Variable (v1)</title>
<path fill="none" stroke="#006400" d="M994.7408,-352.5969C964.4458,-338.3501 916.1866,-315.6552 881.2623,-299.2313"/>
<polygon fill="#006400" stroke="#006400" points="882.3303,-295.8659 871.7915,-294.7775 879.3513,-302.2004 882.3303,-295.8659"/>
<text text-anchor="middle" x="961.2416" y="-318.8" font-family="Times,serif" font-size="14.00" fill="#006400">VAR x</text>
</g>
</g>
</svg>
