<?xml version="1.0" encoding="UTF-8" standalone="no"?>
<!DOCTYPE svg PUBLIC "-//W3C//DTD SVG 1.1//EN"
 "http://www.w3.org/Graphics/SVG/1.1/DTD/svg11.dtd">
<!-- Generated by graphviz version 2.40.1 (20161225.0304)
 -->
<!-- Title: G Pages: 1 -->
<svg width="810pt" height="1025pt"
 viewBox="0.00 0.00 810.09 1025.00" xmlns="http://www.w3.org/2000/svg" xmlns:xlink="http://www.w3.org/1999/xlink">
<g id="graph0" class="graph" transform="scale(1 1) rotate(0) translate(4 1021)">
<title>G</title>
<polygon fill="#ffffff" stroke="transparent" points="-4,4 -4,-1021 806.09,-1021 806.09,4 -4,4"/>
<!-- #39 CFG_F_START __main__ -->
<g id="node1" class="node">
<title>#39 CFG_F_START __main__</title>
<ellipse fill="none" stroke="#ff0000" cx="548" cy="-999" rx="122.6784" ry="18"/>
<text text-anchor="middle" x="548" y="-995.3" font-family="Times,serif" font-size="14.00" fill="#ff0000">#39 CFG_F_START __main__</text>
</g>
<!-- #1» f = Function (__2_anon__) &#45; (39) -->
<g id="node2" class="node">
<title>#1» f = Function (__2_anon__) &#45; (39)</title>
<ellipse fill="none" stroke="#000000" cx="548" cy="-926" rx="144.8743" ry="18"/>
<text text-anchor="middle" x="548" y="-922.3" font-family="Times,serif" font-size="14.00" fill="#000000">#1» f = Function (__2_anon__) &#45; (39)</text>
</g>
<!-- #39 CFG_F_START __main__&#45;&gt;#1» f = Function (__2_anon__) &#45; (39) -->
<g id="edge1" class="edge">
<title>#39 CFG_F_START __main__&#45;&gt;#1» f = Function (__2_anon__) &#45; (39)</title>
<path fill="none" stroke="#ff0000" d="M548,-980.9551C548,-972.8828 548,-963.1764 548,-954.1817"/>
<polygon fill="#ff0000" stroke="#ff0000" points="551.5001,-954.0903 548,-944.0904 544.5001,-954.0904 551.5001,-954.0903"/>
</g>
<!-- #41 CFG_F_START 2_anon -->
<g id="node3" class="node">
<title>#41 CFG_F_START 2_anon</title>
<ellipse fill="none" stroke="#ff0000" cx="356" cy="-839" rx="113.18" ry="18"/>
<text text-anchor="middle" x="356" y="-835.3" font-family="Times,serif" font-size="14.00" fill="#ff0000">#41 CFG_F_START 2_anon</text>
</g>
<!-- #1» f = Function (__2_anon__) &#45; (39)&#45;&gt;#41 CFG_F_START 2_anon -->
<g id="edge4" class="edge">
<title>#1» f = Function (__2_anon__) &#45; (39)&#45;&gt;#41 CFG_F_START 2_anon</title>
<path fill="none" stroke="#000000" d="M509.6074,-908.6033C478.9298,-894.7026 435.7977,-875.1583 403.0455,-860.3175"/>
<polygon fill="#000000" stroke="#000000" points="404.2249,-857.0094 393.6718,-856.07 401.3357,-863.3854 404.2249,-857.0094"/>
<text text-anchor="middle" x="473" y="-878.8" font-family="Times,serif" font-size="14.00" fill="#000000">FD</text>
</g>
<!-- #45 41.o&#45;o1 -->
<g id="node6" class="node">
<title>#45 41.o&#45;o1</title>
<ellipse fill="none" stroke="#006400" cx="548" cy="-606" rx="53.8905" ry="18"/>
<text text-anchor="middle" x="548" y="-602.3" font-family="Times,serif" font-size="14.00" fill="#006400">#45 41.o&#45;o1</text>
</g>
<!-- #1» f = Function (__2_anon__) &#45; (39)&#45;&gt;#45 41.o&#45;o1 -->
<g id="edge6" class="edge">
<title>#1» f = Function (__2_anon__) &#45; (39)&#45;&gt;#45 41.o&#45;o1</title>
<path fill="none" stroke="#000000" stroke-dasharray="5,2" d="M548,-907.6694C548,-890.0629 548,-862.7135 548,-839 548,-839 548,-839 548,-693 548,-673.5475 548,-651.6484 548,-634.6877"/>
<polygon fill="#000000" stroke="#000000" points="551.5001,-634.3305 548,-624.3306 544.5001,-634.3306 551.5001,-634.3305"/>
</g>
<!-- #40 CFG_F_END __main__ -->
<g id="node7" class="node">
<title>#40 CFG_F_END __main__</title>
<ellipse fill="none" stroke="#ff0000" cx="689" cy="-839" rx="113.18" ry="18"/>
<text text-anchor="middle" x="689" y="-835.3" font-family="Times,serif" font-size="14.00" fill="#ff0000">#40 CFG_F_END __main__</text>
</g>
<!-- #1» f = Function (__2_anon__) &#45; (39)&#45;&gt;#40 CFG_F_END __main__ -->
<g id="edge5" class="edge">
<title>#1» f = Function (__2_anon__) &#45; (39)&#45;&gt;#40 CFG_F_END __main__</title>
<path fill="none" stroke="#ff0000" d="M576.8737,-908.1843C598.5921,-894.7836 628.5219,-876.3163 651.9965,-861.8319"/>
<polygon fill="#ff0000" stroke="#ff0000" points="653.9743,-864.7243 660.6467,-856.4946 650.2985,-858.767 653.9743,-864.7243"/>
</g>
<!-- #4» x = o.x -->
<g id="node4" class="node">
<title>#4» x = o.x</title>
<ellipse fill="none" stroke="#000000" cx="150" cy="-766" rx="51.9908" ry="18"/>
<text text-anchor="middle" x="150" y="-762.3" font-family="Times,serif" font-size="14.00" fill="#000000">#4» x = o.x</text>
</g>
<!-- #41 CFG_F_START 2_anon&#45;&gt;#4» x = o.x -->
<g id="edge2" class="edge">
<title>#41 CFG_F_START 2_anon&#45;&gt;#4» x = o.x</title>
<path fill="none" stroke="#ff0000" d="M309.5127,-822.5264C275.599,-810.5084 229.8464,-794.2951 196.0379,-782.3144"/>
<polygon fill="#ff0000" stroke="#ff0000" points="196.9927,-778.9395 186.3979,-778.8983 194.6545,-785.5375 196.9927,-778.9395"/>
</g>
<!-- #8 IfStatement (41) -->
<g id="node8" class="node">
<title>#8 IfStatement (41)</title>
<ellipse fill="none" stroke="#000000" cx="150" cy="-693" rx="80.6858" ry="18"/>
<text text-anchor="middle" x="150" y="-689.3" font-family="Times,serif" font-size="14.00" fill="#000000">#8 IfStatement (41)</text>
</g>
<!-- #4» x = o.x&#45;&gt;#8 IfStatement (41) -->
<g id="edge7" class="edge">
<title>#4» x = o.x&#45;&gt;#8 IfStatement (41)</title>
<path fill="none" stroke="#ff0000" d="M150,-747.9551C150,-739.8828 150,-730.1764 150,-721.1817"/>
<polygon fill="#ff0000" stroke="#ff0000" points="153.5001,-721.0903 150,-711.0904 146.5001,-721.0904 153.5001,-721.0903"/>
</g>
<!-- #46 41.o&#45;o1.x&#45;o2 -->
<g id="node9" class="node">
<title>#46 41.o&#45;o1.x&#45;o2</title>
<ellipse fill="none" stroke="#006400" cx="300" cy="-178" rx="72.2875" ry="18"/>
<text text-anchor="middle" x="300" y="-174.3" font-family="Times,serif" font-size="14.00" fill="#006400">#46 41.o&#45;o1.x&#45;o2</text>
</g>
<!-- #4» x = o.x&#45;&gt;#46 41.o&#45;o1.x&#45;o2 -->
<g id="edge8" class="edge">
<title>#4» x = o.x&#45;&gt;#46 41.o&#45;o1.x&#45;o2</title>
<path fill="none" stroke="#000000" stroke-dasharray="5,2" d="M109.0118,-754.6765C64.5996,-741.1639 0,-717.328 0,-693 0,-693 0,-693 0,-251 0,-205.8378 129.9784,-188.5014 218.8249,-181.9265"/>
<polygon fill="#000000" stroke="#000000" points="219.1762,-185.4105 228.9042,-181.2133 218.6821,-178.4279 219.1762,-185.4105"/>
</g>
<!-- #44 TAINT_SOURCE -->
<g id="node5" class="node">
<title>#44 TAINT_SOURCE</title>
<ellipse fill="none" stroke="#8b6914" cx="428" cy="-693" rx="91.784" ry="18"/>
<text text-anchor="middle" x="428" y="-689.3" font-family="Times,serif" font-size="14.00" fill="#8b6914">#44 TAINT_SOURCE</text>
</g>
<!-- #44 TAINT_SOURCE&#45;&gt;#45 41.o&#45;o1 -->
<g id="edge3" class="edge">
<title>#44 TAINT_SOURCE&#45;&gt;#45 41.o&#45;o1</title>
<path fill="none" stroke="#006400" d="M449.6065,-675.2914C462.087,-665.2549 478.1997,-652.6204 493,-642 499.6498,-637.2283 506.8903,-632.3047 513.8687,-627.6889"/>
<polygon fill="#006400" stroke="#006400" points="516.0504,-630.4441 522.5037,-622.0413 512.2189,-624.5858 516.0504,-630.4441"/>
<text text-anchor="middle" x="513.5" y="-645.8" font-family="Times,serif" font-size="14.00" fill="#006400">TAINT</text>
</g>
<!-- #45 41.o&#45;o1&#45;&gt;#46 41.o&#45;o1.x&#45;o2 -->
<g id="edge9" class="edge">
<title>#45 41.o&#45;o1&#45;&gt;#46 41.o&#45;o1.x&#45;o2</title>
<path fill="none" stroke="#006400" d="M577.141,-590.5043C600.7102,-575.6297 630,-550.7564 630,-519 630,-519 630,-519 630,-251 630,-194.3329 436.3255,-208.2575 381,-196 375.4138,-194.7624 369.6111,-193.4755 363.7937,-192.1844"/>
<polygon fill="#006400" stroke="#006400" points="364.5459,-188.7662 354.025,-190.0156 363.0287,-195.5999 364.5459,-188.7662"/>
<text text-anchor="middle" x="647" y="-363.8" font-family="Times,serif" font-size="14.00" fill="#006400">SO(x)</text>
</g>
<!-- #47 41.o&#45;o3 -->
<g id="node10" class="node">
<title>#47 41.o&#45;o3</title>
<ellipse fill="none" stroke="#006400" cx="561" cy="-465" rx="53.8905" ry="18"/>
<text text-anchor="middle" x="561" y="-461.3" font-family="Times,serif" font-size="14.00" fill="#006400">#47 41.o&#45;o3</text>
</g>
<!-- #45 41.o&#45;o1&#45;&gt;#47 41.o&#45;o3 -->
<g id="edge10" class="edge">
<title>#45 41.o&#45;o1&#45;&gt;#47 41.o&#45;o3</title>
<path fill="none" stroke="#006400" d="M553.1295,-587.8012C554.5692,-582.1367 556.01,-575.8437 557,-570 561.3333,-544.4218 562.0866,-514.8593 561.9001,-493.6324"/>
<polygon fill="#006400" stroke="#006400" points="565.3951,-493.2982 561.7309,-483.3572 558.3961,-493.4135 565.3951,-493.2982"/>
<text text-anchor="middle" x="578" y="-558.8" font-family="Times,serif" font-size="14.00" fill="#006400">NV(y)</text>
</g>
<!-- #49 41.o&#45;o5 -->
<g id="node11" class="node">
<title>#49 41.o&#45;o5</title>
<ellipse fill="none" stroke="#006400" cx="497" cy="-519" rx="53.8905" ry="18"/>
<text text-anchor="middle" x="497" y="-515.3" font-family="Times,serif" font-size="14.00" fill="#006400">#49 41.o&#45;o5</text>
</g>
<!-- #45 41.o&#45;o1&#45;&gt;#49 41.o&#45;o5 -->
<g id="edge11" class="edge">
<title>#45 41.o&#45;o1&#45;&gt;#49 41.o&#45;o5</title>
<path fill="none" stroke="#006400" d="M531.5978,-588.4978C526.827,-582.8616 521.8654,-576.4095 518,-570 513.619,-562.7356 509.7553,-554.3912 506.5754,-546.5843"/>
<polygon fill="#006400" stroke="#006400" points="509.7851,-545.1796 502.9259,-537.1048 503.2525,-547.6946 509.7851,-545.1796"/>
<text text-anchor="middle" x="537.5" y="-558.8" font-family="Times,serif" font-size="14.00" fill="#006400">NV(w)</text>
</g>
<!-- #9 Identifier (x) &#45; (41) -->
<g id="node12" class="node">
<title>#9 Identifier (x) &#45; (41)</title>
<ellipse fill="none" stroke="#000000" cx="150" cy="-606" rx="89.8845" ry="18"/>
<text text-anchor="middle" x="150" y="-602.3" font-family="Times,serif" font-size="14.00" fill="#000000">#9 Identifier (x) &#45; (41)</text>
</g>
<!-- #8 IfStatement (41)&#45;&gt;#9 Identifier (x) &#45; (41) -->
<g id="edge12" class="edge">
<title>#8 IfStatement (41)&#45;&gt;#9 Identifier (x) &#45; (41)</title>
<path fill="none" stroke="#ff0000" d="M150,-674.9735C150,-663.1918 150,-647.5607 150,-634.1581"/>
<polygon fill="#ff0000" stroke="#ff0000" points="153.5001,-634.0033 150,-624.0034 146.5001,-634.0034 153.5001,-634.0033"/>
<text text-anchor="middle" x="159.5" y="-645.8" font-family="Times,serif" font-size="14.00" fill="#ff0000">test</text>
</g>
<!-- #51 41.v2&#45;o7 -->
<g id="node13" class="node">
<title>#51 41.v2&#45;o7</title>
<ellipse fill="none" stroke="#006400" cx="413" cy="-91" rx="57.6901" ry="18"/>
<text text-anchor="middle" x="413" y="-87.3" font-family="Times,serif" font-size="14.00" fill="#006400">#51 41.v2&#45;o7</text>
</g>
<!-- #46 41.o&#45;o1.x&#45;o2&#45;&gt;#51 41.v2&#45;o7 -->
<g id="edge13" class="edge">
<title>#46 41.o&#45;o1.x&#45;o2&#45;&gt;#51 41.v2&#45;o7</title>
<path fill="none" stroke="#006400" d="M322.3252,-160.8116C339.694,-147.4391 363.9647,-128.7529 383.0253,-114.0778"/>
<polygon fill="#006400" stroke="#006400" points="385.3173,-116.7305 391.1057,-107.8567 381.0469,-111.1839 385.3173,-116.7305"/>
<text text-anchor="middle" x="388.5" y="-130.8" font-family="Times,serif" font-size="14.00" fill="#006400">DEP(v1)</text>
</g>
<!-- #52 TAINT_SINK (eval) -->
<g id="node14" class="node">
<title>#52 TAINT_SINK (eval)</title>
<ellipse fill="none" stroke="#8b6914" cx="236" cy="-91" rx="100.9827" ry="18"/>
<text text-anchor="middle" x="236" y="-87.3" font-family="Times,serif" font-size="14.00" fill="#8b6914">#52 TAINT_SINK (eval)</text>
</g>
<!-- #46 41.o&#45;o1.x&#45;o2&#45;&gt;#52 TAINT_SINK (eval) -->
<g id="edge14" class="edge">
<title>#46 41.o&#45;o1.x&#45;o2&#45;&gt;#52 TAINT_SINK (eval)</title>
<path fill="none" stroke="#006400" d="M275.2911,-160.7674C268.726,-155.3259 262.0628,-148.912 257,-142 251.851,-134.9704 247.7091,-126.4942 244.5089,-118.488"/>
<polygon fill="#006400" stroke="#006400" points="247.7912,-117.2726 241.0681,-109.0842 241.2175,-119.678 247.7912,-117.2726"/>
<text text-anchor="middle" x="281.5" y="-130.8" font-family="Times,serif" font-size="14.00" fill="#006400">DEP(v1)</text>
</g>
<!-- #48 41.o&#45;o3.y&#45;o4 -->
<g id="node15" class="node">
<title>#48 41.o&#45;o3.y&#45;o4</title>
<ellipse fill="none" stroke="#006400" cx="149" cy="-251" rx="72.2875" ry="18"/>
<text text-anchor="middle" x="149" y="-247.3" font-family="Times,serif" font-size="14.00" fill="#006400">#48 41.o&#45;o3.y&#45;o4</text>
</g>
<!-- #47 41.o&#45;o3&#45;&gt;#48 41.o&#45;o3.y&#45;o4 -->
<g id="edge15" class="edge">
<title>#47 41.o&#45;o3&#45;&gt;#48 41.o&#45;o3.y&#45;o4</title>
<path fill="none" stroke="#006400" d="M560.5557,-446.9909C559.2512,-431.0571 555.0202,-408.0612 542,-393 497.9656,-342.0629 311.1634,-290.3357 211.7864,-265.7452"/>
<polygon fill="#006400" stroke="#006400" points="212.4125,-262.295 201.8662,-263.3088 210.7428,-269.093 212.4125,-262.295"/>
<text text-anchor="middle" x="537" y="-363.8" font-family="Times,serif" font-size="14.00" fill="#006400">SO(y)</text>
</g>
<!-- #50 41.o&#45;o5.w&#45;o6 -->
<g id="node16" class="node">
<title>#50 41.o&#45;o5.w&#45;o6</title>
<ellipse fill="none" stroke="#006400" cx="459" cy="-411" rx="74.187" ry="18"/>
<text text-anchor="middle" x="459" y="-407.3" font-family="Times,serif" font-size="14.00" fill="#006400">#50 41.o&#45;o5.w&#45;o6</text>
</g>
<!-- #49 41.o&#45;o5&#45;&gt;#50 41.o&#45;o5.w&#45;o6 -->
<g id="edge16" class="edge">
<title>#49 41.o&#45;o5&#45;&gt;#50 41.o&#45;o5.w&#45;o6</title>
<path fill="none" stroke="#006400" d="M475.1882,-502.4363C469.5294,-496.925 464.146,-490.3064 461,-483 455.1858,-469.4966 454.2902,-453.2101 455.0217,-439.5451"/>
<polygon fill="#006400" stroke="#006400" points="458.537,-439.5111 455.8943,-429.2512 451.562,-438.9198 458.537,-439.5111"/>
<text text-anchor="middle" x="479.5" y="-461.3" font-family="Times,serif" font-size="14.00" fill="#006400">SO(w)</text>
</g>
<!-- #9 Identifier (x) &#45; (41)&#45;&gt;#46 41.o&#45;o1.x&#45;o2 -->
<g id="edge19" class="edge">
<title>#9 Identifier (x) &#45; (41)&#45;&gt;#46 41.o&#45;o1.x&#45;o2</title>
<path fill="none" stroke="#000000" stroke-dasharray="5,2" d="M103.4749,-590.5501C72.7031,-577.068 38,-554.0858 38,-519 38,-519 38,-519 38,-251 38,-212.5887 143.8209,-193.5159 220.9583,-184.7155"/>
<polygon fill="#000000" stroke="#000000" points="221.606,-188.1654 231.1626,-183.5914 220.8395,-181.2075 221.606,-188.1654"/>
</g>
<!-- #10» o.y = &#39;2&#39;; &#45; (41) -->
<g id="node17" class="node">
<title>#10» o.y = &#39;2&#39;; &#45; (41)</title>
<ellipse fill="none" stroke="#000000" cx="150" cy="-519" rx="84.485" ry="18"/>
<text text-anchor="middle" x="150" y="-515.3" font-family="Times,serif" font-size="14.00" fill="#000000">#10» o.y = &#39;2&#39;; &#45; (41)</text>
</g>
<!-- #9 Identifier (x) &#45; (41)&#45;&gt;#10» o.y = &#39;2&#39;; &#45; (41) -->
<g id="edge17" class="edge">
<title>#9 Identifier (x) &#45; (41)&#45;&gt;#10» o.y = &#39;2&#39;; &#45; (41)</title>
<path fill="none" stroke="#ff0000" d="M150,-587.9735C150,-576.1918 150,-560.5607 150,-547.1581"/>
<polygon fill="#ff0000" stroke="#ff0000" points="153.5001,-547.0033 150,-537.0034 146.5001,-547.0034 153.5001,-547.0033"/>
<text text-anchor="middle" x="168" y="-558.8" font-family="Times,serif" font-size="14.00" fill="#ff0000">TRUE</text>
</g>
<!-- #17» o.w = &#39;3&#39;; &#45; (41) -->
<g id="node18" class="node">
<title>#17» o.w = &#39;3&#39;; &#45; (41)</title>
<ellipse fill="none" stroke="#000000" cx="339" cy="-519" rx="86.3847" ry="18"/>
<text text-anchor="middle" x="339" y="-515.3" font-family="Times,serif" font-size="14.00" fill="#000000">#17» o.w = &#39;3&#39;; &#45; (41)</text>
</g>
<!-- #9 Identifier (x) &#45; (41)&#45;&gt;#17» o.w = &#39;3&#39;; &#45; (41) -->
<g id="edge18" class="edge">
<title>#9 Identifier (x) &#45; (41)&#45;&gt;#17» o.w = &#39;3&#39;; &#45; (41)</title>
<path fill="none" stroke="#ff0000" d="M185.9943,-589.4312C216.6031,-575.3414 260.7129,-555.0369 293.7149,-539.8455"/>
<polygon fill="#ff0000" stroke="#ff0000" points="295.5194,-542.868 303.1397,-535.5071 292.5923,-536.5093 295.5194,-542.868"/>
<text text-anchor="middle" x="277" y="-558.8" font-family="Times,serif" font-size="14.00" fill="#ff0000">FALSE</text>
</g>
<!-- #10» o.y = &#39;2&#39;; &#45; (41)&#45;&gt;#48 41.o&#45;o3.y&#45;o4 -->
<g id="edge21" class="edge">
<title>#10» o.y = &#39;2&#39;; &#45; (41)&#45;&gt;#48 41.o&#45;o3.y&#45;o4</title>
<path fill="none" stroke="#000000" stroke-dasharray="5,2" d="M149.9328,-500.9996C149.7625,-455.3388 149.3124,-334.7151 149.106,-279.4211"/>
<polygon fill="#000000" stroke="#000000" points="152.6056,-279.2618 149.0682,-269.2749 145.6056,-279.288 152.6056,-279.2618"/>
</g>
<!-- #43 CFG_IF_END (41) -->
<g id="node19" class="node">
<title>#43 CFG_IF_END (41)</title>
<ellipse fill="none" stroke="#ff0000" cx="272" cy="-411" rx="94.7833" ry="18"/>
<text text-anchor="middle" x="272" y="-407.3" font-family="Times,serif" font-size="14.00" fill="#ff0000">#43 CFG_IF_END (41)</text>
</g>
<!-- #10» o.y = &#39;2&#39;; &#45; (41)&#45;&gt;#43 CFG_IF_END (41) -->
<g id="edge20" class="edge">
<title>#10» o.y = &#39;2&#39;; &#45; (41)&#45;&gt;#43 CFG_IF_END (41)</title>
<path fill="none" stroke="#ff0000" d="M169.8729,-501.4076C190.0461,-483.5494 221.4519,-455.7475 244.1115,-435.6882"/>
<polygon fill="#ff0000" stroke="#ff0000" points="246.5613,-438.1939 251.729,-428.9448 241.9214,-432.9526 246.5613,-438.1939"/>
</g>
<!-- #17» o.w = &#39;3&#39;; &#45; (41)&#45;&gt;#50 41.o&#45;o5.w&#45;o6 -->
<g id="edge23" class="edge">
<title>#17» o.w = &#39;3&#39;; &#45; (41)&#45;&gt;#50 41.o&#45;o5.w&#45;o6</title>
<path fill="none" stroke="#000000" stroke-dasharray="5,2" d="M358.5471,-501.4076C378.5084,-483.4425 409.6509,-455.4142 431.9682,-435.3286"/>
<polygon fill="#000000" stroke="#000000" points="434.3696,-437.8761 439.4612,-428.5849 429.6869,-432.673 434.3696,-437.8761"/>
</g>
<!-- #17» o.w = &#39;3&#39;; &#45; (41)&#45;&gt;#43 CFG_IF_END (41) -->
<g id="edge22" class="edge">
<title>#17» o.w = &#39;3&#39;; &#45; (41)&#45;&gt;#43 CFG_IF_END (41)</title>
<path fill="none" stroke="#ff0000" d="M327.6344,-500.6793C316.9339,-483.4307 300.7798,-457.3914 288.6309,-437.8081"/>
<polygon fill="#ff0000" stroke="#ff0000" points="291.4437,-435.7027 283.1978,-429.0502 285.4953,-439.3929 291.4437,-435.7027"/>
</g>
<!-- #24» y = o.y -->
<g id="node20" class="node">
<title>#24» y = o.y</title>
<ellipse fill="none" stroke="#000000" cx="272" cy="-324" rx="56.59" ry="18"/>
<text text-anchor="middle" x="272" y="-320.3" font-family="Times,serif" font-size="14.00" fill="#000000">#24» y = o.y</text>
</g>
<!-- #43 CFG_IF_END (41)&#45;&gt;#24» y = o.y -->
<g id="edge24" class="edge">
<title>#43 CFG_IF_END (41)&#45;&gt;#24» y = o.y</title>
<path fill="none" stroke="#ff0000" d="M272,-392.9735C272,-381.1918 272,-365.5607 272,-352.1581"/>
<polygon fill="#ff0000" stroke="#ff0000" points="275.5001,-352.0033 272,-342.0034 268.5001,-352.0034 275.5001,-352.0033"/>
</g>
<!-- #24» y = o.y&#45;&gt;#48 41.o&#45;o3.y&#45;o4 -->
<g id="edge26" class="edge">
<title>#24» y = o.y&#45;&gt;#48 41.o&#45;o3.y&#45;o4</title>
<path fill="none" stroke="#000000" stroke-dasharray="5,2" d="M245.0071,-307.9798C227.6693,-297.6899 204.9217,-284.1893 185.9208,-272.9123"/>
<polygon fill="#000000" stroke="#000000" points="187.5973,-269.8374 177.2115,-267.7434 184.0246,-275.857 187.5973,-269.8374"/>
</g>
<!-- #28» v1 = o.x -->
<g id="node21" class="node">
<title>#28» v1 = o.x</title>
<ellipse fill="none" stroke="#000000" cx="300" cy="-251" rx="61.1893" ry="18"/>
<text text-anchor="middle" x="300" y="-247.3" font-family="Times,serif" font-size="14.00" fill="#000000">#28» v1 = o.x</text>
</g>
<!-- #24» y = o.y&#45;&gt;#28» v1 = o.x -->
<g id="edge25" class="edge">
<title>#24» y = o.y&#45;&gt;#28» v1 = o.x</title>
<path fill="none" stroke="#ff0000" d="M278.9214,-305.9551C282.0849,-297.7074 285.9027,-287.7536 289.4152,-278.5962"/>
<polygon fill="#ff0000" stroke="#ff0000" points="292.7478,-279.6806 293.0612,-269.0904 286.2121,-277.1737 292.7478,-279.6806"/>
</g>
<!-- #28» v1 = o.x&#45;&gt;#46 41.o&#45;o1.x&#45;o2 -->
<g id="edge28" class="edge">
<title>#28» v1 = o.x&#45;&gt;#46 41.o&#45;o1.x&#45;o2</title>
<path fill="none" stroke="#000000" stroke-dasharray="5,2" d="M288.2435,-233.3287C286.5589,-225.051 286.0951,-214.9941 286.852,-205.7365"/>
<polygon fill="#000000" stroke="#000000" points="290.3286,-206.1455 288.2252,-195.7615 283.394,-205.1907 290.3286,-206.1455"/>
</g>
<!-- #28» v1 = o.x&#45;&gt;#46 41.o&#45;o1.x&#45;o2 -->
<g id="edge29" class="edge">
<title>#28» v1 = o.x&#45;&gt;#46 41.o&#45;o1.x&#45;o2</title>
<path fill="none" stroke="#000000" stroke-dasharray="5,2" d="M300,-232.9551C300,-224.8828 300,-215.1764 300,-206.1817"/>
<polygon fill="#000000" stroke="#000000" points="303.5001,-206.0903 300,-196.0904 296.5001,-206.0904 303.5001,-206.0903"/>
</g>
<!-- #28» v1 = o.x&#45;&gt;#46 41.o&#45;o1.x&#45;o2 -->
<g id="edge30" class="edge">
<title>#28» v1 = o.x&#45;&gt;#46 41.o&#45;o1.x&#45;o2</title>
<path fill="none" stroke="#000000" stroke-dasharray="5,2" d="M311.7565,-233.3287C313.4411,-225.051 313.9049,-214.9941 313.148,-205.7365"/>
<polygon fill="#000000" stroke="#000000" points="316.606,-205.1907 311.7748,-195.7615 309.6714,-206.1455 316.606,-205.1907"/>
</g>
<!-- #32» v2 = eval(v1) -->
<g id="node22" class="node">
<title>#32» v2 = eval(v1)</title>
<ellipse fill="none" stroke="#000000" cx="469" cy="-178" rx="79.0865" ry="18"/>
<text text-anchor="middle" x="469" y="-174.3" font-family="Times,serif" font-size="14.00" fill="#000000">#32» v2 = eval(v1)</text>
</g>
<!-- #28» v1 = o.x&#45;&gt;#32» v2 = eval(v1) -->
<g id="edge27" class="edge">
<title>#28» v1 = o.x&#45;&gt;#32» v2 = eval(v1)</title>
<path fill="none" stroke="#ff0000" d="M334.6075,-236.0512C360.0043,-225.081 394.7692,-210.0642 422.5774,-198.0524"/>
<polygon fill="#ff0000" stroke="#ff0000" points="424.3043,-201.119 432.0966,-193.9405 421.5285,-194.6929 424.3043,-201.119"/>
</g>
<!-- #32» v2 = eval(v1)&#45;&gt;#51 41.v2&#45;o7 -->
<g id="edge32" class="edge">
<title>#32» v2 = eval(v1)&#45;&gt;#51 41.v2&#45;o7</title>
<path fill="none" stroke="#000000" stroke-dasharray="5,2" d="M457.3968,-159.9735C449.4602,-147.6435 438.8099,-131.0975 429.9301,-117.3021"/>
<polygon fill="#000000" stroke="#000000" points="432.7523,-115.22 424.3968,-108.7057 426.8662,-119.0087 432.7523,-115.22"/>
</g>
<!-- #36» v2; &#45; (41) -->
<g id="node23" class="node">
<title>#36» v2; &#45; (41)</title>
<ellipse fill="none" stroke="#000000" cx="553" cy="-91" rx="64.189" ry="18"/>
<text text-anchor="middle" x="553" y="-87.3" font-family="Times,serif" font-size="14.00" fill="#000000">#36» v2; &#45; (41)</text>
</g>
<!-- #32» v2 = eval(v1)&#45;&gt;#36» v2; &#45; (41) -->
<g id="edge31" class="edge">
<title>#32» v2 = eval(v1)&#45;&gt;#36» v2; &#45; (41)</title>
<path fill="none" stroke="#ff0000" d="M485.9987,-160.3943C498.2951,-147.6586 515.087,-130.2671 528.7839,-116.081"/>
<polygon fill="#ff0000" stroke="#ff0000" points="531.5986,-118.2047 536.0266,-108.5796 526.5627,-113.3425 531.5986,-118.2047"/>
</g>
<!-- #42 CFG_F_END 2_anon -->
<g id="node24" class="node">
<title>#42 CFG_F_END 2_anon</title>
<ellipse fill="none" stroke="#ff0000" cx="553" cy="-18" rx="103.1819" ry="18"/>
<text text-anchor="middle" x="553" y="-14.3" font-family="Times,serif" font-size="14.00" fill="#ff0000">#42 CFG_F_END 2_anon</text>
</g>
<!-- #36» v2; &#45; (41)&#45;&gt;#42 CFG_F_END 2_anon -->
<g id="edge33" class="edge">
<title>#36» v2; &#45; (41)&#45;&gt;#42 CFG_F_END 2_anon</title>
<path fill="none" stroke="#ff0000" d="M553,-72.9551C553,-64.8828 553,-55.1764 553,-46.1817"/>
<polygon fill="#ff0000" stroke="#ff0000" points="556.5001,-46.0903 553,-36.0904 549.5001,-46.0904 556.5001,-46.0903"/>
</g>
</g>
</svg>
