<?xml version="1.0" encoding="UTF-8" standalone="no"?>
<!DOCTYPE svg PUBLIC "-//W3C//DTD SVG 1.1//EN"
 "http://www.w3.org/Graphics/SVG/1.1/DTD/svg11.dtd">
<!-- Generated by graphviz version 2.40.1 (20161225.0304)
 -->
<!-- Title: G Pages: 1 -->
<svg width="1234pt" height="761pt"
 viewBox="0.00 0.00 1233.58 761.00" xmlns="http://www.w3.org/2000/svg" xmlns:xlink="http://www.w3.org/1999/xlink">
<g id="graph0" class="graph" transform="scale(1 1) rotate(0) translate(4 757)">
<title>G</title>
<polygon fill="#ffffff" stroke="transparent" points="-4,4 -4,-757 1229.5848,-757 1229.5848,4 -4,4"/>
<!-- #0 Program -->
<g id="node1" class="node">
<title>#0 Program</title>
<ellipse fill="none" stroke="#000000" cx="575.2416" cy="-735" rx="52.7911" ry="18"/>
<text text-anchor="middle" x="575.2416" y="-731.3" font-family="Times,serif" font-size="14.00" fill="#000000">#0 Program</text>
</g>
<!-- #1 Variable (f) -->
<g id="node2" class="node">
<title>#1 Variable (f)</title>
<ellipse fill="none" stroke="#000000" cx="769.2416" cy="-648" rx="63.8893" ry="18"/>
<text text-anchor="middle" x="769.2416" y="-644.3" font-family="Times,serif" font-size="14.00" fill="#000000">#1 Variable (f)</text>
</g>
<!-- #0 Program&#45;&gt;#1 Variable (f) -->
<g id="edge1" class="edge">
<title>#0 Program&#45;&gt;#1 Variable (f)</title>
<path fill="none" stroke="#0000ff" d="M607.2768,-720.6337C639.6805,-706.1022 689.9851,-683.5429 725.9303,-667.4231"/>
<polygon fill="#0000ff" stroke="#0000ff" points="727.5073,-670.5518 735.1996,-663.2663 724.6429,-664.1647 727.5073,-670.5518"/>
<text text-anchor="middle" x="687.7416" y="-687.8" font-family="Times,serif" font-size="14.00" fill="#0000ff">1</text>
</g>
<!-- #12 ExpressionStatement -->
<g id="node3" class="node">
<title>#12 ExpressionStatement</title>
<ellipse fill="none" stroke="#000000" cx="573.2416" cy="-561" rx="100.9827" ry="18"/>
<text text-anchor="middle" x="573.2416" y="-557.3" font-family="Times,serif" font-size="14.00" fill="#000000">#12 ExpressionStatement</text>
</g>
<!-- #0 Program&#45;&gt;#12 ExpressionStatement -->
<g id="edge2" class="edge">
<title>#0 Program&#45;&gt;#12 ExpressionStatement</title>
<path fill="none" stroke="#0000ff" d="M575.0314,-716.7078C574.6824,-686.3436 573.981,-625.3226 573.5675,-589.3464"/>
<polygon fill="#0000ff" stroke="#0000ff" points="577.0639,-589.0062 573.4491,-579.0471 570.0643,-589.0867 577.0639,-589.0062"/>
<text text-anchor="middle" x="578.7416" y="-644.3" font-family="Times,serif" font-size="14.00" fill="#0000ff">2</text>
</g>
<!-- #1 Variable (f)&#45;&gt;#12 ExpressionStatement -->
<g id="edge7" class="edge">
<title>#1 Variable (f)&#45;&gt;#12 ExpressionStatement</title>
<path fill="none" stroke="#ff0000" d="M734.6519,-632.6464C703.0091,-618.6009 655.9095,-597.6944 620.7448,-582.0856"/>
<polygon fill="#ff0000" stroke="#ff0000" points="621.7258,-578.6918 611.1658,-577.8337 618.8859,-585.0898 621.7258,-578.6918"/>
</g>
<!-- #20 CFG_F_START 2_anon -->
<g id="node5" class="node">
<title>#20 CFG_F_START 2_anon</title>
<ellipse fill="none" stroke="#ff0000" cx="934.2416" cy="-507" rx="113.18" ry="18"/>
<text text-anchor="middle" x="934.2416" y="-503.3" font-family="Times,serif" font-size="14.00" fill="#ff0000">#20 CFG_F_START 2_anon</text>
</g>
<!-- #1 Variable (f)&#45;&gt;#20 CFG_F_START 2_anon -->
<g id="edge6" class="edge">
<title>#1 Variable (f)&#45;&gt;#20 CFG_F_START 2_anon</title>
<path fill="none" stroke="#000000" d="M792.4156,-631.0225C810.6737,-617.4126 836.5746,-597.5832 858.2416,-579 875.7466,-563.9865 894.5691,-546.1683 909.103,-532.0138"/>
<polygon fill="#000000" stroke="#000000" points="911.5887,-534.4783 916.2827,-524.9801 906.69,-529.478 911.5887,-534.4783"/>
<text text-anchor="middle" x="844.2416" y="-600.8" font-family="Times,serif" font-size="14.00" fill="#000000">FD</text>
</g>
<!-- #2 Function (anon) -->
<g id="node7" class="node">
<title>#2 Function (anon)</title>
<ellipse fill="none" stroke="#000000" cx="770.2416" cy="-561" rx="78.7863" ry="18"/>
<text text-anchor="middle" x="770.2416" y="-557.3" font-family="Times,serif" font-size="14.00" fill="#000000">#2 Function (anon)</text>
</g>
<!-- #1 Variable (f)&#45;&gt;#2 Function (anon) -->
<g id="edge5" class="edge">
<title>#1 Variable (f)&#45;&gt;#2 Function (anon)</title>
<path fill="none" stroke="#0000ff" d="M769.4488,-629.9735C769.5843,-618.1918 769.7639,-602.5607 769.918,-589.1581"/>
<polygon fill="#0000ff" stroke="#0000ff" points="773.4194,-589.043 770.0347,-579.0034 766.4199,-588.9624 773.4194,-589.043"/>
<text text-anchor="middle" x="778.7416" y="-600.8" font-family="Times,serif" font-size="14.00" fill="#0000ff">init</text>
</g>
<!-- #13 AssignmentExpression -->
<g id="node8" class="node">
<title>#13 AssignmentExpression</title>
<ellipse fill="none" stroke="#000000" cx="334.2416" cy="-453" rx="107.781" ry="18"/>
<text text-anchor="middle" x="334.2416" y="-449.3" font-family="Times,serif" font-size="14.00" fill="#000000">#13 AssignmentExpression</text>
</g>
<!-- #12 ExpressionStatement&#45;&gt;#13 AssignmentExpression -->
<g id="edge8" class="edge">
<title>#12 ExpressionStatement&#45;&gt;#13 AssignmentExpression</title>
<path fill="none" stroke="#0000ff" d="M536.1601,-544.2435C494.4191,-525.3814 426.5204,-494.6992 381.131,-474.1885"/>
<polygon fill="#0000ff" stroke="#0000ff" points="382.3587,-470.9026 371.8046,-469.9741 379.4761,-477.2815 382.3587,-470.9026"/>
<text text-anchor="middle" x="518.2416" y="-503.3" font-family="Times,serif" font-size="14.00" fill="#0000ff">expression</text>
</g>
<!-- #19 CFG_F_END __main__ -->
<g id="node9" class="node">
<title>#19 CFG_F_END __main__</title>
<ellipse fill="none" stroke="#ff0000" cx="573.2416" cy="-453" rx="113.18" ry="18"/>
<text text-anchor="middle" x="573.2416" y="-449.3" font-family="Times,serif" font-size="14.00" fill="#ff0000">#19 CFG_F_END __main__</text>
</g>
<!-- #12 ExpressionStatement&#45;&gt;#19 CFG_F_END __main__ -->
<g id="edge9" class="edge">
<title>#12 ExpressionStatement&#45;&gt;#19 CFG_F_END __main__</title>
<path fill="none" stroke="#ff0000" d="M573.2416,-542.6793C573.2416,-525.821 573.2416,-500.5651 573.2416,-481.147"/>
<polygon fill="#ff0000" stroke="#ff0000" points="576.7417,-481.0501 573.2416,-471.0502 569.7417,-481.0502 576.7417,-481.0501"/>
</g>
<!-- #18 CFG_F_START __main__ -->
<g id="node4" class="node">
<title>#18 CFG_F_START __main__</title>
<ellipse fill="none" stroke="#ff0000" cx="769.2416" cy="-735" rx="122.6784" ry="18"/>
<text text-anchor="middle" x="769.2416" y="-731.3" font-family="Times,serif" font-size="14.00" fill="#ff0000">#18 CFG_F_START __main__</text>
</g>
<!-- #18 CFG_F_START __main__&#45;&gt;#1 Variable (f) -->
<g id="edge3" class="edge">
<title>#18 CFG_F_START __main__&#45;&gt;#1 Variable (f)</title>
<path fill="none" stroke="#ff0000" d="M769.2416,-716.9735C769.2416,-705.1918 769.2416,-689.5607 769.2416,-676.1581"/>
<polygon fill="#ff0000" stroke="#ff0000" points="772.7417,-676.0033 769.2416,-666.0034 765.7417,-676.0034 772.7417,-676.0033"/>
</g>
<!-- #4 Variable (v1) -->
<g id="node6" class="node">
<title>#4 Variable (v1)</title>
<ellipse fill="none" stroke="#000000" cx="867.2416" cy="-279" rx="69.5877" ry="18"/>
<text text-anchor="middle" x="867.2416" y="-275.3" font-family="Times,serif" font-size="14.00" fill="#000000">#4 Variable (v1)</text>
</g>
<!-- #20 CFG_F_START 2_anon&#45;&gt;#4 Variable (v1) -->
<g id="edge4" class="edge">
<title>#20 CFG_F_START 2_anon&#45;&gt;#4 Variable (v1)</title>
<path fill="none" stroke="#ff0000" d="M936.4395,-488.8602C939.8792,-452.9672 943.0924,-371.4789 910.2416,-315 907.742,-310.7025 904.5288,-306.6872 900.9861,-303.0123"/>
<polygon fill="#ff0000" stroke="#ff0000" points="903.0906,-300.191 893.3745,-295.9662 898.3353,-305.3279 903.0906,-300.191"/>
</g>
<!-- #5 CallExpression -->
<g id="node10" class="node">
<title>#5 CallExpression</title>
<ellipse fill="none" stroke="#000000" cx="973.2416" cy="-192" rx="75.2868" ry="18"/>
<text text-anchor="middle" x="973.2416" y="-188.3" font-family="Times,serif" font-size="14.00" fill="#000000">#5 CallExpression</text>
</g>
<!-- #4 Variable (v1)&#45;&gt;#5 CallExpression -->
<g id="edge10" class="edge">
<title>#4 Variable (v1)&#45;&gt;#5 CallExpression</title>
<path fill="none" stroke="#0000ff" d="M888.1838,-261.8116C904.1943,-248.6709 926.4567,-230.3989 944.1899,-215.8443"/>
<polygon fill="#0000ff" stroke="#0000ff" points="946.4708,-218.5002 951.9801,-209.4505 942.0298,-213.0894 946.4708,-218.5002"/>
<text text-anchor="middle" x="935.7416" y="-231.8" font-family="Times,serif" font-size="14.00" fill="#0000ff">init</text>
</g>
<!-- #9 ReturnStatement -->
<g id="node11" class="node">
<title>#9 ReturnStatement</title>
<ellipse fill="none" stroke="#000000" cx="789.2416" cy="-105" rx="81.4863" ry="18"/>
<text text-anchor="middle" x="789.2416" y="-101.3" font-family="Times,serif" font-size="14.00" fill="#000000">#9 ReturnStatement</text>
</g>
<!-- #4 Variable (v1)&#45;&gt;#9 ReturnStatement -->
<g id="edge11" class="edge">
<title>#4 Variable (v1)&#45;&gt;#9 ReturnStatement</title>
<path fill="none" stroke="#ff0000" d="M868.264,-260.7087C868.9272,-232.4963 866.49,-177.7835 841.2416,-141 837.8978,-136.1285 833.6621,-131.7143 829.0572,-127.7805"/>
<polygon fill="#ff0000" stroke="#ff0000" points="831.1103,-124.944 821.0512,-121.6176 826.8404,-130.4909 831.1103,-124.944"/>
</g>
<!-- #24 v1&#45;o3 -->
<g id="node12" class="node">
<title>#24 v1&#45;o3</title>
<ellipse fill="none" stroke="#006400" cx="793.2416" cy="-192" rx="46.5926" ry="18"/>
<text text-anchor="middle" x="793.2416" y="-188.3" font-family="Times,serif" font-size="14.00" fill="#006400">#24 v1&#45;o3</text>
</g>
<!-- #4 Variable (v1)&#45;&gt;#24 v1&#45;o3 -->
<g id="edge12" class="edge">
<title>#4 Variable (v1)&#45;&gt;#24 v1&#45;o3</title>
<path fill="none" stroke="#006400" d="M815.6049,-266.8924C803.6665,-261.5693 792.383,-253.9346 785.2416,-243 780.762,-236.141 780.5013,-227.6782 782.0177,-219.6313"/>
<polygon fill="#006400" stroke="#006400" points="785.4408,-220.3823 784.7053,-209.813 778.6892,-218.5341 785.4408,-220.3823"/>
<text text-anchor="middle" x="820.2416" y="-231.8" font-family="Times,serif" font-size="14.00" fill="#006400">CREATE v1</text>
</g>
<!-- #3 Identifier (x) -->
<g id="node13" class="node">
<title>#3 Identifier (x)</title>
<ellipse fill="none" stroke="#000000" cx="839.2416" cy="-453" rx="67.6881" ry="18"/>
<text text-anchor="middle" x="839.2416" y="-449.3" font-family="Times,serif" font-size="14.00" fill="#000000">#3 Identifier (x)</text>
</g>
<!-- #2 Function (anon)&#45;&gt;#3 Identifier (x) -->
<g id="edge13" class="edge">
<title>#2 Function (anon)&#45;&gt;#3 Identifier (x)</title>
<path fill="none" stroke="#0000ff" d="M763.8222,-543.0073C759.4872,-527.5126 756.1929,-505.1597 766.2416,-489 770.7469,-481.755 777.1873,-475.925 784.3997,-471.2455"/>
<polygon fill="#0000ff" stroke="#0000ff" points="786.1913,-474.253 793.1512,-466.2648 782.7289,-468.1692 786.1913,-474.253"/>
<text text-anchor="middle" x="789.2416" y="-503.3" font-family="Times,serif" font-size="14.00" fill="#0000ff">param 1</text>
</g>
<!-- #11 BlockStatement -->
<g id="node14" class="node">
<title>#11 BlockStatement</title>
<ellipse fill="none" stroke="#000000" cx="722.2416" cy="-366" rx="83.3857" ry="18"/>
<text text-anchor="middle" x="722.2416" y="-362.3" font-family="Times,serif" font-size="14.00" fill="#000000">#11 BlockStatement</text>
</g>
<!-- #2 Function (anon)&#45;&gt;#11 BlockStatement -->
<g id="edge14" class="edge">
<title>#2 Function (anon)&#45;&gt;#11 BlockStatement</title>
<path fill="none" stroke="#0000ff" d="M760.366,-542.9998C751.1382,-525.2563 737.8254,-497.0878 731.2416,-471 724.8074,-445.5046 722.761,-415.5425 722.2036,-394.1643"/>
<polygon fill="#0000ff" stroke="#0000ff" points="725.7026,-394.0665 722.0347,-384.1268 718.7036,-394.1844 725.7026,-394.0665"/>
<text text-anchor="middle" x="746.7416" y="-449.3" font-family="Times,serif" font-size="14.00" fill="#0000ff">block</text>
</g>
<!-- #14 MemberExpression -->
<g id="node15" class="node">
<title>#14 MemberExpression</title>
<ellipse fill="none" stroke="#000000" cx="196.2416" cy="-366" rx="96.3833" ry="18"/>
<text text-anchor="middle" x="196.2416" y="-362.3" font-family="Times,serif" font-size="14.00" fill="#000000">#14 MemberExpression</text>
</g>
<!-- #13 AssignmentExpression&#45;&gt;#14 MemberExpression -->
<g id="edge15" class="edge">
<title>#13 AssignmentExpression&#45;&gt;#14 MemberExpression</title>
<path fill="none" stroke="#0000ff" d="M306.3153,-435.3943C284.9455,-421.922 255.3114,-403.2397 232.1742,-388.6531"/>
<polygon fill="#0000ff" stroke="#0000ff" points="233.9814,-385.655 223.6555,-383.2827 230.2482,-391.5765 233.9814,-385.655"/>
<text text-anchor="middle" x="283.7416" y="-405.8" font-family="Times,serif" font-size="14.00" fill="#0000ff">left</text>
</g>
<!-- #17 Identifier (f) -->
<g id="node16" class="node">
<title>#17 Identifier (f)</title>
<ellipse fill="none" stroke="#000000" cx="380.2416" cy="-366" rx="70.3881" ry="18"/>
<text text-anchor="middle" x="380.2416" y="-362.3" font-family="Times,serif" font-size="14.00" fill="#000000">#17 Identifier (f)</text>
</g>
<!-- #13 AssignmentExpression&#45;&gt;#17 Identifier (f) -->
<g id="edge16" class="edge">
<title>#13 AssignmentExpression&#45;&gt;#17 Identifier (f)</title>
<path fill="none" stroke="#0000ff" d="M343.7729,-434.9735C350.1873,-422.8418 358.7598,-406.6287 365.9817,-392.9698"/>
<polygon fill="#0000ff" stroke="#0000ff" points="369.1425,-394.4797 370.7226,-384.0034 362.9542,-391.2077 369.1425,-394.4797"/>
<text text-anchor="middle" x="373.2416" y="-405.8" font-family="Times,serif" font-size="14.00" fill="#0000ff">right</text>
</g>
<!-- #6 Identifier (eval) -->
<g id="node17" class="node">
<title>#6 Identifier (eval)</title>
<ellipse fill="none" stroke="#000000" cx="1148.2416" cy="-105" rx="77.1866" ry="18"/>
<text text-anchor="middle" x="1148.2416" y="-101.3" font-family="Times,serif" font-size="14.00" fill="#000000">#6 Identifier (eval)</text>
</g>
<!-- #5 CallExpression&#45;&gt;#6 Identifier (eval) -->
<g id="edge17" class="edge">
<title>#5 CallExpression&#45;&gt;#6 Identifier (eval)</title>
<path fill="none" stroke="#0000ff" d="M1006.1578,-175.636C1034.4221,-161.5846 1075.338,-141.2435 1106.011,-125.9947"/>
<polygon fill="#0000ff" stroke="#0000ff" points="1107.7796,-129.0241 1115.176,-121.4383 1104.6634,-122.756 1107.7796,-129.0241"/>
<text text-anchor="middle" x="1086.2416" y="-144.8" font-family="Times,serif" font-size="14.00" fill="#0000ff">callee</text>
</g>
<!-- #7 TemplateLiteral -->
<g id="node18" class="node">
<title>#7 TemplateLiteral</title>
<ellipse fill="none" stroke="#000000" cx="973.2416" cy="-105" rx="79.0865" ry="18"/>
<text text-anchor="middle" x="973.2416" y="-101.3" font-family="Times,serif" font-size="14.00" fill="#000000">#7 TemplateLiteral</text>
</g>
<!-- #5 CallExpression&#45;&gt;#7 TemplateLiteral -->
<g id="edge18" class="edge">
<title>#5 CallExpression&#45;&gt;#7 TemplateLiteral</title>
<path fill="none" stroke="#0000ff" d="M973.2416,-173.9735C973.2416,-162.1918 973.2416,-146.5607 973.2416,-133.1581"/>
<polygon fill="#0000ff" stroke="#0000ff" points="976.7417,-133.0033 973.2416,-123.0034 969.7417,-133.0034 976.7417,-133.0033"/>
<text text-anchor="middle" x="987.2416" y="-144.8" font-family="Times,serif" font-size="14.00" fill="#0000ff">arg 1</text>
</g>
<!-- #10 Identifier (v1) -->
<g id="node19" class="node">
<title>#10 Identifier (v1)</title>
<ellipse fill="none" stroke="#000000" cx="592.2416" cy="-18" rx="76.0865" ry="18"/>
<text text-anchor="middle" x="592.2416" y="-14.3" font-family="Times,serif" font-size="14.00" fill="#000000">#10 Identifier (v1)</text>
</g>
<!-- #9 ReturnStatement&#45;&gt;#10 Identifier (v1) -->
<g id="edge19" class="edge">
<title>#9 ReturnStatement&#45;&gt;#10 Identifier (v1)</title>
<path fill="none" stroke="#0000ff" d="M752.6491,-88.8399C720.204,-74.5113 672.6884,-53.5273 637.7908,-38.1156"/>
<polygon fill="#0000ff" stroke="#0000ff" points="638.8672,-34.7649 628.3055,-33.9267 636.0392,-41.1683 638.8672,-34.7649"/>
<text text-anchor="middle" x="729.2416" y="-57.8" font-family="Times,serif" font-size="14.00" fill="#0000ff">argument</text>
</g>
<!-- #21 CFG_F_END 2_anon -->
<g id="node20" class="node">
<title>#21 CFG_F_END 2_anon</title>
<ellipse fill="none" stroke="#ff0000" cx="789.2416" cy="-18" rx="103.1819" ry="18"/>
<text text-anchor="middle" x="789.2416" y="-14.3" font-family="Times,serif" font-size="14.00" fill="#ff0000">#21 CFG_F_END 2_anon</text>
</g>
<!-- #9 ReturnStatement&#45;&gt;#21 CFG_F_END 2_anon -->
<g id="edge20" class="edge">
<title>#9 ReturnStatement&#45;&gt;#21 CFG_F_END 2_anon</title>
<path fill="none" stroke="#ff0000" d="M789.2416,-86.9735C789.2416,-75.1918 789.2416,-59.5607 789.2416,-46.1581"/>
<polygon fill="#ff0000" stroke="#ff0000" points="792.7417,-46.0033 789.2416,-36.0034 785.7417,-46.0034 792.7417,-46.0033"/>
</g>
<!-- #24 v1&#45;o3&#45;&gt;#9 ReturnStatement -->
<g id="edge21" class="edge">
<title>#24 v1&#45;o3&#45;&gt;#9 ReturnStatement</title>
<path fill="none" stroke="#006400" d="M792.4128,-173.9735C791.8711,-162.1918 791.1525,-146.5607 790.5363,-133.1581"/>
<polygon fill="#006400" stroke="#006400" points="794.0251,-132.832 790.0694,-123.0034 787.0325,-133.1536 794.0251,-132.832"/>
<text text-anchor="middle" x="814.2416" y="-144.8" font-family="Times,serif" font-size="14.00" fill="#006400">VAR v1</text>
</g>
<!-- #22 x&#45;o2 -->
<g id="node21" class="node">
<title>#22 x&#45;o2</title>
<ellipse fill="none" stroke="#006400" cx="865.2416" cy="-366" rx="42.4939" ry="18"/>
<text text-anchor="middle" x="865.2416" y="-362.3" font-family="Times,serif" font-size="14.00" fill="#006400">#22 x&#45;o2</text>
</g>
<!-- #3 Identifier (x)&#45;&gt;#22 x&#45;o2 -->
<g id="edge22" class="edge">
<title>#3 Identifier (x)&#45;&gt;#22 x&#45;o2</title>
<path fill="none" stroke="#006400" d="M844.6289,-434.9735C848.1847,-423.0751 852.9138,-407.2508 856.9454,-393.7606"/>
<polygon fill="#006400" stroke="#006400" points="860.3513,-394.5869 859.8613,-384.0034 853.6444,-392.5825 860.3513,-394.5869"/>
<text text-anchor="middle" x="885.2416" y="-405.8" font-family="Times,serif" font-size="14.00" fill="#006400">CREATE x</text>
</g>
<!-- #11 BlockStatement&#45;&gt;#4 Variable (v1) -->
<g id="edge23" class="edge">
<title>#11 BlockStatement&#45;&gt;#4 Variable (v1)</title>
<path fill="none" stroke="#0000ff" d="M750.5433,-349.019C773.445,-335.278 805.8616,-315.828 830.7194,-300.9133"/>
<polygon fill="#0000ff" stroke="#0000ff" points="832.7297,-303.7889 839.5039,-295.6426 829.1282,-297.7864 832.7297,-303.7889"/>
<text text-anchor="middle" x="806.7416" y="-318.8" font-family="Times,serif" font-size="14.00" fill="#0000ff">1</text>
</g>
<!-- #11 BlockStatement&#45;&gt;#9 ReturnStatement -->
<g id="edge24" class="edge">
<title>#11 BlockStatement&#45;&gt;#9 ReturnStatement</title>
<path fill="none" stroke="#0000ff" d="M720.369,-347.8041C717.4714,-312.8313 714.3954,-234.3497 737.2416,-174 743.3406,-157.8892 754.4325,-142.347 764.8101,-130.1056"/>
<polygon fill="#0000ff" stroke="#0000ff" points="767.4726,-132.3782 771.4669,-122.5651 762.2248,-127.7455 767.4726,-132.3782"/>
<text text-anchor="middle" x="727.7416" y="-231.8" font-family="Times,serif" font-size="14.00" fill="#0000ff">2</text>
</g>
<!-- #15 Identifier (module) -->
<g id="node22" class="node">
<title>#15 Identifier (module)</title>
<ellipse fill="none" stroke="#000000" cx="94.2416" cy="-279" rx="94.4839" ry="18"/>
<text text-anchor="middle" x="94.2416" y="-275.3" font-family="Times,serif" font-size="14.00" fill="#000000">#15 Identifier (module)</text>
</g>
<!-- #14 MemberExpression&#45;&gt;#15 Identifier (module) -->
<g id="edge25" class="edge">
<title>#14 MemberExpression&#45;&gt;#15 Identifier (module)</title>
<path fill="none" stroke="#0000ff" d="M175.6004,-348.3943C160.3925,-335.4228 139.5218,-317.6213 122.7269,-303.2962"/>
<polygon fill="#0000ff" stroke="#0000ff" points="124.7318,-300.4061 114.8522,-296.5796 120.1892,-305.732 124.7318,-300.4061"/>
<text text-anchor="middle" x="169.2416" y="-318.8" font-family="Times,serif" font-size="14.00" fill="#0000ff">object</text>
</g>
<!-- #16 Identifier (exports) -->
<g id="node23" class="node">
<title>#16 Identifier (exports)</title>
<ellipse fill="none" stroke="#000000" cx="299.2416" cy="-279" rx="92.8835" ry="18"/>
<text text-anchor="middle" x="299.2416" y="-275.3" font-family="Times,serif" font-size="14.00" fill="#000000">#16 Identifier (exports)</text>
</g>
<!-- #14 MemberExpression&#45;&gt;#16 Identifier (exports) -->
<g id="edge26" class="edge">
<title>#14 MemberExpression&#45;&gt;#16 Identifier (exports)</title>
<path fill="none" stroke="#0000ff" d="M217.0852,-348.3943C232.4423,-335.4228 253.5175,-317.6213 270.4771,-303.2962"/>
<polygon fill="#0000ff" stroke="#0000ff" points="273.048,-305.7062 278.429,-296.5796 268.5311,-300.3585 273.048,-305.7062"/>
<text text-anchor="middle" x="277.2416" y="-318.8" font-family="Times,serif" font-size="14.00" fill="#0000ff">property</text>
</g>
<!-- #8 Identifier (x) -->
<g id="node24" class="node">
<title>#8 Identifier (x)</title>
<ellipse fill="none" stroke="#000000" cx="978.2416" cy="-18" rx="67.6881" ry="18"/>
<text text-anchor="middle" x="978.2416" y="-14.3" font-family="Times,serif" font-size="14.00" fill="#000000">#8 Identifier (x)</text>
</g>
<!-- #7 TemplateLiteral&#45;&gt;#8 Identifier (x) -->
<g id="edge27" class="edge">
<title>#7 TemplateLiteral&#45;&gt;#8 Identifier (x)</title>
<path fill="none" stroke="#0000ff" d="M974.2776,-86.9735C974.9548,-75.1918 975.8531,-59.5607 976.6234,-46.1581"/>
<polygon fill="#0000ff" stroke="#0000ff" points="980.1273,-46.1877 977.207,-36.0034 973.1389,-45.786 980.1273,-46.1877"/>
<text text-anchor="middle" x="1004.2416" y="-57.8" font-family="Times,serif" font-size="14.00" fill="#0000ff">expression</text>
</g>
<!-- #22 x&#45;o2&#45;&gt;#4 Variable (v1) -->
<g id="edge28" class="edge">
<title>#22 x&#45;o2&#45;&gt;#4 Variable (v1)</title>
<path fill="none" stroke="#006400" d="M865.656,-347.9735C865.9269,-336.1918 866.2862,-320.5607 866.5943,-307.1581"/>
<polygon fill="#006400" stroke="#006400" points="870.0969,-307.0812 866.8278,-297.0034 863.0988,-306.9202 870.0969,-307.0812"/>
<text text-anchor="middle" x="886.2416" y="-318.8" font-family="Times,serif" font-size="14.00" fill="#006400">VAR x</text>
</g>
</g>
</svg>
