<?xml version="1.0" encoding="UTF-8" standalone="no"?>
<!DOCTYPE svg PUBLIC "-//W3C//DTD SVG 1.1//EN"
 "http://www.w3.org/Graphics/SVG/1.1/DTD/svg11.dtd">
<!-- Generated by graphviz version 2.40.1 (20161225.0304)
 -->
<!-- Title: G Pages: 1 -->
<svg width="1472pt" height="1001pt"
 viewBox="0.00 0.00 1472.24 1001.00" xmlns="http://www.w3.org/2000/svg" xmlns:xlink="http://www.w3.org/1999/xlink">
<g id="graph0" class="graph" transform="scale(1 1) rotate(0) translate(4 997)">
<title>G</title>
<polygon fill="#ffffff" stroke="transparent" points="-4,4 -4,-997 1468.2416,-997 1468.2416,4 -4,4"/>
<!-- #0 Program -->
<g id="node1" class="node">
<title>#0 Program</title>
<ellipse fill="none" stroke="#000000" cx="596.2416" cy="-975" rx="52.7911" ry="18"/>
<text text-anchor="middle" x="596.2416" y="-971.3" font-family="Times,serif" font-size="14.00" fill="#000000">#0 Program</text>
</g>
<!-- #1 Variable (f) -->
<g id="node2" class="node">
<title>#1 Variable (f)</title>
<ellipse fill="none" stroke="#000000" cx="744.2416" cy="-888" rx="63.8893" ry="18"/>
<text text-anchor="middle" x="744.2416" y="-884.3" font-family="Times,serif" font-size="14.00" fill="#000000">#1 Variable (f)</text>
</g>
<!-- #0 Program&#45;&gt;#1 Variable (f) -->
<g id="edge1" class="edge">
<title>#0 Program&#45;&gt;#1 Variable (f)</title>
<path fill="none" stroke="#0000ff" d="M623.0433,-959.245C646.7389,-945.3158 681.5157,-924.8727 707.7463,-909.4533"/>
<polygon fill="#0000ff" stroke="#0000ff" points="709.7887,-912.3127 716.6358,-904.2277 706.2413,-906.2781 709.7887,-912.3127"/>
<text text-anchor="middle" x="682.7416" y="-927.8" font-family="Times,serif" font-size="14.00" fill="#0000ff">1</text>
</g>
<!-- #23 ExpressionStatement -->
<g id="node3" class="node">
<title>#23 ExpressionStatement</title>
<ellipse fill="none" stroke="#000000" cx="596.2416" cy="-801" rx="100.9827" ry="18"/>
<text text-anchor="middle" x="596.2416" y="-797.3" font-family="Times,serif" font-size="14.00" fill="#000000">#23 ExpressionStatement</text>
</g>
<!-- #0 Program&#45;&gt;#23 ExpressionStatement -->
<g id="edge2" class="edge">
<title>#0 Program&#45;&gt;#23 ExpressionStatement</title>
<path fill="none" stroke="#0000ff" d="M596.2416,-956.7078C596.2416,-926.3436 596.2416,-865.3226 596.2416,-829.3464"/>
<polygon fill="#0000ff" stroke="#0000ff" points="599.7417,-829.0471 596.2416,-819.0471 592.7417,-829.0471 599.7417,-829.0471"/>
<text text-anchor="middle" x="599.7416" y="-884.3" font-family="Times,serif" font-size="14.00" fill="#0000ff">2</text>
</g>
<!-- #1 Variable (f)&#45;&gt;#23 ExpressionStatement -->
<g id="edge6" class="edge">
<title>#1 Variable (f)&#45;&gt;#23 ExpressionStatement</title>
<path fill="none" stroke="#ff0000" d="M716.404,-871.636C693.2589,-858.0304 660.0826,-838.5281 634.4517,-823.4613"/>
<polygon fill="#ff0000" stroke="#ff0000" points="636.1238,-820.3843 625.7292,-818.3339 632.5764,-826.4189 636.1238,-820.3843"/>
</g>
<!-- #2 Function (anon) -->
<g id="node7" class="node">
<title>#2 Function (anon)</title>
<ellipse fill="none" stroke="#000000" cx="850.2416" cy="-801" rx="78.7863" ry="18"/>
<text text-anchor="middle" x="850.2416" y="-797.3" font-family="Times,serif" font-size="14.00" fill="#000000">#2 Function (anon)</text>
</g>
<!-- #1 Variable (f)&#45;&gt;#2 Function (anon) -->
<g id="edge5" class="edge">
<title>#1 Variable (f)&#45;&gt;#2 Function (anon)</title>
<path fill="none" stroke="#0000ff" d="M765.1838,-870.8116C781.1943,-857.6709 803.4567,-839.3989 821.1899,-824.8443"/>
<polygon fill="#0000ff" stroke="#0000ff" points="823.4708,-827.5002 828.9801,-818.4505 819.0298,-822.0894 823.4708,-827.5002"/>
<text text-anchor="middle" x="812.7416" y="-840.8" font-family="Times,serif" font-size="14.00" fill="#0000ff">init</text>
</g>
<!-- #24 AssignmentExpression -->
<g id="node8" class="node">
<title>#24 AssignmentExpression</title>
<ellipse fill="none" stroke="#000000" cx="298.2416" cy="-714" rx="107.781" ry="18"/>
<text text-anchor="middle" x="298.2416" y="-710.3" font-family="Times,serif" font-size="14.00" fill="#000000">#24 AssignmentExpression</text>
</g>
<!-- #23 ExpressionStatement&#45;&gt;#24 AssignmentExpression -->
<g id="edge7" class="edge">
<title>#23 ExpressionStatement&#45;&gt;#24 AssignmentExpression</title>
<path fill="none" stroke="#0000ff" d="M543.6512,-785.6464C492.8435,-770.8133 415.826,-748.3283 361.6508,-732.5121"/>
<polygon fill="#0000ff" stroke="#0000ff" points="362.3926,-729.0826 351.8124,-729.6398 360.4308,-735.8021 362.3926,-729.0826"/>
<text text-anchor="middle" x="494.2416" y="-753.8" font-family="Times,serif" font-size="14.00" fill="#0000ff">expression</text>
</g>
<!-- #30 CFG_F_END __main__ -->
<g id="node9" class="node">
<title>#30 CFG_F_END __main__</title>
<ellipse fill="none" stroke="#ff0000" cx="596.2416" cy="-714" rx="113.18" ry="18"/>
<text text-anchor="middle" x="596.2416" y="-710.3" font-family="Times,serif" font-size="14.00" fill="#ff0000">#30 CFG_F_END __main__</text>
</g>
<!-- #23 ExpressionStatement&#45;&gt;#30 CFG_F_END __main__ -->
<g id="edge8" class="edge">
<title>#23 ExpressionStatement&#45;&gt;#30 CFG_F_END __main__</title>
<path fill="none" stroke="#ff0000" d="M596.2416,-782.9735C596.2416,-771.1918 596.2416,-755.5607 596.2416,-742.1581"/>
<polygon fill="#ff0000" stroke="#ff0000" points="599.7417,-742.0033 596.2416,-732.0034 592.7417,-742.0034 599.7417,-742.0033"/>
</g>
<!-- #29 CFG_F_START __main__ -->
<g id="node4" class="node">
<title>#29 CFG_F_START __main__</title>
<ellipse fill="none" stroke="#ff0000" cx="789.2416" cy="-975" rx="122.6784" ry="18"/>
<text text-anchor="middle" x="789.2416" y="-971.3" font-family="Times,serif" font-size="14.00" fill="#ff0000">#29 CFG_F_START __main__</text>
</g>
<!-- #29 CFG_F_START __main__&#45;&gt;#1 Variable (f) -->
<g id="edge3" class="edge">
<title>#29 CFG_F_START __main__&#45;&gt;#1 Variable (f)</title>
<path fill="none" stroke="#ff0000" d="M779.9176,-956.9735C773.6426,-944.8418 765.2565,-928.6287 758.1916,-914.9698"/>
<polygon fill="#ff0000" stroke="#ff0000" points="761.2568,-913.2776 753.5537,-906.0034 755.0392,-916.4935 761.2568,-913.2776"/>
</g>
<!-- #31 CFG_F_START 2_anon -->
<g id="node5" class="node">
<title>#31 CFG_F_START 2_anon</title>
<ellipse fill="none" stroke="#ff0000" cx="1049.2416" cy="-714" rx="113.18" ry="18"/>
<text text-anchor="middle" x="1049.2416" y="-710.3" font-family="Times,serif" font-size="14.00" fill="#ff0000">#31 CFG_F_START 2_anon</text>
</g>
<!-- #4 Variable (a) -->
<g id="node6" class="node">
<title>#4 Variable (a)</title>
<ellipse fill="none" stroke="#000000" cx="1154.2416" cy="-627" rx="64.189" ry="18"/>
<text text-anchor="middle" x="1154.2416" y="-623.3" font-family="Times,serif" font-size="14.00" fill="#000000">#4 Variable (a)</text>
</g>
<!-- #31 CFG_F_START 2_anon&#45;&gt;#4 Variable (a) -->
<g id="edge4" class="edge">
<title>#31 CFG_F_START 2_anon&#45;&gt;#4 Variable (a)</title>
<path fill="none" stroke="#ff0000" d="M1070.7433,-696.1843C1086.521,-683.1114 1108.118,-665.2167 1125.3946,-650.9019"/>
<polygon fill="#ff0000" stroke="#ff0000" points="1128.0171,-653.2743 1133.4843,-644.199 1123.551,-647.8841 1128.0171,-653.2743"/>
</g>
<!-- #5 ObjectExpression -->
<g id="node10" class="node">
<title>#5 ObjectExpression</title>
<ellipse fill="none" stroke="#000000" cx="1299.2416" cy="-540" rx="84.485" ry="18"/>
<text text-anchor="middle" x="1299.2416" y="-536.3" font-family="Times,serif" font-size="14.00" fill="#000000">#5 ObjectExpression</text>
</g>
<!-- #4 Variable (a)&#45;&gt;#5 ObjectExpression -->
<g id="edge9" class="edge">
<title>#4 Variable (a)&#45;&gt;#5 ObjectExpression</title>
<path fill="none" stroke="#0000ff" d="M1185.2372,-611.0594C1196.6736,-604.9917 1209.6621,-597.8793 1221.2416,-591 1235.9611,-582.2553 1251.8393,-572.0258 1265.4032,-563.0332"/>
<polygon fill="#0000ff" stroke="#0000ff" points="1267.5727,-565.7933 1273.947,-557.3305 1263.6865,-559.9711 1267.5727,-565.7933"/>
<text text-anchor="middle" x="1253.7416" y="-579.8" font-family="Times,serif" font-size="14.00" fill="#0000ff">init</text>
</g>
<!-- #6 ExpressionStatement -->
<g id="node11" class="node">
<title>#6 ExpressionStatement</title>
<ellipse fill="none" stroke="#000000" cx="997.2416" cy="-540" rx="96.6831" ry="18"/>
<text text-anchor="middle" x="997.2416" y="-536.3" font-family="Times,serif" font-size="14.00" fill="#000000">#6 ExpressionStatement</text>
</g>
<!-- #4 Variable (a)&#45;&gt;#6 ExpressionStatement -->
<g id="edge10" class="edge">
<title>#4 Variable (a)&#45;&gt;#6 ExpressionStatement</title>
<path fill="none" stroke="#ff0000" d="M1125.0791,-610.8399C1100.3012,-597.1094 1064.4946,-577.2676 1037.0761,-562.0739"/>
<polygon fill="#ff0000" stroke="#ff0000" points="1038.5706,-558.9006 1028.1273,-557.115 1035.1777,-565.0234 1038.5706,-558.9006"/>
</g>
<!-- #35 a&#45;o3 -->
<g id="node12" class="node">
<title>#35 a&#45;o3</title>
<ellipse fill="none" stroke="#006400" cx="1154.2416" cy="-540" rx="42.4939" ry="18"/>
<text text-anchor="middle" x="1154.2416" y="-536.3" font-family="Times,serif" font-size="14.00" fill="#006400">#35 a&#45;o3</text>
</g>
<!-- #4 Variable (a)&#45;&gt;#35 a&#45;o3 -->
<g id="edge11" class="edge">
<title>#4 Variable (a)&#45;&gt;#35 a&#45;o3</title>
<path fill="none" stroke="#006400" d="M1154.2416,-608.9735C1154.2416,-597.1918 1154.2416,-581.5607 1154.2416,-568.1581"/>
<polygon fill="#006400" stroke="#006400" points="1157.7417,-568.0033 1154.2416,-558.0034 1150.7417,-568.0034 1157.7417,-568.0033"/>
<text text-anchor="middle" x="1185.7416" y="-579.8" font-family="Times,serif" font-size="14.00" fill="#006400">CREATE a</text>
</g>
<!-- #3 Identifier (p) -->
<g id="node13" class="node">
<title>#3 Identifier (p)</title>
<ellipse fill="none" stroke="#000000" cx="850.2416" cy="-714" rx="67.6881" ry="18"/>
<text text-anchor="middle" x="850.2416" y="-710.3" font-family="Times,serif" font-size="14.00" fill="#000000">#3 Identifier (p)</text>
</g>
<!-- #2 Function (anon)&#45;&gt;#3 Identifier (p) -->
<g id="edge12" class="edge">
<title>#2 Function (anon)&#45;&gt;#3 Identifier (p)</title>
<path fill="none" stroke="#0000ff" d="M850.2416,-782.9735C850.2416,-771.1918 850.2416,-755.5607 850.2416,-742.1581"/>
<polygon fill="#0000ff" stroke="#0000ff" points="853.7417,-742.0033 850.2416,-732.0034 846.7417,-742.0034 853.7417,-742.0033"/>
<text text-anchor="middle" x="873.2416" y="-753.8" font-family="Times,serif" font-size="14.00" fill="#0000ff">param 1</text>
</g>
<!-- #22 BlockStatement -->
<g id="node14" class="node">
<title>#22 BlockStatement</title>
<ellipse fill="none" stroke="#000000" cx="1263.2416" cy="-714" rx="83.3857" ry="18"/>
<text text-anchor="middle" x="1263.2416" y="-710.3" font-family="Times,serif" font-size="14.00" fill="#000000">#22 BlockStatement</text>
</g>
<!-- #2 Function (anon)&#45;&gt;#22 BlockStatement -->
<g id="edge13" class="edge">
<title>#2 Function (anon)&#45;&gt;#22 BlockStatement</title>
<path fill="none" stroke="#0000ff" d="M908.5385,-788.7195C983.4892,-772.9309 1113.4943,-745.5448 1193.5749,-728.6755"/>
<polygon fill="#0000ff" stroke="#0000ff" points="1194.5041,-732.0567 1203.5679,-726.5705 1193.0611,-725.207 1194.5041,-732.0567"/>
<text text-anchor="middle" x="1096.7416" y="-753.8" font-family="Times,serif" font-size="14.00" fill="#0000ff">block</text>
</g>
<!-- #25 MemberExpression -->
<g id="node15" class="node">
<title>#25 MemberExpression</title>
<ellipse fill="none" stroke="#000000" cx="298.2416" cy="-627" rx="96.3833" ry="18"/>
<text text-anchor="middle" x="298.2416" y="-623.3" font-family="Times,serif" font-size="14.00" fill="#000000">#25 MemberExpression</text>
</g>
<!-- #24 AssignmentExpression&#45;&gt;#25 MemberExpression -->
<g id="edge14" class="edge">
<title>#24 AssignmentExpression&#45;&gt;#25 MemberExpression</title>
<path fill="none" stroke="#0000ff" d="M298.2416,-695.9735C298.2416,-684.1918 298.2416,-668.5607 298.2416,-655.1581"/>
<polygon fill="#0000ff" stroke="#0000ff" points="301.7417,-655.0033 298.2416,-645.0034 294.7417,-655.0034 301.7417,-655.0033"/>
<text text-anchor="middle" x="307.7416" y="-666.8" font-family="Times,serif" font-size="14.00" fill="#0000ff">left</text>
</g>
<!-- #28 Identifier (f) -->
<g id="node16" class="node">
<title>#28 Identifier (f)</title>
<ellipse fill="none" stroke="#000000" cx="114.2416" cy="-627" rx="70.3881" ry="18"/>
<text text-anchor="middle" x="114.2416" y="-623.3" font-family="Times,serif" font-size="14.00" fill="#000000">#28 Identifier (f)</text>
</g>
<!-- #24 AssignmentExpression&#45;&gt;#28 Identifier (f) -->
<g id="edge15" class="edge">
<title>#24 AssignmentExpression&#45;&gt;#28 Identifier (f)</title>
<path fill="none" stroke="#0000ff" d="M262.3278,-697.019C232.1531,-682.7516 188.9616,-662.3295 157.0055,-647.2199"/>
<polygon fill="#0000ff" stroke="#0000ff" points="158.4304,-644.0221 147.8939,-642.9117 155.4382,-650.3504 158.4304,-644.0221"/>
<text text-anchor="middle" x="231.2416" y="-666.8" font-family="Times,serif" font-size="14.00" fill="#0000ff">right</text>
</g>
<!-- #7 AssignmentExpression -->
<g id="node17" class="node">
<title>#7 AssignmentExpression</title>
<ellipse fill="none" stroke="#000000" cx="874.2416" cy="-453" rx="103.1819" ry="18"/>
<text text-anchor="middle" x="874.2416" y="-449.3" font-family="Times,serif" font-size="14.00" fill="#000000">#7 AssignmentExpression</text>
</g>
<!-- #6 ExpressionStatement&#45;&gt;#7 AssignmentExpression -->
<g id="edge16" class="edge">
<title>#6 ExpressionStatement&#45;&gt;#7 AssignmentExpression</title>
<path fill="none" stroke="#0000ff" d="M940.08,-525.2676C927.0023,-520.0422 913.846,-513.1102 903.2416,-504 895.7523,-497.5659 889.7767,-488.6919 885.2422,-480.1483"/>
<polygon fill="#0000ff" stroke="#0000ff" points="888.3893,-478.6165 880.8841,-471.1383 882.0878,-481.6646 888.3893,-478.6165"/>
<text text-anchor="middle" x="932.2416" y="-492.8" font-family="Times,serif" font-size="14.00" fill="#0000ff">expression</text>
</g>
<!-- #12 Variable (c) -->
<g id="node18" class="node">
<title>#12 Variable (c)</title>
<ellipse fill="none" stroke="#000000" cx="1044.2416" cy="-366" rx="68.7879" ry="18"/>
<text text-anchor="middle" x="1044.2416" y="-362.3" font-family="Times,serif" font-size="14.00" fill="#000000">#12 Variable (c)</text>
</g>
<!-- #6 ExpressionStatement&#45;&gt;#12 Variable (c) -->
<g id="edge17" class="edge">
<title>#6 ExpressionStatement&#45;&gt;#12 Variable (c)</title>
<path fill="none" stroke="#ff0000" d="M1012.1809,-521.8632C1016.0069,-516.4073 1019.7421,-510.2121 1022.2416,-504 1036.7762,-467.8767 1041.7334,-422.8065 1043.4092,-394.206"/>
<polygon fill="#ff0000" stroke="#ff0000" points="1046.9105,-394.2632 1043.9039,-384.1039 1039.9188,-393.9207 1046.9105,-394.2632"/>
</g>
<!-- #36 a&#45;o4 -->
<g id="node19" class="node">
<title>#36 a&#45;o4</title>
<ellipse fill="none" stroke="#006400" cx="1113.2416" cy="-453" rx="42.4939" ry="18"/>
<text text-anchor="middle" x="1113.2416" y="-449.3" font-family="Times,serif" font-size="14.00" fill="#006400">#36 a&#45;o4</text>
</g>
<!-- #6 ExpressionStatement&#45;&gt;#36 a&#45;o4 -->
<g id="edge18" class="edge">
<title>#6 ExpressionStatement&#45;&gt;#36 a&#45;o4</title>
<path fill="none" stroke="#006400" d="M1026.5057,-522.6866C1035.585,-517.0074 1045.4982,-510.4835 1054.2416,-504 1065.6551,-495.5366 1077.6259,-485.4415 1087.7791,-476.4748"/>
<polygon fill="#006400" stroke="#006400" points="1090.3682,-478.8548 1095.4867,-469.5784 1085.7005,-473.6381 1090.3682,-478.8548"/>
<text text-anchor="middle" x="1099.7416" y="-492.8" font-family="Times,serif" font-size="14.00" fill="#006400">WRITE b</text>
</g>
<!-- #35 a&#45;o3&#45;&gt;#36 a&#45;o4 -->
<g id="edge19" class="edge">
<title>#35 a&#45;o3&#45;&gt;#36 a&#45;o4</title>
<path fill="none" stroke="#006400" d="M1146.8439,-521.9074C1142.7272,-512.0878 1137.4042,-499.7852 1132.2416,-489 1130.8076,-486.004 1129.2596,-482.8947 1127.688,-479.8146"/>
<polygon fill="#006400" stroke="#006400" points="1130.7177,-478.0549 1122.9921,-470.8047 1124.5103,-481.2902 1130.7177,-478.0549"/>
<text text-anchor="middle" x="1192.2416" y="-492.8" font-family="Times,serif" font-size="14.00" fill="#006400">NEW_VERSION b</text>
</g>
<!-- #33 p&#45;o2 -->
<g id="node20" class="node">
<title>#33 p&#45;o2</title>
<ellipse fill="none" stroke="#006400" cx="866.2416" cy="-627" rx="42.4939" ry="18"/>
<text text-anchor="middle" x="866.2416" y="-623.3" font-family="Times,serif" font-size="14.00" fill="#006400">#33 p&#45;o2</text>
</g>
<!-- #3 Identifier (p)&#45;&gt;#33 p&#45;o2 -->
<g id="edge20" class="edge">
<title>#3 Identifier (p)&#45;&gt;#33 p&#45;o2</title>
<path fill="none" stroke="#006400" d="M853.5568,-695.9735C855.7236,-684.1918 858.5983,-668.5607 861.0631,-655.1581"/>
<polygon fill="#006400" stroke="#006400" points="864.5641,-655.4715 862.9307,-645.0034 857.6796,-654.2053 864.5641,-655.4715"/>
<text text-anchor="middle" x="890.2416" y="-666.8" font-family="Times,serif" font-size="14.00" fill="#006400">CREATE p</text>
</g>
<!-- #22 BlockStatement&#45;&gt;#4 Variable (a) -->
<g id="edge21" class="edge">
<title>#22 BlockStatement&#45;&gt;#4 Variable (a)</title>
<path fill="none" stroke="#0000ff" d="M1241.4458,-696.6033C1224.8521,-683.3588 1201.8397,-664.9911 1183.6212,-650.4498"/>
<polygon fill="#0000ff" stroke="#0000ff" points="1185.6273,-647.5728 1175.6282,-644.07 1181.2605,-653.0437 1185.6273,-647.5728"/>
<text text-anchor="middle" x="1218.7416" y="-666.8" font-family="Times,serif" font-size="14.00" fill="#0000ff">1</text>
</g>
<!-- #22 BlockStatement&#45;&gt;#6 ExpressionStatement -->
<g id="edge22" class="edge">
<title>#22 BlockStatement&#45;&gt;#6 ExpressionStatement</title>
<path fill="none" stroke="#0000ff" d="M1202.6312,-701.5328C1163.1973,-691.2151 1112.2308,-673.5242 1074.2416,-645 1046.4737,-624.1504 1024.3059,-590.5172 1011.0154,-566.9485"/>
<polygon fill="#0000ff" stroke="#0000ff" points="1014.0705,-565.2404 1006.1997,-558.1482 1007.9298,-568.6008 1014.0705,-565.2404"/>
<text text-anchor="middle" x="1077.7416" y="-623.3" font-family="Times,serif" font-size="14.00" fill="#0000ff">2</text>
</g>
<!-- #22 BlockStatement&#45;&gt;#12 Variable (c) -->
<g id="edge23" class="edge">
<title>#22 BlockStatement&#45;&gt;#12 Variable (c)</title>
<path fill="none" stroke="#0000ff" d="M1330.305,-703.3412C1372.5864,-692.3637 1419.2416,-670.4145 1419.2416,-627 1419.2416,-627 1419.2416,-627 1419.2416,-453 1419.2416,-392.7267 1233.0862,-374.1985 1123.0932,-368.5115"/>
<polygon fill="#0000ff" stroke="#0000ff" points="1123.1825,-365.0117 1113.0224,-368.0155 1122.8381,-372.0033 1123.1825,-365.0117"/>
<text text-anchor="middle" x="1422.7416" y="-536.3" font-family="Times,serif" font-size="14.00" fill="#0000ff">3</text>
</g>
<!-- #16 Variable (v1) -->
<g id="node21" class="node">
<title>#16 Variable (v1)</title>
<ellipse fill="none" stroke="#000000" cx="1046.2416" cy="-279" rx="73.387" ry="18"/>
<text text-anchor="middle" x="1046.2416" y="-275.3" font-family="Times,serif" font-size="14.00" fill="#000000">#16 Variable (v1)</text>
</g>
<!-- #22 BlockStatement&#45;&gt;#16 Variable (v1) -->
<g id="edge24" class="edge">
<title>#22 BlockStatement&#45;&gt;#16 Variable (v1)</title>
<path fill="none" stroke="#0000ff" d="M1337.3636,-705.6333C1362.7594,-700.3912 1390.4859,-691.8656 1413.2416,-678 1438.8063,-662.4229 1457.2416,-656.9366 1457.2416,-627 1457.2416,-627 1457.2416,-627 1457.2416,-366 1457.2416,-332.2926 1242.9242,-301.9001 1123.8141,-287.6119"/>
<polygon fill="#0000ff" stroke="#0000ff" points="1123.9929,-284.1086 1113.6497,-286.4039 1123.1667,-291.0597 1123.9929,-284.1086"/>
<text text-anchor="middle" x="1460.7416" y="-492.8" font-family="Times,serif" font-size="14.00" fill="#0000ff">4</text>
</g>
<!-- #20 ReturnStatement -->
<g id="node22" class="node">
<title>#20 ReturnStatement</title>
<ellipse fill="none" stroke="#000000" cx="966.2416" cy="-105" rx="85.5853" ry="18"/>
<text text-anchor="middle" x="966.2416" y="-101.3" font-family="Times,serif" font-size="14.00" fill="#000000">#20 ReturnStatement</text>
</g>
<!-- #22 BlockStatement&#45;&gt;#20 ReturnStatement -->
<g id="edge25" class="edge">
<title>#22 BlockStatement&#45;&gt;#20 ReturnStatement</title>
<path fill="none" stroke="#0000ff" d="M1204.046,-701.1832C1193.1769,-699.1823 1181.8995,-697.3379 1171.2416,-696 1088.3178,-685.5905 422.2416,-710.5746 422.2416,-627 422.2416,-627 422.2416,-627 422.2416,-192 422.2416,-146.8722 717.911,-120.9983 873.2964,-110.5165"/>
<polygon fill="#0000ff" stroke="#0000ff" points="873.5787,-114.0056 883.3239,-109.8483 873.1132,-107.0211 873.5787,-114.0056"/>
<text text-anchor="middle" x="425.7416" y="-405.8" font-family="Times,serif" font-size="14.00" fill="#0000ff">5</text>
</g>
<!-- #26 Identifier (module) -->
<g id="node23" class="node">
<title>#26 Identifier (module)</title>
<ellipse fill="none" stroke="#000000" cx="94.2416" cy="-540" rx="94.4839" ry="18"/>
<text text-anchor="middle" x="94.2416" y="-536.3" font-family="Times,serif" font-size="14.00" fill="#000000">#26 Identifier (module)</text>
</g>
<!-- #25 MemberExpression&#45;&gt;#26 Identifier (module) -->
<g id="edge26" class="edge">
<title>#25 MemberExpression&#45;&gt;#26 Identifier (module)</title>
<path fill="none" stroke="#0000ff" d="M259.3906,-610.4312C226.069,-596.2205 177.9236,-575.6879 142.2061,-560.4555"/>
<polygon fill="#0000ff" stroke="#0000ff" points="143.5195,-557.2106 132.948,-556.5071 140.7734,-563.6495 143.5195,-557.2106"/>
<text text-anchor="middle" x="226.2416" y="-579.8" font-family="Times,serif" font-size="14.00" fill="#0000ff">object</text>
</g>
<!-- #27 Identifier (exports) -->
<g id="node24" class="node">
<title>#27 Identifier (exports)</title>
<ellipse fill="none" stroke="#000000" cx="299.2416" cy="-540" rx="92.8835" ry="18"/>
<text text-anchor="middle" x="299.2416" y="-536.3" font-family="Times,serif" font-size="14.00" fill="#000000">#27 Identifier (exports)</text>
</g>
<!-- #25 MemberExpression&#45;&gt;#27 Identifier (exports) -->
<g id="edge27" class="edge">
<title>#25 MemberExpression&#45;&gt;#27 Identifier (exports)</title>
<path fill="none" stroke="#0000ff" d="M298.4488,-608.9735C298.5843,-597.1918 298.7639,-581.5607 298.918,-568.1581"/>
<polygon fill="#0000ff" stroke="#0000ff" points="302.4194,-568.043 299.0347,-558.0034 295.4199,-567.9624 302.4194,-568.043"/>
<text text-anchor="middle" x="322.2416" y="-579.8" font-family="Times,serif" font-size="14.00" fill="#0000ff">property</text>
</g>
<!-- #8 MemberExpression -->
<g id="node25" class="node">
<title>#8 MemberExpression</title>
<ellipse fill="none" stroke="#000000" cx="650.2416" cy="-366" rx="91.784" ry="18"/>
<text text-anchor="middle" x="650.2416" y="-362.3" font-family="Times,serif" font-size="14.00" fill="#000000">#8 MemberExpression</text>
</g>
<!-- #7 AssignmentExpression&#45;&gt;#8 MemberExpression -->
<g id="edge28" class="edge">
<title>#7 AssignmentExpression&#45;&gt;#8 MemberExpression</title>
<path fill="none" stroke="#0000ff" d="M831.8456,-436.5337C794.7798,-422.1376 740.8634,-401.1969 701.4073,-385.8724"/>
<polygon fill="#0000ff" stroke="#0000ff" points="702.2955,-382.4627 691.7067,-382.1047 699.7612,-388.9878 702.2955,-382.4627"/>
<text text-anchor="middle" x="785.7416" y="-405.8" font-family="Times,serif" font-size="14.00" fill="#0000ff">left</text>
</g>
<!-- #11 Identifier (p) -->
<g id="node26" class="node">
<title>#11 Identifier (p)</title>
<ellipse fill="none" stroke="#000000" cx="874.2416" cy="-366" rx="71.4873" ry="18"/>
<text text-anchor="middle" x="874.2416" y="-362.3" font-family="Times,serif" font-size="14.00" fill="#000000">#11 Identifier (p)</text>
</g>
<!-- #7 AssignmentExpression&#45;&gt;#11 Identifier (p) -->
<g id="edge29" class="edge">
<title>#7 AssignmentExpression&#45;&gt;#11 Identifier (p)</title>
<path fill="none" stroke="#0000ff" d="M874.2416,-434.9735C874.2416,-423.1918 874.2416,-407.5607 874.2416,-394.1581"/>
<polygon fill="#0000ff" stroke="#0000ff" points="877.7417,-394.0033 874.2416,-384.0034 870.7417,-394.0034 877.7417,-394.0033"/>
<text text-anchor="middle" x="887.2416" y="-405.8" font-family="Times,serif" font-size="14.00" fill="#0000ff">right</text>
</g>
<!-- #12 Variable (c)&#45;&gt;#33 p&#45;o2 -->
<g id="edge32" class="edge">
<title>#12 Variable (c)&#45;&gt;#33 p&#45;o2</title>
<path fill="none" stroke="#000000" d="M1038.8893,-384.36C1028.9932,-414.754 1004.769,-475.0399 961.2416,-504 934.497,-521.794 913.7514,-499.0825 891.2416,-522 871.4284,-542.1721 866.2864,-575.0429 865.404,-598.6347"/>
<polygon fill="#000000" stroke="#000000" points="861.9029,-598.6937 865.2609,-608.7423 868.9022,-598.7929 861.9029,-598.6937"/>
<text text-anchor="middle" x="996.7416" y="-492.8" font-family="Times,serif" font-size="14.00" fill="#000000">REF c</text>
</g>
<!-- #12 Variable (c)&#45;&gt;#16 Variable (v1) -->
<g id="edge31" class="edge">
<title>#12 Variable (c)&#45;&gt;#16 Variable (v1)</title>
<path fill="none" stroke="#ff0000" d="M1044.656,-347.9735C1044.9269,-336.1918 1045.2862,-320.5607 1045.5943,-307.1581"/>
<polygon fill="#ff0000" stroke="#ff0000" points="1049.0969,-307.0812 1045.8278,-297.0034 1042.0988,-306.9202 1049.0969,-307.0812"/>
</g>
<!-- #13 MemberExpression -->
<g id="node27" class="node">
<title>#13 MemberExpression</title>
<ellipse fill="none" stroke="#000000" cx="858.2416" cy="-279" rx="96.3833" ry="18"/>
<text text-anchor="middle" x="858.2416" y="-275.3" font-family="Times,serif" font-size="14.00" fill="#000000">#13 MemberExpression</text>
</g>
<!-- #12 Variable (c)&#45;&gt;#13 MemberExpression -->
<g id="edge30" class="edge">
<title>#12 Variable (c)&#45;&gt;#13 MemberExpression</title>
<path fill="none" stroke="#0000ff" d="M1010.5584,-350.245C980.6398,-336.2508 936.6644,-315.6816 903.6463,-300.2377"/>
<polygon fill="#0000ff" stroke="#0000ff" points="904.7538,-296.8918 894.2128,-295.8252 901.788,-303.2325 904.7538,-296.8918"/>
<text text-anchor="middle" x="971.7416" y="-318.8" font-family="Times,serif" font-size="14.00" fill="#0000ff">init</text>
</g>
<!-- #36 a&#45;o4&#45;&gt;#12 Variable (c) -->
<g id="edge33" class="edge">
<title>#36 a&#45;o4&#45;&gt;#12 Variable (c)</title>
<path fill="none" stroke="#006400" d="M1099.6095,-435.8116C1089.6287,-423.2272 1075.9157,-405.9369 1064.6341,-391.7122"/>
<polygon fill="#006400" stroke="#006400" points="1067.2755,-389.4101 1058.3192,-383.75 1061.791,-393.7599 1067.2755,-389.4101"/>
<text text-anchor="middle" x="1115.2416" y="-405.8" font-family="Times,serif" font-size="14.00" fill="#006400">LOOKUP b</text>
</g>
<!-- #33 p&#45;o2&#45;&gt;#6 ExpressionStatement -->
<g id="edge34" class="edge">
<title>#33 p&#45;o2&#45;&gt;#6 ExpressionStatement</title>
<path fill="none" stroke="#006400" d="M889.0601,-611.8458C909.3405,-598.3771 939.2901,-578.4869 962.5381,-563.0474"/>
<polygon fill="#006400" stroke="#006400" points="964.692,-565.8185 971.0859,-557.3706 960.8193,-559.9873 964.692,-565.8185"/>
<text text-anchor="middle" x="959.2416" y="-579.8" font-family="Times,serif" font-size="14.00" fill="#006400">VAR p</text>
</g>
<!-- #33 p&#45;o2&#45;&gt;#16 Variable (v1) -->
<g id="edge35" class="edge">
<title>#33 p&#45;o2&#45;&gt;#16 Variable (v1)</title>
<path fill="none" stroke="#006400" d="M841.1203,-612.4956C793.2503,-582.7855 696.0425,-511.3471 723.2416,-435 731.6162,-411.4929 773.3245,-361.6085 794.2416,-348 810.255,-337.5819 914.3214,-310.9949 983.6169,-294.031"/>
<polygon fill="#006400" stroke="#006400" points="984.6889,-297.3721 993.5739,-291.601 983.0292,-290.5717 984.6889,-297.3721"/>
<text text-anchor="middle" x="742.7416" y="-449.3" font-family="Times,serif" font-size="14.00" fill="#006400">VAR c</text>
</g>
<!-- #16 Variable (v1)&#45;&gt;#20 ReturnStatement -->
<g id="edge37" class="edge">
<title>#16 Variable (v1)&#45;&gt;#20 ReturnStatement</title>
<path fill="none" stroke="#ff0000" d="M1025.7398,-261.4678C1012.0887,-248.6218 994.9383,-229.9981 985.2416,-210 973.5032,-185.7908 968.9684,-155.2557 967.2419,-133.3642"/>
<polygon fill="#ff0000" stroke="#ff0000" points="970.7343,-133.1326 966.6006,-123.3774 963.7487,-133.5812 970.7343,-133.1326"/>
</g>
<!-- #17 CallExpression -->
<g id="node28" class="node">
<title>#17 CallExpression</title>
<ellipse fill="none" stroke="#000000" cx="1186.2416" cy="-192" rx="79.8859" ry="18"/>
<text text-anchor="middle" x="1186.2416" y="-188.3" font-family="Times,serif" font-size="14.00" fill="#000000">#17 CallExpression</text>
</g>
<!-- #16 Variable (v1)&#45;&gt;#17 CallExpression -->
<g id="edge36" class="edge">
<title>#16 Variable (v1)&#45;&gt;#17 CallExpression</title>
<path fill="none" stroke="#0000ff" d="M1080.822,-262.9157C1092.6094,-257.0552 1105.7156,-250.1126 1117.2416,-243 1130.5028,-234.8167 1144.4477,-224.8054 1156.3032,-215.8265"/>
<polygon fill="#0000ff" stroke="#0000ff" points="1158.727,-218.3781 1164.5269,-209.5118 1154.4638,-212.8261 1158.727,-218.3781"/>
<text text-anchor="middle" x="1147.7416" y="-231.8" font-family="Times,serif" font-size="14.00" fill="#0000ff">init</text>
</g>
<!-- #37 v1&#45;o5 -->
<g id="node29" class="node">
<title>#37 v1&#45;o5</title>
<ellipse fill="none" stroke="#006400" cx="1041.2416" cy="-192" rx="46.5926" ry="18"/>
<text text-anchor="middle" x="1041.2416" y="-188.3" font-family="Times,serif" font-size="14.00" fill="#006400">#37 v1&#45;o5</text>
</g>
<!-- #16 Variable (v1)&#45;&gt;#37 v1&#45;o5 -->
<g id="edge38" class="edge">
<title>#16 Variable (v1)&#45;&gt;#37 v1&#45;o5</title>
<path fill="none" stroke="#006400" d="M1045.2056,-260.9735C1044.5285,-249.1918 1043.6302,-233.5607 1042.8599,-220.1581"/>
<polygon fill="#006400" stroke="#006400" points="1046.3444,-219.786 1042.2763,-210.0034 1039.3559,-220.1877 1046.3444,-219.786"/>
<text text-anchor="middle" x="1078.2416" y="-231.8" font-family="Times,serif" font-size="14.00" fill="#006400">CREATE v1</text>
</g>
<!-- #21 Identifier (v1) -->
<g id="node30" class="node">
<title>#21 Identifier (v1)</title>
<ellipse fill="none" stroke="#000000" cx="868.2416" cy="-18" rx="76.0865" ry="18"/>
<text text-anchor="middle" x="868.2416" y="-14.3" font-family="Times,serif" font-size="14.00" fill="#000000">#21 Identifier (v1)</text>
</g>
<!-- #20 ReturnStatement&#45;&gt;#21 Identifier (v1) -->
<g id="edge39" class="edge">
<title>#20 ReturnStatement&#45;&gt;#21 Identifier (v1)</title>
<path fill="none" stroke="#0000ff" d="M946.4099,-87.3943C931.7983,-74.4228 911.7461,-56.6213 895.6098,-42.2962"/>
<polygon fill="#0000ff" stroke="#0000ff" points="897.8459,-39.6011 888.0439,-35.5796 893.1986,-44.8359 897.8459,-39.6011"/>
<text text-anchor="middle" x="948.2416" y="-57.8" font-family="Times,serif" font-size="14.00" fill="#0000ff">argument</text>
</g>
<!-- #32 CFG_F_END 2_anon -->
<g id="node31" class="node">
<title>#32 CFG_F_END 2_anon</title>
<ellipse fill="none" stroke="#ff0000" cx="1065.2416" cy="-18" rx="103.1819" ry="18"/>
<text text-anchor="middle" x="1065.2416" y="-14.3" font-family="Times,serif" font-size="14.00" fill="#ff0000">#32 CFG_F_END 2_anon</text>
</g>
<!-- #20 ReturnStatement&#45;&gt;#32 CFG_F_END 2_anon -->
<g id="edge40" class="edge">
<title>#20 ReturnStatement&#45;&gt;#32 CFG_F_END 2_anon</title>
<path fill="none" stroke="#ff0000" d="M986.2758,-87.3943C1000.9393,-74.5081 1021.0269,-56.8554 1037.2719,-42.5794"/>
<polygon fill="#ff0000" stroke="#ff0000" points="1039.6963,-45.1084 1044.8975,-35.8782 1035.0754,-39.8503 1039.6963,-45.1084"/>
</g>
<!-- #9 Identifier (a) -->
<g id="node32" class="node">
<title>#9 Identifier (a)</title>
<ellipse fill="none" stroke="#000000" cx="677.2416" cy="-279" rx="66.8882" ry="18"/>
<text text-anchor="middle" x="677.2416" y="-275.3" font-family="Times,serif" font-size="14.00" fill="#000000">#9 Identifier (a)</text>
</g>
<!-- #8 MemberExpression&#45;&gt;#9 Identifier (a) -->
<g id="edge41" class="edge">
<title>#8 MemberExpression&#45;&gt;#9 Identifier (a)</title>
<path fill="none" stroke="#0000ff" d="M655.8361,-347.9735C659.5287,-336.0751 664.4397,-320.2508 668.6263,-306.7606"/>
<polygon fill="#0000ff" stroke="#0000ff" points="672.0331,-307.5914 671.6544,-297.0034 665.3476,-305.5166 672.0331,-307.5914"/>
<text text-anchor="middle" x="683.2416" y="-318.8" font-family="Times,serif" font-size="14.00" fill="#0000ff">object</text>
</g>
<!-- #10 Identifier (b) -->
<g id="node33" class="node">
<title>#10 Identifier (b)</title>
<ellipse fill="none" stroke="#000000" cx="521.2416" cy="-279" rx="71.4873" ry="18"/>
<text text-anchor="middle" x="521.2416" y="-275.3" font-family="Times,serif" font-size="14.00" fill="#000000">#10 Identifier (b)</text>
</g>
<!-- #8 MemberExpression&#45;&gt;#10 Identifier (b) -->
<g id="edge42" class="edge">
<title>#8 MemberExpression&#45;&gt;#10 Identifier (b)</title>
<path fill="none" stroke="#0000ff" d="M624.4466,-348.6033C604.4543,-335.1202 576.5894,-316.3276 554.8521,-301.6675"/>
<polygon fill="#0000ff" stroke="#0000ff" points="556.8001,-298.7597 546.5524,-296.07 552.8861,-304.5632 556.8001,-298.7597"/>
<text text-anchor="middle" x="617.2416" y="-318.8" font-family="Times,serif" font-size="14.00" fill="#0000ff">property</text>
</g>
<!-- #14 Identifier (a) -->
<g id="node34" class="node">
<title>#14 Identifier (a)</title>
<ellipse fill="none" stroke="#000000" cx="860.2416" cy="-192" rx="71.4873" ry="18"/>
<text text-anchor="middle" x="860.2416" y="-188.3" font-family="Times,serif" font-size="14.00" fill="#000000">#14 Identifier (a)</text>
</g>
<!-- #13 MemberExpression&#45;&gt;#14 Identifier (a) -->
<g id="edge43" class="edge">
<title>#13 MemberExpression&#45;&gt;#14 Identifier (a)</title>
<path fill="none" stroke="#0000ff" d="M858.656,-260.9735C858.9269,-249.1918 859.2862,-233.5607 859.5943,-220.1581"/>
<polygon fill="#0000ff" stroke="#0000ff" points="863.0969,-220.0812 859.8278,-210.0034 856.0988,-219.9202 863.0969,-220.0812"/>
<text text-anchor="middle" x="876.2416" y="-231.8" font-family="Times,serif" font-size="14.00" fill="#0000ff">object</text>
</g>
<!-- #15 Identifier (b) -->
<g id="node35" class="node">
<title>#15 Identifier (b)</title>
<ellipse fill="none" stroke="#000000" cx="699.2416" cy="-192" rx="71.4873" ry="18"/>
<text text-anchor="middle" x="699.2416" y="-188.3" font-family="Times,serif" font-size="14.00" fill="#000000">#15 Identifier (b)</text>
</g>
<!-- #13 MemberExpression&#45;&gt;#15 Identifier (b) -->
<g id="edge44" class="edge">
<title>#13 MemberExpression&#45;&gt;#15 Identifier (b)</title>
<path fill="none" stroke="#0000ff" d="M826.8284,-261.8116C801.378,-247.8859 765.3959,-228.1976 738.1285,-213.2777"/>
<polygon fill="#0000ff" stroke="#0000ff" points="739.6959,-210.1457 729.2432,-208.4159 736.3358,-216.2865 739.6959,-210.1457"/>
<text text-anchor="middle" x="811.2416" y="-231.8" font-family="Times,serif" font-size="14.00" fill="#0000ff">property</text>
</g>
<!-- #18 Identifier (eval) -->
<g id="node36" class="node">
<title>#18 Identifier (eval)</title>
<ellipse fill="none" stroke="#000000" cx="1334.2416" cy="-105" rx="81.7856" ry="18"/>
<text text-anchor="middle" x="1334.2416" y="-101.3" font-family="Times,serif" font-size="14.00" fill="#000000">#18 Identifier (eval)</text>
</g>
<!-- #17 CallExpression&#45;&gt;#18 Identifier (eval) -->
<g id="edge45" class="edge">
<title>#17 CallExpression&#45;&gt;#18 Identifier (eval)</title>
<path fill="none" stroke="#0000ff" d="M1215.1289,-175.019C1238.3546,-161.3661 1271.1678,-142.0772 1296.4749,-127.2007"/>
<polygon fill="#0000ff" stroke="#0000ff" points="1298.5801,-130.0232 1305.4273,-121.9382 1295.0327,-123.9886 1298.5801,-130.0232"/>
<text text-anchor="middle" x="1284.2416" y="-144.8" font-family="Times,serif" font-size="14.00" fill="#0000ff">callee</text>
</g>
<!-- #19 Identifier (c) -->
<g id="node37" class="node">
<title>#19 Identifier (c)</title>
<ellipse fill="none" stroke="#000000" cx="1163.2416" cy="-105" rx="71.4873" ry="18"/>
<text text-anchor="middle" x="1163.2416" y="-101.3" font-family="Times,serif" font-size="14.00" fill="#000000">#19 Identifier (c)</text>
</g>
<!-- #17 CallExpression&#45;&gt;#19 Identifier (c) -->
<g id="edge46" class="edge">
<title>#17 CallExpression&#45;&gt;#19 Identifier (c)</title>
<path fill="none" stroke="#0000ff" d="M1181.476,-173.9735C1178.3305,-162.0751 1174.147,-146.2508 1170.5807,-132.7606"/>
<polygon fill="#0000ff" stroke="#0000ff" points="1173.9408,-131.7766 1168.0011,-123.0034 1167.1733,-133.5658 1173.9408,-131.7766"/>
<text text-anchor="middle" x="1189.2416" y="-144.8" font-family="Times,serif" font-size="14.00" fill="#0000ff">arg 1</text>
</g>
<!-- #37 v1&#45;o5&#45;&gt;#20 ReturnStatement -->
<g id="edge47" class="edge">
<title>#37 v1&#45;o5&#45;&gt;#20 ReturnStatement</title>
<path fill="none" stroke="#006400" d="M1026.4241,-174.8116C1015.5754,-162.2272 1000.67,-144.9369 988.4074,-130.7122"/>
<polygon fill="#006400" stroke="#006400" points="990.7237,-128.0388 981.5434,-122.75 985.4218,-132.6094 990.7237,-128.0388"/>
<text text-anchor="middle" x="1030.2416" y="-144.8" font-family="Times,serif" font-size="14.00" fill="#006400">VAR v1</text>
</g>
</g>
</svg>
