<?xml version="1.0" encoding="UTF-8" standalone="no"?>
<!DOCTYPE svg PUBLIC "-//W3C//DTD SVG 1.1//EN"
 "http://www.w3.org/Graphics/SVG/1.1/DTD/svg11.dtd">
<!-- Generated by graphviz version 2.40.1 (20161225.0304)
 -->
<!-- Title: G Pages: 1 -->
<svg width="1515pt" height="1283pt"
 viewBox="0.00 0.00 1515.44 1283.00" xmlns="http://www.w3.org/2000/svg" xmlns:xlink="http://www.w3.org/1999/xlink">
<g id="graph0" class="graph" transform="scale(1 1) rotate(0) translate(4 1279)">
<title>G</title>
<polygon fill="#ffffff" stroke="transparent" points="-4,4 -4,-1279 1511.4377,-1279 1511.4377,4 -4,4"/>
<!-- #0 Program -->
<g id="node1" class="node">
<title>#0 Program</title>
<ellipse fill="none" stroke="#000000" cx="631.9418" cy="-1257" rx="52.7911" ry="18"/>
<text text-anchor="middle" x="631.9418" y="-1253.3" font-family="Times,serif" font-size="14.00" fill="#000000">#0 Program</text>
</g>
<!-- #1 Variable (f) -->
<g id="node2" class="node">
<title>#1 Variable (f)</title>
<ellipse fill="none" stroke="#000000" cx="785.9418" cy="-1170" rx="63.8893" ry="18"/>
<text text-anchor="middle" x="785.9418" y="-1166.3" font-family="Times,serif" font-size="14.00" fill="#000000">#1 Variable (f)</text>
</g>
<!-- #0 Program&#45;&gt;#1 Variable (f) -->
<g id="edge1" class="edge">
<title>#0 Program&#45;&gt;#1 Variable (f)</title>
<path fill="none" stroke="#0000ff" d="M659.4739,-1241.4461C684.2693,-1227.4383 720.9329,-1206.7258 748.4084,-1191.2039"/>
<polygon fill="#0000ff" stroke="#0000ff" points="750.3584,-1194.1223 757.3435,-1186.1562 746.9152,-1188.0276 750.3584,-1194.1223"/>
<text text-anchor="middle" x="722.4418" y="-1209.8" font-family="Times,serif" font-size="14.00" fill="#0000ff">1</text>
</g>
<!-- #27 ExpressionStatement -->
<g id="node3" class="node">
<title>#27 ExpressionStatement</title>
<ellipse fill="none" stroke="#000000" cx="631.9418" cy="-1083" rx="100.9827" ry="18"/>
<text text-anchor="middle" x="631.9418" y="-1079.3" font-family="Times,serif" font-size="14.00" fill="#000000">#27 ExpressionStatement</text>
</g>
<!-- #0 Program&#45;&gt;#27 ExpressionStatement -->
<g id="edge2" class="edge">
<title>#0 Program&#45;&gt;#27 ExpressionStatement</title>
<path fill="none" stroke="#0000ff" d="M631.9418,-1238.7078C631.9418,-1208.3436 631.9418,-1147.3226 631.9418,-1111.3464"/>
<polygon fill="#0000ff" stroke="#0000ff" points="635.4419,-1111.0471 631.9418,-1101.0471 628.4419,-1111.0471 635.4419,-1111.0471"/>
<text text-anchor="middle" x="635.4418" y="-1166.3" font-family="Times,serif" font-size="14.00" fill="#0000ff">2</text>
</g>
<!-- #1 Variable (f)&#45;&gt;#27 ExpressionStatement -->
<g id="edge6" class="edge">
<title>#1 Variable (f)&#45;&gt;#27 ExpressionStatement</title>
<path fill="none" stroke="#ff0000" d="M757.3364,-1153.8399C733.1101,-1140.1536 698.1354,-1120.3951 671.2748,-1105.2206"/>
<polygon fill="#ff0000" stroke="#ff0000" points="672.9321,-1102.137 662.5038,-1100.2656 669.4889,-1108.2317 672.9321,-1102.137"/>
</g>
<!-- #2 Function (anon) -->
<g id="node7" class="node">
<title>#2 Function (anon)</title>
<ellipse fill="none" stroke="#000000" cx="845.9418" cy="-1083" rx="78.7863" ry="18"/>
<text text-anchor="middle" x="845.9418" y="-1079.3" font-family="Times,serif" font-size="14.00" fill="#000000">#2 Function (anon)</text>
</g>
<!-- #1 Variable (f)&#45;&gt;#2 Function (anon) -->
<g id="edge5" class="edge">
<title>#1 Variable (f)&#45;&gt;#2 Function (anon)</title>
<path fill="none" stroke="#0000ff" d="M798.3738,-1151.9735C806.8209,-1139.7252 818.1373,-1123.3165 827.6131,-1109.5766"/>
<polygon fill="#0000ff" stroke="#0000ff" points="830.7295,-1111.2226 833.5256,-1101.0034 824.967,-1107.2484 830.7295,-1111.2226"/>
<text text-anchor="middle" x="829.4418" y="-1122.8" font-family="Times,serif" font-size="14.00" fill="#0000ff">init</text>
</g>
<!-- #28 AssignmentExpression -->
<g id="node8" class="node">
<title>#28 AssignmentExpression</title>
<ellipse fill="none" stroke="#000000" cx="392.9418" cy="-996" rx="107.781" ry="18"/>
<text text-anchor="middle" x="392.9418" y="-992.3" font-family="Times,serif" font-size="14.00" fill="#000000">#28 AssignmentExpression</text>
</g>
<!-- #27 ExpressionStatement&#45;&gt;#28 AssignmentExpression -->
<g id="edge7" class="edge">
<title>#27 ExpressionStatement&#45;&gt;#28 AssignmentExpression</title>
<path fill="none" stroke="#0000ff" d="M587.5478,-1066.8399C547.9724,-1052.4337 489.9151,-1031.2999 447.5159,-1015.8659"/>
<polygon fill="#0000ff" stroke="#0000ff" points="448.503,-1012.5006 437.909,-1012.3688 446.1085,-1019.0784 448.503,-1012.5006"/>
<text text-anchor="middle" x="555.9418" y="-1035.8" font-family="Times,serif" font-size="14.00" fill="#0000ff">expression</text>
</g>
<!-- #34 CFG_F_END __main__ -->
<g id="node9" class="node">
<title>#34 CFG_F_END __main__</title>
<ellipse fill="none" stroke="#ff0000" cx="631.9418" cy="-996" rx="113.18" ry="18"/>
<text text-anchor="middle" x="631.9418" y="-992.3" font-family="Times,serif" font-size="14.00" fill="#ff0000">#34 CFG_F_END __main__</text>
</g>
<!-- #27 ExpressionStatement&#45;&gt;#34 CFG_F_END __main__ -->
<g id="edge8" class="edge">
<title>#27 ExpressionStatement&#45;&gt;#34 CFG_F_END __main__</title>
<path fill="none" stroke="#ff0000" d="M631.9418,-1064.9735C631.9418,-1053.1918 631.9418,-1037.5607 631.9418,-1024.1581"/>
<polygon fill="#ff0000" stroke="#ff0000" points="635.4419,-1024.0033 631.9418,-1014.0034 628.4419,-1024.0034 635.4419,-1024.0033"/>
</g>
<!-- #33 CFG_F_START __main__ -->
<g id="node4" class="node">
<title>#33 CFG_F_START __main__</title>
<ellipse fill="none" stroke="#ff0000" cx="824.9418" cy="-1257" rx="122.6784" ry="18"/>
<text text-anchor="middle" x="824.9418" y="-1253.3" font-family="Times,serif" font-size="14.00" fill="#ff0000">#33 CFG_F_START __main__</text>
</g>
<!-- #33 CFG_F_START __main__&#45;&gt;#1 Variable (f) -->
<g id="edge3" class="edge">
<title>#33 CFG_F_START __main__&#45;&gt;#1 Variable (f)</title>
<path fill="none" stroke="#ff0000" d="M816.8609,-1238.9735C811.4749,-1226.9585 804.2942,-1210.9401 798.2086,-1197.3646"/>
<polygon fill="#ff0000" stroke="#ff0000" points="801.2966,-1195.6967 794.0122,-1188.0034 794.9091,-1198.5602 801.2966,-1195.6967"/>
</g>
<!-- #35 CFG_F_START 2_anon -->
<g id="node5" class="node">
<title>#35 CFG_F_START 2_anon</title>
<ellipse fill="none" stroke="#ff0000" cx="1213.9418" cy="-996" rx="113.18" ry="18"/>
<text text-anchor="middle" x="1213.9418" y="-992.3" font-family="Times,serif" font-size="14.00" fill="#ff0000">#35 CFG_F_START 2_anon</text>
</g>
<!-- #4 Variable (a) -->
<g id="node6" class="node">
<title>#4 Variable (a)</title>
<ellipse fill="none" stroke="#000000" cx="1192.9418" cy="-909" rx="64.189" ry="18"/>
<text text-anchor="middle" x="1192.9418" y="-905.3" font-family="Times,serif" font-size="14.00" fill="#000000">#4 Variable (a)</text>
</g>
<!-- #35 CFG_F_START 2_anon&#45;&gt;#4 Variable (a) -->
<g id="edge4" class="edge">
<title>#35 CFG_F_START 2_anon&#45;&gt;#4 Variable (a)</title>
<path fill="none" stroke="#ff0000" d="M1209.5905,-977.9735C1206.7185,-966.0751 1202.8988,-950.2508 1199.6426,-936.7606"/>
<polygon fill="#ff0000" stroke="#ff0000" points="1203.0362,-935.9029 1197.2874,-927.0034 1196.2316,-937.5455 1203.0362,-935.9029"/>
</g>
<!-- #5 ArrayExpression -->
<g id="node10" class="node">
<title>#5 ArrayExpression</title>
<ellipse fill="none" stroke="#000000" cx="1383.9418" cy="-801" rx="81.4863" ry="18"/>
<text text-anchor="middle" x="1383.9418" y="-797.3" font-family="Times,serif" font-size="14.00" fill="#000000">#5 ArrayExpression</text>
</g>
<!-- #4 Variable (a)&#45;&gt;#5 ArrayExpression -->
<g id="edge9" class="edge">
<title>#4 Variable (a)&#45;&gt;#5 ArrayExpression</title>
<path fill="none" stroke="#0000ff" d="M1223.0742,-893.0816C1234.6481,-886.8962 1247.9535,-879.6988 1259.9418,-873 1289.1668,-856.6696 1321.9067,-837.627 1346.4033,-823.2285"/>
<polygon fill="#0000ff" stroke="#0000ff" points="1348.1918,-826.2371 1355.0336,-818.1475 1344.6404,-820.2048 1348.1918,-826.2371"/>
<text text-anchor="middle" x="1330.4418" y="-851.3" font-family="Times,serif" font-size="14.00" fill="#0000ff">init</text>
</g>
<!-- #8 Variable (c) -->
<g id="node11" class="node">
<title>#8 Variable (c)</title>
<ellipse fill="none" stroke="#000000" cx="971.9418" cy="-714" rx="64.189" ry="18"/>
<text text-anchor="middle" x="971.9418" y="-710.3" font-family="Times,serif" font-size="14.00" fill="#000000">#8 Variable (c)</text>
</g>
<!-- #4 Variable (a)&#45;&gt;#8 Variable (c) -->
<g id="edge10" class="edge">
<title>#4 Variable (a)&#45;&gt;#8 Variable (c)</title>
<path fill="none" stroke="#ff0000" d="M1129.0536,-906.5946C1074.2501,-903.0683 1001.166,-894.3821 981.9418,-873 949.9328,-837.3982 956.6376,-777.2497 964.3375,-742.0251"/>
<polygon fill="#ff0000" stroke="#ff0000" points="967.8251,-742.485 966.7173,-731.9482 961.0125,-740.876 967.8251,-742.485"/>
</g>
<!-- #38 PDG_OBJECT o2 -->
<g id="node12" class="node">
<title>#38 PDG_OBJECT o2</title>
<ellipse fill="none" stroke="#006400" cx="1192.9418" cy="-801" rx="91.784" ry="18"/>
<text text-anchor="middle" x="1192.9418" y="-797.3" font-family="Times,serif" font-size="14.00" fill="#006400">#38 PDG_OBJECT o2</text>
</g>
<!-- #4 Variable (a)&#45;&gt;#38 PDG_OBJECT o2 -->
<g id="edge11" class="edge">
<title>#4 Variable (a)&#45;&gt;#38 PDG_OBJECT o2</title>
<path fill="none" stroke="#006400" d="M1192.9418,-890.6793C1192.9418,-873.821 1192.9418,-848.5651 1192.9418,-829.147"/>
<polygon fill="#006400" stroke="#006400" points="1196.4419,-829.0501 1192.9418,-819.0502 1189.4419,-829.0502 1196.4419,-829.0501"/>
<text text-anchor="middle" x="1224.4418" y="-851.3" font-family="Times,serif" font-size="14.00" fill="#006400">CREATE a</text>
</g>
<!-- #3 Identifier (p) -->
<g id="node13" class="node">
<title>#3 Identifier (p)</title>
<ellipse fill="none" stroke="#000000" cx="1014.9418" cy="-996" rx="67.6881" ry="18"/>
<text text-anchor="middle" x="1014.9418" y="-992.3" font-family="Times,serif" font-size="14.00" fill="#000000">#3 Identifier (p)</text>
</g>
<!-- #2 Function (anon)&#45;&gt;#3 Identifier (p) -->
<g id="edge12" class="edge">
<title>#2 Function (anon)&#45;&gt;#3 Identifier (p)</title>
<path fill="none" stroke="#0000ff" d="M878.1272,-1066.4312C905.5212,-1052.3289 945.0091,-1032.0008 974.5274,-1016.805"/>
<polygon fill="#0000ff" stroke="#0000ff" points="976.4439,-1019.755 983.733,-1012.0661 973.2399,-1013.5313 976.4439,-1019.755"/>
<text text-anchor="middle" x="962.9418" y="-1035.8" font-family="Times,serif" font-size="14.00" fill="#0000ff">param 1</text>
</g>
<!-- #26 BlockStatement -->
<g id="node14" class="node">
<title>#26 BlockStatement</title>
<ellipse fill="none" stroke="#000000" cx="845.9418" cy="-996" rx="83.3857" ry="18"/>
<text text-anchor="middle" x="845.9418" y="-992.3" font-family="Times,serif" font-size="14.00" fill="#000000">#26 BlockStatement</text>
</g>
<!-- #2 Function (anon)&#45;&gt;#26 BlockStatement -->
<g id="edge13" class="edge">
<title>#2 Function (anon)&#45;&gt;#26 BlockStatement</title>
<path fill="none" stroke="#0000ff" d="M845.9418,-1064.9735C845.9418,-1053.1918 845.9418,-1037.5607 845.9418,-1024.1581"/>
<polygon fill="#0000ff" stroke="#0000ff" points="849.4419,-1024.0033 845.9418,-1014.0034 842.4419,-1024.0034 849.4419,-1024.0033"/>
<text text-anchor="middle" x="861.4418" y="-1035.8" font-family="Times,serif" font-size="14.00" fill="#0000ff">block</text>
</g>
<!-- #29 MemberExpression -->
<g id="node15" class="node">
<title>#29 MemberExpression</title>
<ellipse fill="none" stroke="#000000" cx="214.9418" cy="-909" rx="96.3833" ry="18"/>
<text text-anchor="middle" x="214.9418" y="-905.3" font-family="Times,serif" font-size="14.00" fill="#000000">#29 MemberExpression</text>
</g>
<!-- #28 AssignmentExpression&#45;&gt;#29 MemberExpression -->
<g id="edge14" class="edge">
<title>#28 AssignmentExpression&#45;&gt;#29 MemberExpression</title>
<path fill="none" stroke="#0000ff" d="M357.7747,-978.8116C329.3107,-964.8995 289.0796,-945.2359 258.5646,-930.3213"/>
<polygon fill="#0000ff" stroke="#0000ff" points="259.9513,-927.1034 249.4301,-925.8567 256.8775,-933.3924 259.9513,-927.1034"/>
<text text-anchor="middle" x="324.4418" y="-948.8" font-family="Times,serif" font-size="14.00" fill="#0000ff">left</text>
</g>
<!-- #32 Identifier (f) -->
<g id="node16" class="node">
<title>#32 Identifier (f)</title>
<ellipse fill="none" stroke="#000000" cx="398.9418" cy="-909" rx="70.3881" ry="18"/>
<text text-anchor="middle" x="398.9418" y="-905.3" font-family="Times,serif" font-size="14.00" fill="#000000">#32 Identifier (f)</text>
</g>
<!-- #28 AssignmentExpression&#45;&gt;#32 Identifier (f) -->
<g id="edge15" class="edge">
<title>#28 AssignmentExpression&#45;&gt;#32 Identifier (f)</title>
<path fill="none" stroke="#0000ff" d="M394.185,-977.9735C394.9975,-966.1918 396.0755,-950.5607 396.9998,-937.1581"/>
<polygon fill="#0000ff" stroke="#0000ff" points="400.5037,-937.2205 397.7001,-927.0034 393.5203,-936.7388 400.5037,-937.2205"/>
<text text-anchor="middle" x="409.9418" y="-948.8" font-family="Times,serif" font-size="14.00" fill="#0000ff">right</text>
</g>
<!-- #6 Literal -->
<g id="node17" class="node">
<title>#6 Literal</title>
<ellipse fill="none" stroke="#000000" cx="1461.9418" cy="-714" rx="45.4919" ry="18"/>
<text text-anchor="middle" x="1461.9418" y="-710.3" font-family="Times,serif" font-size="14.00" fill="#000000">#6 Literal</text>
</g>
<!-- #5 ArrayExpression&#45;&gt;#6 Literal -->
<g id="edge16" class="edge">
<title>#5 ArrayExpression&#45;&gt;#6 Literal</title>
<path fill="none" stroke="#0000ff" d="M1400.1034,-782.9735C1411.6244,-770.1233 1427.2508,-752.6937 1439.9125,-738.571"/>
<polygon fill="#0000ff" stroke="#0000ff" points="1442.5274,-740.8975 1446.5969,-731.1154 1437.3154,-736.2247 1442.5274,-740.8975"/>
<text text-anchor="middle" x="1430.4418" y="-753.8" font-family="Times,serif" font-size="14.00" fill="#0000ff">0</text>
</g>
<!-- #7 Literal -->
<g id="node18" class="node">
<title>#7 Literal</title>
<ellipse fill="none" stroke="#000000" cx="1352.9418" cy="-714" rx="45.4919" ry="18"/>
<text text-anchor="middle" x="1352.9418" y="-710.3" font-family="Times,serif" font-size="14.00" fill="#000000">#7 Literal</text>
</g>
<!-- #5 ArrayExpression&#45;&gt;#7 Literal -->
<g id="edge17" class="edge">
<title>#5 ArrayExpression&#45;&gt;#7 Literal</title>
<path fill="none" stroke="#0000ff" d="M1377.5185,-782.9735C1373.2789,-771.0751 1367.6403,-755.2508 1362.8335,-741.7606"/>
<polygon fill="#0000ff" stroke="#0000ff" points="1366.0103,-740.2484 1359.3567,-732.0034 1359.4164,-742.598 1366.0103,-740.2484"/>
<text text-anchor="middle" x="1373.4418" y="-753.8" font-family="Times,serif" font-size="14.00" fill="#0000ff">1</text>
</g>
<!-- #9 Identifier (a) -->
<g id="node19" class="node">
<title>#9 Identifier (a)</title>
<ellipse fill="none" stroke="#000000" cx="1148.9418" cy="-627" rx="66.8882" ry="18"/>
<text text-anchor="middle" x="1148.9418" y="-623.3" font-family="Times,serif" font-size="14.00" fill="#000000">#9 Identifier (a)</text>
</g>
<!-- #8 Variable (c)&#45;&gt;#9 Identifier (a) -->
<g id="edge18" class="edge">
<title>#8 Variable (c)&#45;&gt;#9 Identifier (a)</title>
<path fill="none" stroke="#0000ff" d="M1003.9951,-698.245C1033.0101,-683.9834 1075.9178,-662.8931 1107.5237,-647.358"/>
<polygon fill="#0000ff" stroke="#0000ff" points="1109.0982,-650.4841 1116.5287,-642.9318 1106.0103,-644.202 1109.0982,-650.4841"/>
<text text-anchor="middle" x="1080.4418" y="-666.8" font-family="Times,serif" font-size="14.00" fill="#0000ff">init</text>
</g>
<!-- #10 ExpressionStatement -->
<g id="node20" class="node">
<title>#10 ExpressionStatement</title>
<ellipse fill="none" stroke="#000000" cx="962.9418" cy="-627" rx="100.9827" ry="18"/>
<text text-anchor="middle" x="962.9418" y="-623.3" font-family="Times,serif" font-size="14.00" fill="#000000">#10 ExpressionStatement</text>
</g>
<!-- #8 Variable (c)&#45;&gt;#10 ExpressionStatement -->
<g id="edge19" class="edge">
<title>#8 Variable (c)&#45;&gt;#10 ExpressionStatement</title>
<path fill="none" stroke="#ff0000" d="M970.0769,-695.9735C968.8581,-684.1918 967.2411,-668.5607 965.8547,-655.1581"/>
<polygon fill="#ff0000" stroke="#ff0000" points="969.3147,-654.5901 964.8042,-645.0034 962.3518,-655.3105 969.3147,-654.5901"/>
</g>
<!-- #38 PDG_OBJECT o2&#45;&gt;#8 Variable (c) -->
<g id="edge20" class="edge">
<title>#38 PDG_OBJECT o2&#45;&gt;#8 Variable (c)</title>
<path fill="none" stroke="#006400" d="M1171.1997,-783.4152C1156.6157,-772.3994 1136.5533,-758.692 1116.9418,-750 1092.03,-738.9588 1063.1458,-730.917 1037.7447,-725.2723"/>
<polygon fill="#006400" stroke="#006400" points="1038.342,-721.821 1027.8308,-723.1497 1036.8764,-728.6658 1038.342,-721.821"/>
<text text-anchor="middle" x="1162.4418" y="-753.8" font-family="Times,serif" font-size="14.00" fill="#006400">VAR a</text>
</g>
<!-- #39 PDG_OBJECT o3 -->
<g id="node21" class="node">
<title>#39 PDG_OBJECT o3</title>
<ellipse fill="none" stroke="#006400" cx="1082.9418" cy="-540" rx="91.784" ry="18"/>
<text text-anchor="middle" x="1082.9418" y="-536.3" font-family="Times,serif" font-size="14.00" fill="#006400">#39 PDG_OBJECT o3</text>
</g>
<!-- #38 PDG_OBJECT o2&#45;&gt;#39 PDG_OBJECT o3 -->
<g id="edge21" class="edge">
<title>#38 PDG_OBJECT o2&#45;&gt;#39 PDG_OBJECT o3</title>
<path fill="none" stroke="#006400" d="M1203.4816,-783.0056C1223.0359,-747.0211 1259.9027,-664.8578 1224.9418,-609 1209.007,-583.5406 1180.696,-567.2344 1153.5237,-556.9101"/>
<polygon fill="#006400" stroke="#006400" points="1154.5768,-553.5698 1143.9821,-553.5026 1152.2224,-560.162 1154.5768,-553.5698"/>
<text text-anchor="middle" x="1292.9418" y="-666.8" font-family="Times,serif" font-size="14.00" fill="#006400">NEW_VERSION 0</text>
</g>
<!-- #37 PDG_OBJECT o1 -->
<g id="node22" class="node">
<title>#37 PDG_OBJECT o1</title>
<ellipse fill="none" stroke="#006400" cx="1074.9418" cy="-855" rx="91.784" ry="18"/>
<text text-anchor="middle" x="1074.9418" y="-851.3" font-family="Times,serif" font-size="14.00" fill="#006400">#37 PDG_OBJECT o1</text>
</g>
<!-- #3 Identifier (p)&#45;&gt;#37 PDG_OBJECT o1 -->
<g id="edge22" class="edge">
<title>#3 Identifier (p)&#45;&gt;#37 PDG_OBJECT o1</title>
<path fill="none" stroke="#006400" d="M1022.6629,-977.8554C1032.9686,-953.637 1051.31,-910.5347 1063.2984,-882.362"/>
<polygon fill="#006400" stroke="#006400" points="1066.5552,-883.647 1067.2503,-873.075 1060.1141,-880.9061 1066.5552,-883.647"/>
<text text-anchor="middle" x="1067.9418" y="-948.8" font-family="Times,serif" font-size="14.00" fill="#006400">CREATE p</text>
</g>
<!-- #26 BlockStatement&#45;&gt;#4 Variable (a) -->
<g id="edge23" class="edge">
<title>#26 BlockStatement&#45;&gt;#4 Variable (a)</title>
<path fill="none" stroke="#0000ff" d="M892.1658,-980.8929C926.1764,-970.0815 973.654,-955.6203 1015.9418,-945 1052.8756,-935.7243 1094.5981,-927.1479 1128.2552,-920.6947"/>
<polygon fill="#0000ff" stroke="#0000ff" points="1129.2566,-924.0671 1138.4274,-918.7617 1127.9497,-917.1902 1129.2566,-924.0671"/>
<text text-anchor="middle" x="1019.4418" y="-948.8" font-family="Times,serif" font-size="14.00" fill="#0000ff">1</text>
</g>
<!-- #26 BlockStatement&#45;&gt;#8 Variable (c) -->
<g id="edge24" class="edge">
<title>#26 BlockStatement&#45;&gt;#8 Variable (c)</title>
<path fill="none" stroke="#0000ff" d="M875.0684,-978.8159C882.0652,-973.5321 888.9493,-967.186 893.9418,-960 949.4665,-880.0787 922.3298,-841.3272 955.9418,-750 956.9605,-747.232 958.09,-744.375 959.2642,-741.5375"/>
<polygon fill="#0000ff" stroke="#0000ff" points="962.5783,-742.6912 963.3315,-732.1232 956.1524,-739.9149 962.5783,-742.6912"/>
<text text-anchor="middle" x="939.4418" y="-851.3" font-family="Times,serif" font-size="14.00" fill="#0000ff">2</text>
</g>
<!-- #26 BlockStatement&#45;&gt;#10 ExpressionStatement -->
<g id="edge25" class="edge">
<title>#26 BlockStatement&#45;&gt;#10 ExpressionStatement</title>
<path fill="none" stroke="#0000ff" d="M857.4526,-978.1262C867.3163,-961.0704 879.9418,-934.2979 879.9418,-909 879.9418,-909 879.9418,-909 879.9418,-714 879.9418,-686.9095 901.2707,-664.9279 922.3042,-649.8372"/>
<polygon fill="#0000ff" stroke="#0000ff" points="924.3062,-652.7085 930.6141,-644.1961 920.3746,-646.9169 924.3062,-652.7085"/>
<text text-anchor="middle" x="883.4418" y="-797.3" font-family="Times,serif" font-size="14.00" fill="#0000ff">3</text>
</g>
<!-- #16 Variable (v1) -->
<g id="node23" class="node">
<title>#16 Variable (v1)</title>
<ellipse fill="none" stroke="#000000" cx="1041.9418" cy="-453" rx="73.387" ry="18"/>
<text text-anchor="middle" x="1041.9418" y="-449.3" font-family="Times,serif" font-size="14.00" fill="#000000">#16 Variable (v1)</text>
</g>
<!-- #26 BlockStatement&#45;&gt;#16 Variable (v1) -->
<g id="edge26" class="edge">
<title>#26 BlockStatement&#45;&gt;#16 Variable (v1)</title>
<path fill="none" stroke="#0000ff" d="M841.9459,-977.7702C838.4551,-960.2365 833.9418,-932.9381 833.9418,-909 833.9418,-909 833.9418,-909 833.9418,-540 833.9418,-508.6687 915.281,-482.5013 976.2297,-467.2916"/>
<polygon fill="#0000ff" stroke="#0000ff" points="977.3185,-470.6286 986.2016,-464.8543 975.6565,-463.8288 977.3185,-470.6286"/>
<text text-anchor="middle" x="837.4418" y="-710.3" font-family="Times,serif" font-size="14.00" fill="#0000ff">4</text>
</g>
<!-- #20 Variable (v2) -->
<g id="node24" class="node">
<title>#20 Variable (v2)</title>
<ellipse fill="none" stroke="#000000" cx="643.9418" cy="-279" rx="73.387" ry="18"/>
<text text-anchor="middle" x="643.9418" y="-275.3" font-family="Times,serif" font-size="14.00" fill="#000000">#20 Variable (v2)</text>
</g>
<!-- #26 BlockStatement&#45;&gt;#20 Variable (v2) -->
<g id="edge27" class="edge">
<title>#26 BlockStatement&#45;&gt;#20 Variable (v2)</title>
<path fill="none" stroke="#0000ff" d="M789.866,-982.6154C703.0351,-961.498 545.9418,-921.5575 545.9418,-909 545.9418,-909 545.9418,-909 545.9418,-366 545.9418,-335.9816 571.9746,-313.7956 597.2054,-299.3424"/>
<polygon fill="#0000ff" stroke="#0000ff" points="598.925,-302.3916 606.0524,-294.5525 595.5921,-296.2359 598.925,-302.3916"/>
<text text-anchor="middle" x="549.4418" y="-623.3" font-family="Times,serif" font-size="14.00" fill="#0000ff">5</text>
</g>
<!-- #24 ReturnStatement -->
<g id="node25" class="node">
<title>#24 ReturnStatement</title>
<ellipse fill="none" stroke="#000000" cx="569.9418" cy="-105" rx="85.5853" ry="18"/>
<text text-anchor="middle" x="569.9418" y="-101.3" font-family="Times,serif" font-size="14.00" fill="#000000">#24 ReturnStatement</text>
</g>
<!-- #26 BlockStatement&#45;&gt;#24 ReturnStatement -->
<g id="edge28" class="edge">
<title>#26 BlockStatement&#45;&gt;#24 ReturnStatement</title>
<path fill="none" stroke="#0000ff" d="M784.618,-983.7804C774.3824,-981.8044 763.868,-979.8135 753.9418,-978 696.4041,-967.4877 499.9418,-967.4901 499.9418,-909 499.9418,-909 499.9418,-909 499.9418,-192 499.9418,-166.7828 518.0146,-144.7302 535.794,-129.1369"/>
<polygon fill="#0000ff" stroke="#0000ff" points="538.4101,-131.5147 543.8763,-122.4388 533.9434,-126.1249 538.4101,-131.5147"/>
<text text-anchor="middle" x="503.4418" y="-536.3" font-family="Times,serif" font-size="14.00" fill="#0000ff">6</text>
</g>
<!-- #30 Identifier (module) -->
<g id="node26" class="node">
<title>#30 Identifier (module)</title>
<ellipse fill="none" stroke="#000000" cx="297.9418" cy="-801" rx="94.4839" ry="18"/>
<text text-anchor="middle" x="297.9418" y="-797.3" font-family="Times,serif" font-size="14.00" fill="#000000">#30 Identifier (module)</text>
</g>
<!-- #29 MemberExpression&#45;&gt;#30 Identifier (module) -->
<g id="edge29" class="edge">
<title>#29 MemberExpression&#45;&gt;#30 Identifier (module)</title>
<path fill="none" stroke="#0000ff" d="M228.6475,-891.166C242.1038,-873.6567 262.7753,-846.7587 278.041,-826.895"/>
<polygon fill="#0000ff" stroke="#0000ff" points="280.8972,-828.9222 284.2156,-818.8605 275.3469,-824.6567 280.8972,-828.9222"/>
<text text-anchor="middle" x="285.9418" y="-851.3" font-family="Times,serif" font-size="14.00" fill="#0000ff">object</text>
</g>
<!-- #31 Identifier (exports) -->
<g id="node27" class="node">
<title>#31 Identifier (exports)</title>
<ellipse fill="none" stroke="#000000" cx="92.9418" cy="-801" rx="92.8835" ry="18"/>
<text text-anchor="middle" x="92.9418" y="-797.3" font-family="Times,serif" font-size="14.00" fill="#000000">#31 Identifier (exports)</text>
</g>
<!-- #29 MemberExpression&#45;&gt;#31 Identifier (exports) -->
<g id="edge30" class="edge">
<title>#29 MemberExpression&#45;&gt;#31 Identifier (exports)</title>
<path fill="none" stroke="#0000ff" d="M194.7959,-891.166C174.5754,-873.2658 143.2704,-845.5532 120.703,-825.5755"/>
<polygon fill="#0000ff" stroke="#0000ff" points="122.9251,-822.8682 113.1175,-818.8605 118.2852,-828.1096 122.9251,-822.8682"/>
<text text-anchor="middle" x="195.9418" y="-851.3" font-family="Times,serif" font-size="14.00" fill="#0000ff">property</text>
</g>
<!-- #10 ExpressionStatement&#45;&gt;#39 PDG_OBJECT o3 -->
<g id="edge33" class="edge">
<title>#10 ExpressionStatement&#45;&gt;#39 PDG_OBJECT o3</title>
<path fill="none" stroke="#006400" d="M987.2255,-609.3943C1005.4426,-596.1869 1030.566,-577.9724 1050.5026,-563.5184"/>
<polygon fill="#006400" stroke="#006400" points="1052.6524,-566.2829 1058.6941,-557.5796 1048.5436,-560.6156 1052.6524,-566.2829"/>
<text text-anchor="middle" x="1057.4418" y="-579.8" font-family="Times,serif" font-size="14.00" fill="#006400">WRITE 0</text>
</g>
<!-- #10 ExpressionStatement&#45;&gt;#16 Variable (v1) -->
<g id="edge32" class="edge">
<title>#10 ExpressionStatement&#45;&gt;#16 Variable (v1)</title>
<path fill="none" stroke="#ff0000" d="M963.3407,-608.6419C964.4559,-586.9448 968.3979,-550.2264 981.9418,-522 989.8469,-505.5251 1002.7739,-489.9154 1014.6083,-477.7238"/>
<polygon fill="#ff0000" stroke="#ff0000" points="1017.154,-480.1283 1021.7811,-470.5973 1012.2203,-475.1626 1017.154,-480.1283"/>
</g>
<!-- #11 AssignmentExpression -->
<g id="node28" class="node">
<title>#11 AssignmentExpression</title>
<ellipse fill="none" stroke="#000000" cx="697.9418" cy="-540" rx="107.781" ry="18"/>
<text text-anchor="middle" x="697.9418" y="-536.3" font-family="Times,serif" font-size="14.00" fill="#000000">#11 AssignmentExpression</text>
</g>
<!-- #10 ExpressionStatement&#45;&gt;#11 AssignmentExpression -->
<g id="edge31" class="edge">
<title>#10 ExpressionStatement&#45;&gt;#11 AssignmentExpression</title>
<path fill="none" stroke="#0000ff" d="M914.6448,-611.144C870.2313,-596.563 804.2656,-574.9063 756.7896,-559.3198"/>
<polygon fill="#0000ff" stroke="#0000ff" points="757.8464,-555.9831 747.2536,-556.1892 755.6629,-562.6338 757.8464,-555.9831"/>
<text text-anchor="middle" x="874.9418" y="-579.8" font-family="Times,serif" font-size="14.00" fill="#0000ff">expression</text>
</g>
<!-- #39 PDG_OBJECT o3&#45;&gt;#16 Variable (v1) -->
<g id="edge34" class="edge">
<title>#39 PDG_OBJECT o3&#45;&gt;#16 Variable (v1)</title>
<path fill="none" stroke="#006400" d="M1074.4465,-521.9735C1068.7843,-509.9585 1061.2354,-493.9401 1054.8377,-480.3646"/>
<polygon fill="#006400" stroke="#006400" points="1057.8552,-478.5571 1050.4261,-471.0034 1051.5231,-481.5413 1057.8552,-478.5571"/>
<text text-anchor="middle" x="1096.9418" y="-492.8" font-family="Times,serif" font-size="14.00" fill="#006400">LOOKUP 0</text>
</g>
<!-- #37 PDG_OBJECT o1&#45;&gt;#10 ExpressionStatement -->
<g id="edge35" class="edge">
<title>#37 PDG_OBJECT o1&#45;&gt;#10 ExpressionStatement</title>
<path fill="none" stroke="#006400" d="M1074.521,-836.8036C1073.3222,-791.5675 1069.2832,-676.6719 1058.9418,-663 1054.3393,-656.9153 1042.0549,-650.869 1027.7493,-645.5176"/>
<polygon fill="#006400" stroke="#006400" points="1028.7118,-642.1456 1018.1171,-642.1079 1026.3759,-648.7443 1028.7118,-642.1456"/>
<text text-anchor="middle" x="1090.9418" y="-753.8" font-family="Times,serif" font-size="14.00" fill="#006400">VAR p</text>
</g>
<!-- #16 Variable (v1)&#45;&gt;#20 Variable (v2) -->
<g id="edge37" class="edge">
<title>#16 Variable (v1)&#45;&gt;#20 Variable (v2)</title>
<path fill="none" stroke="#ff0000" d="M1049.5149,-434.7818C1057.8406,-411.4915 1067.4,-371.3898 1045.9418,-348 1004.1305,-302.4252 832.2045,-286.9198 727.2006,-281.6678"/>
<polygon fill="#ff0000" stroke="#ff0000" points="727.0967,-278.1589 716.9407,-281.1765 726.7618,-285.1509 727.0967,-278.1589"/>
</g>
<!-- #17 MemberExpression -->
<g id="node29" class="node">
<title>#17 MemberExpression</title>
<ellipse fill="none" stroke="#000000" cx="1188.9418" cy="-366" rx="96.3833" ry="18"/>
<text text-anchor="middle" x="1188.9418" y="-362.3" font-family="Times,serif" font-size="14.00" fill="#000000">#17 MemberExpression</text>
</g>
<!-- #16 Variable (v1)&#45;&gt;#17 MemberExpression -->
<g id="edge36" class="edge">
<title>#16 Variable (v1)&#45;&gt;#17 MemberExpression</title>
<path fill="none" stroke="#0000ff" d="M1070.2848,-436.2255C1093.2452,-422.6367 1125.8044,-403.367 1151.01,-388.4494"/>
<polygon fill="#0000ff" stroke="#0000ff" points="1153.1091,-391.2742 1159.9322,-383.1689 1149.5438,-385.2502 1153.1091,-391.2742"/>
<text text-anchor="middle" x="1133.4418" y="-405.8" font-family="Times,serif" font-size="14.00" fill="#0000ff">init</text>
</g>
<!-- #40 PDG_OBJECT o4 -->
<g id="node30" class="node">
<title>#40 PDG_OBJECT o4</title>
<ellipse fill="none" stroke="#006400" cx="944.9418" cy="-366" rx="91.784" ry="18"/>
<text text-anchor="middle" x="944.9418" y="-362.3" font-family="Times,serif" font-size="14.00" fill="#006400">#40 PDG_OBJECT o4</text>
</g>
<!-- #16 Variable (v1)&#45;&gt;#40 PDG_OBJECT o4 -->
<g id="edge38" class="edge">
<title>#16 Variable (v1)&#45;&gt;#40 PDG_OBJECT o4</title>
<path fill="none" stroke="#006400" d="M1008.8404,-436.8641C999.2567,-431.3248 989.1703,-424.5838 980.9418,-417 973.2526,-409.9133 966.2456,-400.924 960.4989,-392.4729"/>
<polygon fill="#006400" stroke="#006400" points="963.3628,-390.4561 954.9907,-383.9631 957.4864,-394.2599 963.3628,-390.4561"/>
<text text-anchor="middle" x="1015.9418" y="-405.8" font-family="Times,serif" font-size="14.00" fill="#006400">CREATE v1</text>
</g>
<!-- #20 Variable (v2)&#45;&gt;#24 ReturnStatement -->
<g id="edge40" class="edge">
<title>#20 Variable (v2)&#45;&gt;#24 ReturnStatement</title>
<path fill="none" stroke="#ff0000" d="M624.5736,-261.6313C611.4765,-248.7236 594.9773,-229.9587 585.9418,-210 574.9471,-185.7139 571.2678,-155.3705 570.1478,-133.5571"/>
<polygon fill="#ff0000" stroke="#ff0000" points="573.6362,-133.1685 569.7764,-123.3017 566.6407,-133.4219 573.6362,-133.1685"/>
</g>
<!-- #21 CallExpression -->
<g id="node31" class="node">
<title>#21 CallExpression</title>
<ellipse fill="none" stroke="#000000" cx="389.9418" cy="-192" rx="79.8859" ry="18"/>
<text text-anchor="middle" x="389.9418" y="-188.3" font-family="Times,serif" font-size="14.00" fill="#000000">#21 CallExpression</text>
</g>
<!-- #20 Variable (v2)&#45;&gt;#21 CallExpression -->
<g id="edge39" class="edge">
<title>#20 Variable (v2)&#45;&gt;#21 CallExpression</title>
<path fill="none" stroke="#0000ff" d="M599.171,-264.6179C579.1741,-258.1246 555.3399,-250.2896 533.9418,-243 503.4217,-232.6029 469.4145,-220.5794 442.1148,-210.8189"/>
<polygon fill="#0000ff" stroke="#0000ff" points="442.974,-207.4089 432.3794,-207.3325 440.6139,-213.9991 442.974,-207.4089"/>
<text text-anchor="middle" x="543.4418" y="-231.8" font-family="Times,serif" font-size="14.00" fill="#0000ff">init</text>
</g>
<!-- #41 PDG_OBJECT o5 -->
<g id="node32" class="node">
<title>#41 PDG_OBJECT o5</title>
<ellipse fill="none" stroke="#006400" cx="686.9418" cy="-192" rx="91.784" ry="18"/>
<text text-anchor="middle" x="686.9418" y="-188.3" font-family="Times,serif" font-size="14.00" fill="#006400">#41 PDG_OBJECT o5</text>
</g>
<!-- #20 Variable (v2)&#45;&gt;#41 PDG_OBJECT o5 -->
<g id="edge41" class="edge">
<title>#20 Variable (v2)&#45;&gt;#41 PDG_OBJECT o5</title>
<path fill="none" stroke="#006400" d="M652.8514,-260.9735C658.8475,-248.8418 666.8609,-232.6287 673.6118,-218.9698"/>
<polygon fill="#006400" stroke="#006400" points="676.7503,-220.519 678.0435,-210.0034 670.4749,-217.4173 676.7503,-220.519"/>
<text text-anchor="middle" x="703.9418" y="-231.8" font-family="Times,serif" font-size="14.00" fill="#006400">CREATE v2</text>
</g>
<!-- #25 Identifier (v2) -->
<g id="node33" class="node">
<title>#25 Identifier (v2)</title>
<ellipse fill="none" stroke="#000000" cx="470.9418" cy="-18" rx="76.0865" ry="18"/>
<text text-anchor="middle" x="470.9418" y="-14.3" font-family="Times,serif" font-size="14.00" fill="#000000">#25 Identifier (v2)</text>
</g>
<!-- #24 ReturnStatement&#45;&gt;#25 Identifier (v2) -->
<g id="edge42" class="edge">
<title>#24 ReturnStatement&#45;&gt;#25 Identifier (v2)</title>
<path fill="none" stroke="#0000ff" d="M549.9076,-87.3943C535.147,-74.4228 514.8902,-56.6213 498.5892,-42.2962"/>
<polygon fill="#0000ff" stroke="#0000ff" points="500.7682,-39.5517 490.9461,-35.5796 496.1473,-44.8098 500.7682,-39.5517"/>
<text text-anchor="middle" x="552.9418" y="-57.8" font-family="Times,serif" font-size="14.00" fill="#0000ff">argument</text>
</g>
<!-- #36 CFG_F_END 2_anon -->
<g id="node34" class="node">
<title>#36 CFG_F_END 2_anon</title>
<ellipse fill="none" stroke="#ff0000" cx="667.9418" cy="-18" rx="103.1819" ry="18"/>
<text text-anchor="middle" x="667.9418" y="-14.3" font-family="Times,serif" font-size="14.00" fill="#ff0000">#36 CFG_F_END 2_anon</text>
</g>
<!-- #24 ReturnStatement&#45;&gt;#36 CFG_F_END 2_anon -->
<g id="edge43" class="edge">
<title>#24 ReturnStatement&#45;&gt;#36 CFG_F_END 2_anon</title>
<path fill="none" stroke="#ff0000" d="M589.7735,-87.3943C604.289,-74.5081 624.1736,-56.8554 640.2546,-42.5794"/>
<polygon fill="#ff0000" stroke="#ff0000" points="642.6484,-45.1345 647.8031,-35.8782 638.0012,-39.8997 642.6484,-45.1345"/>
</g>
<!-- #12 MemberExpression -->
<g id="node35" class="node">
<title>#12 MemberExpression</title>
<ellipse fill="none" stroke="#000000" cx="669.9418" cy="-453" rx="96.3833" ry="18"/>
<text text-anchor="middle" x="669.9418" y="-449.3" font-family="Times,serif" font-size="14.00" fill="#000000">#12 MemberExpression</text>
</g>
<!-- #11 AssignmentExpression&#45;&gt;#12 MemberExpression -->
<g id="edge44" class="edge">
<title>#11 AssignmentExpression&#45;&gt;#12 MemberExpression</title>
<path fill="none" stroke="#0000ff" d="M692.1401,-521.9735C688.3108,-510.0751 683.2179,-494.2508 678.8762,-480.7606"/>
<polygon fill="#0000ff" stroke="#0000ff" points="682.1313,-479.4502 675.7359,-471.0034 675.4679,-481.5948 682.1313,-479.4502"/>
<text text-anchor="middle" x="695.4418" y="-492.8" font-family="Times,serif" font-size="14.00" fill="#0000ff">left</text>
</g>
<!-- #15 Identifier (p) -->
<g id="node36" class="node">
<title>#15 Identifier (p)</title>
<ellipse fill="none" stroke="#000000" cx="855.9418" cy="-453" rx="71.4873" ry="18"/>
<text text-anchor="middle" x="855.9418" y="-449.3" font-family="Times,serif" font-size="14.00" fill="#000000">#15 Identifier (p)</text>
</g>
<!-- #11 AssignmentExpression&#45;&gt;#15 Identifier (p) -->
<g id="edge45" class="edge">
<title>#11 AssignmentExpression&#45;&gt;#15 Identifier (p)</title>
<path fill="none" stroke="#0000ff" d="M729.5357,-522.6033C754.7794,-508.7033 790.2709,-489.1605 817.2227,-474.32"/>
<polygon fill="#0000ff" stroke="#0000ff" points="818.9367,-477.3718 826.0084,-469.4823 815.5603,-471.2399 818.9367,-477.3718"/>
<text text-anchor="middle" x="799.9418" y="-492.8" font-family="Times,serif" font-size="14.00" fill="#0000ff">right</text>
</g>
<!-- #18 Identifier (c) -->
<g id="node37" class="node">
<title>#18 Identifier (c)</title>
<ellipse fill="none" stroke="#000000" cx="1282.9418" cy="-279" rx="71.4873" ry="18"/>
<text text-anchor="middle" x="1282.9418" y="-275.3" font-family="Times,serif" font-size="14.00" fill="#000000">#18 Identifier (c)</text>
</g>
<!-- #17 MemberExpression&#45;&gt;#18 Identifier (c) -->
<g id="edge46" class="edge">
<title>#17 MemberExpression&#45;&gt;#18 Identifier (c)</title>
<path fill="none" stroke="#0000ff" d="M1208.4186,-347.9735C1222.3398,-335.089 1241.2351,-317.6009 1256.5156,-303.4583"/>
<polygon fill="#0000ff" stroke="#0000ff" points="1259.1696,-305.7709 1264.1313,-296.4097 1254.4148,-300.6336 1259.1696,-305.7709"/>
<text text-anchor="middle" x="1257.9418" y="-318.8" font-family="Times,serif" font-size="14.00" fill="#0000ff">object</text>
</g>
<!-- #19 Literal -->
<g id="node38" class="node">
<title>#19 Literal</title>
<ellipse fill="none" stroke="#000000" cx="1142.9418" cy="-279" rx="50.0912" ry="18"/>
<text text-anchor="middle" x="1142.9418" y="-275.3" font-family="Times,serif" font-size="14.00" fill="#000000">#19 Literal</text>
</g>
<!-- #17 MemberExpression&#45;&gt;#19 Literal -->
<g id="edge47" class="edge">
<title>#17 MemberExpression&#45;&gt;#19 Literal</title>
<path fill="none" stroke="#0000ff" d="M1179.4105,-347.9735C1172.9533,-335.7609 1164.3092,-319.4123 1157.0574,-305.697"/>
<polygon fill="#0000ff" stroke="#0000ff" points="1160.0718,-303.9101 1152.3034,-296.7057 1153.8835,-307.182 1160.0718,-303.9101"/>
<text text-anchor="middle" x="1190.9418" y="-318.8" font-family="Times,serif" font-size="14.00" fill="#0000ff">property</text>
</g>
<!-- #40 PDG_OBJECT o4&#45;&gt;#20 Variable (v2) -->
<g id="edge48" class="edge">
<title>#40 PDG_OBJECT o4&#45;&gt;#20 Variable (v2)</title>
<path fill="none" stroke="#006400" d="M893.198,-351.0442C839.7612,-335.599 756.5853,-311.5581 701.2038,-295.5508"/>
<polygon fill="#006400" stroke="#006400" points="702.12,-292.1724 691.5413,-292.758 700.1762,-298.8972 702.12,-292.1724"/>
<text text-anchor="middle" x="835.9418" y="-318.8" font-family="Times,serif" font-size="14.00" fill="#006400">VAR v1</text>
</g>
<!-- #22 Identifier (eval) -->
<g id="node39" class="node">
<title>#22 Identifier (eval)</title>
<ellipse fill="none" stroke="#000000" cx="213.9418" cy="-105" rx="81.7856" ry="18"/>
<text text-anchor="middle" x="213.9418" y="-101.3" font-family="Times,serif" font-size="14.00" fill="#000000">#22 Identifier (eval)</text>
</g>
<!-- #21 CallExpression&#45;&gt;#22 Identifier (eval) -->
<g id="edge49" class="edge">
<title>#21 CallExpression&#45;&gt;#22 Identifier (eval)</title>
<path fill="none" stroke="#0000ff" d="M356.4232,-175.4312C328.0421,-161.4019 287.1964,-141.2111 256.5082,-126.0414"/>
<polygon fill="#0000ff" stroke="#0000ff" points="257.851,-122.8009 247.3355,-121.5071 254.7491,-129.0761 257.851,-122.8009"/>
<text text-anchor="middle" x="328.9418" y="-144.8" font-family="Times,serif" font-size="14.00" fill="#0000ff">callee</text>
</g>
<!-- #23 Identifier (v1) -->
<g id="node40" class="node">
<title>#23 Identifier (v1)</title>
<ellipse fill="none" stroke="#000000" cx="389.9418" cy="-105" rx="76.0865" ry="18"/>
<text text-anchor="middle" x="389.9418" y="-101.3" font-family="Times,serif" font-size="14.00" fill="#000000">#23 Identifier (v1)</text>
</g>
<!-- #21 CallExpression&#45;&gt;#23 Identifier (v1) -->
<g id="edge50" class="edge">
<title>#21 CallExpression&#45;&gt;#23 Identifier (v1)</title>
<path fill="none" stroke="#0000ff" d="M389.9418,-173.9735C389.9418,-162.1918 389.9418,-146.5607 389.9418,-133.1581"/>
<polygon fill="#0000ff" stroke="#0000ff" points="393.4419,-133.0033 389.9418,-123.0034 386.4419,-133.0034 393.4419,-133.0033"/>
<text text-anchor="middle" x="403.9418" y="-144.8" font-family="Times,serif" font-size="14.00" fill="#0000ff">arg 1</text>
</g>
<!-- #41 PDG_OBJECT o5&#45;&gt;#24 ReturnStatement -->
<g id="edge51" class="edge">
<title>#41 PDG_OBJECT o5&#45;&gt;#24 ReturnStatement</title>
<path fill="none" stroke="#006400" d="M663.2651,-174.3943C645.5827,-161.2459 621.2267,-143.135 601.8305,-128.7122"/>
<polygon fill="#006400" stroke="#006400" points="603.6964,-125.738 593.5832,-122.5796 599.5194,-131.3553 603.6964,-125.738"/>
<text text-anchor="middle" x="658.9418" y="-144.8" font-family="Times,serif" font-size="14.00" fill="#006400">VAR v2</text>
</g>
<!-- #13 Identifier (a) -->
<g id="node41" class="node">
<title>#13 Identifier (a)</title>
<ellipse fill="none" stroke="#000000" cx="644.9418" cy="-366" rx="71.4873" ry="18"/>
<text text-anchor="middle" x="644.9418" y="-362.3" font-family="Times,serif" font-size="14.00" fill="#000000">#13 Identifier (a)</text>
</g>
<!-- #12 MemberExpression&#45;&gt;#13 Identifier (a) -->
<g id="edge52" class="edge">
<title>#12 MemberExpression&#45;&gt;#13 Identifier (a)</title>
<path fill="none" stroke="#0000ff" d="M664.7617,-434.9735C661.3427,-423.0751 656.7954,-407.2508 652.9189,-393.7606"/>
<polygon fill="#0000ff" stroke="#0000ff" points="656.2409,-392.6478 650.1151,-384.0034 649.5131,-394.5811 656.2409,-392.6478"/>
<text text-anchor="middle" x="675.9418" y="-405.8" font-family="Times,serif" font-size="14.00" fill="#0000ff">object</text>
</g>
<!-- #14 Literal -->
<g id="node42" class="node">
<title>#14 Literal</title>
<ellipse fill="none" stroke="#000000" cx="784.9418" cy="-366" rx="50.0912" ry="18"/>
<text text-anchor="middle" x="784.9418" y="-362.3" font-family="Times,serif" font-size="14.00" fill="#000000">#14 Literal</text>
</g>
<!-- #12 MemberExpression&#45;&gt;#14 Literal -->
<g id="edge53" class="edge">
<title>#12 MemberExpression&#45;&gt;#14 Literal</title>
<path fill="none" stroke="#0000ff" d="M693.2137,-435.3943C711.0511,-421.8999 735.798,-403.1783 755.0928,-388.5814"/>
<polygon fill="#0000ff" stroke="#0000ff" points="757.3971,-391.2269 763.2605,-382.4024 753.1738,-385.6444 757.3971,-391.2269"/>
<text text-anchor="middle" x="757.9418" y="-405.8" font-family="Times,serif" font-size="14.00" fill="#0000ff">property</text>
</g>
</g>
</svg>
