<?xml version="1.0" encoding="UTF-8" standalone="no"?>
<!DOCTYPE svg PUBLIC "-//W3C//DTD SVG 1.1//EN"
 "http://www.w3.org/Graphics/SVG/1.1/DTD/svg11.dtd">
<!-- Generated by graphviz version 2.40.1 (20161225.0304)
 -->
<!-- Title: G Pages: 1 -->
<svg width="667pt" height="1206pt"
 viewBox="0.00 0.00 667.09 1206.00" xmlns="http://www.w3.org/2000/svg" xmlns:xlink="http://www.w3.org/1999/xlink">
<g id="graph0" class="graph" transform="scale(1 1) rotate(0) translate(4 1202)">
<title>G</title>
<polygon fill="#ffffff" stroke="transparent" points="-4,4 -4,-1202 663.09,-1202 663.09,4 -4,4"/>
<!-- #49 CFG_F_START __main__ -->
<g id="node1" class="node">
<title>#49 CFG_F_START __main__</title>
<ellipse fill="none" stroke="#ff0000" cx="129.09" cy="-1180" rx="122.6784" ry="18"/>
<text text-anchor="middle" x="129.09" y="-1176.3" font-family="Times,serif" font-size="14.00" fill="#ff0000">#49 CFG_F_START __main__</text>
</g>
<!-- #1 Function (f) -->
<g id="node2" class="node">
<title>#1 Function (f)</title>
<ellipse fill="none" stroke="#000000" cx="129.09" cy="-1107" rx="64.189" ry="18"/>
<text text-anchor="middle" x="129.09" y="-1103.3" font-family="Times,serif" font-size="14.00" fill="#000000">#1 Function (f)</text>
</g>
<!-- #49 CFG_F_START __main__&#45;&gt;#1 Function (f) -->
<g id="edge1" class="edge">
<title>#49 CFG_F_START __main__&#45;&gt;#1 Function (f)</title>
<path fill="none" stroke="#ff0000" d="M129.09,-1161.9551C129.09,-1153.8828 129.09,-1144.1764 129.09,-1135.1817"/>
<polygon fill="#ff0000" stroke="#ff0000" points="132.5901,-1135.0903 129.09,-1125.0904 125.5901,-1135.0904 132.5901,-1135.0903"/>
</g>
<!-- #50 CFG_F_END __main__ -->
<g id="node5" class="node">
<title>#50 CFG_F_END __main__</title>
<ellipse fill="none" stroke="#ff0000" cx="113.09" cy="-1020" rx="113.18" ry="18"/>
<text text-anchor="middle" x="113.09" y="-1016.3" font-family="Times,serif" font-size="14.00" fill="#ff0000">#50 CFG_F_END __main__</text>
</g>
<!-- #1 Function (f)&#45;&gt;#50 CFG_F_END __main__ -->
<g id="edge3" class="edge">
<title>#1 Function (f)&#45;&gt;#50 CFG_F_END __main__</title>
<path fill="none" stroke="#ff0000" d="M125.7748,-1088.9735C123.608,-1077.1918 120.7333,-1061.5607 118.2685,-1048.1581"/>
<polygon fill="#ff0000" stroke="#ff0000" points="121.652,-1047.2053 116.4009,-1038.0034 114.7675,-1048.4715 121.652,-1047.2053"/>
</g>
<!-- #54 PDG_OBJECT o1 -->
<g id="node6" class="node">
<title>#54 PDG_OBJECT o1</title>
<ellipse fill="none" stroke="#006400" cx="551.09" cy="-1020" rx="91.784" ry="18"/>
<text text-anchor="middle" x="551.09" y="-1016.3" font-family="Times,serif" font-size="14.00" fill="#006400">#54 PDG_OBJECT o1</text>
</g>
<!-- #1 Function (f)&#45;&gt;#54 PDG_OBJECT o1 -->
<g id="edge4" class="edge">
<title>#1 Function (f)&#45;&gt;#54 PDG_OBJECT o1</title>
<path fill="none" stroke="#006400" d="M181.2587,-1096.2448C255.8195,-1080.8733 393.1862,-1052.5536 477.8921,-1035.0906"/>
<polygon fill="#006400" stroke="#006400" points="478.6114,-1038.516 487.6987,-1033.0688 477.198,-1031.6601 478.6114,-1038.516"/>
<text text-anchor="middle" x="398.09" y="-1059.8" font-family="Times,serif" font-size="14.00" fill="#006400">CREATE o</text>
</g>
<!-- #51 CFG_F_START 1_f -->
<g id="node3" class="node">
<title>#51 CFG_F_START 1_f</title>
<ellipse fill="none" stroke="#ff0000" cx="343.09" cy="-1020" rx="98.5829" ry="18"/>
<text text-anchor="middle" x="343.09" y="-1016.3" font-family="Times,serif" font-size="14.00" fill="#ff0000">#51 CFG_F_START 1_f</text>
</g>
<!-- #3» aux1 = o.z; -->
<g id="node4" class="node">
<title>#3» aux1 = o.z;</title>
<ellipse fill="none" stroke="#000000" cx="415.09" cy="-933" rx="66.8882" ry="18"/>
<text text-anchor="middle" x="415.09" y="-929.3" font-family="Times,serif" font-size="14.00" fill="#000000">#3» aux1 = o.z;</text>
</g>
<!-- #51 CFG_F_START 1_f&#45;&gt;#3» aux1 = o.z; -->
<g id="edge2" class="edge">
<title>#51 CFG_F_START 1_f&#45;&gt;#3» aux1 = o.z;</title>
<path fill="none" stroke="#ff0000" d="M358.0084,-1001.9735C368.4069,-989.4087 382.4287,-972.4657 393.9726,-958.5168"/>
<polygon fill="#ff0000" stroke="#ff0000" points="396.7577,-960.6412 400.437,-950.7057 391.3649,-956.1782 396.7577,-960.6412"/>
</g>
<!-- #9» aux2 = aux1 &gt; 0; -->
<g id="node7" class="node">
<title>#9» aux2 = aux1 &gt; 0;</title>
<ellipse fill="none" stroke="#000000" cx="397.09" cy="-846" rx="87.9851" ry="18"/>
<text text-anchor="middle" x="397.09" y="-842.3" font-family="Times,serif" font-size="14.00" fill="#000000">#9» aux2 = aux1 &gt; 0;</text>
</g>
<!-- #3» aux1 = o.z;&#45;&gt;#9» aux2 = aux1 &gt; 0; -->
<g id="edge5" class="edge">
<title>#3» aux1 = o.z;&#45;&gt;#9» aux2 = aux1 &gt; 0;</title>
<path fill="none" stroke="#ff0000" d="M431.0908,-915.0564C437.8163,-905.2804 443.0573,-892.972 438.09,-882 436.288,-878.0197 433.8043,-874.305 430.9432,-870.8895"/>
<polygon fill="#ff0000" stroke="#ff0000" points="433.2097,-868.2002 423.7251,-863.4785 428.195,-873.0842 433.2097,-868.2002"/>
</g>
<!-- #3» aux1 = o.z;&#45;&gt;#9» aux2 = aux1 &gt; 0; -->
<g id="edge6" class="edge">
<title>#3» aux1 = o.z;&#45;&gt;#9» aux2 = aux1 &gt; 0;</title>
<path fill="none" stroke="#006400" d="M389.924,-916.1687C383.9456,-910.8109 378.3588,-904.3398 375.09,-897 371.5935,-889.1492 373.1981,-880.5834 376.7757,-872.752"/>
<polygon fill="#006400" stroke="#006400" points="379.8549,-874.4167 381.6945,-863.9828 373.7497,-870.9922 379.8549,-874.4167"/>
<text text-anchor="middle" x="404.59" y="-885.8" font-family="Times,serif" font-size="14.00" fill="#006400">VAR aux1</text>
</g>
<!-- #54 PDG_OBJECT o1&#45;&gt;#3» aux1 = o.z; -->
<g id="edge7" class="edge">
<title>#54 PDG_OBJECT o1&#45;&gt;#3» aux1 = o.z;</title>
<path fill="none" stroke="#006400" d="M509.6575,-1003.9445C497.166,-998.3671 483.6983,-991.5845 472.09,-984 460.5117,-976.4351 448.9193,-966.5836 439.241,-957.5584"/>
<polygon fill="#006400" stroke="#006400" points="441.5706,-954.9433 431.9264,-950.557 436.7303,-960.0002 441.5706,-954.9433"/>
<text text-anchor="middle" x="504.59" y="-972.8" font-family="Times,serif" font-size="14.00" fill="#006400">LOOKUP z</text>
</g>
<!-- #55 PDG_OBJECT o2 -->
<g id="node8" class="node">
<title>#55 PDG_OBJECT o2</title>
<ellipse fill="none" stroke="#006400" cx="551.09" cy="-512" rx="91.784" ry="18"/>
<text text-anchor="middle" x="551.09" y="-508.3" font-family="Times,serif" font-size="14.00" fill="#006400">#55 PDG_OBJECT o2</text>
</g>
<!-- #54 PDG_OBJECT o1&#45;&gt;#55 PDG_OBJECT o2 -->
<g id="edge8" class="edge">
<title>#54 PDG_OBJECT o1&#45;&gt;#55 PDG_OBJECT o2</title>
<path fill="none" stroke="#006400" d="M551.09,-1001.6694C551.09,-984.0629 551.09,-956.7135 551.09,-933 551.09,-933 551.09,-933 551.09,-599 551.09,-579.5475 551.09,-557.6484 551.09,-540.6877"/>
<polygon fill="#006400" stroke="#006400" points="554.5901,-540.3305 551.09,-530.3306 547.5901,-540.3306 554.5901,-540.3305"/>
<text text-anchor="middle" x="605.09" y="-769.3" font-family="Times,serif" font-size="14.00" fill="#006400">NEW_VERSION y</text>
</g>
<!-- #15 IfStatement -->
<g id="node9" class="node">
<title>#15 IfStatement</title>
<ellipse fill="none" stroke="#000000" cx="326.09" cy="-773" rx="67.6881" ry="18"/>
<text text-anchor="middle" x="326.09" y="-769.3" font-family="Times,serif" font-size="14.00" fill="#000000">#15 IfStatement</text>
</g>
<!-- #9» aux2 = aux1 &gt; 0;&#45;&gt;#15 IfStatement -->
<g id="edge9" class="edge">
<title>#9» aux2 = aux1 &gt; 0;&#45;&gt;#15 IfStatement</title>
<path fill="none" stroke="#ff0000" d="M379.9028,-828.3287C371.0074,-819.1827 359.9993,-807.8646 350.2616,-797.8526"/>
<polygon fill="#ff0000" stroke="#ff0000" points="352.6,-795.2369 343.1188,-790.5085 347.582,-800.1174 352.6,-795.2369"/>
</g>
<!-- #16 Identifier (aux2) -->
<g id="node10" class="node">
<title>#16 Identifier (aux2)</title>
<ellipse fill="none" stroke="#000000" cx="369.09" cy="-686" rx="84.485" ry="18"/>
<text text-anchor="middle" x="369.09" y="-682.3" font-family="Times,serif" font-size="14.00" fill="#000000">#16 Identifier (aux2)</text>
</g>
<!-- #9» aux2 = aux1 &gt; 0;&#45;&gt;#16 Identifier (aux2) -->
<g id="edge10" class="edge">
<title>#9» aux2 = aux1 &gt; 0;&#45;&gt;#16 Identifier (aux2)</title>
<path fill="none" stroke="#006400" d="M401.3453,-827.9623C405.01,-809.4181 408.8745,-779.826 403.09,-755 399.6608,-740.2827 392.6203,-725.0949 385.8309,-712.7279"/>
<polygon fill="#006400" stroke="#006400" points="388.7642,-710.8074 380.752,-703.8752 382.6925,-714.2908 388.7642,-710.8074"/>
<text text-anchor="middle" x="434.59" y="-769.3" font-family="Times,serif" font-size="14.00" fill="#006400">VAR aux2</text>
</g>
<!-- #23» aux3 = o.y; -->
<g id="node11" class="node">
<title>#23» aux3 = o.y;</title>
<ellipse fill="none" stroke="#000000" cx="444.09" cy="-425" rx="71.4873" ry="18"/>
<text text-anchor="middle" x="444.09" y="-421.3" font-family="Times,serif" font-size="14.00" fill="#000000">#23» aux3 = o.y;</text>
</g>
<!-- #55 PDG_OBJECT o2&#45;&gt;#23» aux3 = o.y; -->
<g id="edge11" class="edge">
<title>#55 PDG_OBJECT o2&#45;&gt;#23» aux3 = o.y;</title>
<path fill="none" stroke="#006400" d="M503.0804,-496.5555C491.6808,-491.3077 480.1992,-484.5437 471.09,-476 464.0818,-469.4269 458.5352,-460.621 454.3386,-452.1777"/>
<polygon fill="#006400" stroke="#006400" points="457.4721,-450.6123 450.1682,-442.9374 451.0918,-453.4919 457.4721,-450.6123"/>
<text text-anchor="middle" x="504.09" y="-464.8" font-family="Times,serif" font-size="14.00" fill="#006400">LOOKUP y</text>
</g>
<!-- #29» aux4 = o.w; -->
<g id="node12" class="node">
<title>#29» aux4 = o.w;</title>
<ellipse fill="none" stroke="#000000" cx="551.09" cy="-338" rx="73.387" ry="18"/>
<text text-anchor="middle" x="551.09" y="-334.3" font-family="Times,serif" font-size="14.00" fill="#000000">#29» aux4 = o.w;</text>
</g>
<!-- #55 PDG_OBJECT o2&#45;&gt;#29» aux4 = o.w; -->
<g id="edge12" class="edge">
<title>#55 PDG_OBJECT o2&#45;&gt;#29» aux4 = o.w;</title>
<path fill="none" stroke="#006400" d="M551.09,-493.7078C551.09,-463.3436 551.09,-402.3226 551.09,-366.3464"/>
<polygon fill="#006400" stroke="#006400" points="554.5901,-366.0471 551.09,-356.0471 547.5901,-366.0471 554.5901,-366.0471"/>
<text text-anchor="middle" x="585.59" y="-421.3" font-family="Times,serif" font-size="14.00" fill="#006400">LOOKUP w</text>
</g>
<!-- #15 IfStatement&#45;&gt;#16 Identifier (aux2) -->
<g id="edge13" class="edge">
<title>#15 IfStatement&#45;&gt;#16 Identifier (aux2)</title>
<path fill="none" stroke="#ff0000" d="M334.9996,-754.9735C340.9957,-742.8418 349.0091,-726.6287 355.76,-712.9698"/>
<polygon fill="#ff0000" stroke="#ff0000" points="358.8985,-714.519 360.1918,-704.0034 352.6231,-711.4173 358.8985,-714.519"/>
<text text-anchor="middle" x="360.59" y="-725.8" font-family="Times,serif" font-size="14.00" fill="#ff0000">test</text>
</g>
<!-- #17» o.y = 3; -->
<g id="node13" class="node">
<title>#17» o.y = 3;</title>
<ellipse fill="none" stroke="#000000" cx="431.09" cy="-599" rx="59.2899" ry="18"/>
<text text-anchor="middle" x="431.09" y="-595.3" font-family="Times,serif" font-size="14.00" fill="#000000">#17» o.y = 3;</text>
</g>
<!-- #16 Identifier (aux2)&#45;&gt;#17» o.y = 3; -->
<g id="edge14" class="edge">
<title>#16 Identifier (aux2)&#45;&gt;#17» o.y = 3;</title>
<path fill="none" stroke="#ff0000" d="M381.9364,-667.9735C390.807,-655.5261 402.7396,-638.782 412.6263,-624.9087"/>
<polygon fill="#ff0000" stroke="#ff0000" points="415.5188,-626.8806 418.4721,-616.7057 409.8183,-622.8181 415.5188,-626.8806"/>
<text text-anchor="middle" x="421.09" y="-638.8" font-family="Times,serif" font-size="14.00" fill="#ff0000">TRUE</text>
</g>
<!-- #53 CFG_IF_END -->
<g id="node14" class="node">
<title>#53 CFG_IF_END</title>
<ellipse fill="none" stroke="#ff0000" cx="356.09" cy="-91" rx="77.9862" ry="18"/>
<text text-anchor="middle" x="356.09" y="-87.3" font-family="Times,serif" font-size="14.00" fill="#ff0000">#53 CFG_IF_END</text>
</g>
<!-- #16 Identifier (aux2)&#45;&gt;#53 CFG_IF_END -->
<g id="edge15" class="edge">
<title>#16 Identifier (aux2)&#45;&gt;#53 CFG_IF_END</title>
<path fill="none" stroke="#ff0000" d="M360.6261,-667.7683C353.3734,-650.4595 344.09,-623.516 344.09,-599 344.09,-599 344.09,-599 344.09,-164 344.09,-149.1023 346.5535,-132.7182 349.2481,-119.2531"/>
<polygon fill="#ff0000" stroke="#ff0000" points="352.737,-119.6765 351.4161,-109.1644 345.8932,-118.2058 352.737,-119.6765"/>
<text text-anchor="middle" x="365.09" y="-377.8" font-family="Times,serif" font-size="14.00" fill="#ff0000">FALSE</text>
</g>
<!-- #23» aux3 = o.y;&#45;&gt;#29» aux4 = o.w; -->
<g id="edge16" class="edge">
<title>#23» aux3 = o.y;&#45;&gt;#29» aux4 = o.w;</title>
<path fill="none" stroke="#ff0000" d="M465.4858,-407.6033C481.6693,-394.4448 504.0721,-376.2295 521.9004,-361.7335"/>
<polygon fill="#ff0000" stroke="#ff0000" points="524.1803,-364.3908 529.7312,-355.3665 519.7642,-358.9596 524.1803,-364.3908"/>
</g>
<!-- #35» aux5 = aux3 + aux4; -->
<g id="node15" class="node">
<title>#35» aux5 = aux3 + aux4;</title>
<ellipse fill="none" stroke="#000000" cx="518.09" cy="-251" rx="104.7816" ry="18"/>
<text text-anchor="middle" x="518.09" y="-247.3" font-family="Times,serif" font-size="14.00" fill="#000000">#35» aux5 = aux3 + aux4;</text>
</g>
<!-- #23» aux3 = o.y;&#45;&gt;#35» aux5 = aux3 + aux4; -->
<g id="edge17" class="edge">
<title>#23» aux3 = o.y;&#45;&gt;#35» aux5 = aux3 + aux4;</title>
<path fill="none" stroke="#006400" d="M429.8587,-407.0847C414.569,-385.4972 394.4408,-348.5684 410.09,-320 421.8224,-298.5818 443.347,-282.8458 464.1104,-271.8567"/>
<polygon fill="#006400" stroke="#006400" points="465.867,-274.8915 473.2441,-267.2869 462.7349,-268.6313 465.867,-274.8915"/>
<text text-anchor="middle" x="439.59" y="-334.3" font-family="Times,serif" font-size="14.00" fill="#006400">VAR aux3</text>
</g>
<!-- #29» aux4 = o.w;&#45;&gt;#35» aux5 = aux3 + aux4; -->
<g id="edge18" class="edge">
<title>#29» aux4 = o.w;&#45;&gt;#35» aux5 = aux3 + aux4;</title>
<path fill="none" stroke="#ff0000" d="M540.633,-320.0499C537.6087,-314.3954 534.482,-308.0457 532.09,-302 529.2101,-294.7216 526.6958,-286.6351 524.6229,-279.0859"/>
<polygon fill="#ff0000" stroke="#ff0000" points="527.9714,-278.0546 522.0769,-269.2509 521.1947,-279.8089 527.9714,-278.0546"/>
</g>
<!-- #29» aux4 = o.w;&#45;&gt;#35» aux5 = aux3 + aux4; -->
<g id="edge19" class="edge">
<title>#29» aux4 = o.w;&#45;&gt;#35» aux5 = aux3 + aux4;</title>
<path fill="none" stroke="#006400" d="M544.2523,-319.9735C539.6949,-307.9585 533.619,-291.9401 528.4696,-278.3646"/>
<polygon fill="#006400" stroke="#006400" points="531.7379,-277.112 524.9188,-269.0034 525.1929,-279.5947 531.7379,-277.112"/>
<text text-anchor="middle" x="565.59" y="-290.8" font-family="Times,serif" font-size="14.00" fill="#006400">VAR aux4</text>
</g>
<!-- #17» o.y = 3;&#45;&gt;#55 PDG_OBJECT o2 -->
<g id="edge21" class="edge">
<title>#17» o.y = 3;&#45;&gt;#55 PDG_OBJECT o2</title>
<path fill="none" stroke="#006400" d="M446.0162,-581.5784C455.6221,-571.0334 468.7651,-557.7797 482.09,-548 489.2919,-542.7142 497.3763,-537.7574 505.4069,-533.3123"/>
<polygon fill="#006400" stroke="#006400" points="507.221,-536.3116 514.401,-528.5207 503.9296,-530.1336 507.221,-536.3116"/>
<text text-anchor="middle" x="509.59" y="-551.8" font-family="Times,serif" font-size="14.00" fill="#006400">WRITE y</text>
</g>
<!-- #17» o.y = 3;&#45;&gt;#23» aux3 = o.y; -->
<g id="edge20" class="edge">
<title>#17» o.y = 3;&#45;&gt;#23» aux3 = o.y;</title>
<path fill="none" stroke="#ff0000" d="M432.4566,-580.7078C434.7252,-550.3436 439.2843,-489.3226 441.9721,-453.3464"/>
<polygon fill="#ff0000" stroke="#ff0000" points="445.4868,-453.2801 442.7416,-443.0471 438.5062,-452.7585 445.4868,-453.2801"/>
</g>
<!-- #52 CFG_F_END 1_f -->
<g id="node16" class="node">
<title>#52 CFG_F_END 1_f</title>
<ellipse fill="none" stroke="#ff0000" cx="356.09" cy="-18" rx="89.0842" ry="18"/>
<text text-anchor="middle" x="356.09" y="-14.3" font-family="Times,serif" font-size="14.00" fill="#ff0000">#52 CFG_F_END 1_f</text>
</g>
<!-- #53 CFG_IF_END&#45;&gt;#52 CFG_F_END 1_f -->
<g id="edge22" class="edge">
<title>#53 CFG_IF_END&#45;&gt;#52 CFG_F_END 1_f</title>
<path fill="none" stroke="#ff0000" d="M356.09,-72.9551C356.09,-64.8828 356.09,-55.1764 356.09,-46.1817"/>
<polygon fill="#ff0000" stroke="#ff0000" points="359.5901,-46.0903 356.09,-36.0904 352.5901,-46.0904 359.5901,-46.0903"/>
</g>
<!-- #41» y = eval(aux5); -->
<g id="node17" class="node">
<title>#41» y = eval(aux5);</title>
<ellipse fill="none" stroke="#000000" cx="457.09" cy="-164" rx="85.2851" ry="18"/>
<text text-anchor="middle" x="457.09" y="-160.3" font-family="Times,serif" font-size="14.00" fill="#000000">#41» y = eval(aux5);</text>
</g>
<!-- #35» aux5 = aux3 + aux4;&#45;&gt;#41» y = eval(aux5); -->
<g id="edge23" class="edge">
<title>#35» aux5 = aux3 + aux4;&#45;&gt;#41» y = eval(aux5);</title>
<path fill="none" stroke="#ff0000" d="M518.6957,-232.7674C518.2309,-222.4399 516.2309,-209.6899 510.09,-200 507.0384,-195.1848 503.0845,-190.8548 498.7118,-187.0087"/>
<polygon fill="#ff0000" stroke="#ff0000" points="500.5334,-183.9911 490.4933,-180.6079 496.2322,-189.5138 500.5334,-183.9911"/>
</g>
<!-- #35» aux5 = aux3 + aux4;&#45;&gt;#41» y = eval(aux5); -->
<g id="edge24" class="edge">
<title>#35» aux5 = aux3 + aux4;&#45;&gt;#41» y = eval(aux5);</title>
<path fill="none" stroke="#006400" d="M468.8502,-235.0823C460.1921,-230.0365 452.2975,-223.4792 447.09,-215 442.8402,-208.0803 442.8145,-199.7227 444.5681,-191.7933"/>
<polygon fill="#006400" stroke="#006400" points="447.9491,-192.7066 447.5569,-182.119 441.261,-190.6403 447.9491,-192.7066"/>
<text text-anchor="middle" x="476.59" y="-203.8" font-family="Times,serif" font-size="14.00" fill="#006400">VAR aux5</text>
</g>
<!-- #41» y = eval(aux5);&#45;&gt;#53 CFG_IF_END -->
<g id="edge25" class="edge">
<title>#41» y = eval(aux5);&#45;&gt;#53 CFG_IF_END</title>
<path fill="none" stroke="#ff0000" d="M433.1544,-146.7C419.6956,-136.9724 402.7177,-124.7013 388.1253,-114.1542"/>
<polygon fill="#ff0000" stroke="#ff0000" points="390.0087,-111.197 379.8537,-108.1758 385.9082,-116.8703 390.0087,-111.197"/>
</g>
</g>
</svg>
