<?xml version="1.0" encoding="UTF-8" standalone="no"?>
<!DOCTYPE svg PUBLIC "-//W3C//DTD SVG 1.1//EN"
 "http://www.w3.org/Graphics/SVG/1.1/DTD/svg11.dtd">
<!-- Generated by graphviz version 2.40.1 (20161225.0304)
 -->
<!-- Title: G Pages: 1 -->
<svg width="664pt" height="1380pt"
 viewBox="0.00 0.00 663.54 1380.00" xmlns="http://www.w3.org/2000/svg" xmlns:xlink="http://www.w3.org/1999/xlink">
<g id="graph0" class="graph" transform="scale(1 1) rotate(0) translate(4 1376)">
<title>G</title>
<polygon fill="#ffffff" stroke="transparent" points="-4,4 -4,-1376 659.5415,-1376 659.5415,4 -4,4"/>
<!-- #46 CFG_F_START main -->
<g id="node1" class="node">
<title>#46 CFG_F_START main</title>
<ellipse fill="none" stroke="#ff0000" cx="330" cy="-1354" rx="105.0817" ry="18"/>
<text text-anchor="middle" x="330" y="-1350.3" font-family="Times,serif" font-size="14.00" fill="#ff0000">#46 CFG_F_START main</text>
</g>
<!-- #1 Function (search) -->
<g id="node2" class="node">
<title>#1 Function (search)</title>
<ellipse fill="none" stroke="#000000" cx="330" cy="-1281" rx="83.6854" ry="18"/>
<text text-anchor="middle" x="330" y="-1277.3" font-family="Times,serif" font-size="14.00" fill="#000000">#1 Function (search)</text>
</g>
<!-- #46 CFG_F_START main&#45;&gt;#1 Function (search) -->
<g id="edge1" class="edge">
<title>#46 CFG_F_START main&#45;&gt;#1 Function (search)</title>
<path fill="none" stroke="#ff0000" d="M330,-1335.9551C330,-1327.8828 330,-1318.1764 330,-1309.1817"/>
<polygon fill="#ff0000" stroke="#ff0000" points="333.5001,-1309.0903 330,-1299.0904 326.5001,-1309.0904 333.5001,-1309.0903"/>
</g>
<!-- #51 PDG_OBJECT o1 -->
<g id="node5" class="node">
<title>#51 PDG_OBJECT o1</title>
<ellipse fill="none" stroke="#006400" cx="100" cy="-1194" rx="91.784" ry="18"/>
<text text-anchor="middle" x="100" y="-1190.3" font-family="Times,serif" font-size="14.00" fill="#006400">#51 PDG_OBJECT o1</text>
</g>
<!-- #1 Function (search)&#45;&gt;#51 PDG_OBJECT o1 -->
<g id="edge9" class="edge">
<title>#1 Function (search)&#45;&gt;#51 PDG_OBJECT o1</title>
<path fill="none" stroke="#000000" d="M288.3487,-1265.245C250.1183,-1250.7839 193.3265,-1229.3017 152.1053,-1213.7094"/>
<polygon fill="#000000" stroke="#000000" points="153.1007,-1210.3439 142.5091,-1210.0795 150.6241,-1216.8912 153.1007,-1210.3439"/>
<text text-anchor="middle" x="268.5" y="-1233.8" font-family="Times,serif" font-size="14.00" fill="#000000">CREATE opts</text>
</g>
<!-- #47 CFG_F_END main -->
<g id="node9" class="node">
<title>#47 CFG_F_END main</title>
<ellipse fill="none" stroke="#ff0000" cx="560" cy="-1194" rx="95.5831" ry="18"/>
<text text-anchor="middle" x="560" y="-1190.3" font-family="Times,serif" font-size="14.00" fill="#ff0000">#47 CFG_F_END main</text>
</g>
<!-- #1 Function (search)&#45;&gt;#47 CFG_F_END main -->
<g id="edge8" class="edge">
<title>#1 Function (search)&#45;&gt;#47 CFG_F_END main</title>
<path fill="none" stroke="#ff0000" d="M371.6513,-1265.245C409.7619,-1250.8292 466.3177,-1229.4364 507.5066,-1213.8562"/>
<polygon fill="#ff0000" stroke="#ff0000" points="508.9842,-1217.0394 517.0991,-1210.2277 506.5075,-1210.4921 508.9842,-1217.0394"/>
</g>
<!-- #48 CFG_F_START 1_search -->
<g id="node3" class="node">
<title>#48 CFG_F_START 1_search</title>
<ellipse fill="none" stroke="#ff0000" cx="328" cy="-1194" rx="118.0794" ry="18"/>
<text text-anchor="middle" x="328" y="-1190.3" font-family="Times,serif" font-size="14.00" fill="#ff0000">#48 CFG_F_START 1_search</text>
</g>
<!-- #3» v1 = opts.filter -->
<g id="node4" class="node">
<title>#3» v1 = opts.filter</title>
<ellipse fill="none" stroke="#000000" cx="316" cy="-1107" rx="79.0865" ry="18"/>
<text text-anchor="middle" x="316" y="-1103.3" font-family="Times,serif" font-size="14.00" fill="#000000">#3» v1 = opts.filter</text>
</g>
<!-- #48 CFG_F_START 1_search&#45;&gt;#3» v1 = opts.filter -->
<g id="edge2" class="edge">
<title>#48 CFG_F_START 1_search&#45;&gt;#3» v1 = opts.filter</title>
<path fill="none" stroke="#ff0000" d="M325.5136,-1175.9735C323.8885,-1164.1918 321.7325,-1148.5607 319.8839,-1135.1581"/>
<polygon fill="#ff0000" stroke="#ff0000" points="323.3169,-1134.4313 318.4832,-1125.0034 316.3825,-1135.3878 323.3169,-1134.4313"/>
</g>
<!-- #7» v2 = !v1 -->
<g id="node10" class="node">
<title>#7» v2 = !v1</title>
<ellipse fill="none" stroke="#000000" cx="321" cy="-1020" rx="57.3905" ry="18"/>
<text text-anchor="middle" x="321" y="-1016.3" font-family="Times,serif" font-size="14.00" fill="#000000">#7» v2 = !v1</text>
</g>
<!-- #3» v1 = opts.filter&#45;&gt;#7» v2 = !v1 -->
<g id="edge10" class="edge">
<title>#3» v1 = opts.filter&#45;&gt;#7» v2 = !v1</title>
<path fill="none" stroke="#ff0000" d="M316.5271,-1088.5774C316.854,-1078.8787 317.3392,-1066.7902 318,-1056 318.1488,-1053.5704 318.3214,-1051.05 318.5073,-1048.5221"/>
<polygon fill="#ff0000" stroke="#ff0000" points="322.0161,-1048.5484 319.3181,-1038.3029 315.038,-1047.9947 322.0161,-1048.5484"/>
</g>
<!-- #3» v1 = opts.filter&#45;&gt;#7» v2 = !v1 -->
<g id="edge11" class="edge">
<title>#3» v1 = opts.filter&#45;&gt;#7» v2 = !v1</title>
<path fill="none" stroke="#006400" d="M317.036,-1088.9735C317.7131,-1077.1918 318.6115,-1061.5607 319.3817,-1048.1581"/>
<polygon fill="#006400" stroke="#006400" points="322.8857,-1048.1877 319.9653,-1038.0034 315.8972,-1047.786 322.8857,-1048.1877"/>
<text text-anchor="middle" x="333.5" y="-1059.8" font-family="Times,serif" font-size="14.00" fill="#006400">VAR</text>
</g>
<!-- #51 PDG_OBJECT o1&#45;&gt;#3» v1 = opts.filter -->
<g id="edge3" class="edge">
<title>#51 PDG_OBJECT o1&#45;&gt;#3» v1 = opts.filter</title>
<path fill="none" stroke="#006400" d="M140.3746,-1177.738C176.3958,-1163.2295 229.2113,-1141.9566 267.5101,-1126.5306"/>
<polygon fill="#006400" stroke="#006400" points="268.9471,-1129.7252 276.9153,-1122.7424 266.3318,-1123.2321 268.9471,-1129.7252"/>
<text text-anchor="middle" x="263.5" y="-1146.8" font-family="Times,serif" font-size="14.00" fill="#006400">LOOKUP filter</text>
</g>
<!-- #10» v3 = opts.collection -->
<g id="node6" class="node">
<title>#10» v3 = opts.collection</title>
<ellipse fill="none" stroke="#000000" cx="229" cy="-947" rx="101.2821" ry="18"/>
<text text-anchor="middle" x="229" y="-943.3" font-family="Times,serif" font-size="14.00" fill="#000000">#10» v3 = opts.collection</text>
</g>
<!-- #51 PDG_OBJECT o1&#45;&gt;#10» v3 = opts.collection -->
<g id="edge4" class="edge">
<title>#51 PDG_OBJECT o1&#45;&gt;#10» v3 = opts.collection</title>
<path fill="none" stroke="#006400" d="M109.4857,-1175.8375C131.8973,-1132.9253 188.2277,-1025.0679 214.759,-974.2676"/>
<polygon fill="#006400" stroke="#006400" points="217.9734,-975.6733 219.5004,-965.1891 211.7686,-972.4328 217.9734,-975.6733"/>
<text text-anchor="middle" x="228" y="-1059.8" font-family="Times,serif" font-size="14.00" fill="#006400">LOOKUP collection</text>
</g>
<!-- #52 PDG_OBJECT o2 -->
<g id="node7" class="node">
<title>#52 PDG_OBJECT o2</title>
<ellipse fill="none" stroke="#006400" cx="120" cy="-352" rx="91.784" ry="18"/>
<text text-anchor="middle" x="120" y="-348.3" font-family="Times,serif" font-size="14.00" fill="#006400">#52 PDG_OBJECT o2</text>
</g>
<!-- #51 PDG_OBJECT o1&#45;&gt;#52 PDG_OBJECT o2 -->
<g id="edge5" class="edge">
<title>#51 PDG_OBJECT o1&#45;&gt;#52 PDG_OBJECT o2</title>
<path fill="none" stroke="#000000" d="M100,-1175.6694C100,-1158.0629 100,-1130.7135 100,-1107 100,-1107 100,-1107 100,-439 100,-418.85 105.1587,-396.7269 110.2362,-379.8323"/>
<polygon fill="#000000" stroke="#000000" points="113.6508,-380.6433 113.3403,-370.0531 106.9788,-378.5255 113.6508,-380.6433"/>
<text text-anchor="middle" x="148.5" y="-783.3" font-family="Times,serif" font-size="14.00" fill="#000000">NEW_VERSION</text>
</g>
<!-- #35» v7 = opts.filter -->
<g id="node8" class="node">
<title>#35» v7 = opts.filter</title>
<ellipse fill="none" stroke="#000000" cx="120" cy="-265" rx="83.6854" ry="18"/>
<text text-anchor="middle" x="120" y="-261.3" font-family="Times,serif" font-size="14.00" fill="#000000">#35» v7 = opts.filter</text>
</g>
<!-- #51 PDG_OBJECT o1&#45;&gt;#35» v7 = opts.filter -->
<g id="edge6" class="edge">
<title>#51 PDG_OBJECT o1&#45;&gt;#35» v7 = opts.filter</title>
<path fill="none" stroke="#006400" d="M59.6144,-1177.7884C31.8607,-1163.6845 0,-1140.2521 0,-1107 0,-1107 0,-1107 0,-352 0,-318.7688 30.5371,-296.9256 60.802,-283.4374"/>
<polygon fill="#006400" stroke="#006400" points="62.2835,-286.6115 70.1517,-279.5163 59.5762,-280.1562 62.2835,-286.6115"/>
<text text-anchor="middle" x="42.5" y="-739.8" font-family="Times,serif" font-size="14.00" fill="#006400">LOOKUP filter</text>
</g>
<!-- #14» v4 = v2 &amp;&amp; v3 -->
<g id="node11" class="node">
<title>#14» v4 = v2 &amp;&amp; v3</title>
<ellipse fill="none" stroke="#000000" cx="262" cy="-860" rx="87.1846" ry="18"/>
<text text-anchor="middle" x="262" y="-856.3" font-family="Times,serif" font-size="14.00" fill="#000000">#14» v4 = v2 &amp;&amp; v3</text>
</g>
<!-- #10» v3 = opts.collection&#45;&gt;#14» v4 = v2 &amp;&amp; v3 -->
<g id="edge12" class="edge">
<title>#10» v3 = opts.collection&#45;&gt;#14» v4 = v2 &amp;&amp; v3</title>
<path fill="none" stroke="#ff0000" d="M232.987,-928.7491C235.3956,-918.8832 238.8112,-906.5867 243,-896 244.1587,-893.0716 245.4897,-890.0719 246.8979,-887.1144"/>
<polygon fill="#ff0000" stroke="#ff0000" points="250.1437,-888.4521 251.543,-877.9501 243.9,-885.2874 250.1437,-888.4521"/>
</g>
<!-- #10» v3 = opts.collection&#45;&gt;#14» v4 = v2 &amp;&amp; v3 -->
<g id="edge13" class="edge">
<title>#10» v3 = opts.collection&#45;&gt;#14» v4 = v2 &amp;&amp; v3</title>
<path fill="none" stroke="#006400" d="M235.8376,-928.9735C240.3951,-916.9585 246.471,-900.9401 251.6203,-887.3646"/>
<polygon fill="#006400" stroke="#006400" points="254.897,-888.5947 255.1711,-878.0034 248.352,-886.112 254.897,-888.5947"/>
<text text-anchor="middle" x="262.5" y="-899.8" font-family="Times,serif" font-size="14.00" fill="#006400">VAR</text>
</g>
<!-- #52 PDG_OBJECT o2&#45;&gt;#35» v7 = opts.filter -->
<g id="edge7" class="edge">
<title>#52 PDG_OBJECT o2&#45;&gt;#35» v7 = opts.filter</title>
<path fill="none" stroke="#006400" d="M120,-333.9735C120,-322.1918 120,-306.5607 120,-293.1581"/>
<polygon fill="#006400" stroke="#006400" points="123.5001,-293.0033 120,-283.0034 116.5001,-293.0034 123.5001,-293.0033"/>
<text text-anchor="middle" x="162.5" y="-304.8" font-family="Times,serif" font-size="14.00" fill="#006400">LOOKUP filter</text>
</g>
<!-- #39» v8 = eval(v7) -->
<g id="node12" class="node">
<title>#39» v8 = eval(v7)</title>
<ellipse fill="none" stroke="#000000" cx="120" cy="-178" rx="79.0865" ry="18"/>
<text text-anchor="middle" x="120" y="-174.3" font-family="Times,serif" font-size="14.00" fill="#000000">#39» v8 = eval(v7)</text>
</g>
<!-- #35» v7 = opts.filter&#45;&gt;#39» v8 = eval(v7) -->
<g id="edge14" class="edge">
<title>#35» v7 = opts.filter&#45;&gt;#39» v8 = eval(v7)</title>
<path fill="none" stroke="#ff0000" d="M118.786,-246.6941C118.463,-241.0251 118.1598,-234.7566 118,-229 117.7985,-221.7396 117.931,-213.9 118.2044,-206.5964"/>
<polygon fill="#ff0000" stroke="#ff0000" points="121.7098,-206.5627 118.6832,-196.4094 114.7175,-206.234 121.7098,-206.5627"/>
</g>
<!-- #35» v7 = opts.filter&#45;&gt;#39» v8 = eval(v7) -->
<g id="edge15" class="edge">
<title>#35» v7 = opts.filter&#45;&gt;#39» v8 = eval(v7)</title>
<path fill="none" stroke="#006400" d="M120,-246.9735C120,-235.1918 120,-219.5607 120,-206.1581"/>
<polygon fill="#006400" stroke="#006400" points="123.5001,-206.0033 120,-196.0034 116.5001,-206.0034 123.5001,-206.0033"/>
<text text-anchor="middle" x="134.5" y="-217.8" font-family="Times,serif" font-size="14.00" fill="#006400">VAR</text>
</g>
<!-- #7» v2 = !v1&#45;&gt;#10» v3 = opts.collection -->
<g id="edge16" class="edge">
<title>#7» v2 = !v1&#45;&gt;#10» v3 = opts.collection</title>
<path fill="none" stroke="#ff0000" d="M299.6621,-1003.0688C287.6176,-993.5118 272.3703,-981.4134 259.1247,-970.9033"/>
<polygon fill="#ff0000" stroke="#ff0000" points="261.1918,-968.0755 251.1827,-964.6015 256.8407,-973.559 261.1918,-968.0755"/>
</g>
<!-- #7» v2 = !v1&#45;&gt;#14» v4 = v2 &amp;&amp; v3 -->
<g id="edge17" class="edge">
<title>#7» v2 = !v1&#45;&gt;#14» v4 = v2 &amp;&amp; v3</title>
<path fill="none" stroke="#006400" d="M330.6392,-1002.1866C339.4809,-983.307 349.7056,-952.9685 339,-929 330.7233,-910.4696 314.7382,-894.8483 299.4679,-883.181"/>
<polygon fill="#006400" stroke="#006400" points="301.2596,-880.1566 291.1114,-877.1125 297.1463,-885.8206 301.2596,-880.1566"/>
<text text-anchor="middle" x="358.5" y="-943.3" font-family="Times,serif" font-size="14.00" fill="#006400">VAR</text>
</g>
<!-- #18 IfStatement -->
<g id="node13" class="node">
<title>#18 IfStatement</title>
<ellipse fill="none" stroke="#000000" cx="360" cy="-787" rx="67.6881" ry="18"/>
<text text-anchor="middle" x="360" y="-783.3" font-family="Times,serif" font-size="14.00" fill="#000000">#18 IfStatement</text>
</g>
<!-- #14» v4 = v2 &amp;&amp; v3&#45;&gt;#18 IfStatement -->
<g id="edge18" class="edge">
<title>#14» v4 = v2 &amp;&amp; v3&#45;&gt;#18 IfStatement</title>
<path fill="none" stroke="#ff0000" d="M285.7231,-842.3287C298.6705,-832.6842 314.8603,-820.6245 328.8174,-810.2279"/>
<polygon fill="#ff0000" stroke="#ff0000" points="331.2414,-812.7866 337.1702,-804.0059 327.0597,-807.1728 331.2414,-812.7866"/>
</g>
<!-- #19 Identifier (v4) -->
<g id="node14" class="node">
<title>#19 Identifier (v4)</title>
<ellipse fill="none" stroke="#000000" cx="346" cy="-700" rx="76.0865" ry="18"/>
<text text-anchor="middle" x="346" y="-696.3" font-family="Times,serif" font-size="14.00" fill="#000000">#19 Identifier (v4)</text>
</g>
<!-- #14» v4 = v2 &amp;&amp; v3&#45;&gt;#19 Identifier (v4) -->
<g id="edge19" class="edge">
<title>#14» v4 = v2 &amp;&amp; v3&#45;&gt;#19 Identifier (v4)</title>
<path fill="none" stroke="#006400" d="M255.0225,-841.8514C248.8435,-822.6919 242.4391,-792.1219 254,-769 264.2517,-748.4967 283.8137,-732.5053 302.2725,-721.1029"/>
<polygon fill="#006400" stroke="#006400" points="304.0637,-724.11 310.9181,-716.0311 300.5218,-718.0722 304.0637,-724.11"/>
<text text-anchor="middle" x="268.5" y="-783.3" font-family="Times,serif" font-size="14.00" fill="#006400">VAR</text>
</g>
<!-- #43» v8; -->
<g id="node15" class="node">
<title>#43» v8;</title>
<ellipse fill="none" stroke="#000000" cx="120" cy="-91" rx="42.4939" ry="18"/>
<text text-anchor="middle" x="120" y="-87.3" font-family="Times,serif" font-size="14.00" fill="#000000">#43» v8;</text>
</g>
<!-- #39» v8 = eval(v7)&#45;&gt;#43» v8; -->
<g id="edge20" class="edge">
<title>#39» v8 = eval(v7)&#45;&gt;#43» v8;</title>
<path fill="none" stroke="#ff0000" d="M118.6832,-159.5906C118.1402,-149.8955 117.7001,-137.8062 118,-127 118.0674,-124.5714 118.1603,-122.0517 118.2695,-119.5244"/>
<polygon fill="#ff0000" stroke="#ff0000" points="121.7767,-119.4699 118.786,-109.3059 114.7856,-119.1165 121.7767,-119.4699"/>
</g>
<!-- #39» v8 = eval(v7)&#45;&gt;#43» v8; -->
<g id="edge21" class="edge">
<title>#39» v8 = eval(v7)&#45;&gt;#43» v8;</title>
<path fill="none" stroke="#006400" d="M120,-159.9735C120,-148.1918 120,-132.5607 120,-119.1581"/>
<polygon fill="#006400" stroke="#006400" points="123.5001,-119.0033 120,-109.0034 116.5001,-119.0034 123.5001,-119.0033"/>
<text text-anchor="middle" x="134.5" y="-130.8" font-family="Times,serif" font-size="14.00" fill="#006400">VAR</text>
</g>
<!-- #18 IfStatement&#45;&gt;#19 Identifier (v4) -->
<g id="edge22" class="edge">
<title>#18 IfStatement&#45;&gt;#19 Identifier (v4)</title>
<path fill="none" stroke="#ff0000" d="M357.0992,-768.9735C355.2033,-757.1918 352.6879,-741.5607 350.5312,-728.1581"/>
<polygon fill="#ff0000" stroke="#ff0000" points="353.9415,-727.3203 348.8971,-718.0034 347.0304,-728.4324 353.9415,-727.3203"/>
<text text-anchor="middle" x="363.5" y="-739.8" font-family="Times,serif" font-size="14.00" fill="#ff0000">test</text>
</g>
<!-- #20» v5 = opts.collection -->
<g id="node16" class="node">
<title>#20» v5 = opts.collection</title>
<ellipse fill="none" stroke="#000000" cx="229" cy="-613" rx="101.2821" ry="18"/>
<text text-anchor="middle" x="229" y="-609.3" font-family="Times,serif" font-size="14.00" fill="#000000">#20» v5 = opts.collection</text>
</g>
<!-- #19 Identifier (v4)&#45;&gt;#20» v5 = opts.collection -->
<g id="edge23" class="edge">
<title>#19 Identifier (v4)&#45;&gt;#20» v5 = opts.collection</title>
<path fill="none" stroke="#ff0000" d="M322.8846,-682.8116C305.1699,-669.6392 280.5213,-651.3107 260.9249,-636.739"/>
<polygon fill="#ff0000" stroke="#ff0000" points="262.9838,-633.9084 252.8707,-630.75 258.8068,-639.5257 262.9838,-633.9084"/>
<text text-anchor="middle" x="313" y="-652.8" font-family="Times,serif" font-size="14.00" fill="#ff0000">TRUE</text>
</g>
<!-- #50 CFG_IF_END -->
<g id="node17" class="node">
<title>#50 CFG_IF_END</title>
<ellipse fill="none" stroke="#ff0000" cx="308" cy="-352" rx="77.9862" ry="18"/>
<text text-anchor="middle" x="308" y="-348.3" font-family="Times,serif" font-size="14.00" fill="#ff0000">#50 CFG_IF_END</text>
</g>
<!-- #19 Identifier (v4)&#45;&gt;#50 CFG_IF_END -->
<g id="edge24" class="edge">
<title>#19 Identifier (v4)&#45;&gt;#50 CFG_IF_END</title>
<path fill="none" stroke="#ff0000" d="M349.9958,-681.7702C353.4866,-664.2365 358,-636.9381 358,-613 358,-613 358,-613 358,-439 358,-416.1541 344.8791,-393.8843 332.0801,-377.5954"/>
<polygon fill="#ff0000" stroke="#ff0000" points="334.567,-375.1115 325.4876,-369.6513 329.1802,-379.5818 334.567,-375.1115"/>
<text text-anchor="middle" x="379" y="-522.3" font-family="Times,serif" font-size="14.00" fill="#ff0000">FALSE</text>
</g>
<!-- #49 CFG_F_END 1_search -->
<g id="node18" class="node">
<title>#49 CFG_F_END 1_search</title>
<ellipse fill="none" stroke="#ff0000" cx="120" cy="-18" rx="108.5808" ry="18"/>
<text text-anchor="middle" x="120" y="-14.3" font-family="Times,serif" font-size="14.00" fill="#ff0000">#49 CFG_F_END 1_search</text>
</g>
<!-- #43» v8;&#45;&gt;#49 CFG_F_END 1_search -->
<g id="edge25" class="edge">
<title>#43» v8;&#45;&gt;#49 CFG_F_END 1_search</title>
<path fill="none" stroke="#ff0000" d="M120,-72.9551C120,-64.8828 120,-55.1764 120,-46.1817"/>
<polygon fill="#ff0000" stroke="#ff0000" points="123.5001,-46.0903 120,-36.0904 116.5001,-46.0904 123.5001,-46.0903"/>
</g>
<!-- #24» v6 = &#39;...&#39; + v5 -->
<g id="node19" class="node">
<title>#24» v6 = &#39;...&#39; + v5</title>
<ellipse fill="none" stroke="#000000" cx="230" cy="-526" rx="79.0865" ry="18"/>
<text text-anchor="middle" x="230" y="-522.3" font-family="Times,serif" font-size="14.00" fill="#000000">#24» v6 = &#39;...&#39; + v5</text>
</g>
<!-- #20» v5 = opts.collection&#45;&gt;#24» v6 = &#39;...&#39; + v5 -->
<g id="edge26" class="edge">
<title>#20» v5 = opts.collection&#45;&gt;#24» v6 = &#39;...&#39; + v5</title>
<path fill="none" stroke="#ff0000" d="M221.0059,-594.6931C217.7225,-585.026 215.0868,-572.9309 217,-562 217.4776,-559.2713 218.1444,-556.4767 218.926,-553.71"/>
<polygon fill="#ff0000" stroke="#ff0000" points="222.3268,-554.5723 222.1278,-543.9794 215.6775,-552.3844 222.3268,-554.5723"/>
</g>
<!-- #20» v5 = opts.collection&#45;&gt;#24» v6 = &#39;...&#39; + v5 -->
<g id="edge27" class="edge">
<title>#20» v5 = opts.collection&#45;&gt;#24» v6 = &#39;...&#39; + v5</title>
<path fill="none" stroke="#006400" d="M229.2072,-594.9735C229.3426,-583.1918 229.5223,-567.5607 229.6763,-554.1581"/>
<polygon fill="#006400" stroke="#006400" points="233.1778,-554.043 229.7931,-544.0034 226.1783,-553.9624 233.1778,-554.043"/>
<text text-anchor="middle" x="244.5" y="-565.8" font-family="Times,serif" font-size="14.00" fill="#006400">VAR</text>
</g>
<!-- #50 CFG_IF_END&#45;&gt;#35» v7 = opts.filter -->
<g id="edge28" class="edge">
<title>#50 CFG_IF_END&#45;&gt;#35» v7 = opts.filter</title>
<path fill="none" stroke="#ff0000" d="M277.5859,-335.4178C258.1814,-325.0672 232.3731,-311.7204 209,-301 196.6859,-295.352 183.2193,-289.6614 170.5735,-284.5246"/>
<polygon fill="#ff0000" stroke="#ff0000" points="171.6797,-281.1971 161.0958,-280.7143 169.0685,-287.6919 171.6797,-281.1971"/>
</g>
<!-- #28» opts.filter = v6; -->
<g id="node20" class="node">
<title>#28» opts.filter = v6;</title>
<ellipse fill="none" stroke="#000000" cx="229" cy="-439" rx="86.3847" ry="18"/>
<text text-anchor="middle" x="229" y="-435.3" font-family="Times,serif" font-size="14.00" fill="#000000">#28» opts.filter = v6;</text>
</g>
<!-- #24» v6 = &#39;...&#39; + v5&#45;&gt;#28» opts.filter = v6; -->
<g id="edge29" class="edge">
<title>#24» v6 = &#39;...&#39; + v5&#45;&gt;#28» opts.filter = v6;</title>
<path fill="none" stroke="#ff0000" d="M222.1278,-508.0206C220.0294,-502.3649 218.054,-496.0219 217,-490 215.6847,-482.485 216.5194,-474.4197 218.2365,-466.9715"/>
<polygon fill="#ff0000" stroke="#ff0000" points="221.6158,-467.8841 221.0059,-457.3069 214.8866,-465.9559 221.6158,-467.8841"/>
</g>
<!-- #24» v6 = &#39;...&#39; + v5&#45;&gt;#28» opts.filter = v6; -->
<g id="edge30" class="edge">
<title>#24» v6 = &#39;...&#39; + v5&#45;&gt;#28» opts.filter = v6;</title>
<path fill="none" stroke="#006400" d="M229.7928,-507.9735C229.6574,-496.1918 229.4777,-480.5607 229.3237,-467.1581"/>
<polygon fill="#006400" stroke="#006400" points="232.8217,-466.9624 229.2069,-457.0034 225.8222,-467.043 232.8217,-466.9624"/>
<text text-anchor="middle" x="244.5" y="-478.8" font-family="Times,serif" font-size="14.00" fill="#006400">VAR</text>
</g>
<!-- #28» opts.filter = v6;&#45;&gt;#52 PDG_OBJECT o2 -->
<g id="edge32" class="edge">
<title>#28» opts.filter = v6;&#45;&gt;#52 PDG_OBJECT o2</title>
<path fill="none" stroke="#006400" d="M206.9422,-421.3943C190.5428,-408.3048 167.9817,-390.2973 149.9517,-375.9064"/>
<polygon fill="#006400" stroke="#006400" points="152.0241,-373.0823 142.025,-369.5796 147.6573,-378.5533 152.0241,-373.0823"/>
<text text-anchor="middle" x="219" y="-391.8" font-family="Times,serif" font-size="14.00" fill="#006400">WRITE filter</text>
</g>
<!-- #28» opts.filter = v6;&#45;&gt;#50 CFG_IF_END -->
<g id="edge31" class="edge">
<title>#28» opts.filter = v6;&#45;&gt;#50 CFG_IF_END</title>
<path fill="none" stroke="#ff0000" d="M267.7717,-422.8661C276.7304,-417.6315 285.5222,-411.0463 292,-403 297.3192,-396.3929 300.8797,-388.0021 303.2593,-379.9436"/>
<polygon fill="#ff0000" stroke="#ff0000" points="306.6972,-380.6197 305.6854,-370.0733 299.8996,-378.9488 306.6972,-380.6197"/>
</g>
</g>
</svg>
