<?xml version="1.0" encoding="UTF-8" standalone="no"?>
<!DOCTYPE svg PUBLIC "-//W3C//DTD SVG 1.1//EN"
 "http://www.w3.org/Graphics/SVG/1.1/DTD/svg11.dtd">
<!-- Generated by graphviz version 2.40.1 (20161225.0304)
 -->
<!-- Title: G Pages: 1 -->
<svg width="775pt" height="1032pt"
 viewBox="0.00 0.00 775.48 1032.00" xmlns="http://www.w3.org/2000/svg" xmlns:xlink="http://www.w3.org/1999/xlink">
<g id="graph0" class="graph" transform="scale(1 1) rotate(0) translate(4 1028)">
<title>G</title>
<polygon fill="#ffffff" stroke="transparent" points="-4,4 -4,-1028 771.4821,-1028 771.4821,4 -4,4"/>
<!-- #52 Program -->
<g id="node1" class="node">
<title>#52 Program</title>
<ellipse fill="none" stroke="#000000" cx="142.6442" cy="-1006" rx="57.3905" ry="18"/>
<text text-anchor="middle" x="142.6442" y="-1002.3" font-family="Times,serif" font-size="14.00" fill="#000000">#52 Program</text>
</g>
<!-- #44 FunctionDeclaration -->
<g id="node2" class="node">
<title>#44 FunctionDeclaration</title>
<ellipse fill="none" stroke="#000000" cx="294.6442" cy="-919" rx="98.5829" ry="18"/>
<text text-anchor="middle" x="294.6442" y="-915.3" font-family="Times,serif" font-size="14.00" fill="#000000">#44 FunctionDeclaration</text>
</g>
<!-- #52 Program&#45;&gt;#44 FunctionDeclaration -->
<g id="edge1" class="edge">
<title>#52 Program&#45;&gt;#44 FunctionDeclaration</title>
<path fill="none" stroke="#0000ff" d="M170.5233,-990.0429C194.4706,-976.3362 229.2462,-956.4317 255.8995,-941.1762"/>
<polygon fill="#0000ff" stroke="#0000ff" points="257.6594,-944.2017 264.5997,-936.1965 254.1821,-938.1265 257.6594,-944.2017"/>
<text text-anchor="middle" x="232.1442" y="-958.8" font-family="Times,serif" font-size="14.00" fill="#0000ff">1</text>
</g>
<!-- #49 » let v5 = run(); -->
<g id="node3" class="node">
<title>#49 » let v5 = run();</title>
<ellipse fill="none" stroke="#000000" cx="142.6442" cy="-832" rx="83.3857" ry="18"/>
<text text-anchor="middle" x="142.6442" y="-828.3" font-family="Times,serif" font-size="14.00" fill="#000000">#49 » let v5 = run();</text>
</g>
<!-- #52 Program&#45;&gt;#49 » let v5 = run(); -->
<g id="edge2" class="edge">
<title>#52 Program&#45;&gt;#49 » let v5 = run();</title>
<path fill="none" stroke="#0000ff" d="M142.6442,-987.7078C142.6442,-957.3436 142.6442,-896.3226 142.6442,-860.3464"/>
<polygon fill="#0000ff" stroke="#0000ff" points="146.1443,-860.0471 142.6442,-850.0471 139.1443,-860.0471 146.1443,-860.0471"/>
<text text-anchor="middle" x="146.1442" y="-915.3" font-family="Times,serif" font-size="14.00" fill="#0000ff">2</text>
</g>
<!-- #51 » v5; -->
<g id="node4" class="node">
<title>#51 » v5;</title>
<ellipse fill="none" stroke="#000000" cx="65.6442" cy="-745" rx="44.393" ry="18"/>
<text text-anchor="middle" x="65.6442" y="-741.3" font-family="Times,serif" font-size="14.00" fill="#000000">#51 » v5;</text>
</g>
<!-- #52 Program&#45;&gt;#51 » v5; -->
<g id="edge3" class="edge">
<title>#52 Program&#45;&gt;#51 » v5;</title>
<path fill="none" stroke="#0000ff" d="M127.8033,-988.2697C105.8541,-960.7634 65.7104,-905.2061 50.6442,-850 43.6447,-824.3524 49.311,-794.2376 55.5832,-772.8516"/>
<polygon fill="#0000ff" stroke="#0000ff" points="58.985,-773.7019 58.6581,-763.1121 52.3097,-771.5944 58.985,-773.7019"/>
<text text-anchor="middle" x="66.1442" y="-871.8" font-family="Times,serif" font-size="14.00" fill="#0000ff">3</text>
</g>
<!-- #44 FunctionDeclaration&#45;&gt;#49 » let v5 = run(); -->
<g id="edge8" class="edge">
<title>#44 FunctionDeclaration&#45;&gt;#49 » let v5 = run();</title>
<path fill="none" stroke="#ff0000" d="M264.6139,-901.8116C240.6219,-888.0794 206.8397,-868.7435 180.9101,-853.9022"/>
<polygon fill="#ff0000" stroke="#ff0000" points="182.5125,-850.7866 172.0949,-848.8567 179.0352,-856.8619 182.5125,-850.7866"/>
</g>
<!-- #43 BlockStatement -->
<g id="node7" class="node">
<title>#43 BlockStatement</title>
<ellipse fill="none" stroke="#000000" cx="494.6442" cy="-832" rx="83.3857" ry="18"/>
<text text-anchor="middle" x="494.6442" y="-828.3" font-family="Times,serif" font-size="14.00" fill="#000000">#43 BlockStatement</text>
</g>
<!-- #44 FunctionDeclaration&#45;&gt;#43 BlockStatement -->
<g id="edge7" class="edge">
<title>#44 FunctionDeclaration&#45;&gt;#43 BlockStatement</title>
<path fill="none" stroke="#0000ff" d="M333.2062,-902.2255C365.9932,-887.9632 413.1664,-867.4428 448.0592,-852.2645"/>
<polygon fill="#0000ff" stroke="#0000ff" points="449.779,-855.3332 457.5529,-848.1347 446.9867,-848.9142 449.779,-855.3332"/>
<text text-anchor="middle" x="419.6442" y="-871.8" font-family="Times,serif" font-size="14.00" fill="#0000ff">body</text>
</g>
<!-- #0 Identifier (run) -->
<g id="node8" class="node">
<title>#0 Identifier (run)</title>
<ellipse fill="none" stroke="#000000" cx="318.6442" cy="-832" rx="74.9875" ry="18"/>
<text text-anchor="middle" x="318.6442" y="-828.3" font-family="Times,serif" font-size="14.00" fill="#000000">#0 Identifier (run)</text>
</g>
<!-- #44 FunctionDeclaration&#45;&gt;#0 Identifier (run) -->
<g id="edge6" class="edge">
<title>#44 FunctionDeclaration&#45;&gt;#0 Identifier (run)</title>
<path fill="none" stroke="#0000ff" d="M299.617,-900.9735C302.8993,-889.0751 307.2647,-873.2508 310.9861,-859.7606"/>
<polygon fill="#0000ff" stroke="#0000ff" points="314.3923,-860.5741 313.6777,-850.0034 307.6444,-858.7125 314.3923,-860.5741"/>
<text text-anchor="middle" x="313.1442" y="-871.8" font-family="Times,serif" font-size="14.00" fill="#0000ff">id</text>
</g>
<!-- #49 » let v5 = run();&#45;&gt;#51 » v5; -->
<g id="edge9" class="edge">
<title>#49 » let v5 = run();&#45;&gt;#51 » v5;</title>
<path fill="none" stroke="#ff0000" d="M126.6897,-813.9735C115.4218,-801.2422 100.1757,-784.0161 87.7389,-769.9642"/>
<polygon fill="#ff0000" stroke="#ff0000" points="90.0408,-767.2841 80.7923,-762.1154 84.799,-771.9234 90.0408,-767.2841"/>
</g>
<!-- #54 _main_end -->
<g id="node9" class="node">
<title>#54 _main_end</title>
<ellipse fill="none" stroke="#ff0000" cx="65.6442" cy="-658" rx="65.7887" ry="18"/>
<text text-anchor="middle" x="65.6442" y="-654.3" font-family="Times,serif" font-size="14.00" fill="#ff0000">#54 _main_end</text>
</g>
<!-- #51 » v5;&#45;&gt;#54 _main_end -->
<g id="edge10" class="edge">
<title>#51 » v5;&#45;&gt;#54 _main_end</title>
<path fill="none" stroke="#ff0000" d="M65.6442,-726.9735C65.6442,-715.1918 65.6442,-699.5607 65.6442,-686.1581"/>
<polygon fill="#ff0000" stroke="#ff0000" points="69.1443,-686.0033 65.6442,-676.0034 62.1443,-686.0034 69.1443,-686.0033"/>
</g>
<!-- #53 _main_start -->
<g id="node5" class="node">
<title>#53 _main_start</title>
<ellipse fill="none" stroke="#ff0000" cx="294.6442" cy="-1006" rx="68.4888" ry="18"/>
<text text-anchor="middle" x="294.6442" y="-1002.3" font-family="Times,serif" font-size="14.00" fill="#ff0000">#53 _main_start</text>
</g>
<!-- #53 _main_start&#45;&gt;#44 FunctionDeclaration -->
<g id="edge4" class="edge">
<title>#53 _main_start&#45;&gt;#44 FunctionDeclaration</title>
<path fill="none" stroke="#ff0000" d="M294.6442,-987.9735C294.6442,-976.1918 294.6442,-960.5607 294.6442,-947.1581"/>
<polygon fill="#ff0000" stroke="#ff0000" points="298.1443,-947.0033 294.6442,-937.0034 291.1443,-947.0034 298.1443,-947.0033"/>
</g>
<!-- #56 _44_run_start -->
<g id="node6" class="node">
<title>#56 _44_run_start</title>
<ellipse fill="none" stroke="#ff0000" cx="494.6442" cy="-919" rx="75.2868" ry="18"/>
<text text-anchor="middle" x="494.6442" y="-915.3" font-family="Times,serif" font-size="14.00" fill="#ff0000">#56 _44_run_start</text>
</g>
<!-- #56 _44_run_start&#45;&gt;#43 BlockStatement -->
<g id="edge5" class="edge">
<title>#56 _44_run_start&#45;&gt;#43 BlockStatement</title>
<path fill="none" stroke="#ff0000" d="M494.6442,-900.9735C494.6442,-889.1918 494.6442,-873.5607 494.6442,-860.1581"/>
<polygon fill="#ff0000" stroke="#ff0000" points="498.1443,-860.0033 494.6442,-850.0034 491.1443,-860.0034 498.1443,-860.0033"/>
</g>
<!-- #4 » const i = 1; -->
<g id="node10" class="node">
<title>#4 » const i = 1;</title>
<ellipse fill="none" stroke="#000000" cx="493.6442" cy="-745" rx="69.5877" ry="18"/>
<text text-anchor="middle" x="493.6442" y="-741.3" font-family="Times,serif" font-size="14.00" fill="#000000">#4 » const i = 1;</text>
</g>
<!-- #43 BlockStatement&#45;&gt;#4 » const i = 1; -->
<g id="edge11" class="edge">
<title>#43 BlockStatement&#45;&gt;#4 » const i = 1;</title>
<path fill="none" stroke="#0000ff" d="M494.437,-813.9735C494.3016,-802.1918 494.1219,-786.5607 493.9678,-773.1581"/>
<polygon fill="#0000ff" stroke="#0000ff" points="497.4659,-772.9624 493.8511,-763.0034 490.4664,-773.043 497.4659,-772.9624"/>
<text text-anchor="middle" x="497.1442" y="-784.8" font-family="Times,serif" font-size="14.00" fill="#0000ff">1</text>
</g>
<!-- #43 BlockStatement&#45;&gt;#4 » const i = 1; -->
<g id="edge14" class="edge">
<title>#43 BlockStatement&#45;&gt;#4 » const i = 1;</title>
<path fill="none" stroke="#ff0000" d="M492.8233,-813.7043C492.3389,-808.0358 491.884,-801.7649 491.6442,-796 491.3423,-788.743 491.4388,-780.9047 491.7095,-773.6012"/>
<polygon fill="#ff0000" stroke="#ff0000" points="495.215,-773.5718 492.2046,-763.4136 488.2232,-773.2319 495.215,-773.5718"/>
</g>
<!-- #10 » let v0 = i == 1; -->
<g id="node11" class="node">
<title>#10 » let v0 = i == 1;</title>
<ellipse fill="none" stroke="#000000" cx="511.6442" cy="-658" rx="88.2844" ry="18"/>
<text text-anchor="middle" x="511.6442" y="-654.3" font-family="Times,serif" font-size="14.00" fill="#000000">#10 » let v0 = i == 1;</text>
</g>
<!-- #43 BlockStatement&#45;&gt;#10 » let v0 = i == 1; -->
<g id="edge12" class="edge">
<title>#43 BlockStatement&#45;&gt;#10 » let v0 = i == 1;</title>
<path fill="none" stroke="#0000ff" d="M524.124,-814.9739C541.7886,-802.9585 562.6931,-785.0888 572.6442,-763 585.5802,-734.2854 562.647,-703.3285 541.302,-682.5241"/>
<polygon fill="#0000ff" stroke="#0000ff" points="543.5822,-679.8648 533.8796,-675.609 538.8105,-684.9865 543.5822,-679.8648"/>
<text text-anchor="middle" x="579.1442" y="-741.3" font-family="Times,serif" font-size="14.00" fill="#0000ff">2</text>
</g>
<!-- #42 IfStatement -->
<g id="node12" class="node">
<title>#42 IfStatement</title>
<ellipse fill="none" stroke="#000000" cx="407.6442" cy="-585" rx="67.6881" ry="18"/>
<text text-anchor="middle" x="407.6442" y="-581.3" font-family="Times,serif" font-size="14.00" fill="#000000">#42 IfStatement</text>
</g>
<!-- #43 BlockStatement&#45;&gt;#42 IfStatement -->
<g id="edge13" class="edge">
<title>#43 BlockStatement&#45;&gt;#42 IfStatement</title>
<path fill="none" stroke="#0000ff" d="M464.7262,-815.0082C446.7354,-803.0064 425.3167,-785.1391 414.6442,-763 391.2369,-714.4439 396.458,-649.495 402.1751,-612.9829"/>
<polygon fill="#0000ff" stroke="#0000ff" points="405.6393,-613.4883 403.8556,-603.0447 398.7372,-612.3212 405.6393,-613.4883"/>
<text text-anchor="middle" x="402.1442" y="-697.8" font-family="Times,serif" font-size="14.00" fill="#0000ff">3</text>
</g>
<!-- #4 » const i = 1;&#45;&gt;#10 » let v0 = i == 1; -->
<g id="edge15" class="edge">
<title>#4 » const i = 1;&#45;&gt;#10 » let v0 = i == 1;</title>
<path fill="none" stroke="#ff0000" d="M497.3738,-726.9735C499.8114,-715.1918 503.0454,-699.5607 505.8184,-686.1581"/>
<polygon fill="#ff0000" stroke="#ff0000" points="509.3206,-686.5051 507.9193,-676.0034 502.4658,-685.0868 509.3206,-686.5051"/>
</g>
<!-- #10 » let v0 = i == 1;&#45;&gt;#42 IfStatement -->
<g id="edge16" class="edge">
<title>#10 » let v0 = i == 1;&#45;&gt;#42 IfStatement</title>
<path fill="none" stroke="#ff0000" d="M486.9976,-640.7C473.0387,-630.9019 455.4034,-618.5233 440.3048,-607.9252"/>
<polygon fill="#ff0000" stroke="#ff0000" points="441.9508,-604.8045 431.755,-601.924 437.9291,-610.5339 441.9508,-604.8045"/>
</g>
<!-- #11 Identifier (v0) -->
<g id="node13" class="node">
<title>#11 Identifier (v0)</title>
<ellipse fill="none" stroke="#000000" cx="407.6442" cy="-498" rx="76.0865" ry="18"/>
<text text-anchor="middle" x="407.6442" y="-494.3" font-family="Times,serif" font-size="14.00" fill="#000000">#11 Identifier (v0)</text>
</g>
<!-- #42 IfStatement&#45;&gt;#11 Identifier (v0) -->
<g id="edge17" class="edge">
<title>#42 IfStatement&#45;&gt;#11 Identifier (v0)</title>
<path fill="none" stroke="#0000ff" d="M394.5492,-566.9406C389.1395,-557.3412 384.7337,-545.232 387.6442,-534 388.426,-530.9828 389.5215,-527.9493 390.8012,-524.9925"/>
<polygon fill="#0000ff" stroke="#0000ff" points="393.996,-526.4297 395.3579,-515.9227 387.741,-523.2871 393.996,-526.4297"/>
<text text-anchor="middle" x="397.1442" y="-537.8" font-family="Times,serif" font-size="14.00" fill="#0000ff">test</text>
</g>
<!-- #42 IfStatement&#45;&gt;#11 Identifier (v0) -->
<g id="edge20" class="edge">
<title>#42 IfStatement&#45;&gt;#11 Identifier (v0)</title>
<path fill="none" stroke="#ff0000" d="M407.6442,-566.9735C407.6442,-555.1918 407.6442,-539.5607 407.6442,-526.1581"/>
<polygon fill="#ff0000" stroke="#ff0000" points="411.1443,-526.0033 407.6442,-516.0034 404.1443,-526.0034 411.1443,-526.0033"/>
<text text-anchor="middle" x="417.1442" y="-537.8" font-family="Times,serif" font-size="14.00" fill="#ff0000">test</text>
</g>
<!-- #26 BlockStatement -->
<g id="node14" class="node">
<title>#26 BlockStatement</title>
<ellipse fill="none" stroke="#000000" cx="284.6442" cy="-411" rx="83.3857" ry="18"/>
<text text-anchor="middle" x="284.6442" y="-407.3" font-family="Times,serif" font-size="14.00" fill="#000000">#26 BlockStatement</text>
</g>
<!-- #42 IfStatement&#45;&gt;#26 BlockStatement -->
<g id="edge18" class="edge">
<title>#42 IfStatement&#45;&gt;#26 BlockStatement</title>
<path fill="none" stroke="#0000ff" d="M352.7379,-574.3352C320.2252,-564.8927 281.5973,-547.4991 261.6442,-516 246.7024,-492.4121 257.0838,-460.5283 268.2911,-438.1039"/>
<polygon fill="#0000ff" stroke="#0000ff" points="271.4619,-439.5959 273.0734,-429.1243 265.2835,-436.3054 271.4619,-439.5959"/>
<text text-anchor="middle" x="292.1442" y="-494.3" font-family="Times,serif" font-size="14.00" fill="#0000ff">consequent</text>
</g>
<!-- #41 BlockStatement -->
<g id="node15" class="node">
<title>#41 BlockStatement</title>
<ellipse fill="none" stroke="#000000" cx="517.6442" cy="-411" rx="83.3857" ry="18"/>
<text text-anchor="middle" x="517.6442" y="-407.3" font-family="Times,serif" font-size="14.00" fill="#000000">#41 BlockStatement</text>
</g>
<!-- #42 IfStatement&#45;&gt;#41 BlockStatement -->
<g id="edge19" class="edge">
<title>#42 IfStatement&#45;&gt;#41 BlockStatement</title>
<path fill="none" stroke="#0000ff" d="M436.2566,-568.6766C455.0469,-556.5044 478.6539,-538.1872 492.6442,-516 507.3318,-492.7069 513.3949,-461.5566 515.8952,-439.2453"/>
<polygon fill="#0000ff" stroke="#0000ff" points="519.3998,-439.3612 516.8586,-429.0756 512.431,-438.7009 519.3998,-439.3612"/>
<text text-anchor="middle" x="531.1442" y="-494.3" font-family="Times,serif" font-size="14.00" fill="#0000ff">alternate</text>
</g>
<!-- #11 Identifier (v0)&#45;&gt;#26 BlockStatement -->
<g id="edge21" class="edge">
<title>#11 Identifier (v0)&#45;&gt;#26 BlockStatement</title>
<path fill="none" stroke="#ff0000" d="M383.3433,-480.8116C364.514,-467.4933 338.2328,-448.9042 317.5238,-434.2564"/>
<polygon fill="#ff0000" stroke="#ff0000" points="319.5009,-431.3677 309.3155,-428.4505 315.4586,-437.0826 319.5009,-431.3677"/>
<text text-anchor="middle" x="370.6442" y="-450.8" font-family="Times,serif" font-size="14.00" fill="#ff0000">TRUE</text>
</g>
<!-- #11 Identifier (v0)&#45;&gt;#41 BlockStatement -->
<g id="edge22" class="edge">
<title>#11 Identifier (v0)&#45;&gt;#41 BlockStatement</title>
<path fill="none" stroke="#ff0000" d="M425.6975,-480.2733C436.3819,-470.1144 450.3819,-457.3644 463.6442,-447 469.3815,-442.5163 475.6634,-438.0022 481.8493,-433.7588"/>
<polygon fill="#ff0000" stroke="#ff0000" points="483.8188,-436.6522 490.165,-428.1683 479.9133,-430.8429 483.8188,-436.6522"/>
<text text-anchor="middle" x="484.6442" y="-450.8" font-family="Times,serif" font-size="14.00" fill="#ff0000">FALSE</text>
</g>
<!-- #17 » let v1 = console.log; -->
<g id="node16" class="node">
<title>#17 » let v1 = console.log;</title>
<ellipse fill="none" stroke="#000000" cx="332.6442" cy="-324" rx="106.6812" ry="18"/>
<text text-anchor="middle" x="332.6442" y="-320.3" font-family="Times,serif" font-size="14.00" fill="#000000">#17 » let v1 = console.log;</text>
</g>
<!-- #26 BlockStatement&#45;&gt;#17 » let v1 = console.log; -->
<g id="edge23" class="edge">
<title>#26 BlockStatement&#45;&gt;#17 » let v1 = console.log;</title>
<path fill="none" stroke="#0000ff" d="M285.9955,-392.6262C287.3638,-382.4946 290.1149,-369.984 295.6442,-360 297.7447,-356.2072 300.3725,-352.5624 303.2534,-349.145"/>
<polygon fill="#0000ff" stroke="#0000ff" points="306.0204,-351.3108 310.3056,-341.6212 300.9132,-346.5237 306.0204,-351.3108"/>
<text text-anchor="middle" x="299.1442" y="-363.8" font-family="Times,serif" font-size="14.00" fill="#0000ff">1</text>
</g>
<!-- #26 BlockStatement&#45;&gt;#17 » let v1 = console.log; -->
<g id="edge26" class="edge">
<title>#26 BlockStatement&#45;&gt;#17 » let v1 = console.log;</title>
<path fill="none" stroke="#ff0000" d="M294.5898,-392.9735C301.2832,-380.8418 310.2284,-364.6287 317.7643,-350.9698"/>
<polygon fill="#ff0000" stroke="#ff0000" points="320.945,-352.4499 322.7113,-342.0034 314.8159,-349.0684 320.945,-352.4499"/>
</g>
<!-- #23 » let v2 = v1(&#39;Equals 1&#39;); -->
<g id="node17" class="node">
<title>#23 » let v2 = v1(&#39;Equals 1&#39;);</title>
<ellipse fill="none" stroke="#000000" cx="311.6442" cy="-237" rx="114.2798" ry="18"/>
<text text-anchor="middle" x="311.6442" y="-233.3" font-family="Times,serif" font-size="14.00" fill="#000000">#23 » let v2 = v1(&#39;Equals 1&#39;);</text>
</g>
<!-- #26 BlockStatement&#45;&gt;#23 » let v2 = v1(&#39;Equals 1&#39;); -->
<g id="edge24" class="edge">
<title>#26 BlockStatement&#45;&gt;#23 » let v2 = v1(&#39;Equals 1&#39;);</title>
<path fill="none" stroke="#0000ff" d="M257.6436,-393.9131C229.5876,-373.8661 192.0504,-339.1428 209.6442,-306 220.6408,-285.2846 240.9426,-269.6529 260.5556,-258.5517"/>
<polygon fill="#0000ff" stroke="#0000ff" points="262.3215,-261.5764 269.4826,-253.7681 259.0152,-255.4064 262.3215,-261.5764"/>
<text text-anchor="middle" x="213.1442" y="-320.3" font-family="Times,serif" font-size="14.00" fill="#0000ff">2</text>
</g>
<!-- #25 » v2; -->
<g id="node18" class="node">
<title>#25 » v2;</title>
<ellipse fill="none" stroke="#000000" cx="311.6442" cy="-164" rx="44.393" ry="18"/>
<text text-anchor="middle" x="311.6442" y="-160.3" font-family="Times,serif" font-size="14.00" fill="#000000">#25 » v2;</text>
</g>
<!-- #26 BlockStatement&#45;&gt;#25 » v2; -->
<g id="edge25" class="edge">
<title>#26 BlockStatement&#45;&gt;#25 » v2;</title>
<path fill="none" stroke="#0000ff" d="M244.2197,-395.1481C234.3009,-389.854 224.3357,-383.1697 216.6442,-375 168.3581,-323.7123 150.3266,-278.1078 188.6442,-219 204.5531,-194.4593 234.2609,-180.7706 260.4945,-173.1875"/>
<polygon fill="#0000ff" stroke="#0000ff" points="261.5771,-176.5213 270.3426,-170.5702 259.7791,-169.7562 261.5771,-176.5213"/>
<text text-anchor="middle" x="172.1442" y="-276.8" font-family="Times,serif" font-size="14.00" fill="#0000ff">3</text>
</g>
<!-- #32 » let v3 = console.log; -->
<g id="node19" class="node">
<title>#32 » let v3 = console.log;</title>
<ellipse fill="none" stroke="#000000" cx="645.6442" cy="-324" rx="106.6812" ry="18"/>
<text text-anchor="middle" x="645.6442" y="-320.3" font-family="Times,serif" font-size="14.00" fill="#000000">#32 » let v3 = console.log;</text>
</g>
<!-- #41 BlockStatement&#45;&gt;#32 » let v3 = console.log; -->
<g id="edge27" class="edge">
<title>#41 BlockStatement&#45;&gt;#32 » let v3 = console.log;</title>
<path fill="none" stroke="#0000ff" d="M542.9329,-393.8116C562.3995,-380.5804 589.52,-362.1469 611.0046,-347.5441"/>
<polygon fill="#0000ff" stroke="#0000ff" points="613.2262,-350.266 619.5292,-341.75 609.2913,-344.4767 613.2262,-350.266"/>
<text text-anchor="middle" x="592.1442" y="-363.8" font-family="Times,serif" font-size="14.00" fill="#0000ff">1</text>
</g>
<!-- #41 BlockStatement&#45;&gt;#32 » let v3 = console.log; -->
<g id="edge30" class="edge">
<title>#41 BlockStatement&#45;&gt;#32 » let v3 = console.log;</title>
<path fill="none" stroke="#ff0000" d="M562.0545,-395.5515C574.7958,-390.0716 588.2989,-383.1905 599.6442,-375 609.2665,-368.0534 618.36,-358.7991 625.8814,-350.0818"/>
<polygon fill="#ff0000" stroke="#ff0000" points="628.6357,-352.2433 632.3169,-342.3085 623.2437,-347.7793 628.6357,-352.2433"/>
</g>
<!-- #38 » let v4 = v3(&#39;Not Equal to 1&#39;); -->
<g id="node20" class="node">
<title>#38 » let v4 = v3(&#39;Not Equal to 1&#39;);</title>
<ellipse fill="none" stroke="#000000" cx="631.6442" cy="-237" rx="135.6761" ry="18"/>
<text text-anchor="middle" x="631.6442" y="-233.3" font-family="Times,serif" font-size="14.00" fill="#000000">#38 » let v4 = v3(&#39;Not Equal to 1&#39;);</text>
</g>
<!-- #41 BlockStatement&#45;&gt;#38 » let v4 = v3(&#39;Not Equal to 1&#39;); -->
<g id="edge28" class="edge">
<title>#41 BlockStatement&#45;&gt;#38 » let v4 = v3(&#39;Not Equal to 1&#39;);</title>
<path fill="none" stroke="#0000ff" d="M513.7407,-392.8807C509.9903,-370.7607 506.9484,-332.9728 522.6442,-306 534.8115,-285.0908 556.1165,-269.5422 576.6819,-258.553"/>
<polygon fill="#0000ff" stroke="#0000ff" points="578.3905,-261.611 585.7312,-253.9714 575.2285,-255.3659 578.3905,-261.611"/>
<text text-anchor="middle" x="526.1442" y="-320.3" font-family="Times,serif" font-size="14.00" fill="#0000ff">2</text>
</g>
<!-- #40 » v4; -->
<g id="node21" class="node">
<title>#40 » v4;</title>
<ellipse fill="none" stroke="#000000" cx="467.6442" cy="-164" rx="44.393" ry="18"/>
<text text-anchor="middle" x="467.6442" y="-160.3" font-family="Times,serif" font-size="14.00" fill="#000000">#40 » v4;</text>
</g>
<!-- #41 BlockStatement&#45;&gt;#40 » v4; -->
<g id="edge29" class="edge">
<title>#41 BlockStatement&#45;&gt;#40 » v4;</title>
<path fill="none" stroke="#0000ff" d="M511.6422,-392.7974C509.8934,-387.1327 508.0714,-380.8406 506.6442,-375 490.8155,-310.2226 478.0545,-232.8705 471.8102,-192.2005"/>
<polygon fill="#0000ff" stroke="#0000ff" points="475.2552,-191.5732 470.2948,-182.2114 468.3344,-192.6232 475.2552,-191.5732"/>
<text text-anchor="middle" x="491.1442" y="-276.8" font-family="Times,serif" font-size="14.00" fill="#0000ff">3</text>
</g>
<!-- #17 » let v1 = console.log;&#45;&gt;#23 » let v2 = v1(&#39;Equals 1&#39;); -->
<g id="edge31" class="edge">
<title>#17 » let v1 = console.log;&#45;&gt;#23 » let v2 = v1(&#39;Equals 1&#39;);</title>
<path fill="none" stroke="#ff0000" d="M328.293,-305.9735C325.4209,-294.0751 321.6013,-278.2508 318.345,-264.7606"/>
<polygon fill="#ff0000" stroke="#ff0000" points="321.7386,-263.9029 315.9898,-255.0034 314.934,-265.5455 321.7386,-263.9029"/>
</g>
<!-- #23 » let v2 = v1(&#39;Equals 1&#39;);&#45;&gt;#25 » v2; -->
<g id="edge32" class="edge">
<title>#23 » let v2 = v1(&#39;Equals 1&#39;);&#45;&gt;#25 » v2;</title>
<path fill="none" stroke="#ff0000" d="M311.6442,-218.9551C311.6442,-210.8828 311.6442,-201.1764 311.6442,-192.1817"/>
<polygon fill="#ff0000" stroke="#ff0000" points="315.1443,-192.0903 311.6442,-182.0904 308.1443,-192.0904 315.1443,-192.0903"/>
</g>
<!-- #55 _42_end_if -->
<g id="node22" class="node">
<title>#55 _42_end_if</title>
<ellipse fill="none" stroke="#ff0000" cx="381.6442" cy="-91" rx="66.0889" ry="18"/>
<text text-anchor="middle" x="381.6442" y="-87.3" font-family="Times,serif" font-size="14.00" fill="#ff0000">#55 _42_end_if</text>
</g>
<!-- #25 » v2;&#45;&gt;#55 _42_end_if -->
<g id="edge33" class="edge">
<title>#25 » v2;&#45;&gt;#55 _42_end_if</title>
<path fill="none" stroke="#ff0000" d="M327.8795,-147.0688C336.698,-137.8724 347.7729,-126.3229 357.576,-116.0997"/>
<polygon fill="#ff0000" stroke="#ff0000" points="360.3711,-118.2417 364.7661,-108.6015 355.3186,-113.3969 360.3711,-118.2417"/>
</g>
<!-- #32 » let v3 = console.log;&#45;&gt;#38 » let v4 = v3(&#39;Not Equal to 1&#39;); -->
<g id="edge34" class="edge">
<title>#32 » let v3 = console.log;&#45;&gt;#38 » let v4 = v3(&#39;Not Equal to 1&#39;);</title>
<path fill="none" stroke="#ff0000" d="M642.7434,-305.9735C640.8474,-294.1918 638.3321,-278.5607 636.1754,-265.1581"/>
<polygon fill="#ff0000" stroke="#ff0000" points="639.5857,-264.3203 634.5413,-255.0034 632.6746,-265.4324 639.5857,-264.3203"/>
</g>
<!-- #38 » let v4 = v3(&#39;Not Equal to 1&#39;);&#45;&gt;#40 » v4; -->
<g id="edge35" class="edge">
<title>#38 » let v4 = v3(&#39;Not Equal to 1&#39;);&#45;&gt;#40 » v4;</title>
<path fill="none" stroke="#ff0000" d="M592.7785,-219.7C566.7954,-208.1344 532.7348,-192.9732 506.7103,-181.3892"/>
<polygon fill="#ff0000" stroke="#ff0000" points="508.0749,-178.1656 497.5158,-177.2965 505.2283,-184.5606 508.0749,-178.1656"/>
</g>
<!-- #40 » v4;&#45;&gt;#55 _42_end_if -->
<g id="edge36" class="edge">
<title>#40 » v4;&#45;&gt;#55 _42_end_if</title>
<path fill="none" stroke="#ff0000" d="M448.1294,-147.4352C436.8279,-137.842 422.4042,-125.5987 409.8817,-114.969"/>
<polygon fill="#ff0000" stroke="#ff0000" points="411.8678,-112.064 401.979,-108.261 407.3378,-117.4007 411.8678,-112.064"/>
</g>
<!-- #57 _44_run_end -->
<g id="node23" class="node">
<title>#57 _44_run_end</title>
<ellipse fill="none" stroke="#ff0000" cx="381.6442" cy="-18" rx="72.5877" ry="18"/>
<text text-anchor="middle" x="381.6442" y="-14.3" font-family="Times,serif" font-size="14.00" fill="#ff0000">#57 _44_run_end</text>
</g>
<!-- #55 _42_end_if&#45;&gt;#57 _44_run_end -->
<g id="edge37" class="edge">
<title>#55 _42_end_if&#45;&gt;#57 _44_run_end</title>
<path fill="none" stroke="#ff0000" d="M381.6442,-72.9551C381.6442,-64.8828 381.6442,-55.1764 381.6442,-46.1817"/>
<polygon fill="#ff0000" stroke="#ff0000" points="385.1443,-46.0903 381.6442,-36.0904 378.1443,-46.0904 385.1443,-46.0903"/>
</g>
</g>
</svg>
