<?xml version="1.0" encoding="UTF-8" standalone="no"?>
<!DOCTYPE svg PUBLIC "-//W3C//DTD SVG 1.1//EN"
 "http://www.w3.org/Graphics/SVG/1.1/DTD/svg11.dtd">
<!-- Generated by graphviz version 2.40.1 (20161225.0304)
 -->
<!-- Title: G Pages: 1 -->
<svg width="671pt" height="1192pt"
 viewBox="0.00 0.00 670.83 1192.00" xmlns="http://www.w3.org/2000/svg" xmlns:xlink="http://www.w3.org/1999/xlink">
<g id="graph0" class="graph" transform="scale(1 1) rotate(0) translate(4 1188)">
<title>G</title>
<polygon fill="#ffffff" stroke="transparent" points="-4,4 -4,-1188 666.831,-1188 666.831,4 -4,4"/>
<!-- #38 CFG_F_START main -->
<g id="node1" class="node">
<title>#38 CFG_F_START main</title>
<ellipse fill="none" stroke="#ff0000" cx="465.2895" cy="-1166" rx="105.0817" ry="18"/>
<text text-anchor="middle" x="465.2895" y="-1162.3" font-family="Times,serif" font-size="14.00" fill="#ff0000">#38 CFG_F_START main</text>
</g>
<!-- #1 Function (search) -->
<g id="node2" class="node">
<title>#1 Function (search)</title>
<ellipse fill="none" stroke="#000000" cx="465.2895" cy="-1093" rx="83.6854" ry="18"/>
<text text-anchor="middle" x="465.2895" y="-1089.3" font-family="Times,serif" font-size="14.00" fill="#000000">#1 Function (search)</text>
</g>
<!-- #38 CFG_F_START main&#45;&gt;#1 Function (search) -->
<g id="edge1" class="edge">
<title>#38 CFG_F_START main&#45;&gt;#1 Function (search)</title>
<path fill="none" stroke="#ff0000" d="M465.2895,-1147.9551C465.2895,-1139.8828 465.2895,-1130.1764 465.2895,-1121.1817"/>
<polygon fill="#ff0000" stroke="#ff0000" points="468.7896,-1121.0903 465.2895,-1111.0904 461.7896,-1121.0904 468.7896,-1121.0903"/>
</g>
<!-- #43 PDG_OBJECT o1 -->
<g id="node5" class="node">
<title>#43 PDG_OBJECT o1</title>
<ellipse fill="none" stroke="#006400" cx="362.2895" cy="-1006" rx="91.784" ry="18"/>
<text text-anchor="middle" x="362.2895" y="-1002.3" font-family="Times,serif" font-size="14.00" fill="#006400">#43 PDG_OBJECT o1</text>
</g>
<!-- #1 Function (search)&#45;&gt;#43 PDG_OBJECT o1 -->
<g id="edge7" class="edge">
<title>#1 Function (search)&#45;&gt;#43 PDG_OBJECT o1</title>
<path fill="none" stroke="#006400" d="M444.4459,-1075.3943C429.0889,-1062.4228 408.0136,-1044.6213 391.054,-1030.2962"/>
<polygon fill="#006400" stroke="#006400" points="393.0001,-1027.3585 383.1021,-1023.5796 388.4831,-1032.7062 393.0001,-1027.3585"/>
<text text-anchor="middle" x="458.7895" y="-1045.8" font-family="Times,serif" font-size="14.00" fill="#006400">CREATE opts</text>
</g>
<!-- #39 CFG_F_END main -->
<g id="node8" class="node">
<title>#39 CFG_F_END main</title>
<ellipse fill="none" stroke="#ff0000" cx="567.2895" cy="-1006" rx="95.5831" ry="18"/>
<text text-anchor="middle" x="567.2895" y="-1002.3" font-family="Times,serif" font-size="14.00" fill="#ff0000">#39 CFG_F_END main</text>
</g>
<!-- #1 Function (search)&#45;&gt;#39 CFG_F_END main -->
<g id="edge6" class="edge">
<title>#1 Function (search)&#45;&gt;#39 CFG_F_END main</title>
<path fill="none" stroke="#ff0000" d="M485.9307,-1075.3943C501.1387,-1062.4228 522.0093,-1044.6213 538.8043,-1030.2962"/>
<polygon fill="#ff0000" stroke="#ff0000" points="541.3419,-1032.732 546.679,-1023.5796 536.7993,-1027.4061 541.3419,-1032.732"/>
</g>
<!-- #40 CFG_F_START 1_search -->
<g id="node3" class="node">
<title>#40 CFG_F_START 1_search</title>
<ellipse fill="none" stroke="#ff0000" cx="118.2895" cy="-1006" rx="118.0794" ry="18"/>
<text text-anchor="middle" x="118.2895" y="-1002.3" font-family="Times,serif" font-size="14.00" fill="#ff0000">#40 CFG_F_START 1_search</text>
</g>
<!-- #3» v1 = opts.filter -->
<g id="node4" class="node">
<title>#3» v1 = opts.filter</title>
<ellipse fill="none" stroke="#000000" cx="135.2895" cy="-919" rx="79.0865" ry="18"/>
<text text-anchor="middle" x="135.2895" y="-915.3" font-family="Times,serif" font-size="14.00" fill="#000000">#3» v1 = opts.filter</text>
</g>
<!-- #40 CFG_F_START 1_search&#45;&gt;#3» v1 = opts.filter -->
<g id="edge2" class="edge">
<title>#40 CFG_F_START 1_search&#45;&gt;#3» v1 = opts.filter</title>
<path fill="none" stroke="#ff0000" d="M121.8119,-987.9735C124.1141,-976.1918 127.1685,-960.5607 129.7874,-947.1581"/>
<polygon fill="#ff0000" stroke="#ff0000" points="133.2888,-947.489 131.7716,-937.0034 126.4187,-946.1465 133.2888,-947.489"/>
</g>
<!-- #7» v2 = !v1 -->
<g id="node9" class="node">
<title>#7» v2 = !v1</title>
<ellipse fill="none" stroke="#000000" cx="153.2895" cy="-832" rx="57.3905" ry="18"/>
<text text-anchor="middle" x="153.2895" y="-828.3" font-family="Times,serif" font-size="14.00" fill="#000000">#7» v2 = !v1</text>
</g>
<!-- #3» v1 = opts.filter&#45;&gt;#7» v2 = !v1 -->
<g id="edge8" class="edge">
<title>#3» v1 = opts.filter&#45;&gt;#7» v2 = !v1</title>
<path fill="none" stroke="#ff0000" d="M138.1482,-901.0024C139.7832,-891.2106 141.9673,-878.9043 144.2895,-868 144.8296,-865.4638 145.4224,-862.8352 146.0378,-860.206"/>
<polygon fill="#ff0000" stroke="#ff0000" points="149.4953,-860.8005 148.4611,-850.2563 142.6941,-859.1441 149.4953,-860.8005"/>
</g>
<!-- #3» v1 = opts.filter&#45;&gt;#7» v2 = !v1 -->
<g id="edge9" class="edge">
<title>#3» v1 = opts.filter&#45;&gt;#7» v2 = !v1</title>
<path fill="none" stroke="#006400" d="M139.0191,-900.9735C141.4567,-889.1918 144.6907,-873.5607 147.4637,-860.1581"/>
<polygon fill="#006400" stroke="#006400" points="150.9659,-860.5051 149.5647,-850.0034 144.1111,-859.0868 150.9659,-860.5051"/>
<text text-anchor="middle" x="160.7895" y="-871.8" font-family="Times,serif" font-size="14.00" fill="#006400">VAR</text>
</g>
<!-- #43 PDG_OBJECT o1&#45;&gt;#3» v1 = opts.filter -->
<g id="edge3" class="edge">
<title>#43 PDG_OBJECT o1&#45;&gt;#3» v1 = opts.filter</title>
<path fill="none" stroke="#006400" d="M290.9992,-994.6541C231.173,-984.9982 155.004,-972.3304 152.2895,-970 145.4692,-964.1447 141.3745,-955.4765 138.92,-946.9408"/>
<polygon fill="#006400" stroke="#006400" points="142.3297,-946.1501 136.727,-937.1578 135.4992,-947.6813 142.3297,-946.1501"/>
<text text-anchor="middle" x="194.7895" y="-958.8" font-family="Times,serif" font-size="14.00" fill="#006400">LOOKUP filter</text>
</g>
<!-- #10» v3 = opts.collection -->
<g id="node6" class="node">
<title>#10» v3 = opts.collection</title>
<ellipse fill="none" stroke="#000000" cx="249.2895" cy="-759" rx="101.2821" ry="18"/>
<text text-anchor="middle" x="249.2895" y="-755.3" font-family="Times,serif" font-size="14.00" fill="#000000">#10» v3 = opts.collection</text>
</g>
<!-- #43 PDG_OBJECT o1&#45;&gt;#10» v3 = opts.collection -->
<g id="edge4" class="edge">
<title>#43 PDG_OBJECT o1&#45;&gt;#10» v3 = opts.collection</title>
<path fill="none" stroke="#006400" d="M338.5111,-988.2532C311.8412,-966.7373 270.0039,-927.7499 252.2895,-883 240.0143,-851.9903 241.4936,-813.117 244.5777,-787.2443"/>
<polygon fill="#006400" stroke="#006400" points="248.0896,-787.3918 245.9623,-777.0128 241.1528,-786.453 248.0896,-787.3918"/>
<text text-anchor="middle" x="308.2895" y="-871.8" font-family="Times,serif" font-size="14.00" fill="#006400">LOOKUP collection</text>
</g>
<!-- #27» v5 = opts.filter -->
<g id="node7" class="node">
<title>#27» v5 = opts.filter</title>
<ellipse fill="none" stroke="#000000" cx="421.2895" cy="-265" rx="83.6854" ry="18"/>
<text text-anchor="middle" x="421.2895" y="-261.3" font-family="Times,serif" font-size="14.00" fill="#000000">#27» v5 = opts.filter</text>
</g>
<!-- #43 PDG_OBJECT o1&#45;&gt;#27» v5 = opts.filter -->
<g id="edge5" class="edge">
<title>#43 PDG_OBJECT o1&#45;&gt;#27» v5 = opts.filter</title>
<path fill="none" stroke="#006400" d="M411.908,-990.7112C443.7964,-977.4584 479.2895,-954.6909 479.2895,-919 479.2895,-919 479.2895,-919 479.2895,-338 479.2895,-319.0563 467.1681,-302.1768 454.008,-289.4331"/>
<polygon fill="#006400" stroke="#006400" points="455.9967,-286.514 446.2233,-282.4234 451.3126,-291.7159 455.9967,-286.514"/>
<text text-anchor="middle" x="521.7895" y="-624.8" font-family="Times,serif" font-size="14.00" fill="#006400">LOOKUP filter</text>
</g>
<!-- #14» v4 = v2 &amp;&amp; v3 -->
<g id="node10" class="node">
<title>#14» v4 = v2 &amp;&amp; v3</title>
<ellipse fill="none" stroke="#000000" cx="205.2895" cy="-672" rx="87.1846" ry="18"/>
<text text-anchor="middle" x="205.2895" y="-668.3" font-family="Times,serif" font-size="14.00" fill="#000000">#14» v4 = v2 &amp;&amp; v3</text>
</g>
<!-- #10» v3 = opts.collection&#45;&gt;#14» v4 = v2 &amp;&amp; v3 -->
<g id="edge10" class="edge">
<title>#10» v3 = opts.collection&#45;&gt;#14» v4 = v2 &amp;&amp; v3</title>
<path fill="none" stroke="#ff0000" d="M246.2689,-740.8355C244.1206,-730.7694 240.6454,-718.2545 235.2895,-708 233.5287,-704.6287 231.4105,-701.2882 229.1242,-698.0796"/>
<polygon fill="#ff0000" stroke="#ff0000" points="231.7129,-695.707 222.8096,-689.9639 226.1882,-700.0056 231.7129,-695.707"/>
</g>
<!-- #10» v3 = opts.collection&#45;&gt;#14» v4 = v2 &amp;&amp; v3 -->
<g id="edge11" class="edge">
<title>#10» v3 = opts.collection&#45;&gt;#14» v4 = v2 &amp;&amp; v3</title>
<path fill="none" stroke="#006400" d="M218.3517,-741.8044C211.8843,-736.6536 205.9295,-730.3731 202.2895,-723 198.8883,-716.1106 198.1325,-708.0442 198.621,-700.3861"/>
<polygon fill="#006400" stroke="#006400" points="202.1079,-700.7132 199.9271,-690.3452 195.1664,-699.8102 202.1079,-700.7132"/>
<text text-anchor="middle" x="216.7895" y="-711.8" font-family="Times,serif" font-size="14.00" fill="#006400">VAR</text>
</g>
<!-- #31» v6 = eval(v5) -->
<g id="node11" class="node">
<title>#31» v6 = eval(v5)</title>
<ellipse fill="none" stroke="#000000" cx="421.2895" cy="-178" rx="79.0865" ry="18"/>
<text text-anchor="middle" x="421.2895" y="-174.3" font-family="Times,serif" font-size="14.00" fill="#000000">#31» v6 = eval(v5)</text>
</g>
<!-- #27» v5 = opts.filter&#45;&gt;#31» v6 = eval(v5) -->
<g id="edge12" class="edge">
<title>#27» v5 = opts.filter&#45;&gt;#31» v6 = eval(v5)</title>
<path fill="none" stroke="#ff0000" d="M419.9727,-246.5906C419.4297,-236.8955 418.9896,-224.8062 419.2895,-214 419.3569,-211.5714 419.4499,-209.0517 419.559,-206.5244"/>
<polygon fill="#ff0000" stroke="#ff0000" points="423.0662,-206.4699 420.0755,-196.3059 416.0751,-206.1165 423.0662,-206.4699"/>
</g>
<!-- #27» v5 = opts.filter&#45;&gt;#31» v6 = eval(v5) -->
<g id="edge13" class="edge">
<title>#27» v5 = opts.filter&#45;&gt;#31» v6 = eval(v5)</title>
<path fill="none" stroke="#006400" d="M421.2895,-246.9735C421.2895,-235.1918 421.2895,-219.5607 421.2895,-206.1581"/>
<polygon fill="#006400" stroke="#006400" points="424.7896,-206.0033 421.2895,-196.0034 417.7896,-206.0034 424.7896,-206.0033"/>
<text text-anchor="middle" x="435.7895" y="-217.8" font-family="Times,serif" font-size="14.00" fill="#006400">VAR</text>
</g>
<!-- #7» v2 = !v1&#45;&gt;#10» v3 = opts.collection -->
<g id="edge14" class="edge">
<title>#7» v2 = !v1&#45;&gt;#10» v3 = opts.collection</title>
<path fill="none" stroke="#ff0000" d="M175.5551,-815.0688C188.1233,-805.5118 204.0335,-793.4134 217.855,-782.9033"/>
<polygon fill="#ff0000" stroke="#ff0000" points="220.3009,-785.4405 226.1424,-776.6015 216.0638,-779.8684 220.3009,-785.4405"/>
</g>
<!-- #7» v2 = !v1&#45;&gt;#14» v4 = v2 &amp;&amp; v3 -->
<g id="edge15" class="edge">
<title>#7» v2 = !v1&#45;&gt;#14» v4 = v2 &amp;&amp; v3</title>
<path fill="none" stroke="#006400" d="M135.2679,-814.7441C118.326,-796.3301 97.3571,-766.3767 110.2895,-741 120.6768,-720.6175 140.2141,-704.8453 158.8826,-693.5583"/>
<polygon fill="#006400" stroke="#006400" points="160.7131,-696.5433 167.6471,-688.5327 157.2311,-690.4708 160.7131,-696.5433"/>
<text text-anchor="middle" x="124.7895" y="-755.3" font-family="Times,serif" font-size="14.00" fill="#006400">VAR</text>
</g>
<!-- #18 IfStatement -->
<g id="node12" class="node">
<title>#18 IfStatement</title>
<ellipse fill="none" stroke="#000000" cx="263.2895" cy="-585" rx="67.6881" ry="18"/>
<text text-anchor="middle" x="263.2895" y="-581.3" font-family="Times,serif" font-size="14.00" fill="#000000">#18 IfStatement</text>
</g>
<!-- #14» v4 = v2 &amp;&amp; v3&#45;&gt;#18 IfStatement -->
<g id="edge16" class="edge">
<title>#14» v4 = v2 &amp;&amp; v3&#45;&gt;#18 IfStatement</title>
<path fill="none" stroke="#ff0000" d="M217.3071,-653.9735C225.4727,-641.7252 236.4118,-625.3165 245.5718,-611.5766"/>
<polygon fill="#ff0000" stroke="#ff0000" points="248.6524,-613.2653 251.2873,-603.0034 242.828,-609.3824 248.6524,-613.2653"/>
</g>
<!-- #19 Identifier (v4) -->
<g id="node13" class="node">
<title>#19 Identifier (v4)</title>
<ellipse fill="none" stroke="#000000" cx="250.2895" cy="-498" rx="76.0865" ry="18"/>
<text text-anchor="middle" x="250.2895" y="-494.3" font-family="Times,serif" font-size="14.00" fill="#000000">#19 Identifier (v4)</text>
</g>
<!-- #14» v4 = v2 &amp;&amp; v3&#45;&gt;#19 Identifier (v4) -->
<g id="edge17" class="edge">
<title>#14» v4 = v2 &amp;&amp; v3&#45;&gt;#19 Identifier (v4)</title>
<path fill="none" stroke="#006400" d="M187.1504,-654.3458C167.8584,-633.3258 142.0623,-597.2582 157.2895,-567 163.5402,-554.5791 190.1893,-535.4353 213.3673,-520.4604"/>
<polygon fill="#006400" stroke="#006400" points="215.4728,-523.2693 222.0308,-514.948 211.715,-517.3634 215.4728,-523.2693"/>
<text text-anchor="middle" x="171.7895" y="-581.3" font-family="Times,serif" font-size="14.00" fill="#006400">VAR</text>
</g>
<!-- #35» v6; -->
<g id="node14" class="node">
<title>#35» v6;</title>
<ellipse fill="none" stroke="#000000" cx="421.2895" cy="-91" rx="42.4939" ry="18"/>
<text text-anchor="middle" x="421.2895" y="-87.3" font-family="Times,serif" font-size="14.00" fill="#000000">#35» v6;</text>
</g>
<!-- #31» v6 = eval(v5)&#45;&gt;#35» v6; -->
<g id="edge18" class="edge">
<title>#31» v6 = eval(v5)&#45;&gt;#35» v6;</title>
<path fill="none" stroke="#ff0000" d="M419.9727,-159.5906C419.4297,-149.8955 418.9896,-137.8062 419.2895,-127 419.3569,-124.5714 419.4499,-122.0517 419.559,-119.5244"/>
<polygon fill="#ff0000" stroke="#ff0000" points="423.0662,-119.4699 420.0755,-109.3059 416.0751,-119.1165 423.0662,-119.4699"/>
</g>
<!-- #31» v6 = eval(v5)&#45;&gt;#35» v6; -->
<g id="edge19" class="edge">
<title>#31» v6 = eval(v5)&#45;&gt;#35» v6;</title>
<path fill="none" stroke="#006400" d="M421.2895,-159.9735C421.2895,-148.1918 421.2895,-132.5607 421.2895,-119.1581"/>
<polygon fill="#006400" stroke="#006400" points="424.7896,-119.0033 421.2895,-109.0034 417.7896,-119.0034 424.7896,-119.0033"/>
<text text-anchor="middle" x="435.7895" y="-130.8" font-family="Times,serif" font-size="14.00" fill="#006400">VAR</text>
</g>
<!-- #18 IfStatement&#45;&gt;#19 Identifier (v4) -->
<g id="edge20" class="edge">
<title>#18 IfStatement&#45;&gt;#19 Identifier (v4)</title>
<path fill="none" stroke="#ff0000" d="M260.5959,-566.9735C258.8354,-555.1918 256.4997,-539.5607 254.497,-526.1581"/>
<polygon fill="#ff0000" stroke="#ff0000" points="257.9192,-525.3763 252.9797,-516.0034 250.996,-526.4108 257.9192,-525.3763"/>
<text text-anchor="middle" x="266.7895" y="-537.8" font-family="Times,serif" font-size="14.00" fill="#ff0000">test</text>
</g>
<!-- #20» opts.filter = &#39;...&#39;; -->
<g id="node15" class="node">
<title>#20» opts.filter = &#39;...&#39;;</title>
<ellipse fill="none" stroke="#000000" cx="363.2895" cy="-411" rx="87.9851" ry="18"/>
<text text-anchor="middle" x="363.2895" y="-407.3" font-family="Times,serif" font-size="14.00" fill="#000000">#20» opts.filter = &#39;...&#39;;</text>
</g>
<!-- #19 Identifier (v4)&#45;&gt;#20» opts.filter = &#39;...&#39;; -->
<g id="edge21" class="edge">
<title>#19 Identifier (v4)&#45;&gt;#20» opts.filter = &#39;...&#39;;</title>
<path fill="none" stroke="#ff0000" d="M272.8852,-480.6033C289.9409,-467.472 313.5377,-449.3045 332.3467,-434.8232"/>
<polygon fill="#ff0000" stroke="#ff0000" points="334.5572,-437.5385 340.3457,-428.6647 330.2868,-431.992 334.5572,-437.5385"/>
<text text-anchor="middle" x="331.2895" y="-450.8" font-family="Times,serif" font-size="14.00" fill="#ff0000">TRUE</text>
</g>
<!-- #42 CFG_IF_END -->
<g id="node16" class="node">
<title>#42 CFG_IF_END</title>
<ellipse fill="none" stroke="#ff0000" cx="363.2895" cy="-338" rx="77.9862" ry="18"/>
<text text-anchor="middle" x="363.2895" y="-334.3" font-family="Times,serif" font-size="14.00" fill="#ff0000">#42 CFG_IF_END</text>
</g>
<!-- #19 Identifier (v4)&#45;&gt;#42 CFG_IF_END -->
<g id="edge22" class="edge">
<title>#19 Identifier (v4)&#45;&gt;#42 CFG_IF_END</title>
<path fill="none" stroke="#ff0000" d="M237.8634,-480.1325C224.1096,-457.9295 206.1308,-419.7137 224.2895,-393 238.8438,-371.5888 263.1623,-358.5129 287.425,-350.5273"/>
<polygon fill="#ff0000" stroke="#ff0000" points="288.5051,-353.8572 297.0612,-347.6087 286.4759,-347.1578 288.5051,-353.8572"/>
<text text-anchor="middle" x="245.2895" y="-407.3" font-family="Times,serif" font-size="14.00" fill="#ff0000">FALSE</text>
</g>
<!-- #41 CFG_F_END 1_search -->
<g id="node17" class="node">
<title>#41 CFG_F_END 1_search</title>
<ellipse fill="none" stroke="#ff0000" cx="421.2895" cy="-18" rx="108.5808" ry="18"/>
<text text-anchor="middle" x="421.2895" y="-14.3" font-family="Times,serif" font-size="14.00" fill="#ff0000">#41 CFG_F_END 1_search</text>
</g>
<!-- #35» v6;&#45;&gt;#41 CFG_F_END 1_search -->
<g id="edge23" class="edge">
<title>#35» v6;&#45;&gt;#41 CFG_F_END 1_search</title>
<path fill="none" stroke="#ff0000" d="M421.2895,-72.9551C421.2895,-64.8828 421.2895,-55.1764 421.2895,-46.1817"/>
<polygon fill="#ff0000" stroke="#ff0000" points="424.7896,-46.0903 421.2895,-36.0904 417.7896,-46.0904 424.7896,-46.0903"/>
</g>
<!-- #20» opts.filter = &#39;...&#39;;&#45;&gt;#43 PDG_OBJECT o1 -->
<g id="edge25" class="edge">
<title>#20» opts.filter = &#39;...&#39;;&#45;&gt;#43 PDG_OBJECT o1</title>
<path fill="none" stroke="#006400" d="M368.2843,-429.1736C372.6478,-446.6665 378.2895,-473.9366 378.2895,-498 378.2895,-919 378.2895,-919 378.2895,-919 378.2895,-938.9671 374.1625,-961.0931 370.1006,-978.0348"/>
<polygon fill="#006400" stroke="#006400" points="366.6776,-977.2948 367.6173,-987.8479 373.4637,-979.0121 366.6776,-977.2948"/>
<text text-anchor="middle" x="415.2895" y="-711.8" font-family="Times,serif" font-size="14.00" fill="#006400">WRITE filter</text>
</g>
<!-- #20» opts.filter = &#39;...&#39;;&#45;&gt;#42 CFG_IF_END -->
<g id="edge24" class="edge">
<title>#20» opts.filter = &#39;...&#39;;&#45;&gt;#42 CFG_IF_END</title>
<path fill="none" stroke="#ff0000" d="M363.2895,-392.9551C363.2895,-384.8828 363.2895,-375.1764 363.2895,-366.1817"/>
<polygon fill="#ff0000" stroke="#ff0000" points="366.7896,-366.0903 363.2895,-356.0904 359.7896,-366.0904 366.7896,-366.0903"/>
</g>
<!-- #42 CFG_IF_END&#45;&gt;#27» v5 = opts.filter -->
<g id="edge26" class="edge">
<title>#42 CFG_IF_END&#45;&gt;#27» v5 = opts.filter</title>
<path fill="none" stroke="#ff0000" d="M377.6266,-319.9551C384.58,-311.2033 393.0597,-300.5307 400.6901,-290.9268"/>
<polygon fill="#ff0000" stroke="#ff0000" points="403.6369,-292.8442 407.1173,-282.8374 398.1562,-288.4897 403.6369,-292.8442"/>
</g>
</g>
</svg>
