<?xml version="1.0" encoding="UTF-8" standalone="no"?>
<!DOCTYPE svg PUBLIC "-//W3C//DTD SVG 1.1//EN"
 "http://www.w3.org/Graphics/SVG/1.1/DTD/svg11.dtd">
<!-- Generated by graphviz version 2.40.1 (20161225.0304)
 -->
<!-- Title: G Pages: 1 -->
<svg width="1626pt" height="914pt"
 viewBox="0.00 0.00 1626.04 914.00" xmlns="http://www.w3.org/2000/svg" xmlns:xlink="http://www.w3.org/1999/xlink">
<g id="graph0" class="graph" transform="scale(1 1) rotate(0) translate(4 910)">
<title>G</title>
<polygon fill="#ffffff" stroke="transparent" points="-4,4 -4,-910 1622.0363,-910 1622.0363,4 -4,4"/>
<!-- #0 Program -->
<g id="node1" class="node">
<title>#0 Program</title>
<ellipse fill="none" stroke="#000000" cx="689.4937" cy="-888" rx="52.7911" ry="18"/>
<text text-anchor="middle" x="689.4937" y="-884.3" font-family="Times,serif" font-size="14.00" fill="#000000">#0 Program</text>
</g>
<!-- #1 Variable (v1) -->
<g id="node2" class="node">
<title>#1 Variable (v1)</title>
<ellipse fill="none" stroke="#000000" cx="951.4937" cy="-801" rx="69.5877" ry="18"/>
<text text-anchor="middle" x="951.4937" y="-797.3" font-family="Times,serif" font-size="14.00" fill="#000000">#1 Variable (v1)</text>
</g>
<!-- #0 Program&#45;&gt;#1 Variable (v1) -->
<g id="edge1" class="edge">
<title>#0 Program&#45;&gt;#1 Variable (v1)</title>
<path fill="none" stroke="#0000ff" d="M736.7041,-879.7956C767.8061,-873.7212 809.1598,-864.3598 844.4937,-852 867.8023,-843.8466 892.769,-832.1315 912.7182,-821.985"/>
<polygon fill="#0000ff" stroke="#0000ff" points="914.5106,-824.9987 921.7923,-817.3027 911.3006,-818.778 914.5106,-824.9987"/>
<text text-anchor="middle" x="884.9937" y="-840.8" font-family="Times,serif" font-size="14.00" fill="#0000ff">1</text>
</g>
<!-- #6 Variable (o) -->
<g id="node3" class="node">
<title>#6 Variable (o)</title>
<ellipse fill="none" stroke="#000000" cx="907.4937" cy="-714" rx="64.9885" ry="18"/>
<text text-anchor="middle" x="907.4937" y="-710.3" font-family="Times,serif" font-size="14.00" fill="#000000">#6 Variable (o)</text>
</g>
<!-- #0 Program&#45;&gt;#6 Variable (o) -->
<g id="edge2" class="edge">
<title>#0 Program&#45;&gt;#6 Variable (o)</title>
<path fill="none" stroke="#0000ff" d="M726.5697,-875.2009C741.2205,-869.2746 757.7935,-861.4372 771.4937,-852 818.3373,-819.7324 862.6365,-769.8802 887.3133,-739.7538"/>
<polygon fill="#0000ff" stroke="#0000ff" points="890.1707,-741.7866 893.739,-731.8107 884.7285,-737.384 890.1707,-741.7866"/>
<text text-anchor="middle" x="851.9937" y="-797.3" font-family="Times,serif" font-size="14.00" fill="#0000ff">2</text>
</g>
<!-- #8 Variable (v2) -->
<g id="node4" class="node">
<title>#8 Variable (v2)</title>
<ellipse fill="none" stroke="#000000" cx="787.4937" cy="-627" rx="69.5877" ry="18"/>
<text text-anchor="middle" x="787.4937" y="-623.3" font-family="Times,serif" font-size="14.00" fill="#000000">#8 Variable (v2)</text>
</g>
<!-- #0 Program&#45;&gt;#8 Variable (v2) -->
<g id="edge3" class="edge">
<title>#0 Program&#45;&gt;#8 Variable (v2)</title>
<path fill="none" stroke="#0000ff" d="M696.5204,-870.0732C698.765,-864.3088 701.2489,-857.8904 703.4937,-852 730.5167,-781.0904 761.5711,-697.2872 777.2676,-654.7606"/>
<polygon fill="#0000ff" stroke="#0000ff" points="780.649,-655.7069 780.8261,-645.1136 774.0816,-653.2843 780.649,-655.7069"/>
<text text-anchor="middle" x="745.9937" y="-753.8" font-family="Times,serif" font-size="14.00" fill="#0000ff">3</text>
</g>
<!-- #12 Variable (x) -->
<g id="node5" class="node">
<title>#12 Variable (x)</title>
<ellipse fill="none" stroke="#000000" cx="729.4937" cy="-540" rx="69.5877" ry="18"/>
<text text-anchor="middle" x="729.4937" y="-536.3" font-family="Times,serif" font-size="14.00" fill="#000000">#12 Variable (x)</text>
</g>
<!-- #0 Program&#45;&gt;#12 Variable (x) -->
<g id="edge4" class="edge">
<title>#0 Program&#45;&gt;#12 Variable (x)</title>
<path fill="none" stroke="#0000ff" d="M689.4937,-869.6694C689.4937,-852.0629 689.4937,-824.7135 689.4937,-801 689.4937,-801 689.4937,-801 689.4937,-627 689.4937,-605.2588 699.9329,-583.0257 710.1454,-566.4774"/>
<polygon fill="#0000ff" stroke="#0000ff" points="713.2021,-568.1974 715.7279,-557.908 707.3369,-564.3765 713.2021,-568.1974"/>
<text text-anchor="middle" x="692.9937" y="-710.3" font-family="Times,serif" font-size="14.00" fill="#0000ff">4</text>
</g>
<!-- #14 Variable (v3) -->
<g id="node6" class="node">
<title>#14 Variable (v3)</title>
<ellipse fill="none" stroke="#000000" cx="568.4937" cy="-453" rx="73.387" ry="18"/>
<text text-anchor="middle" x="568.4937" y="-449.3" font-family="Times,serif" font-size="14.00" fill="#000000">#14 Variable (v3)</text>
</g>
<!-- #0 Program&#45;&gt;#14 Variable (v3) -->
<g id="edge5" class="edge">
<title>#0 Program&#45;&gt;#14 Variable (v3)</title>
<path fill="none" stroke="#0000ff" d="M668.5009,-871.4113C650.8558,-855.455 628.4937,-829.5928 628.4937,-801 628.4937,-801 628.4937,-801 628.4937,-540 628.4937,-515.8755 612.6659,-493.5819 597.269,-477.6025"/>
<polygon fill="#0000ff" stroke="#0000ff" points="599.404,-474.7936 589.8164,-470.2849 594.4996,-479.7885 599.404,-474.7936"/>
<text text-anchor="middle" x="631.9937" y="-666.8" font-family="Times,serif" font-size="14.00" fill="#0000ff">5</text>
</g>
<!-- #18 Variable (y) -->
<g id="node7" class="node">
<title>#18 Variable (y)</title>
<ellipse fill="none" stroke="#000000" cx="524.4937" cy="-366" rx="69.5877" ry="18"/>
<text text-anchor="middle" x="524.4937" y="-362.3" font-family="Times,serif" font-size="14.00" fill="#000000">#18 Variable (y)</text>
</g>
<!-- #0 Program&#45;&gt;#18 Variable (y) -->
<g id="edge6" class="edge">
<title>#0 Program&#45;&gt;#18 Variable (y)</title>
<path fill="none" stroke="#0000ff" d="M642.9552,-879.5104C577.8577,-866.287 467.4937,-838.3595 467.4937,-801 467.4937,-801 467.4937,-801 467.4937,-453 467.4937,-429.2576 482.53,-406.9536 497.1571,-390.8737"/>
<polygon fill="#0000ff" stroke="#0000ff" points="499.8352,-393.138 504.2371,-383.5008 494.7862,-388.2895 499.8352,-393.138"/>
<text text-anchor="middle" x="470.9937" y="-623.3" font-family="Times,serif" font-size="14.00" fill="#0000ff">6</text>
</g>
<!-- #20 ExpressionStatement -->
<g id="node8" class="node">
<title>#20 ExpressionStatement</title>
<ellipse fill="none" stroke="#000000" cx="385.4937" cy="-279" rx="100.9827" ry="18"/>
<text text-anchor="middle" x="385.4937" y="-275.3" font-family="Times,serif" font-size="14.00" fill="#000000">#20 ExpressionStatement</text>
</g>
<!-- #0 Program&#45;&gt;#20 ExpressionStatement -->
<g id="edge7" class="edge">
<title>#0 Program&#45;&gt;#20 ExpressionStatement</title>
<path fill="none" stroke="#0000ff" d="M638.6921,-883.0597C556.5072,-873.6446 403.4937,-849.5907 403.4937,-801 403.4937,-801 403.4937,-801 403.4937,-366 403.4937,-345.9463 398.8508,-323.8217 394.2811,-306.9023"/>
<polygon fill="#0000ff" stroke="#0000ff" points="397.5956,-305.7621 391.4874,-297.1052 390.8639,-307.6817 397.5956,-305.7621"/>
<text text-anchor="middle" x="406.9937" y="-579.8" font-family="Times,serif" font-size="14.00" fill="#0000ff">7</text>
</g>
<!-- #1 Variable (v1)&#45;&gt;#6 Variable (o) -->
<g id="edge10" class="edge">
<title>#1 Variable (v1)&#45;&gt;#6 Variable (o)</title>
<path fill="none" stroke="#ff0000" d="M948.473,-782.8355C946.3247,-772.7694 942.8495,-760.2545 937.4937,-750 935.6399,-746.4507 933.39,-742.9354 930.9648,-739.5724"/>
<polygon fill="#ff0000" stroke="#ff0000" points="933.6291,-737.298 924.7012,-731.5933 928.1229,-741.6204 933.6291,-737.298"/>
</g>
<!-- #28 o1 -->
<g id="node10" class="node">
<title>#28 o1</title>
<ellipse fill="none" stroke="#006400" cx="1129.4937" cy="-192" rx="35.194" ry="18"/>
<text text-anchor="middle" x="1129.4937" y="-188.3" font-family="Times,serif" font-size="14.00" fill="#006400">#28 o1</text>
</g>
<!-- #1 Variable (v1)&#45;&gt;#28 o1 -->
<g id="edge11" class="edge">
<title>#1 Variable (v1)&#45;&gt;#28 o1</title>
<path fill="none" stroke="#006400" d="M1029.8291,-796.9318C1131.8992,-789.4455 1297.4937,-768.848 1297.4937,-714 1297.4937,-714 1297.4937,-714 1297.4937,-279 1297.4937,-223.3813 1223.9885,-203.2766 1174.2198,-196.0386"/>
<polygon fill="#006400" stroke="#006400" points="1029.5805,-793.4406 1019.8521,-797.6369 1030.074,-800.4232 1029.5805,-793.4406"/>
<polygon fill="#006400" stroke="#006400" points="1174.6778,-192.5688 1164.3034,-194.7184 1173.754,-199.5076 1174.6778,-192.5688"/>
<text text-anchor="middle" x="1332.4937" y="-492.8" font-family="Times,serif" font-size="14.00" fill="#006400">CREATE v1</text>
</g>
<!-- #2 ObjectExpression -->
<g id="node11" class="node">
<title>#2 ObjectExpression</title>
<ellipse fill="none" stroke="#000000" cx="1409.4937" cy="-714" rx="84.485" ry="18"/>
<text text-anchor="middle" x="1409.4937" y="-710.3" font-family="Times,serif" font-size="14.00" fill="#000000">#2 ObjectExpression</text>
</g>
<!-- #1 Variable (v1)&#45;&gt;#2 ObjectExpression -->
<g id="edge9" class="edge">
<title>#1 Variable (v1)&#45;&gt;#2 ObjectExpression</title>
<path fill="none" stroke="#0000ff" d="M1019.8498,-797.2542C1108.6578,-791.8546 1258.5987,-780.7704 1311.4937,-765 1333.4065,-758.4668 1356.1635,-746.958 1374.2261,-736.5247"/>
<polygon fill="#0000ff" stroke="#0000ff" points="1376.3955,-739.3076 1383.2145,-731.1988 1372.8271,-733.2854 1376.3955,-739.3076"/>
<text text-anchor="middle" x="1356.9937" y="-753.8" font-family="Times,serif" font-size="14.00" fill="#0000ff">init</text>
</g>
<!-- #6 Variable (o)&#45;&gt;#1 Variable (v1) -->
<g id="edge14" class="edge">
<title>#6 Variable (o)&#45;&gt;#1 Variable (v1)</title>
<path fill="none" stroke="#006400" d="M900.8252,-742.3861C900.3366,-750.0442 901.0925,-758.1106 904.4937,-765 906.8227,-769.7176 910.0994,-773.988 913.8517,-777.8013"/>
<polygon fill="#006400" stroke="#006400" points="904.3121,-742.7132 902.1313,-732.3452 897.3705,-741.8102 904.3121,-742.7132"/>
<polygon fill="#006400" stroke="#006400" points="911.7134,-780.582 921.5296,-784.5686 916.3419,-775.3307 911.7134,-780.582"/>
<text text-anchor="middle" x="918.9937" y="-753.8" font-family="Times,serif" font-size="14.00" fill="#006400">VAR</text>
</g>
<!-- #6 Variable (o)&#45;&gt;#8 Variable (v2) -->
<g id="edge13" class="edge">
<title>#6 Variable (o)&#45;&gt;#8 Variable (v2)</title>
<path fill="none" stroke="#ff0000" d="M884.0716,-697.019C865.6897,-683.6921 839.9009,-664.9953 819.5957,-650.274"/>
<polygon fill="#ff0000" stroke="#ff0000" points="821.4173,-647.2716 811.2668,-644.2355 817.3085,-652.9389 821.4173,-647.2716"/>
</g>
<!-- #7 Identifier (v1) -->
<g id="node12" class="node">
<title>#7 Identifier (v1)</title>
<ellipse fill="none" stroke="#000000" cx="946.4937" cy="-627" rx="71.4873" ry="18"/>
<text text-anchor="middle" x="946.4937" y="-623.3" font-family="Times,serif" font-size="14.00" fill="#000000">#7 Identifier (v1)</text>
</g>
<!-- #6 Variable (o)&#45;&gt;#7 Identifier (v1) -->
<g id="edge12" class="edge">
<title>#6 Variable (o)&#45;&gt;#7 Identifier (v1)</title>
<path fill="none" stroke="#0000ff" d="M915.5745,-695.9735C920.9605,-683.9585 928.1412,-667.9401 934.2268,-654.3646"/>
<polygon fill="#0000ff" stroke="#0000ff" points="937.5264,-655.5602 938.4232,-645.0034 931.1388,-652.6967 937.5264,-655.5602"/>
<text text-anchor="middle" x="938.9937" y="-666.8" font-family="Times,serif" font-size="14.00" fill="#0000ff">init</text>
</g>
<!-- #8 Variable (v2)&#45;&gt;#12 Variable (x) -->
<g id="edge16" class="edge">
<title>#8 Variable (v2)&#45;&gt;#12 Variable (x)</title>
<path fill="none" stroke="#ff0000" d="M772.7804,-609.0269C768.3519,-603.3714 763.585,-597.027 759.4937,-591 754.3515,-583.4252 749.1537,-574.9432 744.5621,-567.1037"/>
<polygon fill="#ff0000" stroke="#ff0000" points="747.5112,-565.2111 739.4903,-558.289 741.4439,-568.7022 747.5112,-565.2111"/>
</g>
<!-- #8 Variable (v2)&#45;&gt;#28 o1 -->
<g id="edge17" class="edge">
<title>#8 Variable (v2)&#45;&gt;#28 o1</title>
<path fill="none" stroke="#006400" d="M849.8403,-612.6964C855.4688,-611.4348 861.0836,-610.1871 866.4937,-609 939.0348,-593.0835 1193.4937,-614.2668 1193.4937,-540 1193.4937,-540 1193.4937,-540 1193.4937,-279 1193.4937,-252.9833 1174.6933,-229.6115 1157.4719,-213.6602"/>
<polygon fill="#006400" stroke="#006400" points="848.722,-609.3605 839.7354,-614.9723 850.2601,-616.1895 848.722,-609.3605"/>
<polygon fill="#006400" stroke="#006400" points="1159.5663,-210.8413 1149.7437,-206.8706 1154.9461,-216.1001 1159.5663,-210.8413"/>
<text text-anchor="middle" x="1237.9937" y="-405.8" font-family="Times,serif" font-size="14.00" fill="#006400">LOOKUP index</text>
</g>
<!-- #9 MemberExpression -->
<g id="node13" class="node">
<title>#9 MemberExpression</title>
<ellipse fill="none" stroke="#000000" cx="908.4937" cy="-540" rx="91.784" ry="18"/>
<text text-anchor="middle" x="908.4937" y="-536.3" font-family="Times,serif" font-size="14.00" fill="#000000">#9 MemberExpression</text>
</g>
<!-- #8 Variable (v2)&#45;&gt;#9 MemberExpression -->
<g id="edge15" class="edge">
<title>#8 Variable (v2)&#45;&gt;#9 MemberExpression</title>
<path fill="none" stroke="#0000ff" d="M811.1109,-610.019C829.5256,-596.7787 855.3123,-578.2379 875.7245,-563.5613"/>
<polygon fill="#0000ff" stroke="#0000ff" points="878.0305,-566.2141 884.1065,-557.5346 873.9441,-560.5307 878.0305,-566.2141"/>
<text text-anchor="middle" x="864.9937" y="-579.8" font-family="Times,serif" font-size="14.00" fill="#0000ff">init</text>
</g>
<!-- #12 Variable (x)&#45;&gt;#8 Variable (v2) -->
<g id="edge20" class="edge">
<title>#12 Variable (x)&#45;&gt;#8 Variable (v2)</title>
<path fill="none" stroke="#006400" d="M751.7822,-565.5384C754.4831,-568.9781 757.1219,-572.5214 759.4937,-576 764.6468,-583.558 769.6581,-592.151 773.9829,-600.1009"/>
<polygon fill="#006400" stroke="#006400" points="754.4923,-563.3235 745.4636,-557.7795 749.0644,-567.7437 754.4923,-563.3235"/>
<polygon fill="#006400" stroke="#006400" points="770.9411,-601.8358 778.7121,-609.0374 777.1282,-598.5616 770.9411,-601.8358"/>
<text text-anchor="middle" x="783.9937" y="-579.8" font-family="Times,serif" font-size="14.00" fill="#006400">VAR</text>
</g>
<!-- #12 Variable (x)&#45;&gt;#14 Variable (v3) -->
<g id="edge19" class="edge">
<title>#12 Variable (x)&#45;&gt;#14 Variable (v3)</title>
<path fill="none" stroke="#ff0000" d="M702.3731,-523.3719C685.3625,-513.1255 662.8686,-499.907 642.4937,-489 632.6572,-483.7344 621.9358,-478.3314 611.7847,-473.3647"/>
<polygon fill="#ff0000" stroke="#ff0000" points="613.1894,-470.1561 602.6643,-468.9425 610.1354,-476.4548 613.1894,-470.1561"/>
</g>
<!-- #13 Identifier (v2) -->
<g id="node14" class="node">
<title>#13 Identifier (v2)</title>
<ellipse fill="none" stroke="#000000" cx="735.4937" cy="-453" rx="76.0865" ry="18"/>
<text text-anchor="middle" x="735.4937" y="-449.3" font-family="Times,serif" font-size="14.00" fill="#000000">#13 Identifier (v2)</text>
</g>
<!-- #12 Variable (x)&#45;&gt;#13 Identifier (v2) -->
<g id="edge18" class="edge">
<title>#12 Variable (x)&#45;&gt;#13 Identifier (v2)</title>
<path fill="none" stroke="#0000ff" d="M730.7369,-521.9735C731.5494,-510.1918 732.6274,-494.5607 733.5517,-481.1581"/>
<polygon fill="#0000ff" stroke="#0000ff" points="737.0556,-481.2205 734.252,-471.0034 730.0722,-480.7388 737.0556,-481.2205"/>
<text text-anchor="middle" x="742.9937" y="-492.8" font-family="Times,serif" font-size="14.00" fill="#0000ff">init</text>
</g>
<!-- #14 Variable (v3)&#45;&gt;#18 Variable (y) -->
<g id="edge22" class="edge">
<title>#14 Variable (v3)&#45;&gt;#18 Variable (y)</title>
<path fill="none" stroke="#ff0000" d="M565.473,-434.8355C563.3247,-424.7694 559.8495,-412.2545 554.4937,-402 552.6399,-398.4507 550.39,-394.9354 547.9648,-391.5724"/>
<polygon fill="#ff0000" stroke="#ff0000" points="550.6291,-389.298 541.7012,-383.5933 545.1229,-393.6204 550.6291,-389.298"/>
</g>
<!-- #14 Variable (v3)&#45;&gt;#28 o1 -->
<g id="edge23" class="edge">
<title>#14 Variable (v3)&#45;&gt;#28 o1</title>
<path fill="none" stroke="#006400" d="M633.3915,-438.5926C703.8427,-422.7011 811.6296,-397.5854 851.4937,-384 941.706,-353.2561 972.3636,-355.6424 1047.4937,-297 1075.6619,-275.0135 1099.6958,-241.3236 1114.3267,-218.0634"/>
<polygon fill="#006400" stroke="#006400" points="632.2681,-435.2578 623.2805,-440.8678 633.8049,-442.087 632.2681,-435.2578"/>
<polygon fill="#006400" stroke="#006400" points="1117.3941,-219.7568 1119.6438,-209.4036 1111.4287,-216.0941 1117.3941,-219.7568"/>
<text text-anchor="middle" x="1078.4937" y="-318.8" font-family="Times,serif" font-size="14.00" fill="#006400">LOOKUP inexistant</text>
</g>
<!-- #15 MemberExpression -->
<g id="node15" class="node">
<title>#15 MemberExpression</title>
<ellipse fill="none" stroke="#000000" cx="746.4937" cy="-366" rx="96.3833" ry="18"/>
<text text-anchor="middle" x="746.4937" y="-362.3" font-family="Times,serif" font-size="14.00" fill="#000000">#15 MemberExpression</text>
</g>
<!-- #14 Variable (v3)&#45;&gt;#15 MemberExpression -->
<g id="edge21" class="edge">
<title>#14 Variable (v3)&#45;&gt;#15 MemberExpression</title>
<path fill="none" stroke="#0000ff" d="M601.5569,-436.8399C630.0756,-422.901 671.4807,-402.6637 702.7402,-387.3851"/>
<polygon fill="#0000ff" stroke="#0000ff" points="704.6429,-390.3509 712.0903,-382.8151 701.569,-384.0619 704.6429,-390.3509"/>
<text text-anchor="middle" x="677.9937" y="-405.8" font-family="Times,serif" font-size="14.00" fill="#0000ff">init</text>
</g>
<!-- #18 Variable (y)&#45;&gt;#14 Variable (v3) -->
<g id="edge26" class="edge">
<title>#18 Variable (y)&#45;&gt;#14 Variable (v3)</title>
<path fill="none" stroke="#006400" d="M517.8252,-394.3861C517.3366,-402.0442 518.0925,-410.1106 521.4937,-417 523.7089,-421.4872 526.7816,-425.5698 530.3054,-429.2393"/>
<polygon fill="#006400" stroke="#006400" points="521.3121,-394.7132 519.1313,-384.3452 514.3705,-393.8102 521.3121,-394.7132"/>
<polygon fill="#006400" stroke="#006400" points="528.2636,-432.1099 538.0419,-436.1886 532.9413,-426.9023 528.2636,-432.1099"/>
<text text-anchor="middle" x="535.9937" y="-405.8" font-family="Times,serif" font-size="14.00" fill="#006400">VAR</text>
</g>
<!-- #18 Variable (y)&#45;&gt;#20 ExpressionStatement -->
<g id="edge25" class="edge">
<title>#18 Variable (y)&#45;&gt;#20 ExpressionStatement</title>
<path fill="none" stroke="#ff0000" d="M497.6931,-349.2255C476.1474,-335.7401 445.6629,-316.6599 421.9063,-301.7906"/>
<polygon fill="#ff0000" stroke="#ff0000" points="423.4969,-298.6572 413.1634,-296.3185 419.783,-304.5908 423.4969,-298.6572"/>
</g>
<!-- #19 Identifier (v3) -->
<g id="node16" class="node">
<title>#19 Identifier (v3)</title>
<ellipse fill="none" stroke="#000000" cx="580.4937" cy="-279" rx="76.0865" ry="18"/>
<text text-anchor="middle" x="580.4937" y="-275.3" font-family="Times,serif" font-size="14.00" fill="#000000">#19 Identifier (v3)</text>
</g>
<!-- #18 Variable (y)&#45;&gt;#19 Identifier (v3) -->
<g id="edge24" class="edge">
<title>#18 Variable (y)&#45;&gt;#19 Identifier (v3)</title>
<path fill="none" stroke="#0000ff" d="M536.0969,-347.9735C543.9809,-335.7252 554.5428,-319.3165 563.3869,-305.5766"/>
<polygon fill="#0000ff" stroke="#0000ff" points="566.4358,-307.3064 568.9053,-297.0034 560.5497,-303.5176 566.4358,-307.3064"/>
<text text-anchor="middle" x="565.9937" y="-318.8" font-family="Times,serif" font-size="14.00" fill="#0000ff">init</text>
</g>
<!-- #20 ExpressionStatement&#45;&gt;#28 o1 -->
<g id="edge29" class="edge">
<title>#20 ExpressionStatement&#45;&gt;#28 o1</title>
<path fill="none" stroke="#006400" d="M468.1507,-264.983C477.3651,-263.5667 486.6225,-262.2077 495.4937,-261 715.8434,-231.0029 980.6969,-205.6021 1084.5816,-196.0504"/>
<polygon fill="#006400" stroke="#006400" points="467.53,-261.5374 458.1894,-266.5379 468.6096,-268.4537 467.53,-261.5374"/>
<polygon fill="#006400" stroke="#006400" points="1085.068,-199.5206 1094.707,-195.1228 1084.4294,-192.5498 1085.068,-199.5206"/>
<text text-anchor="middle" x="795.4937" y="-231.8" font-family="Times,serif" font-size="14.00" fill="#006400">WRITE index</text>
</g>
<!-- #21 AssignmentExpression -->
<g id="node17" class="node">
<title>#21 AssignmentExpression</title>
<ellipse fill="none" stroke="#000000" cx="241.4937" cy="-192" rx="107.781" ry="18"/>
<text text-anchor="middle" x="241.4937" y="-188.3" font-family="Times,serif" font-size="14.00" fill="#000000">#21 AssignmentExpression</text>
</g>
<!-- #20 ExpressionStatement&#45;&gt;#21 AssignmentExpression -->
<g id="edge27" class="edge">
<title>#20 ExpressionStatement&#45;&gt;#21 AssignmentExpression</title>
<path fill="none" stroke="#0000ff" d="M356.6992,-261.6033C334.331,-248.0892 303.1342,-229.2412 278.8451,-214.5665"/>
<polygon fill="#0000ff" stroke="#0000ff" points="280.6073,-211.542 270.2382,-209.3665 276.9875,-217.5334 280.6073,-211.542"/>
<text text-anchor="middle" x="351.4937" y="-231.8" font-family="Times,serif" font-size="14.00" fill="#0000ff">expression</text>
</g>
<!-- #27 _main_end -->
<g id="node18" class="node">
<title>#27 _main_end</title>
<ellipse fill="none" stroke="#ff0000" cx="433.4937" cy="-192" rx="65.7887" ry="18"/>
<text text-anchor="middle" x="433.4937" y="-188.3" font-family="Times,serif" font-size="14.00" fill="#ff0000">#27 _main_end</text>
</g>
<!-- #20 ExpressionStatement&#45;&gt;#27 _main_end -->
<g id="edge28" class="edge">
<title>#20 ExpressionStatement&#45;&gt;#27 _main_end</title>
<path fill="none" stroke="#ff0000" d="M395.4393,-260.9735C402.1327,-248.8418 411.0778,-232.6287 418.6137,-218.9698"/>
<polygon fill="#ff0000" stroke="#ff0000" points="421.7945,-220.4499 423.5608,-210.0034 415.6654,-217.0684 421.7945,-220.4499"/>
</g>
<!-- #26 _main_start -->
<g id="node9" class="node">
<title>#26 _main_start</title>
<ellipse fill="none" stroke="#ff0000" cx="951.4937" cy="-888" rx="68.4888" ry="18"/>
<text text-anchor="middle" x="951.4937" y="-884.3" font-family="Times,serif" font-size="14.00" fill="#ff0000">#26 _main_start</text>
</g>
<!-- #26 _main_start&#45;&gt;#1 Variable (v1) -->
<g id="edge8" class="edge">
<title>#26 _main_start&#45;&gt;#1 Variable (v1)</title>
<path fill="none" stroke="#ff0000" d="M951.4937,-869.9735C951.4937,-858.1918 951.4937,-842.5607 951.4937,-829.1581"/>
<polygon fill="#ff0000" stroke="#ff0000" points="954.9938,-829.0033 951.4937,-819.0034 947.9938,-829.0034 954.9938,-829.0033"/>
</g>
<!-- #3 Property -->
<g id="node19" class="node">
<title>#3 Property</title>
<ellipse fill="none" stroke="#000000" cx="1409.4937" cy="-627" rx="51.9908" ry="18"/>
<text text-anchor="middle" x="1409.4937" y="-623.3" font-family="Times,serif" font-size="14.00" fill="#000000">#3 Property</text>
</g>
<!-- #2 ObjectExpression&#45;&gt;#3 Property -->
<g id="edge30" class="edge">
<title>#2 ObjectExpression&#45;&gt;#3 Property</title>
<path fill="none" stroke="#0000ff" d="M1409.4937,-695.9735C1409.4937,-684.1918 1409.4937,-668.5607 1409.4937,-655.1581"/>
<polygon fill="#0000ff" stroke="#0000ff" points="1412.9938,-655.0033 1409.4937,-645.0034 1405.9938,-655.0034 1412.9938,-655.0033"/>
<text text-anchor="middle" x="1412.9937" y="-666.8" font-family="Times,serif" font-size="14.00" fill="#0000ff">1</text>
</g>
<!-- #10 Identifier (o) -->
<g id="node20" class="node">
<title>#10 Identifier (o)</title>
<ellipse fill="none" stroke="#000000" cx="901.4937" cy="-453" rx="71.4873" ry="18"/>
<text text-anchor="middle" x="901.4937" y="-449.3" font-family="Times,serif" font-size="14.00" fill="#000000">#10 Identifier (o)</text>
</g>
<!-- #9 MemberExpression&#45;&gt;#10 Identifier (o) -->
<g id="edge31" class="edge">
<title>#9 MemberExpression&#45;&gt;#10 Identifier (o)</title>
<path fill="none" stroke="#0000ff" d="M907.0433,-521.9735C906.0953,-510.1918 904.8376,-494.5607 903.7592,-481.1581"/>
<polygon fill="#0000ff" stroke="#0000ff" points="907.233,-480.6904 902.9422,-471.0034 900.2556,-481.2519 907.233,-480.6904"/>
<text text-anchor="middle" x="922.4937" y="-492.8" font-family="Times,serif" font-size="14.00" fill="#0000ff">object</text>
</g>
<!-- #11 Identifier (index) -->
<g id="node21" class="node">
<title>#11 Identifier (index)</title>
<ellipse fill="none" stroke="#000000" cx="1078.4937" cy="-453" rx="87.1846" ry="18"/>
<text text-anchor="middle" x="1078.4937" y="-449.3" font-family="Times,serif" font-size="14.00" fill="#000000">#11 Identifier (index)</text>
</g>
<!-- #9 MemberExpression&#45;&gt;#11 Identifier (index) -->
<g id="edge32" class="edge">
<title>#9 MemberExpression&#45;&gt;#11 Identifier (index)</title>
<path fill="none" stroke="#0000ff" d="M941.6749,-523.019C968.7913,-509.1418 1007.2852,-489.442 1036.5383,-474.4712"/>
<polygon fill="#0000ff" stroke="#0000ff" points="1038.3778,-477.4617 1045.6853,-469.7902 1035.1887,-471.2303 1038.3778,-477.4617"/>
<text text-anchor="middle" x="1026.4937" y="-492.8" font-family="Times,serif" font-size="14.00" fill="#0000ff">property</text>
</g>
<!-- #16 Identifier (o) -->
<g id="node22" class="node">
<title>#16 Identifier (o)</title>
<ellipse fill="none" stroke="#000000" cx="746.4937" cy="-279" rx="71.4873" ry="18"/>
<text text-anchor="middle" x="746.4937" y="-275.3" font-family="Times,serif" font-size="14.00" fill="#000000">#16 Identifier (o)</text>
</g>
<!-- #15 MemberExpression&#45;&gt;#16 Identifier (o) -->
<g id="edge33" class="edge">
<title>#15 MemberExpression&#45;&gt;#16 Identifier (o)</title>
<path fill="none" stroke="#0000ff" d="M746.4937,-347.9735C746.4937,-336.1918 746.4937,-320.5607 746.4937,-307.1581"/>
<polygon fill="#0000ff" stroke="#0000ff" points="749.9938,-307.0033 746.4937,-297.0034 742.9938,-307.0034 749.9938,-307.0033"/>
<text text-anchor="middle" x="763.4937" y="-318.8" font-family="Times,serif" font-size="14.00" fill="#0000ff">object</text>
</g>
<!-- #17 Identifier (inexistant) -->
<g id="node23" class="node">
<title>#17 Identifier (inexistant)</title>
<ellipse fill="none" stroke="#000000" cx="937.4937" cy="-279" rx="101.2821" ry="18"/>
<text text-anchor="middle" x="937.4937" y="-275.3" font-family="Times,serif" font-size="14.00" fill="#000000">#17 Identifier (inexistant)</text>
</g>
<!-- #15 MemberExpression&#45;&gt;#17 Identifier (inexistant) -->
<g id="edge34" class="edge">
<title>#15 MemberExpression&#45;&gt;#17 Identifier (inexistant)</title>
<path fill="none" stroke="#0000ff" d="M783.3204,-349.2255C814.0048,-335.2488 857.8833,-315.2623 890.9888,-300.1828"/>
<polygon fill="#0000ff" stroke="#0000ff" points="892.8051,-303.2016 900.4546,-295.8712 889.9034,-296.8313 892.8051,-303.2016"/>
<text text-anchor="middle" x="876.4937" y="-318.8" font-family="Times,serif" font-size="14.00" fill="#0000ff">property</text>
</g>
<!-- #22 MemberExpression -->
<g id="node24" class="node">
<title>#22 MemberExpression</title>
<ellipse fill="none" stroke="#000000" cx="159.4937" cy="-105" rx="96.3833" ry="18"/>
<text text-anchor="middle" x="159.4937" y="-101.3" font-family="Times,serif" font-size="14.00" fill="#000000">#22 MemberExpression</text>
</g>
<!-- #21 AssignmentExpression&#45;&gt;#22 MemberExpression -->
<g id="edge35" class="edge">
<title>#21 AssignmentExpression&#45;&gt;#22 MemberExpression</title>
<path fill="none" stroke="#0000ff" d="M224.5032,-173.9735C212.6289,-161.3752 196.6062,-144.3755 183.4391,-130.4055"/>
<polygon fill="#0000ff" stroke="#0000ff" points="185.8682,-127.8799 176.4623,-123.0034 180.7742,-132.6811 185.8682,-127.8799"/>
<text text-anchor="middle" x="214.9937" y="-144.8" font-family="Times,serif" font-size="14.00" fill="#0000ff">left</text>
</g>
<!-- #25 Literal -->
<g id="node25" class="node">
<title>#25 Literal</title>
<ellipse fill="none" stroke="#000000" cx="323.4937" cy="-105" rx="50.0912" ry="18"/>
<text text-anchor="middle" x="323.4937" y="-101.3" font-family="Times,serif" font-size="14.00" fill="#000000">#25 Literal</text>
</g>
<!-- #21 AssignmentExpression&#45;&gt;#25 Literal -->
<g id="edge36" class="edge">
<title>#21 AssignmentExpression&#45;&gt;#25 Literal</title>
<path fill="none" stroke="#0000ff" d="M258.4841,-173.9735C270.5959,-161.1233 287.0237,-143.6937 300.3347,-129.571"/>
<polygon fill="#0000ff" stroke="#0000ff" points="303.05,-131.7931 307.3619,-122.1154 297.956,-126.9919 303.05,-131.7931"/>
<text text-anchor="middle" x="300.4937" y="-144.8" font-family="Times,serif" font-size="14.00" fill="#0000ff">right</text>
</g>
<!-- #4 Identifier (index) -->
<g id="node26" class="node">
<title>#4 Identifier (index)</title>
<ellipse fill="none" stroke="#000000" cx="1535.4937" cy="-540" rx="82.5854" ry="18"/>
<text text-anchor="middle" x="1535.4937" y="-536.3" font-family="Times,serif" font-size="14.00" fill="#000000">#4 Identifier (index)</text>
</g>
<!-- #3 Property&#45;&gt;#4 Identifier (index) -->
<g id="edge37" class="edge">
<title>#3 Property&#45;&gt;#4 Identifier (index)</title>
<path fill="none" stroke="#0000ff" d="M1432.898,-610.8399C1452.3748,-597.3916 1480.3426,-578.0805 1502.1595,-563.0164"/>
<polygon fill="#0000ff" stroke="#0000ff" points="1504.248,-565.8277 1510.4883,-557.2656 1500.2707,-560.0674 1504.248,-565.8277"/>
<text text-anchor="middle" x="1489.4937" y="-579.8" font-family="Times,serif" font-size="14.00" fill="#0000ff">key</text>
</g>
<!-- #5 Literal -->
<g id="node27" class="node">
<title>#5 Literal</title>
<ellipse fill="none" stroke="#000000" cx="1389.4937" cy="-540" rx="45.4919" ry="18"/>
<text text-anchor="middle" x="1389.4937" y="-536.3" font-family="Times,serif" font-size="14.00" fill="#000000">#5 Literal</text>
</g>
<!-- #3 Property&#45;&gt;#5 Literal -->
<g id="edge38" class="edge">
<title>#3 Property&#45;&gt;#5 Literal</title>
<path fill="none" stroke="#0000ff" d="M1405.3496,-608.9735C1402.6144,-597.0751 1398.9766,-581.2508 1395.8754,-567.7606"/>
<polygon fill="#0000ff" stroke="#0000ff" points="1399.2839,-566.965 1393.6324,-558.0034 1392.4618,-568.5333 1399.2839,-566.965"/>
<text text-anchor="middle" x="1427.9937" y="-579.8" font-family="Times,serif" font-size="14.00" fill="#0000ff">computed</text>
</g>
<!-- #23 Identifier (o) -->
<g id="node28" class="node">
<title>#23 Identifier (o)</title>
<ellipse fill="none" stroke="#000000" cx="71.4937" cy="-18" rx="71.4873" ry="18"/>
<text text-anchor="middle" x="71.4937" y="-14.3" font-family="Times,serif" font-size="14.00" fill="#000000">#23 Identifier (o)</text>
</g>
<!-- #22 MemberExpression&#45;&gt;#23 Identifier (o) -->
<g id="edge39" class="edge">
<title>#22 MemberExpression&#45;&gt;#23 Identifier (o)</title>
<path fill="none" stroke="#0000ff" d="M141.26,-86.9735C128.3131,-74.1738 110.7708,-56.8308 96.5159,-42.7379"/>
<polygon fill="#0000ff" stroke="#0000ff" points="98.975,-40.2473 89.4029,-35.7057 94.0535,-45.2253 98.975,-40.2473"/>
<text text-anchor="middle" x="138.4937" y="-57.8" font-family="Times,serif" font-size="14.00" fill="#0000ff">object</text>
</g>
<!-- #24 Identifier (index) -->
<g id="node29" class="node">
<title>#24 Identifier (index)</title>
<ellipse fill="none" stroke="#000000" cx="248.4937" cy="-18" rx="87.1846" ry="18"/>
<text text-anchor="middle" x="248.4937" y="-14.3" font-family="Times,serif" font-size="14.00" fill="#000000">#24 Identifier (index)</text>
</g>
<!-- #22 MemberExpression&#45;&gt;#24 Identifier (index) -->
<g id="edge40" class="edge">
<title>#22 MemberExpression&#45;&gt;#24 Identifier (index)</title>
<path fill="none" stroke="#0000ff" d="M177.9345,-86.9735C191.0285,-74.1738 208.7702,-56.8308 223.1871,-42.7379"/>
<polygon fill="#0000ff" stroke="#0000ff" points="225.6766,-45.1988 230.3809,-35.7057 220.7833,-40.1931 225.6766,-45.1988"/>
<text text-anchor="middle" x="232.4937" y="-57.8" font-family="Times,serif" font-size="14.00" fill="#0000ff">property</text>
</g>
</g>
</svg>
