<?xml version="1.0" encoding="UTF-8" standalone="no"?>
<!DOCTYPE svg PUBLIC "-//W3C//DTD SVG 1.1//EN"
 "http://www.w3.org/Graphics/SVG/1.1/DTD/svg11.dtd">
<!-- Generated by graphviz version 2.40.1 (20161225.0304)
 -->
<!-- Title: G Pages: 1 -->
<svg width="719pt" height="1105pt"
 viewBox="0.00 0.00 719.39 1105.00" xmlns="http://www.w3.org/2000/svg" xmlns:xlink="http://www.w3.org/1999/xlink">
<g id="graph0" class="graph" transform="scale(1 1) rotate(0) translate(4 1101)">
<title>G</title>
<polygon fill="#ffffff" stroke="transparent" points="-4,4 -4,-1101 715.3875,-1101 715.3875,4 -4,4"/>
<!-- #0 Program -->
<g id="node1" class="node">
<title>#0 Program</title>
<ellipse fill="none" stroke="#000000" cx="412.7434" cy="-1079" rx="52.7911" ry="18"/>
<text text-anchor="middle" x="412.7434" y="-1075.3" font-family="Times,serif" font-size="14.00" fill="#000000">#0 Program</text>
</g>
<!-- #1 Function (xpto) -->
<g id="node2" class="node">
<title>#1 Function (xpto)</title>
<ellipse fill="none" stroke="#000000" cx="482.7434" cy="-992" rx="77.1866" ry="18"/>
<text text-anchor="middle" x="482.7434" y="-988.3" font-family="Times,serif" font-size="14.00" fill="#000000">#1 Function (xpto)</text>
</g>
<!-- #0 Program&#45;&gt;#1 Function (xpto) -->
<g id="edge1" class="edge">
<title>#0 Program&#45;&gt;#1 Function (xpto)</title>
<path fill="none" stroke="#0000ff" d="M426.9089,-1061.3943C436.9943,-1048.8595 450.7086,-1031.8147 462.0211,-1017.7548"/>
<polygon fill="#0000ff" stroke="#0000ff" points="464.8167,-1019.8635 468.3586,-1009.8782 459.3629,-1015.4753 464.8167,-1019.8635"/>
<text text-anchor="middle" x="456.2434" y="-1031.8" font-family="Times,serif" font-size="14.00" fill="#0000ff">1</text>
</g>
<!-- #2» x = 0 -->
<g id="node5" class="node">
<title>#2» x = 0</title>
<ellipse fill="none" stroke="#000000" cx="375.7434" cy="-905" rx="45.4919" ry="18"/>
<text text-anchor="middle" x="375.7434" y="-901.3" font-family="Times,serif" font-size="14.00" fill="#000000">#2» x = 0</text>
</g>
<!-- #1 Function (xpto)&#45;&gt;#2» x = 0 -->
<g id="edge7" class="edge">
<title>#1 Function (xpto)&#45;&gt;#2» x = 0</title>
<path fill="none" stroke="#0000ff" d="M461.3475,-974.6033C444.7409,-961.1008 421.5856,-942.2736 403.5442,-927.6044"/>
<polygon fill="#0000ff" stroke="#0000ff" points="405.6236,-924.7842 395.6566,-921.1911 401.2075,-930.2155 405.6236,-924.7842"/>
<text text-anchor="middle" x="439.2434" y="-944.8" font-family="Times,serif" font-size="14.00" fill="#0000ff">1</text>
</g>
<!-- #21» v2 = o.blah -->
<g id="node8" class="node">
<title>#21» v2 = o.blah</title>
<ellipse fill="none" stroke="#000000" cx="241.7434" cy="-251" rx="71.4873" ry="18"/>
<text text-anchor="middle" x="241.7434" y="-247.3" font-family="Times,serif" font-size="14.00" fill="#000000">#21» v2 = o.blah</text>
</g>
<!-- #1 Function (xpto)&#45;&gt;#21» v2 = o.blah -->
<g id="edge9" class="edge">
<title>#1 Function (xpto)&#45;&gt;#21» v2 = o.blah</title>
<path fill="none" stroke="#0000ff" d="M490.402,-974.0349C497.0927,-956.693 505.7434,-929.5282 505.7434,-905 505.7434,-905 505.7434,-905 505.7434,-324 505.7434,-285.1459 398.1718,-266.1502 320.3614,-257.4923"/>
<polygon fill="#0000ff" stroke="#0000ff" points="320.3898,-253.9753 310.0733,-256.3878 319.6425,-260.9353 320.3898,-253.9753"/>
<text text-anchor="middle" x="509.2434" y="-610.8" font-family="Times,serif" font-size="14.00" fill="#0000ff">3</text>
</g>
<!-- #4 IfStatement -->
<g id="node9" class="node">
<title>#4 IfStatement</title>
<ellipse fill="none" stroke="#000000" cx="375.7434" cy="-832" rx="63.8893" ry="18"/>
<text text-anchor="middle" x="375.7434" y="-828.3" font-family="Times,serif" font-size="14.00" fill="#000000">#4 IfStatement</text>
</g>
<!-- #1 Function (xpto)&#45;&gt;#4 IfStatement -->
<g id="edge8" class="edge">
<title>#1 Function (xpto)&#45;&gt;#4 IfStatement</title>
<path fill="none" stroke="#0000ff" d="M475.6645,-973.9652C466.7017,-952.2601 449.9651,-915.2156 429.7434,-887 422.0091,-876.2083 412.1585,-865.52 402.9939,-856.4761"/>
<polygon fill="#0000ff" stroke="#0000ff" points="405.1562,-853.7001 395.5184,-849.2997 400.3085,-858.7499 405.1562,-853.7001"/>
<text text-anchor="middle" x="455.2434" y="-901.3" font-family="Times,serif" font-size="14.00" fill="#0000ff">2</text>
</g>
<!-- #25» v3 = eval(v2) -->
<g id="node10" class="node">
<title>#25» v3 = eval(v2)</title>
<ellipse fill="none" stroke="#000000" cx="241.7434" cy="-178" rx="79.0865" ry="18"/>
<text text-anchor="middle" x="241.7434" y="-174.3" font-family="Times,serif" font-size="14.00" fill="#000000">#25» v3 = eval(v2)</text>
</g>
<!-- #1 Function (xpto)&#45;&gt;#25» v3 = eval(v2) -->
<g id="edge10" class="edge">
<title>#1 Function (xpto)&#45;&gt;#25» v3 = eval(v2)</title>
<path fill="none" stroke="#0000ff" d="M508.0446,-974.7896C527.7372,-959.1476 551.7434,-934.1096 551.7434,-905 551.7434,-905 551.7434,-905 551.7434,-251 551.7434,-205.1674 421.7345,-188.082 330.1038,-181.732"/>
<polygon fill="#0000ff" stroke="#0000ff" points="330.1785,-178.2294 319.9695,-181.0622 329.7168,-185.2142 330.1785,-178.2294"/>
<text text-anchor="middle" x="555.2434" y="-567.3" font-family="Times,serif" font-size="14.00" fill="#0000ff">4</text>
</g>
<!-- #29» v3; -->
<g id="node11" class="node">
<title>#29» v3;</title>
<ellipse fill="none" stroke="#000000" cx="207.7434" cy="-91" rx="42.4939" ry="18"/>
<text text-anchor="middle" x="207.7434" y="-87.3" font-family="Times,serif" font-size="14.00" fill="#000000">#29» v3;</text>
</g>
<!-- #1 Function (xpto)&#45;&gt;#29» v3; -->
<g id="edge11" class="edge">
<title>#1 Function (xpto)&#45;&gt;#29» v3;</title>
<path fill="none" stroke="#0000ff" d="M414.2706,-983.3935C304.1063,-968.6058 99.7434,-936.8774 99.7434,-905 99.7434,-905 99.7434,-905 99.7434,-178 99.7434,-143.0217 134.5242,-119.7252 164.6103,-106.1164"/>
<polygon fill="#0000ff" stroke="#0000ff" points="166.3421,-109.1827 174.1635,-102.0359 163.5924,-102.7453 166.3421,-109.1827"/>
<text text-anchor="middle" x="103.2434" y="-523.8" font-family="Times,serif" font-size="14.00" fill="#0000ff">5</text>
</g>
<!-- #32 _main_end -->
<g id="node12" class="node">
<title>#32 _main_end</title>
<ellipse fill="none" stroke="#ff0000" cx="645.7434" cy="-905" rx="65.7887" ry="18"/>
<text text-anchor="middle" x="645.7434" y="-901.3" font-family="Times,serif" font-size="14.00" fill="#ff0000">#32 _main_end</text>
</g>
<!-- #1 Function (xpto)&#45;&gt;#32 _main_end -->
<g id="edge12" class="edge">
<title>#1 Function (xpto)&#45;&gt;#32 _main_end</title>
<path fill="none" stroke="#ff0000" d="M522.1915,-976.3979C536.1739,-970.475 551.8729,-963.3697 565.7434,-956 581.7638,-947.4879 598.8074,-936.86 613.0283,-927.5124"/>
<polygon fill="#ff0000" stroke="#ff0000" points="615.0959,-930.3408 621.4836,-921.8881 611.2189,-924.5124 615.0959,-930.3408"/>
</g>
<!-- #31 _main_start -->
<g id="node3" class="node">
<title>#31 _main_start</title>
<ellipse fill="none" stroke="#ff0000" cx="551.7434" cy="-1079" rx="68.4888" ry="18"/>
<text text-anchor="middle" x="551.7434" y="-1075.3" font-family="Times,serif" font-size="14.00" fill="#ff0000">#31 _main_start</text>
</g>
<!-- #31 _main_start&#45;&gt;#1 Function (xpto) -->
<g id="edge2" class="edge">
<title>#31 _main_start&#45;&gt;#1 Function (xpto)</title>
<path fill="none" stroke="#ff0000" d="M537.4465,-1060.9735C527.5744,-1048.5261 514.2946,-1031.782 503.2917,-1017.9087"/>
<polygon fill="#ff0000" stroke="#ff0000" points="505.742,-1015.3658 496.7858,-1009.7057 500.2575,-1019.7156 505.742,-1015.3658"/>
</g>
<!-- #33 _1_xpto_start -->
<g id="node4" class="node">
<title>#33 _1_xpto_start</title>
<ellipse fill="none" stroke="#ff0000" cx="74.7434" cy="-992" rx="74.9875" ry="18"/>
<text text-anchor="middle" x="74.7434" y="-988.3" font-family="Times,serif" font-size="14.00" fill="#ff0000">#33 _1_xpto_start</text>
</g>
<!-- #33 _1_xpto_start&#45;&gt;#2» x = 0 -->
<g id="edge3" class="edge">
<title>#33 _1_xpto_start&#45;&gt;#2» x = 0</title>
<path fill="none" stroke="#ff0000" d="M122.7705,-978.1184C179.4512,-961.7356 273.0612,-934.6789 329.1226,-918.4751"/>
<polygon fill="#ff0000" stroke="#ff0000" points="330.1635,-921.8176 338.7984,-915.6785 328.2197,-915.0929 330.1635,-921.8176"/>
</g>
<!-- #2» x = 0&#45;&gt;#4 IfStatement -->
<g id="edge13" class="edge">
<title>#2» x = 0&#45;&gt;#4 IfStatement</title>
<path fill="none" stroke="#ff0000" d="M375.7434,-886.9551C375.7434,-878.8828 375.7434,-869.1764 375.7434,-860.1817"/>
<polygon fill="#ff0000" stroke="#ff0000" points="379.2435,-860.0903 375.7434,-850.0904 372.2435,-860.0904 379.2435,-860.0903"/>
</g>
<!-- #36 o -->
<g id="node6" class="node">
<title>#36 o</title>
<ellipse fill="none" stroke="#006400" cx="175.7434" cy="-658" rx="30.5947" ry="18"/>
<text text-anchor="middle" x="175.7434" y="-654.3" font-family="Times,serif" font-size="14.00" fill="#006400">#36 o</text>
</g>
<!-- #6» v0 = o.bleh -->
<g id="node7" class="node">
<title>#6» v0 = o.bleh</title>
<ellipse fill="none" stroke="#000000" cx="271.7434" cy="-571" rx="67.6881" ry="18"/>
<text text-anchor="middle" x="271.7434" y="-567.3" font-family="Times,serif" font-size="14.00" fill="#000000">#6» v0 = o.bleh</text>
</g>
<!-- #36 o&#45;&gt;#6» v0 = o.bleh -->
<g id="edge4" class="edge">
<title>#36 o&#45;&gt;#6» v0 = o.bleh</title>
<path fill="none" stroke="#006400" d="M192.4653,-642.8458C206.869,-629.7924 227.9282,-610.7075 244.7221,-595.4881"/>
<polygon fill="#006400" stroke="#006400" points="247.5163,-597.6793 252.5758,-588.3706 242.8156,-592.4923 247.5163,-597.6793"/>
<text text-anchor="middle" x="241.7434" y="-610.8" font-family="Times,serif" font-size="14.00" fill="#006400">bleh</text>
</g>
<!-- #36 o&#45;&gt;#21» v2 = o.blah -->
<g id="edge5" class="edge">
<title>#36 o&#45;&gt;#21» v2 = o.blah</title>
<path fill="none" stroke="#006400" d="M163.5108,-641.2812C152.4022,-624.4205 137.7434,-597.2065 137.7434,-571 137.7434,-571 137.7434,-571 137.7434,-324 137.7434,-297.5932 160.4835,-279.9205 184.6969,-268.5877"/>
<polygon fill="#006400" stroke="#006400" points="186.2238,-271.7405 194.0047,-264.5497 183.4378,-265.3188 186.2238,-271.7405"/>
<text text-anchor="middle" x="149.7434" y="-436.8" font-family="Times,serif" font-size="14.00" fill="#006400">blah</text>
</g>
<!-- #36 o&#45;&gt;#21» v2 = o.blah -->
<g id="edge6" class="edge">
<title>#36 o&#45;&gt;#21» v2 = o.blah</title>
<path fill="none" stroke="#006400" d="M178.6645,-639.9866C189.0767,-575.7779 224.4298,-357.7667 237.1425,-279.3719"/>
<polygon fill="#006400" stroke="#006400" points="240.6352,-279.6985 238.7811,-269.2672 233.7255,-278.578 240.6352,-279.6985"/>
<text text-anchor="middle" x="224.7434" y="-436.8" font-family="Times,serif" font-size="14.00" fill="#006400">blah</text>
</g>
<!-- #10» v1 = &#39;x=&#39; + v0 -->
<g id="node13" class="node">
<title>#10» v1 = &#39;x=&#39; + v0</title>
<ellipse fill="none" stroke="#000000" cx="301.7434" cy="-484" rx="81.4863" ry="18"/>
<text text-anchor="middle" x="301.7434" y="-480.3" font-family="Times,serif" font-size="14.00" fill="#000000">#10» v1 = &#39;x=&#39; + v0</text>
</g>
<!-- #6» v0 = o.bleh&#45;&gt;#10» v1 = &#39;x=&#39; + v0 -->
<g id="edge14" class="edge">
<title>#6» v0 = o.bleh&#45;&gt;#10» v1 = &#39;x=&#39; + v0</title>
<path fill="none" stroke="#ff0000" d="M274.962,-552.764C276.9683,-542.9023 279.9037,-530.6053 283.7434,-520 284.8034,-517.0721 286.0398,-514.0727 287.3591,-511.1154"/>
<polygon fill="#ff0000" stroke="#ff0000" points="290.5847,-512.4828 291.7411,-501.9513 284.2696,-509.4631 290.5847,-512.4828"/>
</g>
<!-- #6» v0 = o.bleh&#45;&gt;#10» v1 = &#39;x=&#39; + v0 -->
<g id="edge15" class="edge">
<title>#6» v0 = o.bleh&#45;&gt;#10» v1 = &#39;x=&#39; + v0</title>
<path fill="none" stroke="#006400" d="M277.9594,-552.9735C282.0623,-541.0751 287.519,-525.2508 292.1707,-511.7606"/>
<polygon fill="#006400" stroke="#006400" points="295.5841,-512.5981 295.5353,-502.0034 288.9665,-510.3161 295.5841,-512.5981"/>
<text text-anchor="middle" x="295.7434" y="-523.8" font-family="Times,serif" font-size="14.00" fill="#006400">v0</text>
</g>
<!-- #21» v2 = o.blah&#45;&gt;#25» v3 = eval(v2) -->
<g id="edge16" class="edge">
<title>#21» v2 = o.blah&#45;&gt;#25» v3 = eval(v2)</title>
<path fill="none" stroke="#ff0000" d="M241.7434,-232.9551C241.7434,-224.8828 241.7434,-215.1764 241.7434,-206.1817"/>
<polygon fill="#ff0000" stroke="#ff0000" points="245.2435,-206.0903 241.7434,-196.0904 238.2435,-206.0904 245.2435,-206.0903"/>
</g>
<!-- #5 Identifier (x) -->
<g id="node14" class="node">
<title>#5 Identifier (x)</title>
<ellipse fill="none" stroke="#000000" cx="409.7434" cy="-745" rx="67.6881" ry="18"/>
<text text-anchor="middle" x="409.7434" y="-741.3" font-family="Times,serif" font-size="14.00" fill="#000000">#5 Identifier (x)</text>
</g>
<!-- #4 IfStatement&#45;&gt;#5 Identifier (x) -->
<g id="edge17" class="edge">
<title>#4 IfStatement&#45;&gt;#5 Identifier (x)</title>
<path fill="none" stroke="#0000ff" d="M370.2758,-813.8551C368.2216,-803.7952 367.3217,-791.2799 371.7434,-781 373.5287,-776.8494 376.0538,-772.9531 378.9641,-769.3689"/>
<polygon fill="#0000ff" stroke="#0000ff" points="381.5401,-771.7386 385.8128,-762.0435 376.4267,-766.958 381.5401,-771.7386"/>
<text text-anchor="middle" x="381.2434" y="-784.8" font-family="Times,serif" font-size="14.00" fill="#0000ff">test</text>
</g>
<!-- #4 IfStatement&#45;&gt;#5 Identifier (x) -->
<g id="edge19" class="edge">
<title>#4 IfStatement&#45;&gt;#5 Identifier (x)</title>
<path fill="none" stroke="#ff0000" d="M383.3558,-814.1096C385.7653,-808.3471 388.408,-801.9206 390.7434,-796 393.7326,-788.4217 396.8634,-780.1632 399.7015,-772.5422"/>
<polygon fill="#ff0000" stroke="#ff0000" points="403.0437,-773.595 403.2272,-763.0017 396.4777,-771.1685 403.0437,-773.595"/>
<text text-anchor="middle" x="406.2434" y="-784.8" font-family="Times,serif" font-size="14.00" fill="#ff0000">test</text>
</g>
<!-- #20 BlockStatement -->
<g id="node15" class="node">
<title>#20 BlockStatement</title>
<ellipse fill="none" stroke="#000000" cx="322.7434" cy="-658" rx="83.3857" ry="18"/>
<text text-anchor="middle" x="322.7434" y="-654.3" font-family="Times,serif" font-size="14.00" fill="#000000">#20 BlockStatement</text>
</g>
<!-- #4 IfStatement&#45;&gt;#20 BlockStatement -->
<g id="edge18" class="edge">
<title>#4 IfStatement&#45;&gt;#20 BlockStatement</title>
<path fill="none" stroke="#0000ff" d="M351.6817,-815.1447C336.1973,-802.7351 317.4045,-784.3526 308.7434,-763 298.6582,-738.1368 304.6152,-707.5101 311.6049,-685.7644"/>
<polygon fill="#0000ff" stroke="#0000ff" points="314.9663,-686.754 314.9439,-676.1591 308.3544,-684.4555 314.9663,-686.754"/>
<text text-anchor="middle" x="320.7434" y="-741.3" font-family="Times,serif" font-size="14.00" fill="#0000ff">then</text>
</g>
<!-- #25» v3 = eval(v2)&#45;&gt;#29» v3; -->
<g id="edge20" class="edge">
<title>#25» v3 = eval(v2)&#45;&gt;#29» v3;</title>
<path fill="none" stroke="#ff0000" d="M244.932,-159.9225C245.9294,-149.8836 245.865,-137.367 241.7434,-127 240.0174,-122.6587 237.492,-118.5383 234.5845,-114.7406"/>
<polygon fill="#ff0000" stroke="#ff0000" points="236.9993,-112.1862 227.7708,-106.9819 231.7396,-116.8053 236.9993,-112.1862"/>
</g>
<!-- #25» v3 = eval(v2)&#45;&gt;#29» v3; -->
<g id="edge21" class="edge">
<title>#25» v3 = eval(v2)&#45;&gt;#29» v3;</title>
<path fill="none" stroke="#006400" d="M208.4916,-161.4585C201.3708,-156.2605 194.7821,-149.7944 190.7434,-142 186.836,-134.4591 187.8546,-125.835 190.7909,-117.8507"/>
<polygon fill="#006400" stroke="#006400" points="194.0755,-119.0878 195.1213,-108.5447 187.729,-116.1345 194.0755,-119.0878"/>
<text text-anchor="middle" x="197.7434" y="-130.8" font-family="Times,serif" font-size="14.00" fill="#006400">v3</text>
</g>
<!-- #25» v3 = eval(v2)&#45;&gt;#29» v3; -->
<g id="edge22" class="edge">
<title>#25» v3 = eval(v2)&#45;&gt;#29» v3;</title>
<path fill="none" stroke="#006400" d="M232.0105,-159.9456C229.1525,-154.2869 226.1507,-147.9609 223.7434,-142 220.781,-134.6647 218.0173,-126.5592 215.6484,-119.0099"/>
<polygon fill="#006400" stroke="#006400" points="218.9229,-117.746 212.6814,-109.1848 212.2218,-119.7697 218.9229,-117.746"/>
<text text-anchor="middle" x="230.7434" y="-130.8" font-family="Times,serif" font-size="14.00" fill="#006400">v3</text>
</g>
<!-- #34 _1_xpto_end -->
<g id="node16" class="node">
<title>#34 _1_xpto_end</title>
<ellipse fill="none" stroke="#ff0000" cx="207.7434" cy="-18" rx="72.2875" ry="18"/>
<text text-anchor="middle" x="207.7434" y="-14.3" font-family="Times,serif" font-size="14.00" fill="#ff0000">#34 _1_xpto_end</text>
</g>
<!-- #29» v3;&#45;&gt;#34 _1_xpto_end -->
<g id="edge23" class="edge">
<title>#29» v3;&#45;&gt;#34 _1_xpto_end</title>
<path fill="none" stroke="#ff0000" d="M207.7434,-72.9551C207.7434,-64.8828 207.7434,-55.1764 207.7434,-46.1817"/>
<polygon fill="#ff0000" stroke="#ff0000" points="211.2435,-46.0903 207.7434,-36.0904 204.2435,-46.0904 211.2435,-46.0903"/>
</g>
<!-- #14» o.blah = v1; -->
<g id="node17" class="node">
<title>#14» o.blah = v1;</title>
<ellipse fill="none" stroke="#000000" cx="324.7434" cy="-397" rx="74.187" ry="18"/>
<text text-anchor="middle" x="324.7434" y="-393.3" font-family="Times,serif" font-size="14.00" fill="#000000">#14» o.blah = v1;</text>
</g>
<!-- #10» v1 = &#39;x=&#39; + v0&#45;&gt;#14» o.blah = v1; -->
<g id="edge24" class="edge">
<title>#10» v1 = &#39;x=&#39; + v0&#45;&gt;#14» o.blah = v1;</title>
<path fill="none" stroke="#ff0000" d="M306.509,-465.9735C309.6545,-454.0751 313.838,-438.2508 317.4043,-424.7606"/>
<polygon fill="#ff0000" stroke="#ff0000" points="320.8117,-425.5658 319.9839,-415.0034 314.0442,-423.7766 320.8117,-425.5658"/>
</g>
<!-- #5 Identifier (x)&#45;&gt;#20 BlockStatement -->
<g id="edge25" class="edge">
<title>#5 Identifier (x)&#45;&gt;#20 BlockStatement</title>
<path fill="none" stroke="#ff0000" d="M392.1376,-727.3943C379.3686,-714.6252 361.9193,-697.1759 347.713,-682.9696"/>
<polygon fill="#ff0000" stroke="#ff0000" points="350.1675,-680.4744 340.6215,-675.8782 345.2178,-685.4242 350.1675,-680.4744"/>
<text text-anchor="middle" x="389.7434" y="-697.8" font-family="Times,serif" font-size="14.00" fill="#ff0000">TRUE</text>
</g>
<!-- #35 _4_end_if -->
<g id="node18" class="node">
<title>#35 _4_end_if</title>
<ellipse fill="none" stroke="#ff0000" cx="324.7434" cy="-324" rx="61.99" ry="18"/>
<text text-anchor="middle" x="324.7434" y="-320.3" font-family="Times,serif" font-size="14.00" fill="#ff0000">#35 _4_end_if</text>
</g>
<!-- #5 Identifier (x)&#45;&gt;#35 _4_end_if -->
<g id="edge26" class="edge">
<title>#5 Identifier (x)&#45;&gt;#35 _4_end_if</title>
<path fill="none" stroke="#ff0000" d="M423.165,-727.04C434.4463,-710.1378 448.7434,-683.6561 448.7434,-658 448.7434,-658 448.7434,-658 448.7434,-397 448.7434,-365.0786 417.8492,-346.8363 386.9023,-336.5706"/>
<polygon fill="#ff0000" stroke="#ff0000" points="387.9173,-333.221 377.3305,-333.6344 385.8644,-339.9133 387.9173,-333.221"/>
<text text-anchor="middle" x="469.7434" y="-523.8" font-family="Times,serif" font-size="14.00" fill="#ff0000">FALSE</text>
</g>
<!-- #20 BlockStatement&#45;&gt;#6» v0 = o.bleh -->
<g id="edge27" class="edge">
<title>#20 BlockStatement&#45;&gt;#6» v0 = o.bleh</title>
<path fill="none" stroke="#0000ff" d="M302.3828,-640.3496C297.0352,-634.9015 291.6718,-628.5886 287.7434,-622 283.5799,-615.0172 280.3922,-606.8407 278,-599.1055"/>
<polygon fill="#0000ff" stroke="#0000ff" points="281.3355,-598.0349 275.2984,-589.3284 274.5883,-599.8994 281.3355,-598.0349"/>
<text text-anchor="middle" x="291.2434" y="-610.8" font-family="Times,serif" font-size="14.00" fill="#0000ff">1</text>
</g>
<!-- #20 BlockStatement&#45;&gt;#6» v0 = o.bleh -->
<g id="edge30" class="edge">
<title>#20 BlockStatement&#45;&gt;#6» v0 = o.bleh</title>
<path fill="none" stroke="#ff0000" d="M313.1833,-639.8976C307.9014,-630.0752 301.1325,-617.7729 294.7434,-607 292.9097,-603.9081 290.9458,-600.6965 288.9669,-597.5214"/>
<polygon fill="#ff0000" stroke="#ff0000" points="291.7515,-595.3765 283.4453,-588.7994 285.837,-599.1207 291.7515,-595.3765"/>
</g>
<!-- #20 BlockStatement&#45;&gt;#10» v1 = &#39;x=&#39; + v0 -->
<g id="edge28" class="edge">
<title>#20 BlockStatement&#45;&gt;#10» v1 = &#39;x=&#39; + v0</title>
<path fill="none" stroke="#0000ff" d="M333.1423,-639.9963C343.9351,-618.948 358.0364,-583.1502 348.7434,-553 343.8871,-537.2443 334.067,-521.8673 324.6532,-509.6431"/>
<polygon fill="#0000ff" stroke="#0000ff" points="327.2667,-507.3083 318.2667,-501.718 321.8162,-511.7006 327.2667,-507.3083"/>
<text text-anchor="middle" x="356.2434" y="-567.3" font-family="Times,serif" font-size="14.00" fill="#0000ff">2</text>
</g>
<!-- #20 BlockStatement&#45;&gt;#14» o.blah = v1; -->
<g id="edge29" class="edge">
<title>#20 BlockStatement&#45;&gt;#14» o.blah = v1;</title>
<path fill="none" stroke="#0000ff" d="M343.853,-640.5236C349.356,-635.0782 354.8322,-628.7233 358.7434,-622 394.3785,-560.7435 418.3811,-531.6708 391.7434,-466 384.5556,-448.2799 370.3903,-432.6053 356.9287,-420.6925"/>
<polygon fill="#0000ff" stroke="#0000ff" points="359.0431,-417.8972 349.1422,-414.126 354.5304,-423.2484 359.0431,-417.8972"/>
<text text-anchor="middle" x="407.2434" y="-523.8" font-family="Times,serif" font-size="14.00" fill="#0000ff">3</text>
</g>
<!-- #14» o.blah = v1;&#45;&gt;#35 _4_end_if -->
<g id="edge31" class="edge">
<title>#14» o.blah = v1;&#45;&gt;#35 _4_end_if</title>
<path fill="none" stroke="#ff0000" d="M324.7434,-378.9551C324.7434,-370.8828 324.7434,-361.1764 324.7434,-352.1817"/>
<polygon fill="#ff0000" stroke="#ff0000" points="328.2435,-352.0903 324.7434,-342.0904 321.2435,-352.0904 328.2435,-352.0903"/>
</g>
<!-- #35 _4_end_if&#45;&gt;#21» v2 = o.blah -->
<g id="edge32" class="edge">
<title>#35 _4_end_if&#45;&gt;#21» v2 = o.blah</title>
<path fill="none" stroke="#ff0000" d="M305.0735,-306.7C294.4013,-297.3136 281.0366,-285.5591 269.3385,-275.2704"/>
<polygon fill="#ff0000" stroke="#ff0000" points="271.3801,-272.4049 261.5597,-268.4288 266.7571,-277.6612 271.3801,-272.4049"/>
</g>
</g>
</svg>
