<?xml version="1.0" encoding="UTF-8" standalone="no"?>
<!DOCTYPE svg PUBLIC "-//W3C//DTD SVG 1.1//EN"
 "http://www.w3.org/Graphics/SVG/1.1/DTD/svg11.dtd">
<!-- Generated by graphviz version 2.40.1 (20161225.0304)
 -->
<!-- Title: G Pages: 1 -->
<svg width="683pt" height="1366pt"
 viewBox="0.00 0.00 683.29 1366.00" xmlns="http://www.w3.org/2000/svg" xmlns:xlink="http://www.w3.org/1999/xlink">
<g id="graph0" class="graph" transform="scale(1 1) rotate(0) translate(4 1362)">
<title>G</title>
<polygon fill="#ffffff" stroke="transparent" points="-4,4 -4,-1362 679.2895,-1362 679.2895,4 -4,4"/>
<!-- #46 CFG_F_START main -->
<g id="node1" class="node">
<title>#46 CFG_F_START main</title>
<ellipse fill="none" stroke="#ff0000" cx="477.2895" cy="-1340" rx="105.0817" ry="18"/>
<text text-anchor="middle" x="477.2895" y="-1336.3" font-family="Times,serif" font-size="14.00" fill="#ff0000">#46 CFG_F_START main</text>
</g>
<!-- #1 Function (search) -->
<g id="node2" class="node">
<title>#1 Function (search)</title>
<ellipse fill="none" stroke="#000000" cx="477.2895" cy="-1267" rx="83.6854" ry="18"/>
<text text-anchor="middle" x="477.2895" y="-1263.3" font-family="Times,serif" font-size="14.00" fill="#000000">#1 Function (search)</text>
</g>
<!-- #46 CFG_F_START main&#45;&gt;#1 Function (search) -->
<g id="edge1" class="edge">
<title>#46 CFG_F_START main&#45;&gt;#1 Function (search)</title>
<path fill="none" stroke="#ff0000" d="M477.2895,-1321.9551C477.2895,-1313.8828 477.2895,-1304.1764 477.2895,-1295.1817"/>
<polygon fill="#ff0000" stroke="#ff0000" points="480.7896,-1295.0903 477.2895,-1285.0904 473.7896,-1295.0904 480.7896,-1295.0903"/>
</g>
<!-- #51 PDG_OBJECT o1 -->
<g id="node5" class="node">
<title>#51 PDG_OBJECT o1</title>
<ellipse fill="none" stroke="#006400" cx="374.2895" cy="-1180" rx="91.784" ry="18"/>
<text text-anchor="middle" x="374.2895" y="-1176.3" font-family="Times,serif" font-size="14.00" fill="#006400">#51 PDG_OBJECT o1</text>
</g>
<!-- #1 Function (search)&#45;&gt;#51 PDG_OBJECT o1 -->
<g id="edge8" class="edge">
<title>#1 Function (search)&#45;&gt;#51 PDG_OBJECT o1</title>
<path fill="none" stroke="#006400" d="M456.4459,-1249.3943C441.0889,-1236.4228 420.0136,-1218.6213 403.054,-1204.2962"/>
<polygon fill="#006400" stroke="#006400" points="405.0001,-1201.3585 395.1021,-1197.5796 400.4831,-1206.7062 405.0001,-1201.3585"/>
<text text-anchor="middle" x="470.7895" y="-1219.8" font-family="Times,serif" font-size="14.00" fill="#006400">CREATE opts</text>
</g>
<!-- #47 CFG_F_END main -->
<g id="node9" class="node">
<title>#47 CFG_F_END main</title>
<ellipse fill="none" stroke="#ff0000" cx="579.2895" cy="-1180" rx="95.5831" ry="18"/>
<text text-anchor="middle" x="579.2895" y="-1176.3" font-family="Times,serif" font-size="14.00" fill="#ff0000">#47 CFG_F_END main</text>
</g>
<!-- #1 Function (search)&#45;&gt;#47 CFG_F_END main -->
<g id="edge7" class="edge">
<title>#1 Function (search)&#45;&gt;#47 CFG_F_END main</title>
<path fill="none" stroke="#ff0000" d="M497.9307,-1249.3943C513.1387,-1236.4228 534.0093,-1218.6213 550.8043,-1204.2962"/>
<polygon fill="#ff0000" stroke="#ff0000" points="553.3419,-1206.732 558.679,-1197.5796 548.7993,-1201.4061 553.3419,-1206.732"/>
</g>
<!-- #48 CFG_F_START 1_search -->
<g id="node3" class="node">
<title>#48 CFG_F_START 1_search</title>
<ellipse fill="none" stroke="#ff0000" cx="118.2895" cy="-1180" rx="118.0794" ry="18"/>
<text text-anchor="middle" x="118.2895" y="-1176.3" font-family="Times,serif" font-size="14.00" fill="#ff0000">#48 CFG_F_START 1_search</text>
</g>
<!-- #3» v1 = opts.filter -->
<g id="node4" class="node">
<title>#3» v1 = opts.filter</title>
<ellipse fill="none" stroke="#000000" cx="267.2895" cy="-1093" rx="79.0865" ry="18"/>
<text text-anchor="middle" x="267.2895" y="-1089.3" font-family="Times,serif" font-size="14.00" fill="#000000">#3» v1 = opts.filter</text>
</g>
<!-- #48 CFG_F_START 1_search&#45;&gt;#3» v1 = opts.filter -->
<g id="edge2" class="edge">
<title>#48 CFG_F_START 1_search&#45;&gt;#3» v1 = opts.filter</title>
<path fill="none" stroke="#ff0000" d="M148.4419,-1162.3943C171.8439,-1148.73 204.4251,-1129.7061 229.5566,-1115.032"/>
<polygon fill="#ff0000" stroke="#ff0000" points="231.5768,-1117.9054 238.4477,-1109.8405 228.0471,-1111.8604 231.5768,-1117.9054"/>
</g>
<!-- #7» v2 = !v1 -->
<g id="node10" class="node">
<title>#7» v2 = !v1</title>
<ellipse fill="none" stroke="#000000" cx="279.2895" cy="-1006" rx="57.3905" ry="18"/>
<text text-anchor="middle" x="279.2895" y="-1002.3" font-family="Times,serif" font-size="14.00" fill="#000000">#7» v2 = !v1</text>
</g>
<!-- #3» v1 = opts.filter&#45;&gt;#7» v2 = !v1 -->
<g id="edge9" class="edge">
<title>#3» v1 = opts.filter&#45;&gt;#7» v2 = !v1</title>
<path fill="none" stroke="#ff0000" d="M293.4992,-1075.9008C299.4654,-1070.6164 305.0078,-1064.2487 308.2895,-1057 312.2179,-1048.3228 309.4065,-1039.1796 304.2551,-1031.0687"/>
<polygon fill="#ff0000" stroke="#ff0000" points="307.0331,-1028.9395 298.2241,-1023.0529 301.4395,-1033.1481 307.0331,-1028.9395"/>
</g>
<!-- #3» v1 = opts.filter&#45;&gt;#7» v2 = !v1 -->
<g id="edge10" class="edge">
<title>#3» v1 = opts.filter&#45;&gt;#7» v2 = !v1</title>
<path fill="none" stroke="#006400" d="M269.7759,-1074.9735C271.401,-1063.1918 273.557,-1047.5607 275.4056,-1034.1581"/>
<polygon fill="#006400" stroke="#006400" points="278.907,-1034.3878 276.8063,-1024.0034 271.9726,-1033.4313 278.907,-1034.3878"/>
<text text-anchor="middle" x="288.7895" y="-1045.8" font-family="Times,serif" font-size="14.00" fill="#006400">VAR</text>
</g>
<!-- #51 PDG_OBJECT o1&#45;&gt;#3» v1 = opts.filter -->
<g id="edge3" class="edge">
<title>#51 PDG_OBJECT o1&#45;&gt;#3» v1 = opts.filter</title>
<path fill="none" stroke="#006400" d="M319.5765,-1165.4602C300.1675,-1159.2227 281.5668,-1151.6242 275.2895,-1144 270.1402,-1137.7458 267.6299,-1129.55 266.5369,-1121.5633"/>
<polygon fill="#006400" stroke="#006400" points="270.0124,-1121.0928 265.8137,-1111.3655 263.0299,-1121.5881 270.0124,-1121.0928"/>
<text text-anchor="middle" x="317.7895" y="-1132.8" font-family="Times,serif" font-size="14.00" fill="#006400">LOOKUP filter</text>
</g>
<!-- #10» v3 = opts.collection -->
<g id="node6" class="node">
<title>#10» v3 = opts.collection</title>
<ellipse fill="none" stroke="#000000" cx="143.2895" cy="-933" rx="101.2821" ry="18"/>
<text text-anchor="middle" x="143.2895" y="-929.3" font-family="Times,serif" font-size="14.00" fill="#000000">#10» v3 = opts.collection</text>
</g>
<!-- #51 PDG_OBJECT o1&#45;&gt;#10» v3 = opts.collection -->
<g id="edge4" class="edge">
<title>#51 PDG_OBJECT o1&#45;&gt;#10» v3 = opts.collection</title>
<path fill="none" stroke="#006400" d="M299.9385,-1169.3482C259.67,-1160.0765 211.6763,-1142.8552 179.2895,-1111 139.1391,-1071.5087 137.4917,-1000.468 140.1638,-961.1311"/>
<polygon fill="#006400" stroke="#006400" points="143.6525,-961.4122 140.9814,-951.1596 136.6759,-960.8401 143.6525,-961.4122"/>
<text text-anchor="middle" x="205.2895" y="-1045.8" font-family="Times,serif" font-size="14.00" fill="#006400">LOOKUP collection</text>
</g>
<!-- #20» v5 = opts.collection -->
<g id="node7" class="node">
<title>#20» v5 = opts.collection</title>
<ellipse fill="none" stroke="#000000" cx="372.2895" cy="-585" rx="101.2821" ry="18"/>
<text text-anchor="middle" x="372.2895" y="-581.3" font-family="Times,serif" font-size="14.00" fill="#000000">#20» v5 = opts.collection</text>
</g>
<!-- #51 PDG_OBJECT o1&#45;&gt;#20» v5 = opts.collection -->
<g id="edge5" class="edge">
<title>#51 PDG_OBJECT o1&#45;&gt;#20» v5 = opts.collection</title>
<path fill="none" stroke="#006400" d="M374.2895,-1161.6694C374.2895,-1144.0629 374.2895,-1116.7135 374.2895,-1093 374.2895,-1093 374.2895,-1093 374.2895,-672 374.2895,-652.5423 373.7833,-630.6433 373.2803,-613.6839"/>
<polygon fill="#006400" stroke="#006400" points="376.7673,-613.2131 372.9555,-603.3277 369.7707,-613.4326 376.7673,-613.2131"/>
<text text-anchor="middle" x="430.2895" y="-885.8" font-family="Times,serif" font-size="14.00" fill="#006400">LOOKUP collection</text>
</g>
<!-- #35» v7 = opts.filter -->
<g id="node8" class="node">
<title>#35» v7 = opts.filter</title>
<ellipse fill="none" stroke="#000000" cx="508.2895" cy="-265" rx="83.6854" ry="18"/>
<text text-anchor="middle" x="508.2895" y="-261.3" font-family="Times,serif" font-size="14.00" fill="#000000">#35» v7 = opts.filter</text>
</g>
<!-- #51 PDG_OBJECT o1&#45;&gt;#35» v7 = opts.filter -->
<g id="edge6" class="edge">
<title>#51 PDG_OBJECT o1&#45;&gt;#35» v7 = opts.filter</title>
<path fill="none" stroke="#006400" d="M438.5118,-1167.0773C502.1827,-1152.3709 590.2895,-1126.0495 590.2895,-1093 590.2895,-1093 590.2895,-1093 590.2895,-338 590.2895,-315.6863 573.141,-298.5146 554.5281,-286.4483"/>
<polygon fill="#006400" stroke="#006400" points="556.3005,-283.4301 545.9296,-281.2635 552.6859,-289.4246 556.3005,-283.4301"/>
<text text-anchor="middle" x="632.7895" y="-711.8" font-family="Times,serif" font-size="14.00" fill="#006400">LOOKUP filter</text>
</g>
<!-- #14» v4 = v2 &amp;&amp; v3 -->
<g id="node11" class="node">
<title>#14» v4 = v2 &amp;&amp; v3</title>
<ellipse fill="none" stroke="#000000" cx="187.2895" cy="-846" rx="87.1846" ry="18"/>
<text text-anchor="middle" x="187.2895" y="-842.3" font-family="Times,serif" font-size="14.00" fill="#000000">#14» v4 = v2 &amp;&amp; v3</text>
</g>
<!-- #10» v3 = opts.collection&#45;&gt;#14» v4 = v2 &amp;&amp; v3 -->
<g id="edge11" class="edge">
<title>#10» v3 = opts.collection&#45;&gt;#14» v4 = v2 &amp;&amp; v3</title>
<path fill="none" stroke="#ff0000" d="M160.8096,-915.0361C165.3943,-909.583 169.975,-903.346 173.2895,-897 177.0135,-889.8699 179.8283,-881.647 181.92,-873.9143"/>
<polygon fill="#ff0000" stroke="#ff0000" points="185.3293,-874.7061 184.2689,-864.1645 178.524,-873.0666 185.3293,-874.7061"/>
</g>
<!-- #10» v3 = opts.collection&#45;&gt;#14» v4 = v2 &amp;&amp; v3 -->
<g id="edge12" class="edge">
<title>#10» v3 = opts.collection&#45;&gt;#14» v4 = v2 &amp;&amp; v3</title>
<path fill="none" stroke="#006400" d="M137.9271,-914.6548C135.9918,-904.5322 135.3424,-892.0209 140.2895,-882 142.4507,-877.6222 145.428,-873.6296 148.8442,-870.03"/>
<polygon fill="#006400" stroke="#006400" points="151.313,-872.5156 156.3517,-863.1956 146.6008,-867.3392 151.313,-872.5156"/>
<text text-anchor="middle" x="154.7895" y="-885.8" font-family="Times,serif" font-size="14.00" fill="#006400">VAR</text>
</g>
<!-- #24» v6 = &#39;...&#39; + v5 -->
<g id="node12" class="node">
<title>#24» v6 = &#39;...&#39; + v5</title>
<ellipse fill="none" stroke="#000000" cx="394.2895" cy="-498" rx="79.0865" ry="18"/>
<text text-anchor="middle" x="394.2895" y="-494.3" font-family="Times,serif" font-size="14.00" fill="#000000">#24» v6 = &#39;...&#39; + v5</text>
</g>
<!-- #20» v5 = opts.collection&#45;&gt;#24» v6 = &#39;...&#39; + v5 -->
<g id="edge13" class="edge">
<title>#20» v5 = opts.collection&#45;&gt;#24» v6 = &#39;...&#39; + v5</title>
<path fill="none" stroke="#ff0000" d="M374.1704,-566.8639C375.4303,-557.0315 377.3976,-544.7306 380.2895,-534 381.042,-531.2077 381.9383,-528.3345 382.9085,-525.487"/>
<polygon fill="#ff0000" stroke="#ff0000" points="386.2091,-526.6526 386.3908,-516.0593 379.6427,-524.2272 386.2091,-526.6526"/>
</g>
<!-- #20» v5 = opts.collection&#45;&gt;#24» v6 = &#39;...&#39; + v5 -->
<g id="edge14" class="edge">
<title>#20» v5 = opts.collection&#45;&gt;#24» v6 = &#39;...&#39; + v5</title>
<path fill="none" stroke="#006400" d="M376.8479,-566.9735C379.8567,-555.0751 383.8583,-539.2508 387.2696,-525.7606"/>
<polygon fill="#006400" stroke="#006400" points="390.6785,-526.5563 389.7369,-516.0034 383.8921,-524.8401 390.6785,-526.5563"/>
<text text-anchor="middle" x="398.7895" y="-537.8" font-family="Times,serif" font-size="14.00" fill="#006400">VAR</text>
</g>
<!-- #39» v8 = eval(v7) -->
<g id="node13" class="node">
<title>#39» v8 = eval(v7)</title>
<ellipse fill="none" stroke="#000000" cx="508.2895" cy="-178" rx="79.0865" ry="18"/>
<text text-anchor="middle" x="508.2895" y="-174.3" font-family="Times,serif" font-size="14.00" fill="#000000">#39» v8 = eval(v7)</text>
</g>
<!-- #35» v7 = opts.filter&#45;&gt;#39» v8 = eval(v7) -->
<g id="edge15" class="edge">
<title>#35» v7 = opts.filter&#45;&gt;#39» v8 = eval(v7)</title>
<path fill="none" stroke="#ff0000" d="M506.9727,-246.5906C506.4297,-236.8955 505.9896,-224.8062 506.2895,-214 506.3569,-211.5714 506.4499,-209.0517 506.559,-206.5244"/>
<polygon fill="#ff0000" stroke="#ff0000" points="510.0662,-206.4699 507.0755,-196.3059 503.0751,-206.1165 510.0662,-206.4699"/>
</g>
<!-- #35» v7 = opts.filter&#45;&gt;#39» v8 = eval(v7) -->
<g id="edge16" class="edge">
<title>#35» v7 = opts.filter&#45;&gt;#39» v8 = eval(v7)</title>
<path fill="none" stroke="#006400" d="M508.2895,-246.9735C508.2895,-235.1918 508.2895,-219.5607 508.2895,-206.1581"/>
<polygon fill="#006400" stroke="#006400" points="511.7896,-206.0033 508.2895,-196.0034 504.7896,-206.0034 511.7896,-206.0033"/>
<text text-anchor="middle" x="522.7895" y="-217.8" font-family="Times,serif" font-size="14.00" fill="#006400">VAR</text>
</g>
<!-- #7» v2 = !v1&#45;&gt;#10» v3 = opts.collection -->
<g id="edge17" class="edge">
<title>#7» v2 = !v1&#45;&gt;#10» v3 = opts.collection</title>
<path fill="none" stroke="#ff0000" d="M250.1141,-990.3397C230.8554,-980.0023 205.3485,-966.3111 184.0888,-954.8996"/>
<polygon fill="#ff0000" stroke="#ff0000" points="185.7344,-951.8106 175.2681,-950.165 182.4238,-957.9783 185.7344,-951.8106"/>
</g>
<!-- #7» v2 = !v1&#45;&gt;#14» v4 = v2 &amp;&amp; v3 -->
<g id="edge18" class="edge">
<title>#7» v2 = !v1&#45;&gt;#14» v4 = v2 &amp;&amp; v3</title>
<path fill="none" stroke="#006400" d="M276.7642,-987.8951C273.5114,-968.7721 266.6142,-938.2323 253.2895,-915 243.7064,-898.2915 229.2257,-882.5356 216.2675,-870.3097"/>
<polygon fill="#006400" stroke="#006400" points="218.6043,-867.7038 208.8624,-863.5387 213.8806,-872.8698 218.6043,-867.7038"/>
<text text-anchor="middle" x="282.7895" y="-929.3" font-family="Times,serif" font-size="14.00" fill="#006400">VAR</text>
</g>
<!-- #18 IfStatement -->
<g id="node14" class="node">
<title>#18 IfStatement</title>
<ellipse fill="none" stroke="#000000" cx="273.2895" cy="-759" rx="67.6881" ry="18"/>
<text text-anchor="middle" x="273.2895" y="-755.3" font-family="Times,serif" font-size="14.00" fill="#000000">#18 IfStatement</text>
</g>
<!-- #14» v4 = v2 &amp;&amp; v3&#45;&gt;#18 IfStatement -->
<g id="edge19" class="edge">
<title>#14» v4 = v2 &amp;&amp; v3&#45;&gt;#18 IfStatement</title>
<path fill="none" stroke="#ff0000" d="M205.1088,-827.9735C217.7283,-815.2072 234.8155,-797.9214 248.7267,-783.8484"/>
<polygon fill="#ff0000" stroke="#ff0000" points="251.539,-785.9821 256.0799,-776.4097 246.5607,-781.061 251.539,-785.9821"/>
</g>
<!-- #19 Identifier (v4) -->
<g id="node15" class="node">
<title>#19 Identifier (v4)</title>
<ellipse fill="none" stroke="#000000" cx="256.2895" cy="-672" rx="76.0865" ry="18"/>
<text text-anchor="middle" x="256.2895" y="-668.3" font-family="Times,serif" font-size="14.00" fill="#000000">#19 Identifier (v4)</text>
</g>
<!-- #14» v4 = v2 &amp;&amp; v3&#45;&gt;#19 Identifier (v4) -->
<g id="edge20" class="edge">
<title>#14» v4 = v2 &amp;&amp; v3&#45;&gt;#19 Identifier (v4)</title>
<path fill="none" stroke="#006400" d="M177.3348,-828.0033C166.782,-806.3358 153.4073,-769.3281 167.2895,-741 177.123,-720.9336 195.9168,-705.0311 213.7096,-693.5744"/>
<polygon fill="#006400" stroke="#006400" points="215.6151,-696.5117 222.3202,-688.3085 211.963,-690.5399 215.6151,-696.5117"/>
<text text-anchor="middle" x="181.7895" y="-755.3" font-family="Times,serif" font-size="14.00" fill="#006400">VAR</text>
</g>
<!-- #28» opts.filter = v6; -->
<g id="node16" class="node">
<title>#28» opts.filter = v6;</title>
<ellipse fill="none" stroke="#000000" cx="427.2895" cy="-411" rx="86.3847" ry="18"/>
<text text-anchor="middle" x="427.2895" y="-407.3" font-family="Times,serif" font-size="14.00" fill="#000000">#28» opts.filter = v6;</text>
</g>
<!-- #24» v6 = &#39;...&#39; + v5&#45;&gt;#28» opts.filter = v6; -->
<g id="edge21" class="edge">
<title>#24» v6 = &#39;...&#39; + v5&#45;&gt;#28» opts.filter = v6;</title>
<path fill="none" stroke="#ff0000" d="M398.2765,-479.7491C400.6851,-469.8832 404.1007,-457.5867 408.2895,-447 409.4482,-444.0716 410.7792,-441.0719 412.1874,-438.1144"/>
<polygon fill="#ff0000" stroke="#ff0000" points="415.4333,-439.4521 416.8325,-428.9501 409.1895,-436.2874 415.4333,-439.4521"/>
</g>
<!-- #24» v6 = &#39;...&#39; + v5&#45;&gt;#28» opts.filter = v6; -->
<g id="edge22" class="edge">
<title>#24» v6 = &#39;...&#39; + v5&#45;&gt;#28» opts.filter = v6;</title>
<path fill="none" stroke="#006400" d="M401.1271,-479.9735C405.6846,-467.9585 411.7605,-451.9401 416.9098,-438.3646"/>
<polygon fill="#006400" stroke="#006400" points="420.1865,-439.5947 420.4606,-429.0034 413.6415,-437.112 420.1865,-439.5947"/>
<text text-anchor="middle" x="426.7895" y="-450.8" font-family="Times,serif" font-size="14.00" fill="#006400">VAR</text>
</g>
<!-- #43» v8; -->
<g id="node17" class="node">
<title>#43» v8;</title>
<ellipse fill="none" stroke="#000000" cx="508.2895" cy="-91" rx="42.4939" ry="18"/>
<text text-anchor="middle" x="508.2895" y="-87.3" font-family="Times,serif" font-size="14.00" fill="#000000">#43» v8;</text>
</g>
<!-- #39» v8 = eval(v7)&#45;&gt;#43» v8; -->
<g id="edge23" class="edge">
<title>#39» v8 = eval(v7)&#45;&gt;#43» v8;</title>
<path fill="none" stroke="#ff0000" d="M506.9727,-159.5906C506.4297,-149.8955 505.9896,-137.8062 506.2895,-127 506.3569,-124.5714 506.4499,-122.0517 506.559,-119.5244"/>
<polygon fill="#ff0000" stroke="#ff0000" points="510.0662,-119.4699 507.0755,-109.3059 503.0751,-119.1165 510.0662,-119.4699"/>
</g>
<!-- #39» v8 = eval(v7)&#45;&gt;#43» v8; -->
<g id="edge24" class="edge">
<title>#39» v8 = eval(v7)&#45;&gt;#43» v8;</title>
<path fill="none" stroke="#006400" d="M508.2895,-159.9735C508.2895,-148.1918 508.2895,-132.5607 508.2895,-119.1581"/>
<polygon fill="#006400" stroke="#006400" points="511.7896,-119.0033 508.2895,-109.0034 504.7896,-119.0034 511.7896,-119.0033"/>
<text text-anchor="middle" x="522.7895" y="-130.8" font-family="Times,serif" font-size="14.00" fill="#006400">VAR</text>
</g>
<!-- #18 IfStatement&#45;&gt;#19 Identifier (v4) -->
<g id="edge25" class="edge">
<title>#18 IfStatement&#45;&gt;#19 Identifier (v4)</title>
<path fill="none" stroke="#ff0000" d="M269.7671,-740.9735C267.4649,-729.1918 264.4106,-713.5607 261.7917,-700.1581"/>
<polygon fill="#ff0000" stroke="#ff0000" points="265.1603,-699.1465 259.8074,-690.0034 258.2902,-700.489 265.1603,-699.1465"/>
<text text-anchor="middle" x="275.7895" y="-711.8" font-family="Times,serif" font-size="14.00" fill="#ff0000">test</text>
</g>
<!-- #19 Identifier (v4)&#45;&gt;#20» v5 = opts.collection -->
<g id="edge26" class="edge">
<title>#19 Identifier (v4)&#45;&gt;#20» v5 = opts.collection</title>
<path fill="none" stroke="#ff0000" d="M279.2074,-654.8116C296.6922,-641.698 320.9905,-623.4742 340.377,-608.9344"/>
<polygon fill="#ff0000" stroke="#ff0000" points="342.7228,-611.55 348.6228,-602.75 338.5228,-605.95 342.7228,-611.55"/>
<text text-anchor="middle" x="339.2895" y="-624.8" font-family="Times,serif" font-size="14.00" fill="#ff0000">TRUE</text>
</g>
<!-- #50 CFG_IF_END -->
<g id="node18" class="node">
<title>#50 CFG_IF_END</title>
<ellipse fill="none" stroke="#ff0000" cx="427.2895" cy="-338" rx="77.9862" ry="18"/>
<text text-anchor="middle" x="427.2895" y="-334.3" font-family="Times,serif" font-size="14.00" fill="#ff0000">#50 CFG_IF_END</text>
</g>
<!-- #19 Identifier (v4)&#45;&gt;#50 CFG_IF_END -->
<g id="edge27" class="edge">
<title>#19 Identifier (v4)&#45;&gt;#50 CFG_IF_END</title>
<path fill="none" stroke="#ff0000" d="M251.9607,-653.7876C248.179,-636.2665 243.2895,-608.9768 243.2895,-585 243.2895,-585 243.2895,-585 243.2895,-411 243.2895,-385.3327 305.9339,-364.7651 358.1182,-352.0846"/>
<polygon fill="#ff0000" stroke="#ff0000" points="359.133,-355.4411 368.0579,-349.7318 357.5206,-348.6294 359.133,-355.4411"/>
<text text-anchor="middle" x="264.2895" y="-494.3" font-family="Times,serif" font-size="14.00" fill="#ff0000">FALSE</text>
</g>
<!-- #28» opts.filter = v6;&#45;&gt;#51 PDG_OBJECT o1 -->
<g id="edge29" class="edge">
<title>#28» opts.filter = v6;&#45;&gt;#51 PDG_OBJECT o1</title>
<path fill="none" stroke="#006400" d="M454.8444,-428.0973C475.8836,-443.4997 501.2895,-468.2566 501.2895,-498 501.2895,-1093 501.2895,-1093 501.2895,-1093 501.2895,-1126.9331 470.05,-1148.6073 438.5583,-1161.8357"/>
<polygon fill="#006400" stroke="#006400" points="437.2702,-1158.5812 429.2549,-1165.5098 439.8415,-1165.0919 437.2702,-1158.5812"/>
<text text-anchor="middle" x="538.2895" y="-798.8" font-family="Times,serif" font-size="14.00" fill="#006400">WRITE filter</text>
</g>
<!-- #28» opts.filter = v6;&#45;&gt;#50 CFG_IF_END -->
<g id="edge28" class="edge">
<title>#28» opts.filter = v6;&#45;&gt;#50 CFG_IF_END</title>
<path fill="none" stroke="#ff0000" d="M427.2895,-392.9551C427.2895,-384.8828 427.2895,-375.1764 427.2895,-366.1817"/>
<polygon fill="#ff0000" stroke="#ff0000" points="430.7896,-366.0903 427.2895,-356.0904 423.7896,-366.0904 430.7896,-366.0903"/>
</g>
<!-- #49 CFG_F_END 1_search -->
<g id="node19" class="node">
<title>#49 CFG_F_END 1_search</title>
<ellipse fill="none" stroke="#ff0000" cx="508.2895" cy="-18" rx="108.5808" ry="18"/>
<text text-anchor="middle" x="508.2895" y="-14.3" font-family="Times,serif" font-size="14.00" fill="#ff0000">#49 CFG_F_END 1_search</text>
</g>
<!-- #43» v8;&#45;&gt;#49 CFG_F_END 1_search -->
<g id="edge30" class="edge">
<title>#43» v8;&#45;&gt;#49 CFG_F_END 1_search</title>
<path fill="none" stroke="#ff0000" d="M508.2895,-72.9551C508.2895,-64.8828 508.2895,-55.1764 508.2895,-46.1817"/>
<polygon fill="#ff0000" stroke="#ff0000" points="511.7896,-46.0903 508.2895,-36.0904 504.7896,-46.0904 511.7896,-46.0903"/>
</g>
<!-- #50 CFG_IF_END&#45;&gt;#35» v7 = opts.filter -->
<g id="edge31" class="edge">
<title>#50 CFG_IF_END&#45;&gt;#35» v7 = opts.filter</title>
<path fill="none" stroke="#ff0000" d="M446.8973,-320.3287C457.1686,-311.0719 469.9087,-299.5901 481.1163,-289.4894"/>
<polygon fill="#ff0000" stroke="#ff0000" points="483.4962,-292.0562 488.5815,-282.7615 478.8099,-286.8564 483.4962,-292.0562"/>
</g>
</g>
</svg>
