<?xml version="1.0" encoding="UTF-8" standalone="no"?>
<!DOCTYPE svg PUBLIC "-//W3C//DTD SVG 1.1//EN"
 "http://www.w3.org/Graphics/SVG/1.1/DTD/svg11.dtd">
<!-- Generated by graphviz version 2.40.1 (20161225.0304)
 -->
<!-- Title: G Pages: 1 -->
<svg width="721pt" height="1206pt"
 viewBox="0.00 0.00 721.18 1206.00" xmlns="http://www.w3.org/2000/svg" xmlns:xlink="http://www.w3.org/1999/xlink">
<g id="graph0" class="graph" transform="scale(1 1) rotate(0) translate(4 1202)">
<title>G</title>
<polygon fill="#ffffff" stroke="transparent" points="-4,4 -4,-1202 717.1834,-1202 717.1834,4 -4,4"/>
<!-- #38 CFG_F_START main -->
<g id="node1" class="node">
<title>#38 CFG_F_START main</title>
<ellipse fill="none" stroke="#ff0000" cx="387.6419" cy="-1180" rx="105.0817" ry="18"/>
<text text-anchor="middle" x="387.6419" y="-1176.3" font-family="Times,serif" font-size="14.00" fill="#ff0000">#38 CFG_F_START main</text>
</g>
<!-- #1 Function (search) -->
<g id="node2" class="node">
<title>#1 Function (search)</title>
<ellipse fill="none" stroke="#000000" cx="387.6419" cy="-1107" rx="83.6854" ry="18"/>
<text text-anchor="middle" x="387.6419" y="-1103.3" font-family="Times,serif" font-size="14.00" fill="#000000">#1 Function (search)</text>
</g>
<!-- #38 CFG_F_START main&#45;&gt;#1 Function (search) -->
<g id="edge1" class="edge">
<title>#38 CFG_F_START main&#45;&gt;#1 Function (search)</title>
<path fill="none" stroke="#ff0000" d="M387.6419,-1161.9551C387.6419,-1153.8828 387.6419,-1144.1764 387.6419,-1135.1817"/>
<polygon fill="#ff0000" stroke="#ff0000" points="391.142,-1135.0903 387.6419,-1125.0904 384.142,-1135.0904 391.142,-1135.0903"/>
</g>
<!-- #43 PDG_OBJECT o1 -->
<g id="node5" class="node">
<title>#43 PDG_OBJECT o1</title>
<ellipse fill="none" stroke="#006400" cx="157.6419" cy="-1020" rx="91.784" ry="18"/>
<text text-anchor="middle" x="157.6419" y="-1016.3" font-family="Times,serif" font-size="14.00" fill="#006400">#43 PDG_OBJECT o1</text>
</g>
<!-- #1 Function (search)&#45;&gt;#43 PDG_OBJECT o1 -->
<g id="edge8" class="edge">
<title>#1 Function (search)&#45;&gt;#43 PDG_OBJECT o1</title>
<path fill="none" stroke="#000000" d="M345.9906,-1091.245C307.7601,-1076.7839 250.9683,-1055.3017 209.7472,-1039.7094"/>
<polygon fill="#000000" stroke="#000000" points="210.7426,-1036.3439 200.151,-1036.0795 208.2659,-1042.8912 210.7426,-1036.3439"/>
<text text-anchor="middle" x="326.1419" y="-1059.8" font-family="Times,serif" font-size="14.00" fill="#000000">CREATE opts</text>
</g>
<!-- #39 CFG_F_END main -->
<g id="node9" class="node">
<title>#39 CFG_F_END main</title>
<ellipse fill="none" stroke="#ff0000" cx="617.6419" cy="-1020" rx="95.5831" ry="18"/>
<text text-anchor="middle" x="617.6419" y="-1016.3" font-family="Times,serif" font-size="14.00" fill="#ff0000">#39 CFG_F_END main</text>
</g>
<!-- #1 Function (search)&#45;&gt;#39 CFG_F_END main -->
<g id="edge7" class="edge">
<title>#1 Function (search)&#45;&gt;#39 CFG_F_END main</title>
<path fill="none" stroke="#ff0000" d="M429.2931,-1091.245C467.4037,-1076.8292 523.9595,-1055.4364 565.1485,-1039.8562"/>
<polygon fill="#ff0000" stroke="#ff0000" points="566.626,-1043.0394 574.7409,-1036.2277 564.1494,-1036.4921 566.626,-1043.0394"/>
</g>
<!-- #40 CFG_F_START 1_search -->
<g id="node3" class="node">
<title>#40 CFG_F_START 1_search</title>
<ellipse fill="none" stroke="#ff0000" cx="385.6419" cy="-1020" rx="118.0794" ry="18"/>
<text text-anchor="middle" x="385.6419" y="-1016.3" font-family="Times,serif" font-size="14.00" fill="#ff0000">#40 CFG_F_START 1_search</text>
</g>
<!-- #3» v1 = opts.filter -->
<g id="node4" class="node">
<title>#3» v1 = opts.filter</title>
<ellipse fill="none" stroke="#000000" cx="327.6419" cy="-933" rx="79.0865" ry="18"/>
<text text-anchor="middle" x="327.6419" y="-929.3" font-family="Times,serif" font-size="14.00" fill="#000000">#3» v1 = opts.filter</text>
</g>
<!-- #40 CFG_F_START 1_search&#45;&gt;#3» v1 = opts.filter -->
<g id="edge2" class="edge">
<title>#40 CFG_F_START 1_search&#45;&gt;#3» v1 = opts.filter</title>
<path fill="none" stroke="#ff0000" d="M373.6242,-1001.9735C365.4586,-989.7252 354.5195,-973.3165 345.3596,-959.5766"/>
<polygon fill="#ff0000" stroke="#ff0000" points="348.1033,-957.3824 339.6441,-951.0034 342.279,-961.2653 348.1033,-957.3824"/>
</g>
<!-- #7» v2 = !v1 -->
<g id="node10" class="node">
<title>#7» v2 = !v1</title>
<ellipse fill="none" stroke="#000000" cx="328.6419" cy="-846" rx="57.3905" ry="18"/>
<text text-anchor="middle" x="328.6419" y="-842.3" font-family="Times,serif" font-size="14.00" fill="#000000">#7» v2 = !v1</text>
</g>
<!-- #3» v1 = opts.filter&#45;&gt;#7» v2 = !v1 -->
<g id="edge9" class="edge">
<title>#3» v1 = opts.filter&#45;&gt;#7» v2 = !v1</title>
<path fill="none" stroke="#ff0000" d="M326.2023,-914.5864C325.6258,-904.89 325.1926,-892.801 325.6419,-882 325.743,-879.5679 325.8825,-877.0458 326.0463,-874.5168"/>
<polygon fill="#ff0000" stroke="#ff0000" points="329.5551,-874.5317 326.821,-864.2957 322.5751,-874.0026 329.5551,-874.5317"/>
</g>
<!-- #3» v1 = opts.filter&#45;&gt;#7» v2 = !v1 -->
<g id="edge10" class="edge">
<title>#3» v1 = opts.filter&#45;&gt;#7» v2 = !v1</title>
<path fill="none" stroke="#006400" d="M327.8491,-914.9735C327.9845,-903.1918 328.1642,-887.5607 328.3182,-874.1581"/>
<polygon fill="#006400" stroke="#006400" points="331.8197,-874.043 328.4349,-864.0034 324.8201,-873.9624 331.8197,-874.043"/>
<text text-anchor="middle" x="343.1419" y="-885.8" font-family="Times,serif" font-size="14.00" fill="#006400">VAR</text>
</g>
<!-- #43 PDG_OBJECT o1&#45;&gt;#3» v1 = opts.filter -->
<g id="edge3" class="edge">
<title>#43 PDG_OBJECT o1&#45;&gt;#3» v1 = opts.filter</title>
<path fill="none" stroke="#006400" d="M190.8231,-1003.019C218.1139,-989.0525 256.929,-969.1883 286.2498,-954.183"/>
<polygon fill="#006400" stroke="#006400" points="288.1018,-957.167 295.4092,-949.4955 284.9127,-950.9356 288.1018,-957.167"/>
<text text-anchor="middle" x="296.1419" y="-972.8" font-family="Times,serif" font-size="14.00" fill="#006400">LOOKUP filter</text>
</g>
<!-- #10» v3 = opts.collection -->
<g id="node6" class="node">
<title>#10» v3 = opts.collection</title>
<ellipse fill="none" stroke="#000000" cx="201.6419" cy="-773" rx="101.2821" ry="18"/>
<text text-anchor="middle" x="201.6419" y="-769.3" font-family="Times,serif" font-size="14.00" fill="#000000">#10» v3 = opts.collection</text>
</g>
<!-- #43 PDG_OBJECT o1&#45;&gt;#10» v3 = opts.collection -->
<g id="edge4" class="edge">
<title>#43 PDG_OBJECT o1&#45;&gt;#10» v3 = opts.collection</title>
<path fill="none" stroke="#006400" d="M160.8773,-1001.8375C168.4739,-959.1929 187.4958,-852.4108 196.614,-801.2247"/>
<polygon fill="#006400" stroke="#006400" points="200.0936,-801.648 198.4017,-791.1891 193.2021,-800.4203 200.0936,-801.648"/>
<text text-anchor="middle" x="238.6419" y="-885.8" font-family="Times,serif" font-size="14.00" fill="#006400">LOOKUP collection</text>
</g>
<!-- #44 PDG_OBJECT o2 -->
<g id="node7" class="node">
<title>#44 PDG_OBJECT o2</title>
<ellipse fill="none" stroke="#006400" cx="91.6419" cy="-352" rx="91.784" ry="18"/>
<text text-anchor="middle" x="91.6419" y="-348.3" font-family="Times,serif" font-size="14.00" fill="#006400">#44 PDG_OBJECT o2</text>
</g>
<!-- #43 PDG_OBJECT o1&#45;&gt;#44 PDG_OBJECT o2 -->
<g id="edge5" class="edge">
<title>#43 PDG_OBJECT o1&#45;&gt;#44 PDG_OBJECT o2</title>
<path fill="none" stroke="#000000" d="M119.8224,-1003.5532C93.3299,-989.1949 62.6419,-965.5399 62.6419,-933 62.6419,-933 62.6419,-933 62.6419,-439 62.6419,-418.2378 70.167,-396.0526 77.5507,-379.2818"/>
<polygon fill="#000000" stroke="#000000" points="80.7843,-380.6285 81.8238,-370.0847 74.436,-377.6789 80.7843,-380.6285"/>
<text text-anchor="middle" x="111.1419" y="-682.3" font-family="Times,serif" font-size="14.00" fill="#000000">NEW_VERSION</text>
</g>
<!-- #14» v4 = v2 &amp;&amp; v3 -->
<g id="node11" class="node">
<title>#14» v4 = v2 &amp;&amp; v3</title>
<ellipse fill="none" stroke="#000000" cx="264.6419" cy="-686" rx="87.1846" ry="18"/>
<text text-anchor="middle" x="264.6419" y="-682.3" font-family="Times,serif" font-size="14.00" fill="#000000">#14» v4 = v2 &amp;&amp; v3</text>
</g>
<!-- #10» v3 = opts.collection&#45;&gt;#14» v4 = v2 &amp;&amp; v3 -->
<g id="edge11" class="edge">
<title>#10» v3 = opts.collection&#45;&gt;#14» v4 = v2 &amp;&amp; v3</title>
<path fill="none" stroke="#ff0000" d="M206.7531,-754.9472C210.2068,-744.6796 215.4568,-731.9296 222.6419,-722 225.6609,-717.8277 229.258,-713.8238 233.0586,-710.1007"/>
<polygon fill="#ff0000" stroke="#ff0000" points="235.4753,-712.6339 240.5195,-703.3169 230.7661,-707.4547 235.4753,-712.6339"/>
</g>
<!-- #10» v3 = opts.collection&#45;&gt;#14» v4 = v2 &amp;&amp; v3 -->
<g id="edge12" class="edge">
<title>#10» v3 = opts.collection&#45;&gt;#14» v4 = v2 &amp;&amp; v3</title>
<path fill="none" stroke="#006400" d="M214.6955,-754.9735C223.6495,-742.6085 235.6738,-726.0036 245.6805,-712.1847"/>
<polygon fill="#006400" stroke="#006400" points="248.5746,-714.1556 251.605,-704.0034 242.905,-710.05 248.5746,-714.1556"/>
<text text-anchor="middle" x="252.1419" y="-725.8" font-family="Times,serif" font-size="14.00" fill="#006400">VAR</text>
</g>
<!-- #27» v5 = opts.filter -->
<g id="node8" class="node">
<title>#27» v5 = opts.filter</title>
<ellipse fill="none" stroke="#000000" cx="185.6419" cy="-265" rx="83.6854" ry="18"/>
<text text-anchor="middle" x="185.6419" y="-261.3" font-family="Times,serif" font-size="14.00" fill="#000000">#27» v5 = opts.filter</text>
</g>
<!-- #44 PDG_OBJECT o2&#45;&gt;#27» v5 = opts.filter -->
<g id="edge6" class="edge">
<title>#44 PDG_OBJECT o2&#45;&gt;#27» v5 = opts.filter</title>
<path fill="none" stroke="#006400" d="M111.1187,-333.9735C124.9483,-321.1738 143.6868,-303.8308 158.9136,-289.7379"/>
<polygon fill="#006400" stroke="#006400" points="161.5499,-292.0669 166.5116,-282.7057 156.7951,-286.9296 161.5499,-292.0669"/>
<text text-anchor="middle" x="187.1419" y="-304.8" font-family="Times,serif" font-size="14.00" fill="#006400">LOOKUP filter</text>
</g>
<!-- #31» v6 = eval(v5) -->
<g id="node12" class="node">
<title>#31» v6 = eval(v5)</title>
<ellipse fill="none" stroke="#000000" cx="185.6419" cy="-178" rx="79.0865" ry="18"/>
<text text-anchor="middle" x="185.6419" y="-174.3" font-family="Times,serif" font-size="14.00" fill="#000000">#31» v6 = eval(v5)</text>
</g>
<!-- #27» v5 = opts.filter&#45;&gt;#31» v6 = eval(v5) -->
<g id="edge13" class="edge">
<title>#27» v5 = opts.filter&#45;&gt;#31» v6 = eval(v5)</title>
<path fill="none" stroke="#ff0000" d="M184.4278,-246.6941C184.1049,-241.0251 183.8017,-234.7566 183.6419,-229 183.4403,-221.7396 183.5729,-213.9 183.8463,-206.5964"/>
<polygon fill="#ff0000" stroke="#ff0000" points="187.3517,-206.5627 184.3251,-196.4094 180.3594,-206.234 187.3517,-206.5627"/>
</g>
<!-- #27» v5 = opts.filter&#45;&gt;#31» v6 = eval(v5) -->
<g id="edge14" class="edge">
<title>#27» v5 = opts.filter&#45;&gt;#31» v6 = eval(v5)</title>
<path fill="none" stroke="#006400" d="M185.6419,-246.9735C185.6419,-235.1918 185.6419,-219.5607 185.6419,-206.1581"/>
<polygon fill="#006400" stroke="#006400" points="189.142,-206.0033 185.6419,-196.0034 182.142,-206.0034 189.142,-206.0033"/>
<text text-anchor="middle" x="200.1419" y="-217.8" font-family="Times,serif" font-size="14.00" fill="#006400">VAR</text>
</g>
<!-- #7» v2 = !v1&#45;&gt;#10» v3 = opts.collection -->
<g id="edge15" class="edge">
<title>#7» v2 = !v1&#45;&gt;#10» v3 = opts.collection</title>
<path fill="none" stroke="#ff0000" d="M301.0848,-830.1601C283.371,-819.9781 260.0931,-806.598 240.5126,-795.343"/>
<polygon fill="#ff0000" stroke="#ff0000" points="242.2236,-792.2895 231.8095,-790.3405 238.7351,-798.3584 242.2236,-792.2895"/>
</g>
<!-- #7» v2 = !v1&#45;&gt;#14» v4 = v2 &amp;&amp; v3 -->
<g id="edge16" class="edge">
<title>#7» v2 = !v1&#45;&gt;#14» v4 = v2 &amp;&amp; v3</title>
<path fill="none" stroke="#006400" d="M327.4657,-827.9377C325.7424,-809.1162 321.5726,-779.0683 311.6419,-755 305.3085,-739.6504 295.2312,-724.2207 286.0291,-711.8566"/>
<polygon fill="#006400" stroke="#006400" points="288.7247,-709.6202 279.8551,-703.8252 283.175,-713.8865 288.7247,-709.6202"/>
<text text-anchor="middle" x="337.1419" y="-769.3" font-family="Times,serif" font-size="14.00" fill="#006400">VAR</text>
</g>
<!-- #18 IfStatement -->
<g id="node13" class="node">
<title>#18 IfStatement</title>
<ellipse fill="none" stroke="#000000" cx="335.6419" cy="-613" rx="67.6881" ry="18"/>
<text text-anchor="middle" x="335.6419" y="-609.3" font-family="Times,serif" font-size="14.00" fill="#000000">#18 IfStatement</text>
</g>
<!-- #14» v4 = v2 &amp;&amp; v3&#45;&gt;#18 IfStatement -->
<g id="edge17" class="edge">
<title>#14» v4 = v2 &amp;&amp; v3&#45;&gt;#18 IfStatement</title>
<path fill="none" stroke="#ff0000" d="M281.829,-668.3287C290.7245,-659.1827 301.7325,-647.8646 311.4702,-637.8526"/>
<polygon fill="#ff0000" stroke="#ff0000" points="314.1498,-640.1174 318.613,-630.5085 309.1318,-635.2369 314.1498,-640.1174"/>
</g>
<!-- #19 Identifier (v4) -->
<g id="node14" class="node">
<title>#19 Identifier (v4)</title>
<ellipse fill="none" stroke="#000000" cx="245.6419" cy="-526" rx="76.0865" ry="18"/>
<text text-anchor="middle" x="245.6419" y="-522.3" font-family="Times,serif" font-size="14.00" fill="#000000">#19 Identifier (v4)</text>
</g>
<!-- #14» v4 = v2 &amp;&amp; v3&#45;&gt;#19 Identifier (v4) -->
<g id="edge18" class="edge">
<title>#14» v4 = v2 &amp;&amp; v3&#45;&gt;#19 Identifier (v4)</title>
<path fill="none" stroke="#006400" d="M249.4515,-667.9589C241.9,-657.7998 233.5657,-644.4747 229.6419,-631 222.1986,-605.4395 228.2398,-575.3136 234.9232,-553.9013"/>
<polygon fill="#006400" stroke="#006400" points="238.3329,-554.742 238.1995,-544.148 231.6973,-552.513 238.3329,-554.742"/>
<text text-anchor="middle" x="244.1419" y="-609.3" font-family="Times,serif" font-size="14.00" fill="#006400">VAR</text>
</g>
<!-- #35» v6; -->
<g id="node15" class="node">
<title>#35» v6;</title>
<ellipse fill="none" stroke="#000000" cx="185.6419" cy="-91" rx="42.4939" ry="18"/>
<text text-anchor="middle" x="185.6419" y="-87.3" font-family="Times,serif" font-size="14.00" fill="#000000">#35» v6;</text>
</g>
<!-- #31» v6 = eval(v5)&#45;&gt;#35» v6; -->
<g id="edge19" class="edge">
<title>#31» v6 = eval(v5)&#45;&gt;#35» v6;</title>
<path fill="none" stroke="#ff0000" d="M184.4278,-159.6941C184.1049,-154.0251 183.8017,-147.7566 183.6419,-142 183.4403,-134.7396 183.5729,-126.9 183.8463,-119.5964"/>
<polygon fill="#ff0000" stroke="#ff0000" points="187.3517,-119.5627 184.3251,-109.4094 180.3594,-119.234 187.3517,-119.5627"/>
</g>
<!-- #31» v6 = eval(v5)&#45;&gt;#35» v6; -->
<g id="edge20" class="edge">
<title>#31» v6 = eval(v5)&#45;&gt;#35» v6;</title>
<path fill="none" stroke="#006400" d="M185.6419,-159.9735C185.6419,-148.1918 185.6419,-132.5607 185.6419,-119.1581"/>
<polygon fill="#006400" stroke="#006400" points="189.142,-119.0033 185.6419,-109.0034 182.142,-119.0034 189.142,-119.0033"/>
<text text-anchor="middle" x="200.1419" y="-130.8" font-family="Times,serif" font-size="14.00" fill="#006400">VAR</text>
</g>
<!-- #18 IfStatement&#45;&gt;#19 Identifier (v4) -->
<g id="edge21" class="edge">
<title>#18 IfStatement&#45;&gt;#19 Identifier (v4)</title>
<path fill="none" stroke="#ff0000" d="M317.429,-595.3943C304.1322,-582.5407 285.9294,-564.9446 271.181,-550.6878"/>
<polygon fill="#ff0000" stroke="#ff0000" points="273.4501,-548.0133 263.8276,-543.5796 268.5849,-553.0463 273.4501,-548.0133"/>
<text text-anchor="middle" x="306.1419" y="-565.8" font-family="Times,serif" font-size="14.00" fill="#ff0000">test</text>
</g>
<!-- #20» opts.filter = &#39;...&#39;; -->
<g id="node16" class="node">
<title>#20» opts.filter = &#39;...&#39;;</title>
<ellipse fill="none" stroke="#000000" cx="178.6419" cy="-439" rx="87.9851" ry="18"/>
<text text-anchor="middle" x="178.6419" y="-435.3" font-family="Times,serif" font-size="14.00" fill="#000000">#20» opts.filter = &#39;...&#39;;</text>
</g>
<!-- #19 Identifier (v4)&#45;&gt;#20» opts.filter = &#39;...&#39;; -->
<g id="edge22" class="edge">
<title>#19 Identifier (v4)&#45;&gt;#20» opts.filter = &#39;...&#39;;</title>
<path fill="none" stroke="#ff0000" d="M231.7594,-507.9735C222.2369,-495.6085 209.4492,-479.0036 198.8071,-465.1847"/>
<polygon fill="#ff0000" stroke="#ff0000" points="201.3811,-462.7907 192.5065,-457.0034 195.8351,-467.0618 201.3811,-462.7907"/>
<text text-anchor="middle" x="234.6419" y="-478.8" font-family="Times,serif" font-size="14.00" fill="#ff0000">TRUE</text>
</g>
<!-- #42 CFG_IF_END -->
<g id="node17" class="node">
<title>#42 CFG_IF_END</title>
<ellipse fill="none" stroke="#ff0000" cx="279.6419" cy="-352" rx="77.9862" ry="18"/>
<text text-anchor="middle" x="279.6419" y="-348.3" font-family="Times,serif" font-size="14.00" fill="#ff0000">#42 CFG_IF_END</text>
</g>
<!-- #19 Identifier (v4)&#45;&gt;#42 CFG_IF_END -->
<g id="edge23" class="edge">
<title>#19 Identifier (v4)&#45;&gt;#42 CFG_IF_END</title>
<path fill="none" stroke="#ff0000" d="M255.7385,-507.8964C262.7403,-494.3366 271.5198,-475.0848 275.6419,-457 281.4683,-431.4379 282.0135,-401.484 281.3709,-380.1258"/>
<polygon fill="#ff0000" stroke="#ff0000" points="284.8667,-379.9487 280.9632,-370.0992 277.8724,-380.2331 284.8667,-379.9487"/>
<text text-anchor="middle" x="301.6419" y="-435.3" font-family="Times,serif" font-size="14.00" fill="#ff0000">FALSE</text>
</g>
<!-- #41 CFG_F_END 1_search -->
<g id="node18" class="node">
<title>#41 CFG_F_END 1_search</title>
<ellipse fill="none" stroke="#ff0000" cx="185.6419" cy="-18" rx="108.5808" ry="18"/>
<text text-anchor="middle" x="185.6419" y="-14.3" font-family="Times,serif" font-size="14.00" fill="#ff0000">#41 CFG_F_END 1_search</text>
</g>
<!-- #35» v6;&#45;&gt;#41 CFG_F_END 1_search -->
<g id="edge24" class="edge">
<title>#35» v6;&#45;&gt;#41 CFG_F_END 1_search</title>
<path fill="none" stroke="#ff0000" d="M185.6419,-72.9551C185.6419,-64.8828 185.6419,-55.1764 185.6419,-46.1817"/>
<polygon fill="#ff0000" stroke="#ff0000" points="189.142,-46.0903 185.6419,-36.0904 182.142,-46.0904 189.142,-46.0903"/>
</g>
<!-- #20» opts.filter = &#39;...&#39;;&#45;&gt;#44 PDG_OBJECT o2 -->
<g id="edge26" class="edge">
<title>#20» opts.filter = &#39;...&#39;;&#45;&gt;#44 PDG_OBJECT o2</title>
<path fill="none" stroke="#006400" d="M160.6154,-420.9735C147.9331,-408.2912 130.7905,-391.1486 116.7684,-377.1265"/>
<polygon fill="#006400" stroke="#006400" points="118.8935,-374.3019 109.3476,-369.7057 113.9438,-379.2517 118.8935,-374.3019"/>
<text text-anchor="middle" x="177.6419" y="-391.8" font-family="Times,serif" font-size="14.00" fill="#006400">WRITE filter</text>
</g>
<!-- #20» opts.filter = &#39;...&#39;;&#45;&gt;#42 CFG_IF_END -->
<g id="edge25" class="edge">
<title>#20» opts.filter = &#39;...&#39;;&#45;&gt;#42 CFG_IF_END</title>
<path fill="none" stroke="#ff0000" d="M199.0807,-421.3943C214.1396,-408.4228 234.8056,-390.6213 251.4359,-376.2962"/>
<polygon fill="#ff0000" stroke="#ff0000" points="253.941,-378.7579 259.2334,-369.5796 249.3725,-373.4542 253.941,-378.7579"/>
</g>
<!-- #42 CFG_IF_END&#45;&gt;#27» v5 = opts.filter -->
<g id="edge27" class="edge">
<title>#42 CFG_IF_END&#45;&gt;#27» v5 = opts.filter</title>
<path fill="none" stroke="#ff0000" d="M265.0934,-334.2201C256.4105,-324.0434 244.9105,-311.2934 233.6419,-301 228.9984,-296.7584 223.8754,-292.5152 218.7573,-288.507"/>
<polygon fill="#ff0000" stroke="#ff0000" points="220.8639,-285.7119 210.7883,-282.4359 216.6218,-291.2801 220.8639,-285.7119"/>
</g>
</g>
</svg>
