<?xml version="1.0" encoding="UTF-8" standalone="no"?>
<!DOCTYPE svg PUBLIC "-//W3C//DTD SVG 1.1//EN"
 "http://www.w3.org/Graphics/SVG/1.1/DTD/svg11.dtd">
<!-- Generated by graphviz version 2.40.1 (20161225.0304)
 -->
<!-- Title: G Pages: 1 -->
<svg width="680pt" height="1105pt"
 viewBox="0.00 0.00 679.84 1105.00" xmlns="http://www.w3.org/2000/svg" xmlns:xlink="http://www.w3.org/1999/xlink">
<g id="graph0" class="graph" transform="scale(1 1) rotate(0) translate(4 1101)">
<title>G</title>
<polygon fill="#ffffff" stroke="transparent" points="-4,4 -4,-1101 675.8426,-1101 675.8426,4 -4,4"/>
<!-- #36 _main_start -->
<g id="node1" class="node">
<title>#36 _main_start</title>
<ellipse fill="none" stroke="#ff0000" cx="83.8426" cy="-352" rx="68.4888" ry="18"/>
<text text-anchor="middle" x="83.8426" y="-348.3" font-family="Times,serif" font-size="14.00" fill="#ff0000">#36 _main_start</text>
</g>
<!-- #1 Function (search) -->
<g id="node2" class="node">
<title>#1 Function (search)</title>
<ellipse fill="none" stroke="#000000" cx="83.8426" cy="-265" rx="83.6854" ry="18"/>
<text text-anchor="middle" x="83.8426" y="-261.3" font-family="Times,serif" font-size="14.00" fill="#000000">#1 Function (search)</text>
</g>
<!-- #36 _main_start&#45;&gt;#1 Function (search) -->
<g id="edge1" class="edge">
<title>#36 _main_start&#45;&gt;#1 Function (search)</title>
<path fill="none" stroke="#ff0000" d="M83.8426,-333.9735C83.8426,-322.1918 83.8426,-306.5607 83.8426,-293.1581"/>
<polygon fill="#ff0000" stroke="#ff0000" points="87.3427,-293.0033 83.8426,-283.0034 80.3427,-293.0034 87.3427,-293.0033"/>
</g>
<!-- #41 o1 -->
<g id="node5" class="node">
<title>#41 o1</title>
<ellipse fill="none" stroke="#006400" cx="315.8426" cy="-178" rx="35.194" ry="18"/>
<text text-anchor="middle" x="315.8426" y="-174.3" font-family="Times,serif" font-size="14.00" fill="#006400">#41 o1</text>
</g>
<!-- #1 Function (search)&#45;&gt;#41 o1 -->
<g id="edge4" class="edge">
<title>#1 Function (search)&#45;&gt;#41 o1</title>
<path fill="none" stroke="#006400" d="M92.238,-237.6155C96.2308,-228.8225 101.9171,-219.8539 109.8426,-214 134.7569,-195.598 217.9711,-185.7338 270.7033,-181.2012"/>
<polygon fill="#006400" stroke="#006400" points="88.9762,-236.3461 88.5442,-246.9321 95.4835,-238.9261 88.9762,-236.3461"/>
<polygon fill="#006400" stroke="#006400" points="271.1396,-184.6771 280.817,-180.3648 270.5626,-177.7009 271.1396,-184.6771"/>
<text text-anchor="middle" x="149.3426" y="-217.8" font-family="Times,serif" font-size="14.00" fill="#006400">CREATE opts</text>
</g>
<!-- #37 _main_end -->
<g id="node6" class="node">
<title>#37 _main_end</title>
<ellipse fill="none" stroke="#ff0000" cx="75.8426" cy="-178" rx="65.7887" ry="18"/>
<text text-anchor="middle" x="75.8426" y="-174.3" font-family="Times,serif" font-size="14.00" fill="#ff0000">#37 _main_end</text>
</g>
<!-- #1 Function (search)&#45;&gt;#37 _main_end -->
<g id="edge3" class="edge">
<title>#1 Function (search)&#45;&gt;#37 _main_end</title>
<path fill="none" stroke="#ff0000" d="M82.185,-246.9735C81.1016,-235.1918 79.6642,-219.5607 78.4318,-206.1581"/>
<polygon fill="#ff0000" stroke="#ff0000" points="81.8991,-205.6408 77.498,-196.0034 74.9285,-206.2819 81.8991,-205.6408"/>
</g>
<!-- #38 _1_search_start -->
<g id="node3" class="node">
<title>#38 _1_search_start</title>
<ellipse fill="none" stroke="#ff0000" cx="294.8426" cy="-1079" rx="81.4863" ry="18"/>
<text text-anchor="middle" x="294.8426" y="-1075.3" font-family="Times,serif" font-size="14.00" fill="#ff0000">#38 _1_search_start</text>
</g>
<!-- #2» v1 = opts.filter -->
<g id="node4" class="node">
<title>#2» v1 = opts.filter</title>
<ellipse fill="none" stroke="#000000" cx="294.8426" cy="-1006" rx="79.0865" ry="18"/>
<text text-anchor="middle" x="294.8426" y="-1002.3" font-family="Times,serif" font-size="14.00" fill="#000000">#2» v1 = opts.filter</text>
</g>
<!-- #38 _1_search_start&#45;&gt;#2» v1 = opts.filter -->
<g id="edge2" class="edge">
<title>#38 _1_search_start&#45;&gt;#2» v1 = opts.filter</title>
<path fill="none" stroke="#ff0000" d="M294.8426,-1060.9551C294.8426,-1052.8828 294.8426,-1043.1764 294.8426,-1034.1817"/>
<polygon fill="#ff0000" stroke="#ff0000" points="298.3427,-1034.0903 294.8426,-1024.0904 291.3427,-1034.0904 298.3427,-1034.0903"/>
</g>
<!-- #2» v1 = opts.filter&#45;&gt;#41 o1 -->
<g id="edge6" class="edge">
<title>#2» v1 = opts.filter&#45;&gt;#41 o1</title>
<path fill="none" stroke="#006400" d="M250.6573,-984.7503C227.0686,-970.028 202.8426,-947.8783 202.8426,-919 202.8426,-919 202.8426,-919 202.8426,-265 202.8426,-227.1924 243.0489,-203.5337 275.4957,-190.5966"/>
<polygon fill="#006400" stroke="#006400" points="248.8823,-987.7668 259.273,-989.8369 252.4412,-981.739 248.8823,-987.7668"/>
<polygon fill="#006400" stroke="#006400" points="277.1359,-193.7191 285.2631,-186.9221 274.6711,-187.1673 277.1359,-193.7191"/>
<text text-anchor="middle" x="245.3426" y="-595.3" font-family="Times,serif" font-size="14.00" fill="#006400">LOOKUP filter</text>
</g>
<!-- #6» v2 = !v1 -->
<g id="node7" class="node">
<title>#6» v2 = !v1</title>
<ellipse fill="none" stroke="#000000" cx="327.8426" cy="-919" rx="57.3905" ry="18"/>
<text text-anchor="middle" x="327.8426" y="-915.3" font-family="Times,serif" font-size="14.00" fill="#000000">#6» v2 = !v1</text>
</g>
<!-- #2» v1 = opts.filter&#45;&gt;#6» v2 = !v1 -->
<g id="edge5" class="edge">
<title>#2» v1 = opts.filter&#45;&gt;#6» v2 = !v1</title>
<path fill="none" stroke="#ff0000" d="M298.8295,-987.7491C301.2382,-977.8832 304.6537,-965.5867 308.8426,-955 310.0012,-952.0716 311.3322,-949.0719 312.7405,-946.1144"/>
<polygon fill="#ff0000" stroke="#ff0000" points="315.9863,-947.4521 317.3855,-936.9501 309.7426,-944.2874 315.9863,-947.4521"/>
</g>
<!-- #6» v2 = !v1&#45;&gt;#2» v1 = opts.filter -->
<g id="edge8" class="edge">
<title>#6» v2 = !v1&#45;&gt;#2» v1 = opts.filter</title>
<path fill="none" stroke="#006400" d="M317.3503,-946.6615C313.4782,-956.8696 309.095,-968.4253 305.2321,-978.6093"/>
<polygon fill="#006400" stroke="#006400" points="320.7396,-947.5947 321.0137,-937.0034 314.1946,-945.112 320.7396,-947.5947"/>
<polygon fill="#006400" stroke="#006400" points="301.9543,-977.3822 301.6802,-987.9735 308.4993,-979.8649 301.9543,-977.3822"/>
<text text-anchor="middle" x="327.3426" y="-958.8" font-family="Times,serif" font-size="14.00" fill="#006400">VAR</text>
</g>
<!-- #9» v3 = opts.collection -->
<g id="node8" class="node">
<title>#9» v3 = opts.collection</title>
<ellipse fill="none" stroke="#000000" cx="327.8426" cy="-846" rx="96.6831" ry="18"/>
<text text-anchor="middle" x="327.8426" y="-842.3" font-family="Times,serif" font-size="14.00" fill="#000000">#9» v3 = opts.collection</text>
</g>
<!-- #6» v2 = !v1&#45;&gt;#9» v3 = opts.collection -->
<g id="edge7" class="edge">
<title>#6» v2 = !v1&#45;&gt;#9» v3 = opts.collection</title>
<path fill="none" stroke="#ff0000" d="M327.8426,-900.9551C327.8426,-892.8828 327.8426,-883.1764 327.8426,-874.1817"/>
<polygon fill="#ff0000" stroke="#ff0000" points="331.3427,-874.0903 327.8426,-864.0904 324.3427,-874.0904 331.3427,-874.0903"/>
</g>
<!-- #9» v3 = opts.collection&#45;&gt;#41 o1 -->
<g id="edge10" class="edge">
<title>#9» v3 = opts.collection&#45;&gt;#41 o1</title>
<path fill="none" stroke="#006400" d="M321.9843,-817.9306C318.9378,-800.9519 315.8426,-778.8237 315.8426,-759 315.8426,-759 315.8426,-759 315.8426,-265 315.8426,-245.5475 315.8426,-223.6484 315.8426,-206.6877"/>
<polygon fill="#006400" stroke="#006400" points="318.5479,-818.5956 323.8467,-827.7702 325.4258,-817.2937 318.5479,-818.5956"/>
<polygon fill="#006400" stroke="#006400" points="319.3427,-206.3305 315.8426,-196.3306 312.3427,-206.3306 319.3427,-206.3305"/>
<text text-anchor="middle" x="371.8426" y="-508.3" font-family="Times,serif" font-size="14.00" fill="#006400">LOOKUP collection</text>
</g>
<!-- #13» v4 = v2 &amp;&amp; v3 -->
<g id="node9" class="node">
<title>#13» v4 = v2 &amp;&amp; v3</title>
<ellipse fill="none" stroke="#000000" cx="430.8426" cy="-759" rx="87.1846" ry="18"/>
<text text-anchor="middle" x="430.8426" y="-755.3" font-family="Times,serif" font-size="14.00" fill="#000000">#13» v4 = v2 &amp;&amp; v3</text>
</g>
<!-- #9» v3 = opts.collection&#45;&gt;#13» v4 = v2 &amp;&amp; v3 -->
<g id="edge9" class="edge">
<title>#9» v3 = opts.collection&#45;&gt;#13» v4 = v2 &amp;&amp; v3</title>
<path fill="none" stroke="#ff0000" d="M346.6635,-828.1223C357.3647,-818.146 371.1293,-805.6253 383.8426,-795 388.7076,-790.934 393.9571,-786.7372 399.1232,-782.7087"/>
<polygon fill="#ff0000" stroke="#ff0000" points="401.3193,-785.4351 407.1056,-776.5598 397.0476,-779.8896 401.3193,-785.4351"/>
</g>
<!-- #13» v4 = v2 &amp;&amp; v3&#45;&gt;#6» v2 = !v1 -->
<g id="edge12" class="edge">
<title>#13» v4 = v2 &amp;&amp; v3&#45;&gt;#6» v2 = !v1</title>
<path fill="none" stroke="#006400" d="M439.518,-787.153C444.6831,-809.6062 447.8239,-840.9942 433.8426,-864 422.3165,-882.9658 401.8955,-895.6872 382.0338,-904.0703"/>
<polygon fill="#006400" stroke="#006400" points="442.8466,-786.043 436.9716,-777.2263 436.0661,-787.7824 442.8466,-786.043"/>
<polygon fill="#006400" stroke="#006400" points="380.7122,-900.829 372.6769,-907.7344 383.2646,-907.3471 380.7122,-900.829"/>
<text text-anchor="middle" x="457.3426" y="-842.3" font-family="Times,serif" font-size="14.00" fill="#006400">VAR</text>
</g>
<!-- #13» v4 = v2 &amp;&amp; v3&#45;&gt;#9» v3 = opts.collection -->
<g id="edge13" class="edge">
<title>#13» v4 = v2 &amp;&amp; v3&#45;&gt;#9» v3 = opts.collection</title>
<path fill="none" stroke="#006400" d="M409.5563,-784.6266C401.882,-793.1566 392.877,-802.4095 383.8426,-810 378.4321,-814.5457 372.4118,-818.9736 366.3816,-823.0805"/>
<polygon fill="#006400" stroke="#006400" points="412.2273,-786.8892 416.1926,-777.0644 406.9659,-782.272 412.2273,-786.8892"/>
<polygon fill="#006400" stroke="#006400" points="364.0446,-820.4281 357.6093,-828.8445 367.8886,-826.2782 364.0446,-820.4281"/>
<text text-anchor="middle" x="413.3426" y="-798.8" font-family="Times,serif" font-size="14.00" fill="#006400">VAR</text>
</g>
<!-- #17 IfStatement -->
<g id="node10" class="node">
<title>#17 IfStatement</title>
<ellipse fill="none" stroke="#000000" cx="428.8426" cy="-686" rx="67.6881" ry="18"/>
<text text-anchor="middle" x="428.8426" y="-682.3" font-family="Times,serif" font-size="14.00" fill="#000000">#17 IfStatement</text>
</g>
<!-- #13» v4 = v2 &amp;&amp; v3&#45;&gt;#17 IfStatement -->
<g id="edge11" class="edge">
<title>#13» v4 = v2 &amp;&amp; v3&#45;&gt;#17 IfStatement</title>
<path fill="none" stroke="#ff0000" d="M430.3482,-740.9551C430.127,-732.8828 429.8611,-723.1764 429.6147,-714.1817"/>
<polygon fill="#ff0000" stroke="#ff0000" points="433.1108,-713.9907 429.3382,-704.0904 426.1135,-714.1825 433.1108,-713.9907"/>
</g>
<!-- #18 Identifier (v4) -->
<g id="node11" class="node">
<title>#18 Identifier (v4)</title>
<ellipse fill="none" stroke="#000000" cx="532.8426" cy="-599" rx="76.0865" ry="18"/>
<text text-anchor="middle" x="532.8426" y="-595.3" font-family="Times,serif" font-size="14.00" fill="#000000">#18 Identifier (v4)</text>
</g>
<!-- #17 IfStatement&#45;&gt;#18 Identifier (v4) -->
<g id="edge14" class="edge">
<title>#17 IfStatement&#45;&gt;#18 Identifier (v4)</title>
<path fill="none" stroke="#ff0000" d="M449.3896,-668.8116C464.9565,-655.7893 486.5473,-637.7277 503.8677,-623.2386"/>
<polygon fill="#ff0000" stroke="#ff0000" points="506.5578,-625.5514 511.9822,-616.4505 502.0664,-620.1823 506.5578,-625.5514"/>
<text text-anchor="middle" x="496.3426" y="-638.8" font-family="Times,serif" font-size="14.00" fill="#ff0000">test</text>
</g>
<!-- #18 Identifier (v4)&#45;&gt;#13» v4 = v2 &amp;&amp; v3 -->
<g id="edge17" class="edge">
<title>#18 Identifier (v4)&#45;&gt;#13» v4 = v2 &amp;&amp; v3</title>
<path fill="none" stroke="#006400" d="M530.7566,-627.4547C527.9449,-649.8843 521.3431,-681.0915 505.8426,-704 497.1672,-716.8215 484.4704,-727.7536 471.9812,-736.4132"/>
<polygon fill="#006400" stroke="#006400" points="534.2675,-627.5402 531.8548,-617.2237 527.3074,-626.793 534.2675,-627.5402"/>
<polygon fill="#006400" stroke="#006400" points="469.8539,-733.6231 463.42,-742.0406 473.6989,-739.4726 469.8539,-733.6231"/>
<text text-anchor="middle" x="536.3426" y="-682.3" font-family="Times,serif" font-size="14.00" fill="#006400">VAR</text>
</g>
<!-- #25 BlockStatement -->
<g id="node12" class="node">
<title>#25 BlockStatement</title>
<ellipse fill="none" stroke="#000000" cx="528.8426" cy="-512" rx="83.3857" ry="18"/>
<text text-anchor="middle" x="528.8426" y="-508.3" font-family="Times,serif" font-size="14.00" fill="#000000">#25 BlockStatement</text>
</g>
<!-- #18 Identifier (v4)&#45;&gt;#25 BlockStatement -->
<g id="edge15" class="edge">
<title>#18 Identifier (v4)&#45;&gt;#25 BlockStatement</title>
<path fill="none" stroke="#ff0000" d="M532.0138,-580.9735C531.4721,-569.1918 530.7534,-553.5607 530.1372,-540.1581"/>
<polygon fill="#ff0000" stroke="#ff0000" points="533.626,-539.832 529.6703,-530.0034 526.6334,-540.1536 533.626,-539.832"/>
<text text-anchor="middle" x="548.8426" y="-551.8" font-family="Times,serif" font-size="14.00" fill="#ff0000">TRUE</text>
</g>
<!-- #40 _17_end_if -->
<g id="node13" class="node">
<title>#40 _17_end_if</title>
<ellipse fill="none" stroke="#ff0000" cx="521.8426" cy="-352" rx="66.0889" ry="18"/>
<text text-anchor="middle" x="521.8426" y="-348.3" font-family="Times,serif" font-size="14.00" fill="#ff0000">#40 _17_end_if</text>
</g>
<!-- #18 Identifier (v4)&#45;&gt;#40 _17_end_if -->
<g id="edge16" class="edge">
<title>#18 Identifier (v4)&#45;&gt;#40 _17_end_if</title>
<path fill="none" stroke="#ff0000" d="M566.4407,-582.5997C586.2327,-570.9345 609.5436,-553.2175 620.8426,-530 630.0113,-511.1597 637.9718,-438.986 618.8426,-407 608.9497,-390.4582 592.08,-378.4641 575.1567,-369.9824"/>
<polygon fill="#ff0000" stroke="#ff0000" points="576.3364,-366.671 565.7933,-365.6251 573.383,-373.0174 576.3364,-366.671"/>
<text text-anchor="middle" x="650.8426" y="-464.8" font-family="Times,serif" font-size="14.00" fill="#ff0000">FALSE</text>
</g>
<!-- #19» opts.filter = &#39;...&#39;; -->
<g id="node14" class="node">
<title>#19» opts.filter = &#39;...&#39;;</title>
<ellipse fill="none" stroke="#000000" cx="521.8426" cy="-425" rx="87.9851" ry="18"/>
<text text-anchor="middle" x="521.8426" y="-421.3" font-family="Times,serif" font-size="14.00" fill="#000000">#19» opts.filter = &#39;...&#39;;</text>
</g>
<!-- #25 BlockStatement&#45;&gt;#19» opts.filter = &#39;...&#39;; -->
<g id="edge18" class="edge">
<title>#25 BlockStatement&#45;&gt;#19» opts.filter = &#39;...&#39;;</title>
<path fill="none" stroke="#ff0000" d="M527.3922,-493.9735C526.4442,-482.1918 525.1865,-466.5607 524.1082,-453.1581"/>
<polygon fill="#ff0000" stroke="#ff0000" points="527.5819,-452.6904 523.2911,-443.0034 520.6045,-453.2519 527.5819,-452.6904"/>
</g>
<!-- #26» v5 = opts.filter -->
<g id="node15" class="node">
<title>#26» v5 = opts.filter</title>
<ellipse fill="none" stroke="#000000" cx="519.8426" cy="-265" rx="83.6854" ry="18"/>
<text text-anchor="middle" x="519.8426" y="-261.3" font-family="Times,serif" font-size="14.00" fill="#000000">#26» v5 = opts.filter</text>
</g>
<!-- #40 _17_end_if&#45;&gt;#26» v5 = opts.filter -->
<g id="edge19" class="edge">
<title>#40 _17_end_if&#45;&gt;#26» v5 = opts.filter</title>
<path fill="none" stroke="#ff0000" d="M521.4282,-333.9735C521.1573,-322.1918 520.798,-306.5607 520.4899,-293.1581"/>
<polygon fill="#ff0000" stroke="#ff0000" points="523.9854,-292.9202 520.2564,-283.0034 516.9873,-293.0812 523.9854,-292.9202"/>
</g>
<!-- #19» opts.filter = &#39;...&#39;;&#45;&gt;#41 o1 -->
<g id="edge21" class="edge">
<title>#19» opts.filter = &#39;...&#39;;&#45;&gt;#41 o1</title>
<path fill="none" stroke="#006400" d="M485.3928,-402.0171C472.4417,-392.9176 458.2571,-381.8095 446.8426,-370 396.2988,-317.7075 351.9941,-243.8829 330.1948,-204.7616"/>
<polygon fill="#006400" stroke="#006400" points="483.4554,-404.9324 493.684,-407.694 487.4101,-399.1565 483.4554,-404.9324"/>
<polygon fill="#006400" stroke="#006400" points="333.0376,-202.6681 325.1474,-195.5974 326.9061,-206.0453 333.0376,-202.6681"/>
<text text-anchor="middle" x="437.8426" y="-304.8" font-family="Times,serif" font-size="14.00" fill="#006400">WRITE filter</text>
</g>
<!-- #19» opts.filter = &#39;...&#39;;&#45;&gt;#40 _17_end_if -->
<g id="edge20" class="edge">
<title>#19» opts.filter = &#39;...&#39;;&#45;&gt;#40 _17_end_if</title>
<path fill="none" stroke="#ff0000" d="M521.8426,-406.9551C521.8426,-398.8828 521.8426,-389.1764 521.8426,-380.1817"/>
<polygon fill="#ff0000" stroke="#ff0000" points="525.3427,-380.0903 521.8426,-370.0904 518.3427,-380.0904 525.3427,-380.0903"/>
</g>
<!-- #26» v5 = opts.filter&#45;&gt;#41 o1 -->
<g id="edge23" class="edge">
<title>#26» v5 = opts.filter&#45;&gt;#41 o1</title>
<path fill="none" stroke="#006400" d="M472.6191,-244.8606C436.0557,-229.2673 386.1412,-207.9803 352.5404,-193.6505"/>
<polygon fill="#006400" stroke="#006400" points="471.3784,-248.1364 481.9498,-248.8399 474.1244,-241.6975 471.3784,-248.1364"/>
<polygon fill="#006400" stroke="#006400" points="353.6668,-190.326 343.0954,-189.6225 350.9208,-196.7649 353.6668,-190.326"/>
<text text-anchor="middle" x="472.3426" y="-217.8" font-family="Times,serif" font-size="14.00" fill="#006400">LOOKUP filter</text>
</g>
<!-- #30» v6 = eval(v5) -->
<g id="node16" class="node">
<title>#30» v6 = eval(v5)</title>
<ellipse fill="none" stroke="#000000" cx="534.8426" cy="-178" rx="79.0865" ry="18"/>
<text text-anchor="middle" x="534.8426" y="-174.3" font-family="Times,serif" font-size="14.00" fill="#000000">#30» v6 = eval(v5)</text>
</g>
<!-- #26» v5 = opts.filter&#45;&gt;#30» v6 = eval(v5) -->
<g id="edge22" class="edge">
<title>#26» v5 = opts.filter&#45;&gt;#30» v6 = eval(v5)</title>
<path fill="none" stroke="#ff0000" d="M522.9506,-246.9735C524.9819,-235.1918 527.6769,-219.5607 529.9877,-206.1581"/>
<polygon fill="#ff0000" stroke="#ff0000" points="533.4885,-206.4527 531.7385,-196.0034 526.5903,-205.2633 533.4885,-206.4527"/>
</g>
<!-- #30» v6 = eval(v5)&#45;&gt;#26» v5 = opts.filter -->
<g id="edge25" class="edge">
<title>#30» v6 = eval(v5)&#45;&gt;#26» v5 = opts.filter</title>
<path fill="none" stroke="#006400" d="M532.9667,-206.1066C532.2283,-213.5834 531.2169,-221.6289 529.8426,-229 529.3469,-231.6583 528.7475,-234.4055 528.0913,-237.1421"/>
<polygon fill="#006400" stroke="#006400" points="536.4621,-206.3097 533.8382,-196.0449 529.4882,-205.7056 536.4621,-206.3097"/>
<polygon fill="#006400" stroke="#006400" points="524.7021,-236.2686 525.5496,-246.8295 531.4729,-238.0451 524.7021,-236.2686"/>
<text text-anchor="middle" x="546.3426" y="-217.8" font-family="Times,serif" font-size="14.00" fill="#006400">VAR</text>
</g>
<!-- #34» v6; -->
<g id="node17" class="node">
<title>#34» v6;</title>
<ellipse fill="none" stroke="#000000" cx="533.8426" cy="-91" rx="42.4939" ry="18"/>
<text text-anchor="middle" x="533.8426" y="-87.3" font-family="Times,serif" font-size="14.00" fill="#000000">#34» v6;</text>
</g>
<!-- #30» v6 = eval(v5)&#45;&gt;#34» v6; -->
<g id="edge24" class="edge">
<title>#30» v6 = eval(v5)&#45;&gt;#34» v6;</title>
<path fill="none" stroke="#ff0000" d="M533.0217,-159.7043C532.5372,-154.0358 532.0824,-147.7649 531.8426,-142 531.5407,-134.743 531.6372,-126.9047 531.9079,-119.6012"/>
<polygon fill="#ff0000" stroke="#ff0000" points="535.4134,-119.5718 532.403,-109.4136 528.4216,-119.2319 535.4134,-119.5718"/>
</g>
<!-- #34» v6;&#45;&gt;#30» v6 = eval(v5) -->
<g id="edge27" class="edge">
<title>#34» v6;&#45;&gt;#30» v6 = eval(v5)</title>
<path fill="none" stroke="#006400" d="M534.1654,-119.0897C534.2785,-128.9266 534.4054,-139.971 534.5186,-149.8156"/>
<polygon fill="#006400" stroke="#006400" points="537.6643,-118.9624 534.0495,-109.0034 530.6648,-119.043 537.6643,-118.9624"/>
<polygon fill="#006400" stroke="#006400" points="531.0206,-150.0145 534.6354,-159.9735 538.0201,-149.9339 531.0206,-150.0145"/>
<text text-anchor="middle" x="548.3426" y="-130.8" font-family="Times,serif" font-size="14.00" fill="#006400">VAR</text>
</g>
<!-- #39 _1_search_end -->
<g id="node18" class="node">
<title>#39 _1_search_end</title>
<ellipse fill="none" stroke="#ff0000" cx="533.8426" cy="-18" rx="79.0865" ry="18"/>
<text text-anchor="middle" x="533.8426" y="-14.3" font-family="Times,serif" font-size="14.00" fill="#ff0000">#39 _1_search_end</text>
</g>
<!-- #34» v6;&#45;&gt;#39 _1_search_end -->
<g id="edge26" class="edge">
<title>#34» v6;&#45;&gt;#39 _1_search_end</title>
<path fill="none" stroke="#ff0000" d="M533.8426,-72.9551C533.8426,-64.8828 533.8426,-55.1764 533.8426,-46.1817"/>
<polygon fill="#ff0000" stroke="#ff0000" points="537.3427,-46.0903 533.8426,-36.0904 530.3427,-46.0904 537.3427,-46.0903"/>
</g>
</g>
</svg>
