<?xml version="1.0" encoding="UTF-8" standalone="no"?>
<!DOCTYPE svg PUBLIC "-//W3C//DTD SVG 1.1//EN"
 "http://www.w3.org/Graphics/SVG/1.1/DTD/svg11.dtd">
<!-- Generated by graphviz version 2.40.1 (20161225.0304)
 -->
<!-- Title: G Pages: 1 -->
<svg width="1510pt" height="1262pt"
 viewBox="0.00 0.00 1509.58 1262.00" xmlns="http://www.w3.org/2000/svg" xmlns:xlink="http://www.w3.org/1999/xlink">
<g id="graph0" class="graph" transform="scale(1 1) rotate(0) translate(4 1258)">
<title>G</title>
<polygon fill="#ffffff" stroke="transparent" points="-4,4 -4,-1258 1505.5836,-1258 1505.5836,4 -4,4"/>
<!-- #0 Program -->
<g id="node1" class="node">
<title>#0 Program</title>
<ellipse fill="none" stroke="#000000" cx="1037.0433" cy="-1236" rx="52.7911" ry="18"/>
<text text-anchor="middle" x="1037.0433" y="-1232.3" font-family="Times,serif" font-size="14.00" fill="#000000">#0 Program</text>
</g>
<!-- #1 Function (search) -->
<g id="node2" class="node">
<title>#1 Function (search)</title>
<ellipse fill="none" stroke="#000000" cx="1125.0433" cy="-1149" rx="83.6854" ry="18"/>
<text text-anchor="middle" x="1125.0433" y="-1145.3" font-family="Times,serif" font-size="14.00" fill="#000000">#1 Function (search)</text>
</g>
<!-- #0 Program&#45;&gt;#1 Function (search) -->
<g id="edge1" class="edge">
<title>#0 Program&#45;&gt;#1 Function (search)</title>
<path fill="none" stroke="#0000ff" d="M1054.4292,-1218.8116C1067.3962,-1205.992 1085.3028,-1188.2889 1099.839,-1173.9179"/>
<polygon fill="#0000ff" stroke="#0000ff" points="1102.4386,-1176.2696 1107.0892,-1166.75 1097.5172,-1171.2916 1102.4386,-1176.2696"/>
<text text-anchor="middle" x="1090.5433" y="-1188.8" font-family="Times,serif" font-size="14.00" fill="#0000ff">1</text>
</g>
<!-- #43 PDG_OBJECT o1 -->
<g id="node6" class="node">
<title>#43 PDG_OBJECT o1</title>
<ellipse fill="none" stroke="#006400" cx="807.0433" cy="-1062" rx="91.784" ry="18"/>
<text text-anchor="middle" x="807.0433" y="-1058.3" font-family="Times,serif" font-size="14.00" fill="#006400">#43 PDG_OBJECT o1</text>
</g>
<!-- #1 Function (search)&#45;&gt;#43 PDG_OBJECT o1 -->
<g id="edge10" class="edge">
<title>#1 Function (search)&#45;&gt;#43 PDG_OBJECT o1</title>
<path fill="none" stroke="#006400" d="M1066.3513,-1136.0438C1038.0429,-1129.5544 1003.6622,-1121.3198 973.0433,-1113 936.5258,-1103.0774 895.9123,-1090.6249 863.9978,-1080.5087"/>
<polygon fill="#006400" stroke="#006400" points="864.9773,-1077.1475 854.3867,-1077.4495 862.8541,-1083.8177 864.9773,-1077.1475"/>
<text text-anchor="middle" x="1012.5433" y="-1101.8" font-family="Times,serif" font-size="14.00" fill="#006400">CREATE opts</text>
</g>
<!-- #2 Identifier (opts) -->
<g id="node9" class="node">
<title>#2 Identifier (opts)</title>
<ellipse fill="none" stroke="#000000" cx="1179.0433" cy="-1062" rx="77.1866" ry="18"/>
<text text-anchor="middle" x="1179.0433" y="-1058.3" font-family="Times,serif" font-size="14.00" fill="#000000">#2 Identifier (opts)</text>
</g>
<!-- #1 Function (search)&#45;&gt;#2 Identifier (opts) -->
<g id="edge7" class="edge">
<title>#1 Function (search)&#45;&gt;#2 Identifier (opts)</title>
<path fill="none" stroke="#0000ff" d="M1136.2321,-1130.9735C1143.8345,-1118.7252 1154.0192,-1102.3165 1162.5475,-1088.5766"/>
<polygon fill="#0000ff" stroke="#0000ff" points="1165.5688,-1090.3456 1167.8688,-1080.0034 1159.6213,-1086.654 1165.5688,-1090.3456"/>
<text text-anchor="middle" x="1179.0433" y="-1101.8" font-family="Times,serif" font-size="14.00" fill="#0000ff">param 1</text>
</g>
<!-- #37 BlockStatement -->
<g id="node10" class="node">
<title>#37 BlockStatement</title>
<ellipse fill="none" stroke="#000000" cx="1000.0433" cy="-1062" rx="83.3857" ry="18"/>
<text text-anchor="middle" x="1000.0433" y="-1058.3" font-family="Times,serif" font-size="14.00" fill="#000000">#37 BlockStatement</text>
</g>
<!-- #1 Function (search)&#45;&gt;#37 BlockStatement -->
<g id="edge8" class="edge">
<title>#1 Function (search)&#45;&gt;#37 BlockStatement</title>
<path fill="none" stroke="#0000ff" d="M1100.0481,-1131.6033C1080.8867,-1118.267 1054.262,-1099.7362 1033.3018,-1085.1479"/>
<polygon fill="#0000ff" stroke="#0000ff" points="1035.2023,-1082.2064 1024.9951,-1079.3665 1031.2034,-1087.9518 1035.2023,-1082.2064"/>
<text text-anchor="middle" x="1085.5433" y="-1101.8" font-family="Times,serif" font-size="14.00" fill="#0000ff">block</text>
</g>
<!-- #39 CFG_F_END main -->
<g id="node11" class="node">
<title>#39 CFG_F_END main</title>
<ellipse fill="none" stroke="#ff0000" cx="1370.0433" cy="-1062" rx="95.5831" ry="18"/>
<text text-anchor="middle" x="1370.0433" y="-1058.3" font-family="Times,serif" font-size="14.00" fill="#ff0000">#39 CFG_F_END main</text>
</g>
<!-- #1 Function (search)&#45;&gt;#39 CFG_F_END main -->
<g id="edge9" class="edge">
<title>#1 Function (search)&#45;&gt;#39 CFG_F_END main</title>
<path fill="none" stroke="#ff0000" d="M1168.562,-1133.5464C1209.5561,-1118.9893 1271.1216,-1097.1273 1315.4033,-1081.4028"/>
<polygon fill="#ff0000" stroke="#ff0000" points="1316.6044,-1084.6904 1324.8567,-1078.0458 1314.262,-1078.094 1316.6044,-1084.6904"/>
</g>
<!-- #38 CFG_F_START main -->
<g id="node3" class="node">
<title>#38 CFG_F_START main</title>
<ellipse fill="none" stroke="#ff0000" cx="1213.0433" cy="-1236" rx="105.0817" ry="18"/>
<text text-anchor="middle" x="1213.0433" y="-1232.3" font-family="Times,serif" font-size="14.00" fill="#ff0000">#38 CFG_F_START main</text>
</g>
<!-- #38 CFG_F_START main&#45;&gt;#1 Function (search) -->
<g id="edge2" class="edge">
<title>#38 CFG_F_START main&#45;&gt;#1 Function (search)</title>
<path fill="none" stroke="#ff0000" d="M1194.8096,-1217.9735C1181.8627,-1205.1738 1164.3204,-1187.8308 1150.0654,-1173.7379"/>
<polygon fill="#ff0000" stroke="#ff0000" points="1152.5245,-1171.2473 1142.9525,-1166.7057 1147.6031,-1176.2253 1152.5245,-1171.2473"/>
</g>
<!-- #40 CFG_F_START 1_search -->
<g id="node4" class="node">
<title>#40 CFG_F_START 1_search</title>
<ellipse fill="none" stroke="#ff0000" cx="563.0433" cy="-1062" rx="118.0794" ry="18"/>
<text text-anchor="middle" x="563.0433" y="-1058.3" font-family="Times,serif" font-size="14.00" fill="#ff0000">#40 CFG_F_START 1_search</text>
</g>
<!-- #3 Variable (v1) -->
<g id="node5" class="node">
<title>#3 Variable (v1)</title>
<ellipse fill="none" stroke="#000000" cx="585.0433" cy="-975" rx="69.5877" ry="18"/>
<text text-anchor="middle" x="585.0433" y="-971.3" font-family="Times,serif" font-size="14.00" fill="#000000">#3 Variable (v1)</text>
</g>
<!-- #40 CFG_F_START 1_search&#45;&gt;#3 Variable (v1) -->
<g id="edge3" class="edge">
<title>#40 CFG_F_START 1_search&#45;&gt;#3 Variable (v1)</title>
<path fill="none" stroke="#ff0000" d="M567.6017,-1043.9735C570.6105,-1032.0751 574.612,-1016.2508 578.0233,-1002.7606"/>
<polygon fill="#ff0000" stroke="#ff0000" points="581.4322,-1003.5563 580.4907,-993.0034 574.6458,-1001.8401 581.4322,-1003.5563"/>
</g>
<!-- #4 MemberExpression -->
<g id="node12" class="node">
<title>#4 MemberExpression</title>
<ellipse fill="none" stroke="#000000" cx="284.0433" cy="-888" rx="91.784" ry="18"/>
<text text-anchor="middle" x="284.0433" y="-884.3" font-family="Times,serif" font-size="14.00" fill="#000000">#4 MemberExpression</text>
</g>
<!-- #3 Variable (v1)&#45;&gt;#4 MemberExpression -->
<g id="edge11" class="edge">
<title>#3 Variable (v1)&#45;&gt;#4 MemberExpression</title>
<path fill="none" stroke="#0000ff" d="M538.3423,-961.5017C486.44,-946.5 402.425,-922.2166 345.2858,-905.7013"/>
<polygon fill="#0000ff" stroke="#0000ff" points="346.2289,-902.3307 335.6503,-902.9163 344.2852,-909.0555 346.2289,-902.3307"/>
<text text-anchor="middle" x="462.5433" y="-927.8" font-family="Times,serif" font-size="14.00" fill="#0000ff">init</text>
</g>
<!-- #7 Variable (v2) -->
<g id="node13" class="node">
<title>#7 Variable (v2)</title>
<ellipse fill="none" stroke="#000000" cx="617.0433" cy="-888" rx="69.5877" ry="18"/>
<text text-anchor="middle" x="617.0433" y="-884.3" font-family="Times,serif" font-size="14.00" fill="#000000">#7 Variable (v2)</text>
</g>
<!-- #3 Variable (v1)&#45;&gt;#7 Variable (v2) -->
<g id="edge12" class="edge">
<title>#3 Variable (v1)&#45;&gt;#7 Variable (v2)</title>
<path fill="none" stroke="#ff0000" d="M599.132,-957.1649C602.8918,-951.6178 606.5873,-945.2985 609.0433,-939 611.7874,-931.9624 613.5918,-924.031 614.7778,-916.5569"/>
<polygon fill="#ff0000" stroke="#ff0000" points="618.2751,-916.8005 616.0761,-906.4364 611.332,-915.9098 618.2751,-916.8005"/>
</g>
<!-- #3 Variable (v1)&#45;&gt;#7 Variable (v2) -->
<g id="edge13" class="edge">
<title>#3 Variable (v1)&#45;&gt;#7 Variable (v2)</title>
<path fill="none" stroke="#006400" d="M576.8232,-956.8864C573.4782,-946.8362 571.371,-934.3203 576.0433,-924 578.0381,-919.5936 580.8684,-915.5128 584.1215,-911.8029"/>
<polygon fill="#006400" stroke="#006400" points="586.6242,-914.2502 591.2604,-904.7235 581.6952,-909.2798 586.6242,-914.2502"/>
<text text-anchor="middle" x="590.5433" y="-927.8" font-family="Times,serif" font-size="14.00" fill="#006400">VAR</text>
</g>
<!-- #43 PDG_OBJECT o1&#45;&gt;#3 Variable (v1) -->
<g id="edge4" class="edge">
<title>#43 PDG_OBJECT o1&#45;&gt;#3 Variable (v1)</title>
<path fill="none" stroke="#006400" d="M735.4119,-1050.664C675.595,-1041.0528 599.6452,-1028.4471 597.0433,-1026 590.731,-1020.0634 587.455,-1011.4826 585.8295,-1003.0477"/>
<polygon fill="#006400" stroke="#006400" points="589.2891,-1002.5059 584.5723,-993.0189 582.3434,-1003.3766 589.2891,-1002.5059"/>
<text text-anchor="middle" x="639.5433" y="-1014.8" font-family="Times,serif" font-size="14.00" fill="#006400">LOOKUP filter</text>
</g>
<!-- #10 Variable (v3) -->
<g id="node7" class="node">
<title>#10 Variable (v3)</title>
<ellipse fill="none" stroke="#000000" cx="726.0433" cy="-801" rx="73.387" ry="18"/>
<text text-anchor="middle" x="726.0433" y="-797.3" font-family="Times,serif" font-size="14.00" fill="#000000">#10 Variable (v3)</text>
</g>
<!-- #43 PDG_OBJECT o1&#45;&gt;#10 Variable (v3) -->
<g id="edge5" class="edge">
<title>#43 PDG_OBJECT o1&#45;&gt;#10 Variable (v3)</title>
<path fill="none" stroke="#006400" d="M790.5879,-1044.1215C771.0635,-1021.5828 739.5808,-980.7165 727.0433,-939 716.0367,-902.3775 718.366,-857.778 721.6805,-829.3843"/>
<polygon fill="#006400" stroke="#006400" points="725.1673,-829.7112 722.9733,-819.346 718.2246,-828.817 725.1673,-829.7112"/>
<text text-anchor="middle" x="783.0433" y="-927.8" font-family="Times,serif" font-size="14.00" fill="#006400">LOOKUP collection</text>
</g>
<!-- #27 Variable (v5) -->
<g id="node8" class="node">
<title>#27 Variable (v5)</title>
<ellipse fill="none" stroke="#000000" cx="996.0433" cy="-279" rx="73.387" ry="18"/>
<text text-anchor="middle" x="996.0433" y="-275.3" font-family="Times,serif" font-size="14.00" fill="#000000">#27 Variable (v5)</text>
</g>
<!-- #43 PDG_OBJECT o1&#45;&gt;#27 Variable (v5) -->
<g id="edge6" class="edge">
<title>#43 PDG_OBJECT o1&#45;&gt;#27 Variable (v5)</title>
<path fill="none" stroke="#006400" d="M834.6529,-1044.7946C841.6698,-1039.4354 848.7205,-1033.0571 854.0433,-1026 863.5357,-1013.4148 861.3444,-1007.6975 867.0433,-993 935.3853,-816.7453 982.0433,-772.5406 982.0433,-583.5 982.0433,-583.5 982.0433,-583.5 982.0433,-366 982.0433,-346.1096 985.6544,-323.9824 989.2086,-307.0209"/>
<polygon fill="#006400" stroke="#006400" points="992.6399,-307.7135 991.3815,-297.1937 985.805,-306.2022 992.6399,-307.7135"/>
<text text-anchor="middle" x="1021.5433" y="-666.8" font-family="Times,serif" font-size="14.00" fill="#006400">LOOKUP filter</text>
</g>
<!-- #11 MemberExpression -->
<g id="node14" class="node">
<title>#11 MemberExpression</title>
<ellipse fill="none" stroke="#000000" cx="779.0433" cy="-714" rx="96.3833" ry="18"/>
<text text-anchor="middle" x="779.0433" y="-710.3" font-family="Times,serif" font-size="14.00" fill="#000000">#11 MemberExpression</text>
</g>
<!-- #10 Variable (v3)&#45;&gt;#11 MemberExpression -->
<g id="edge14" class="edge">
<title>#10 Variable (v3)&#45;&gt;#11 MemberExpression</title>
<path fill="none" stroke="#0000ff" d="M737.0249,-782.9735C744.4865,-770.7252 754.4826,-754.3165 762.8529,-740.5766"/>
<polygon fill="#0000ff" stroke="#0000ff" points="765.8621,-742.3644 768.0757,-732.0034 759.884,-738.7225 765.8621,-742.3644"/>
<text text-anchor="middle" x="765.5433" y="-753.8" font-family="Times,serif" font-size="14.00" fill="#0000ff">init</text>
</g>
<!-- #14 Variable (v4) -->
<g id="node15" class="node">
<title>#14 Variable (v4)</title>
<ellipse fill="none" stroke="#000000" cx="591.0433" cy="-714" rx="73.387" ry="18"/>
<text text-anchor="middle" x="591.0433" y="-710.3" font-family="Times,serif" font-size="14.00" fill="#000000">#14 Variable (v4)</text>
</g>
<!-- #10 Variable (v3)&#45;&gt;#14 Variable (v4) -->
<g id="edge15" class="edge">
<title>#10 Variable (v3)&#45;&gt;#14 Variable (v4)</title>
<path fill="none" stroke="#ff0000" d="M688.239,-785.5373C675.6926,-779.7736 661.9078,-772.7324 650.0433,-765 638.3182,-757.3585 626.4426,-747.5731 616.4497,-738.6209"/>
<polygon fill="#ff0000" stroke="#ff0000" points="618.6136,-735.8564 608.878,-731.6769 613.8824,-741.0154 618.6136,-735.8564"/>
</g>
<!-- #10 Variable (v3)&#45;&gt;#14 Variable (v4) -->
<g id="edge16" class="edge">
<title>#10 Variable (v3)&#45;&gt;#14 Variable (v4)</title>
<path fill="none" stroke="#006400" d="M700.8497,-784.0432C685.8706,-774.029 666.4547,-761.1662 649.0433,-750 642.0989,-745.5465 634.6428,-740.8532 627.4666,-736.3798"/>
<polygon fill="#006400" stroke="#006400" points="628.928,-733.1674 618.5862,-730.8657 625.2354,-739.1143 628.928,-733.1674"/>
<text text-anchor="middle" x="685.5433" y="-753.8" font-family="Times,serif" font-size="14.00" fill="#006400">VAR</text>
</g>
<!-- #28 MemberExpression -->
<g id="node16" class="node">
<title>#28 MemberExpression</title>
<ellipse fill="none" stroke="#000000" cx="823.0433" cy="-192" rx="96.3833" ry="18"/>
<text text-anchor="middle" x="823.0433" y="-188.3" font-family="Times,serif" font-size="14.00" fill="#000000">#28 MemberExpression</text>
</g>
<!-- #27 Variable (v5)&#45;&gt;#28 MemberExpression -->
<g id="edge17" class="edge">
<title>#27 Variable (v5)&#45;&gt;#28 MemberExpression</title>
<path fill="none" stroke="#0000ff" d="M963.5033,-262.636C935.8281,-248.7184 895.883,-228.6304 865.6603,-213.4317"/>
<polygon fill="#0000ff" stroke="#0000ff" points="867.1238,-210.25 856.6174,-208.8841 863.9788,-216.5038 867.1238,-210.25"/>
<text text-anchor="middle" x="929.5433" y="-231.8" font-family="Times,serif" font-size="14.00" fill="#0000ff">init</text>
</g>
<!-- #31 Variable (v6) -->
<g id="node17" class="node">
<title>#31 Variable (v6)</title>
<ellipse fill="none" stroke="#000000" cx="1076.0433" cy="-192" rx="73.387" ry="18"/>
<text text-anchor="middle" x="1076.0433" y="-188.3" font-family="Times,serif" font-size="14.00" fill="#000000">#31 Variable (v6)</text>
</g>
<!-- #27 Variable (v5)&#45;&gt;#31 Variable (v6) -->
<g id="edge18" class="edge">
<title>#27 Variable (v5)&#45;&gt;#31 Variable (v6)</title>
<path fill="none" stroke="#ff0000" d="M1016.621,-261.7054C1023.0612,-255.9748 1030.047,-249.4166 1036.0433,-243 1043.228,-235.3115 1050.5012,-226.4347 1056.8396,-218.2637"/>
<polygon fill="#ff0000" stroke="#ff0000" points="1059.7938,-220.1612 1063.0636,-210.0835 1054.2229,-215.9226 1059.7938,-220.1612"/>
</g>
<!-- #27 Variable (v5)&#45;&gt;#31 Variable (v6) -->
<g id="edge19" class="edge">
<title>#27 Variable (v5)&#45;&gt;#31 Variable (v6)</title>
<path fill="none" stroke="#006400" d="M994.5242,-260.9474C994.5509,-250.4296 996.2499,-237.4253 1003.0433,-228 1007.8071,-221.3905 1014.128,-215.9321 1021.0629,-211.4416"/>
<polygon fill="#006400" stroke="#006400" points="1023.1702,-214.2679 1030.1045,-206.2575 1019.6884,-208.1953 1023.1702,-214.2679"/>
<text text-anchor="middle" x="1017.5433" y="-231.8" font-family="Times,serif" font-size="14.00" fill="#006400">VAR</text>
</g>
<!-- #37 BlockStatement&#45;&gt;#3 Variable (v1) -->
<g id="edge20" class="edge">
<title>#37 BlockStatement&#45;&gt;#3 Variable (v1)</title>
<path fill="none" stroke="#0000ff" d="M939.8058,-1049.387C929.2488,-1047.4134 918.347,-1045.5256 908.0433,-1044 829.3862,-1032.3537 807.6501,-1043.3133 730.0433,-1026 720.3491,-1023.8373 672.8876,-1006.9406 634.8667,-993.1791"/>
<polygon fill="#0000ff" stroke="#0000ff" points="636.0266,-989.8767 625.4324,-989.7588 633.6408,-996.4576 636.0266,-989.8767"/>
<text text-anchor="middle" x="733.5433" y="-1014.8" font-family="Times,serif" font-size="14.00" fill="#0000ff">1</text>
</g>
<!-- #37 BlockStatement&#45;&gt;#10 Variable (v3) -->
<g id="edge22" class="edge">
<title>#37 BlockStatement&#45;&gt;#10 Variable (v3)</title>
<path fill="none" stroke="#0000ff" d="M979.7095,-1044.3162C973.952,-1038.7734 967.9286,-1032.4185 963.0433,-1026 931.7209,-984.8481 941.8387,-962.2603 907.0433,-924 866.7282,-879.6704 807.3892,-843.2772 767.7681,-821.8667"/>
<polygon fill="#0000ff" stroke="#0000ff" points="769.3585,-818.7483 758.8865,-817.1394 766.0696,-824.9275 769.3585,-818.7483"/>
<text text-anchor="middle" x="922.5433" y="-927.8" font-family="Times,serif" font-size="14.00" fill="#0000ff">3</text>
</g>
<!-- #37 BlockStatement&#45;&gt;#27 Variable (v5) -->
<g id="edge25" class="edge">
<title>#37 BlockStatement&#45;&gt;#27 Variable (v5)</title>
<path fill="none" stroke="#0000ff" d="M1033.4309,-1045.4919C1057.9654,-1030.7518 1087.0433,-1006.6136 1087.0433,-975 1087.0433,-975 1087.0433,-975 1087.0433,-366 1087.0433,-337.2191 1062.9672,-315.0282 1039.5828,-300.2626"/>
<polygon fill="#0000ff" stroke="#0000ff" points="1041.0874,-297.0848 1030.706,-294.9689 1037.502,-303.0969 1041.0874,-297.0848"/>
<text text-anchor="middle" x="1090.5433" y="-666.8" font-family="Times,serif" font-size="14.00" fill="#0000ff">6</text>
</g>
<!-- #37 BlockStatement&#45;&gt;#7 Variable (v2) -->
<g id="edge21" class="edge">
<title>#37 BlockStatement&#45;&gt;#7 Variable (v2)</title>
<path fill="none" stroke="#0000ff" d="M957.7523,-1046.3641C899.772,-1024.4797 792.7946,-982.4913 705.0433,-939 687.453,-930.2819 668.5436,-919.517 652.7785,-910.1275"/>
<polygon fill="#0000ff" stroke="#0000ff" points="654.2669,-906.9385 643.8934,-904.7839 650.6592,-912.9372 654.2669,-906.9385"/>
<text text-anchor="middle" x="824.5433" y="-971.3" font-family="Times,serif" font-size="14.00" fill="#0000ff">2</text>
</g>
<!-- #37 BlockStatement&#45;&gt;#14 Variable (v4) -->
<g id="edge23" class="edge">
<title>#37 BlockStatement&#45;&gt;#14 Variable (v4)</title>
<path fill="none" stroke="#0000ff" d="M998.6257,-1043.967C993.4691,-983.406 973.5704,-788.9244 928.0433,-750 906.5385,-731.6141 702.0509,-736.0084 674.0433,-732 667.4728,-731.0596 660.6467,-729.8934 653.8579,-728.6098"/>
<polygon fill="#0000ff" stroke="#0000ff" points="654.4612,-725.1615 643.9726,-726.6579 653.1051,-732.0289 654.4612,-725.1615"/>
<text text-anchor="middle" x="985.5433" y="-884.3" font-family="Times,serif" font-size="14.00" fill="#0000ff">4</text>
</g>
<!-- #37 BlockStatement&#45;&gt;#31 Variable (v6) -->
<g id="edge26" class="edge">
<title>#37 BlockStatement&#45;&gt;#31 Variable (v6)</title>
<path fill="none" stroke="#0000ff" d="M1056.4472,-1048.6565C1092.6964,-1036.3453 1133.0433,-1013.9042 1133.0433,-975 1133.0433,-975 1133.0433,-975 1133.0433,-279 1133.0433,-255.2576 1118.0069,-232.9536 1103.3798,-216.8737"/>
<polygon fill="#0000ff" stroke="#0000ff" points="1105.7507,-214.2895 1096.2998,-209.5008 1100.7017,-219.138 1105.7507,-214.2895"/>
<text text-anchor="middle" x="1136.5433" y="-623.3" font-family="Times,serif" font-size="14.00" fill="#0000ff">7</text>
</g>
<!-- #18 IfStatement -->
<g id="node18" class="node">
<title>#18 IfStatement</title>
<ellipse fill="none" stroke="#000000" cx="848.0433" cy="-627" rx="67.6881" ry="18"/>
<text text-anchor="middle" x="848.0433" y="-623.3" font-family="Times,serif" font-size="14.00" fill="#000000">#18 IfStatement</text>
</g>
<!-- #37 BlockStatement&#45;&gt;#18 IfStatement -->
<g id="edge24" class="edge">
<title>#37 BlockStatement&#45;&gt;#18 IfStatement</title>
<path fill="none" stroke="#0000ff" d="M1005.704,-1043.8706C1010.6493,-1026.4097 1017.0433,-999.162 1017.0433,-975 1017.0433,-975 1017.0433,-975 1017.0433,-844.5 1017.0433,-757.887 932.4446,-684.9578 882.9577,-649.7063"/>
<polygon fill="#0000ff" stroke="#0000ff" points="884.6532,-646.6216 874.4495,-643.7694 880.6474,-652.3622 884.6532,-646.6216"/>
<text text-anchor="middle" x="1020.5433" y="-840.8" font-family="Times,serif" font-size="14.00" fill="#0000ff">5</text>
</g>
<!-- #35 ExpressionStatement -->
<g id="node19" class="node">
<title>#35 ExpressionStatement</title>
<ellipse fill="none" stroke="#000000" cx="1198.0433" cy="-105" rx="100.9827" ry="18"/>
<text text-anchor="middle" x="1198.0433" y="-101.3" font-family="Times,serif" font-size="14.00" fill="#000000">#35 ExpressionStatement</text>
</g>
<!-- #37 BlockStatement&#45;&gt;#35 ExpressionStatement -->
<g id="edge27" class="edge">
<title>#37 BlockStatement&#45;&gt;#35 ExpressionStatement</title>
<path fill="none" stroke="#0000ff" d="M1062.8532,-1050.1077C1083.7747,-1044.5948 1106.6682,-1036.7995 1126.0433,-1026 1155.4475,-1009.6103 1182.0433,-1008.6635 1182.0433,-975 1182.0433,-975 1182.0433,-975 1182.0433,-192 1182.0433,-172.0329 1186.1702,-149.9069 1190.2322,-132.9652"/>
<polygon fill="#0000ff" stroke="#0000ff" points="1193.6552,-133.7052 1192.7155,-123.1521 1186.8691,-131.9879 1193.6552,-133.7052"/>
<text text-anchor="middle" x="1185.5433" y="-579.8" font-family="Times,serif" font-size="14.00" fill="#0000ff">8</text>
</g>
<!-- #5 Identifier (opts) -->
<g id="node20" class="node">
<title>#5 Identifier (opts)</title>
<ellipse fill="none" stroke="#000000" cx="109.0433" cy="-801" rx="77.1866" ry="18"/>
<text text-anchor="middle" x="109.0433" y="-797.3" font-family="Times,serif" font-size="14.00" fill="#000000">#5 Identifier (opts)</text>
</g>
<!-- #4 MemberExpression&#45;&gt;#5 Identifier (opts) -->
<g id="edge28" class="edge">
<title>#4 MemberExpression&#45;&gt;#5 Identifier (opts)</title>
<path fill="none" stroke="#0000ff" d="M250.3015,-871.2255C222.0381,-857.1746 181.5571,-837.0497 151.1698,-821.9429"/>
<polygon fill="#0000ff" stroke="#0000ff" points="152.6005,-818.7456 142.0879,-817.4279 149.4843,-825.0137 152.6005,-818.7456"/>
<text text-anchor="middle" x="224.0433" y="-840.8" font-family="Times,serif" font-size="14.00" fill="#0000ff">object</text>
</g>
<!-- #6 Identifier (filter) -->
<g id="node21" class="node">
<title>#6 Identifier (filter)</title>
<ellipse fill="none" stroke="#000000" cx="284.0433" cy="-801" rx="79.8859" ry="18"/>
<text text-anchor="middle" x="284.0433" y="-797.3" font-family="Times,serif" font-size="14.00" fill="#000000">#6 Identifier (filter)</text>
</g>
<!-- #4 MemberExpression&#45;&gt;#6 Identifier (filter) -->
<g id="edge29" class="edge">
<title>#4 MemberExpression&#45;&gt;#6 Identifier (filter)</title>
<path fill="none" stroke="#0000ff" d="M284.0433,-869.9735C284.0433,-858.1918 284.0433,-842.5607 284.0433,-829.1581"/>
<polygon fill="#0000ff" stroke="#0000ff" points="287.5434,-829.0033 284.0433,-819.0034 280.5434,-829.0034 287.5434,-829.0033"/>
<text text-anchor="middle" x="307.0433" y="-840.8" font-family="Times,serif" font-size="14.00" fill="#0000ff">property</text>
</g>
<!-- #7 Variable (v2)&#45;&gt;#10 Variable (v3) -->
<g id="edge31" class="edge">
<title>#7 Variable (v2)&#45;&gt;#10 Variable (v3)</title>
<path fill="none" stroke="#ff0000" d="M638.5781,-870.8116C655.0418,-857.6709 677.9343,-839.3989 696.1693,-824.8443"/>
<polygon fill="#ff0000" stroke="#ff0000" points="698.5477,-827.4242 704.18,-818.4505 694.1809,-821.9532 698.5477,-827.4242"/>
</g>
<!-- #7 Variable (v2)&#45;&gt;#14 Variable (v4) -->
<g id="edge32" class="edge">
<title>#7 Variable (v2)&#45;&gt;#14 Variable (v4)</title>
<path fill="none" stroke="#006400" d="M614.3099,-869.7078C609.7728,-839.3436 600.6547,-778.3226 595.2789,-742.3464"/>
<polygon fill="#006400" stroke="#006400" points="598.6794,-741.42 593.7399,-732.0471 591.7563,-742.4546 598.6794,-741.42"/>
<text text-anchor="middle" x="621.5433" y="-797.3" font-family="Times,serif" font-size="14.00" fill="#006400">VAR</text>
</g>
<!-- #8 UnaryExpression (!) -->
<g id="node22" class="node">
<title>#8 UnaryExpression (!)</title>
<ellipse fill="none" stroke="#000000" cx="476.0433" cy="-801" rx="94.4839" ry="18"/>
<text text-anchor="middle" x="476.0433" y="-797.3" font-family="Times,serif" font-size="14.00" fill="#000000">#8 UnaryExpression (!)</text>
</g>
<!-- #7 Variable (v2)&#45;&gt;#8 UnaryExpression (!) -->
<g id="edge30" class="edge">
<title>#7 Variable (v2)&#45;&gt;#8 UnaryExpression (!)</title>
<path fill="none" stroke="#0000ff" d="M589.857,-871.2255C567.9051,-857.6807 536.8056,-838.4917 512.6617,-823.5944"/>
<polygon fill="#0000ff" stroke="#0000ff" points="514.4594,-820.5909 504.1111,-818.3185 510.7836,-826.5482 514.4594,-820.5909"/>
<text text-anchor="middle" x="564.5433" y="-840.8" font-family="Times,serif" font-size="14.00" fill="#0000ff">init</text>
</g>
<!-- #12 Identifier (opts) -->
<g id="node23" class="node">
<title>#12 Identifier (opts)</title>
<ellipse fill="none" stroke="#000000" cx="681.0433" cy="-627" rx="81.7856" ry="18"/>
<text text-anchor="middle" x="681.0433" y="-623.3" font-family="Times,serif" font-size="14.00" fill="#000000">#12 Identifier (opts)</text>
</g>
<!-- #11 MemberExpression&#45;&gt;#12 Identifier (opts) -->
<g id="edge33" class="edge">
<title>#11 MemberExpression&#45;&gt;#12 Identifier (opts)</title>
<path fill="none" stroke="#0000ff" d="M758.7376,-695.9735C744.1872,-683.0564 724.4248,-665.5122 708.4729,-651.3508"/>
<polygon fill="#0000ff" stroke="#0000ff" points="710.7895,-648.7272 700.9876,-644.7057 706.1423,-653.962 710.7895,-648.7272"/>
<text text-anchor="middle" x="753.0433" y="-666.8" font-family="Times,serif" font-size="14.00" fill="#0000ff">object</text>
</g>
<!-- #13 Identifier (collection) -->
<g id="node24" class="node">
<title>#13 Identifier (collection)</title>
<ellipse fill="none" stroke="#000000" cx="479.0433" cy="-627" rx="102.0819" ry="18"/>
<text text-anchor="middle" x="479.0433" y="-623.3" font-family="Times,serif" font-size="14.00" fill="#000000">#13 Identifier (collection)</text>
</g>
<!-- #11 MemberExpression&#45;&gt;#13 Identifier (collection) -->
<g id="edge34" class="edge">
<title>#11 MemberExpression&#45;&gt;#13 Identifier (collection)</title>
<path fill="none" stroke="#0000ff" d="M726.7872,-698.8458C675.3181,-683.9197 596.6547,-661.1073 541.821,-645.2055"/>
<polygon fill="#0000ff" stroke="#0000ff" points="542.7921,-641.843 532.2129,-642.4192 540.8423,-648.566 542.7921,-641.843"/>
<text text-anchor="middle" x="670.0433" y="-666.8" font-family="Times,serif" font-size="14.00" fill="#0000ff">property</text>
</g>
<!-- #14 Variable (v4)&#45;&gt;#18 IfStatement -->
<g id="edge36" class="edge">
<title>#14 Variable (v4)&#45;&gt;#18 IfStatement</title>
<path fill="none" stroke="#ff0000" d="M645.9009,-701.8158C655.278,-699.8154 664.9316,-697.8075 674.0433,-696 718.3388,-687.2131 732.2887,-695.2007 774.0433,-678 790.3747,-671.2723 806.7326,-660.522 819.9001,-650.6223"/>
<polygon fill="#ff0000" stroke="#ff0000" points="822.3053,-653.1861 828.06,-644.2903 818.0139,-647.6558 822.3053,-653.1861"/>
</g>
<!-- #15 LogicalExpression -->
<g id="node25" class="node">
<title>#15 LogicalExpression</title>
<ellipse fill="none" stroke="#000000" cx="202.0433" cy="-627" rx="92.0841" ry="18"/>
<text text-anchor="middle" x="202.0433" y="-623.3" font-family="Times,serif" font-size="14.00" fill="#000000">#15 LogicalExpression</text>
</g>
<!-- #14 Variable (v4)&#45;&gt;#15 LogicalExpression -->
<g id="edge35" class="edge">
<title>#14 Variable (v4)&#45;&gt;#15 LogicalExpression</title>
<path fill="none" stroke="#0000ff" d="M538.0971,-701.4568C528.153,-699.4031 517.8122,-697.4698 508.0433,-696 414.9723,-681.9974 387.2613,-704.8136 297.0433,-678 275.651,-671.642 253.5803,-660.1453 236.1025,-649.6748"/>
<polygon fill="#0000ff" stroke="#0000ff" points="237.7604,-646.5854 227.4093,-644.3256 234.0919,-652.5472 237.7604,-646.5854"/>
<text text-anchor="middle" x="306.5433" y="-666.8" font-family="Times,serif" font-size="14.00" fill="#0000ff">init</text>
</g>
<!-- #19 Identifier (v4) -->
<g id="node26" class="node">
<title>#19 Identifier (v4)</title>
<ellipse fill="none" stroke="#000000" cx="840.0433" cy="-540" rx="76.0865" ry="18"/>
<text text-anchor="middle" x="840.0433" y="-536.3" font-family="Times,serif" font-size="14.00" fill="#000000">#19 Identifier (v4)</text>
</g>
<!-- #14 Variable (v4)&#45;&gt;#19 Identifier (v4) -->
<g id="edge37" class="edge">
<title>#14 Variable (v4)&#45;&gt;#19 Identifier (v4)</title>
<path fill="none" stroke="#006400" d="M538.6368,-701.3654C466.6268,-683.7592 345.217,-653.0914 339.0433,-645 329.3378,-632.2798 328.4402,-620.9823 339.0433,-609 400.7639,-539.2506 663.1768,-573.3286 755.0433,-558 761.541,-556.9158 768.2954,-555.6777 775.0299,-554.3697"/>
<polygon fill="#006400" stroke="#006400" points="775.7269,-557.7997 784.8503,-552.4132 774.3591,-550.9346 775.7269,-557.7997"/>
<text text-anchor="middle" x="353.5433" y="-623.3" font-family="Times,serif" font-size="14.00" fill="#006400">VAR</text>
</g>
<!-- #29 Identifier (opts) -->
<g id="node27" class="node">
<title>#29 Identifier (opts)</title>
<ellipse fill="none" stroke="#000000" cx="633.0433" cy="-105" rx="81.7856" ry="18"/>
<text text-anchor="middle" x="633.0433" y="-101.3" font-family="Times,serif" font-size="14.00" fill="#000000">#29 Identifier (opts)</text>
</g>
<!-- #28 MemberExpression&#45;&gt;#29 Identifier (opts) -->
<g id="edge38" class="edge">
<title>#28 MemberExpression&#45;&gt;#29 Identifier (opts)</title>
<path fill="none" stroke="#0000ff" d="M786.4093,-175.2255C755.493,-161.0691 711.1118,-140.7472 678.0393,-125.6034"/>
<polygon fill="#0000ff" stroke="#0000ff" points="679.149,-122.2621 668.5997,-121.2811 676.2347,-128.6267 679.149,-122.2621"/>
<text text-anchor="middle" x="757.0433" y="-144.8" font-family="Times,serif" font-size="14.00" fill="#0000ff">object</text>
</g>
<!-- #30 Identifier (filter) -->
<g id="node28" class="node">
<title>#30 Identifier (filter)</title>
<ellipse fill="none" stroke="#000000" cx="817.0433" cy="-105" rx="84.485" ry="18"/>
<text text-anchor="middle" x="817.0433" y="-101.3" font-family="Times,serif" font-size="14.00" fill="#000000">#30 Identifier (filter)</text>
</g>
<!-- #28 MemberExpression&#45;&gt;#30 Identifier (filter) -->
<g id="edge39" class="edge">
<title>#28 MemberExpression&#45;&gt;#30 Identifier (filter)</title>
<path fill="none" stroke="#0000ff" d="M821.8,-173.9735C820.9875,-162.1918 819.9095,-146.5607 818.9852,-133.1581"/>
<polygon fill="#0000ff" stroke="#0000ff" points="822.4647,-132.7388 818.2849,-123.0034 815.4813,-133.2205 822.4647,-132.7388"/>
<text text-anchor="middle" x="844.0433" y="-144.8" font-family="Times,serif" font-size="14.00" fill="#0000ff">property</text>
</g>
<!-- #31 Variable (v6)&#45;&gt;#35 ExpressionStatement -->
<g id="edge41" class="edge">
<title>#31 Variable (v6)&#45;&gt;#35 ExpressionStatement</title>
<path fill="none" stroke="#ff0000" d="M1084.2159,-173.9352C1089.8724,-163.148 1098.3107,-149.8658 1109.0433,-141 1116.8497,-134.5513 1125.9631,-129.136 1135.3235,-124.6267"/>
<polygon fill="#ff0000" stroke="#ff0000" points="1137.0314,-127.6968 1144.7269,-120.4146 1134.1698,-121.3084 1137.0314,-127.6968"/>
</g>
<!-- #31 Variable (v6)&#45;&gt;#35 ExpressionStatement -->
<g id="edge42" class="edge">
<title>#31 Variable (v6)&#45;&gt;#35 ExpressionStatement</title>
<path fill="none" stroke="#006400" d="M1096.2207,-174.5229C1108.3267,-164.3299 1124.2079,-151.4616 1139.0433,-141 1145.5246,-136.4295 1152.592,-131.8194 1159.5107,-127.4948"/>
<polygon fill="#006400" stroke="#006400" points="1161.451,-130.4106 1168.1398,-122.1941 1157.787,-124.446 1161.451,-130.4106"/>
<text text-anchor="middle" x="1153.5433" y="-144.8" font-family="Times,serif" font-size="14.00" fill="#006400">VAR</text>
</g>
<!-- #32 CallExpression -->
<g id="node29" class="node">
<title>#32 CallExpression</title>
<ellipse fill="none" stroke="#000000" cx="999.0433" cy="-105" rx="79.8859" ry="18"/>
<text text-anchor="middle" x="999.0433" y="-101.3" font-family="Times,serif" font-size="14.00" fill="#000000">#32 CallExpression</text>
</g>
<!-- #31 Variable (v6)&#45;&gt;#32 CallExpression -->
<g id="edge40" class="edge">
<title>#31 Variable (v6)&#45;&gt;#32 CallExpression</title>
<path fill="none" stroke="#0000ff" d="M1060.4612,-174.3943C1049.3672,-161.8595 1034.2815,-144.8147 1021.8378,-130.7548"/>
<polygon fill="#0000ff" stroke="#0000ff" points="1024.115,-128.0468 1014.8665,-122.8782 1018.8732,-132.6862 1024.115,-128.0468"/>
<text text-anchor="middle" x="1052.5433" y="-144.8" font-family="Times,serif" font-size="14.00" fill="#0000ff">init</text>
</g>
<!-- #18 IfStatement&#45;&gt;#19 Identifier (v4) -->
<g id="edge43" class="edge">
<title>#18 IfStatement&#45;&gt;#19 Identifier (v4)</title>
<path fill="none" stroke="#0000ff" d="M833.3277,-609.3816C829.5502,-603.8407 826.0023,-597.4703 824.0433,-591 821.7247,-583.3425 822.7828,-575.0581 825.206,-567.4376"/>
<polygon fill="#0000ff" stroke="#0000ff" points="828.5521,-568.4958 829.0088,-557.9108 822.0509,-565.9007 828.5521,-568.4958"/>
<text text-anchor="middle" x="833.5433" y="-579.8" font-family="Times,serif" font-size="14.00" fill="#0000ff">test</text>
</g>
<!-- #18 IfStatement&#45;&gt;#19 Identifier (v4) -->
<g id="edge45" class="edge">
<title>#18 IfStatement&#45;&gt;#19 Identifier (v4)</title>
<path fill="none" stroke="#ff0000" d="M846.3856,-608.9735C845.3023,-597.1918 843.8649,-581.5607 842.6325,-568.1581"/>
<polygon fill="#ff0000" stroke="#ff0000" points="846.0998,-567.6408 841.6987,-558.0034 839.1292,-568.2819 846.0998,-567.6408"/>
<text text-anchor="middle" x="854.5433" y="-579.8" font-family="Times,serif" font-size="14.00" fill="#ff0000">test</text>
</g>
<!-- #26 BlockStatement -->
<g id="node30" class="node">
<title>#26 BlockStatement</title>
<ellipse fill="none" stroke="#000000" cx="663.0433" cy="-540" rx="83.3857" ry="18"/>
<text text-anchor="middle" x="663.0433" y="-536.3" font-family="Times,serif" font-size="14.00" fill="#000000">#26 BlockStatement</text>
</g>
<!-- #18 IfStatement&#45;&gt;#26 BlockStatement -->
<g id="edge44" class="edge">
<title>#18 IfStatement&#45;&gt;#26 BlockStatement</title>
<path fill="none" stroke="#0000ff" d="M814.5411,-611.245C784.4991,-597.1171 740.2073,-576.288 707.2655,-560.7964"/>
<polygon fill="#0000ff" stroke="#0000ff" points="708.4054,-557.4648 697.8666,-556.3764 705.4265,-563.7993 708.4054,-557.4648"/>
<text text-anchor="middle" x="779.0433" y="-579.8" font-family="Times,serif" font-size="14.00" fill="#0000ff">then</text>
</g>
<!-- #36 Identifier (v6) -->
<g id="node31" class="node">
<title>#36 Identifier (v6)</title>
<ellipse fill="none" stroke="#000000" cx="1190.0433" cy="-18" rx="76.0865" ry="18"/>
<text text-anchor="middle" x="1190.0433" y="-14.3" font-family="Times,serif" font-size="14.00" fill="#000000">#36 Identifier (v6)</text>
</g>
<!-- #35 ExpressionStatement&#45;&gt;#36 Identifier (v6) -->
<g id="edge46" class="edge">
<title>#35 ExpressionStatement&#45;&gt;#36 Identifier (v6)</title>
<path fill="none" stroke="#0000ff" d="M1196.3856,-86.9735C1195.3023,-75.1918 1193.8649,-59.5607 1192.6325,-46.1581"/>
<polygon fill="#0000ff" stroke="#0000ff" points="1196.0998,-45.6408 1191.6987,-36.0034 1189.1292,-46.2819 1196.0998,-45.6408"/>
<text text-anchor="middle" x="1223.0433" y="-57.8" font-family="Times,serif" font-size="14.00" fill="#0000ff">expression</text>
</g>
<!-- #41 CFG_F_END 1_search -->
<g id="node32" class="node">
<title>#41 CFG_F_END 1_search</title>
<ellipse fill="none" stroke="#ff0000" cx="1393.0433" cy="-18" rx="108.5808" ry="18"/>
<text text-anchor="middle" x="1393.0433" y="-14.3" font-family="Times,serif" font-size="14.00" fill="#ff0000">#41 CFG_F_END 1_search</text>
</g>
<!-- #35 ExpressionStatement&#45;&gt;#41 CFG_F_END 1_search -->
<g id="edge47" class="edge">
<title>#35 ExpressionStatement&#45;&gt;#41 CFG_F_END 1_search</title>
<path fill="none" stroke="#ff0000" d="M1235.6412,-88.2255C1267.0015,-74.234 1311.8609,-54.2198 1345.6722,-39.1348"/>
<polygon fill="#ff0000" stroke="#ff0000" points="1347.1891,-42.2906 1354.8954,-35.0198 1344.337,-35.898 1347.1891,-42.2906"/>
</g>
<!-- #9 Identifier (v1) -->
<g id="node33" class="node">
<title>#9 Identifier (v1)</title>
<ellipse fill="none" stroke="#000000" cx="428.0433" cy="-714" rx="71.4873" ry="18"/>
<text text-anchor="middle" x="428.0433" y="-710.3" font-family="Times,serif" font-size="14.00" fill="#000000">#9 Identifier (v1)</text>
</g>
<!-- #8 UnaryExpression (!)&#45;&gt;#9 Identifier (v1) -->
<g id="edge48" class="edge">
<title>#8 UnaryExpression (!)&#45;&gt;#9 Identifier (v1)</title>
<path fill="none" stroke="#0000ff" d="M466.0976,-782.9735C459.4043,-770.8418 450.4591,-754.6287 442.9232,-740.9698"/>
<polygon fill="#0000ff" stroke="#0000ff" points="445.8715,-739.0684 437.9761,-732.0034 439.7424,-742.4499 445.8715,-739.0684"/>
<text text-anchor="middle" x="481.0433" y="-753.8" font-family="Times,serif" font-size="14.00" fill="#0000ff">argument</text>
</g>
<!-- #16 Identifier (v2) -->
<g id="node34" class="node">
<title>#16 Identifier (v2)</title>
<ellipse fill="none" stroke="#000000" cx="76.0433" cy="-540" rx="76.0865" ry="18"/>
<text text-anchor="middle" x="76.0433" y="-536.3" font-family="Times,serif" font-size="14.00" fill="#000000">#16 Identifier (v2)</text>
</g>
<!-- #15 LogicalExpression&#45;&gt;#16 Identifier (v2) -->
<g id="edge49" class="edge">
<title>#15 LogicalExpression&#45;&gt;#16 Identifier (v2)</title>
<path fill="none" stroke="#0000ff" d="M176.8481,-609.6033C157.4072,-596.1799 130.3446,-577.4938 109.1543,-562.8624"/>
<polygon fill="#0000ff" stroke="#0000ff" points="110.983,-559.8718 100.7653,-557.07 107.0056,-565.6321 110.983,-559.8718"/>
<text text-anchor="middle" x="156.5433" y="-579.8" font-family="Times,serif" font-size="14.00" fill="#0000ff">left</text>
</g>
<!-- #17 Identifier (v3) -->
<g id="node35" class="node">
<title>#17 Identifier (v3)</title>
<ellipse fill="none" stroke="#000000" cx="246.0433" cy="-540" rx="76.0865" ry="18"/>
<text text-anchor="middle" x="246.0433" y="-536.3" font-family="Times,serif" font-size="14.00" fill="#000000">#17 Identifier (v3)</text>
</g>
<!-- #15 LogicalExpression&#45;&gt;#17 Identifier (v3) -->
<g id="edge50" class="edge">
<title>#15 LogicalExpression&#45;&gt;#17 Identifier (v3)</title>
<path fill="none" stroke="#0000ff" d="M211.1601,-608.9735C217.2957,-596.8418 225.4954,-580.6287 232.4033,-566.9698"/>
<polygon fill="#0000ff" stroke="#0000ff" points="235.5482,-568.5066 236.9381,-558.0034 229.3016,-565.3474 235.5482,-568.5066"/>
<text text-anchor="middle" x="240.0433" y="-579.8" font-family="Times,serif" font-size="14.00" fill="#0000ff">right</text>
</g>
<!-- #20 ExpressionStatement -->
<g id="node36" class="node">
<title>#20 ExpressionStatement</title>
<ellipse fill="none" stroke="#000000" cx="713.0433" cy="-453" rx="100.9827" ry="18"/>
<text text-anchor="middle" x="713.0433" y="-449.3" font-family="Times,serif" font-size="14.00" fill="#000000">#20 ExpressionStatement</text>
</g>
<!-- #19 Identifier (v4)&#45;&gt;#20 ExpressionStatement -->
<g id="edge51" class="edge">
<title>#19 Identifier (v4)&#45;&gt;#20 ExpressionStatement</title>
<path fill="none" stroke="#ff0000" d="M814.9521,-522.8116C795.5105,-509.4933 768.3746,-490.9042 746.9922,-476.2564"/>
<polygon fill="#ff0000" stroke="#ff0000" points="748.7449,-473.2146 738.5169,-470.4505 744.7888,-478.9895 748.7449,-473.2146"/>
<text text-anchor="middle" x="803.0433" y="-492.8" font-family="Times,serif" font-size="14.00" fill="#ff0000">TRUE</text>
</g>
<!-- #42 CFG_IF_END -->
<g id="node37" class="node">
<title>#42 CFG_IF_END</title>
<ellipse fill="none" stroke="#ff0000" cx="850.0433" cy="-366" rx="77.9862" ry="18"/>
<text text-anchor="middle" x="850.0433" y="-362.3" font-family="Times,serif" font-size="14.00" fill="#ff0000">#42 CFG_IF_END</text>
</g>
<!-- #19 Identifier (v4)&#45;&gt;#42 CFG_IF_END -->
<g id="edge52" class="edge">
<title>#19 Identifier (v4)&#45;&gt;#42 CFG_IF_END</title>
<path fill="none" stroke="#ff0000" d="M841.0945,-521.7078C842.8396,-491.3436 846.3466,-430.3226 848.4141,-394.3464"/>
<polygon fill="#ff0000" stroke="#ff0000" points="851.9264,-394.2315 849.0061,-384.0471 844.938,-393.8298 851.9264,-394.2315"/>
<text text-anchor="middle" x="867.0433" y="-449.3" font-family="Times,serif" font-size="14.00" fill="#ff0000">FALSE</text>
</g>
<!-- #33 Identifier (eval) -->
<g id="node38" class="node">
<title>#33 Identifier (eval)</title>
<ellipse fill="none" stroke="#000000" cx="830.0433" cy="-18" rx="81.7856" ry="18"/>
<text text-anchor="middle" x="830.0433" y="-14.3" font-family="Times,serif" font-size="14.00" fill="#000000">#33 Identifier (eval)</text>
</g>
<!-- #32 CallExpression&#45;&gt;#33 Identifier (eval) -->
<g id="edge53" class="edge">
<title>#32 CallExpression&#45;&gt;#33 Identifier (eval)</title>
<path fill="none" stroke="#0000ff" d="M966.8579,-88.4312C939.8094,-74.5068 900.9705,-54.5129 871.5798,-39.3827"/>
<polygon fill="#0000ff" stroke="#0000ff" points="872.8892,-36.1203 862.3962,-34.6551 869.6853,-42.344 872.8892,-36.1203"/>
<text text-anchor="middle" x="941.0433" y="-57.8" font-family="Times,serif" font-size="14.00" fill="#0000ff">callee</text>
</g>
<!-- #34 Identifier (v5) -->
<g id="node39" class="node">
<title>#34 Identifier (v5)</title>
<ellipse fill="none" stroke="#000000" cx="1006.0433" cy="-18" rx="76.0865" ry="18"/>
<text text-anchor="middle" x="1006.0433" y="-14.3" font-family="Times,serif" font-size="14.00" fill="#000000">#34 Identifier (v5)</text>
</g>
<!-- #32 CallExpression&#45;&gt;#34 Identifier (v5) -->
<g id="edge54" class="edge">
<title>#32 CallExpression&#45;&gt;#34 Identifier (v5)</title>
<path fill="none" stroke="#0000ff" d="M1000.4937,-86.9735C1001.4416,-75.1918 1002.6993,-59.5607 1003.7777,-46.1581"/>
<polygon fill="#0000ff" stroke="#0000ff" points="1007.2813,-46.2519 1004.5947,-36.0034 1000.3039,-45.6904 1007.2813,-46.2519"/>
<text text-anchor="middle" x="1017.0433" y="-57.8" font-family="Times,serif" font-size="14.00" fill="#0000ff">arg 1</text>
</g>
<!-- #26 BlockStatement&#45;&gt;#20 ExpressionStatement -->
<g id="edge55" class="edge">
<title>#26 BlockStatement&#45;&gt;#20 ExpressionStatement</title>
<path fill="none" stroke="#0000ff" d="M673.4033,-521.9735C680.3755,-509.8418 689.6934,-493.6287 697.5433,-479.9698"/>
<polygon fill="#0000ff" stroke="#0000ff" points="700.7482,-481.4175 702.6965,-471.0034 694.6791,-477.9295 700.7482,-481.4175"/>
<text text-anchor="middle" x="694.5433" y="-492.8" font-family="Times,serif" font-size="14.00" fill="#0000ff">1</text>
</g>
<!-- #20 ExpressionStatement&#45;&gt;#43 PDG_OBJECT o1 -->
<g id="edge58" class="edge">
<title>#20 ExpressionStatement&#45;&gt;#43 PDG_OBJECT o1</title>
<path fill="none" stroke="#006400" d="M781.5921,-466.2286C836.7706,-478.4371 907.864,-498.2404 925.0433,-522 957.074,-566.2999 936.7705,-591.606 925.0433,-645 924.0194,-649.6615 853.0433,-796.2274 853.0433,-801 853.0433,-975 853.0433,-975 853.0433,-975 853.0433,-997.406 840.972,-1019.6867 829.1969,-1036.0907"/>
<polygon fill="#006400" stroke="#006400" points="826.3769,-1034.0171 823.1318,-1044.1027 831.9581,-1038.2421 826.3769,-1034.0171"/>
<text text-anchor="middle" x="913.0433" y="-753.8" font-family="Times,serif" font-size="14.00" fill="#006400">WRITE filter</text>
</g>
<!-- #20 ExpressionStatement&#45;&gt;#42 CFG_IF_END -->
<g id="edge57" class="edge">
<title>#20 ExpressionStatement&#45;&gt;#42 CFG_IF_END</title>
<path fill="none" stroke="#ff0000" d="M740.438,-435.6033C761.764,-422.0605 791.5251,-403.1612 814.6545,-388.4732"/>
<polygon fill="#ff0000" stroke="#ff0000" points="816.5975,-391.3854 823.1629,-383.07 812.8449,-385.4762 816.5975,-391.3854"/>
</g>
<!-- #21 AssignmentExpression -->
<g id="node40" class="node">
<title>#21 AssignmentExpression</title>
<ellipse fill="none" stroke="#000000" cx="624.0433" cy="-366" rx="107.781" ry="18"/>
<text text-anchor="middle" x="624.0433" y="-362.3" font-family="Times,serif" font-size="14.00" fill="#000000">#21 AssignmentExpression</text>
</g>
<!-- #20 ExpressionStatement&#45;&gt;#21 AssignmentExpression -->
<g id="edge56" class="edge">
<title>#20 ExpressionStatement&#45;&gt;#21 AssignmentExpression</title>
<path fill="none" stroke="#0000ff" d="M694.6024,-434.9735C681.5951,-422.2586 664.0015,-405.0603 649.6367,-391.0183"/>
<polygon fill="#0000ff" stroke="#0000ff" points="652.0581,-388.4908 642.4605,-384.0034 647.1649,-393.4965 652.0581,-388.4908"/>
<text text-anchor="middle" x="703.0433" y="-405.8" font-family="Times,serif" font-size="14.00" fill="#0000ff">expression</text>
</g>
<!-- #42 CFG_IF_END&#45;&gt;#27 Variable (v5) -->
<g id="edge59" class="edge">
<title>#42 CFG_IF_END&#45;&gt;#27 Variable (v5)</title>
<path fill="none" stroke="#ff0000" d="M878.5401,-349.019C901.4519,-335.3661 933.8218,-316.0772 958.7869,-301.2007"/>
<polygon fill="#ff0000" stroke="#ff0000" points="960.8194,-304.0639 967.6183,-295.9382 957.2361,-298.0505 960.8194,-304.0639"/>
</g>
<!-- #22 MemberExpression -->
<g id="node41" class="node">
<title>#22 MemberExpression</title>
<ellipse fill="none" stroke="#000000" cx="624.0433" cy="-279" rx="96.3833" ry="18"/>
<text text-anchor="middle" x="624.0433" y="-275.3" font-family="Times,serif" font-size="14.00" fill="#000000">#22 MemberExpression</text>
</g>
<!-- #21 AssignmentExpression&#45;&gt;#22 MemberExpression -->
<g id="edge60" class="edge">
<title>#21 AssignmentExpression&#45;&gt;#22 MemberExpression</title>
<path fill="none" stroke="#0000ff" d="M624.0433,-347.9735C624.0433,-336.1918 624.0433,-320.5607 624.0433,-307.1581"/>
<polygon fill="#0000ff" stroke="#0000ff" points="627.5434,-307.0033 624.0433,-297.0034 620.5434,-307.0034 627.5434,-307.0033"/>
<text text-anchor="middle" x="633.5433" y="-318.8" font-family="Times,serif" font-size="14.00" fill="#0000ff">left</text>
</g>
<!-- #25 Literal -->
<g id="node42" class="node">
<title>#25 Literal</title>
<ellipse fill="none" stroke="#000000" cx="460.0433" cy="-279" rx="50.0912" ry="18"/>
<text text-anchor="middle" x="460.0433" y="-275.3" font-family="Times,serif" font-size="14.00" fill="#000000">#25 Literal</text>
</g>
<!-- #21 AssignmentExpression&#45;&gt;#25 Literal -->
<g id="edge61" class="edge">
<title>#21 AssignmentExpression&#45;&gt;#25 Literal</title>
<path fill="none" stroke="#0000ff" d="M591.6421,-348.8116C564.4349,-334.3785 525.5589,-313.7553 497.1155,-298.6664"/>
<polygon fill="#0000ff" stroke="#0000ff" points="498.7494,-295.5712 488.2752,-293.9767 495.469,-301.755 498.7494,-295.5712"/>
<text text-anchor="middle" x="565.0433" y="-318.8" font-family="Times,serif" font-size="14.00" fill="#0000ff">right</text>
</g>
<!-- #23 Identifier (opts) -->
<g id="node43" class="node">
<title>#23 Identifier (opts)</title>
<ellipse fill="none" stroke="#000000" cx="440.0433" cy="-192" rx="81.7856" ry="18"/>
<text text-anchor="middle" x="440.0433" y="-188.3" font-family="Times,serif" font-size="14.00" fill="#000000">#23 Identifier (opts)</text>
</g>
<!-- #22 MemberExpression&#45;&gt;#23 Identifier (opts) -->
<g id="edge62" class="edge">
<title>#22 MemberExpression&#45;&gt;#23 Identifier (opts)</title>
<path fill="none" stroke="#0000ff" d="M588.5662,-262.2255C558.7212,-248.114 515.9192,-227.8761 483.9237,-212.7478"/>
<polygon fill="#0000ff" stroke="#0000ff" points="485.3239,-209.5384 474.7874,-208.4279 482.3317,-215.8667 485.3239,-209.5384"/>
<text text-anchor="middle" x="561.0433" y="-231.8" font-family="Times,serif" font-size="14.00" fill="#0000ff">object</text>
</g>
<!-- #24 Identifier (filter) -->
<g id="node44" class="node">
<title>#24 Identifier (filter)</title>
<ellipse fill="none" stroke="#000000" cx="624.0433" cy="-192" rx="84.485" ry="18"/>
<text text-anchor="middle" x="624.0433" y="-188.3" font-family="Times,serif" font-size="14.00" fill="#000000">#24 Identifier (filter)</text>
</g>
<!-- #22 MemberExpression&#45;&gt;#24 Identifier (filter) -->
<g id="edge63" class="edge">
<title>#22 MemberExpression&#45;&gt;#24 Identifier (filter)</title>
<path fill="none" stroke="#0000ff" d="M624.0433,-260.9735C624.0433,-249.1918 624.0433,-233.5607 624.0433,-220.1581"/>
<polygon fill="#0000ff" stroke="#0000ff" points="627.5434,-220.0033 624.0433,-210.0034 620.5434,-220.0034 627.5434,-220.0033"/>
<text text-anchor="middle" x="647.0433" y="-231.8" font-family="Times,serif" font-size="14.00" fill="#0000ff">property</text>
</g>
</g>
</svg>
