<?xml version="1.0" encoding="UTF-8" standalone="no"?>
<!DOCTYPE svg PUBLIC "-//W3C//DTD SVG 1.1//EN"
 "http://www.w3.org/Graphics/SVG/1.1/DTD/svg11.dtd">
<!-- Generated by graphviz version 2.40.1 (20161225.0304)
 -->
<!-- Title: G Pages: 1 -->
<svg width="1610pt" height="1262pt"
 viewBox="0.00 0.00 1610.04 1262.00" xmlns="http://www.w3.org/2000/svg" xmlns:xlink="http://www.w3.org/1999/xlink">
<g id="graph0" class="graph" transform="scale(1 1) rotate(0) translate(4 1258)">
<title>G</title>
<polygon fill="#ffffff" stroke="transparent" points="-4,4 -4,-1258 1606.0433,-1258 1606.0433,4 -4,4"/>
<!-- #0 Program -->
<g id="node1" class="node">
<title>#0 Program</title>
<ellipse fill="none" stroke="#000000" cx="921.0433" cy="-1236" rx="52.7911" ry="18"/>
<text text-anchor="middle" x="921.0433" y="-1232.3" font-family="Times,serif" font-size="14.00" fill="#000000">#0 Program</text>
</g>
<!-- #1 Function (search) -->
<g id="node2" class="node">
<title>#1 Function (search)</title>
<ellipse fill="none" stroke="#000000" cx="1009.0433" cy="-1149" rx="83.6854" ry="18"/>
<text text-anchor="middle" x="1009.0433" y="-1145.3" font-family="Times,serif" font-size="14.00" fill="#000000">#1 Function (search)</text>
</g>
<!-- #0 Program&#45;&gt;#1 Function (search) -->
<g id="edge1" class="edge">
<title>#0 Program&#45;&gt;#1 Function (search)</title>
<path fill="none" stroke="#0000ff" d="M938.4292,-1218.8116C951.3962,-1205.992 969.3028,-1188.2889 983.839,-1173.9179"/>
<polygon fill="#0000ff" stroke="#0000ff" points="986.4386,-1176.2696 991.0892,-1166.75 981.5172,-1171.2916 986.4386,-1176.2696"/>
<text text-anchor="middle" x="974.5433" y="-1188.8" font-family="Times,serif" font-size="14.00" fill="#0000ff">1</text>
</g>
<!-- #43 PDG_OBJECT o1 -->
<g id="node6" class="node">
<title>#43 PDG_OBJECT o1</title>
<ellipse fill="none" stroke="#006400" cx="1437.0433" cy="-1062" rx="91.784" ry="18"/>
<text text-anchor="middle" x="1437.0433" y="-1058.3" font-family="Times,serif" font-size="14.00" fill="#006400">#43 PDG_OBJECT o1</text>
</g>
<!-- #1 Function (search)&#45;&gt;#43 PDG_OBJECT o1 -->
<g id="edge11" class="edge">
<title>#1 Function (search)&#45;&gt;#43 PDG_OBJECT o1</title>
<path fill="none" stroke="#000000" d="M1070.3652,-1136.535C1147.6613,-1120.823 1280.408,-1093.8394 1363.198,-1077.0106"/>
<polygon fill="#000000" stroke="#000000" points="1363.9372,-1080.432 1373.0396,-1075.0101 1362.5428,-1073.5723 1363.9372,-1080.432"/>
<text text-anchor="middle" x="1287.5433" y="-1101.8" font-family="Times,serif" font-size="14.00" fill="#000000">CREATE opts</text>
</g>
<!-- #2 Identifier (opts) -->
<g id="node10" class="node">
<title>#2 Identifier (opts)</title>
<ellipse fill="none" stroke="#000000" cx="786.0433" cy="-1062" rx="77.1866" ry="18"/>
<text text-anchor="middle" x="786.0433" y="-1058.3" font-family="Times,serif" font-size="14.00" fill="#000000">#2 Identifier (opts)</text>
</g>
<!-- #1 Function (search)&#45;&gt;#2 Identifier (opts) -->
<g id="edge8" class="edge">
<title>#1 Function (search)&#45;&gt;#2 Identifier (opts)</title>
<path fill="none" stroke="#0000ff" d="M968.4009,-1133.144C931.0304,-1118.5645 875.5274,-1096.9109 835.5768,-1081.3248"/>
<polygon fill="#0000ff" stroke="#0000ff" points="836.6191,-1077.9745 826.0308,-1077.6005 834.0748,-1084.4958 836.6191,-1077.9745"/>
<text text-anchor="middle" x="934.0433" y="-1101.8" font-family="Times,serif" font-size="14.00" fill="#0000ff">param 1</text>
</g>
<!-- #37 BlockStatement -->
<g id="node11" class="node">
<title>#37 BlockStatement</title>
<ellipse fill="none" stroke="#000000" cx="607.0433" cy="-1062" rx="83.3857" ry="18"/>
<text text-anchor="middle" x="607.0433" y="-1058.3" font-family="Times,serif" font-size="14.00" fill="#000000">#37 BlockStatement</text>
</g>
<!-- #1 Function (search)&#45;&gt;#37 BlockStatement -->
<g id="edge9" class="edge">
<title>#1 Function (search)&#45;&gt;#37 BlockStatement</title>
<path fill="none" stroke="#0000ff" d="M949.7268,-1136.1629C876.7789,-1120.3756 753.1731,-1093.6251 676.0468,-1076.9336"/>
<polygon fill="#0000ff" stroke="#0000ff" points="676.4623,-1073.4426 665.9482,-1074.7481 674.9816,-1080.2842 676.4623,-1073.4426"/>
<text text-anchor="middle" x="848.5433" y="-1101.8" font-family="Times,serif" font-size="14.00" fill="#0000ff">block</text>
</g>
<!-- #39 CFG_F_END main -->
<g id="node12" class="node">
<title>#39 CFG_F_END main</title>
<ellipse fill="none" stroke="#ff0000" cx="1232.0433" cy="-1062" rx="95.5831" ry="18"/>
<text text-anchor="middle" x="1232.0433" y="-1058.3" font-family="Times,serif" font-size="14.00" fill="#ff0000">#39 CFG_F_END main</text>
</g>
<!-- #1 Function (search)&#45;&gt;#39 CFG_F_END main -->
<g id="edge10" class="edge">
<title>#1 Function (search)&#45;&gt;#39 CFG_F_END main</title>
<path fill="none" stroke="#ff0000" d="M1049.6856,-1133.144C1086.4758,-1118.7909 1140.8398,-1097.5816 1180.6375,-1082.0552"/>
<polygon fill="#ff0000" stroke="#ff0000" points="1182.1227,-1085.2327 1190.1667,-1078.3375 1179.5784,-1078.7115 1182.1227,-1085.2327"/>
</g>
<!-- #38 CFG_F_START main -->
<g id="node3" class="node">
<title>#38 CFG_F_START main</title>
<ellipse fill="none" stroke="#ff0000" cx="1097.0433" cy="-1236" rx="105.0817" ry="18"/>
<text text-anchor="middle" x="1097.0433" y="-1232.3" font-family="Times,serif" font-size="14.00" fill="#ff0000">#38 CFG_F_START main</text>
</g>
<!-- #38 CFG_F_START main&#45;&gt;#1 Function (search) -->
<g id="edge2" class="edge">
<title>#38 CFG_F_START main&#45;&gt;#1 Function (search)</title>
<path fill="none" stroke="#ff0000" d="M1078.8096,-1217.9735C1065.8627,-1205.1738 1048.3204,-1187.8308 1034.0654,-1173.7379"/>
<polygon fill="#ff0000" stroke="#ff0000" points="1036.5245,-1171.2473 1026.9525,-1166.7057 1031.6031,-1176.2253 1036.5245,-1171.2473"/>
</g>
<!-- #40 CFG_F_START 1_search -->
<g id="node4" class="node">
<title>#40 CFG_F_START 1_search</title>
<ellipse fill="none" stroke="#ff0000" cx="1000.0433" cy="-1062" rx="118.0794" ry="18"/>
<text text-anchor="middle" x="1000.0433" y="-1058.3" font-family="Times,serif" font-size="14.00" fill="#ff0000">#40 CFG_F_START 1_search</text>
</g>
<!-- #3 Variable (v1) -->
<g id="node5" class="node">
<title>#3 Variable (v1)</title>
<ellipse fill="none" stroke="#000000" cx="1035.0433" cy="-975" rx="69.5877" ry="18"/>
<text text-anchor="middle" x="1035.0433" y="-971.3" font-family="Times,serif" font-size="14.00" fill="#000000">#3 Variable (v1)</text>
</g>
<!-- #40 CFG_F_START 1_search&#45;&gt;#3 Variable (v1) -->
<g id="edge3" class="edge">
<title>#40 CFG_F_START 1_search&#45;&gt;#3 Variable (v1)</title>
<path fill="none" stroke="#ff0000" d="M1004.3689,-1043.7246C1006.9654,-1033.8515 1010.6228,-1021.556 1015.0433,-1011 1016.3136,-1007.9664 1017.7732,-1004.8606 1019.313,-1001.8066"/>
<polygon fill="#ff0000" stroke="#ff0000" points="1022.434,-1003.3922 1024.0639,-992.9235 1016.2614,-1000.0909 1022.434,-1003.3922"/>
</g>
<!-- #4 MemberExpression -->
<g id="node13" class="node">
<title>#4 MemberExpression</title>
<ellipse fill="none" stroke="#000000" cx="774.0433" cy="-888" rx="91.784" ry="18"/>
<text text-anchor="middle" x="774.0433" y="-884.3" font-family="Times,serif" font-size="14.00" fill="#000000">#4 MemberExpression</text>
</g>
<!-- #3 Variable (v1)&#45;&gt;#4 MemberExpression -->
<g id="edge12" class="edge">
<title>#3 Variable (v1)&#45;&gt;#4 MemberExpression</title>
<path fill="none" stroke="#0000ff" d="M998.7183,-959.5574C972.8548,-948.8568 937.136,-934.6716 905.0433,-924 884.2728,-917.0933 861.3462,-910.4632 840.5561,-904.8168"/>
<polygon fill="#0000ff" stroke="#0000ff" points="841.422,-901.4254 830.8563,-902.211 839.6058,-908.1857 841.422,-901.4254"/>
<text text-anchor="middle" x="954.5433" y="-927.8" font-family="Times,serif" font-size="14.00" fill="#0000ff">init</text>
</g>
<!-- #7 Variable (v2) -->
<g id="node14" class="node">
<title>#7 Variable (v2)</title>
<ellipse fill="none" stroke="#000000" cx="1039.0433" cy="-888" rx="69.5877" ry="18"/>
<text text-anchor="middle" x="1039.0433" y="-884.3" font-family="Times,serif" font-size="14.00" fill="#000000">#7 Variable (v2)</text>
</g>
<!-- #3 Variable (v1)&#45;&gt;#7 Variable (v2) -->
<g id="edge13" class="edge">
<title>#3 Variable (v1)&#45;&gt;#7 Variable (v2)</title>
<path fill="none" stroke="#ff0000" d="M1047.3295,-957.0773C1050.478,-951.5277 1053.4291,-945.229 1055.0433,-939 1057.0502,-931.255 1055.8904,-922.942 1053.4694,-915.3222"/>
<polygon fill="#ff0000" stroke="#ff0000" points="1056.6435,-913.8304 1049.7203,-905.8105 1050.1311,-916.3973 1056.6435,-913.8304"/>
</g>
<!-- #3 Variable (v1)&#45;&gt;#7 Variable (v2) -->
<g id="edge14" class="edge">
<title>#3 Variable (v1)&#45;&gt;#7 Variable (v2)</title>
<path fill="none" stroke="#006400" d="M1026.2613,-957.1232C1022.5367,-947.3668 1019.5641,-935.0557 1022.0433,-924 1022.6813,-921.1547 1023.5707,-918.2696 1024.6113,-915.4349"/>
<polygon fill="#006400" stroke="#006400" points="1027.879,-916.6947 1028.5862,-906.1235 1021.4411,-913.9464 1027.879,-916.6947"/>
<text text-anchor="middle" x="1036.5433" y="-927.8" font-family="Times,serif" font-size="14.00" fill="#006400">VAR</text>
</g>
<!-- #43 PDG_OBJECT o1&#45;&gt;#3 Variable (v1) -->
<g id="edge4" class="edge">
<title>#43 PDG_OBJECT o1&#45;&gt;#3 Variable (v1)</title>
<path fill="none" stroke="#006400" d="M1371.8355,-1049.2674C1360.277,-1047.2951 1348.3298,-1045.4387 1337.0433,-1044 1284.4291,-1037.2931 1148.4136,-1045.3856 1099.0433,-1026 1084.2514,-1020.1919 1070.1677,-1009.7233 1058.9971,-999.7755"/>
<polygon fill="#006400" stroke="#006400" points="1061.1096,-996.9596 1051.4096,-992.698 1056.3348,-1002.0785 1061.1096,-996.9596"/>
<text text-anchor="middle" x="1141.5433" y="-1014.8" font-family="Times,serif" font-size="14.00" fill="#006400">LOOKUP filter</text>
</g>
<!-- #10 Variable (v3) -->
<g id="node7" class="node">
<title>#10 Variable (v3)</title>
<ellipse fill="none" stroke="#000000" cx="1154.0433" cy="-801" rx="73.387" ry="18"/>
<text text-anchor="middle" x="1154.0433" y="-797.3" font-family="Times,serif" font-size="14.00" fill="#000000">#10 Variable (v3)</text>
</g>
<!-- #43 PDG_OBJECT o1&#45;&gt;#10 Variable (v3) -->
<g id="edge5" class="edge">
<title>#43 PDG_OBJECT o1&#45;&gt;#10 Variable (v3)</title>
<path fill="none" stroke="#006400" d="M1417.5915,-1044.0604C1368.095,-998.4117 1237.2918,-877.7769 1180.7292,-825.6114"/>
<polygon fill="#006400" stroke="#006400" points="1182.9808,-822.9267 1173.2569,-818.72 1178.2351,-828.0725 1182.9808,-822.9267"/>
<text text-anchor="middle" x="1358.0433" y="-927.8" font-family="Times,serif" font-size="14.00" fill="#006400">LOOKUP collection</text>
</g>
<!-- #44 PDG_OBJECT o2 -->
<g id="node8" class="node">
<title>#44 PDG_OBJECT o2</title>
<ellipse fill="none" stroke="#006400" cx="674.0433" cy="-366" rx="91.784" ry="18"/>
<text text-anchor="middle" x="674.0433" y="-362.3" font-family="Times,serif" font-size="14.00" fill="#006400">#44 PDG_OBJECT o2</text>
</g>
<!-- #43 PDG_OBJECT o1&#45;&gt;#44 PDG_OBJECT o2 -->
<g id="edge6" class="edge">
<title>#43 PDG_OBJECT o1&#45;&gt;#44 PDG_OBJECT o2</title>
<path fill="none" stroke="#000000" d="M1462.3639,-1044.3947C1481.6973,-1028.6824 1505.0433,-1003.7557 1505.0433,-975 1505.0433,-975 1505.0433,-975 1505.0433,-453 1505.0433,-371.5274 855.7713,-394.9899 775.0433,-384 766.8616,-382.8862 758.3311,-381.5855 749.8462,-380.2021"/>
<polygon fill="#000000" stroke="#000000" points="750.3703,-376.7413 739.9304,-378.5464 749.2174,-383.6457 750.3703,-376.7413"/>
<text text-anchor="middle" x="1553.5433" y="-710.3" font-family="Times,serif" font-size="14.00" fill="#000000">NEW_VERSION</text>
</g>
<!-- #11 MemberExpression -->
<g id="node15" class="node">
<title>#11 MemberExpression</title>
<ellipse fill="none" stroke="#000000" cx="1171.0433" cy="-714" rx="96.3833" ry="18"/>
<text text-anchor="middle" x="1171.0433" y="-710.3" font-family="Times,serif" font-size="14.00" fill="#000000">#11 MemberExpression</text>
</g>
<!-- #10 Variable (v3)&#45;&gt;#11 MemberExpression -->
<g id="edge15" class="edge">
<title>#10 Variable (v3)&#45;&gt;#11 MemberExpression</title>
<path fill="none" stroke="#0000ff" d="M1157.5657,-782.9735C1159.8678,-771.1918 1162.9222,-755.5607 1165.5411,-742.1581"/>
<polygon fill="#0000ff" stroke="#0000ff" points="1169.0426,-742.489 1167.5254,-732.0034 1162.1725,-741.1465 1169.0426,-742.489"/>
<text text-anchor="middle" x="1172.5433" y="-753.8" font-family="Times,serif" font-size="14.00" fill="#0000ff">init</text>
</g>
<!-- #14 Variable (v4) -->
<g id="node16" class="node">
<title>#14 Variable (v4)</title>
<ellipse fill="none" stroke="#000000" cx="981.0433" cy="-714" rx="73.387" ry="18"/>
<text text-anchor="middle" x="981.0433" y="-710.3" font-family="Times,serif" font-size="14.00" fill="#000000">#14 Variable (v4)</text>
</g>
<!-- #10 Variable (v3)&#45;&gt;#14 Variable (v4) -->
<g id="edge16" class="edge">
<title>#10 Variable (v3)&#45;&gt;#14 Variable (v4)</title>
<path fill="none" stroke="#ff0000" d="M1140.1628,-783.1317C1130.7649,-772.143 1117.4677,-758.5715 1103.0433,-750 1086.7095,-740.294 1067.5747,-733.0457 1049.3664,-727.6996"/>
<polygon fill="#ff0000" stroke="#ff0000" points="1050.2328,-724.3077 1039.6605,-724.9981 1048.3559,-731.0514 1050.2328,-724.3077"/>
</g>
<!-- #10 Variable (v3)&#45;&gt;#14 Variable (v4) -->
<g id="edge17" class="edge">
<title>#10 Variable (v3)&#45;&gt;#14 Variable (v4)</title>
<path fill="none" stroke="#006400" d="M1113.9792,-785.6875C1099.815,-779.7919 1083.9545,-772.6297 1070.0433,-765 1059.6671,-759.3092 1058.1585,-756.1425 1048.0433,-750 1039.7502,-744.964 1030.6982,-739.8532 1022.0062,-735.1254"/>
<polygon fill="#006400" stroke="#006400" points="1023.5913,-732.0039 1013.1253,-730.3564 1020.2795,-738.171 1023.5913,-732.0039"/>
<text text-anchor="middle" x="1084.5433" y="-753.8" font-family="Times,serif" font-size="14.00" fill="#006400">VAR</text>
</g>
<!-- #27 Variable (v5) -->
<g id="node9" class="node">
<title>#27 Variable (v5)</title>
<ellipse fill="none" stroke="#000000" cx="569.0433" cy="-279" rx="73.387" ry="18"/>
<text text-anchor="middle" x="569.0433" y="-275.3" font-family="Times,serif" font-size="14.00" fill="#000000">#27 Variable (v5)</text>
</g>
<!-- #44 PDG_OBJECT o2&#45;&gt;#27 Variable (v5) -->
<g id="edge7" class="edge">
<title>#44 PDG_OBJECT o2&#45;&gt;#27 Variable (v5)</title>
<path fill="none" stroke="#006400" d="M652.7949,-348.3943C637.0367,-335.3374 615.3723,-317.3869 598.0256,-303.014"/>
<polygon fill="#006400" stroke="#006400" points="599.8349,-299.9678 589.9016,-296.2827 595.3688,-305.358 599.8349,-299.9678"/>
<text text-anchor="middle" x="670.5433" y="-318.8" font-family="Times,serif" font-size="14.00" fill="#006400">LOOKUP filter</text>
</g>
<!-- #28 MemberExpression -->
<g id="node17" class="node">
<title>#28 MemberExpression</title>
<ellipse fill="none" stroke="#000000" cx="672.0433" cy="-192" rx="96.3833" ry="18"/>
<text text-anchor="middle" x="672.0433" y="-188.3" font-family="Times,serif" font-size="14.00" fill="#000000">#28 MemberExpression</text>
</g>
<!-- #27 Variable (v5)&#45;&gt;#28 MemberExpression -->
<g id="edge18" class="edge">
<title>#27 Variable (v5)&#45;&gt;#28 MemberExpression</title>
<path fill="none" stroke="#0000ff" d="M589.8868,-261.3943C605.2439,-248.4228 626.3191,-230.6213 643.2787,-216.2962"/>
<polygon fill="#0000ff" stroke="#0000ff" points="645.8496,-218.7062 651.2307,-209.5796 641.3327,-213.3585 645.8496,-218.7062"/>
<text text-anchor="middle" x="636.5433" y="-231.8" font-family="Times,serif" font-size="14.00" fill="#0000ff">init</text>
</g>
<!-- #31 Variable (v6) -->
<g id="node18" class="node">
<title>#31 Variable (v6)</title>
<ellipse fill="none" stroke="#000000" cx="484.0433" cy="-192" rx="73.387" ry="18"/>
<text text-anchor="middle" x="484.0433" y="-188.3" font-family="Times,serif" font-size="14.00" fill="#000000">#31 Variable (v6)</text>
</g>
<!-- #27 Variable (v5)&#45;&gt;#31 Variable (v6) -->
<g id="edge19" class="edge">
<title>#27 Variable (v5)&#45;&gt;#31 Variable (v6)</title>
<path fill="none" stroke="#ff0000" d="M547.5103,-261.6966C540.752,-255.9655 533.4006,-249.4093 527.0433,-243 519.336,-235.2298 511.4594,-226.2467 504.5888,-218.0049"/>
<polygon fill="#ff0000" stroke="#ff0000" points="507.1425,-215.5992 498.0971,-210.0827 501.7281,-220.0359 507.1425,-215.5992"/>
</g>
<!-- #27 Variable (v5)&#45;&gt;#31 Variable (v6) -->
<g id="edge20" class="edge">
<title>#27 Variable (v5)&#45;&gt;#31 Variable (v6)</title>
<path fill="none" stroke="#006400" d="M555.425,-260.8403C547.5547,-250.7757 537.2212,-238.2607 527.0433,-228 523.015,-223.939 518.571,-219.846 514.1142,-215.9494"/>
<polygon fill="#006400" stroke="#006400" points="516.0527,-213.0038 506.1652,-209.1973 511.5209,-218.3388 516.0527,-213.0038"/>
<text text-anchor="middle" x="555.5433" y="-231.8" font-family="Times,serif" font-size="14.00" fill="#006400">VAR</text>
</g>
<!-- #37 BlockStatement&#45;&gt;#3 Variable (v1) -->
<g id="edge21" class="edge">
<title>#37 BlockStatement&#45;&gt;#3 Variable (v1)</title>
<path fill="none" stroke="#0000ff" d="M666.9033,-1049.3147C677.8883,-1047.3004 689.2822,-1045.4174 700.0433,-1044 812.2461,-1029.2206 846.4866,-1061.2061 954.0433,-1026 972.6583,-1019.9068 991.3027,-1008.6132 1006.0034,-998.1996"/>
<polygon fill="#0000ff" stroke="#0000ff" points="1008.1737,-1000.9484 1014.1731,-992.2159 1004.0374,-995.3011 1008.1737,-1000.9484"/>
<text text-anchor="middle" x="988.5433" y="-1014.8" font-family="Times,serif" font-size="14.00" fill="#0000ff">1</text>
</g>
<!-- #37 BlockStatement&#45;&gt;#10 Variable (v3) -->
<g id="edge23" class="edge">
<title>#37 BlockStatement&#45;&gt;#10 Variable (v3)</title>
<path fill="none" stroke="#0000ff" d="M635.1005,-1044.7633C693.8775,-1009.1019 834.8689,-925.8899 960.0433,-870 1005.6317,-849.6449 1059.2194,-830.9627 1098.5092,-818.1865"/>
<polygon fill="#0000ff" stroke="#0000ff" points="1099.7339,-821.4691 1108.1765,-815.0682 1097.5849,-814.8072 1099.7339,-821.4691"/>
<text text-anchor="middle" x="849.5433" y="-927.8" font-family="Times,serif" font-size="14.00" fill="#0000ff">3</text>
</g>
<!-- #37 BlockStatement&#45;&gt;#27 Variable (v5) -->
<g id="edge26" class="edge">
<title>#37 BlockStatement&#45;&gt;#27 Variable (v5)</title>
<path fill="none" stroke="#0000ff" d="M588.2082,-1044.2235C572.9745,-1027.8505 554.0433,-1002.0599 554.0433,-975 554.0433,-975 554.0433,-975 554.0433,-366 554.0433,-346.0725 557.9123,-323.9459 561.7204,-306.9939"/>
<polygon fill="#0000ff" stroke="#0000ff" points="565.1473,-307.7113 564.0485,-297.1736 558.3361,-306.0965 565.1473,-307.7113"/>
<text text-anchor="middle" x="557.5433" y="-666.8" font-family="Times,serif" font-size="14.00" fill="#0000ff">6</text>
</g>
<!-- #37 BlockStatement&#45;&gt;#7 Variable (v2) -->
<g id="edge22" class="edge">
<title>#37 BlockStatement&#45;&gt;#7 Variable (v2)</title>
<path fill="none" stroke="#0000ff" d="M666.922,-1049.4531C677.9052,-1047.4248 689.2936,-1045.5012 700.0433,-1044 745.9923,-1037.5832 870.1953,-1052.8333 908.0433,-1026 948.6119,-997.2377 918.4759,-958.757 954.0433,-924 961.9412,-916.282 971.7457,-910.1107 981.8581,-905.2125"/>
<polygon fill="#0000ff" stroke="#0000ff" points="983.4709,-908.3258 991.1858,-901.0643 980.6264,-901.9298 983.4709,-908.3258"/>
<text text-anchor="middle" x="939.5433" y="-971.3" font-family="Times,serif" font-size="14.00" fill="#0000ff">2</text>
</g>
<!-- #37 BlockStatement&#45;&gt;#14 Variable (v4) -->
<g id="edge24" class="edge">
<title>#37 BlockStatement&#45;&gt;#14 Variable (v4)</title>
<path fill="none" stroke="#0000ff" d="M617.5384,-1043.9961C626.5318,-1026.8483 638.0433,-1000.0136 638.0433,-975 638.0433,-975 638.0433,-975 638.0433,-801 638.0433,-747.3965 797.4252,-726.4462 898.8981,-718.5398"/>
<polygon fill="#0000ff" stroke="#0000ff" points="899.4295,-722.0098 909.1392,-717.7706 898.9051,-715.0295 899.4295,-722.0098"/>
<text text-anchor="middle" x="641.5433" y="-884.3" font-family="Times,serif" font-size="14.00" fill="#0000ff">4</text>
</g>
<!-- #37 BlockStatement&#45;&gt;#31 Variable (v6) -->
<g id="edge27" class="edge">
<title>#37 BlockStatement&#45;&gt;#31 Variable (v6)</title>
<path fill="none" stroke="#0000ff" d="M527.5393,-1056.5047C431.3235,-1047.6202 282.0433,-1025.6709 282.0433,-975 282.0433,-975 282.0433,-975 282.0433,-279 282.0433,-248.5443 360.4782,-222.263 419.5977,-206.7794"/>
<polygon fill="#0000ff" stroke="#0000ff" points="420.8286,-210.077 429.6452,-204.2018 419.0891,-203.2966 420.8286,-210.077"/>
<text text-anchor="middle" x="285.5433" y="-623.3" font-family="Times,serif" font-size="14.00" fill="#0000ff">7</text>
</g>
<!-- #18 IfStatement -->
<g id="node19" class="node">
<title>#18 IfStatement</title>
<ellipse fill="none" stroke="#000000" cx="738.0433" cy="-627" rx="67.6881" ry="18"/>
<text text-anchor="middle" x="738.0433" y="-623.3" font-family="Times,serif" font-size="14.00" fill="#000000">#18 IfStatement</text>
</g>
<!-- #37 BlockStatement&#45;&gt;#18 IfStatement -->
<g id="edge25" class="edge">
<title>#37 BlockStatement&#45;&gt;#18 IfStatement</title>
<path fill="none" stroke="#0000ff" d="M602.0485,-1043.8264C597.685,-1026.3335 592.0433,-999.0634 592.0433,-975 592.0433,-975 592.0433,-975 592.0433,-714 592.0433,-673.7424 633.5139,-651.6842 672.2508,-639.8613"/>
<polygon fill="#0000ff" stroke="#0000ff" points="673.3602,-643.1844 682.0134,-637.0711 671.4365,-636.4539 673.3602,-643.1844"/>
<text text-anchor="middle" x="595.5433" y="-840.8" font-family="Times,serif" font-size="14.00" fill="#0000ff">5</text>
</g>
<!-- #35 ExpressionStatement -->
<g id="node20" class="node">
<title>#35 ExpressionStatement</title>
<ellipse fill="none" stroke="#000000" cx="279.0433" cy="-105" rx="100.9827" ry="18"/>
<text text-anchor="middle" x="279.0433" y="-101.3" font-family="Times,serif" font-size="14.00" fill="#000000">#35 ExpressionStatement</text>
</g>
<!-- #37 BlockStatement&#45;&gt;#35 ExpressionStatement -->
<g id="edge28" class="edge">
<title>#37 BlockStatement&#45;&gt;#35 ExpressionStatement</title>
<path fill="none" stroke="#0000ff" d="M525.5224,-1058.3534C362.9804,-1049.989 14.0433,-1026.0837 14.0433,-975 14.0433,-975 14.0433,-975 14.0433,-192 14.0433,-154.5207 110.9395,-130.5567 187.5482,-117.4671"/>
<polygon fill="#0000ff" stroke="#0000ff" points="188.4451,-120.8659 197.7336,-115.7695 187.2942,-113.9612 188.4451,-120.8659"/>
<text text-anchor="middle" x="17.5433" y="-579.8" font-family="Times,serif" font-size="14.00" fill="#0000ff">8</text>
</g>
<!-- #5 Identifier (opts) -->
<g id="node21" class="node">
<title>#5 Identifier (opts)</title>
<ellipse fill="none" stroke="#000000" cx="921.0433" cy="-801" rx="77.1866" ry="18"/>
<text text-anchor="middle" x="921.0433" y="-797.3" font-family="Times,serif" font-size="14.00" fill="#000000">#5 Identifier (opts)</text>
</g>
<!-- #4 MemberExpression&#45;&gt;#5 Identifier (opts) -->
<g id="edge29" class="edge">
<title>#4 MemberExpression&#45;&gt;#5 Identifier (opts)</title>
<path fill="none" stroke="#0000ff" d="M796.7269,-870.4376C810.5822,-860.0935 828.8809,-847.0998 846.0433,-837 855.2876,-831.5598 865.4802,-826.2464 875.293,-821.4439"/>
<polygon fill="#0000ff" stroke="#0000ff" points="877.0381,-824.4888 884.5413,-817.0086 874.0111,-818.1771 877.0381,-824.4888"/>
<text text-anchor="middle" x="863.0433" y="-840.8" font-family="Times,serif" font-size="14.00" fill="#0000ff">object</text>
</g>
<!-- #6 Identifier (filter) -->
<g id="node22" class="node">
<title>#6 Identifier (filter)</title>
<ellipse fill="none" stroke="#000000" cx="746.0433" cy="-801" rx="79.8859" ry="18"/>
<text text-anchor="middle" x="746.0433" y="-797.3" font-family="Times,serif" font-size="14.00" fill="#000000">#6 Identifier (filter)</text>
</g>
<!-- #4 MemberExpression&#45;&gt;#6 Identifier (filter) -->
<g id="edge30" class="edge">
<title>#4 MemberExpression&#45;&gt;#6 Identifier (filter)</title>
<path fill="none" stroke="#0000ff" d="M768.2416,-869.9735C764.4123,-858.0751 759.3194,-842.2508 754.9777,-828.7606"/>
<polygon fill="#0000ff" stroke="#0000ff" points="758.2328,-827.4502 751.8374,-819.0034 751.5694,-829.5948 758.2328,-827.4502"/>
<text text-anchor="middle" x="785.0433" y="-840.8" font-family="Times,serif" font-size="14.00" fill="#0000ff">property</text>
</g>
<!-- #7 Variable (v2)&#45;&gt;#10 Variable (v3) -->
<g id="edge32" class="edge">
<title>#7 Variable (v2)&#45;&gt;#10 Variable (v3)</title>
<path fill="none" stroke="#ff0000" d="M1061.7636,-870.8116C1079.3257,-857.5254 1103.8216,-838.9938 1123.162,-824.3624"/>
<polygon fill="#ff0000" stroke="#ff0000" points="1125.5068,-826.9772 1131.3702,-818.1527 1121.2835,-821.3947 1125.5068,-826.9772"/>
</g>
<!-- #7 Variable (v2)&#45;&gt;#14 Variable (v4) -->
<g id="edge33" class="edge">
<title>#7 Variable (v2)&#45;&gt;#14 Variable (v4)</title>
<path fill="none" stroke="#006400" d="M1033.8479,-869.6757C1027.7915,-848.631 1017.2984,-813.1275 1007.0433,-783 1002.3562,-769.2303 996.7078,-754.0908 991.8748,-741.5102"/>
<polygon fill="#006400" stroke="#006400" points="995.0838,-740.1047 988.2075,-732.0444 988.5565,-742.6335 995.0838,-740.1047"/>
<text text-anchor="middle" x="1033.5433" y="-797.3" font-family="Times,serif" font-size="14.00" fill="#006400">VAR</text>
</g>
<!-- #8 UnaryExpression (!) -->
<g id="node23" class="node">
<title>#8 UnaryExpression (!)</title>
<ellipse fill="none" stroke="#000000" cx="1348.0433" cy="-801" rx="94.4839" ry="18"/>
<text text-anchor="middle" x="1348.0433" y="-797.3" font-family="Times,serif" font-size="14.00" fill="#000000">#8 UnaryExpression (!)</text>
</g>
<!-- #7 Variable (v2)&#45;&gt;#8 UnaryExpression (!) -->
<g id="edge31" class="edge">
<title>#7 Variable (v2)&#45;&gt;#8 UnaryExpression (!)</title>
<path fill="none" stroke="#0000ff" d="M1086.3101,-874.6919C1139.5292,-859.7078 1226.2445,-835.2928 1285.1505,-818.7077"/>
<polygon fill="#0000ff" stroke="#0000ff" points="1286.4056,-821.9905 1295.0828,-815.9112 1284.5084,-815.2524 1286.4056,-821.9905"/>
<text text-anchor="middle" x="1221.5433" y="-840.8" font-family="Times,serif" font-size="14.00" fill="#0000ff">init</text>
</g>
<!-- #12 Identifier (opts) -->
<g id="node24" class="node">
<title>#12 Identifier (opts)</title>
<ellipse fill="none" stroke="#000000" cx="1173.0433" cy="-627" rx="81.7856" ry="18"/>
<text text-anchor="middle" x="1173.0433" y="-623.3" font-family="Times,serif" font-size="14.00" fill="#000000">#12 Identifier (opts)</text>
</g>
<!-- #11 MemberExpression&#45;&gt;#12 Identifier (opts) -->
<g id="edge34" class="edge">
<title>#11 MemberExpression&#45;&gt;#12 Identifier (opts)</title>
<path fill="none" stroke="#0000ff" d="M1171.4577,-695.9735C1171.7285,-684.1918 1172.0878,-668.5607 1172.3959,-655.1581"/>
<polygon fill="#0000ff" stroke="#0000ff" points="1175.8985,-655.0812 1172.6294,-645.0034 1168.9004,-654.9202 1175.8985,-655.0812"/>
<text text-anchor="middle" x="1189.0433" y="-666.8" font-family="Times,serif" font-size="14.00" fill="#0000ff">object</text>
</g>
<!-- #13 Identifier (collection) -->
<g id="node25" class="node">
<title>#13 Identifier (collection)</title>
<ellipse fill="none" stroke="#000000" cx="1375.0433" cy="-627" rx="102.0819" ry="18"/>
<text text-anchor="middle" x="1375.0433" y="-623.3" font-family="Times,serif" font-size="14.00" fill="#000000">#13 Identifier (collection)</text>
</g>
<!-- #11 MemberExpression&#45;&gt;#13 Identifier (collection) -->
<g id="edge35" class="edge">
<title>#11 MemberExpression&#45;&gt;#13 Identifier (collection)</title>
<path fill="none" stroke="#0000ff" d="M1209.8943,-697.4312C1243.1098,-683.2657 1291.0548,-662.8186 1326.7371,-647.6011"/>
<polygon fill="#0000ff" stroke="#0000ff" points="1328.1646,-650.7974 1335.99,-643.6551 1325.4185,-644.3585 1328.1646,-650.7974"/>
<text text-anchor="middle" x="1308.0433" y="-666.8" font-family="Times,serif" font-size="14.00" fill="#0000ff">property</text>
</g>
<!-- #14 Variable (v4)&#45;&gt;#18 IfStatement -->
<g id="edge37" class="edge">
<title>#14 Variable (v4)&#45;&gt;#18 IfStatement</title>
<path fill="none" stroke="#ff0000" d="M920.2612,-703.8341C891.6944,-698.0184 857.5169,-689.5445 828.0433,-678 808.5722,-670.3734 788.1947,-659.1339 771.7634,-649.1458"/>
<polygon fill="#ff0000" stroke="#ff0000" points="773.4149,-646.0517 763.0716,-643.7565 769.7261,-652.0009 773.4149,-646.0517"/>
</g>
<!-- #15 LogicalExpression -->
<g id="node26" class="node">
<title>#15 LogicalExpression</title>
<ellipse fill="none" stroke="#000000" cx="981.0433" cy="-627" rx="92.0841" ry="18"/>
<text text-anchor="middle" x="981.0433" y="-623.3" font-family="Times,serif" font-size="14.00" fill="#000000">#15 LogicalExpression</text>
</g>
<!-- #14 Variable (v4)&#45;&gt;#15 LogicalExpression -->
<g id="edge36" class="edge">
<title>#14 Variable (v4)&#45;&gt;#15 LogicalExpression</title>
<path fill="none" stroke="#0000ff" d="M981.0433,-695.9735C981.0433,-684.1918 981.0433,-668.5607 981.0433,-655.1581"/>
<polygon fill="#0000ff" stroke="#0000ff" points="984.5434,-655.0033 981.0433,-645.0034 977.5434,-655.0034 984.5434,-655.0033"/>
<text text-anchor="middle" x="990.5433" y="-666.8" font-family="Times,serif" font-size="14.00" fill="#0000ff">init</text>
</g>
<!-- #19 Identifier (v4) -->
<g id="node27" class="node">
<title>#19 Identifier (v4)</title>
<ellipse fill="none" stroke="#000000" cx="842.0433" cy="-540" rx="76.0865" ry="18"/>
<text text-anchor="middle" x="842.0433" y="-536.3" font-family="Times,serif" font-size="14.00" fill="#000000">#19 Identifier (v4)</text>
</g>
<!-- #14 Variable (v4)&#45;&gt;#19 Identifier (v4) -->
<g id="edge38" class="edge">
<title>#14 Variable (v4)&#45;&gt;#19 Identifier (v4)</title>
<path fill="none" stroke="#006400" d="M931.5319,-700.6838C903.1122,-690.3354 869.5036,-672.9217 851.0433,-645 836.0606,-622.3384 835.4305,-590.6409 837.5441,-568.0133"/>
<polygon fill="#006400" stroke="#006400" points="841.0279,-568.3549 838.7085,-558.017 834.0749,-567.5449 841.0279,-568.3549"/>
<text text-anchor="middle" x="865.5433" y="-623.3" font-family="Times,serif" font-size="14.00" fill="#006400">VAR</text>
</g>
<!-- #29 Identifier (opts) -->
<g id="node28" class="node">
<title>#29 Identifier (opts)</title>
<ellipse fill="none" stroke="#000000" cx="671.0433" cy="-105" rx="81.7856" ry="18"/>
<text text-anchor="middle" x="671.0433" y="-101.3" font-family="Times,serif" font-size="14.00" fill="#000000">#29 Identifier (opts)</text>
</g>
<!-- #28 MemberExpression&#45;&gt;#29 Identifier (opts) -->
<g id="edge39" class="edge">
<title>#28 MemberExpression&#45;&gt;#29 Identifier (opts)</title>
<path fill="none" stroke="#0000ff" d="M671.8361,-173.9735C671.7006,-162.1918 671.521,-146.5607 671.3669,-133.1581"/>
<polygon fill="#0000ff" stroke="#0000ff" points="674.865,-132.9624 671.2502,-123.0034 667.8655,-133.043 674.865,-132.9624"/>
<text text-anchor="middle" x="689.0433" y="-144.8" font-family="Times,serif" font-size="14.00" fill="#0000ff">object</text>
</g>
<!-- #30 Identifier (filter) -->
<g id="node29" class="node">
<title>#30 Identifier (filter)</title>
<ellipse fill="none" stroke="#000000" cx="855.0433" cy="-105" rx="84.485" ry="18"/>
<text text-anchor="middle" x="855.0433" y="-101.3" font-family="Times,serif" font-size="14.00" fill="#000000">#30 Identifier (filter)</text>
</g>
<!-- #28 MemberExpression&#45;&gt;#30 Identifier (filter) -->
<g id="edge40" class="edge">
<title>#28 MemberExpression&#45;&gt;#30 Identifier (filter)</title>
<path fill="none" stroke="#0000ff" d="M707.3275,-175.2255C737.0103,-161.114 779.5796,-140.8761 811.4013,-125.7478"/>
<polygon fill="#0000ff" stroke="#0000ff" points="812.9594,-128.8826 820.4879,-121.4279 809.9538,-122.5606 812.9594,-128.8826"/>
<text text-anchor="middle" x="798.0433" y="-144.8" font-family="Times,serif" font-size="14.00" fill="#0000ff">property</text>
</g>
<!-- #31 Variable (v6)&#45;&gt;#35 ExpressionStatement -->
<g id="edge42" class="edge">
<title>#31 Variable (v6)&#45;&gt;#35 ExpressionStatement</title>
<path fill="none" stroke="#ff0000" d="M446.9193,-176.245C413.5555,-162.0857 364.3314,-141.1954 327.8034,-125.6933"/>
<polygon fill="#ff0000" stroke="#ff0000" points="328.908,-122.36 318.3353,-121.6752 326.1733,-128.8037 328.908,-122.36"/>
</g>
<!-- #31 Variable (v6)&#45;&gt;#35 ExpressionStatement -->
<g id="edge43" class="edge">
<title>#31 Variable (v6)&#45;&gt;#35 ExpressionStatement</title>
<path fill="none" stroke="#006400" d="M429.0687,-179.8691C390.8935,-171.2179 345.4302,-160.374 337.0433,-156 324.4726,-149.4441 312.3917,-139.6036 302.5405,-130.3102"/>
<polygon fill="#006400" stroke="#006400" points="304.7366,-127.5611 295.1513,-123.0475 299.8297,-132.5534 304.7366,-127.5611"/>
<text text-anchor="middle" x="351.5433" y="-144.8" font-family="Times,serif" font-size="14.00" fill="#006400">VAR</text>
</g>
<!-- #32 CallExpression -->
<g id="node30" class="node">
<title>#32 CallExpression</title>
<ellipse fill="none" stroke="#000000" cx="487.0433" cy="-105" rx="79.8859" ry="18"/>
<text text-anchor="middle" x="487.0433" y="-101.3" font-family="Times,serif" font-size="14.00" fill="#000000">#32 CallExpression</text>
</g>
<!-- #31 Variable (v6)&#45;&gt;#32 CallExpression -->
<g id="edge41" class="edge">
<title>#31 Variable (v6)&#45;&gt;#32 CallExpression</title>
<path fill="none" stroke="#0000ff" d="M484.6649,-173.9735C485.0711,-162.1918 485.6101,-146.5607 486.0723,-133.1581"/>
<polygon fill="#0000ff" stroke="#0000ff" points="489.5757,-133.1181 486.4224,-123.0034 482.5798,-132.8768 489.5757,-133.1181"/>
<text text-anchor="middle" x="495.5433" y="-144.8" font-family="Times,serif" font-size="14.00" fill="#0000ff">init</text>
</g>
<!-- #18 IfStatement&#45;&gt;#19 Identifier (v4) -->
<g id="edge44" class="edge">
<title>#18 IfStatement&#45;&gt;#19 Identifier (v4)</title>
<path fill="none" stroke="#0000ff" d="M758.5903,-609.8116C774.1572,-596.7893 795.748,-578.7277 813.0684,-564.2386"/>
<polygon fill="#0000ff" stroke="#0000ff" points="815.7585,-566.5514 821.1829,-557.4505 811.267,-561.1823 815.7585,-566.5514"/>
<text text-anchor="middle" x="806.5433" y="-579.8" font-family="Times,serif" font-size="14.00" fill="#0000ff">test</text>
</g>
<!-- #18 IfStatement&#45;&gt;#19 Identifier (v4) -->
<g id="edge46" class="edge">
<title>#18 IfStatement&#45;&gt;#19 Identifier (v4)</title>
<path fill="none" stroke="#ff0000" d="M742.7674,-608.5687C746.2993,-597.9166 752.0905,-584.9042 761.0433,-576 768.0809,-569.0005 776.7142,-563.2428 785.6923,-558.5455"/>
<polygon fill="#ff0000" stroke="#ff0000" points="787.2438,-561.6832 794.7389,-554.1949 784.21,-555.3747 787.2438,-561.6832"/>
<text text-anchor="middle" x="770.5433" y="-579.8" font-family="Times,serif" font-size="14.00" fill="#ff0000">test</text>
</g>
<!-- #26 BlockStatement -->
<g id="node31" class="node">
<title>#26 BlockStatement</title>
<ellipse fill="none" stroke="#000000" cx="665.0433" cy="-540" rx="83.3857" ry="18"/>
<text text-anchor="middle" x="665.0433" y="-536.3" font-family="Times,serif" font-size="14.00" fill="#000000">#26 BlockStatement</text>
</g>
<!-- #18 IfStatement&#45;&gt;#26 BlockStatement -->
<g id="edge45" class="edge">
<title>#18 IfStatement&#45;&gt;#26 BlockStatement</title>
<path fill="none" stroke="#0000ff" d="M717.3107,-609.5442C711.1328,-603.9098 704.5477,-597.4471 699.0433,-591 692.6497,-583.5115 686.436,-574.7735 681.1076,-566.6676"/>
<polygon fill="#0000ff" stroke="#0000ff" points="684.0381,-564.7536 675.7064,-558.2089 678.1383,-568.5209 684.0381,-564.7536"/>
<text text-anchor="middle" x="711.0433" y="-579.8" font-family="Times,serif" font-size="14.00" fill="#0000ff">then</text>
</g>
<!-- #36 Identifier (v6) -->
<g id="node32" class="node">
<title>#36 Identifier (v6)</title>
<ellipse fill="none" stroke="#000000" cx="76.0433" cy="-18" rx="76.0865" ry="18"/>
<text text-anchor="middle" x="76.0433" y="-14.3" font-family="Times,serif" font-size="14.00" fill="#000000">#36 Identifier (v6)</text>
</g>
<!-- #35 ExpressionStatement&#45;&gt;#36 Identifier (v6) -->
<g id="edge47" class="edge">
<title>#35 ExpressionStatement&#45;&gt;#36 Identifier (v6)</title>
<path fill="none" stroke="#0000ff" d="M239.9028,-88.2255C206.4134,-73.8729 158.1365,-53.1828 122.6561,-37.9769"/>
<polygon fill="#0000ff" stroke="#0000ff" points="123.5813,-34.5656 113.0111,-33.8433 120.8238,-40.9996 123.5813,-34.5656"/>
<text text-anchor="middle" x="219.0433" y="-57.8" font-family="Times,serif" font-size="14.00" fill="#0000ff">expression</text>
</g>
<!-- #41 CFG_F_END 1_search -->
<g id="node33" class="node">
<title>#41 CFG_F_END 1_search</title>
<ellipse fill="none" stroke="#ff0000" cx="279.0433" cy="-18" rx="108.5808" ry="18"/>
<text text-anchor="middle" x="279.0433" y="-14.3" font-family="Times,serif" font-size="14.00" fill="#ff0000">#41 CFG_F_END 1_search</text>
</g>
<!-- #35 ExpressionStatement&#45;&gt;#41 CFG_F_END 1_search -->
<g id="edge48" class="edge">
<title>#35 ExpressionStatement&#45;&gt;#41 CFG_F_END 1_search</title>
<path fill="none" stroke="#ff0000" d="M279.0433,-86.9735C279.0433,-75.1918 279.0433,-59.5607 279.0433,-46.1581"/>
<polygon fill="#ff0000" stroke="#ff0000" points="282.5434,-46.0033 279.0433,-36.0034 275.5434,-46.0034 282.5434,-46.0033"/>
</g>
<!-- #9 Identifier (v1) -->
<g id="node34" class="node">
<title>#9 Identifier (v1)</title>
<ellipse fill="none" stroke="#000000" cx="1357.0433" cy="-714" rx="71.4873" ry="18"/>
<text text-anchor="middle" x="1357.0433" y="-710.3" font-family="Times,serif" font-size="14.00" fill="#000000">#9 Identifier (v1)</text>
</g>
<!-- #8 UnaryExpression (!)&#45;&gt;#9 Identifier (v1) -->
<g id="edge49" class="edge">
<title>#8 UnaryExpression (!)&#45;&gt;#9 Identifier (v1)</title>
<path fill="none" stroke="#0000ff" d="M1349.9081,-782.9735C1351.1269,-771.1918 1352.7439,-755.5607 1354.1303,-742.1581"/>
<polygon fill="#0000ff" stroke="#0000ff" points="1357.6332,-742.3105 1355.1808,-732.0034 1350.6703,-741.5901 1357.6332,-742.3105"/>
<text text-anchor="middle" x="1379.0433" y="-753.8" font-family="Times,serif" font-size="14.00" fill="#0000ff">argument</text>
</g>
<!-- #16 Identifier (v2) -->
<g id="node35" class="node">
<title>#16 Identifier (v2)</title>
<ellipse fill="none" stroke="#000000" cx="1012.0433" cy="-540" rx="76.0865" ry="18"/>
<text text-anchor="middle" x="1012.0433" y="-536.3" font-family="Times,serif" font-size="14.00" fill="#000000">#16 Identifier (v2)</text>
</g>
<!-- #15 LogicalExpression&#45;&gt;#16 Identifier (v2) -->
<g id="edge50" class="edge">
<title>#15 LogicalExpression&#45;&gt;#16 Identifier (v2)</title>
<path fill="none" stroke="#0000ff" d="M987.4665,-608.9735C991.7061,-597.0751 997.3447,-581.2508 1002.1515,-567.7606"/>
<polygon fill="#0000ff" stroke="#0000ff" points="1005.5686,-568.598 1005.6283,-558.0034 998.9747,-566.2484 1005.5686,-568.598"/>
<text text-anchor="middle" x="1008.5433" y="-579.8" font-family="Times,serif" font-size="14.00" fill="#0000ff">left</text>
</g>
<!-- #17 Identifier (v3) -->
<g id="node36" class="node">
<title>#17 Identifier (v3)</title>
<ellipse fill="none" stroke="#000000" cx="1182.0433" cy="-540" rx="76.0865" ry="18"/>
<text text-anchor="middle" x="1182.0433" y="-536.3" font-family="Times,serif" font-size="14.00" fill="#000000">#17 Identifier (v3)</text>
</g>
<!-- #15 LogicalExpression&#45;&gt;#17 Identifier (v3) -->
<g id="edge51" class="edge">
<title>#15 LogicalExpression&#45;&gt;#17 Identifier (v3)</title>
<path fill="none" stroke="#0000ff" d="M1019.3229,-610.4312C1052.4313,-596.1007 1100.3927,-575.3413 1135.6714,-560.0714"/>
<polygon fill="#0000ff" stroke="#0000ff" points="1137.4757,-563.1043 1145.2626,-555.92 1134.6951,-556.6802 1137.4757,-563.1043"/>
<text text-anchor="middle" x="1106.0433" y="-579.8" font-family="Times,serif" font-size="14.00" fill="#0000ff">right</text>
</g>
<!-- #20 ExpressionStatement -->
<g id="node37" class="node">
<title>#20 ExpressionStatement</title>
<ellipse fill="none" stroke="#000000" cx="683.0433" cy="-453" rx="100.9827" ry="18"/>
<text text-anchor="middle" x="683.0433" y="-449.3" font-family="Times,serif" font-size="14.00" fill="#000000">#20 ExpressionStatement</text>
</g>
<!-- #19 Identifier (v4)&#45;&gt;#20 ExpressionStatement -->
<g id="edge52" class="edge">
<title>#19 Identifier (v4)&#45;&gt;#20 ExpressionStatement</title>
<path fill="none" stroke="#ff0000" d="M811.7623,-523.4312C786.7484,-509.7443 751.0167,-490.193 723.5443,-475.1609"/>
<polygon fill="#ff0000" stroke="#ff0000" points="725.0243,-471.9811 714.5716,-470.2514 721.6642,-478.1219 725.0243,-471.9811"/>
<text text-anchor="middle" x="791.0433" y="-492.8" font-family="Times,serif" font-size="14.00" fill="#ff0000">TRUE</text>
</g>
<!-- #42 CFG_IF_END -->
<g id="node38" class="node">
<title>#42 CFG_IF_END</title>
<ellipse fill="none" stroke="#ff0000" cx="862.0433" cy="-366" rx="77.9862" ry="18"/>
<text text-anchor="middle" x="862.0433" y="-362.3" font-family="Times,serif" font-size="14.00" fill="#ff0000">#42 CFG_IF_END</text>
</g>
<!-- #19 Identifier (v4)&#45;&gt;#42 CFG_IF_END -->
<g id="edge53" class="edge">
<title>#19 Identifier (v4)&#45;&gt;#42 CFG_IF_END</title>
<path fill="none" stroke="#ff0000" d="M844.1458,-521.7078C847.6359,-491.3436 854.6499,-430.3226 858.785,-394.3464"/>
<polygon fill="#ff0000" stroke="#ff0000" points="862.304,-394.3814 859.9689,-384.0471 855.3498,-393.582 862.304,-394.3814"/>
<text text-anchor="middle" x="875.0433" y="-449.3" font-family="Times,serif" font-size="14.00" fill="#ff0000">FALSE</text>
</g>
<!-- #33 Identifier (eval) -->
<g id="node39" class="node">
<title>#33 Identifier (eval)</title>
<ellipse fill="none" stroke="#000000" cx="487.0433" cy="-18" rx="81.7856" ry="18"/>
<text text-anchor="middle" x="487.0433" y="-14.3" font-family="Times,serif" font-size="14.00" fill="#000000">#33 Identifier (eval)</text>
</g>
<!-- #32 CallExpression&#45;&gt;#33 Identifier (eval) -->
<g id="edge54" class="edge">
<title>#32 CallExpression&#45;&gt;#33 Identifier (eval)</title>
<path fill="none" stroke="#0000ff" d="M487.0433,-86.9735C487.0433,-75.1918 487.0433,-59.5607 487.0433,-46.1581"/>
<polygon fill="#0000ff" stroke="#0000ff" points="490.5434,-46.0033 487.0433,-36.0034 483.5434,-46.0034 490.5434,-46.0033"/>
<text text-anchor="middle" x="503.0433" y="-57.8" font-family="Times,serif" font-size="14.00" fill="#0000ff">callee</text>
</g>
<!-- #34 Identifier (v5) -->
<g id="node40" class="node">
<title>#34 Identifier (v5)</title>
<ellipse fill="none" stroke="#000000" cx="663.0433" cy="-18" rx="76.0865" ry="18"/>
<text text-anchor="middle" x="663.0433" y="-14.3" font-family="Times,serif" font-size="14.00" fill="#000000">#34 Identifier (v5)</text>
</g>
<!-- #32 CallExpression&#45;&gt;#34 Identifier (v5) -->
<g id="edge55" class="edge">
<title>#32 CallExpression&#45;&gt;#34 Identifier (v5)</title>
<path fill="none" stroke="#0000ff" d="M520.5618,-88.4312C549.0333,-74.3572 590.0489,-54.0824 620.7697,-38.8966"/>
<polygon fill="#0000ff" stroke="#0000ff" points="622.5343,-41.9286 629.9479,-34.3596 619.4323,-35.6534 622.5343,-41.9286"/>
<text text-anchor="middle" x="600.0433" y="-57.8" font-family="Times,serif" font-size="14.00" fill="#0000ff">arg 1</text>
</g>
<!-- #26 BlockStatement&#45;&gt;#20 ExpressionStatement -->
<g id="edge56" class="edge">
<title>#26 BlockStatement&#45;&gt;#20 ExpressionStatement</title>
<path fill="none" stroke="#0000ff" d="M668.7729,-521.9735C671.2105,-510.1918 674.4445,-494.5607 677.2174,-481.1581"/>
<polygon fill="#0000ff" stroke="#0000ff" points="680.7197,-481.5051 679.3184,-471.0034 673.8649,-480.0868 680.7197,-481.5051"/>
<text text-anchor="middle" x="679.5433" y="-492.8" font-family="Times,serif" font-size="14.00" fill="#0000ff">1</text>
</g>
<!-- #20 ExpressionStatement&#45;&gt;#44 PDG_OBJECT o2 -->
<g id="edge59" class="edge">
<title>#20 ExpressionStatement&#45;&gt;#44 PDG_OBJECT o2</title>
<path fill="none" stroke="#006400" d="M681.1784,-434.9735C679.9596,-423.1918 678.3426,-407.5607 676.9562,-394.1581"/>
<polygon fill="#006400" stroke="#006400" points="680.4162,-393.5901 675.9057,-384.0034 673.4533,-394.3105 680.4162,-393.5901"/>
<text text-anchor="middle" x="717.0433" y="-405.8" font-family="Times,serif" font-size="14.00" fill="#006400">WRITE filter</text>
</g>
<!-- #20 ExpressionStatement&#45;&gt;#42 CFG_IF_END -->
<g id="edge58" class="edge">
<title>#20 ExpressionStatement&#45;&gt;#42 CFG_IF_END</title>
<path fill="none" stroke="#ff0000" d="M718.5538,-436.0302C731.0478,-430.0396 745.1787,-423.2416 758.0433,-417 778.319,-407.1626 800.7728,-396.1647 819.6122,-386.9076"/>
<polygon fill="#ff0000" stroke="#ff0000" points="821.3939,-389.9318 828.8235,-382.3786 818.3053,-383.65 821.3939,-389.9318"/>
</g>
<!-- #21 AssignmentExpression -->
<g id="node41" class="node">
<title>#21 AssignmentExpression</title>
<ellipse fill="none" stroke="#000000" cx="418.0433" cy="-366" rx="107.781" ry="18"/>
<text text-anchor="middle" x="418.0433" y="-362.3" font-family="Times,serif" font-size="14.00" fill="#000000">#21 AssignmentExpression</text>
</g>
<!-- #20 ExpressionStatement&#45;&gt;#21 AssignmentExpression -->
<g id="edge57" class="edge">
<title>#20 ExpressionStatement&#45;&gt;#21 AssignmentExpression</title>
<path fill="none" stroke="#0000ff" d="M634.7463,-437.144C590.3328,-422.563 524.3671,-400.9063 476.8911,-385.3198"/>
<polygon fill="#0000ff" stroke="#0000ff" points="477.9479,-381.9831 467.3551,-382.1892 475.7644,-388.6338 477.9479,-381.9831"/>
<text text-anchor="middle" x="596.0433" y="-405.8" font-family="Times,serif" font-size="14.00" fill="#0000ff">expression</text>
</g>
<!-- #42 CFG_IF_END&#45;&gt;#27 Variable (v5) -->
<g id="edge60" class="edge">
<title>#42 CFG_IF_END&#45;&gt;#27 Variable (v5)</title>
<path fill="none" stroke="#ff0000" d="M821.4603,-350.5056C792.5816,-339.7808 752.7318,-325.5881 717.0433,-315 690.0677,-306.9969 659.9478,-299.4272 633.9578,-293.3133"/>
<polygon fill="#ff0000" stroke="#ff0000" points="634.7476,-289.9037 624.2142,-291.0435 633.1594,-296.7211 634.7476,-289.9037"/>
</g>
<!-- #22 MemberExpression -->
<g id="node42" class="node">
<title>#22 MemberExpression</title>
<ellipse fill="none" stroke="#000000" cx="158.0433" cy="-279" rx="96.3833" ry="18"/>
<text text-anchor="middle" x="158.0433" y="-275.3" font-family="Times,serif" font-size="14.00" fill="#000000">#22 MemberExpression</text>
</g>
<!-- #21 AssignmentExpression&#45;&gt;#22 MemberExpression -->
<g id="edge61" class="edge">
<title>#21 AssignmentExpression&#45;&gt;#22 MemberExpression</title>
<path fill="none" stroke="#0000ff" d="M369.7486,-349.8399C325.8755,-335.1592 261.1231,-313.4921 214.7948,-297.9899"/>
<polygon fill="#0000ff" stroke="#0000ff" points="215.7965,-294.6344 205.2026,-294.7803 213.5752,-301.2727 215.7965,-294.6344"/>
<text text-anchor="middle" x="313.5433" y="-318.8" font-family="Times,serif" font-size="14.00" fill="#0000ff">left</text>
</g>
<!-- #25 Literal -->
<g id="node43" class="node">
<title>#25 Literal</title>
<ellipse fill="none" stroke="#000000" cx="418.0433" cy="-279" rx="50.0912" ry="18"/>
<text text-anchor="middle" x="418.0433" y="-275.3" font-family="Times,serif" font-size="14.00" fill="#000000">#25 Literal</text>
</g>
<!-- #21 AssignmentExpression&#45;&gt;#25 Literal -->
<g id="edge62" class="edge">
<title>#21 AssignmentExpression&#45;&gt;#25 Literal</title>
<path fill="none" stroke="#0000ff" d="M418.0433,-347.9735C418.0433,-336.1918 418.0433,-320.5607 418.0433,-307.1581"/>
<polygon fill="#0000ff" stroke="#0000ff" points="421.5434,-307.0033 418.0433,-297.0034 414.5434,-307.0034 421.5434,-307.0033"/>
<text text-anchor="middle" x="431.0433" y="-318.8" font-family="Times,serif" font-size="14.00" fill="#0000ff">right</text>
</g>
<!-- #23 Identifier (opts) -->
<g id="node44" class="node">
<title>#23 Identifier (opts)</title>
<ellipse fill="none" stroke="#000000" cx="124.0433" cy="-192" rx="81.7856" ry="18"/>
<text text-anchor="middle" x="124.0433" y="-188.3" font-family="Times,serif" font-size="14.00" fill="#000000">#23 Identifier (opts)</text>
</g>
<!-- #22 MemberExpression&#45;&gt;#23 Identifier (opts) -->
<g id="edge63" class="edge">
<title>#22 MemberExpression&#45;&gt;#23 Identifier (opts)</title>
<path fill="none" stroke="#0000ff" d="M150.9984,-260.9735C146.3029,-248.9585 140.0428,-232.9401 134.7374,-219.3646"/>
<polygon fill="#0000ff" stroke="#0000ff" points="137.979,-218.0434 131.079,-210.0034 131.4592,-220.5914 137.979,-218.0434"/>
<text text-anchor="middle" x="161.0433" y="-231.8" font-family="Times,serif" font-size="14.00" fill="#0000ff">object</text>
</g>
<!-- #24 Identifier (filter) -->
<g id="node45" class="node">
<title>#24 Identifier (filter)</title>
<ellipse fill="none" stroke="#000000" cx="308.0433" cy="-192" rx="84.485" ry="18"/>
<text text-anchor="middle" x="308.0433" y="-188.3" font-family="Times,serif" font-size="14.00" fill="#000000">#24 Identifier (filter)</text>
</g>
<!-- #22 MemberExpression&#45;&gt;#24 Identifier (filter) -->
<g id="edge64" class="edge">
<title>#22 MemberExpression&#45;&gt;#24 Identifier (filter)</title>
<path fill="none" stroke="#0000ff" d="M177.4639,-261.1793C189.6452,-250.6157 206.0286,-237.4833 222.0433,-228 232.3799,-221.879 243.9514,-216.2814 255.1731,-211.418"/>
<polygon fill="#0000ff" stroke="#0000ff" points="256.6164,-214.6081 264.4821,-207.5101 253.9068,-208.1537 256.6164,-214.6081"/>
<text text-anchor="middle" x="245.0433" y="-231.8" font-family="Times,serif" font-size="14.00" fill="#0000ff">property</text>
</g>
</g>
</svg>
