<?xml version="1.0" encoding="UTF-8" standalone="no"?>
<!DOCTYPE svg PUBLIC "-//W3C//DTD SVG 1.1//EN"
 "http://www.w3.org/Graphics/SVG/1.1/DTD/svg11.dtd">
<!-- Generated by graphviz version 2.40.1 (20161225.0304)
 -->
<!-- Title: G Pages: 1 -->
<svg width="568pt" height="1192pt"
 viewBox="0.00 0.00 568.00 1192.00" xmlns="http://www.w3.org/2000/svg" xmlns:xlink="http://www.w3.org/1999/xlink">
<g id="graph0" class="graph" transform="scale(1 1) rotate(0) translate(4 1188)">
<title>G</title>
<polygon fill="#ffffff" stroke="transparent" points="-4,4 -4,-1188 564,-1188 564,4 -4,4"/>
<!-- #0 Program -->
<g id="node1" class="node">
<title>#0 Program</title>
<ellipse fill="none" stroke="#000000" cx="277" cy="-1166" rx="52.7911" ry="18"/>
<text text-anchor="middle" x="277" y="-1162.3" font-family="Times,serif" font-size="14.00" fill="#000000">#0 Program</text>
</g>
<!-- #1 Function (xpto) -->
<g id="node2" class="node">
<title>#1 Function (xpto)</title>
<ellipse fill="none" stroke="#000000" cx="347" cy="-1079" rx="77.1866" ry="18"/>
<text text-anchor="middle" x="347" y="-1075.3" font-family="Times,serif" font-size="14.00" fill="#000000">#1 Function (xpto)</text>
</g>
<!-- #0 Program&#45;&gt;#1 Function (xpto) -->
<g id="edge1" class="edge">
<title>#0 Program&#45;&gt;#1 Function (xpto)</title>
<path fill="none" stroke="#0000ff" d="M291.1655,-1148.3943C301.251,-1135.8595 314.9652,-1118.8147 326.2777,-1104.7548"/>
<polygon fill="#0000ff" stroke="#0000ff" points="329.0734,-1106.8635 332.6153,-1096.8782 323.6195,-1102.4753 329.0734,-1106.8635"/>
<text text-anchor="middle" x="320.5" y="-1118.8" font-family="Times,serif" font-size="14.00" fill="#0000ff">1</text>
</g>
<!-- #2» x = 0 -->
<g id="node5" class="node">
<title>#2» x = 0</title>
<ellipse fill="none" stroke="#000000" cx="254" cy="-992" rx="45.4919" ry="18"/>
<text text-anchor="middle" x="254" y="-988.3" font-family="Times,serif" font-size="14.00" fill="#000000">#2» x = 0</text>
</g>
<!-- #1 Function (xpto)&#45;&gt;#2» x = 0 -->
<g id="edge4" class="edge">
<title>#1 Function (xpto)&#45;&gt;#2» x = 0</title>
<path fill="none" stroke="#0000ff" d="M326.3648,-1061.2736C319.788,-1055.5199 312.5265,-1049.0572 306,-1043 296.6809,-1034.351 286.6606,-1024.6287 277.9274,-1016.0103"/>
<polygon fill="#0000ff" stroke="#0000ff" points="280.1986,-1013.3333 270.6342,-1008.7755 275.2688,-1018.3029 280.1986,-1013.3333"/>
<text text-anchor="middle" x="309.5" y="-1031.8" font-family="Times,serif" font-size="14.00" fill="#0000ff">1</text>
</g>
<!-- #4 IfStatement -->
<g id="node6" class="node">
<title>#4 IfStatement</title>
<ellipse fill="none" stroke="#000000" cx="184" cy="-919" rx="63.8893" ry="18"/>
<text text-anchor="middle" x="184" y="-915.3" font-family="Times,serif" font-size="14.00" fill="#000000">#4 IfStatement</text>
</g>
<!-- #1 Function (xpto)&#45;&gt;#4 IfStatement -->
<g id="edge5" class="edge">
<title>#1 Function (xpto)&#45;&gt;#4 IfStatement</title>
<path fill="none" stroke="#0000ff" d="M287.2077,-1067.5484C254.0157,-1057.9504 215.0843,-1040.6694 193,-1010 180.0849,-992.0642 178.5551,-966.7235 179.8471,-947.3362"/>
<polygon fill="#0000ff" stroke="#0000ff" points="183.3426,-947.5483 180.8007,-937.2629 176.3737,-946.8885 183.3426,-947.5483"/>
<text text-anchor="middle" x="196.5" y="-988.3" font-family="Times,serif" font-size="14.00" fill="#0000ff">2</text>
</g>
<!-- #23» v3 = o.blah -->
<g id="node7" class="node">
<title>#23» v3 = o.blah</title>
<ellipse fill="none" stroke="#000000" cx="266" cy="-251" rx="71.4873" ry="18"/>
<text text-anchor="middle" x="266" y="-247.3" font-family="Times,serif" font-size="14.00" fill="#000000">#23» v3 = o.blah</text>
</g>
<!-- #1 Function (xpto)&#45;&gt;#23» v3 = o.blah -->
<g id="edge6" class="edge">
<title>#1 Function (xpto)&#45;&gt;#23» v3 = o.blah</title>
<path fill="none" stroke="#0000ff" d="M340.3403,-1060.9469C334.5223,-1043.5412 327,-1016.3321 327,-992 327,-992 327,-992 327,-324 327,-304.3513 313.8261,-287.1994 299.7226,-274.4671"/>
<polygon fill="#0000ff" stroke="#0000ff" points="301.775,-271.6199 291.8695,-267.8606 297.2686,-276.9765 301.775,-271.6199"/>
<text text-anchor="middle" x="330.5" y="-654.3" font-family="Times,serif" font-size="14.00" fill="#0000ff">3</text>
</g>
<!-- #27» v4 = eval(v3) -->
<g id="node8" class="node">
<title>#27» v4 = eval(v3)</title>
<ellipse fill="none" stroke="#000000" cx="365" cy="-178" rx="79.0865" ry="18"/>
<text text-anchor="middle" x="365" y="-174.3" font-family="Times,serif" font-size="14.00" fill="#000000">#27» v4 = eval(v3)</text>
</g>
<!-- #1 Function (xpto)&#45;&gt;#27» v4 = eval(v3) -->
<g id="edge7" class="edge">
<title>#1 Function (xpto)&#45;&gt;#27» v4 = eval(v3)</title>
<path fill="none" stroke="#0000ff" d="M352.9937,-1060.8948C358.2299,-1043.4513 365,-1016.2158 365,-992 365,-992 365,-992 365,-251 365,-236.2996 365,-219.934 365,-206.4302"/>
<polygon fill="#0000ff" stroke="#0000ff" points="368.5001,-206.3003 365,-196.3003 361.5001,-206.3004 368.5001,-206.3003"/>
<text text-anchor="middle" x="368.5" y="-610.8" font-family="Times,serif" font-size="14.00" fill="#0000ff">4</text>
</g>
<!-- #31» v4; -->
<g id="node9" class="node">
<title>#31» v4;</title>
<ellipse fill="none" stroke="#000000" cx="398" cy="-91" rx="42.4939" ry="18"/>
<text text-anchor="middle" x="398" y="-87.3" font-family="Times,serif" font-size="14.00" fill="#000000">#31» v4;</text>
</g>
<!-- #1 Function (xpto)&#45;&gt;#31» v4; -->
<g id="edge8" class="edge">
<title>#1 Function (xpto)&#45;&gt;#31» v4;</title>
<path fill="none" stroke="#0000ff" d="M403.5629,-1066.7206C464.547,-1051.8066 553,-1024.5624 553,-992 553,-992 553,-992 553,-178 553,-129.2285 493.9223,-107.5175 448.7126,-98.0433"/>
<polygon fill="#0000ff" stroke="#0000ff" points="449.2092,-94.5743 438.7244,-96.0972 447.8705,-101.4451 449.2092,-94.5743"/>
<text text-anchor="middle" x="556.5" y="-567.3" font-family="Times,serif" font-size="14.00" fill="#0000ff">5</text>
</g>
<!-- #34 _main_end -->
<g id="node10" class="node">
<title>#34 _main_end</title>
<ellipse fill="none" stroke="#ff0000" cx="459" cy="-992" rx="65.7887" ry="18"/>
<text text-anchor="middle" x="459" y="-988.3" font-family="Times,serif" font-size="14.00" fill="#ff0000">#34 _main_end</text>
</g>
<!-- #1 Function (xpto)&#45;&gt;#34 _main_end -->
<g id="edge9" class="edge">
<title>#1 Function (xpto)&#45;&gt;#34 _main_end</title>
<path fill="none" stroke="#ff0000" d="M369.3957,-1061.6033C386.5229,-1048.2992 410.305,-1029.8256 429.0644,-1015.2535"/>
<polygon fill="#ff0000" stroke="#ff0000" points="431.2746,-1017.9686 437.0248,-1009.07 426.9804,-1012.4405 431.2746,-1017.9686"/>
</g>
<!-- #33 _main_start -->
<g id="node3" class="node">
<title>#33 _main_start</title>
<ellipse fill="none" stroke="#ff0000" cx="416" cy="-1166" rx="68.4888" ry="18"/>
<text text-anchor="middle" x="416" y="-1162.3" font-family="Times,serif" font-size="14.00" fill="#ff0000">#33 _main_start</text>
</g>
<!-- #33 _main_start&#45;&gt;#1 Function (xpto) -->
<g id="edge2" class="edge">
<title>#33 _main_start&#45;&gt;#1 Function (xpto)</title>
<path fill="none" stroke="#ff0000" d="M401.7032,-1147.9735C391.831,-1135.5261 378.5512,-1118.782 367.5483,-1104.9087"/>
<polygon fill="#ff0000" stroke="#ff0000" points="369.9987,-1102.3658 361.0424,-1096.7057 364.5142,-1106.7156 369.9987,-1102.3658"/>
</g>
<!-- #35 _1_xpto_start -->
<g id="node4" class="node">
<title>#35 _1_xpto_start</title>
<ellipse fill="none" stroke="#ff0000" cx="159" cy="-1079" rx="74.9875" ry="18"/>
<text text-anchor="middle" x="159" y="-1075.3" font-family="Times,serif" font-size="14.00" fill="#ff0000">#35 _1_xpto_start</text>
</g>
<!-- #35 _1_xpto_start&#45;&gt;#2» x = 0 -->
<g id="edge3" class="edge">
<title>#35 _1_xpto_start&#45;&gt;#2» x = 0</title>
<path fill="none" stroke="#ff0000" d="M178.2247,-1061.3943C192.6685,-1048.1667 212.5966,-1029.9168 228.3913,-1015.4522"/>
<polygon fill="#ff0000" stroke="#ff0000" points="230.7599,-1018.029 235.7709,-1008.694 226.0323,-1012.8666 230.7599,-1018.029"/>
</g>
<!-- #2» x = 0&#45;&gt;#4 IfStatement -->
<g id="edge10" class="edge">
<title>#2» x = 0&#45;&gt;#4 IfStatement</title>
<path fill="none" stroke="#ff0000" d="M237.7646,-975.0688C228.9462,-965.8724 217.8713,-954.3229 208.0682,-944.0997"/>
<polygon fill="#ff0000" stroke="#ff0000" points="210.3256,-941.3969 200.8781,-936.6015 205.2731,-946.2417 210.3256,-941.3969"/>
</g>
<!-- #5 Identifier (x) -->
<g id="node11" class="node">
<title>#5 Identifier (x)</title>
<ellipse fill="none" stroke="#000000" cx="111" cy="-832" rx="67.6881" ry="18"/>
<text text-anchor="middle" x="111" y="-828.3" font-family="Times,serif" font-size="14.00" fill="#000000">#5 Identifier (x)</text>
</g>
<!-- #4 IfStatement&#45;&gt;#5 Identifier (x) -->
<g id="edge11" class="edge">
<title>#4 IfStatement&#45;&gt;#5 Identifier (x)</title>
<path fill="none" stroke="#0000ff" d="M153.9266,-903.087C145.6528,-897.594 137.2475,-890.8223 131,-883 125.6583,-876.3118 121.6005,-868.0228 118.5842,-860.0852"/>
<polygon fill="#0000ff" stroke="#0000ff" points="121.8176,-858.7205 115.3022,-850.3659 115.1855,-860.9601 121.8176,-858.7205"/>
<text text-anchor="middle" x="140.5" y="-871.8" font-family="Times,serif" font-size="14.00" fill="#0000ff">test</text>
</g>
<!-- #4 IfStatement&#45;&gt;#5 Identifier (x) -->
<g id="edge13" class="edge">
<title>#4 IfStatement&#45;&gt;#5 Identifier (x)</title>
<path fill="none" stroke="#ff0000" d="M173.3369,-900.7911C167.0787,-890.7111 158.7062,-878.1971 150,-868 146.6457,-864.0713 142.8902,-860.1368 139.07,-856.3875"/>
<polygon fill="#ff0000" stroke="#ff0000" points="141.4053,-853.7788 131.7325,-849.4558 136.5982,-858.8673 141.4053,-853.7788"/>
<text text-anchor="middle" x="171.5" y="-871.8" font-family="Times,serif" font-size="14.00" fill="#ff0000">test</text>
</g>
<!-- #22 BlockStatement -->
<g id="node12" class="node">
<title>#22 BlockStatement</title>
<ellipse fill="none" stroke="#000000" cx="172" cy="-745" rx="83.3857" ry="18"/>
<text text-anchor="middle" x="172" y="-741.3" font-family="Times,serif" font-size="14.00" fill="#000000">#22 BlockStatement</text>
</g>
<!-- #4 IfStatement&#45;&gt;#22 BlockStatement -->
<g id="edge12" class="edge">
<title>#4 IfStatement&#45;&gt;#22 BlockStatement</title>
<path fill="none" stroke="#0000ff" d="M186.865,-900.8731C190.4925,-874.2398 195.2316,-823.13 186,-781 185.381,-778.1751 184.5733,-775.2803 183.6579,-772.4194"/>
<polygon fill="#0000ff" stroke="#0000ff" points="186.936,-771.192 180.2494,-762.9737 180.3516,-773.568 186.936,-771.192"/>
<text text-anchor="middle" x="204" y="-828.3" font-family="Times,serif" font-size="14.00" fill="#0000ff">then</text>
</g>
<!-- #23» v3 = o.blah&#45;&gt;#27» v4 = eval(v3) -->
<g id="edge14" class="edge">
<title>#23» v3 = o.blah&#45;&gt;#27» v4 = eval(v3)</title>
<path fill="none" stroke="#ff0000" d="M289.2111,-233.8847C302.397,-224.1618 319.0889,-211.8537 333.4495,-201.2645"/>
<polygon fill="#ff0000" stroke="#ff0000" points="335.6199,-204.0128 341.5913,-195.261 331.4656,-198.3788 335.6199,-204.0128"/>
</g>
<!-- #27» v4 = eval(v3)&#45;&gt;#31» v4; -->
<g id="edge15" class="edge">
<title>#27» v4 = eval(v3)&#45;&gt;#31» v4;</title>
<path fill="none" stroke="#ff0000" d="M386.4534,-160.5474C391.5353,-155.1872 396.2686,-148.8702 399,-142 401.8342,-134.8714 402.6358,-126.7276 402.4559,-119.0719"/>
<polygon fill="#ff0000" stroke="#ff0000" points="405.9443,-118.7839 401.7009,-109.076 398.9641,-119.3112 405.9443,-118.7839"/>
</g>
<!-- #27» v4 = eval(v3)&#45;&gt;#31» v4; -->
<g id="edge16" class="edge">
<title>#27» v4 = eval(v3)&#45;&gt;#31» v4;</title>
<path fill="none" stroke="#006400" d="M352.1532,-159.9995C346.6732,-149.9847 342.6387,-137.4665 348,-127 351.2109,-120.7316 356.0778,-115.3061 361.5363,-110.7047"/>
<polygon fill="#006400" stroke="#006400" points="363.8866,-113.3192 369.8332,-104.5506 359.7163,-107.697 363.8866,-113.3192"/>
<text text-anchor="middle" x="355" y="-130.8" font-family="Times,serif" font-size="14.00" fill="#006400">v4</text>
</g>
<!-- #27» v4 = eval(v3)&#45;&gt;#31» v4; -->
<g id="edge17" class="edge">
<title>#27» v4 = eval(v3)&#45;&gt;#31» v4;</title>
<path fill="none" stroke="#006400" d="M370.0339,-159.8533C372.9264,-150.0178 376.8112,-137.7173 381,-127 382.1456,-124.0689 383.4215,-121.0416 384.745,-118.0451"/>
<polygon fill="#006400" stroke="#006400" points="388.0294,-119.2805 389.0343,-108.7334 381.6715,-116.3518 388.0294,-119.2805"/>
<text text-anchor="middle" x="388" y="-130.8" font-family="Times,serif" font-size="14.00" fill="#006400">v4</text>
</g>
<!-- #36 _1_xpto_end -->
<g id="node13" class="node">
<title>#36 _1_xpto_end</title>
<ellipse fill="none" stroke="#ff0000" cx="398" cy="-18" rx="72.2875" ry="18"/>
<text text-anchor="middle" x="398" y="-14.3" font-family="Times,serif" font-size="14.00" fill="#ff0000">#36 _1_xpto_end</text>
</g>
<!-- #31» v4;&#45;&gt;#36 _1_xpto_end -->
<g id="edge18" class="edge">
<title>#31» v4;&#45;&gt;#36 _1_xpto_end</title>
<path fill="none" stroke="#ff0000" d="M398,-72.9551C398,-64.8828 398,-55.1764 398,-46.1817"/>
<polygon fill="#ff0000" stroke="#ff0000" points="401.5001,-46.0903 398,-36.0904 394.5001,-46.0904 401.5001,-46.0903"/>
</g>
<!-- #5 Identifier (x)&#45;&gt;#22 BlockStatement -->
<g id="edge19" class="edge">
<title>#5 Identifier (x)&#45;&gt;#22 BlockStatement</title>
<path fill="none" stroke="#ff0000" d="M123.6392,-813.9735C132.2272,-801.7252 143.7321,-785.3165 153.3659,-771.5766"/>
<polygon fill="#ff0000" stroke="#ff0000" points="156.5017,-773.2006 159.377,-763.0034 150.7702,-769.1819 156.5017,-773.2006"/>
<text text-anchor="middle" x="164" y="-784.8" font-family="Times,serif" font-size="14.00" fill="#ff0000">TRUE</text>
</g>
<!-- #37 _4_end_if -->
<g id="node14" class="node">
<title>#37 _4_end_if</title>
<ellipse fill="none" stroke="#ff0000" cx="200" cy="-324" rx="61.99" ry="18"/>
<text text-anchor="middle" x="200" y="-320.3" font-family="Times,serif" font-size="14.00" fill="#ff0000">#37 _4_end_if</text>
</g>
<!-- #5 Identifier (x)&#45;&gt;#37 _4_end_if -->
<g id="edge20" class="edge">
<title>#5 Identifier (x)&#45;&gt;#37 _4_end_if</title>
<path fill="none" stroke="#ff0000" d="M68.402,-817.9608C37.0994,-804.6532 0,-781.2374 0,-745 0,-745 0,-745 0,-397 0,-367.5618 77.4285,-346.4956 135.9322,-334.7799"/>
<polygon fill="#ff0000" stroke="#ff0000" points="136.7319,-338.1899 145.8771,-332.8406 135.3921,-331.3193 136.7319,-338.1899"/>
<text text-anchor="middle" x="21" y="-567.3" font-family="Times,serif" font-size="14.00" fill="#ff0000">FALSE</text>
</g>
<!-- #6» v0 = o.blah -->
<g id="node15" class="node">
<title>#6» v0 = o.blah</title>
<ellipse fill="none" stroke="#000000" cx="139" cy="-658" rx="67.6881" ry="18"/>
<text text-anchor="middle" x="139" y="-654.3" font-family="Times,serif" font-size="14.00" fill="#000000">#6» v0 = o.blah</text>
</g>
<!-- #22 BlockStatement&#45;&gt;#6» v0 = o.blah -->
<g id="edge21" class="edge">
<title>#22 BlockStatement&#45;&gt;#6» v0 = o.blah</title>
<path fill="none" stroke="#0000ff" d="M165.1624,-726.9735C160.6049,-714.9585 154.529,-698.9401 149.3797,-685.3646"/>
<polygon fill="#0000ff" stroke="#0000ff" points="152.648,-684.112 145.8289,-676.0034 146.103,-686.5947 152.648,-684.112"/>
<text text-anchor="middle" x="161.5" y="-697.8" font-family="Times,serif" font-size="14.00" fill="#0000ff">1</text>
</g>
<!-- #22 BlockStatement&#45;&gt;#6» v0 = o.blah -->
<g id="edge25" class="edge">
<title>#22 BlockStatement&#45;&gt;#6» v0 = o.blah</title>
<path fill="none" stroke="#ff0000" d="M161.543,-727.0499C158.5187,-721.3954 155.3921,-715.0457 153,-709 150.1202,-701.7216 147.6058,-693.6351 145.5329,-686.0859"/>
<polygon fill="#ff0000" stroke="#ff0000" points="148.8814,-685.0546 142.987,-676.2509 142.1048,-686.8089 148.8814,-685.0546"/>
</g>
<!-- #10» v1 = o.bleh -->
<g id="node16" class="node">
<title>#10» v1 = o.bleh</title>
<ellipse fill="none" stroke="#000000" cx="136" cy="-571" rx="71.4873" ry="18"/>
<text text-anchor="middle" x="136" y="-567.3" font-family="Times,serif" font-size="14.00" fill="#000000">#10» v1 = o.bleh</text>
</g>
<!-- #22 BlockStatement&#45;&gt;#10» v1 = o.bleh -->
<g id="edge22" class="edge">
<title>#22 BlockStatement&#45;&gt;#10» v1 = o.bleh</title>
<path fill="none" stroke="#0000ff" d="M124.7285,-730.1576C99.2213,-719.4601 69.9713,-702.2101 55,-676 37.4874,-645.3408 70.0267,-613.7329 98.9339,-593.3159"/>
<polygon fill="#0000ff" stroke="#0000ff" points="101.031,-596.1226 107.3366,-587.6085 97.0978,-590.3321 101.031,-596.1226"/>
<text text-anchor="middle" x="58.5" y="-654.3" font-family="Times,serif" font-size="14.00" fill="#0000ff">2</text>
</g>
<!-- #14» v2 = &#39;x=&#39; + v1 -->
<g id="node17" class="node">
<title>#14» v2 = &#39;x=&#39; + v1</title>
<ellipse fill="none" stroke="#000000" cx="171" cy="-484" rx="81.4863" ry="18"/>
<text text-anchor="middle" x="171" y="-480.3" font-family="Times,serif" font-size="14.00" fill="#000000">#14» v2 = &#39;x=&#39; + v1</text>
</g>
<!-- #22 BlockStatement&#45;&gt;#14» v2 = &#39;x=&#39; + v1 -->
<g id="edge23" class="edge">
<title>#22 BlockStatement&#45;&gt;#14» v2 = &#39;x=&#39; + v1</title>
<path fill="none" stroke="#0000ff" d="M187.4843,-727.099C197.7929,-713.9405 210.4299,-695.0947 216,-676 231.3087,-623.5206 231.5771,-605.4004 216,-553 211.3645,-537.4064 201.9639,-522.0474 192.948,-509.7932"/>
<polygon fill="#0000ff" stroke="#0000ff" points="195.7022,-507.6333 186.8309,-501.8409 190.1538,-511.9012 195.7022,-507.6333"/>
<text text-anchor="middle" x="231.5" y="-610.8" font-family="Times,serif" font-size="14.00" fill="#0000ff">3</text>
</g>
<!-- #18» v0 = v2; -->
<g id="node18" class="node">
<title>#18» v0 = v2;</title>
<ellipse fill="none" stroke="#000000" cx="200" cy="-397" rx="61.1893" ry="18"/>
<text text-anchor="middle" x="200" y="-393.3" font-family="Times,serif" font-size="14.00" fill="#000000">#18» v0 = v2;</text>
</g>
<!-- #22 BlockStatement&#45;&gt;#18» v0 = v2; -->
<g id="edge24" class="edge">
<title>#22 BlockStatement&#45;&gt;#18» v0 = v2;</title>
<path fill="none" stroke="#0000ff" d="M216.3345,-729.6344C246.5117,-716.0349 281,-692.8658 281,-658 281,-658 281,-658 281,-484 281,-456.3076 258.7449,-433.7426 237.5656,-418.5384"/>
<polygon fill="#0000ff" stroke="#0000ff" points="239.48,-415.6077 229.2429,-412.878 235.5434,-421.3959 239.48,-415.6077"/>
<text text-anchor="middle" x="284.5" y="-567.3" font-family="Times,serif" font-size="14.00" fill="#0000ff">4</text>
</g>
<!-- #37 _4_end_if&#45;&gt;#23» v3 = o.blah -->
<g id="edge26" class="edge">
<title>#37 _4_end_if&#45;&gt;#23» v3 = o.blah</title>
<path fill="none" stroke="#ff0000" d="M215.9768,-306.3287C224.1045,-297.3389 234.1295,-286.2507 243.0656,-276.3668"/>
<polygon fill="#ff0000" stroke="#ff0000" points="245.8313,-278.5266 249.9416,-268.7615 240.6389,-273.8321 245.8313,-278.5266"/>
</g>
<!-- #6» v0 = o.blah&#45;&gt;#10» v1 = o.bleh -->
<g id="edge27" class="edge">
<title>#6» v0 = o.blah&#45;&gt;#10» v1 = o.bleh</title>
<path fill="none" stroke="#ff0000" d="M138.3784,-639.9735C137.9721,-628.1918 137.4331,-612.5607 136.971,-599.1581"/>
<polygon fill="#ff0000" stroke="#ff0000" points="140.4634,-598.8768 136.6208,-589.0034 133.4676,-599.1181 140.4634,-598.8768"/>
</g>
<!-- #10» v1 = o.bleh&#45;&gt;#14» v2 = &#39;x=&#39; + v1 -->
<g id="edge28" class="edge">
<title>#10» v1 = o.bleh&#45;&gt;#14» v2 = &#39;x=&#39; + v1</title>
<path fill="none" stroke="#ff0000" d="M146.9794,-553.0765C150.1617,-547.4231 153.4593,-541.0673 156,-535 159.0391,-527.7427 161.7175,-519.6633 163.9384,-512.1141"/>
<polygon fill="#ff0000" stroke="#ff0000" points="167.3672,-512.8475 166.6743,-502.2754 160.6231,-510.9721 167.3672,-512.8475"/>
</g>
<!-- #10» v1 = o.bleh&#45;&gt;#14» v2 = &#39;x=&#39; + v1 -->
<g id="edge29" class="edge">
<title>#10» v1 = o.bleh&#45;&gt;#14» v2 = &#39;x=&#39; + v1</title>
<path fill="none" stroke="#006400" d="M133.7351,-552.8893C133.1984,-542.84 133.7494,-530.324 138,-520 139.5181,-516.3127 141.5923,-512.7652 143.9668,-509.4306"/>
<polygon fill="#006400" stroke="#006400" points="146.7294,-511.5812 150.3429,-501.6216 141.3072,-507.154 146.7294,-511.5812"/>
<text text-anchor="middle" x="145" y="-523.8" font-family="Times,serif" font-size="14.00" fill="#006400">v1</text>
</g>
<!-- #14» v2 = &#39;x=&#39; + v1&#45;&gt;#18» v0 = v2; -->
<g id="edge30" class="edge">
<title>#14» v2 = &#39;x=&#39; + v1&#45;&gt;#18» v0 = v2;</title>
<path fill="none" stroke="#ff0000" d="M179.0856,-465.8586C181.4663,-460.1964 183.9735,-453.8903 186,-448 188.5464,-440.5984 190.9494,-432.4707 193.0221,-424.9214"/>
<polygon fill="#ff0000" stroke="#ff0000" points="196.4442,-425.6711 195.6262,-415.1079 189.6784,-423.8756 196.4442,-425.6711"/>
</g>
<!-- #14» v2 = &#39;x=&#39; + v1&#45;&gt;#18» v0 = v2; -->
<g id="edge31" class="edge">
<title>#14» v2 = &#39;x=&#39; + v1&#45;&gt;#18» v0 = v2;</title>
<path fill="none" stroke="#006400" d="M166.3924,-465.9836C164.6931,-455.9639 164.0284,-443.446 168,-433 169.4302,-429.2384 171.4535,-425.6188 173.7964,-422.2208"/>
<polygon fill="#006400" stroke="#006400" points="176.6315,-424.2791 180.1229,-414.276 171.1556,-419.9185 176.6315,-424.2791"/>
<text text-anchor="middle" x="175" y="-436.8" font-family="Times,serif" font-size="14.00" fill="#006400">v2</text>
</g>
<!-- #18» v0 = v2;&#45;&gt;#37 _4_end_if -->
<g id="edge32" class="edge">
<title>#18» v0 = v2;&#45;&gt;#37 _4_end_if</title>
<path fill="none" stroke="#ff0000" d="M200,-378.9551C200,-370.8828 200,-361.1764 200,-352.1817"/>
<polygon fill="#ff0000" stroke="#ff0000" points="203.5001,-352.0903 200,-342.0904 196.5001,-352.0904 203.5001,-352.0903"/>
</g>
</g>
</svg>
