<?xml version="1.0" encoding="UTF-8" standalone="no"?>
<!DOCTYPE svg PUBLIC "-//W3C//DTD SVG 1.1//EN"
 "http://www.w3.org/Graphics/SVG/1.1/DTD/svg11.dtd">
<!-- Generated by graphviz version 2.40.1 (20161225.0304)
 -->
<!-- Title: G Pages: 1 -->
<svg width="897pt" height="1366pt"
 viewBox="0.00 0.00 897.29 1366.00" xmlns="http://www.w3.org/2000/svg" xmlns:xlink="http://www.w3.org/1999/xlink">
<g id="graph0" class="graph" transform="scale(1 1) rotate(0) translate(4 1362)">
<title>G</title>
<polygon fill="#ffffff" stroke="transparent" points="-4,4 -4,-1362 893.293,-1362 893.293,4 -4,4"/>
<!-- #0 Program -->
<g id="node1" class="node">
<title>#0 Program</title>
<ellipse fill="none" stroke="#000000" cx="503" cy="-1340" rx="52.7911" ry="18"/>
<text text-anchor="middle" x="503" y="-1336.3" font-family="Times,serif" font-size="14.00" fill="#000000">#0 Program</text>
</g>
<!-- #1 Function (search) -->
<g id="node2" class="node">
<title>#1 Function (search)</title>
<ellipse fill="none" stroke="#000000" cx="573" cy="-1253" rx="83.6854" ry="18"/>
<text text-anchor="middle" x="573" y="-1249.3" font-family="Times,serif" font-size="14.00" fill="#000000">#1 Function (search)</text>
</g>
<!-- #0 Program&#45;&gt;#1 Function (search) -->
<g id="edge1" class="edge">
<title>#0 Program&#45;&gt;#1 Function (search)</title>
<path fill="none" stroke="#0000ff" d="M517.1655,-1322.3943C527.251,-1309.8595 540.9652,-1292.8147 552.2777,-1278.7548"/>
<polygon fill="#0000ff" stroke="#0000ff" points="555.0734,-1280.8635 558.6153,-1270.8782 549.6195,-1276.4753 555.0734,-1280.8635"/>
<text text-anchor="middle" x="545.5" y="-1292.8" font-family="Times,serif" font-size="14.00" fill="#0000ff">1</text>
</g>
<!-- #2» v1 = opts.filter -->
<g id="node5" class="node">
<title>#2» v1 = opts.filter</title>
<ellipse fill="none" stroke="#000000" cx="231" cy="-1166" rx="79.0865" ry="18"/>
<text text-anchor="middle" x="231" y="-1162.3" font-family="Times,serif" font-size="14.00" fill="#000000">#2» v1 = opts.filter</text>
</g>
<!-- #1 Function (search)&#45;&gt;#2» v1 = opts.filter -->
<g id="edge4" class="edge">
<title>#1 Function (search)&#45;&gt;#2» v1 = opts.filter</title>
<path fill="none" stroke="#0000ff" d="M496.5139,-1245.5953C433.4011,-1238.8683 349.1859,-1228.2946 317,-1217 297.968,-1210.3214 278.4956,-1199.1987 262.9034,-1189.0421"/>
<polygon fill="#0000ff" stroke="#0000ff" points="264.4601,-1185.8722 254.204,-1183.2146 260.5643,-1191.6879 264.4601,-1185.8722"/>
<text text-anchor="middle" x="320.5" y="-1205.8" font-family="Times,serif" font-size="14.00" fill="#0000ff">1</text>
</g>
<!-- #49 o1 -->
<g id="node6" class="node">
<title>#49 o1</title>
<ellipse fill="none" stroke="#006400" cx="328" cy="-164" rx="35.194" ry="18"/>
<text text-anchor="middle" x="328" y="-160.3" font-family="Times,serif" font-size="14.00" fill="#006400">#49 o1</text>
</g>
<!-- #1 Function (search)&#45;&gt;#49 o1 -->
<g id="edge13" class="edge">
<title>#1 Function (search)&#45;&gt;#49 o1</title>
<path fill="none" stroke="#006400" d="M600.3366,-1228.1263C614.9636,-1212.0464 630,-1189.7424 630,-1166 630,-1166 630,-1166 630,-251 630,-198.1635 457.1532,-175.4784 372.9878,-167.5641"/>
<polygon fill="#006400" stroke="#006400" points="597.6584,-1225.862 593.2566,-1235.4992 602.7075,-1230.7105 597.6584,-1225.862"/>
<polygon fill="#006400" stroke="#006400" points="373.2143,-164.0704 362.9383,-166.6498 372.58,-171.0416 373.2143,-164.0704"/>
<text text-anchor="middle" x="669.5" y="-711.8" font-family="Times,serif" font-size="14.00" fill="#006400">CREATE opts</text>
</g>
<!-- #6» v2 = !v1 -->
<g id="node7" class="node">
<title>#6» v2 = !v1</title>
<ellipse fill="none" stroke="#000000" cx="423" cy="-1079" rx="57.3905" ry="18"/>
<text text-anchor="middle" x="423" y="-1075.3" font-family="Times,serif" font-size="14.00" fill="#000000">#6» v2 = !v1</text>
</g>
<!-- #1 Function (search)&#45;&gt;#6» v2 = !v1 -->
<g id="edge5" class="edge">
<title>#1 Function (search)&#45;&gt;#6» v2 = !v1</title>
<path fill="none" stroke="#0000ff" d="M532.0508,-1237.2918C521.4538,-1231.9385 510.6145,-1225.1888 502,-1217 468.923,-1185.5576 445.6224,-1137.1778 433.2649,-1106.8467"/>
<polygon fill="#0000ff" stroke="#0000ff" points="436.4243,-1105.3179 429.4953,-1097.3029 429.9138,-1107.8895 436.4243,-1105.3179"/>
<text text-anchor="middle" x="478.5" y="-1162.3" font-family="Times,serif" font-size="14.00" fill="#0000ff">2</text>
</g>
<!-- #9» v3 = opts.collection -->
<g id="node8" class="node">
<title>#9» v3 = opts.collection</title>
<ellipse fill="none" stroke="#000000" cx="358" cy="-992" rx="96.6831" ry="18"/>
<text text-anchor="middle" x="358" y="-988.3" font-family="Times,serif" font-size="14.00" fill="#000000">#9» v3 = opts.collection</text>
</g>
<!-- #1 Function (search)&#45;&gt;#9» v3 = opts.collection -->
<g id="edge6" class="edge">
<title>#1 Function (search)&#45;&gt;#9» v3 = opts.collection</title>
<path fill="none" stroke="#0000ff" d="M526.5676,-1237.9861C512.3565,-1232.415 497.0441,-1225.3741 484,-1217 418.6517,-1175.0474 387.7309,-1168.3164 357,-1097 346.5225,-1072.6851 348.2551,-1042.1643 351.7159,-1020.3049"/>
<polygon fill="#0000ff" stroke="#0000ff" points="355.1836,-1020.7963 353.5077,-1010.3349 348.2939,-1019.558 355.1836,-1020.7963"/>
<text text-anchor="middle" x="377.5" y="-1118.8" font-family="Times,serif" font-size="14.00" fill="#0000ff">3</text>
</g>
<!-- #13» v4 = v2 &amp;&amp; v3 -->
<g id="node9" class="node">
<title>#13» v4 = v2 &amp;&amp; v3</title>
<ellipse fill="none" stroke="#000000" cx="431" cy="-919" rx="87.1846" ry="18"/>
<text text-anchor="middle" x="431" y="-915.3" font-family="Times,serif" font-size="14.00" fill="#000000">#13» v4 = v2 &amp;&amp; v3</text>
</g>
<!-- #1 Function (search)&#45;&gt;#13» v4 = v2 &amp;&amp; v3 -->
<g id="edge7" class="edge">
<title>#1 Function (search)&#45;&gt;#13» v4 = v2 &amp;&amp; v3</title>
<path fill="none" stroke="#0000ff" d="M552.7434,-1235.4992C536.36,-1219.3073 516,-1193.6276 516,-1166 516,-1166 516,-1166 516,-992 516,-969.3959 498.4864,-952.2716 479.3588,-940.3097"/>
<polygon fill="#0000ff" stroke="#0000ff" points="480.9196,-937.1688 470.5139,-935.1758 477.4056,-943.2229 480.9196,-937.1688"/>
<text text-anchor="middle" x="519.5" y="-1075.3" font-family="Times,serif" font-size="14.00" fill="#0000ff">4</text>
</g>
<!-- #17 IfStatement -->
<g id="node10" class="node">
<title>#17 IfStatement</title>
<ellipse fill="none" stroke="#000000" cx="431" cy="-846" rx="67.6881" ry="18"/>
<text text-anchor="middle" x="431" y="-842.3" font-family="Times,serif" font-size="14.00" fill="#000000">#17 IfStatement</text>
</g>
<!-- #1 Function (search)&#45;&gt;#17 IfStatement -->
<g id="edge8" class="edge">
<title>#1 Function (search)&#45;&gt;#17 IfStatement</title>
<path fill="none" stroke="#0000ff" d="M566.6733,-1234.9202C561.1462,-1217.4951 554,-1190.2725 554,-1166 554,-1166 554,-1166 554,-919 554,-888.3026 525.3179,-870.2297 495.6547,-859.747"/>
<polygon fill="#0000ff" stroke="#0000ff" points="496.6168,-856.3794 486.0244,-856.6039 494.4449,-863.034 496.6168,-856.3794"/>
<text text-anchor="middle" x="557.5" y="-1031.8" font-family="Times,serif" font-size="14.00" fill="#0000ff">5</text>
</g>
<!-- #34» v7 = opts.filter -->
<g id="node11" class="node">
<title>#34» v7 = opts.filter</title>
<ellipse fill="none" stroke="#000000" cx="517" cy="-251" rx="83.6854" ry="18"/>
<text text-anchor="middle" x="517" y="-247.3" font-family="Times,serif" font-size="14.00" fill="#000000">#34» v7 = opts.filter</text>
</g>
<!-- #1 Function (search)&#45;&gt;#34» v7 = opts.filter -->
<g id="edge9" class="edge">
<title>#1 Function (search)&#45;&gt;#34» v7 = opts.filter</title>
<path fill="none" stroke="#0000ff" d="M579.3267,-1234.9202C584.8538,-1217.4951 592,-1190.2725 592,-1166 592,-1166 592,-1166 592,-338 592,-311.8263 572.2858,-289.6224 553.0721,-274.1975"/>
<polygon fill="#0000ff" stroke="#0000ff" points="555.0074,-271.2723 544.9272,-268.0101 550.7729,-276.8464 555.0074,-271.2723"/>
<text text-anchor="middle" x="595.5" y="-755.3" font-family="Times,serif" font-size="14.00" fill="#0000ff">6</text>
</g>
<!-- #38» v8 = eval(v7) -->
<g id="node12" class="node">
<title>#38» v8 = eval(v7)</title>
<ellipse fill="none" stroke="#000000" cx="757" cy="-164" rx="79.0865" ry="18"/>
<text text-anchor="middle" x="757" y="-160.3" font-family="Times,serif" font-size="14.00" fill="#000000">#38» v8 = eval(v7)</text>
</g>
<!-- #1 Function (search)&#45;&gt;#38» v8 = eval(v7) -->
<g id="edge10" class="edge">
<title>#1 Function (search)&#45;&gt;#38» v8 = eval(v7)</title>
<path fill="none" stroke="#0000ff" d="M641.2462,-1242.4316C713.7397,-1229.2289 818,-1203.6893 818,-1166 818,-1166 818,-1166 818,-251 818,-226.9037 802.1181,-204.7466 786.5619,-188.8235"/>
<polygon fill="#0000ff" stroke="#0000ff" points="788.6421,-185.966 779.0224,-181.5262 783.7739,-190.9959 788.6421,-185.966"/>
<text text-anchor="middle" x="821.5" y="-711.8" font-family="Times,serif" font-size="14.00" fill="#0000ff">7</text>
</g>
<!-- #42» v8; -->
<g id="node13" class="node">
<title>#42» v8;</title>
<ellipse fill="none" stroke="#000000" cx="810" cy="-91" rx="42.4939" ry="18"/>
<text text-anchor="middle" x="810" y="-87.3" font-family="Times,serif" font-size="14.00" fill="#000000">#42» v8;</text>
</g>
<!-- #1 Function (search)&#45;&gt;#42» v8; -->
<g id="edge11" class="edge">
<title>#1 Function (search)&#45;&gt;#42» v8;</title>
<path fill="none" stroke="#0000ff" d="M649.0767,-1245.3641C735.2974,-1234.5487 864,-1210.8867 864,-1166 864,-1166 864,-1166 864,-164 864,-144.6285 851.5578,-127.0341 838.6182,-113.9741"/>
<polygon fill="#0000ff" stroke="#0000ff" points="840.7117,-111.1378 831.0324,-106.8294 835.9123,-116.2336 840.7117,-111.1378"/>
<text text-anchor="middle" x="867.5" y="-668.3" font-family="Times,serif" font-size="14.00" fill="#0000ff">8</text>
</g>
<!-- #45 _main_end -->
<g id="node14" class="node">
<title>#45 _main_end</title>
<ellipse fill="none" stroke="#ff0000" cx="724" cy="-1166" rx="65.7887" ry="18"/>
<text text-anchor="middle" x="724" y="-1162.3" font-family="Times,serif" font-size="14.00" fill="#ff0000">#45 _main_end</text>
</g>
<!-- #1 Function (search)&#45;&gt;#45 _main_end -->
<g id="edge12" class="edge">
<title>#1 Function (search)&#45;&gt;#45 _main_end</title>
<path fill="none" stroke="#ff0000" d="M607.308,-1236.4567C619.0735,-1230.5594 632.2356,-1223.7109 644,-1217 659.6393,-1208.0787 676.5091,-1197.4773 690.7069,-1188.2573"/>
<polygon fill="#ff0000" stroke="#ff0000" points="692.7149,-1191.1262 699.1669,-1182.7225 688.8825,-1185.2684 692.7149,-1191.1262"/>
</g>
<!-- #44 _main_start -->
<g id="node3" class="node">
<title>#44 _main_start</title>
<ellipse fill="none" stroke="#ff0000" cx="642" cy="-1340" rx="68.4888" ry="18"/>
<text text-anchor="middle" x="642" y="-1336.3" font-family="Times,serif" font-size="14.00" fill="#ff0000">#44 _main_start</text>
</g>
<!-- #44 _main_start&#45;&gt;#1 Function (search) -->
<g id="edge2" class="edge">
<title>#44 _main_start&#45;&gt;#1 Function (search)</title>
<path fill="none" stroke="#ff0000" d="M627.7032,-1321.9735C617.8964,-1309.6085 604.727,-1293.0036 593.7672,-1279.1847"/>
<polygon fill="#ff0000" stroke="#ff0000" points="596.2348,-1276.6635 587.2785,-1271.0034 590.7503,-1281.0133 596.2348,-1276.6635"/>
</g>
<!-- #46 _1_search_start -->
<g id="node4" class="node">
<title>#46 _1_search_start</title>
<ellipse fill="none" stroke="#ff0000" cx="231" cy="-1253" rx="81.4863" ry="18"/>
<text text-anchor="middle" x="231" y="-1249.3" font-family="Times,serif" font-size="14.00" fill="#ff0000">#46 _1_search_start</text>
</g>
<!-- #46 _1_search_start&#45;&gt;#2» v1 = opts.filter -->
<g id="edge3" class="edge">
<title>#46 _1_search_start&#45;&gt;#2» v1 = opts.filter</title>
<path fill="none" stroke="#ff0000" d="M231,-1234.9735C231,-1223.1918 231,-1207.5607 231,-1194.1581"/>
<polygon fill="#ff0000" stroke="#ff0000" points="234.5001,-1194.0033 231,-1184.0034 227.5001,-1194.0034 234.5001,-1194.0033"/>
</g>
<!-- #2» v1 = opts.filter&#45;&gt;#49 o1 -->
<g id="edge15" class="edge">
<title>#2» v1 = opts.filter&#45;&gt;#49 o1</title>
<path fill="none" stroke="#006400" d="M158.0687,-1152.9693C90.3754,-1138.7366 0,-1113.3101 0,-1079 0,-1079 0,-1079 0,-251 0,-193.1968 192.72,-172.891 282.7105,-166.5601"/>
<polygon fill="#006400" stroke="#006400" points="157.378,-1156.4004 167.8782,-1154.9877 158.7888,-1149.5441 157.378,-1156.4004"/>
<polygon fill="#006400" stroke="#006400" points="283.1567,-170.0381 292.8983,-165.8724 282.6852,-163.054 283.1567,-170.0381"/>
<text text-anchor="middle" x="42.5" y="-668.3" font-family="Times,serif" font-size="14.00" fill="#006400">LOOKUP filter</text>
</g>
<!-- #2» v1 = opts.filter&#45;&gt;#6» v2 = !v1 -->
<g id="edge14" class="edge">
<title>#2» v1 = opts.filter&#45;&gt;#6» v2 = !v1</title>
<path fill="none" stroke="#ff0000" d="M256.2486,-1148.877C272.7552,-1138.1856 295.0627,-1124.6654 316,-1115 333.3418,-1106.9945 352.9862,-1099.867 370.6671,-1094.1093"/>
<polygon fill="#ff0000" stroke="#ff0000" points="371.794,-1097.4237 380.2607,-1091.0546 369.6701,-1090.7537 371.794,-1097.4237"/>
</g>
<!-- #6» v2 = !v1&#45;&gt;#9» v3 = opts.collection -->
<g id="edge16" class="edge">
<title>#6» v2 = !v1&#45;&gt;#9» v3 = opts.collection</title>
<path fill="none" stroke="#ff0000" d="M409.8463,-1061.3943C400.5688,-1048.9767 387.9844,-1032.1329 377.5372,-1018.1498"/>
<polygon fill="#ff0000" stroke="#ff0000" points="380.1464,-1015.7944 371.3573,-1009.8782 374.5387,-1019.9841 380.1464,-1015.7944"/>
</g>
<!-- #9» v3 = opts.collection&#45;&gt;#49 o1 -->
<g id="edge18" class="edge">
<title>#9» v3 = opts.collection&#45;&gt;#49 o1</title>
<path fill="none" stroke="#006400" d="M263.939,-981.5154C194.8557,-971.103 113,-951.8371 113,-919 113,-919 113,-919 113,-251 113,-214.2872 222.0846,-185.7342 284.8521,-172.3435"/>
<polygon fill="#006400" stroke="#006400" points="263.627,-985.0069 274.0277,-982.988 264.6381,-978.0803 263.627,-985.0069"/>
<polygon fill="#006400" stroke="#006400" points="285.8044,-175.7202 294.8774,-170.2493 284.373,-168.8681 285.8044,-175.7202"/>
<text text-anchor="middle" x="169" y="-581.3" font-family="Times,serif" font-size="14.00" fill="#006400">LOOKUP collection</text>
</g>
<!-- #9» v3 = opts.collection&#45;&gt;#13» v4 = v2 &amp;&amp; v3 -->
<g id="edge17" class="edge">
<title>#9» v3 = opts.collection&#45;&gt;#13» v4 = v2 &amp;&amp; v3</title>
<path fill="none" stroke="#ff0000" d="M376.0449,-973.9551C385.0619,-964.9381 396.1179,-953.8821 405.9432,-944.0568"/>
<polygon fill="#ff0000" stroke="#ff0000" points="408.5664,-946.3834 413.1626,-936.8374 403.6166,-941.4336 408.5664,-946.3834"/>
</g>
<!-- #13» v4 = v2 &amp;&amp; v3&#45;&gt;#17 IfStatement -->
<g id="edge19" class="edge">
<title>#13» v4 = v2 &amp;&amp; v3&#45;&gt;#17 IfStatement</title>
<path fill="none" stroke="#ff0000" d="M431,-900.9551C431,-892.8828 431,-883.1764 431,-874.1817"/>
<polygon fill="#ff0000" stroke="#ff0000" points="434.5001,-874.0903 431,-864.0904 427.5001,-874.0904 434.5001,-874.0903"/>
</g>
<!-- #18 Identifier (v4) -->
<g id="node15" class="node">
<title>#18 Identifier (v4)</title>
<ellipse fill="none" stroke="#000000" cx="360" cy="-759" rx="76.0865" ry="18"/>
<text text-anchor="middle" x="360" y="-755.3" font-family="Times,serif" font-size="14.00" fill="#000000">#18 Identifier (v4)</text>
</g>
<!-- #17 IfStatement&#45;&gt;#18 Identifier (v4) -->
<g id="edge20" class="edge">
<title>#17 IfStatement&#45;&gt;#18 Identifier (v4)</title>
<path fill="none" stroke="#0000ff" d="M417.1298,-827.9026C409.5219,-818.0815 399.8603,-805.7791 391,-795 388.2307,-791.631 385.2829,-788.1179 382.3485,-784.664"/>
<polygon fill="#0000ff" stroke="#0000ff" points="384.7809,-782.1236 375.6161,-776.8079 379.4656,-786.6787 384.7809,-782.1236"/>
<text text-anchor="middle" x="412.5" y="-798.8" font-family="Times,serif" font-size="14.00" fill="#0000ff">test</text>
</g>
<!-- #17 IfStatement&#45;&gt;#18 Identifier (v4) -->
<g id="edge22" class="edge">
<title>#17 IfStatement&#45;&gt;#18 Identifier (v4)</title>
<path fill="none" stroke="#ff0000" d="M392.3597,-831.0708C383.0652,-825.7457 374.078,-818.8155 368,-810 363.4723,-803.433 361.1258,-795.268 359.9912,-787.4099"/>
<polygon fill="#ff0000" stroke="#ff0000" points="363.4752,-787.0731 359.1162,-777.4165 356.5019,-787.6837 363.4752,-787.0731"/>
<text text-anchor="middle" x="377.5" y="-798.8" font-family="Times,serif" font-size="14.00" fill="#ff0000">test</text>
</g>
<!-- #33 BlockStatement -->
<g id="node16" class="node">
<title>#33 BlockStatement</title>
<ellipse fill="none" stroke="#000000" cx="469" cy="-672" rx="83.3857" ry="18"/>
<text text-anchor="middle" x="469" y="-668.3" font-family="Times,serif" font-size="14.00" fill="#000000">#33 BlockStatement</text>
</g>
<!-- #17 IfStatement&#45;&gt;#33 BlockStatement -->
<g id="edge21" class="edge">
<title>#17 IfStatement&#45;&gt;#33 BlockStatement</title>
<path fill="none" stroke="#0000ff" d="M435.0463,-827.6664C440.3451,-803.6357 449.9116,-760.1711 458,-723 459.597,-715.6609 461.3135,-707.7253 462.9046,-700.3497"/>
<polygon fill="#0000ff" stroke="#0000ff" points="466.36,-700.9292 465.0448,-690.4163 459.517,-699.4547 466.36,-700.9292"/>
<text text-anchor="middle" x="466" y="-755.3" font-family="Times,serif" font-size="14.00" fill="#0000ff">then</text>
</g>
<!-- #34» v7 = opts.filter&#45;&gt;#49 o1 -->
<g id="edge24" class="edge">
<title>#34» v7 = opts.filter&#45;&gt;#49 o1</title>
<path fill="none" stroke="#006400" d="M477.1609,-229.379C459.2671,-219.954 437.7715,-209.0222 418,-200 401.2643,-192.3631 382.4112,-184.6842 366.3004,-178.3917"/>
<polygon fill="#006400" stroke="#006400" points="475.6872,-232.5592 486.1616,-234.1522 478.9668,-226.375 475.6872,-232.5592"/>
<polygon fill="#006400" stroke="#006400" points="367.2562,-175.0088 356.667,-174.6656 364.731,-181.5374 367.2562,-175.0088"/>
<text text-anchor="middle" x="491.5" y="-203.8" font-family="Times,serif" font-size="14.00" fill="#006400">LOOKUP filter</text>
</g>
<!-- #34» v7 = opts.filter&#45;&gt;#38» v8 = eval(v7) -->
<g id="edge23" class="edge">
<title>#34» v7 = opts.filter&#45;&gt;#38» v8 = eval(v7)</title>
<path fill="none" stroke="#ff0000" d="M559.9072,-235.4461C600.6456,-220.6785 661.9409,-198.4589 705.343,-182.7257"/>
<polygon fill="#ff0000" stroke="#ff0000" points="706.6583,-185.9718 714.8668,-179.2733 704.2727,-179.3909 706.6583,-185.9718"/>
</g>
<!-- #38» v8 = eval(v7)&#45;&gt;#42» v8; -->
<g id="edge25" class="edge">
<title>#38» v8 = eval(v7)&#45;&gt;#42» v8;</title>
<path fill="none" stroke="#ff0000" d="M770.1011,-145.9551C776.5499,-137.0727 784.4354,-126.2116 791.4881,-116.4975"/>
<polygon fill="#ff0000" stroke="#ff0000" points="794.3716,-118.4832 797.4145,-108.3347 788.7071,-114.3705 794.3716,-118.4832"/>
</g>
<!-- #47 _1_search_end -->
<g id="node17" class="node">
<title>#47 _1_search_end</title>
<ellipse fill="none" stroke="#ff0000" cx="810" cy="-18" rx="79.0865" ry="18"/>
<text text-anchor="middle" x="810" y="-14.3" font-family="Times,serif" font-size="14.00" fill="#ff0000">#47 _1_search_end</text>
</g>
<!-- #42» v8;&#45;&gt;#47 _1_search_end -->
<g id="edge26" class="edge">
<title>#42» v8;&#45;&gt;#47 _1_search_end</title>
<path fill="none" stroke="#ff0000" d="M810,-72.9551C810,-64.8828 810,-55.1764 810,-46.1817"/>
<polygon fill="#ff0000" stroke="#ff0000" points="813.5001,-46.0903 810,-36.0904 806.5001,-46.0904 813.5001,-46.0903"/>
</g>
<!-- #18 Identifier (v4)&#45;&gt;#33 BlockStatement -->
<g id="edge27" class="edge">
<title>#18 Identifier (v4)&#45;&gt;#33 BlockStatement</title>
<path fill="none" stroke="#ff0000" d="M380.8027,-741.585C392.7696,-731.6433 408.1367,-719.0058 422,-708 427.0715,-703.9738 432.4933,-699.7491 437.7858,-695.6673"/>
<polygon fill="#ff0000" stroke="#ff0000" points="440.1246,-698.2843 445.9273,-689.4198 435.8632,-692.7309 440.1246,-698.2843"/>
<text text-anchor="middle" x="440" y="-711.8" font-family="Times,serif" font-size="14.00" fill="#ff0000">TRUE</text>
</g>
<!-- #48 _17_end_if -->
<g id="node18" class="node">
<title>#48 _17_end_if</title>
<ellipse fill="none" stroke="#ff0000" cx="498" cy="-338" rx="66.0889" ry="18"/>
<text text-anchor="middle" x="498" y="-334.3" font-family="Times,serif" font-size="14.00" fill="#ff0000">#48 _17_end_if</text>
</g>
<!-- #18 Identifier (v4)&#45;&gt;#48 _17_end_if -->
<g id="edge28" class="edge">
<title>#18 Identifier (v4)&#45;&gt;#48 _17_end_if</title>
<path fill="none" stroke="#ff0000" d="M342.3985,-741.4396C311.5645,-708.4726 252.7941,-634.5411 272,-567 294.8722,-486.5658 310.2259,-464.4395 371,-407 393.8198,-385.4323 424.6745,-368.4634 450.2569,-356.7505"/>
<polygon fill="#ff0000" stroke="#ff0000" points="451.7051,-359.937 459.4189,-352.6742 448.8596,-353.5414 451.7051,-359.937"/>
<text text-anchor="middle" x="303" y="-537.8" font-family="Times,serif" font-size="14.00" fill="#ff0000">FALSE</text>
</g>
<!-- #19» v5 = opts.collection -->
<g id="node19" class="node">
<title>#19» v5 = opts.collection</title>
<ellipse fill="none" stroke="#000000" cx="382" cy="-585" rx="101.2821" ry="18"/>
<text text-anchor="middle" x="382" y="-581.3" font-family="Times,serif" font-size="14.00" fill="#000000">#19» v5 = opts.collection</text>
</g>
<!-- #33 BlockStatement&#45;&gt;#19» v5 = opts.collection -->
<g id="edge29" class="edge">
<title>#33 BlockStatement&#45;&gt;#19» v5 = opts.collection</title>
<path fill="none" stroke="#0000ff" d="M451.3943,-654.3943C438.6252,-641.6252 421.1759,-624.1759 406.9696,-609.9696"/>
<polygon fill="#0000ff" stroke="#0000ff" points="409.4242,-607.4744 399.8782,-602.8782 404.4744,-612.4242 409.4242,-607.4744"/>
<text text-anchor="middle" x="434.5" y="-624.8" font-family="Times,serif" font-size="14.00" fill="#0000ff">1</text>
</g>
<!-- #33 BlockStatement&#45;&gt;#19» v5 = opts.collection -->
<g id="edge32" class="edge">
<title>#33 BlockStatement&#45;&gt;#19» v5 = opts.collection</title>
<path fill="none" stroke="#ff0000" d="M440.5584,-655.0523C432.4706,-649.5302 423.9734,-643.002 417,-636 409.8768,-628.8476 403.2658,-620.0716 397.7512,-611.8287"/>
<polygon fill="#ff0000" stroke="#ff0000" points="400.5642,-609.731 392.2253,-603.1955 394.6685,-613.5048 400.5642,-609.731"/>
</g>
<!-- #23» v6 = &#39;...&#39; + v5 -->
<g id="node20" class="node">
<title>#23» v6 = &#39;...&#39; + v5</title>
<ellipse fill="none" stroke="#000000" cx="447" cy="-498" rx="79.0865" ry="18"/>
<text text-anchor="middle" x="447" y="-494.3" font-family="Times,serif" font-size="14.00" fill="#000000">#23» v6 = &#39;...&#39; + v5</text>
</g>
<!-- #33 BlockStatement&#45;&gt;#23» v6 = &#39;...&#39; + v5 -->
<g id="edge30" class="edge">
<title>#33 BlockStatement&#45;&gt;#23» v6 = &#39;...&#39; + v5</title>
<path fill="none" stroke="#0000ff" d="M478.4517,-653.9613C488.2364,-632.8801 500.9334,-597.0514 492,-567 487.3645,-551.4064 477.9639,-536.0474 468.948,-523.7932"/>
<polygon fill="#0000ff" stroke="#0000ff" points="471.7022,-521.6333 462.8309,-515.8409 466.1538,-525.9012 471.7022,-521.6333"/>
<text text-anchor="middle" x="498.5" y="-581.3" font-family="Times,serif" font-size="14.00" fill="#0000ff">2</text>
</g>
<!-- #27» opts.filter = v6; -->
<g id="node21" class="node">
<title>#27» opts.filter = v6;</title>
<ellipse fill="none" stroke="#000000" cx="466" cy="-425" rx="86.3847" ry="18"/>
<text text-anchor="middle" x="466" y="-421.3" font-family="Times,serif" font-size="14.00" fill="#000000">#27» opts.filter = v6;</text>
</g>
<!-- #33 BlockStatement&#45;&gt;#27» opts.filter = v6; -->
<g id="edge31" class="edge">
<title>#33 BlockStatement&#45;&gt;#27» opts.filter = v6;</title>
<path fill="none" stroke="#0000ff" d="M488.3175,-654.2729C493.3614,-648.8235 498.3892,-642.5292 502,-636 536.296,-573.9838 565.7556,-543.846 535,-480 528.7407,-467.0063 517.7529,-456.131 506.3612,-447.5734"/>
<polygon fill="#0000ff" stroke="#0000ff" points="508.2548,-444.6266 498.0567,-441.7546 504.2379,-450.3594 508.2548,-444.6266"/>
<text text-anchor="middle" x="550.5" y="-537.8" font-family="Times,serif" font-size="14.00" fill="#0000ff">3</text>
</g>
<!-- #48 _17_end_if&#45;&gt;#34» v7 = opts.filter -->
<g id="edge33" class="edge">
<title>#48 _17_end_if&#45;&gt;#34» v7 = opts.filter</title>
<path fill="none" stroke="#ff0000" d="M501.9368,-319.9735C504.5098,-308.1918 507.9235,-292.5607 510.8505,-279.1581"/>
<polygon fill="#ff0000" stroke="#ff0000" points="514.3539,-279.5199 513.0682,-269.0034 507.5151,-278.0263 514.3539,-279.5199"/>
</g>
<!-- #19» v5 = opts.collection&#45;&gt;#49 o1 -->
<g id="edge35" class="edge">
<title>#19» v5 = opts.collection&#45;&gt;#49 o1</title>
<path fill="none" stroke="#006400" d="M357.8064,-559.3238C326.4899,-524.1372 273.5076,-457.4607 253,-389 231.0945,-315.8725 280.2526,-230.6572 309.0339,-189.2156"/>
<polygon fill="#006400" stroke="#006400" points="355.5906,-562.092 364.8926,-567.1639 360.7838,-557.3982 355.5906,-562.092"/>
<polygon fill="#006400" stroke="#006400" points="312.0599,-190.9998 315.0042,-180.8223 306.3557,-186.9424 312.0599,-190.9998"/>
<text text-anchor="middle" x="309" y="-377.8" font-family="Times,serif" font-size="14.00" fill="#006400">LOOKUP collection</text>
</g>
<!-- #19» v5 = opts.collection&#45;&gt;#23» v6 = &#39;...&#39; + v5 -->
<g id="edge34" class="edge">
<title>#19» v5 = opts.collection&#45;&gt;#23» v6 = &#39;...&#39; + v5</title>
<path fill="none" stroke="#ff0000" d="M395.468,-566.9735C404.7063,-554.6085 417.1123,-538.0036 427.4367,-524.1847"/>
<polygon fill="#ff0000" stroke="#ff0000" points="430.3678,-526.1093 433.5492,-516.0034 424.76,-521.9196 430.3678,-526.1093"/>
</g>
<!-- #23» v6 = &#39;...&#39; + v5&#45;&gt;#27» opts.filter = v6; -->
<g id="edge36" class="edge">
<title>#23» v6 = &#39;...&#39; + v5&#45;&gt;#27» opts.filter = v6;</title>
<path fill="none" stroke="#ff0000" d="M451.6966,-479.9551C453.8205,-471.7951 456.3789,-461.9652 458.7413,-452.8887"/>
<polygon fill="#ff0000" stroke="#ff0000" points="462.1598,-453.6496 461.2916,-443.0904 455.3855,-451.8863 462.1598,-453.6496"/>
</g>
<!-- #27» opts.filter = v6;&#45;&gt;#49 o1 -->
<g id="edge38" class="edge">
<title>#27» opts.filter = v6;&#45;&gt;#49 o1</title>
<path fill="none" stroke="#006400" d="M448.6101,-398.4542C440.5254,-385.7773 430.9614,-370.2872 423,-356 390.9272,-298.4433 357.7469,-228.5938 340.3532,-191.033"/>
<polygon fill="#006400" stroke="#006400" points="445.8376,-400.6138 454.1914,-407.1303 451.7247,-396.8266 445.8376,-400.6138"/>
<polygon fill="#006400" stroke="#006400" points="343.447,-189.3838 336.0805,-181.7689 337.0905,-192.3155 343.447,-189.3838"/>
<text text-anchor="middle" x="431" y="-290.8" font-family="Times,serif" font-size="14.00" fill="#006400">WRITE filter</text>
</g>
<!-- #27» opts.filter = v6;&#45;&gt;#48 _17_end_if -->
<g id="edge37" class="edge">
<title>#27» opts.filter = v6;&#45;&gt;#48 _17_end_if</title>
<path fill="none" stroke="#ff0000" d="M472.6304,-406.9735C477.0069,-395.0751 482.8273,-379.2508 487.7892,-365.7606"/>
<polygon fill="#ff0000" stroke="#ff0000" points="491.2108,-366.5969 491.3781,-356.0034 484.6411,-364.1804 491.2108,-366.5969"/>
</g>
</g>
</svg>
